M48
;Layer_Color=9474304
;FILE_FORMAT=2:5
INCH,LZ
;TYPE=PLATED
T1F00S00C0.00787
T2F00S00C0.03000
T3F00S00C0.11811
%
T01
X035876Y0584252
X035799Y0594222
X035425Y0591761
X0345866Y0606693
X0341831Y0610532
X0339387Y0614991
X0337713Y0616073
X0345965Y0624311
X0369094Y0624016
X0372835Y0618898
X0375394Y0618996
X0380512Y0618701
X0393504Y0619223
X0392637Y0617254
X039065Y0611122
X0391437Y0599606
X0388484Y0596907
X0387992Y059439
X0392028Y0594488
X0397441Y0594587
X0409449Y059813
X0408169Y0603346
X041813Y0607283
X0420099Y0606919
X0419902Y0611447
X042313Y0611909
X0423327Y0614567
X0419312Y0618928
X0414862Y0593209
X0410925Y0587697
X0404646Y0579457
X0368799Y0607185
X0367618Y0611909
X0368012Y0625984
X0366732Y0627461
X0372047Y063061
X0373721Y0634252
X0376083Y0635138
X038061Y063061
X0390659Y0629045
X0391929Y0633169
X0400689Y0633661
X0400098Y0636319
X0412889Y0633334
X034795Y0625326
T02
X0328833Y0578283
X0326279Y0584646
X0328972Y059095
X0335335Y0593504
X0341639Y0590811
X0344193Y0584449
X03415Y0578144
X0348721Y0579626
X0335138Y0575591
X0380512Y0578937
X0411909Y0580413
X0416831Y0584646
X0419384Y0578283
X0425689Y0575591
X0432051Y0578144
X0434744Y0584449
X043219Y0590811
X0425886Y0593504
X0419524Y059095
X0419384Y0629563
X0416831Y0635925
X0419524Y064223
X0425886Y0644783
X043219Y0642091
X0434744Y0635728
X0432051Y0629424
X0425689Y062687
X03415Y0629424
X0335138Y062687
X0328833Y0629563
X0326279Y0635925
X0328972Y064223
X0335335Y0644783
X0341639Y0642091
X0344193Y0635728
T03
X0335236Y0584547
X0425787
Y0635827
X0335236
M30
