M48
;Layer_Color=9474304
;FILE_FORMAT=2:5
INCH,LZ
;TYPE=PLATED
T1F00S00C0.00787
T2F00S00C0.03000
T3F00S00C0.11811
%
T01
X0337106Y0602854
X0345866Y0606693
X0368799Y0607185
X0367618Y0611909
X0372835Y0618898
X0375394Y0618996
X0380512Y0618701
X0391437Y0618307
X0393504Y0619685
X039065Y0611122
X0399016Y0611024
X0408169Y0603346
X0409449Y059813
X0414862Y0593209
X041813Y0607283
X0421063Y0607677
X0419902Y0611447
X042313Y0611909
X0423327Y0614567
X0419312Y0618928
X0426476Y0607382
X0397441Y0594587
X0392028Y0594488
X0387992Y059439
X0388484Y0596907
X0391437Y0599606
X035799Y0594222
X035876Y0584252
X0369094Y0624016
X0368012Y0625984
X0366732Y0627461
X0372047Y063061
X038061
X0386614Y0633661
X0391929Y0633169
X0390659Y0629045
X0389665Y0636811
X0400098Y0636319
X0400689Y0633661
X0416732Y0629035
X0427067Y0627185
X0426476Y0633563
X0422047Y0637205
X042185Y0640059
X03375Y0628051
X0339567Y0656299
T02
X0328833Y0578283
X0326279Y0584646
X0328972Y059095
X0335335Y0593504
X0341639Y0590811
X0344193Y0584449
X03415Y0578144
X0348721Y0579626
X0335138Y0575591
X0330807Y0618799
X0380512Y0578937
X0411909Y0580413
X0416831Y0584646
X0419384Y0578283
X0425689Y0575591
X0432051Y0578144
X0434744Y0584449
X043219Y0590811
X0425886Y0593504
X0419524Y059095
X0435433Y0624508
X0434449Y0658661
X0432051Y0668695
X0425689Y0666142
X0419384Y0668835
X0416831Y0675197
X0419524Y0681501
X0425886Y0684055
X043219Y0681362
X0434744Y0675
X0344193
X0341639Y0681362
X0335335Y0684055
X0328972Y0681501
X0326279Y0675197
X0328833Y0668835
X0335138Y0666142
X03415Y0668695
X0332087Y0660236
T03
X0335236Y0584547
X0425787
Y0675098
X0335236
M30
