M48
;Layer_Color=9474304
;FILE_FORMAT=2:5
INCH,LZ
;TYPE=PLATED
T1F00S00C0.00787
T2F00S00C0.01968
T3F00S00C0.03000
T4F00S00C0.11811
%
T01
X0156693Y0185039
Y01875
Y0189961
Y0192421
X015689Y0210236
Y0212697
Y0215256
X0154429
Y0212795
X0151969
Y0210335
X0154429
X014813Y0209547
X0145669
X0143209
Y0212008
X0145669
X014813
X0138983Y0213199
X0135046Y0217038
X0133765Y0218498
X0126476Y0220374
X0125984Y0214862
X0121555Y0216339
X0116634Y0216339
X0116339Y0213164
X0111516Y0213878
X0109252Y0211221
X0108957Y0206201
X010374Y0205413
X0098622Y0205413
X0098524Y0200984
Y0195768
X0093504Y0196331
X0092224Y0192815
X0094685Y0191634
X0096654Y0187402
X0093209Y0186024
X0087106Y0191634
X0084453Y019125
X0081201Y0192913
X0082874Y0195768
X0088287Y0198425
X0088386Y0201083
X0085728Y0203543
X0091043Y020374
X009004Y0206915
X0090945Y0208661
X0090654Y0210739
X0087996Y021379
X0090945Y021624
X0093213Y0216054
X0098622Y0216339
X010374Y0216339
X010876Y0216437
X010374Y0211221
X0098622
X0093504Y0206299
X0086024Y0208858
X0082776Y0206299
X0074508Y0210925
X0067027Y0212697
X0065147Y0210827
X0070673Y0216546
X0070759Y0218822
X0071949Y0227756
X0082874Y0229724
X0083169Y0231791
X00884Y0229218
X0090847Y0229232
X0095965
X0098524Y0224016
X0101279Y0224114
X0103839Y0224213
X0088484Y0221654
X0088386Y0218898
X0085925Y0218996
X0083169Y0218898
X007963Y0220778
X0068012Y0199114
X0070276Y0194783
X006624Y0189075
X0061819Y0187213
X005876Y0191831
X0051844Y0189272
X0051896Y0195079
X0051774Y0198238
X0051873Y0201191
X0050761Y0204527
X0055413Y0207972
X0061519Y0199911
X006609Y0182663
X0072342Y0183661
X0079236Y0184556
X0078642Y0175689
X0075689Y0176378
X0073425Y0164862
X0081894Y0167528
X0084744Y0167618
X0084941Y0169882
X0089571Y0166051
X0112764Y0168142
X0116629Y0167988
X0118996Y016811
X0122736Y0167717
X0121555Y0174803
X011664Y0176288
X0110039Y0171457
X0109547Y0185039
X0106398Y0185827
X0111713Y0191043
X0114173Y0190157
X0113878Y0193405
X0116634Y0195768
X0121555Y0195866
Y0191437
X0119691Y0189379
X0128858Y0190059
X0130413Y0195669
X0135623Y0199139
X0142231Y0200108
X0143231Y0202748
X0143263Y0205315
X0144488Y0192224
Y0189764
X0142028
Y0192224
X0139665Y0192028
X0146949Y0192224
Y0189764
X0151772Y0189961
Y01875
X0154232
Y0185039
Y0189961
Y0192421
X0151772
X0133373Y0183572
X0130124
X0127165Y0181693
X0121752Y0206004
X0121944Y0207879
X0121555Y0223819
X0121364Y0226586
X0121428Y0229359
X0123622Y0231398
X0127736Y0232598
X0111319Y0201083
X0106299Y0200984
X004685Y0192717
T02
X0044094Y0217126
X0068209Y0235925
X0086024Y0186909
X0112008Y0186713
X0135728Y0236221
T03
X0049503Y0168342
X0046949Y0174705
X0049642Y0181009
X0056004Y0183563
X0062309Y018087
X0064862Y0174508
X0062169Y0168203
X006939Y0169685
X0055807Y0165649
X0101181Y0168996
X0132579Y0170473
X01375Y0174705
X0140054Y0168342
X0146358Y0165649
X015272Y0168203
X0155413Y0174508
X015286Y018087
X0146555Y0183563
X0140193Y0181009
X0140054Y0219622
X01375Y0225984
X0140193Y0232289
X0146555Y0234843
X015286Y023215
X0155413Y0225787
X015272Y0219483
X0146358Y0216929
X0062169Y0219483
X0055807Y0216929
X0049503Y0219622
X0046949Y0225984
X0049642Y0232289
X0056004Y0234843
X0062309Y023215
X0064862Y0225787
T04
X0055905Y0174606
Y0225886
X0146457
Y0174606
M30
