M48
;Layer_Color=9474304
;FILE_FORMAT=2:5
INCH,LZ
;TYPE=PLATED
T1F00S00C0.00394
%
T01
X0471681Y0263828
X04535Y02805
X04525Y0284
X0467Y0295
X04135Y02825
X0412
Y0268
X04135Y02685
X03705Y02635
X0371Y02615
X03645Y0301
X03625Y03025
X03505Y03095
X03515Y0311
X03185Y0312
X03335Y02315
X0355Y01795
X04425Y0198
X0459506Y0219247
X030014Y030064
X0299Y0302
X0275Y0299
X0273Y0298
X0268542Y02975
X02725Y02935
X02615Y0296
X02805Y0287
X0309781Y0342264
X0338541Y0346326
X0345104Y0344
X0348563Y0345212
X0351Y03429
X0349677Y0339645
X03535Y0340276
X0351Y03365
X036Y03385
X0363Y03375
X03645Y03305
X0364Y03285
X03585Y03265
X0358182Y0344502
X0359699Y0351894
X03565Y0353
X0352
X0353Y03565
X0355397
X03565Y03575
X0355245Y0358575
X0351904Y0361916
X0349677Y0361916
X034745Y0359688
X0346336Y0360802
X0348563Y0358575
X03475Y0356
X0345223Y0357461
X0345223Y035078
X0339655Y0354121
X03365Y03295
X03375Y0328
X032Y03125
M30
