M48
;Layer_Color=9474304
;FILE_FORMAT=2:5
INCH,LZ
;TYPE=PLATED
T1F00S00C0.00394
%
T01
X0362925Y02685
X0373Y0284
X03755Y02855
X0375713Y0297012
X0374138Y0297012
X0372563
X0354025Y0306193
X0352606Y0304896
X0299Y02895
X03Y02835
X0270514Y0293
X0314Y03395
X03465Y03385
Y0341
X0347681Y0343997
X0351796Y034399
X0350791Y0345212
X0350791Y0338531
X035785Y0336302
X03615Y0342
X0364Y03415
X0362981Y0344141
X0362825Y0346106
X0359699Y0349667
X0358585Y0348553
X0356358
X0354449Y03485
X0355245Y0349667
X0350746Y032587
X0354142Y0314088
X0444Y0376
M30
