M48
;Layer_Color=9474304
;FILE_FORMAT=2:5
INCH,LZ
;TYPE=PLATED
T1F00S00C0.00394
%
T01
X0472819Y0215471
X047191Y023191
X04785Y0228
X0485Y02625
X04755Y0271
X04795Y0301
X04245Y0292
X03845Y0287991
X0374117Y0286117
X03715Y02635
X03725Y0262
X038Y0264
X03415Y02445
X0336
X0326Y0224
X032677Y02895
X0328144Y0293666
X032676Y0295058
X0325368Y029639
X0323976Y0297842
X0321721Y0298242
X0322584Y0299234
X0313848Y029087
X0331Y0287
X0338592
X0342616Y0289
X03415Y0293541
X0342767Y0295058
X0344159Y029645
X0345551Y0297842
X0346943Y0299234
X0348335Y0300383
X0353323Y0298421
X03575Y03015
X0312848Y0311328
X035Y0167
X03585Y0173
X0385Y01615
X04035Y0164
X0403Y01685
X04125Y01645
X0422Y017
X042Y0175
X0451Y01875
X0449Y01975
X0421522Y0227978
X03075Y02865
X0297Y0287437
Y02855
X02805Y0286
X0273937Y0297937
X0269388Y02975
X02694Y02991
X0262587Y0299087
X02615Y02975
Y02945
X02625Y0293
X0258291Y0292709
Y0294362
X0309781Y0342264
X0324523Y03415
X0333348Y033887
X0335128Y0337487
X0336348Y034037
X0340769Y0344099
X0342923
X0342029Y0342985
X0341882Y0345212
X0344109
X0345104Y0344
X0344109Y0347439
X0342996Y0346326
X0345223Y0348553
X0346336Y0349667
X0347438Y035078
X0345223
X0342996Y0353007
X0339655Y0354121
X0345223Y0357461
X034745Y0357461
X0348563Y0358575
X034745Y0359688
X0346336Y0360802
X0349677Y0361916
X0351904Y0361916
X0350767Y0360665
X0353Y03565
X0355397
X03565Y03575
X0355245Y0358575
X0356358Y0355234
X0357472Y0354121
X0355245
X0354131Y0353007
X0352Y0353
X0353018Y0351894
X0349677Y0348553
X0348563Y0345212
X0349677Y0344099
Y0341872
X034745
X034745Y0339645
X0348563Y0338531
X0349677Y0339645
X0351904Y0341872
X0353018Y0342985
X0356358Y0346326
X0359699Y0351894
X0362Y03615
X03665Y0364
X0362252Y038
X0375531Y0348553
X0370813Y0343335
X03645Y03305
X0364Y03285
X036424Y0321978
X036124Y0318978
X03555Y03185
X0349546Y0317977
X03585Y03265
X0329394Y0327919
X0330605Y0329514
X0325348Y032937
X032303Y0328938
X0324444Y0324695
X0323976Y0322334
X0321848Y032137
X0312735Y0319484
X0339655Y0345212
X0338541Y0346326
X03845Y03565
M30
