M48
;Layer_Color=9474304
;FILE_FORMAT=2:5
INCH,LZ
;TYPE=PLATED
T2F00S00C0.00787
%
T02
X0471681Y0263828
X0467Y0295
X0459506Y0219247
X04425Y0198
X0385607Y01751
X0355Y01795
X03575Y02645
X0356Y0267
X03645Y02635
X03635Y02615
X037375Y027475
X0302Y02775
X02995Y02805
X02855Y02765
X02845Y02745
X02945Y0259
X0293405Y0256405
X02695Y0258
X0270063Y0244937
X02805Y02385
X02745Y02945
X0277219Y0299
X0274199Y0303199
X0338541Y0346326
X03455Y03455
X0348Y03465
X0349Y03385
X0351Y0335
X0358182Y0344502
X0357472Y0351894
X03575Y0354
X0356Y03595
X03485Y0363
X03435Y03565
X03385Y0355276
M30
