M48
;Layer_Color=9474304
;FILE_FORMAT=2:5
INCH,LZ
;TYPE=PLATED
T2F00S00C0.00787
T3F00S00C0.01575
T4F00S00C0.16929
%
T02
X04145Y01535
X0470325Y0248889
X04725Y02485
Y0254
X0470822Y0254367
X0469Y0254
X04695Y0259
X0471229Y0258848
X0473Y0259
X0472Y0281
X0470228Y0280464
X04705Y0286
X0468926Y0285291
X04695Y02905
X0467625Y0290119
X04655Y02895
X0467Y0285
X04685Y028
Y0249
X0458046Y0214763
X045661Y0215171
X0454765Y0215868
X04525Y02125
X0453714Y0211095
X0455Y021
X04525Y02065
X0451107Y0207427
X0449241Y0208753
X0430754Y0209589
X0432443Y0211433
X04306Y0213122
X0432289Y0214965
X0434132Y0213276
X0435821Y0215119
X0433978Y0216808
X0435667Y0218651
X0437356Y0220494
X0439045Y0222338
X0437202Y0224026
X0435513Y0222183
X0433824Y022034
X0431981Y0222029
X0430137Y0223718
X0428448Y0221875
X0430292Y0220186
X0428603Y0218343
X0426914Y0216499
X0428757Y021481
X0430446Y0216654
X0432135Y0218497
X043367Y0223872
X0431826Y0225561
X0433515Y0227404
X0435204Y0229248
X0437048Y0227559
X0438891Y022587
X044058Y0227713
X0442423Y0226024
X0444266Y0224335
X0442577Y0222492
X0440734Y0224181
X0440888Y0220649
X0439199Y0218805
X043751Y0216962
X0435359Y0225715
X0436893Y0231091
X0438737Y0229402
X0426759Y0220032
X042507Y0218189
X0423382Y0216345
X0425225Y0214656
X0427068Y0212967
X0425379Y0211124
X0427222Y0209435
X0425533Y0207592
X042369Y0209281
X0421847Y021097
X0420004Y0212659
X0421693Y0214502
X0423536Y0212813
X0428911Y0211278
X0429065Y0207746
X0427376Y0205903
X04295Y01905
X0430367Y0188983
X04315Y01875
X04355Y01905
X0434354Y0192
X04335Y01935
X04395
X0438342Y0195016
X04375Y01965
X0380577Y017738
X0380611Y0175318
X0380646Y0173257
X0375651Y0173475
X0375616Y0175536
X0375581Y0177598
X0370586Y0177816
X0370621Y0175754
X0370656Y0173693
X0349715Y0179168
X0350215Y0181168
X0350715Y0183168
X0345595Y0183081
X0346095Y0185081
X0345095Y0181081
X0340476Y0182995
X0340976Y0184995
X0341476Y0186995
X0335697Y0195126
X0337464Y0196893
X0339232Y0198661
X0337464Y0200429
X0335697Y0198661
X0333929Y0200429
X0335697Y0202197
X0333929Y0203964
X0330393Y0203964
X0332161Y0205732
X0335697
X0337464Y0203964
X0339232Y0205732
X0341Y0203964
X0342768Y0202197
X0344535Y0203964
X0342768Y0205732
X0344536Y02075
X0348071
X0346303Y0205732
X0346303Y0209268
X0346303Y0212803
X0348071Y0211035
X0351607Y0211035
X0349839Y0209268
X0349839Y0212803
X0348071Y0214571
X0349839Y0216339
X0348071Y0218107
X0344536Y0218107
X0342768Y0216339
X0344535Y0214571
X0346303Y0216339
X0346303Y0219874
X0342768Y0212803
X0341Y0214571
Y0211036
X0339232Y0212803
X0337464Y0211035
X0339232Y0209268
X0337464Y02075
X0333929
X0335697Y0209268
X0342768Y0209268
X0344535Y0211035
X0341Y02075
X0341Y0200429
X0339232Y0202197
X0332161Y0202197
X0330393Y0200429
X0328626Y0202197
X0332161Y0198661
X0333929Y0196894
X0314571Y0196
X0312803Y0197768
X0312803Y0194232
X0312803Y0190697
X0314571Y0192464
X0316339Y0194232
X0318107Y0192464
X0316339Y0190697
X0318107Y0188929
X0316339Y0187161
X0314571Y0188929
X0314571Y0185393
X0312803Y0187161
X0312803Y0183626
X0319874Y0190697
X0353374Y0212803
X0351607Y0214571
X03595Y02715
X03745Y02705
Y02575
X03805Y0255
X03865Y02585
X0385Y0275
X03955Y02725
X03965Y0286
X0369Y03005
X03525Y02835
X0436697Y0288626
X0438464Y0290393
X0440232Y0292161
Y0295697
X0442Y0293929
X0443768Y0295697
X0445536Y0297464
X0443768Y0299232
X0445536Y0301
X0443768Y0302768
X0442Y0304536
X0438464Y0304536
X0440232Y0306303
X0440232Y0302768
X0438464Y0301
X0438464Y0297464
X0436697Y0299232
X0436697Y0295697
X0434929Y0297464
X0431393Y0297464
X0433161Y0295697
X0431393Y0293929
X0433161Y0292161
X0434929Y0290393
X0436697Y0292161
X0434929Y0293929
X0438464
X0440232Y0299232
X0442Y0297464
X0442Y0301
X0445536Y0304536
X0447303Y0302768
X0447303Y0306303
X0449071Y0304536
X0449071Y0308071
X0452607Y0308071
X0450839Y0309839
X0447303Y0309839
X0449071Y0311607
X0445536Y0311607
X0443768Y0309839
X0442Y0308071
X0443768Y0306303
X0445536Y0308071
X0450839Y0306303
X0452607Y0304536
X0454374Y0306303
X0450839Y0302768
X0449071Y0301
X0447303Y0299232
X0434929Y0301
X0436697Y0302768
X0433161Y0299232
X0429626Y0295697
X0293828Y0303172
X0294889Y0304232
X0293475Y0305646
X0292414Y0304586
X0291Y0306
X0292061Y0307061
X0299399Y03116
X0293516Y0287437
Y02835
X0289579
Y0287437
X02665Y0287
Y0289
Y0285
Y0283
X0263527Y0301027
Y0303
Y0305
X0265Y03065
X02695Y02605
X0279386Y0255815
Y0251484
X0283717Y0251484
Y0247153
X0279386Y0247153
X0283717Y0255815
X02935Y0253
Y0251
X02935Y0249
X02955
X02955Y0251
Y0253
X02975
Y0251
Y0249
X02995
X03015
Y0251
Y0253
X02995
Y0251
Y0255
X02975
X02955Y0255
X0298661Y0204839
X0296893Y0203071
X0300429Y0203071
X0300429Y0206607
X0302197Y0204839
X0302197Y0208374
X0303964Y0206607
X0305732Y0204839
X0303965Y0203071
X03075
X0305732Y0201303
X0303964Y0199536
X0302197Y0197768
X0305732Y0197768
X0303964Y0196
X03075Y0196
X03075Y0199536
X0309268Y0197768
X0311035Y0199536
X0309268Y0201303
X0311035Y0196
X0309268Y0194232
X0311035Y0192464
X0309268Y0190697
X0311035Y0188929
X03075
X0309268Y0187161
X0311035Y0185393
X03075Y0192464
X0305732Y0194232
X0303964Y0192464
X0305732Y0190697
X0302197Y0194232
X0300429Y0196
X0298661Y0197768
X0300429Y0199536
X0296893Y0199536
X0298661Y0201303
X0295126Y0201303
X0302197Y0201303
X0300814Y0313015
X0297985
X0296571Y0314429
X0299399Y0314429
X0297985Y0315843
X0296571Y0317257
X0293743
X0295157Y0315843
X0295157Y0318672
X0290914Y0322914
X02895Y03215
X0287732Y0323268
X0289146Y0324682
X0287379Y032645
X0285964Y0325036
X0285611Y0328218
X0284197Y0326803
X0345Y03305
X03495
X0352183Y0325438
X0369Y03465
X0367Y0361
X03625Y03655
X03635Y03715
X0361Y0372
X03695Y0368
X03725Y03665
X0391883Y0366285
X03985Y03715
X0403777Y0373969
X0408253Y0373287
X0415368Y0370863
X0409981Y0362471
X0399388Y0356738
X0395083Y0376298
X0433588Y0362959
X04345Y0357
X0441382Y0358459
X0445529Y0356642
X0451774Y0352459
X0444399Y0345748
X0432683Y0342951
X0427905Y0354116
X0426303Y0330268
X0428071Y03285
X0424536Y03285
X0422768Y0326732
X0421Y03285
X0419232Y0330268
X0417464Y03285
X0415697Y0330268
X0413929Y0332035
X0412161Y0330268
Y0333803
X0410393Y0332036
X0410393Y0335571
X0408626Y0333803
X0415697Y0333803
X0413929Y0335571
X0412161Y0337339
X0415697
X0415697Y0340874
X0413929Y0339107
X0417464Y0339107
X0417464Y0335571
X0419232Y0333803
X0421Y0335571
X0419232Y0337339
X0417464Y0332036
X0421
X0422768Y0333803
X0424536Y0332035
X0422768Y0330268
X0419232Y0326732
X0421Y0324964
X0419232Y0323197
X0417464Y0324964
X0415697Y0326732
X0413929Y03285
X0421Y0321429
X0422768Y0323197
X0424536Y0321429
X0422768Y0319661
X0424536Y0317893
X0426303Y0316126
X0428071Y0317893
X0426303Y0319661
X0429839
X0428071Y0321429
X0426303Y0323197
X0429839Y0323197
Y0326732
X0428071Y0324964
X0426303Y0326732
X0424536Y0324964
X0431607Y0324964
X0431607Y0321429
X0433374Y0323197
X0447303Y0313374
X0458613Y0318482
X0460057Y033054
X04685Y033
X03365Y0354
X04694Y0335357
X04739Y0327563
X0476583Y0323916
X04799Y0317171
X0470157Y0315046
T03
X0318748Y0145647
X0322906Y0143529
X0327134Y0141557
X033143Y0139734
X0335786Y0138062
X0340197Y0136543
X034466Y0135179
X0349167Y0133971
X0353713Y0132921
X0358293Y0132031
X0362902Y0131301
X0367533Y0130732
X0372181Y0130326
X0376841Y0130081
X0381506Y013
X0386172Y0130081
X0390831Y0130326
X0395479Y0130732
X0400111Y0131301
X0404719Y0132031
X04093Y0132921
X0413846Y0133971
X0418353Y0135178
X0422815Y0136543
X0427227Y0138062
X0431583Y0139734
X0435878Y0141557
X0440107Y0143529
X0444264Y0145647
X0448345Y0147909
X0452345Y0150313
X0456258Y0152854
X046008Y015553
X0470954Y0164336
X0474367Y0167518
X0477666Y0170817
X0480848Y017423
X048391Y0177751
X0486846Y0181377
X0489654Y0185104
X049233Y0188926
X0494872Y0192839
X0497275Y0196839
X0499537Y020092
X0501655Y0205077
X0503627Y0209306
X050545Y0213601
X0507122Y0217957
X0508641Y0222369
X0510006Y0226831
X0511213Y0231338
X0512263Y0235885
X0513153Y0240465
X0513883Y0245074
X0514452Y0249705
X0514858Y0254353
X0515103Y0259013
X0515184Y0263678
X0515103Y0268343
X0514858Y0273003
X0514452Y0277651
X0513883Y0282282
X0513153Y0286891
X0512263Y0291471
X0511213Y0296018
X0510006Y0300524
X0508641Y0304987
X0507122Y0309398
X0467433Y0161275
X0463807Y0158338
X0263476Y020092
X0261357Y0205077
X0259385Y0209306
X0257562Y0213601
X025589Y0217957
X0254371Y0222369
X0253007Y0226831
X0251799Y0231338
X025075Y0235885
X0249859Y0240465
X0249129Y0245074
X0248561Y0249705
X0248154Y0254353
X024791Y0259013
X0247828Y0263678
X024791Y0268343
X0248154Y0273003
X0248561Y0277651
X0249129Y0282282
X0249859Y0286891
X025075Y0291471
X0251799Y0296018
X0253007Y0300524
X0254371Y0304987
X025589Y0309398
X0257562Y0313755
X0259385Y031805
X0261357Y0322278
X0263476Y0326436
X0265738Y0330517
X0268141Y0334516
X0270682Y033843
X0273359Y0342252
X0276167Y0345978
X0279103Y0349604
X0282164Y0353126
X0285347Y0356538
X0288646Y0359838
X0292058Y036302
X029558Y0366081
X0299206Y0369018
X0302932Y0371826
X0306755Y0374502
X0310668Y0377043
X0314667Y0379446
X0318748Y0381708
X0322906Y0383827
X0327135Y0385799
X033143Y0387622
X0335786Y0389294
X0340198Y0390813
X034466Y0392177
X0349167Y0393385
X0353713Y0394435
X0358293Y0395325
X0362902Y0396055
X0367533Y0396623
X0372181Y039703
X0376841Y0397274
X0381506Y0397356
X0386172Y0397274
X0390831Y039703
X0395479Y0396623
X0400111Y0396055
X0404719Y0395325
X04093Y0394435
X0413846Y0393385
X0418353Y0392177
X0422815Y0390813
X0427227Y0389294
X0431583Y0387622
X0435878Y0385799
X0440107Y0383827
X0444264Y0381708
X0448345Y0379446
X0452345Y0377043
X0456258Y0374502
X046008Y0371826
X0463807Y0369018
X0467433Y0366081
X0470954Y036302
X0474367Y0359838
X0477666Y0356538
X0480848Y0353126
X048391Y0349604
X0486846Y0345978
X0489654Y0342252
X049233Y033843
X0494872Y0334516
X0497275Y0330517
X0499537Y0326436
X0501655Y0322278
X0503627Y031805
X050545Y0313755
T04
X0322451Y0263678
X0381506Y0204623
X0440561Y0263678
X0381506Y0322733
M30
