G04 Layer_Color=128*
%FSLAX44Y44*%
%MOMM*%
G71*
G01*
G75*
%ADD284C,0.0508*%
D284*
X947526Y519742D02*
X990526D01*
X969026Y498242D02*
Y541242D01*
X947526Y819742D02*
X990526D01*
X969026Y798242D02*
Y841242D01*
X1097526Y669742D02*
X1140526D01*
X1119026Y648242D02*
Y691242D01*
X797526Y669742D02*
X840526D01*
X819026Y648242D02*
Y691242D01*
X1121680Y764540D02*
X1123680D01*
X1122680Y763540D02*
Y765540D01*
X1096622Y554982D02*
X1098623D01*
X1097623Y553982D02*
Y555982D01*
X865140Y527050D02*
X867140D01*
X866140Y526050D02*
Y528050D01*
X1068340Y834390D02*
X1070340D01*
X1069340Y833390D02*
Y835390D01*
X780050Y497840D02*
X782050D01*
X781050Y496840D02*
Y498840D01*
X980710Y656590D02*
X982710D01*
X981710Y655590D02*
Y657590D01*
X976900Y698500D02*
X978900D01*
X977900Y697500D02*
Y699500D01*
X1003570Y692150D02*
X1005570D01*
X1004570Y691150D02*
Y693150D01*
X965470Y647700D02*
X967470D01*
X966470Y646700D02*
Y648700D01*
X950230Y654050D02*
X952230D01*
X951230Y653050D02*
Y655050D01*
X683530Y661670D02*
X685530D01*
X684530Y660670D02*
Y662670D01*
X754650Y647700D02*
X756650D01*
X755650Y646700D02*
Y648700D01*
X759730Y642620D02*
X761730D01*
X760730Y641620D02*
Y643620D01*
X759730Y647700D02*
X761730D01*
X760730Y646700D02*
Y648700D01*
X754650Y637540D02*
X756650D01*
X755650Y636540D02*
Y638540D01*
X754650Y642620D02*
X756650D01*
X755650Y641620D02*
Y643620D01*
X759730Y637540D02*
X761730D01*
X760730Y636540D02*
Y638540D01*
X754650Y632460D02*
X756650D01*
X755650Y631460D02*
Y633460D01*
X749570Y647700D02*
X751570D01*
X750570Y646700D02*
Y648700D01*
X749570Y642620D02*
X751570D01*
X750570Y641620D02*
Y643620D01*
X749570Y637540D02*
X751570D01*
X750570Y636540D02*
Y638540D01*
X749570Y632460D02*
X751570D01*
X750570Y631460D02*
Y633460D01*
X936260Y763270D02*
X938260D01*
X937260Y762270D02*
Y764270D01*
X912130Y689610D02*
X914130D01*
X913130Y688610D02*
Y690610D01*
X950230Y687070D02*
X952230D01*
X951230Y686070D02*
Y688070D01*
X1006110Y726440D02*
X1008110D01*
X1007110Y725440D02*
Y727440D01*
X744490Y642620D02*
X746490D01*
X745490Y641620D02*
Y643620D01*
X672100Y778510D02*
X674100D01*
X673100Y777510D02*
Y779510D01*
X675910Y718820D02*
X677910D01*
X676910Y717820D02*
Y719820D01*
X675910Y723900D02*
X677910D01*
X676910Y722900D02*
Y724900D01*
X675910Y728980D02*
X677910D01*
X676910Y727980D02*
Y729980D01*
X675910Y734060D02*
X677910D01*
X676910Y733060D02*
Y735060D01*
X668358Y764608D02*
X670358D01*
X669358Y763608D02*
Y765608D01*
X668358Y769620D02*
X670358D01*
X669358Y768620D02*
Y770620D01*
X668358Y774700D02*
X670358D01*
X669358Y773700D02*
Y775700D01*
X818180Y364564D02*
X822180D01*
X820181Y362564D02*
Y366564D01*
X807621Y369944D02*
X811621D01*
X809621Y367944D02*
Y371944D01*
X652208Y542547D02*
X656208D01*
X654208Y540547D02*
Y544547D01*
X656839Y531638D02*
X660839D01*
X658839Y529638D02*
Y533638D01*
X661848Y520896D02*
X665848D01*
X663848Y518896D02*
Y522896D01*
X667228Y510337D02*
X671228D01*
X669228Y508337D02*
Y512337D01*
X828922Y359555D02*
X832922D01*
X830922Y357555D02*
Y361555D01*
X839831Y354924D02*
X843831D01*
X841831Y352924D02*
Y356924D01*
X896431Y337620D02*
X900431D01*
X898431Y335620D02*
Y339620D01*
X884883Y340286D02*
X888883D01*
X886883Y338286D02*
Y342286D01*
X873436Y343354D02*
X877436D01*
X875435Y341354D02*
Y345354D01*
X862102Y346819D02*
X866102D01*
X864102Y344819D02*
Y348819D01*
X850896Y350677D02*
X854896D01*
X852896Y348677D02*
Y352677D01*
X955176Y330407D02*
X959176D01*
X957176Y328407D02*
Y332407D01*
X943341Y331027D02*
X947341D01*
X945341Y329027D02*
Y333027D01*
X931534Y332060D02*
X935534D01*
X933534Y330060D02*
Y334060D01*
X919771Y333504D02*
X923771D01*
X921771Y331504D02*
Y335504D01*
X908065Y335358D02*
X912065D01*
X910065Y333358D02*
Y337358D01*
X647961Y553612D02*
X651961D01*
X649961Y551612D02*
Y555612D01*
X644102Y564818D02*
X648102D01*
X646103Y562818D02*
Y566818D01*
X640637Y576151D02*
X644637D01*
X642637Y574151D02*
Y578151D01*
X637570Y587599D02*
X641570D01*
X639570Y585599D02*
Y589599D01*
X634904Y599147D02*
X638904D01*
X636904Y597147D02*
Y601147D01*
X632643Y610781D02*
X636643D01*
X634643Y608781D02*
Y612781D01*
X630789Y622487D02*
X634789D01*
X632789Y620487D02*
Y624487D01*
X629344Y634250D02*
X633344D01*
X631344Y632250D02*
Y636250D01*
X628311Y646057D02*
X632311D01*
X630311Y644057D02*
Y648057D01*
X627691Y657892D02*
X631691D01*
X629691Y655892D02*
Y659892D01*
X627484Y669742D02*
X631484D01*
X629484Y667742D02*
Y671742D01*
X627691Y681592D02*
X631691D01*
X629691Y679592D02*
Y683592D01*
X628311Y693427D02*
X632311D01*
X630311Y691427D02*
Y695427D01*
X629344Y705234D02*
X633344D01*
X631344Y703234D02*
Y707234D01*
X630789Y716997D02*
X634789D01*
X632789Y714997D02*
Y718997D01*
X632643Y728703D02*
X636643D01*
X634643Y726703D02*
Y730703D01*
X634904Y740337D02*
X638904D01*
X636904Y738336D02*
Y742337D01*
X637570Y751885D02*
X641570D01*
X639570Y749884D02*
Y753884D01*
X640637Y763332D02*
X644637D01*
X642637Y761332D02*
Y765332D01*
X644102Y774666D02*
X648102D01*
X646103Y772666D02*
Y776666D01*
X647961Y785872D02*
X651961D01*
X649961Y783872D02*
Y787872D01*
X850896Y988807D02*
X854896D01*
X852896Y986807D02*
Y990807D01*
X839831Y984559D02*
X843831D01*
X841831Y982560D02*
Y986560D01*
X828922Y979929D02*
X832922D01*
X830922Y977929D02*
Y981929D01*
X818181Y974920D02*
X822181D01*
X820181Y972920D02*
Y976920D01*
X807621Y969539D02*
X811621D01*
X809621Y967539D02*
Y971539D01*
X797255Y963794D02*
X801255D01*
X799255Y961794D02*
Y965794D01*
X787096Y957690D02*
X791096D01*
X789096Y955690D02*
Y959690D01*
X777157Y951235D02*
X781157D01*
X779157Y949235D02*
Y953235D01*
X767448Y944437D02*
X771448D01*
X769448Y942437D02*
Y946437D01*
X757983Y937304D02*
X761983D01*
X759983Y935304D02*
Y939304D01*
X748773Y929846D02*
X752773D01*
X750773Y927846D02*
Y931846D01*
X739828Y922070D02*
X743828D01*
X741828Y920070D02*
Y924071D01*
X731160Y913988D02*
X735160D01*
X733160Y911988D02*
Y915988D01*
X722780Y905607D02*
X726780D01*
X724780Y903607D02*
Y907607D01*
X714697Y896940D02*
X718697D01*
X716697Y894940D02*
Y898940D01*
X706922Y887995D02*
X710922D01*
X708922Y885995D02*
Y889995D01*
X699463Y878785D02*
X703463D01*
X701463Y876785D02*
Y880785D01*
X692331Y869320D02*
X696331D01*
X694331Y867320D02*
Y871320D01*
X685533Y859611D02*
X689533D01*
X687533Y857611D02*
Y861611D01*
X679078Y849672D02*
X683078D01*
X681078Y847672D02*
Y851672D01*
X672974Y839513D02*
X676974D01*
X674974Y837513D02*
Y841513D01*
X667228Y829147D02*
X671228D01*
X669228Y827147D02*
Y831147D01*
X661848Y818587D02*
X665848D01*
X663848Y816587D02*
Y820587D01*
X656839Y807846D02*
X660839D01*
X658839Y805846D02*
Y809846D01*
X652208Y796936D02*
X656208D01*
X654208Y794937D02*
Y798936D01*
X1136797Y963794D02*
X1140797D01*
X1138797Y961794D02*
Y965794D01*
X1126431Y969539D02*
X1130431D01*
X1128431Y967539D02*
Y971539D01*
X1115871Y974920D02*
X1119871D01*
X1117871Y972920D02*
Y976920D01*
X1105130Y979929D02*
X1109130D01*
X1107130Y977929D02*
Y981929D01*
X1094221Y984559D02*
X1098221D01*
X1096221Y982560D02*
Y986560D01*
X1083156Y988807D02*
X1087156D01*
X1085156Y986807D02*
Y990807D01*
X1071950Y992665D02*
X1075950D01*
X1073950Y990665D02*
Y994665D01*
X1060617Y996130D02*
X1064616D01*
X1062617Y994130D02*
Y998130D01*
X1049169Y999198D02*
X1053169D01*
X1051169Y997198D02*
Y1001198D01*
X1037621Y1001864D02*
X1041621D01*
X1039621Y999864D02*
Y1003864D01*
X1025987Y1004125D02*
X1029987D01*
X1027987Y1002125D02*
Y1006125D01*
X1014281Y1005979D02*
X1018281D01*
X1016281Y1003979D02*
Y1007979D01*
X1002518Y1007423D02*
X1006518D01*
X1004518Y1005424D02*
Y1009424D01*
X990711Y1008456D02*
X994711D01*
X992711Y1006457D02*
Y1010456D01*
X978876Y1009077D02*
X982876D01*
X980876Y1007077D02*
Y1011077D01*
X967026Y1009284D02*
X971026D01*
X969026Y1007284D02*
Y1011284D01*
X955176Y1009077D02*
X959176D01*
X957176Y1007077D02*
Y1011077D01*
X943341Y1008456D02*
X947341D01*
X945341Y1006457D02*
Y1010456D01*
X931534Y1007423D02*
X935534D01*
X933534Y1005424D02*
Y1009424D01*
X919771Y1005979D02*
X923771D01*
X921771Y1003979D02*
Y1007979D01*
X908065Y1004125D02*
X912065D01*
X910065Y1002125D02*
Y1006125D01*
X896431Y1001864D02*
X900431D01*
X898431Y999864D02*
Y1003864D01*
X884883Y999198D02*
X888883D01*
X886883Y997198D02*
Y1001198D01*
X873436Y996130D02*
X877436D01*
X875436Y994130D02*
Y998130D01*
X862102Y992665D02*
X866102D01*
X864102Y990665D02*
Y994665D01*
X1301409Y728702D02*
X1305409D01*
X1303409Y726702D02*
Y730703D01*
X1299148Y740336D02*
X1303148D01*
X1301148Y738336D02*
Y742336D01*
X1296482Y751884D02*
X1300482D01*
X1298482Y749884D02*
Y753884D01*
X1293414Y763332D02*
X1297415D01*
X1295414Y761332D02*
Y765332D01*
X1289949Y774666D02*
X1293949D01*
X1291949Y772666D02*
Y776666D01*
X1286091Y785872D02*
X1290091D01*
X1288091Y783872D02*
Y787872D01*
X1281844Y796936D02*
X1285844D01*
X1283844Y794936D02*
Y798936D01*
X1277213Y807846D02*
X1281213D01*
X1279213Y805846D02*
Y809846D01*
X1272204Y818587D02*
X1276204D01*
X1274204Y816587D02*
Y820587D01*
X1266824Y829147D02*
X1270824D01*
X1268824Y827147D02*
Y831147D01*
X1261078Y839513D02*
X1265078D01*
X1263078Y837513D02*
Y841513D01*
X1254974Y849671D02*
X1258974D01*
X1256974Y847672D02*
Y851672D01*
X1248519Y859611D02*
X1252519D01*
X1250519Y857611D02*
Y861611D01*
X1241721Y869319D02*
X1245721D01*
X1243721Y867319D02*
Y871319D01*
X1234589Y878785D02*
X1238589D01*
X1236589Y876785D02*
Y880785D01*
X1227130Y887995D02*
X1231130D01*
X1229130Y885995D02*
Y889995D01*
X1219355Y896940D02*
X1223355D01*
X1221355Y894940D02*
Y898940D01*
X1211272Y905607D02*
X1215272D01*
X1213272Y903607D02*
Y907607D01*
X1202892Y913988D02*
X1206892D01*
X1204892Y911988D02*
Y915988D01*
X1194224Y922070D02*
X1198224D01*
X1196224Y920070D02*
Y924071D01*
X1185279Y929846D02*
X1189279D01*
X1187279Y927846D02*
Y931846D01*
X1176069Y937304D02*
X1180069D01*
X1178069Y935304D02*
Y939304D01*
X1166604Y944437D02*
X1170604D01*
X1168604Y942437D02*
Y946437D01*
X1156896Y951235D02*
X1160895D01*
X1158895Y949235D02*
Y953235D01*
X1146956Y957690D02*
X1150956D01*
X1148956Y955690D02*
Y959689D01*
X1227130Y451488D02*
X1231130D01*
X1229130Y449488D02*
Y453488D01*
X1234588Y460699D02*
X1238588D01*
X1236589Y458699D02*
Y462699D01*
X1241721Y470164D02*
X1245721D01*
X1243721Y468164D02*
Y472164D01*
X1248519Y479872D02*
X1252519D01*
X1250519Y477872D02*
Y481872D01*
X1254974Y489812D02*
X1258974D01*
X1256974Y487812D02*
Y491812D01*
X1261078Y499971D02*
X1265078D01*
X1263078Y497971D02*
Y501971D01*
X1266824Y510336D02*
X1270824D01*
X1268824Y508336D02*
Y512337D01*
X1272204Y520896D02*
X1276204D01*
X1274204Y518896D02*
Y522896D01*
X1277213Y531638D02*
X1281213D01*
X1279213Y529638D02*
Y533638D01*
X1281844Y542547D02*
X1285844D01*
X1283844Y540547D02*
Y544547D01*
X1286091Y553611D02*
X1290091D01*
X1288091Y551612D02*
Y555611D01*
X1289949Y564818D02*
X1293949D01*
X1291949Y562817D02*
Y566818D01*
X1293414Y576151D02*
X1297415D01*
X1295414Y574151D02*
Y578151D01*
X1296482Y587599D02*
X1300482D01*
X1298482Y585599D02*
Y589599D01*
X1299148Y599147D02*
X1303148D01*
X1301148Y597147D02*
Y601147D01*
X1301409Y610781D02*
X1305409D01*
X1303409Y608781D02*
Y612781D01*
X1303263Y622487D02*
X1307263D01*
X1305263Y620487D02*
Y624487D01*
X1304708Y634250D02*
X1308708D01*
X1306708Y632250D02*
Y636250D01*
X1305741Y646057D02*
X1309741D01*
X1307741Y644056D02*
Y648056D01*
X1306361Y657892D02*
X1310361D01*
X1308361Y655892D02*
Y659892D01*
X1306568Y669742D02*
X1310568D01*
X1308568Y667742D02*
Y671742D01*
X1306361Y681592D02*
X1310361D01*
X1308361Y679592D02*
Y683592D01*
X1305741Y693427D02*
X1309741D01*
X1307741Y691427D02*
Y695427D01*
X1304708Y705234D02*
X1308708D01*
X1306708Y703233D02*
Y707234D01*
X1303263Y716997D02*
X1307263D01*
X1305263Y714997D02*
Y718997D01*
X1219355Y442544D02*
X1223355D01*
X1221355Y440544D02*
Y444544D01*
X1211272Y433876D02*
X1215272D01*
X1213272Y431876D02*
Y435876D01*
X1202891Y425496D02*
X1206891D01*
X1204892Y423496D02*
Y427496D01*
X1194224Y417413D02*
X1198224D01*
X1196224Y415413D02*
Y419413D01*
X1185279Y409638D02*
X1189279D01*
X1187279Y407638D02*
Y411638D01*
X1176069Y402179D02*
X1180069D01*
X1178069Y400179D02*
Y404179D01*
X1166604Y395047D02*
X1170604D01*
X1168604Y393047D02*
Y397047D01*
X1156895Y388249D02*
X1160895D01*
X1158895Y386249D02*
Y390249D01*
X1146956Y381794D02*
X1150956D01*
X1148956Y379794D02*
Y383794D01*
X1136797Y375690D02*
X1140797D01*
X1138797Y373690D02*
Y377690D01*
X1126431Y369944D02*
X1130431D01*
X1128431Y367944D02*
Y371944D01*
X1115871Y364564D02*
X1119871D01*
X1117871Y362564D02*
Y366564D01*
X1105130Y359555D02*
X1109130D01*
X1107130Y357555D02*
Y361555D01*
X1094221Y354924D02*
X1098221D01*
X1096221Y352924D02*
Y356924D01*
X1083156Y350677D02*
X1087156D01*
X1085156Y348677D02*
Y352677D01*
X1071950Y346818D02*
X1075950D01*
X1073950Y344818D02*
Y348818D01*
X1060616Y343353D02*
X1064616D01*
X1062616Y341353D02*
Y345353D01*
X1049169Y340286D02*
X1053169D01*
X1051169Y338286D02*
Y342286D01*
X1037621Y337620D02*
X1041621D01*
X1039621Y335620D02*
Y339620D01*
X1025987Y335358D02*
X1029987D01*
X1027987Y333358D02*
Y337358D01*
X1014281Y333504D02*
X1018281D01*
X1016281Y331504D02*
Y335504D01*
X1002518Y332060D02*
X1006518D01*
X1004518Y330060D02*
Y334060D01*
X990711Y331027D02*
X994711D01*
X992711Y329027D02*
Y333027D01*
X978876Y330407D02*
X982876D01*
X980876Y328407D02*
Y332407D01*
X967026Y330200D02*
X971026D01*
X969026Y328200D02*
Y332200D01*
X734530Y730090D02*
X736530D01*
X735530Y729090D02*
Y731090D01*
X744530Y730090D02*
X746530D01*
X745530Y729090D02*
Y731090D01*
X734530Y720090D02*
X736530D01*
X735530Y719090D02*
Y721090D01*
X744530Y720090D02*
X746530D01*
X745530Y719090D02*
Y721090D01*
X1102630Y906780D02*
X1104630D01*
X1103630Y905780D02*
Y907780D01*
X1188990Y838200D02*
X1190990D01*
X1189990Y837200D02*
Y839200D01*
X936260Y880110D02*
X938260D01*
X937260Y879110D02*
Y881110D01*
X1011190Y943610D02*
X1013190D01*
X1012190Y942610D02*
Y944610D01*
X1110250Y499110D02*
X1112250D01*
X1111250Y498110D02*
Y500110D01*
X1191530Y737870D02*
X1193530D01*
X1192530Y736870D02*
Y738870D01*
X1194070Y726440D02*
X1196070D01*
X1195070Y725440D02*
Y727440D01*
X1197880Y713740D02*
X1199880D01*
X1198880Y712740D02*
Y714740D01*
X1188990Y711200D02*
X1190990D01*
X1189990Y710200D02*
Y712200D01*
X1185180Y723900D02*
X1187180D01*
X1186180Y722900D02*
Y724900D01*
X1181370Y735330D02*
X1183370D01*
X1182370Y734330D02*
Y736330D01*
X1186766Y736901D02*
X1188766D01*
X1187766Y735901D02*
Y737901D01*
X1190073Y724640D02*
X1192073D01*
X1191073Y723640D02*
Y725640D01*
X1193380Y712378D02*
X1195380D01*
X1194380Y711378D02*
Y713378D01*
X1200420Y657860D02*
X1202420D01*
X1201420Y656860D02*
Y658860D01*
X1195922Y657475D02*
X1197922D01*
X1196922Y656475D02*
Y658475D01*
X1191530Y657860D02*
X1193530D01*
X1192530Y656860D02*
Y658860D01*
X1199150Y645160D02*
X1201150D01*
X1200150Y644160D02*
Y646160D01*
X1194889Y646092D02*
X1196889D01*
X1195889Y645091D02*
Y647092D01*
X1190260Y645160D02*
X1192260D01*
X1191260Y644160D02*
Y646160D01*
X1199150Y631190D02*
X1201150D01*
X1200150Y630190D02*
Y632190D01*
X1193626Y632179D02*
X1195626D01*
X1194626Y631179D02*
Y633179D01*
X1188990Y632460D02*
X1190990D01*
X1189990Y631460D02*
Y633460D01*
X1154104Y548305D02*
X1156104D01*
X1155104Y547305D02*
Y549305D01*
X1158789Y546534D02*
X1160789D01*
X1159789Y545534D02*
Y547534D01*
X1162438Y545499D02*
X1164438D01*
X1163438Y544499D02*
Y546499D01*
X1148350Y539750D02*
X1150350D01*
X1149350Y538750D02*
Y540750D01*
X1154700Y533400D02*
X1156700D01*
X1155700Y532400D02*
Y534400D01*
X1151432Y536182D02*
X1153432D01*
X1152432Y535182D02*
Y537182D01*
X1148350Y524510D02*
X1150350D01*
X1149350Y523510D02*
Y525510D01*
X1144811Y526865D02*
X1146812D01*
X1145811Y525865D02*
Y527865D01*
X1140071Y530233D02*
X1142071D01*
X1141071Y529233D02*
Y531233D01*
X1115330Y491490D02*
X1117330D01*
X1116330Y490490D02*
Y492490D01*
X1112389Y495340D02*
X1114389D01*
X1113389Y494340D02*
Y496340D01*
X1105170Y483870D02*
X1107170D01*
X1106170Y482870D02*
Y484870D01*
X1102260Y487679D02*
X1104260D01*
X1103260Y486679D02*
Y488679D01*
X1100090Y491490D02*
X1102090D01*
X1101090Y490490D02*
Y492490D01*
X1095010Y476250D02*
X1097010D01*
X1096010Y475250D02*
Y477250D01*
X1092131Y480018D02*
X1094131D01*
X1093131Y479018D02*
Y481018D01*
X1089930Y483870D02*
X1091930D01*
X1090930Y482870D02*
Y484870D01*
X853710Y899160D02*
X855710D01*
X854710Y898160D02*
Y900160D01*
X894350Y720090D02*
X896350D01*
X895350Y719090D02*
Y721090D01*
X748018Y772750D02*
X750018D01*
X749018Y771750D02*
Y773750D01*
X745324Y770056D02*
X747324D01*
X746324Y769056D02*
Y771056D01*
X744426Y776342D02*
X746426D01*
X745426Y775342D02*
Y777342D01*
X741732Y773648D02*
X743732D01*
X742732Y772648D02*
Y774648D01*
X740834Y779934D02*
X742834D01*
X741834Y778934D02*
Y780934D01*
X738140Y777240D02*
X740140D01*
X739140Y776240D02*
Y778240D01*
X875300Y839470D02*
X877300D01*
X876300Y838470D02*
Y840470D01*
X886730Y839470D02*
X888730D01*
X887730Y838470D02*
Y840470D01*
X893546Y826612D02*
X895546D01*
X894546Y825612D02*
Y827612D01*
X1051830Y389890D02*
X1053830D01*
X1052830Y388890D02*
Y390890D01*
X965665Y450544D02*
X967665D01*
X966665Y449544D02*
Y451544D01*
X965753Y445308D02*
X967753D01*
X966753Y444308D02*
Y446308D01*
X965841Y440073D02*
X967841D01*
X966841Y439073D02*
Y441073D01*
X953065Y445862D02*
X955065D01*
X954065Y444862D02*
Y446862D01*
X953153Y440627D02*
X955153D01*
X954153Y439627D02*
Y441627D01*
X952977Y451098D02*
X954977D01*
X953977Y450098D02*
Y452098D01*
X940377Y446416D02*
X942377D01*
X941377Y445416D02*
Y447416D01*
X940465Y441181D02*
X942465D01*
X941465Y440181D02*
Y442181D01*
X940289Y451652D02*
X942289D01*
X941289Y450652D02*
Y452652D01*
X888545Y460166D02*
X890545D01*
X889545Y459166D02*
Y461166D01*
X887275Y455086D02*
X889275D01*
X888275Y454086D02*
Y456086D01*
X889815Y465246D02*
X891815D01*
X890815Y464246D02*
Y466246D01*
X876812Y465026D02*
X878812D01*
X877812Y464026D02*
Y466026D01*
X875542Y459946D02*
X877542D01*
X876542Y458946D02*
Y460946D01*
X878082Y470106D02*
X880082D01*
X879082Y469106D02*
Y471106D01*
X866349Y474966D02*
X868349D01*
X867349Y473966D02*
Y475966D01*
X863809Y464806D02*
X865809D01*
X864809Y463806D02*
Y465806D01*
X865079Y469886D02*
X867079D01*
X866079Y468886D02*
Y470886D01*
X748698Y802242D02*
X750698D01*
X749698Y801242D02*
Y803242D01*
X745106Y805834D02*
X747106D01*
X746106Y804834D02*
Y806834D01*
X755883Y802242D02*
X757883D01*
X756883Y801242D02*
Y803242D01*
X752290Y805834D02*
X754290D01*
X753290Y804834D02*
Y806834D01*
X748698Y809426D02*
X750698D01*
X749698Y808426D02*
Y810426D01*
X734330Y816610D02*
X736330D01*
X735330Y815610D02*
Y817610D01*
X737922Y820202D02*
X739922D01*
X738922Y819202D02*
Y821202D01*
X729840Y821100D02*
X731840D01*
X730840Y820100D02*
Y822100D01*
X733432Y824692D02*
X735432D01*
X734432Y823692D02*
Y825692D01*
X725350Y825590D02*
X727350D01*
X726350Y824590D02*
Y826590D01*
X728942Y829182D02*
X730942D01*
X729942Y828182D02*
Y830182D01*
X720860Y830080D02*
X722860D01*
X721860Y829080D02*
Y831080D01*
X724452Y833672D02*
X726452D01*
X725452Y832673D02*
Y834672D01*
X708640Y627770D02*
X710640D01*
X709640Y626770D02*
Y628770D01*
X719640Y627770D02*
X721640D01*
X720640Y626770D02*
Y628770D01*
X708640Y638770D02*
X710640D01*
X709640Y637770D02*
Y639770D01*
X719640Y638770D02*
X721640D01*
X720640Y637770D02*
Y639770D01*
X708640Y649770D02*
X710640D01*
X709640Y648770D02*
Y650770D01*
X719640Y649770D02*
X721640D01*
X720640Y648770D02*
Y650770D01*
X1085878Y899454D02*
X1087878D01*
X1086878Y898454D02*
Y900454D01*
X1127773Y878199D02*
X1129773D01*
X1128773Y877199D02*
Y879199D01*
X1100313Y921916D02*
X1102313D01*
X1101313Y920916D02*
Y922916D01*
X1120110Y910486D02*
X1122110D01*
X1121110Y909486D02*
Y911486D01*
X1130644Y905871D02*
X1132644D01*
X1131644Y904871D02*
Y906871D01*
X1146506Y895246D02*
X1148506D01*
X1147506Y894246D02*
Y896246D01*
X1098015Y871096D02*
X1100015D01*
X1099015Y870096D02*
Y872096D01*
X1167544Y839572D02*
X1169544D01*
X1168544Y838572D02*
Y840572D01*
X1193199Y800217D02*
X1195199D01*
X1194199Y799217D02*
Y801217D01*
X1191276Y851807D02*
X1193276D01*
X1192276Y850807D02*
Y852807D01*
X1202706Y832010D02*
X1204706D01*
X1203706Y831010D02*
Y833010D01*
X1209521Y822746D02*
X1211521D01*
X1210521Y821746D02*
Y823746D01*
X1217946Y805614D02*
X1219946D01*
X1218946Y804614D02*
Y806614D01*
X1163876Y808945D02*
X1165876D01*
X1164876Y807945D02*
Y809945D01*
X1013446Y906114D02*
X1015446D01*
X1014446Y905114D02*
Y907114D01*
X1054035Y941991D02*
X1056035D01*
X1055035Y940991D02*
Y942991D01*
X1040352Y920676D02*
X1042352D01*
X1041352Y919676D02*
Y921676D01*
X994383Y930364D02*
X996383D01*
X995383Y929364D02*
Y931364D01*
X1002512Y955797D02*
X1004512D01*
X1003512Y954797D02*
Y956797D01*
X1024593Y949880D02*
X1026593D01*
X1025593Y948880D02*
Y950880D01*
X1035962Y948148D02*
X1037962D01*
X1036962Y947149D02*
Y949148D01*
X1135150Y795971D02*
X1137150D01*
X1136150Y794971D02*
Y796971D01*
X1139640Y791481D02*
X1141640D01*
X1140640Y790481D02*
Y792481D01*
X1144131Y786991D02*
X1146131D01*
X1145131Y785991D02*
Y787991D01*
X1148621Y782501D02*
X1150621D01*
X1149621Y781500D02*
Y783501D01*
X1153111Y778010D02*
X1155111D01*
X1154111Y777010D02*
Y779010D01*
X1148621Y773520D02*
X1150621D01*
X1149621Y772520D02*
Y774520D01*
X1144131Y778010D02*
X1146131D01*
X1145131Y777010D02*
Y779010D01*
X1139641Y782501D02*
X1141641D01*
X1140641Y781500D02*
Y783501D01*
X1135151Y786991D02*
X1137150D01*
X1136151Y785991D02*
Y787991D01*
X1130660Y791481D02*
X1132660D01*
X1131660Y790481D02*
Y792481D01*
X1144131Y769030D02*
X1146131D01*
X1145131Y768030D02*
Y770030D01*
X1139641Y773520D02*
X1141640D01*
X1140640Y772520D02*
Y774520D01*
X1135150Y778010D02*
X1137150D01*
X1136150Y777010D02*
Y779010D01*
X1130660Y782501D02*
X1132660D01*
X1131660Y781500D02*
Y783501D01*
X1126170Y786991D02*
X1128170D01*
X1127170Y785991D02*
Y787991D01*
X1139641Y764540D02*
X1141640D01*
X1140640Y763540D02*
Y765540D01*
X1135150Y769030D02*
X1137150D01*
X1136150Y768030D02*
Y770030D01*
X1130660Y773520D02*
X1132660D01*
X1131660Y772520D02*
Y774520D01*
X1126170Y778010D02*
X1128170D01*
X1127170Y777010D02*
Y779010D01*
X1121680Y782501D02*
X1123680D01*
X1122680Y781500D02*
Y783501D01*
X1135151Y760050D02*
X1137150D01*
X1136151Y759050D02*
Y761050D01*
X1130660Y764540D02*
X1132660D01*
X1131660Y763540D02*
Y765540D01*
X1126170Y769030D02*
X1128170D01*
X1127170Y768030D02*
Y770030D01*
X1121680Y773520D02*
X1123680D01*
X1122680Y772520D02*
Y774520D01*
X1117190Y778010D02*
X1119190D01*
X1118190Y777010D02*
Y779010D01*
X1130660Y755560D02*
X1132660D01*
X1131660Y754560D02*
Y756560D01*
X1126170Y760050D02*
X1128170D01*
X1127170Y759050D02*
Y761050D01*
X1117190Y769030D02*
X1119190D01*
X1118190Y768030D02*
Y770030D01*
X1112700Y773520D02*
X1114700D01*
X1113700Y772520D02*
Y774520D01*
X1126170Y751070D02*
X1128170D01*
X1127170Y750070D02*
Y752070D01*
X1121680Y755560D02*
X1123680D01*
X1122680Y754560D02*
Y756560D01*
X1117190Y760050D02*
X1119190D01*
X1118190Y759050D02*
Y761050D01*
X1112700Y764540D02*
X1114700D01*
X1113700Y763540D02*
Y765540D01*
X1108210Y769030D02*
X1110210D01*
X1109210Y768030D02*
Y770030D01*
X1121680Y746580D02*
X1123680D01*
X1122680Y745580D02*
Y747580D01*
X1117190Y751069D02*
X1119190D01*
X1118190Y750070D02*
Y752069D01*
X1112700Y755560D02*
X1114700D01*
X1113700Y754560D02*
Y756560D01*
X1108210Y760050D02*
X1110210D01*
X1109210Y759050D02*
Y761050D01*
X1103719Y764540D02*
X1105720D01*
X1104719Y763540D02*
Y765540D01*
X1117190Y742089D02*
X1119190D01*
X1118190Y741089D02*
Y743089D01*
X1112700Y746580D02*
X1114700D01*
X1113700Y745580D02*
Y747579D01*
X1108210Y751070D02*
X1110210D01*
X1109210Y750070D02*
Y752070D01*
X1103719Y755560D02*
X1105720D01*
X1104719Y754560D02*
Y756560D01*
X1099229Y760050D02*
X1101229D01*
X1100229Y759050D02*
Y761050D01*
X1112700Y737599D02*
X1114700D01*
X1113700Y736599D02*
Y738599D01*
X1108210Y742089D02*
X1110210D01*
X1109210Y741089D02*
Y743089D01*
X1103719Y746580D02*
X1105719D01*
X1104719Y745580D02*
Y747579D01*
X1099229Y751070D02*
X1101229D01*
X1100229Y750070D02*
Y752070D01*
X1094739Y755560D02*
X1096739D01*
X1095739Y754560D02*
Y756560D01*
X1090249Y751070D02*
X1092249D01*
X1091249Y750070D02*
Y752070D01*
X1094739Y746580D02*
X1096739D01*
X1095739Y745580D02*
Y747579D01*
X1099229Y742089D02*
X1101229D01*
X1100229Y741089D02*
Y743089D01*
X1103719Y737599D02*
X1105719D01*
X1104719Y736599D02*
Y738599D01*
X1108210Y733109D02*
X1110210D01*
X1109210Y732109D02*
Y734109D01*
X1084536Y522994D02*
X1086536D01*
X1085536Y521993D02*
Y523993D01*
X1079854Y527284D02*
X1081854D01*
X1080854Y526284D02*
Y528284D01*
X1075173Y531574D02*
X1077173D01*
X1076173Y530574D02*
Y532574D01*
X1070491Y535863D02*
X1072491D01*
X1071491Y534863D02*
Y536863D01*
X1065809Y540154D02*
X1067809D01*
X1066809Y539154D02*
Y541154D01*
X1070099Y544835D02*
X1072099D01*
X1071099Y543835D02*
Y545835D01*
X1074781Y540545D02*
X1076781D01*
X1075781Y539545D02*
Y541545D01*
X1079463Y536255D02*
X1081463D01*
X1080463Y535255D02*
Y537255D01*
X1084144Y531965D02*
X1086144D01*
X1085144Y530965D02*
Y532965D01*
X1088826Y527675D02*
X1090826D01*
X1089826Y526675D02*
Y528675D01*
X1074389Y549517D02*
X1076389D01*
X1075389Y548517D02*
Y550517D01*
X1079071Y545227D02*
X1081071D01*
X1080071Y544227D02*
Y546227D01*
X1083753Y540937D02*
X1085753D01*
X1084753Y539937D02*
Y541937D01*
X1088434Y536647D02*
X1090434D01*
X1089434Y535647D02*
Y537647D01*
X1093116Y532357D02*
X1095116D01*
X1094116Y531357D02*
Y533357D01*
X1078679Y554199D02*
X1080679D01*
X1079679Y553199D02*
Y555199D01*
X1083361Y549909D02*
X1085361D01*
X1084361Y548909D02*
Y550909D01*
X1088043Y545619D02*
X1090043D01*
X1089043Y544619D02*
Y546619D01*
X1092724Y541329D02*
X1094724D01*
X1093724Y540329D02*
Y542329D01*
X1097406Y537039D02*
X1099406D01*
X1098406Y536039D02*
Y538039D01*
X1082969Y558880D02*
X1084969D01*
X1083969Y557880D02*
Y559880D01*
X1087651Y554590D02*
X1089651D01*
X1088651Y553590D02*
Y555590D01*
X1092333Y550300D02*
X1094333D01*
X1093333Y549300D02*
Y551300D01*
X1097014Y546010D02*
X1099014D01*
X1098014Y545010D02*
Y547010D01*
X1101696Y541720D02*
X1103696D01*
X1102696Y540720D02*
Y542720D01*
X1087259Y563562D02*
X1089259D01*
X1088259Y562562D02*
Y564562D01*
X1091941Y559272D02*
X1093941D01*
X1092941Y558272D02*
Y560272D01*
X1101304Y550692D02*
X1103304D01*
X1102304Y549692D02*
Y551692D01*
X1105986Y546402D02*
X1107986D01*
X1106986Y545402D02*
Y547402D01*
X1091549Y568244D02*
X1093549D01*
X1092549Y567244D02*
Y569244D01*
X1096231Y563954D02*
X1098231D01*
X1097231Y562954D02*
Y564954D01*
X1100913Y559664D02*
X1102913D01*
X1101913Y558664D02*
Y560664D01*
X1105594Y555374D02*
X1107594D01*
X1106594Y554374D02*
Y556374D01*
X1110276Y551084D02*
X1112276D01*
X1111276Y550084D02*
Y552084D01*
X1095839Y572925D02*
X1097839D01*
X1096839Y571926D02*
Y573926D01*
X1100521Y568635D02*
X1102521D01*
X1101521Y567635D02*
Y569636D01*
X1105202Y564346D02*
X1107203D01*
X1106202Y563345D02*
Y565345D01*
X1109884Y560056D02*
X1111884D01*
X1110884Y559055D02*
Y561055D01*
X1114566Y555765D02*
X1116566D01*
X1115566Y554765D02*
Y556765D01*
X1100129Y577607D02*
X1102129D01*
X1101129Y576607D02*
Y578607D01*
X1104811Y573317D02*
X1106811D01*
X1105811Y572317D02*
Y574317D01*
X1109492Y569027D02*
X1111492D01*
X1110492Y568027D02*
Y570027D01*
X1114174Y564737D02*
X1116174D01*
X1115174Y563737D02*
Y565737D01*
X1118856Y560447D02*
X1120856D01*
X1119856Y559447D02*
Y561447D01*
X1104419Y582289D02*
X1106419D01*
X1105419Y581289D02*
Y583289D01*
X1109101Y577999D02*
X1111101D01*
X1110101Y576999D02*
Y578999D01*
X1113783Y573709D02*
X1115782D01*
X1114782Y572709D02*
Y574709D01*
X1118464Y569419D02*
X1120464D01*
X1119464Y568419D02*
Y570419D01*
X1123146Y565129D02*
X1125146D01*
X1124146Y564129D02*
Y566129D01*
X1127436Y569811D02*
X1129436D01*
X1128436Y568811D02*
Y570811D01*
X1122754Y574101D02*
X1124754D01*
X1123754Y573101D02*
Y575101D01*
X1118073Y578391D02*
X1120072D01*
X1119072Y577391D02*
Y579391D01*
X1113391Y582681D02*
X1115391D01*
X1114391Y581681D02*
Y583681D01*
X1108709Y586971D02*
X1110709D01*
X1109709Y585971D02*
Y587971D01*
X851670Y495619D02*
X853670D01*
X852670Y494619D02*
Y496619D01*
X847180Y500109D02*
X849180D01*
X848180Y499109D02*
Y501109D01*
X842690Y504599D02*
X844689D01*
X843689Y503599D02*
Y505599D01*
X838199Y509090D02*
X840199D01*
X839199Y508089D02*
Y510089D01*
X833709Y513580D02*
X835709D01*
X834709Y512580D02*
Y514580D01*
X838199Y518070D02*
X840199D01*
X839199Y517070D02*
Y519070D01*
X842689Y513580D02*
X844689D01*
X843689Y512580D02*
Y514580D01*
X847180Y509090D02*
X849180D01*
X848180Y508090D02*
Y510090D01*
X851670Y504599D02*
X853670D01*
X852670Y503600D02*
Y505600D01*
X856160Y500109D02*
X858160D01*
X857160Y499109D02*
Y501109D01*
X842689Y522560D02*
X844689D01*
X843689Y521560D02*
Y523560D01*
X847179Y518070D02*
X849179D01*
X848179Y517070D02*
Y519070D01*
X851669Y513580D02*
X853670D01*
X852670Y512580D02*
Y514580D01*
X856160Y509089D02*
X858160D01*
X857160Y508089D02*
Y510089D01*
X860650Y504599D02*
X862650D01*
X861650Y503599D02*
Y505599D01*
X847179Y527050D02*
X849180D01*
X848179Y526050D02*
Y528050D01*
X851670Y522560D02*
X853670D01*
X852670Y521560D02*
Y523560D01*
X856160Y518070D02*
X858160D01*
X857160Y517070D02*
Y519070D01*
X860650Y513579D02*
X862650D01*
X861650Y512579D02*
Y514579D01*
X865140Y509090D02*
X867140D01*
X866140Y508089D02*
Y510089D01*
X851669Y531540D02*
X853669D01*
X852669Y530540D02*
Y532540D01*
X856160Y527050D02*
X858160D01*
X857160Y526050D02*
Y528050D01*
X860650Y522560D02*
X862650D01*
X861650Y521560D02*
Y523560D01*
X865140Y518070D02*
X867140D01*
X866140Y517070D02*
Y519070D01*
X869630Y513580D02*
X871630D01*
X870630Y512580D02*
Y514580D01*
X856160Y536030D02*
X858160D01*
X857160Y535030D02*
Y537030D01*
X860650Y531540D02*
X862650D01*
X861650Y530540D02*
Y532540D01*
X869630Y522560D02*
X871630D01*
X870630Y521560D02*
Y523560D01*
X874120Y518070D02*
X876120D01*
X875120Y517070D02*
Y519070D01*
X860650Y540520D02*
X862650D01*
X861650Y539520D02*
Y541520D01*
X865140Y536030D02*
X867140D01*
X866140Y535030D02*
Y537030D01*
X869630Y531540D02*
X871630D01*
X870630Y530540D02*
Y532540D01*
X874120Y527050D02*
X876120D01*
X875120Y526050D02*
Y528050D01*
X878611Y522560D02*
X880611D01*
X879611Y521560D02*
Y523560D01*
X865140Y545010D02*
X867140D01*
X866140Y544011D02*
Y546011D01*
X869630Y540521D02*
X871630D01*
X870630Y539521D02*
Y541521D01*
X874120Y536030D02*
X876120D01*
X875120Y535030D02*
Y537030D01*
X878610Y531540D02*
X880610D01*
X879610Y530540D02*
Y532540D01*
X883101Y527050D02*
X885100D01*
X884100Y526050D02*
Y528050D01*
X869630Y549501D02*
X871630D01*
X870630Y548501D02*
Y550501D01*
X874120Y545011D02*
X876120D01*
X875120Y544011D02*
Y546011D01*
X878611Y540520D02*
X880611D01*
X879611Y539520D02*
Y541520D01*
X883101Y536030D02*
X885101D01*
X884101Y535030D02*
Y537030D01*
X887591Y531540D02*
X889591D01*
X888591Y530540D02*
Y532540D01*
X874120Y553991D02*
X876120D01*
X875120Y552991D02*
Y554991D01*
X878610Y549501D02*
X880610D01*
X879610Y548501D02*
Y550500D01*
X883101Y545010D02*
X885100D01*
X884100Y544011D02*
Y546011D01*
X887591Y540520D02*
X889591D01*
X888591Y539520D02*
Y541520D01*
X892081Y536030D02*
X894081D01*
X893081Y535030D02*
Y537030D01*
X896571Y540520D02*
X898571D01*
X897571Y539520D02*
Y541520D01*
X892081Y545010D02*
X894081D01*
X893081Y544011D02*
Y546011D01*
X887590Y549501D02*
X889591D01*
X888590Y548501D02*
Y550501D01*
X883100Y553991D02*
X885100D01*
X884100Y552991D02*
Y554991D01*
X878610Y558481D02*
X880610D01*
X879610Y557481D02*
Y559481D01*
X1099771Y820920D02*
X1101771D01*
X1100771Y819920D02*
Y821920D01*
X1095281Y816430D02*
X1097281D01*
X1096281Y815430D02*
Y817430D01*
X1090791Y811939D02*
X1092791D01*
X1091791Y810939D02*
Y812939D01*
X1086300Y807449D02*
X1088300D01*
X1087300Y806449D02*
Y808449D01*
X1081810Y802959D02*
X1083810D01*
X1082810Y801959D02*
Y803959D01*
X1077320Y807449D02*
X1079320D01*
X1078320Y806449D02*
Y808449D01*
X1081810Y811939D02*
X1083810D01*
X1082810Y810939D02*
Y812939D01*
X1086301Y816430D02*
X1088300D01*
X1087300Y815430D02*
Y817430D01*
X1090791Y820920D02*
X1092791D01*
X1091791Y819920D02*
Y821920D01*
X1095281Y825410D02*
X1097281D01*
X1096281Y824410D02*
Y826410D01*
X1072830Y811939D02*
X1074830D01*
X1073830Y810939D02*
Y812939D01*
X1077320Y816430D02*
X1079320D01*
X1078320Y815430D02*
Y817430D01*
X1081811Y820920D02*
X1083811D01*
X1082811Y819920D02*
Y821920D01*
X1086301Y825410D02*
X1088300D01*
X1087300Y824410D02*
Y826410D01*
X1090791Y829900D02*
X1092791D01*
X1091791Y828900D02*
Y830900D01*
X1068340Y816430D02*
X1070340D01*
X1069340Y815430D02*
Y817430D01*
X1072830Y820920D02*
X1074830D01*
X1073830Y819920D02*
Y821920D01*
X1077320Y825410D02*
X1079320D01*
X1078320Y824410D02*
Y826410D01*
X1081810Y829900D02*
X1083810D01*
X1082810Y828900D02*
Y830900D01*
X1086300Y834390D02*
X1088300D01*
X1087300Y833390D02*
Y835390D01*
X1063850Y820920D02*
X1065850D01*
X1064850Y819920D02*
Y821920D01*
X1068340Y825410D02*
X1070340D01*
X1069340Y824410D02*
Y826410D01*
X1072830Y829900D02*
X1074830D01*
X1073830Y828900D02*
Y830900D01*
X1077320Y834390D02*
X1079320D01*
X1078320Y833390D02*
Y835390D01*
X1081810Y838880D02*
X1083810D01*
X1082810Y837880D02*
Y839880D01*
X1059360Y825410D02*
X1061360D01*
X1060360Y824410D02*
Y826410D01*
X1063850Y829900D02*
X1065850D01*
X1064850Y828900D02*
Y830900D01*
X1072830Y838880D02*
X1074830D01*
X1073830Y837880D02*
Y839880D01*
X1077320Y843370D02*
X1079320D01*
X1078320Y842370D02*
Y844370D01*
X1054870Y829900D02*
X1056870D01*
X1055870Y828900D02*
Y830900D01*
X1059360Y834390D02*
X1061360D01*
X1060360Y833390D02*
Y835390D01*
X1063850Y838880D02*
X1065850D01*
X1064850Y837880D02*
Y839880D01*
X1068340Y843370D02*
X1070340D01*
X1069340Y842370D02*
Y844370D01*
X1072830Y847860D02*
X1074830D01*
X1073830Y846860D02*
Y848860D01*
X1050380Y834390D02*
X1052380D01*
X1051380Y833390D02*
Y835390D01*
X1054870Y838880D02*
X1056870D01*
X1055870Y837880D02*
Y839880D01*
X1059360Y843370D02*
X1061360D01*
X1060360Y842370D02*
Y844370D01*
X1063850Y847860D02*
X1065850D01*
X1064850Y846860D02*
Y848860D01*
X1068340Y852350D02*
X1070340D01*
X1069340Y851350D02*
Y853350D01*
X1045889Y838880D02*
X1047889D01*
X1046889Y837880D02*
Y839880D01*
X1050379Y843370D02*
X1052380D01*
X1051379Y842370D02*
Y844370D01*
X1054870Y847860D02*
X1056870D01*
X1055870Y846860D02*
Y848860D01*
X1059360Y852350D02*
X1061360D01*
X1060360Y851350D02*
Y853351D01*
X1063850Y856841D02*
X1065850D01*
X1064850Y855841D02*
Y857840D01*
X1041399Y843370D02*
X1043399D01*
X1042399Y842370D02*
Y844370D01*
X1045889Y847860D02*
X1047889D01*
X1046889Y846860D02*
Y848860D01*
X1050379Y852350D02*
X1052380D01*
X1051379Y851350D02*
Y853351D01*
X1054870Y856841D02*
X1056870D01*
X1055870Y855841D02*
Y857841D01*
X1059360Y861331D02*
X1061360D01*
X1060360Y860331D02*
Y862331D01*
X1054870Y865821D02*
X1056870D01*
X1055870Y864821D02*
Y866821D01*
X1050380Y861331D02*
X1052380D01*
X1051380Y860331D02*
Y862331D01*
X1045889Y856841D02*
X1047889D01*
X1046889Y855841D02*
Y857841D01*
X1041399Y852350D02*
X1043399D01*
X1042399Y851350D02*
Y853351D01*
X1036909Y847860D02*
X1038909D01*
X1037909Y846860D02*
Y848860D01*
X811481Y484370D02*
X813481D01*
X812481Y483370D02*
Y485370D01*
X806991Y479879D02*
X808991D01*
X807991Y478880D02*
Y480880D01*
X802501Y475389D02*
X804501D01*
X803501Y474389D02*
Y476389D01*
X798010Y470899D02*
X800011D01*
X799010Y469899D02*
Y471899D01*
X793520Y466409D02*
X795520D01*
X794520Y465409D02*
Y467409D01*
X789030Y470899D02*
X791030D01*
X790030Y469899D02*
Y471899D01*
X793520Y475389D02*
X795520D01*
X794520Y474389D02*
Y476389D01*
X798011Y479879D02*
X800011D01*
X799011Y478880D02*
Y480880D01*
X802501Y484370D02*
X804501D01*
X803501Y483370D02*
Y485370D01*
X806991Y488860D02*
X808991D01*
X807991Y487860D02*
Y489860D01*
X784540Y475389D02*
X786540D01*
X785540Y474389D02*
Y476389D01*
X789030Y479879D02*
X791030D01*
X790030Y478880D02*
Y480880D01*
X793520Y484370D02*
X795520D01*
X794520Y483370D02*
Y485370D01*
X798011Y488860D02*
X800011D01*
X799011Y487860D02*
Y489860D01*
X802501Y493350D02*
X804501D01*
X803501Y492350D02*
Y494350D01*
X780050Y479879D02*
X782050D01*
X781050Y478880D02*
Y480880D01*
X784540Y484370D02*
X786540D01*
X785540Y483370D02*
Y485370D01*
X789030Y488860D02*
X791030D01*
X790030Y487860D02*
Y489860D01*
X793520Y493350D02*
X795520D01*
X794520Y492350D02*
Y494350D01*
X798010Y497840D02*
X800011D01*
X799010Y496840D02*
Y498840D01*
X775560Y484370D02*
X777560D01*
X776560Y483370D02*
Y485370D01*
X780050Y488860D02*
X782050D01*
X781050Y487860D02*
Y489860D01*
X784540Y493350D02*
X786540D01*
X785540Y492350D02*
Y494350D01*
X789030Y497840D02*
X791030D01*
X790030Y496840D02*
Y498840D01*
X793520Y502330D02*
X795520D01*
X794520Y501330D02*
Y503330D01*
X771070Y488860D02*
X773070D01*
X772070Y487860D02*
Y489860D01*
X775560Y493350D02*
X777560D01*
X776560Y492350D02*
Y494350D01*
X784540Y502330D02*
X786540D01*
X785540Y501330D02*
Y503330D01*
X789030Y506820D02*
X791030D01*
X790030Y505820D02*
Y507820D01*
X766580Y493350D02*
X768580D01*
X767580Y492350D02*
Y494350D01*
X771070Y497840D02*
X773070D01*
X772070Y496840D02*
Y498840D01*
X775560Y502330D02*
X777560D01*
X776560Y501330D02*
Y503330D01*
X780050Y506820D02*
X782050D01*
X781050Y505820D02*
Y507820D01*
X784540Y511310D02*
X786540D01*
X785540Y510310D02*
Y512310D01*
X762089Y497840D02*
X764090D01*
X763090Y496840D02*
Y498840D01*
X766580Y502330D02*
X768580D01*
X767580Y501330D02*
Y503330D01*
X771070Y506820D02*
X773070D01*
X772070Y505820D02*
Y507820D01*
X775560Y511310D02*
X777560D01*
X776560Y510310D02*
Y512310D01*
X780050Y515801D02*
X782050D01*
X781050Y514800D02*
Y516800D01*
X757599Y502330D02*
X759599D01*
X758599Y501330D02*
Y503330D01*
X762089Y506820D02*
X764089D01*
X763089Y505820D02*
Y507820D01*
X766580Y511310D02*
X768580D01*
X767580Y510310D02*
Y512310D01*
X771070Y515801D02*
X773070D01*
X772070Y514800D02*
Y516800D01*
X775560Y520291D02*
X777560D01*
X776560Y519291D02*
Y521291D01*
X753109Y506820D02*
X755109D01*
X754109Y505820D02*
Y507820D01*
X757599Y511310D02*
X759599D01*
X758599Y510310D02*
Y512310D01*
X762089Y515801D02*
X764089D01*
X763089Y514800D02*
Y516800D01*
X766580Y520291D02*
X768580D01*
X767580Y519291D02*
Y521291D01*
X771070Y524781D02*
X773070D01*
X772070Y523781D02*
Y525781D01*
X766580Y529271D02*
X768580D01*
X767580Y528271D02*
Y530271D01*
X762089Y524781D02*
X764090D01*
X763090Y523781D02*
Y525781D01*
X757599Y520291D02*
X759599D01*
X758599Y519291D02*
Y521291D01*
X753109Y515801D02*
X755109D01*
X754109Y514800D02*
Y516800D01*
X748619Y511310D02*
X750619D01*
X749619Y510310D02*
Y512310D01*
X752290Y798650D02*
X754290D01*
X753290Y797650D02*
Y799650D01*
X759475Y798650D02*
X761475D01*
X760475Y797650D02*
Y799650D01*
X759475Y791465D02*
X761475D01*
X760475Y790465D02*
Y792465D01*
X755883Y795057D02*
X757883D01*
X756883Y794057D02*
Y796057D01*
X763067Y795057D02*
X765067D01*
X764067Y794057D02*
Y796057D01*
X919750Y928370D02*
X921750D01*
X920750Y927370D02*
Y929370D01*
X915940Y944880D02*
X917940D01*
X916940Y943880D02*
Y945880D01*
X922290Y943610D02*
X924290D01*
X923290Y942610D02*
Y944610D01*
X937530Y934720D02*
X939530D01*
X938530Y933720D02*
Y935720D01*
X945150Y930910D02*
X947150D01*
X946150Y929910D02*
Y931910D01*
X931180Y916940D02*
X933180D01*
X932180Y915940D02*
Y917940D01*
X764810Y642620D02*
X766810D01*
X765810Y641620D02*
Y643620D01*
X764810Y637540D02*
X766810D01*
X765810Y636540D02*
Y638540D01*
X764810Y632460D02*
X766810D01*
X765810Y631460D02*
Y633460D01*
X759730Y632460D02*
X761730D01*
X760730Y631460D02*
Y633460D01*
X744490Y632460D02*
X746490D01*
X745490Y631460D02*
Y633460D01*
X744490Y637540D02*
X746490D01*
X745490Y636540D02*
Y638540D01*
M02*
