G04 Layer_Color=2752767*
%FSLAX44Y44*%
%MOMM*%
G71*
G01*
G75*
%ADD284C,0.0508*%
D284*
X797560Y860298D02*
X798576Y861314D01*
X799592D01*
X798576Y862330D01*
X799592Y863346D01*
X798576D01*
X797560Y864362D01*
X796544Y863346D01*
X795528D01*
X796544Y862330D01*
X795528Y861314D01*
X796544D01*
X797560Y860298D01*
X880110Y864108D02*
X881126Y865124D01*
X882142D01*
X881126Y866140D01*
X882142Y867156D01*
X881126D01*
X880110Y868172D01*
X879094Y867156D01*
X878078D01*
X879094Y866140D01*
X878078Y865124D01*
X879094D01*
X880110Y864108D01*
X891008Y857837D02*
X892024Y858853D01*
X893040D01*
X892024Y859869D01*
X893040Y860885D01*
X892024D01*
X891008Y861901D01*
X889992Y860885D01*
X888976D01*
X889992Y859869D01*
X888976Y858853D01*
X889992D01*
X891008Y857837D01*
X954310Y752378D02*
X955326Y753394D01*
X956342D01*
X955326Y754410D01*
X956342Y755426D01*
X955326D01*
X954310Y756442D01*
X953294Y755426D01*
X952278D01*
X953294Y754410D01*
X952278Y753394D01*
X953294D01*
X954310Y752378D01*
X950310Y752378D02*
X951326Y753394D01*
X952342D01*
X951326Y754410D01*
X952342Y755426D01*
X951326D01*
X950310Y756442D01*
X949294Y755426D01*
X948278D01*
X949294Y754410D01*
X948278Y753394D01*
X949294D01*
X950310Y752378D01*
X946310D02*
X947326Y753394D01*
X948342D01*
X947326Y754410D01*
X948342Y755426D01*
X947326D01*
X946310Y756442D01*
X945294Y755426D01*
X944278D01*
X945294Y754410D01*
X944278Y753394D01*
X945294D01*
X946310Y752378D01*
X953770Y723138D02*
X954786Y724154D01*
X955802D01*
X954786Y725170D01*
X955802Y726186D01*
X954786D01*
X953770Y727202D01*
X952754Y726186D01*
X951738D01*
X952754Y725170D01*
X951738Y724154D01*
X952754D01*
X953770Y723138D01*
X947420Y719328D02*
X948436Y720344D01*
X949452D01*
X948436Y721360D01*
X949452Y722376D01*
X948436D01*
X947420Y723392D01*
X946404Y722376D01*
X945388D01*
X946404Y721360D01*
X945388Y720344D01*
X946404D01*
X947420Y719328D01*
X921576Y877077D02*
X922592Y878093D01*
X923608D01*
X922592Y879109D01*
X923608Y880125D01*
X922592D01*
X921576Y881141D01*
X920560Y880125D01*
X919544D01*
X920560Y879109D01*
X919544Y878093D01*
X920560D01*
X921576Y877077D01*
X893561Y871703D02*
X894577Y872719D01*
X895593D01*
X894577Y873735D01*
X895593Y874751D01*
X894577D01*
X893561Y875767D01*
X892545Y874751D01*
X891529D01*
X892545Y873735D01*
X891529Y872719D01*
X892545D01*
X893561Y871703D01*
X910807Y883292D02*
X911823Y884308D01*
X912839D01*
X911823Y885324D01*
X912839Y886340D01*
X911823D01*
X910807Y887356D01*
X909791Y886340D01*
X908775D01*
X909791Y885324D01*
X908775Y884308D01*
X909791D01*
X910807Y883292D01*
X913635Y886121D02*
X914651Y887137D01*
X915667D01*
X914651Y888153D01*
X915667Y889169D01*
X914651D01*
X913635Y890185D01*
X912619Y889169D01*
X911603D01*
X912619Y888153D01*
X911603Y887137D01*
X912619D01*
X913635Y886121D01*
X921830Y679958D02*
X922846Y680974D01*
X923862D01*
X922846Y681990D01*
X923862Y683006D01*
X922846D01*
X921830Y684022D01*
X920814Y683006D01*
X919798D01*
X920814Y681990D01*
X919798Y680974D01*
X920814D01*
X921830Y679958D01*
X681990Y742188D02*
X683006Y743204D01*
X684022D01*
X683006Y744220D01*
X684022Y745236D01*
X683006D01*
X681990Y746252D01*
X680974Y745236D01*
X679958D01*
X680974Y744220D01*
X679958Y743204D01*
X680974D01*
X681990Y742188D01*
X759460Y733298D02*
X760476Y734314D01*
X761492D01*
X760476Y735330D01*
X761492Y736346D01*
X760476D01*
X759460Y737362D01*
X758444Y736346D01*
X757428D01*
X758444Y735330D01*
X757428Y734314D01*
X758444D01*
X759460Y733298D01*
X762000Y718058D02*
X763016Y719074D01*
X764032D01*
X763016Y720090D01*
X764032Y721106D01*
X763016D01*
X762000Y722122D01*
X760984Y721106D01*
X759968D01*
X760984Y720090D01*
X759968Y719074D01*
X760984D01*
X762000Y718058D01*
X908939Y852174D02*
X909955Y853190D01*
X910971D01*
X909955Y854206D01*
X910971Y855222D01*
X909955D01*
X908939Y856238D01*
X907923Y855222D01*
X906907D01*
X907923Y854206D01*
X906907Y853190D01*
X907923D01*
X908939Y852174D01*
X918210Y866648D02*
X919226Y867664D01*
X920242D01*
X919226Y868680D01*
X920242Y869696D01*
X919226D01*
X918210Y870712D01*
X917194Y869696D01*
X916178D01*
X917194Y868680D01*
X916178Y867664D01*
X917194D01*
X918210Y866648D01*
X883110Y871721D02*
X884126Y872737D01*
X885142D01*
X884126Y873753D01*
X885142Y874769D01*
X884126D01*
X883110Y875785D01*
X882094Y874769D01*
X881078D01*
X882094Y873753D01*
X881078Y872737D01*
X882094D01*
X883110Y871721D01*
X891008Y874807D02*
X892024Y875823D01*
X893040D01*
X892024Y876839D01*
X893040Y877855D01*
X892024D01*
X891008Y878871D01*
X889992Y877855D01*
X888976D01*
X889992Y876839D01*
X888976Y875823D01*
X889992D01*
X891008Y874807D01*
X900299Y883158D02*
X901315Y884174D01*
X902331D01*
X901315Y885190D01*
X902331Y886206D01*
X901315D01*
X900299Y887222D01*
X899283Y886206D01*
X898267D01*
X899283Y885190D01*
X898267Y884174D01*
X899283D01*
X900299Y883158D01*
X902322Y886121D02*
X903338Y887137D01*
X904354D01*
X903338Y888153D01*
X904354Y889169D01*
X903338D01*
X902322Y890185D01*
X901306Y889169D01*
X900290D01*
X901306Y888153D01*
X900290Y887137D01*
X901306D01*
X902322Y886121D01*
X941070Y953008D02*
X942086Y954024D01*
X943102D01*
X942086Y955040D01*
X943102Y956056D01*
X942086D01*
X941070Y957072D01*
X940054Y956056D01*
X939038D01*
X940054Y955040D01*
X939038Y954024D01*
X940054D01*
X941070Y953008D01*
X944120Y963168D02*
X945136Y964184D01*
X946152D01*
X945136Y965200D01*
X946152Y966216D01*
X945136D01*
X944120Y967232D01*
X943104Y966216D01*
X942088D01*
X943104Y965200D01*
X942088Y964184D01*
X943104D01*
X944120Y963168D01*
X905150Y883292D02*
X906166Y884308D01*
X907182D01*
X906166Y885324D01*
X907182Y886340D01*
X906166D01*
X905150Y887356D01*
X904134Y886340D01*
X903118D01*
X904134Y885324D01*
X903118Y884308D01*
X904134D01*
X905150Y883292D01*
X879725Y857806D02*
X880741Y858822D01*
X881757D01*
X880741Y859838D01*
X881757Y860854D01*
X880741D01*
X879725Y861870D01*
X878708Y860854D01*
X877692D01*
X878708Y859838D01*
X877692Y858822D01*
X878708D01*
X879725Y857806D01*
X899521Y795753D02*
X900537Y796769D01*
X901553D01*
X900537Y797785D01*
X901553Y798801D01*
X900537D01*
X899521Y799817D01*
X898505Y798801D01*
X897489D01*
X898505Y797785D01*
X897489Y796769D01*
X898505D01*
X899521Y795753D01*
X895618Y772404D02*
X896634Y773420D01*
X897650D01*
X896634Y774436D01*
X897650Y775452D01*
X896634D01*
X895618Y776468D01*
X894602Y775452D01*
X893586D01*
X894602Y774436D01*
X893586Y773420D01*
X894602D01*
X895618Y772404D01*
X899224Y775699D02*
X900240Y776715D01*
X901256D01*
X900240Y777731D01*
X901256Y778747D01*
X900240D01*
X899224Y779763D01*
X898208Y778747D01*
X897193D01*
X898208Y777731D01*
X897193Y776715D01*
X898208D01*
X899224Y775699D01*
X890894Y825678D02*
X891910Y826694D01*
X892926D01*
X891910Y827710D01*
X892926Y828726D01*
X891910D01*
X890894Y829742D01*
X889878Y828726D01*
X888863D01*
X889878Y827710D01*
X888863Y826694D01*
X889878D01*
X890894Y825678D01*
X921972Y872085D02*
X922988Y873101D01*
X924004D01*
X922988Y874117D01*
X924004Y875133D01*
X922988D01*
X921972Y876149D01*
X920956Y875133D01*
X919940D01*
X920956Y874117D01*
X919940Y873101D01*
X920956D01*
X921972Y872085D01*
X924560Y865378D02*
X925576Y866394D01*
X926592D01*
X925576Y867410D01*
X926592Y868426D01*
X925576D01*
X924560Y869442D01*
X923544Y868426D01*
X922528D01*
X923544Y867410D01*
X922528Y866394D01*
X923544D01*
X924560Y865378D01*
M02*
