G04 Layer_Color=128*
%FSLAX44Y44*%
%MOMM*%
G71*
G01*
G75*
%ADD284C,0.0508*%
D284*
X823789Y867410D02*
X824789D01*
X824288Y866910D02*
Y867910D01*
X884851Y859869D02*
X885851D01*
X885351Y859369D02*
Y860369D01*
X794135Y790773D02*
X795135D01*
X794634Y790273D02*
Y791273D01*
X882022Y862697D02*
X883023D01*
X882523Y862197D02*
Y863197D01*
X949758Y726738D02*
X950758D01*
X950258Y726238D02*
Y727238D01*
X976130Y731497D02*
X977130D01*
X976630Y730997D02*
Y731997D01*
X887679Y874011D02*
X888679D01*
X888179Y873511D02*
Y874511D01*
X887679Y862697D02*
X888679D01*
X888179Y862197D02*
Y863197D01*
X780550Y727710D02*
X781550D01*
X781050Y727210D02*
Y728210D01*
X943110Y669290D02*
X944110D01*
X943610Y668790D02*
Y669790D01*
X945650Y665480D02*
X946650D01*
X946150Y664980D02*
Y665980D01*
X964700Y670560D02*
X965700D01*
X965200Y670060D02*
Y671060D01*
X753880Y730090D02*
X754880D01*
X754380Y729590D02*
Y730590D01*
X753880Y725170D02*
X754880D01*
X754380Y724670D02*
Y725670D01*
X711970Y726440D02*
X712970D01*
X712470Y725940D02*
Y726940D01*
X695300Y756760D02*
X696300D01*
X695800Y756260D02*
Y757260D01*
X666250Y744220D02*
X667250D01*
X666750Y743720D02*
Y744720D01*
X655560Y743480D02*
X656560D01*
X656060Y742980D02*
Y743980D01*
X663710Y748030D02*
X664710D01*
X664210Y747530D02*
Y748530D01*
X666470Y759680D02*
X667470D01*
X666970Y759180D02*
Y760180D01*
X663710Y755650D02*
X664710D01*
X664210Y755150D02*
Y756150D01*
X683746Y755650D02*
X684746D01*
X684246Y755150D02*
Y756150D01*
X655560Y747680D02*
X656560D01*
X656060Y747180D02*
Y748180D01*
X683776Y759714D02*
X684776D01*
X684276Y759214D02*
Y760214D01*
X887679Y868354D02*
X888679D01*
X888179Y867854D02*
Y868854D01*
X881993Y890981D02*
X882993D01*
X882493Y890481D02*
Y891481D01*
X884851Y876839D02*
X885851D01*
X885351Y876339D02*
Y877339D01*
X873537Y876839D02*
X874537D01*
X874037Y876339D02*
Y877339D01*
X870709Y879668D02*
X871709D01*
X871209Y879168D02*
Y880168D01*
X868254Y871182D02*
X869255D01*
X868755Y870682D02*
Y871682D01*
X870525Y874011D02*
X871525D01*
X871024Y873511D02*
Y874511D01*
X876065Y873760D02*
X877065D01*
X876564Y873260D02*
Y874260D01*
X887679Y885324D02*
X888679D01*
X888179Y884825D02*
Y885825D01*
X893336Y868354D02*
X894336D01*
X893836Y867854D02*
Y868854D01*
X896165Y871182D02*
X897165D01*
X896665Y870682D02*
Y871682D01*
X876366Y907952D02*
X877366D01*
X876866Y907452D02*
Y908452D01*
X976130Y905510D02*
X977130D01*
X976630Y905010D02*
Y906010D01*
X924670Y817824D02*
X925670D01*
X925170Y817324D02*
Y818324D01*
X917050Y810204D02*
X918050D01*
X917550Y809704D02*
Y810704D01*
X902470Y808990D02*
X903470D01*
X902970Y808490D02*
Y809490D01*
X930410Y924560D02*
X931410D01*
X930910Y924060D02*
Y925060D01*
X918980Y918210D02*
X919980D01*
X919480Y917710D02*
Y918710D01*
X919620Y965200D02*
X920620D01*
X920120Y964700D02*
Y965700D01*
X1200461Y547297D02*
X1201461D01*
X1200961Y546797D02*
Y547797D01*
X1231400Y666750D02*
X1232400D01*
X1231900Y666250D02*
Y667250D01*
X1139960Y501650D02*
X1140960D01*
X1140460Y501150D02*
Y502150D01*
X910090Y439420D02*
X911090D01*
X910590Y438920D02*
Y439920D01*
X1207270Y688340D02*
X1208270D01*
X1207770Y687840D02*
Y688840D01*
X896120Y905510D02*
X897120D01*
X896620Y905010D02*
Y906010D01*
X901822Y910780D02*
X902822D01*
X902322Y910280D02*
Y911280D01*
X901822Y899467D02*
X902822D01*
X902321Y898967D02*
Y899967D01*
X905010Y908050D02*
X906010D01*
X905510Y907550D02*
Y908550D01*
X902208Y905510D02*
X903208D01*
X902708Y905010D02*
Y906010D01*
X907478Y899467D02*
X908478D01*
X907978Y898967D02*
Y899967D01*
X884851Y910780D02*
X885851D01*
X885351Y910280D02*
Y911280D01*
X879194Y916437D02*
X880194D01*
X879694Y915937D02*
Y916937D01*
X887680Y919266D02*
X888680D01*
X888179Y918766D02*
Y919766D01*
X879194Y888153D02*
X880194D01*
X879694Y887653D02*
Y888653D01*
X859395Y879668D02*
X860395D01*
X859895Y879168D02*
Y880168D01*
X893336Y919266D02*
X894336D01*
X893836Y918766D02*
Y919766D01*
X882022Y868354D02*
X883023D01*
X882523Y867854D02*
Y868854D01*
X786345Y869352D02*
X787345D01*
X786845Y868851D02*
Y869852D01*
X852940Y621030D02*
X853940D01*
X853440Y620530D02*
Y621530D01*
X866910Y621030D02*
X867910D01*
X867410Y620530D02*
Y621530D01*
X1047250Y417830D02*
X1048250D01*
X1047750Y417330D02*
Y418330D01*
X907550Y765810D02*
X908550D01*
X908050Y765310D02*
Y766310D01*
X1198151Y589051D02*
X1199151D01*
X1198651Y588551D02*
Y589551D01*
X1214890Y579120D02*
X1215890D01*
X1215390Y578620D02*
Y579620D01*
X896941Y757990D02*
X897941D01*
X897441Y757490D02*
Y758490D01*
X1217430Y764540D02*
X1218430D01*
X1217930Y764040D02*
Y765040D01*
X884271Y762973D02*
X885271D01*
X884771Y762473D02*
Y763473D01*
X880736Y760053D02*
X881736D01*
X881236Y759553D02*
Y760553D01*
X877200Y756518D02*
X878200D01*
X877700Y756018D02*
Y757018D01*
X873665Y752982D02*
X874665D01*
X874165Y752482D02*
Y753482D01*
X870129Y749447D02*
X871129D01*
X870629Y748947D02*
Y749947D01*
X1145040Y476250D02*
X1146040D01*
X1145540Y475750D02*
Y476750D01*
X866910Y745595D02*
X867910D01*
X867410Y745095D02*
Y746095D01*
X1071380Y431800D02*
X1072380D01*
X1071880Y431300D02*
Y432300D01*
X869744Y734060D02*
X870744D01*
X870244Y733560D02*
Y734560D01*
X1066300Y444500D02*
X1067300D01*
X1066800Y444000D02*
Y445000D01*
X859522Y728980D02*
X860523D01*
X860023Y728480D02*
Y729480D01*
X829496Y735330D02*
X830496D01*
X829996Y734830D02*
Y735830D01*
X840240Y728980D02*
X841240D01*
X840740Y728480D02*
Y729480D01*
X1023120Y427990D02*
X1024120D01*
X1023620Y427490D02*
Y428490D01*
X1024390Y416560D02*
X1025390D01*
X1024890Y416060D02*
Y417060D01*
X888500Y424180D02*
X889500D01*
X889000Y423680D02*
Y424680D01*
X832986Y745911D02*
X833986D01*
X833486Y745411D02*
Y746411D01*
X829471Y749447D02*
X830471D01*
X829970Y748947D02*
Y749947D01*
X825935Y752830D02*
X826935D01*
X826435Y752330D02*
Y753330D01*
X822399Y756518D02*
X823399D01*
X822899Y756018D02*
Y757018D01*
X887347Y807663D02*
X888347D01*
X887847Y807163D02*
Y808163D01*
X822399Y818729D02*
X823399D01*
X822899Y818229D02*
Y819229D01*
X819995Y835502D02*
X820995D01*
X820495Y835002D02*
Y836002D01*
X862224Y876839D02*
X863224D01*
X862724Y876339D02*
Y877339D01*
X839236Y836965D02*
X840236D01*
X839736Y836466D02*
Y837466D01*
X876366Y885324D02*
X877366D01*
X876866Y884825D02*
Y885825D01*
X873537Y882496D02*
X874537D01*
X874037Y881996D02*
Y882996D01*
X823587Y824725D02*
X824587D01*
X824087Y824225D02*
Y825225D01*
X836160Y832914D02*
X837160D01*
X836660Y832414D02*
Y833414D01*
X867880Y876839D02*
X868880D01*
X868381Y876339D02*
Y877339D01*
X865052Y874011D02*
X866052D01*
X865552Y873511D02*
Y874511D01*
X904650Y879668D02*
X905650D01*
X905150Y879168D02*
Y880168D01*
X862224Y899467D02*
X863224D01*
X862724Y898967D02*
Y899967D01*
X913135Y893810D02*
X914135D01*
X913635Y893310D02*
Y894310D01*
X904650Y902295D02*
X905650D01*
X905150Y901795D02*
Y902795D01*
X825884Y836600D02*
X826885D01*
X826385Y836100D02*
Y837100D01*
X846205Y860730D02*
X847205D01*
X846704Y860230D02*
Y861230D01*
X850725Y857217D02*
X851725D01*
X851225Y856717D02*
Y857717D01*
X853824Y864540D02*
X854825D01*
X854324Y864040D02*
Y865040D01*
X941364Y872070D02*
X942364D01*
X941864Y871570D02*
Y872570D01*
X953349Y885324D02*
X954349D01*
X953849Y884825D02*
Y885825D01*
X816670Y757536D02*
X817670D01*
X817170Y757036D02*
Y758036D01*
X796674Y738810D02*
X797674D01*
X797175Y738310D02*
Y739310D01*
X818864Y760053D02*
X819864D01*
X819364Y759553D02*
Y760553D01*
X793846Y811488D02*
X794846D01*
X794346Y810988D02*
Y811988D01*
X816994Y816280D02*
X817995D01*
X817495Y815780D02*
Y816780D01*
X870709Y896638D02*
X871709D01*
X871209Y896138D02*
Y897138D01*
X893580Y896620D02*
X894580D01*
X894080Y896120D02*
Y897120D01*
X924060Y834390D02*
X925060D01*
X924560Y833890D02*
Y834890D01*
X925330Y839470D02*
X926330D01*
X925830Y838970D02*
Y839970D01*
X910090Y829310D02*
X911090D01*
X910590Y828810D02*
Y829810D01*
X896165Y893810D02*
X897165D01*
X896665Y893310D02*
Y894310D01*
X898993Y896638D02*
X899993D01*
X899493Y896138D02*
Y897138D01*
X876366Y890981D02*
X877366D01*
X876866Y890481D02*
Y891481D01*
X882022Y907952D02*
X883023D01*
X882523Y907452D02*
Y908452D01*
X890450Y916089D02*
X891450D01*
X890949Y915589D02*
Y916589D01*
X882022Y913609D02*
X883023D01*
X882523Y913109D02*
Y914109D01*
X1070166Y579064D02*
X1071166D01*
X1070666Y578564D02*
Y579564D01*
X1077730Y741680D02*
X1078730D01*
X1078230Y741180D02*
Y742180D01*
X827540Y568960D02*
X828540D01*
X828040Y568460D02*
Y569460D01*
X977400Y410210D02*
X978400D01*
X977900Y409710D02*
Y410710D01*
M02*
