G04 Layer_Physical_Order=3*
G04 Layer_Color=16737945*
%FSLAX44Y44*%
%MOMM*%
G71*
G01*
G75*
%ADD88C,0.1000*%
%ADD89C,4.5000*%
%ADD90C,0.1270*%
%ADD91C,0.2540*%
%ADD96C,0.1250*%
%ADD99C,0.2000*%
G36*
X989247Y1028639D02*
X1008516Y1026988D01*
X1027668Y1024300D01*
X1046647Y1020582D01*
X1065397Y1015844D01*
X1083864Y1010101D01*
X1101994Y1003370D01*
X1119734Y995669D01*
X1137034Y987022D01*
X1153840Y977454D01*
X1170106Y966992D01*
X1185783Y955667D01*
X1200826Y943513D01*
X1215191Y930564D01*
X1228836Y916859D01*
X1241721Y902437D01*
X1253808Y887340D01*
X1265063Y871613D01*
X1275453Y855301D01*
X1284946Y838452D01*
X1293516Y821115D01*
X1301138Y803341D01*
X1307790Y785181D01*
X1313451Y766688D01*
X1318105Y747918D01*
X1321739Y728922D01*
X1324343Y709759D01*
X1325908Y690482D01*
X1326430Y671150D01*
X1325923Y652092D01*
X1324402Y633086D01*
X1321871Y614189D01*
X1318339Y595454D01*
X1313814Y576933D01*
X1308309Y558679D01*
X1301842Y540744D01*
X1294429Y523179D01*
X1286091Y506033D01*
X1276853Y489355D01*
X1266740Y473192D01*
X1255781Y457591D01*
X1244008Y442595D01*
X1231453Y428247D01*
X1218152Y414587D01*
X1204143Y401654D01*
X1189466Y389486D01*
X1174161Y378116D01*
X1158275Y367577D01*
X1141847Y357897D01*
X1124930Y349106D01*
X1107569Y341228D01*
X1089811Y334285D01*
X1071711Y328297D01*
X1053316Y323281D01*
X1034682Y319251D01*
X1015859Y316218D01*
X996902Y314191D01*
X977863Y313177D01*
X958797D01*
X939758Y314191D01*
X920801Y316218D01*
X901978Y319251D01*
X883344Y323281D01*
X864949Y328297D01*
X846849Y334285D01*
X829092Y341228D01*
X811730Y349106D01*
X794813Y357897D01*
X778386Y367576D01*
X762499Y378116D01*
X747194Y389486D01*
X732517Y401654D01*
X718508Y414586D01*
X705207Y428247D01*
X692652Y442595D01*
X680879Y457591D01*
X669920Y473192D01*
X659807Y489355D01*
X650569Y506033D01*
X642231Y523179D01*
X634818Y540744D01*
X628351Y558679D01*
X622846Y576933D01*
X618321Y595454D01*
X614789Y614189D01*
X612258Y633087D01*
X610737Y652091D01*
X610230Y671150D01*
X610744Y690338D01*
X612286Y709473D01*
X614851Y728495D01*
X618432Y747354D01*
X623018Y765993D01*
X628596Y784361D01*
X635150Y802402D01*
X642662Y820066D01*
X651109Y837303D01*
X660468Y854063D01*
X670284Y869619D01*
X670691Y869891D01*
X670724Y869940D01*
X671001Y870129D01*
X674526Y875510D01*
X685979Y891093D01*
X698258Y906036D01*
X711324Y920293D01*
X725142Y933824D01*
X739670Y946589D01*
X754866Y958552D01*
X769290Y968695D01*
X769439Y968929D01*
X785542Y979085D01*
X802433Y988505D01*
X819808Y996998D01*
X828457Y1000662D01*
X838330Y1004799D01*
X851597Y1009592D01*
X856133Y1011210D01*
X874322Y1016691D01*
X893114Y1021262D01*
X912124Y1024812D01*
X931299Y1027331D01*
X950583Y1028810D01*
X969917Y1029247D01*
X989247Y1028639D01*
D02*
G37*
%LPC*%
G36*
X1202711Y704032D02*
X1201826Y703856D01*
X1201075Y703354D01*
X1200573Y702603D01*
X1200397Y701717D01*
X1200573Y700832D01*
X1201075Y700081D01*
X1201826Y699579D01*
X1202711Y699403D01*
X1203597Y699579D01*
X1204348Y700081D01*
X1204850Y700832D01*
X1205026Y701717D01*
X1204850Y702603D01*
X1204348Y703354D01*
X1203597Y703856D01*
X1202711Y704032D01*
D02*
G37*
G36*
X1050290Y712244D02*
X1049404Y712068D01*
X1048653Y711567D01*
X1048152Y710816D01*
X1047975Y709930D01*
X1048152Y709044D01*
X1048187Y708991D01*
X1048023Y708281D01*
X1047529Y708061D01*
X1046649Y707888D01*
X1046096Y708258D01*
X1045210Y708435D01*
X1044324Y708258D01*
X1043573Y707757D01*
X1043072Y707006D01*
X1042896Y706120D01*
X1043072Y705234D01*
X1043268Y704941D01*
Y681990D01*
X1043416Y681247D01*
X1043837Y680617D01*
X1044273Y680180D01*
X1044342Y679834D01*
X1044843Y679083D01*
X1045594Y678582D01*
X1046480Y678406D01*
X1047366Y678582D01*
X1048117Y679083D01*
X1048163Y679154D01*
X1049404Y679852D01*
X1050290Y679676D01*
X1051176Y679852D01*
X1051927Y680353D01*
X1052428Y681104D01*
X1052605Y681990D01*
X1052428Y682876D01*
X1052232Y683169D01*
Y708751D01*
X1052428Y709044D01*
X1052605Y709930D01*
X1052428Y710816D01*
X1051927Y711567D01*
X1051176Y712068D01*
X1050290Y712244D01*
D02*
G37*
G36*
X991870Y717325D02*
X990984Y717148D01*
X990233Y716647D01*
X989732Y715896D01*
X989556Y715010D01*
X989732Y714124D01*
X990233Y713373D01*
X990984Y712872D01*
X991870Y712695D01*
X992756Y712872D01*
X993507Y713373D01*
X994008Y714124D01*
X994184Y715010D01*
X994008Y715896D01*
X993507Y716647D01*
X992756Y717148D01*
X991870Y717325D01*
D02*
G37*
G36*
X737870Y664260D02*
X684530D01*
X683539Y664063D01*
X682699Y663501D01*
X682137Y662661D01*
X681940Y661670D01*
X682137Y660679D01*
X682699Y659839D01*
X682753Y659802D01*
X682368Y658532D01*
X679099D01*
X678806Y658728D01*
X677920Y658904D01*
X677035Y658728D01*
X676284Y658227D01*
X675782Y657476D01*
X675606Y656590D01*
X675782Y655704D01*
X676284Y654953D01*
X677035Y654452D01*
X677920Y654276D01*
X678806Y654452D01*
X679099Y654648D01*
X733255D01*
X737767Y650137D01*
X738397Y649715D01*
X739140Y649568D01*
X739140Y649568D01*
X743041D01*
X743334Y649372D01*
X744220Y649195D01*
X745106Y649372D01*
X745857Y649873D01*
X746358Y650624D01*
X746535Y651510D01*
X746358Y652396D01*
X745857Y653147D01*
X745106Y653648D01*
X744220Y653824D01*
X743334Y653648D01*
X743041Y653452D01*
X739945D01*
X736097Y657300D01*
X736566Y658627D01*
X737186Y658692D01*
X739849Y656029D01*
X740689Y655467D01*
X741680Y655270D01*
X748030D01*
X749021Y655467D01*
X749861Y656029D01*
X750423Y656869D01*
X750620Y657860D01*
X750423Y658851D01*
X749861Y659691D01*
X749021Y660253D01*
X748030Y660450D01*
X742753D01*
X739701Y663501D01*
X738861Y664063D01*
X737870Y664260D01*
D02*
G37*
G36*
X999490Y676684D02*
X998604Y676508D01*
X997853Y676007D01*
X997352Y675256D01*
X997176Y674370D01*
X997352Y673484D01*
X997853Y672733D01*
X998604Y672232D01*
X999490Y672056D01*
X1000376Y672232D01*
X1001127Y672733D01*
X1001628Y673484D01*
X1001805Y674370D01*
X1001628Y675256D01*
X1001127Y676007D01*
X1000376Y676508D01*
X999490Y676684D01*
D02*
G37*
G36*
X778510Y740184D02*
X777624Y740008D01*
X776873Y739507D01*
X776372Y738756D01*
X776196Y737870D01*
X776372Y736984D01*
X776705Y736485D01*
Y690358D01*
X773952Y687605D01*
X720090D01*
X719399Y687467D01*
X718814Y687076D01*
X712173Y680435D01*
X711584Y680318D01*
X710833Y679817D01*
X710332Y679066D01*
X710155Y678180D01*
X710332Y677294D01*
X710833Y676543D01*
X711584Y676042D01*
X712470Y675865D01*
X713356Y676042D01*
X714107Y676543D01*
X714608Y677294D01*
X714725Y677883D01*
X720837Y683995D01*
X774700D01*
X775391Y684133D01*
X775976Y684524D01*
X779786Y688334D01*
X780177Y688919D01*
X780315Y689610D01*
Y736485D01*
X780648Y736984D01*
X780825Y737870D01*
X780648Y738756D01*
X780147Y739507D01*
X779396Y740008D01*
X778510Y740184D01*
D02*
G37*
G36*
X1139190Y792254D02*
X1138304Y792078D01*
X1137553Y791577D01*
X1137052Y790826D01*
X1136962Y790372D01*
X1136508Y790282D01*
X1135757Y789781D01*
X1135256Y789030D01*
X1135165Y788576D01*
X1134712Y788486D01*
X1133961Y787984D01*
X1133460Y787234D01*
X1133369Y786780D01*
X1132916Y786690D01*
X1132165Y786188D01*
X1131664Y785437D01*
X1131573Y784984D01*
X1131120Y784894D01*
X1130369Y784392D01*
X1129867Y783642D01*
X1129777Y783188D01*
X1129324Y783098D01*
X1128573Y782596D01*
X1128072Y781845D01*
X1127981Y781392D01*
X1127528Y781302D01*
X1126777Y780800D01*
X1126275Y780049D01*
X1126185Y779596D01*
X1125732Y779506D01*
X1124981Y779004D01*
X1124479Y778253D01*
X1124389Y777800D01*
X1123936Y777710D01*
X1123185Y777208D01*
X1122683Y776457D01*
X1122593Y776004D01*
X1122140Y775914D01*
X1121389Y775412D01*
X1120887Y774661D01*
X1120797Y774208D01*
X1120344Y774118D01*
X1119593Y773616D01*
X1119091Y772865D01*
X1119001Y772412D01*
X1118548Y772322D01*
X1117797Y771820D01*
X1117295Y771069D01*
X1117205Y770616D01*
X1116752Y770526D01*
X1116001Y770024D01*
X1115499Y769273D01*
X1115409Y768820D01*
X1114956Y768730D01*
X1114205Y768228D01*
X1113703Y767477D01*
X1113613Y767024D01*
X1113160Y766934D01*
X1112409Y766432D01*
X1111907Y765681D01*
X1111817Y765228D01*
X1111364Y765137D01*
X1110613Y764636D01*
X1110111Y763885D01*
X1110021Y763432D01*
X1109567Y763342D01*
X1108817Y762840D01*
X1108315Y762089D01*
X1108225Y761636D01*
X1107771Y761545D01*
X1107020Y761044D01*
X1106519Y760293D01*
X1106429Y759840D01*
X1105975Y759749D01*
X1105225Y759248D01*
X1104723Y758497D01*
X1104633Y758044D01*
X1104179Y757953D01*
X1103428Y757452D01*
X1102927Y756701D01*
X1102837Y756247D01*
X1102383Y756157D01*
X1101632Y755656D01*
X1101131Y754905D01*
X1101040Y754451D01*
X1100587Y754361D01*
X1099836Y753859D01*
X1099335Y753109D01*
X1099245Y752655D01*
X1098791Y752565D01*
X1098040Y752063D01*
X1097539Y751313D01*
X1097448Y750859D01*
X1096995Y750769D01*
X1096244Y750267D01*
X1095742Y749517D01*
X1095566Y748631D01*
X1095742Y747745D01*
X1096244Y746994D01*
X1096995Y746492D01*
X1097448Y746402D01*
X1097539Y745949D01*
X1098040Y745198D01*
X1098791Y744697D01*
X1099245Y744606D01*
X1099335Y744153D01*
X1099836Y743402D01*
X1100587Y742900D01*
X1101040Y742810D01*
X1101131Y742357D01*
X1101632Y741606D01*
X1102383Y741104D01*
X1102837Y741014D01*
X1102927Y740561D01*
X1103428Y739810D01*
X1104179Y739308D01*
X1104633Y739218D01*
X1104723Y738765D01*
X1105225Y738014D01*
X1105975Y737512D01*
X1106429Y737422D01*
X1106519Y736969D01*
X1107020Y736218D01*
X1107771Y735716D01*
X1108225Y735626D01*
X1108315Y735173D01*
X1108817Y734422D01*
X1109567Y733920D01*
X1110021Y733830D01*
X1110111Y733377D01*
X1110613Y732626D01*
X1111364Y732124D01*
X1111817Y732034D01*
X1111907Y731581D01*
X1112409Y730830D01*
X1113160Y730328D01*
X1113613Y730238D01*
X1113703Y729785D01*
X1114205Y729034D01*
X1114956Y728532D01*
X1115409Y728442D01*
X1115499Y727989D01*
X1116001Y727238D01*
X1116752Y726736D01*
X1117205Y726646D01*
X1117295Y726192D01*
X1117797Y725442D01*
X1118548Y724940D01*
X1119001Y724850D01*
X1119091Y724397D01*
X1119593Y723646D01*
X1120344Y723144D01*
X1121229Y722968D01*
X1122115Y723144D01*
X1122866Y723646D01*
X1123368Y724397D01*
X1123458Y724850D01*
X1123911Y724940D01*
X1124662Y725442D01*
X1125164Y726192D01*
X1125254Y726646D01*
X1125707Y726736D01*
X1126458Y727238D01*
X1126960Y727989D01*
X1127050Y728442D01*
X1127503Y728532D01*
X1128254Y729034D01*
X1128756Y729785D01*
X1128846Y730238D01*
X1129299Y730328D01*
X1130050Y730830D01*
X1130552Y731581D01*
X1130642Y732034D01*
X1131096Y732124D01*
X1131846Y732626D01*
X1132348Y733377D01*
X1132438Y733830D01*
X1132891Y733920D01*
X1133642Y734422D01*
X1134144Y735173D01*
X1134234Y735626D01*
X1134688Y735716D01*
X1135438Y736218D01*
X1135940Y736969D01*
X1136030Y737422D01*
X1136484Y737512D01*
X1137234Y738014D01*
X1137736Y738765D01*
X1137826Y739218D01*
X1138280Y739308D01*
X1139031Y739810D01*
X1139532Y740561D01*
X1139622Y741014D01*
X1140076Y741104D01*
X1140827Y741606D01*
X1141328Y742357D01*
X1141419Y742810D01*
X1141872Y742900D01*
X1142623Y743402D01*
X1143124Y744153D01*
X1143214Y744606D01*
X1143668Y744697D01*
X1144419Y745198D01*
X1144920Y745949D01*
X1145011Y746402D01*
X1145464Y746492D01*
X1146215Y746994D01*
X1146717Y747745D01*
X1146807Y748198D01*
X1147260Y748289D01*
X1148011Y748790D01*
X1148512Y749541D01*
X1148603Y749995D01*
X1149056Y750085D01*
X1149807Y750586D01*
X1150309Y751337D01*
X1150399Y751790D01*
X1150852Y751881D01*
X1151603Y752382D01*
X1152105Y753133D01*
X1152195Y753587D01*
X1152648Y753677D01*
X1153399Y754178D01*
X1153901Y754929D01*
X1153991Y755383D01*
X1154444Y755473D01*
X1155195Y755975D01*
X1155697Y756725D01*
X1155787Y757179D01*
X1156240Y757269D01*
X1156991Y757770D01*
X1157493Y758521D01*
X1157583Y758975D01*
X1158036Y759065D01*
X1158787Y759567D01*
X1159289Y760318D01*
X1159379Y760771D01*
X1159832Y760861D01*
X1160583Y761363D01*
X1161085Y762113D01*
X1161175Y762567D01*
X1161628Y762657D01*
X1162379Y763159D01*
X1162881Y763910D01*
X1162971Y764363D01*
X1163424Y764453D01*
X1164175Y764955D01*
X1164677Y765706D01*
X1164853Y766591D01*
X1164677Y767477D01*
X1164175Y768228D01*
X1163424Y768730D01*
X1162971Y768820D01*
X1162881Y769273D01*
X1162379Y770024D01*
X1161628Y770526D01*
X1161175Y770616D01*
X1161085Y771069D01*
X1160583Y771820D01*
X1159832Y772322D01*
X1159379Y772412D01*
X1159289Y772865D01*
X1158787Y773616D01*
X1158036Y774118D01*
X1157583Y774208D01*
X1157493Y774661D01*
X1156991Y775412D01*
X1156240Y775914D01*
X1155787Y776004D01*
X1155697Y776457D01*
X1155195Y777208D01*
X1154444Y777710D01*
X1153991Y777800D01*
X1153901Y778253D01*
X1153399Y779004D01*
X1152648Y779506D01*
X1152195Y779596D01*
X1152105Y780049D01*
X1151603Y780800D01*
X1150852Y781302D01*
X1150399Y781392D01*
X1150309Y781845D01*
X1149807Y782596D01*
X1149056Y783098D01*
X1148603Y783188D01*
X1148512Y783642D01*
X1148011Y784392D01*
X1147260Y784894D01*
X1146807Y784984D01*
X1146717Y785437D01*
X1146215Y786188D01*
X1145464Y786690D01*
X1145011Y786780D01*
X1144920Y787234D01*
X1144419Y787984D01*
X1143668Y788486D01*
X1143214Y788576D01*
X1143124Y789030D01*
X1142623Y789781D01*
X1141872Y790282D01*
X1141419Y790372D01*
X1141328Y790826D01*
X1140827Y791577D01*
X1140076Y792078D01*
X1139190Y792254D01*
D02*
G37*
G36*
X696466Y772440D02*
X695580Y772264D01*
X695080Y771930D01*
X691385D01*
X690695Y771793D01*
X690109Y771402D01*
X679444Y760736D01*
X679053Y760151D01*
X678915Y759460D01*
Y757027D01*
X679053Y756337D01*
X679444Y755751D01*
X679842Y755353D01*
X679959Y754764D01*
X680461Y754013D01*
X681212Y753512D01*
X681667Y753421D01*
X687076Y748012D01*
X686586Y746706D01*
X686116Y746613D01*
X685276Y746051D01*
X684894Y746014D01*
X677237Y753671D01*
X676397Y754233D01*
X675406Y754430D01*
X664210D01*
X663219Y754233D01*
X662379Y753671D01*
X661817Y752831D01*
X661620Y751840D01*
X661817Y750849D01*
X662379Y750009D01*
X663219Y749447D01*
X664210Y749250D01*
X674333D01*
X680707Y742876D01*
Y742642D01*
X680904Y741651D01*
X681466Y740811D01*
X682265Y740011D01*
X682283Y739800D01*
X681606Y738738D01*
X680720Y738914D01*
X679834Y738738D01*
X679450Y738482D01*
X679066Y738738D01*
X678180Y738914D01*
X677294Y738738D01*
X676910Y738482D01*
X676526Y738738D01*
X675640Y738914D01*
X674755Y738738D01*
X674004Y738236D01*
X673502Y737486D01*
X673326Y736600D01*
X673502Y735714D01*
X673759Y735330D01*
X673502Y734946D01*
X673326Y734060D01*
X673502Y733174D01*
X673758Y732790D01*
X673502Y732406D01*
X673326Y731520D01*
X673502Y730634D01*
X673759Y730250D01*
X673502Y729866D01*
X673326Y728980D01*
X673502Y728094D01*
X673758Y727710D01*
X673502Y727326D01*
X673326Y726440D01*
X673502Y725554D01*
X673759Y725170D01*
X673502Y724785D01*
X673326Y723900D01*
X673502Y723014D01*
X673758Y722630D01*
X673502Y722246D01*
X673326Y721360D01*
X673502Y720474D01*
X673758Y720090D01*
X673501Y719706D01*
X673325Y718820D01*
X673501Y717934D01*
X673758Y717550D01*
X673502Y717165D01*
X673326Y716280D01*
X673502Y715394D01*
X673758Y715010D01*
X673501Y714626D01*
X673325Y713740D01*
X673501Y712854D01*
X673758Y712470D01*
X673502Y712086D01*
X673326Y711200D01*
X673502Y710314D01*
X673758Y709930D01*
X673502Y709546D01*
X673325Y708660D01*
X673502Y707774D01*
X673758Y707390D01*
X673502Y707006D01*
X673326Y706120D01*
X673502Y705234D01*
X673758Y704850D01*
X673502Y704466D01*
X673326Y703580D01*
X673502Y702694D01*
X674004Y701944D01*
X674754Y701442D01*
X675640Y701266D01*
X676526Y701442D01*
X676910Y701699D01*
X677294Y701442D01*
X678180Y701265D01*
X679066Y701442D01*
X679450Y701699D01*
X679834Y701442D01*
X680720Y701265D01*
X681606Y701442D01*
X681990Y701699D01*
X682374Y701442D01*
X683260Y701266D01*
X684146Y701442D01*
X684530Y701699D01*
X684914Y701442D01*
X685800Y701266D01*
X686685Y701442D01*
X687436Y701944D01*
X687938Y702694D01*
X688114Y703580D01*
X687938Y704466D01*
X687682Y704850D01*
X687938Y705234D01*
X688114Y706120D01*
X687938Y707006D01*
X687682Y707390D01*
X687938Y707774D01*
X688114Y708660D01*
X687938Y709546D01*
X687682Y709930D01*
X687938Y710314D01*
X688114Y711200D01*
X687938Y712086D01*
X687682Y712470D01*
X687939Y712854D01*
X688115Y713740D01*
X687939Y714625D01*
X687682Y715010D01*
X687938Y715394D01*
X688114Y716280D01*
X687938Y717165D01*
X687681Y717550D01*
X687939Y717934D01*
X688115Y718820D01*
X687939Y719706D01*
X687682Y720090D01*
X687938Y720474D01*
X688114Y721360D01*
X687938Y722246D01*
X687681Y722630D01*
X687939Y723014D01*
X688115Y723900D01*
X687939Y724786D01*
X687682Y725170D01*
X687938Y725554D01*
X688114Y726440D01*
X687938Y727326D01*
X687682Y727710D01*
X687939Y728094D01*
X688115Y728980D01*
X687939Y729866D01*
X687682Y730250D01*
X687938Y730634D01*
X688114Y731520D01*
X687938Y732406D01*
X687682Y732790D01*
X687938Y733174D01*
X688114Y734060D01*
X688033Y734469D01*
X688817Y735457D01*
X689010Y735569D01*
X689106Y735550D01*
X690499D01*
X707993Y718056D01*
Y710310D01*
X708190Y709319D01*
X708751Y708478D01*
X720050Y697180D01*
X720237Y696239D01*
X720799Y695399D01*
X721639Y694837D01*
X722630Y694640D01*
X723621Y694837D01*
X724461Y695399D01*
X725023Y696239D01*
X725220Y697230D01*
X725220Y698262D01*
X726161Y698718D01*
X727001Y699279D01*
X727563Y700119D01*
X727760Y701111D01*
Y702310D01*
X727563Y703301D01*
X727001Y704141D01*
X726161Y704703D01*
X725170Y704900D01*
X725064Y704879D01*
X716982Y712961D01*
Y720707D01*
X716785Y721698D01*
X716224Y722539D01*
X713468Y725294D01*
X713466Y725674D01*
X713767Y726792D01*
X714301Y727149D01*
X714863Y727989D01*
X715060Y728980D01*
X714863Y729971D01*
X714301Y730811D01*
X706725Y738388D01*
Y759460D01*
X706528Y760451D01*
X705966Y761291D01*
X705126Y761853D01*
X704135Y762050D01*
X703144Y761853D01*
X702304Y761291D01*
X702286Y761265D01*
X699885D01*
X699386Y761598D01*
X698500Y761775D01*
X697614Y761598D01*
X696863Y761097D01*
X696362Y760346D01*
X696186Y759460D01*
X696273Y759023D01*
X695076Y758527D01*
X695057Y758557D01*
X694306Y759058D01*
X693420Y759234D01*
X692534Y759058D01*
X691783Y758557D01*
X691282Y757806D01*
X691105Y756920D01*
X691282Y756034D01*
X691783Y755283D01*
X692534Y754782D01*
X693123Y754665D01*
X695425Y752363D01*
Y749415D01*
X695092Y748916D01*
X694915Y748030D01*
X695003Y747593D01*
X693806Y747097D01*
X693787Y747127D01*
X693036Y747628D01*
X692447Y747745D01*
X684380Y755813D01*
X684236Y756536D01*
X683734Y757287D01*
X683127Y757692D01*
X682943Y758506D01*
X682910Y759098D01*
X692133Y768321D01*
X695080D01*
X695580Y767987D01*
X696466Y767811D01*
X697351Y767987D01*
X698102Y768489D01*
X698604Y769240D01*
X698780Y770126D01*
X698604Y771011D01*
X698102Y771762D01*
X697351Y772264D01*
X696466Y772440D01*
D02*
G37*
G36*
X1201420Y777014D02*
X1200534Y776838D01*
X1199783Y776337D01*
X1199282Y775586D01*
X1199106Y774700D01*
X1199282Y773814D01*
X1199783Y773063D01*
X1200534Y772562D01*
X1201420Y772385D01*
X1202306Y772562D01*
X1203057Y773063D01*
X1203558Y773814D01*
X1203735Y774700D01*
X1203558Y775586D01*
X1203057Y776337D01*
X1202306Y776838D01*
X1201420Y777014D01*
D02*
G37*
G36*
X969026Y852613D02*
X963884Y852208D01*
X958868Y851004D01*
X954103Y849030D01*
X949705Y846335D01*
X945782Y842985D01*
X942432Y839063D01*
X939737Y834665D01*
X937764Y829900D01*
X936559Y824884D01*
X936155Y819742D01*
X936559Y814600D01*
X937764Y809584D01*
X939737Y804818D01*
X942432Y800420D01*
X945782Y796498D01*
X949705Y793148D01*
X954103Y790453D01*
X958868Y788479D01*
X963884Y787275D01*
X969026Y786870D01*
X974168Y787275D01*
X979184Y788479D01*
X983949Y790453D01*
X988347Y793148D01*
X992270Y796498D01*
X995619Y800420D01*
X998315Y804818D01*
X1000288Y809584D01*
X1001493Y814600D01*
X1001897Y819742D01*
X1001493Y824884D01*
X1000288Y829900D01*
X998315Y834665D01*
X995619Y839063D01*
X992270Y842985D01*
X988347Y846335D01*
X983949Y849030D01*
X979184Y851004D01*
X974168Y852208D01*
X969026Y852613D01*
D02*
G37*
G36*
X1187495Y753904D02*
X1186609Y753728D01*
X1185859Y753227D01*
X1185357Y752476D01*
X1185181Y751590D01*
X1185357Y750704D01*
X1185859Y749954D01*
X1186609Y749452D01*
X1187495Y749276D01*
X1188381Y749452D01*
X1189132Y749954D01*
X1189633Y750704D01*
X1189809Y751590D01*
X1189633Y752476D01*
X1189132Y753227D01*
X1188381Y753728D01*
X1187495Y753904D01*
D02*
G37*
G36*
X821690Y782094D02*
X820804Y781918D01*
X820053Y781417D01*
X819552Y780666D01*
X819376Y779780D01*
X819552Y778894D01*
X820053Y778143D01*
X820804Y777642D01*
X821393Y777525D01*
X839755Y759163D01*
X839872Y758574D01*
X840373Y757823D01*
X841124Y757322D01*
X842010Y757145D01*
X842896Y757322D01*
X843647Y757823D01*
X844148Y758574D01*
X844324Y759460D01*
X844148Y760346D01*
X843647Y761097D01*
X842896Y761598D01*
X842307Y761715D01*
X823945Y780077D01*
X823828Y780666D01*
X823327Y781417D01*
X822576Y781918D01*
X821690Y782094D01*
D02*
G37*
G36*
X662940Y779555D02*
X662054Y779379D01*
X661303Y778877D01*
X660801Y778126D01*
X660625Y777240D01*
X660801Y776355D01*
X661059Y775970D01*
X660802Y775585D01*
X660626Y774700D01*
X660802Y773814D01*
X661058Y773430D01*
X660801Y773046D01*
X660625Y772160D01*
X660801Y771274D01*
X661058Y770890D01*
X660802Y770506D01*
X660626Y769620D01*
X660802Y768734D01*
X661058Y768350D01*
X660801Y767966D01*
X660625Y767080D01*
X660801Y766194D01*
X661058Y765810D01*
X660802Y765426D01*
X660626Y764540D01*
X660802Y763654D01*
X661303Y762903D01*
X662054Y762402D01*
X662940Y762225D01*
X663826Y762402D01*
X664210Y762658D01*
X664594Y762402D01*
X665480Y762225D01*
X666366Y762402D01*
X666750Y762658D01*
X667134Y762402D01*
X668080Y762060D01*
X668422Y761114D01*
X668923Y760363D01*
X669674Y759862D01*
X670560Y759686D01*
X671446Y759862D01*
X671830Y760118D01*
X672214Y759862D01*
X673100Y759686D01*
X673986Y759862D01*
X674736Y760363D01*
X675238Y761114D01*
X675414Y762000D01*
X675238Y762886D01*
X674981Y763270D01*
X675238Y763654D01*
X675415Y764540D01*
X675238Y765426D01*
X674982Y765810D01*
X675238Y766194D01*
X675414Y767080D01*
X675238Y767966D01*
X674982Y768350D01*
X675238Y768734D01*
X675415Y769620D01*
X675238Y770506D01*
X674982Y770890D01*
X675238Y771274D01*
X675415Y772160D01*
X675238Y773046D01*
X674982Y773430D01*
X675238Y773814D01*
X675414Y774700D01*
X675238Y775585D01*
X674981Y775970D01*
X675238Y776355D01*
X675415Y777240D01*
X675238Y778126D01*
X674737Y778877D01*
X673986Y779379D01*
X673100Y779555D01*
X672215Y779379D01*
X671830Y779121D01*
X671446Y779378D01*
X670560Y779554D01*
X669674Y779378D01*
X669290Y779121D01*
X668906Y779378D01*
X668020Y779555D01*
X667134Y779378D01*
X666750Y779121D01*
X666366Y779378D01*
X665480Y779555D01*
X664594Y779378D01*
X664210Y779121D01*
X663825Y779379D01*
X662940Y779555D01*
D02*
G37*
G36*
X969026Y552613D02*
X963884Y552208D01*
X958868Y551004D01*
X954103Y549030D01*
X949705Y546335D01*
X945782Y542985D01*
X942432Y539063D01*
X939737Y534665D01*
X937764Y529899D01*
X936559Y524884D01*
X936155Y519742D01*
X936559Y514600D01*
X937764Y509584D01*
X939737Y504818D01*
X942432Y500420D01*
X945782Y496498D01*
X949705Y493148D01*
X954103Y490453D01*
X958868Y488479D01*
X963884Y487275D01*
X969026Y486870D01*
X974168Y487275D01*
X979184Y488479D01*
X983949Y490453D01*
X988347Y493148D01*
X992270Y496498D01*
X995619Y500420D01*
X998315Y504818D01*
X1000288Y509584D01*
X1001493Y514600D01*
X1001897Y519742D01*
X1001493Y524884D01*
X1000288Y529899D01*
X998315Y534665D01*
X995619Y539063D01*
X992270Y542985D01*
X988347Y546335D01*
X983949Y549030D01*
X979184Y551004D01*
X974168Y552208D01*
X969026Y552613D01*
D02*
G37*
G36*
X875030Y562384D02*
X874144Y562208D01*
X873393Y561707D01*
X872892Y560956D01*
X872802Y560502D01*
X872348Y560412D01*
X871597Y559911D01*
X871096Y559160D01*
X871005Y558706D01*
X870552Y558616D01*
X869801Y558115D01*
X869300Y557364D01*
X869209Y556910D01*
X868756Y556820D01*
X868005Y556318D01*
X867504Y555568D01*
X867413Y555114D01*
X866960Y555024D01*
X866209Y554522D01*
X865707Y553772D01*
X865617Y553318D01*
X865164Y553228D01*
X864413Y552726D01*
X863912Y551976D01*
X863821Y551522D01*
X863368Y551432D01*
X862617Y550930D01*
X862115Y550179D01*
X862025Y549726D01*
X861572Y549636D01*
X860821Y549134D01*
X860319Y548383D01*
X860229Y547930D01*
X859776Y547840D01*
X859025Y547338D01*
X858523Y546587D01*
X858433Y546134D01*
X857980Y546044D01*
X857229Y545542D01*
X856727Y544791D01*
X856637Y544338D01*
X856184Y544248D01*
X855433Y543746D01*
X854931Y542995D01*
X854841Y542542D01*
X854388Y542452D01*
X853637Y541950D01*
X853135Y541199D01*
X853045Y540746D01*
X852592Y540656D01*
X851841Y540154D01*
X851339Y539403D01*
X851249Y538950D01*
X850796Y538860D01*
X850045Y538358D01*
X849543Y537607D01*
X849453Y537154D01*
X849000Y537064D01*
X848249Y536562D01*
X847747Y535811D01*
X847657Y535358D01*
X847204Y535267D01*
X846453Y534766D01*
X845951Y534015D01*
X845861Y533562D01*
X845407Y533471D01*
X844657Y532970D01*
X844155Y532219D01*
X844065Y531766D01*
X843611Y531675D01*
X842860Y531174D01*
X842359Y530423D01*
X842269Y529970D01*
X841815Y529879D01*
X841065Y529378D01*
X840563Y528627D01*
X840473Y528173D01*
X840019Y528083D01*
X839268Y527582D01*
X838767Y526831D01*
X838677Y526377D01*
X838223Y526287D01*
X837472Y525785D01*
X836971Y525035D01*
X836880Y524581D01*
X836427Y524491D01*
X835676Y523989D01*
X835175Y523239D01*
X835085Y522785D01*
X834631Y522695D01*
X833880Y522193D01*
X833379Y521443D01*
X833288Y520989D01*
X832835Y520899D01*
X832084Y520397D01*
X831582Y519646D01*
X831406Y518761D01*
X831582Y517875D01*
X832084Y517124D01*
X832835Y516623D01*
X833288Y516532D01*
X833379Y516079D01*
X833880Y515328D01*
X834631Y514827D01*
X835085Y514736D01*
X835175Y514283D01*
X835676Y513532D01*
X836427Y513030D01*
X836880Y512940D01*
X836971Y512487D01*
X837472Y511736D01*
X838223Y511234D01*
X838677Y511144D01*
X838767Y510691D01*
X839268Y509940D01*
X840019Y509438D01*
X840473Y509348D01*
X840563Y508895D01*
X841065Y508144D01*
X841815Y507642D01*
X842269Y507552D01*
X842359Y507099D01*
X842860Y506348D01*
X843611Y505846D01*
X844065Y505756D01*
X844155Y505303D01*
X844657Y504552D01*
X845407Y504050D01*
X845861Y503960D01*
X845951Y503507D01*
X846453Y502756D01*
X847204Y502254D01*
X847657Y502164D01*
X847747Y501711D01*
X848249Y500960D01*
X849000Y500458D01*
X849453Y500368D01*
X849543Y499915D01*
X850045Y499164D01*
X850796Y498662D01*
X851249Y498572D01*
X851339Y498119D01*
X851841Y497368D01*
X852592Y496866D01*
X853045Y496776D01*
X853135Y496323D01*
X853637Y495572D01*
X854388Y495070D01*
X854841Y494980D01*
X854931Y494526D01*
X855433Y493776D01*
X856184Y493274D01*
X857069Y493098D01*
X857955Y493274D01*
X858706Y493776D01*
X859208Y494526D01*
X859298Y494980D01*
X859751Y495070D01*
X860502Y495572D01*
X861004Y496323D01*
X861094Y496776D01*
X861547Y496866D01*
X862298Y497368D01*
X862800Y498119D01*
X862890Y498572D01*
X863343Y498662D01*
X864094Y499164D01*
X864596Y499915D01*
X864686Y500368D01*
X865139Y500458D01*
X865890Y500960D01*
X866392Y501711D01*
X866482Y502164D01*
X866936Y502254D01*
X867686Y502756D01*
X868188Y503507D01*
X868278Y503960D01*
X868732Y504050D01*
X869482Y504552D01*
X869984Y505303D01*
X870074Y505756D01*
X870527Y505846D01*
X871278Y506348D01*
X871780Y507099D01*
X871870Y507552D01*
X872324Y507642D01*
X873074Y508144D01*
X873576Y508895D01*
X873666Y509348D01*
X874120Y509438D01*
X874871Y509940D01*
X875372Y510691D01*
X875462Y511144D01*
X875916Y511234D01*
X876667Y511736D01*
X877168Y512487D01*
X877259Y512940D01*
X877712Y513030D01*
X878463Y513532D01*
X878964Y514283D01*
X879054Y514736D01*
X879508Y514827D01*
X880259Y515328D01*
X880760Y516079D01*
X880851Y516532D01*
X881304Y516623D01*
X882055Y517124D01*
X882557Y517875D01*
X882647Y518328D01*
X883100Y518419D01*
X883851Y518920D01*
X884352Y519671D01*
X884443Y520125D01*
X884896Y520215D01*
X885647Y520716D01*
X886149Y521467D01*
X886239Y521921D01*
X886692Y522011D01*
X887443Y522512D01*
X887945Y523263D01*
X888035Y523717D01*
X888488Y523807D01*
X889239Y524309D01*
X889741Y525059D01*
X889831Y525513D01*
X890284Y525603D01*
X891035Y526105D01*
X891537Y526855D01*
X891627Y527309D01*
X892080Y527399D01*
X892831Y527901D01*
X893333Y528651D01*
X893423Y529105D01*
X893876Y529195D01*
X894627Y529697D01*
X895129Y530448D01*
X895219Y530901D01*
X895672Y530991D01*
X896423Y531493D01*
X896925Y532243D01*
X897015Y532697D01*
X897468Y532787D01*
X898219Y533289D01*
X898721Y534040D01*
X898811Y534493D01*
X899264Y534583D01*
X900015Y535085D01*
X900517Y535836D01*
X900693Y536721D01*
X900517Y537607D01*
X900015Y538358D01*
X899264Y538860D01*
X898811Y538950D01*
X898721Y539403D01*
X898219Y540154D01*
X897468Y540656D01*
X897015Y540746D01*
X896925Y541199D01*
X896423Y541950D01*
X895672Y542452D01*
X895219Y542542D01*
X895129Y542995D01*
X894627Y543746D01*
X893876Y544248D01*
X893423Y544338D01*
X893333Y544791D01*
X892831Y545542D01*
X892080Y546044D01*
X891627Y546134D01*
X891537Y546587D01*
X891035Y547338D01*
X890284Y547840D01*
X889831Y547930D01*
X889741Y548383D01*
X889239Y549134D01*
X888488Y549636D01*
X888035Y549726D01*
X887945Y550179D01*
X887443Y550930D01*
X886692Y551432D01*
X886239Y551522D01*
X886149Y551976D01*
X885647Y552726D01*
X884896Y553228D01*
X884443Y553318D01*
X884352Y553772D01*
X883851Y554522D01*
X883100Y555024D01*
X882647Y555114D01*
X882557Y555568D01*
X882055Y556318D01*
X881304Y556820D01*
X880851Y556910D01*
X880760Y557364D01*
X880259Y558115D01*
X879508Y558616D01*
X879054Y558706D01*
X878964Y559160D01*
X878463Y559911D01*
X877712Y560412D01*
X877259Y560502D01*
X877168Y560956D01*
X876667Y561707D01*
X875916Y562208D01*
X875030Y562384D01*
D02*
G37*
G36*
X711506Y515715D02*
X705692Y515445D01*
X705552Y515380D01*
X705400Y515405D01*
X699726Y514103D01*
X699601Y514013D01*
X699446Y514011D01*
X694096Y511717D01*
X693989Y511607D01*
X693837Y511577D01*
X688982Y508366D01*
X688896Y508238D01*
X688752Y508182D01*
X684548Y504156D01*
X684486Y504015D01*
X684354Y503934D01*
X680936Y499223D01*
X680900Y499073D01*
X680785Y498970D01*
X678261Y493724D01*
X678253Y493570D01*
X678158Y493448D01*
X676611Y487837D01*
X676630Y487684D01*
X676558Y487547D01*
X676037Y481749D01*
X676087Y481590D01*
X676040Y481430D01*
X676750Y474671D01*
X676836Y474513D01*
X676822Y474334D01*
X678922Y467871D01*
X679039Y467734D01*
X679062Y467557D01*
X682461Y461671D01*
X682555Y461600D01*
X682586Y461486D01*
X696145Y444011D01*
X696193Y443983D01*
X696211Y443931D01*
X710839Y427341D01*
X710889Y427317D01*
X710910Y427266D01*
X726550Y411626D01*
X726601Y411605D01*
X726625Y411555D01*
X743215Y396927D01*
X743268Y396909D01*
X743295Y396861D01*
X760770Y383302D01*
X760874Y383274D01*
X760939Y383187D01*
X766142Y380101D01*
X766301Y380078D01*
X766419Y379970D01*
X772103Y377902D01*
X772263Y377909D01*
X772400Y377825D01*
X778369Y376846D01*
X778525Y376883D01*
X778675Y376825D01*
X784722Y376969D01*
X784868Y377034D01*
X785026Y377005D01*
X790942Y378268D01*
X791074Y378358D01*
X791234Y378359D01*
X796814Y380696D01*
X796926Y380810D01*
X797084Y380840D01*
X802133Y384171D01*
X802223Y384303D01*
X802372Y384362D01*
X806717Y388571D01*
X806781Y388718D01*
X806916Y388803D01*
X810406Y393745D01*
X810441Y393901D01*
X810559Y394010D01*
X813072Y399512D01*
X813078Y399672D01*
X813173Y399801D01*
X814624Y405674D01*
X814600Y405832D01*
X814669Y405977D01*
X815006Y412016D01*
X814953Y412168D01*
X814995Y412322D01*
X814207Y418320D01*
X814127Y418459D01*
X814139Y418618D01*
X812253Y424366D01*
X812149Y424487D01*
X812131Y424647D01*
X809213Y429945D01*
X809088Y430046D01*
X809041Y430199D01*
X805191Y434865D01*
X805049Y434940D01*
X804975Y435082D01*
X800327Y438954D01*
X800302Y438961D01*
X800289Y438984D01*
X786261Y449983D01*
X772969Y461785D01*
X760422Y474378D01*
X748669Y487712D01*
X737720Y501780D01*
X737675Y501806D01*
X737658Y501855D01*
X733818Y506230D01*
X733680Y506298D01*
X733605Y506433D01*
X729046Y510052D01*
X728897Y510094D01*
X728799Y510214D01*
X723668Y512962D01*
X723514Y512977D01*
X723397Y513077D01*
X717858Y514865D01*
X717704Y514853D01*
X717570Y514931D01*
X711801Y515702D01*
X711651Y515663D01*
X711506Y515715D01*
D02*
G37*
G36*
X988060Y435384D02*
X987174Y435208D01*
X986423Y434707D01*
X985922Y433956D01*
X985745Y433070D01*
X985922Y432184D01*
X986423Y431433D01*
X987174Y430932D01*
X988060Y430756D01*
X988946Y430932D01*
X989697Y431433D01*
X990198Y432184D01*
X990375Y433070D01*
X990198Y433956D01*
X989697Y434707D01*
X988946Y435208D01*
X988060Y435384D01*
D02*
G37*
G36*
X786845Y893236D02*
X782185Y892778D01*
X777704Y891418D01*
X773575Y889211D01*
X769956Y886241D01*
X731758Y848043D01*
X728095Y846932D01*
X723965Y844725D01*
X720346Y841754D01*
X717375Y838135D01*
X715168Y834005D01*
X713809Y829525D01*
X713350Y824865D01*
X713809Y820205D01*
X715168Y815725D01*
X717375Y811595D01*
X720346Y807976D01*
X725535Y802786D01*
X725535Y802786D01*
X732719Y795602D01*
X758018Y770304D01*
X757823Y768717D01*
X757322Y767966D01*
X757145Y767080D01*
X757322Y766194D01*
X757528Y765886D01*
Y737010D01*
X757067Y736321D01*
X756870Y735330D01*
X757067Y734339D01*
X757629Y733499D01*
X758140Y732987D01*
Y725281D01*
X756359Y723499D01*
X755797Y722659D01*
X755600Y721668D01*
Y718512D01*
X755797Y717521D01*
X756359Y716681D01*
X758140Y714899D01*
Y712470D01*
X758337Y711479D01*
X758899Y710639D01*
X759739Y710077D01*
X760730Y709880D01*
X761721Y710077D01*
X762561Y710639D01*
X763123Y711479D01*
X763220Y711970D01*
X764490Y711845D01*
Y704850D01*
X764687Y703859D01*
X765249Y703019D01*
X766089Y702457D01*
X767080Y702260D01*
X767815Y702406D01*
X768698Y701932D01*
X769085Y701608D01*
Y696075D01*
X768752Y695576D01*
X768576Y694690D01*
X768752Y693804D01*
X769253Y693053D01*
X770004Y692552D01*
X770890Y692375D01*
X771776Y692552D01*
X772527Y693053D01*
X773028Y693804D01*
X773204Y694690D01*
X773028Y695576D01*
X772695Y696075D01*
Y752995D01*
X773028Y753494D01*
X773029Y753497D01*
X774407Y753915D01*
X817501Y710821D01*
X821120Y707850D01*
X825250Y705643D01*
X829730Y704284D01*
X834390Y703825D01*
X854955D01*
Y648704D01*
X764161Y557909D01*
X761190Y554290D01*
X758983Y550160D01*
X757624Y545680D01*
X757165Y541020D01*
Y510148D01*
X756862Y509945D01*
X756360Y509194D01*
X756270Y508741D01*
X755816Y508650D01*
X755066Y508149D01*
X754564Y507398D01*
X754474Y506945D01*
X754020Y506854D01*
X753270Y506353D01*
X752768Y505602D01*
X752678Y505149D01*
X752224Y505058D01*
X751473Y504557D01*
X750972Y503806D01*
X750796Y502920D01*
X750972Y502034D01*
X751473Y501283D01*
X752224Y500782D01*
X752678Y500691D01*
X752768Y500238D01*
X753270Y499487D01*
X754020Y498986D01*
X754474Y498895D01*
X754564Y498442D01*
X755066Y497691D01*
X755816Y497190D01*
X756270Y497099D01*
X756360Y496646D01*
X756862Y495895D01*
X757391Y495541D01*
X757624Y493180D01*
X758983Y488700D01*
X761190Y484570D01*
X764161Y480951D01*
X767780Y477980D01*
X771910Y475773D01*
X776390Y474414D01*
X778639Y474192D01*
X779165Y473841D01*
X779618Y473751D01*
X779708Y473298D01*
X780210Y472547D01*
X780961Y472045D01*
X781414Y471955D01*
X781505Y471501D01*
X782006Y470751D01*
X782757Y470249D01*
X783210Y470159D01*
X783301Y469705D01*
X783802Y468955D01*
X784553Y468453D01*
X785006Y468363D01*
X785097Y467909D01*
X785598Y467159D01*
X786349Y466657D01*
X786803Y466567D01*
X786893Y466113D01*
X787394Y465362D01*
X788145Y464861D01*
X788599Y464771D01*
X788689Y464317D01*
X789191Y463566D01*
X789941Y463065D01*
X790395Y462975D01*
X790485Y462521D01*
X790987Y461770D01*
X791737Y461269D01*
X792191Y461178D01*
X792281Y460725D01*
X792783Y459974D01*
X793533Y459473D01*
X794419Y459296D01*
X795305Y459473D01*
X796056Y459974D01*
X796557Y460725D01*
X796648Y461178D01*
X797101Y461269D01*
X797852Y461770D01*
X798354Y462521D01*
X798444Y462975D01*
X798897Y463065D01*
X799648Y463566D01*
X800150Y464317D01*
X800240Y464771D01*
X800693Y464861D01*
X801444Y465362D01*
X801946Y466113D01*
X802036Y466567D01*
X802489Y466657D01*
X803240Y467159D01*
X803742Y467909D01*
X803832Y468363D01*
X804285Y468453D01*
X805036Y468955D01*
X805538Y469705D01*
X805628Y470159D01*
X806081Y470249D01*
X806832Y470751D01*
X807334Y471501D01*
X807424Y471955D01*
X807877Y472045D01*
X808628Y472547D01*
X809130Y473298D01*
X809220Y473751D01*
X809673Y473841D01*
X810424Y474343D01*
X810926Y475093D01*
X811016Y475547D01*
X811469Y475637D01*
X812220Y476139D01*
X812722Y476890D01*
X812812Y477343D01*
X813265Y477433D01*
X814016Y477935D01*
X814518Y478686D01*
X814608Y479139D01*
X815061Y479229D01*
X815812Y479731D01*
X816314Y480482D01*
X816404Y480935D01*
X816858Y481025D01*
X817608Y481527D01*
X818110Y482278D01*
X818200Y482731D01*
X818653Y482821D01*
X819404Y483323D01*
X819906Y484074D01*
X820082Y484959D01*
X819906Y485845D01*
X819404Y486596D01*
X818653Y487098D01*
X818200Y487188D01*
X818110Y487641D01*
X817608Y488392D01*
X816858Y488894D01*
X816404Y488984D01*
X816314Y489437D01*
X815812Y490188D01*
X815061Y490690D01*
X814608Y490780D01*
X814518Y491233D01*
X814016Y491984D01*
X813265Y492486D01*
X812812Y492576D01*
X812722Y493029D01*
X812220Y493780D01*
X811469Y494282D01*
X811016Y494372D01*
X810926Y494826D01*
X810424Y495576D01*
X809673Y496078D01*
X809220Y496168D01*
X809130Y496622D01*
X808628Y497372D01*
X807877Y497874D01*
X807424Y497964D01*
X807334Y498418D01*
X806832Y499168D01*
X806081Y499670D01*
X805628Y499760D01*
X805538Y500214D01*
X805036Y500965D01*
X804935Y501032D01*
Y531127D01*
X895729Y621921D01*
X898700Y625540D01*
X900907Y629670D01*
X902266Y634150D01*
X902725Y638810D01*
Y726440D01*
X902266Y731100D01*
X900907Y735580D01*
X898700Y739710D01*
X895729Y743329D01*
X894459Y744599D01*
X890840Y747570D01*
X886710Y749777D01*
X882230Y751136D01*
X877570Y751595D01*
X855299D01*
X854485Y752730D01*
X854477Y752865D01*
X862627Y761015D01*
X863216Y761132D01*
X863967Y761633D01*
X864468Y762384D01*
X864644Y763270D01*
X864468Y764156D01*
X863967Y764907D01*
X863216Y765408D01*
X862330Y765584D01*
X861444Y765408D01*
X860693Y764907D01*
X860192Y764156D01*
X860075Y763567D01*
X851873Y755365D01*
X851284Y755248D01*
X850533Y754747D01*
X850032Y753996D01*
X849855Y753110D01*
X849904Y752865D01*
X849041Y751595D01*
X844284D01*
X773575Y822303D01*
X803734Y852462D01*
X806704Y856082D01*
X808912Y860211D01*
X810271Y864692D01*
X810730Y869352D01*
X810271Y874011D01*
X808912Y878492D01*
X806704Y882621D01*
X803734Y886241D01*
X800115Y889211D01*
X795985Y891418D01*
X791505Y892778D01*
X786845Y893236D01*
D02*
G37*
G36*
X950909Y468801D02*
X950023Y468625D01*
X949524Y468291D01*
X941467D01*
X940776Y468154D01*
X940190Y467763D01*
X930648Y458220D01*
X900380D01*
X899881Y458554D01*
X898995Y458730D01*
X898110Y458554D01*
X897359Y458052D01*
X896857Y457301D01*
X896681Y456416D01*
X896857Y455530D01*
X897359Y454779D01*
X898110Y454277D01*
X898995Y454101D01*
X899881Y454277D01*
X900380Y454611D01*
X931396D01*
X932086Y454748D01*
X932672Y455140D01*
X942214Y464682D01*
X949524D01*
X950023Y464348D01*
X950909Y464172D01*
X951795Y464348D01*
X952545Y464850D01*
X953047Y465601D01*
X953223Y466487D01*
X953047Y467372D01*
X952545Y468123D01*
X951795Y468625D01*
X950909Y468801D01*
D02*
G37*
G36*
X1113790Y520475D02*
X1112904Y520298D01*
X1112153Y519797D01*
X1111652Y519046D01*
X1111476Y518160D01*
X1111652Y517274D01*
X1112153Y516523D01*
X1112904Y516022D01*
X1113790Y515845D01*
X1114676Y516022D01*
X1115427Y516523D01*
X1115928Y517274D01*
X1116105Y518160D01*
X1115928Y519046D01*
X1115427Y519797D01*
X1114676Y520298D01*
X1113790Y520475D01*
D02*
G37*
G36*
X1119026Y702613D02*
X1113884Y702208D01*
X1108868Y701004D01*
X1104103Y699030D01*
X1099705Y696335D01*
X1095782Y692985D01*
X1092432Y689063D01*
X1089737Y684665D01*
X1087764Y679900D01*
X1086559Y674884D01*
X1086155Y669742D01*
X1086559Y664600D01*
X1087764Y659584D01*
X1089737Y654818D01*
X1092432Y650420D01*
X1095782Y646498D01*
X1099705Y643148D01*
X1104103Y640453D01*
X1108868Y638479D01*
X1113884Y637275D01*
X1119026Y636870D01*
X1124168Y637275D01*
X1129184Y638479D01*
X1133949Y640453D01*
X1138347Y643148D01*
X1142270Y646498D01*
X1145619Y650420D01*
X1148315Y654818D01*
X1150288Y659584D01*
X1151493Y664600D01*
X1151897Y669742D01*
X1151493Y674884D01*
X1150288Y679900D01*
X1148315Y684665D01*
X1145619Y689063D01*
X1142270Y692985D01*
X1138347Y696335D01*
X1133949Y699030D01*
X1129184Y701004D01*
X1124168Y702208D01*
X1119026Y702613D01*
D02*
G37*
G36*
X819026Y702613D02*
X813884Y702208D01*
X808868Y701004D01*
X804103Y699030D01*
X799705Y696335D01*
X795782Y692985D01*
X792432Y689063D01*
X789737Y684665D01*
X787764Y679900D01*
X786559Y674884D01*
X786155Y669742D01*
X786559Y664600D01*
X787764Y659584D01*
X789737Y654818D01*
X792432Y650421D01*
X795782Y646498D01*
X799705Y643148D01*
X804103Y640453D01*
X808868Y638479D01*
X813884Y637275D01*
X819026Y636870D01*
X824168Y637275D01*
X829184Y638479D01*
X833949Y640453D01*
X838347Y643148D01*
X842270Y646498D01*
X845619Y650421D01*
X848315Y654818D01*
X850288Y659584D01*
X851493Y664600D01*
X851897Y669742D01*
X851493Y674884D01*
X850288Y679900D01*
X848315Y684665D01*
X845619Y689063D01*
X842270Y692985D01*
X838347Y696335D01*
X833949Y699030D01*
X829184Y701004D01*
X824168Y702208D01*
X819026Y702613D01*
D02*
G37*
G36*
X754380Y638585D02*
X753495Y638409D01*
X753110Y638152D01*
X752725Y638408D01*
X751840Y638585D01*
X750954Y638408D01*
X750570Y638152D01*
X750186Y638409D01*
X749300Y638585D01*
X748414Y638409D01*
X748030Y638152D01*
X747646Y638408D01*
X746760Y638585D01*
X745874Y638408D01*
X745490Y638152D01*
X745106Y638409D01*
X744220Y638585D01*
X743334Y638409D01*
X742950Y638152D01*
X742566Y638408D01*
X741680Y638585D01*
X740794Y638408D01*
X740410Y638152D01*
X740026Y638408D01*
X739140Y638584D01*
X738254Y638408D01*
X737504Y637906D01*
X737002Y637156D01*
X736826Y636270D01*
X737002Y635384D01*
X737259Y635000D01*
X737002Y634616D01*
X736825Y633730D01*
X737002Y632844D01*
X737259Y632460D01*
X737002Y632076D01*
X736825Y631190D01*
X737002Y630304D01*
X737259Y629920D01*
X737002Y629536D01*
X736826Y628650D01*
X737002Y627764D01*
X737259Y627380D01*
X737002Y626996D01*
X736826Y626110D01*
X737002Y625224D01*
X737504Y624474D01*
X738254Y623972D01*
X739140Y623796D01*
X740026Y623972D01*
X740410Y624229D01*
X740794Y623972D01*
X741680Y623796D01*
X742566Y623972D01*
X742950Y624229D01*
X743334Y623972D01*
X744220Y623796D01*
X745106Y623972D01*
X745490Y624229D01*
X745874Y623972D01*
X746760Y623796D01*
X747646Y623972D01*
X748030Y624228D01*
X748414Y623971D01*
X749300Y623795D01*
X750185Y623971D01*
X750570Y624228D01*
X750954Y623972D01*
X751840Y623796D01*
X752725Y623972D01*
X753110Y624229D01*
X753494Y623971D01*
X754380Y623795D01*
X755266Y623971D01*
X755650Y624228D01*
X756034Y623972D01*
X756920Y623796D01*
X757806Y623972D01*
X758190Y624229D01*
X758574Y623971D01*
X759460Y623795D01*
X760346Y623971D01*
X760730Y624228D01*
X761114Y623972D01*
X762000Y623796D01*
X762886Y623972D01*
X763270Y624228D01*
X763654Y623971D01*
X764540Y623795D01*
X765426Y623971D01*
X765810Y624228D01*
X766194Y623972D01*
X767080Y623796D01*
X767966Y623972D01*
X768350Y624228D01*
X768734Y623972D01*
X769620Y623796D01*
X770506Y623972D01*
X770890Y624229D01*
X771274Y623971D01*
X772160Y623795D01*
X773046Y623971D01*
X773797Y624473D01*
X774298Y625224D01*
X774474Y626110D01*
X774298Y626996D01*
X774042Y627380D01*
X774298Y627764D01*
X774474Y628650D01*
X774298Y629536D01*
X774042Y629920D01*
X774298Y630304D01*
X774474Y631190D01*
X774298Y632076D01*
X774042Y632460D01*
X774298Y632844D01*
X774474Y633730D01*
X774298Y634616D01*
X774042Y635000D01*
X774298Y635384D01*
X774474Y636270D01*
X774298Y637155D01*
X773796Y637906D01*
X773046Y638408D01*
X772160Y638584D01*
X771274Y638408D01*
X770890Y638151D01*
X770506Y638408D01*
X769620Y638584D01*
X768734Y638408D01*
X768350Y638152D01*
X767966Y638408D01*
X767080Y638585D01*
X766194Y638408D01*
X765810Y638152D01*
X765426Y638408D01*
X764540Y638584D01*
X763654Y638408D01*
X763270Y638152D01*
X762886Y638408D01*
X762000Y638585D01*
X761114Y638408D01*
X760730Y638151D01*
X760345Y638408D01*
X759459Y638584D01*
X758574Y638408D01*
X758190Y638152D01*
X757806Y638408D01*
X756920Y638584D01*
X756034Y638408D01*
X755651Y638152D01*
X755266Y638409D01*
X754380Y638585D01*
D02*
G37*
G36*
X1146810Y570005D02*
X1145924Y569828D01*
X1145173Y569327D01*
X1144672Y568576D01*
X1144495Y567690D01*
X1144672Y566804D01*
X1145173Y566053D01*
X1145924Y565552D01*
X1146810Y565376D01*
X1147696Y565552D01*
X1148447Y566053D01*
X1148948Y566804D01*
X1149125Y567690D01*
X1148948Y568576D01*
X1148447Y569327D01*
X1147696Y569828D01*
X1146810Y570005D01*
D02*
G37*
G36*
X1104306Y588692D02*
X1103420Y588516D01*
X1102669Y588014D01*
X1101613Y588203D01*
X1100727Y588379D01*
X1099842Y588203D01*
X1099091Y587701D01*
X1098589Y586950D01*
X1098461Y586307D01*
X1098209Y586257D01*
X1097458Y585755D01*
X1096956Y585004D01*
X1096829Y584361D01*
X1096576Y584311D01*
X1095825Y583809D01*
X1095324Y583058D01*
X1095196Y582415D01*
X1094944Y582365D01*
X1094193Y581864D01*
X1093691Y581113D01*
X1093563Y580470D01*
X1093311Y580420D01*
X1092560Y579918D01*
X1092058Y579167D01*
X1091930Y578524D01*
X1091678Y578474D01*
X1090927Y577972D01*
X1090426Y577221D01*
X1090298Y576578D01*
X1090045Y576528D01*
X1089295Y576026D01*
X1088793Y575275D01*
X1088665Y574632D01*
X1088413Y574582D01*
X1087662Y574081D01*
X1087160Y573330D01*
X1087032Y572687D01*
X1086780Y572636D01*
X1086029Y572135D01*
X1085528Y571384D01*
X1085400Y570741D01*
X1085147Y570691D01*
X1084397Y570189D01*
X1083895Y569438D01*
X1083767Y568795D01*
X1083515Y568745D01*
X1082764Y568243D01*
X1082262Y567492D01*
X1082134Y566849D01*
X1081882Y566799D01*
X1081131Y566297D01*
X1080630Y565547D01*
X1080502Y564904D01*
X1080249Y564854D01*
X1079499Y564352D01*
X1078997Y563601D01*
X1078869Y562958D01*
X1078617Y562908D01*
X1077866Y562406D01*
X1077364Y561655D01*
X1077236Y561012D01*
X1076984Y560962D01*
X1076233Y560460D01*
X1075732Y559709D01*
X1075604Y559066D01*
X1075351Y559016D01*
X1074601Y558515D01*
X1074099Y557764D01*
X1073971Y557121D01*
X1073719Y557071D01*
X1072968Y556569D01*
X1072466Y555818D01*
X1072338Y555175D01*
X1072086Y555125D01*
X1071335Y554623D01*
X1070833Y553872D01*
X1070705Y553229D01*
X1070453Y553179D01*
X1069703Y552677D01*
X1069201Y551926D01*
X1069073Y551283D01*
X1068821Y551233D01*
X1068070Y550732D01*
X1067568Y549981D01*
X1067440Y549338D01*
X1067188Y549287D01*
X1066437Y548786D01*
X1065935Y548035D01*
X1065807Y547392D01*
X1065555Y547342D01*
X1064804Y546840D01*
X1064303Y546089D01*
X1064175Y545446D01*
X1063923Y545396D01*
X1063172Y544894D01*
X1062670Y544143D01*
X1062494Y543258D01*
X1062670Y542372D01*
X1063172Y541621D01*
X1063923Y541119D01*
X1064566Y540992D01*
X1064616Y540739D01*
X1065117Y539988D01*
X1065868Y539487D01*
X1066511Y539359D01*
X1066562Y539107D01*
X1067063Y538356D01*
X1067814Y537854D01*
X1068457Y537726D01*
X1068507Y537474D01*
X1069009Y536723D01*
X1069760Y536221D01*
X1070403Y536093D01*
X1070453Y535841D01*
X1070955Y535090D01*
X1071706Y534589D01*
X1072349Y534461D01*
X1072399Y534209D01*
X1072900Y533458D01*
X1073651Y532956D01*
X1074294Y532828D01*
X1074345Y532576D01*
X1074846Y531825D01*
X1075597Y531323D01*
X1076240Y531195D01*
X1076290Y530943D01*
X1076792Y530192D01*
X1077543Y529691D01*
X1078186Y529563D01*
X1078236Y529310D01*
X1078738Y528560D01*
X1079489Y528058D01*
X1080132Y527930D01*
X1080182Y527678D01*
X1080684Y526927D01*
X1081434Y526425D01*
X1082077Y526297D01*
X1082128Y526045D01*
X1082629Y525294D01*
X1083380Y524793D01*
X1084023Y524665D01*
X1084073Y524412D01*
X1084575Y523662D01*
X1085326Y523160D01*
X1085969Y523032D01*
X1086019Y522780D01*
X1086521Y522029D01*
X1087272Y521527D01*
X1087915Y521399D01*
X1087965Y521147D01*
X1088467Y520396D01*
X1089217Y519894D01*
X1090103Y519718D01*
X1090989Y519894D01*
X1091740Y520396D01*
X1092241Y521147D01*
X1092369Y521790D01*
X1092622Y521840D01*
X1093372Y522342D01*
X1093874Y523093D01*
X1094002Y523736D01*
X1094254Y523786D01*
X1095005Y524288D01*
X1095507Y525039D01*
X1095635Y525682D01*
X1095887Y525732D01*
X1096638Y526233D01*
X1097140Y526984D01*
X1097267Y527627D01*
X1097520Y527677D01*
X1098270Y528179D01*
X1098772Y528930D01*
X1098900Y529573D01*
X1099152Y529623D01*
X1099903Y530125D01*
X1100405Y530876D01*
X1100533Y531519D01*
X1100785Y531569D01*
X1101536Y532071D01*
X1102038Y532822D01*
X1102165Y533465D01*
X1102418Y533515D01*
X1103168Y534016D01*
X1103670Y534767D01*
X1103798Y535410D01*
X1104050Y535461D01*
X1104801Y535962D01*
X1105303Y536713D01*
X1105431Y537356D01*
X1105683Y537406D01*
X1106434Y537908D01*
X1106936Y538659D01*
X1107063Y539302D01*
X1107316Y539352D01*
X1108066Y539854D01*
X1108568Y540605D01*
X1108696Y541248D01*
X1108948Y541298D01*
X1109699Y541800D01*
X1110201Y542550D01*
X1110329Y543193D01*
X1110581Y543244D01*
X1111332Y543745D01*
X1111834Y544496D01*
X1111962Y545139D01*
X1112214Y545189D01*
X1112965Y545691D01*
X1113466Y546442D01*
X1113594Y547085D01*
X1113846Y547135D01*
X1114597Y547637D01*
X1115099Y548388D01*
X1115227Y549031D01*
X1115479Y549081D01*
X1116230Y549583D01*
X1116732Y550333D01*
X1116860Y550976D01*
X1117112Y551027D01*
X1117863Y551528D01*
X1118364Y552279D01*
X1118492Y552922D01*
X1118744Y552972D01*
X1119495Y553474D01*
X1119997Y554225D01*
X1120125Y554868D01*
X1120377Y554918D01*
X1121128Y555420D01*
X1121630Y556171D01*
X1121758Y556814D01*
X1122010Y556864D01*
X1122761Y557366D01*
X1123262Y558116D01*
X1123390Y558759D01*
X1123643Y558810D01*
X1124393Y559311D01*
X1124895Y560062D01*
X1125023Y560705D01*
X1125275Y560755D01*
X1126026Y561257D01*
X1126528Y562008D01*
X1126656Y562651D01*
X1126908Y562701D01*
X1127659Y563203D01*
X1128160Y563954D01*
X1128288Y564597D01*
X1128540Y564647D01*
X1129291Y565149D01*
X1129793Y565900D01*
X1129969Y566785D01*
X1129793Y567671D01*
X1129291Y568422D01*
X1128540Y568923D01*
X1127897Y569051D01*
X1127847Y569304D01*
X1127346Y570054D01*
X1126595Y570556D01*
X1125952Y570684D01*
X1125902Y570936D01*
X1125400Y571687D01*
X1124649Y572189D01*
X1124006Y572317D01*
X1123956Y572569D01*
X1123454Y573320D01*
X1122703Y573821D01*
X1122060Y573949D01*
X1122010Y574202D01*
X1121508Y574952D01*
X1120758Y575454D01*
X1120115Y575582D01*
X1120064Y575834D01*
X1119563Y576585D01*
X1118812Y577087D01*
X1118169Y577215D01*
X1118119Y577467D01*
X1117617Y578218D01*
X1116866Y578719D01*
X1116223Y578847D01*
X1116173Y579100D01*
X1115671Y579851D01*
X1114920Y580352D01*
X1114277Y580480D01*
X1114227Y580732D01*
X1113725Y581483D01*
X1112974Y581985D01*
X1112331Y582113D01*
X1112281Y582365D01*
X1111780Y583116D01*
X1111029Y583618D01*
X1110386Y583745D01*
X1110335Y583998D01*
X1109834Y584748D01*
X1109083Y585250D01*
X1108440Y585378D01*
X1108390Y585630D01*
X1107888Y586381D01*
X1107137Y586883D01*
X1106494Y587011D01*
X1106444Y587263D01*
X1105942Y588014D01*
X1105191Y588516D01*
X1104306Y588692D01*
D02*
G37*
G36*
X685960Y624730D02*
X684969Y624533D01*
X684129Y623971D01*
X683567Y623131D01*
X683370Y622140D01*
X683567Y621149D01*
X684129Y620309D01*
X700479Y603959D01*
X701319Y603397D01*
X702310Y603200D01*
X712470D01*
X713461Y603397D01*
X714301Y603959D01*
X714863Y604799D01*
X715060Y605790D01*
X714863Y606781D01*
X714301Y607621D01*
X713461Y608183D01*
X712470Y608380D01*
X703383D01*
X687791Y623971D01*
X686951Y624533D01*
X685960Y624730D01*
D02*
G37*
G36*
X1201856Y916714D02*
X1200970Y916538D01*
X1200219Y916037D01*
X1199717Y915286D01*
X1199541Y914400D01*
X1199717Y913514D01*
X1200219Y912763D01*
X1200970Y912262D01*
X1201856Y912085D01*
X1202741Y912262D01*
X1203492Y912763D01*
X1203994Y913514D01*
X1204170Y914400D01*
X1203994Y915286D01*
X1203492Y916037D01*
X1202741Y916538D01*
X1201856Y916714D01*
D02*
G37*
G36*
X966470Y921795D02*
X965584Y921618D01*
X964833Y921117D01*
X964332Y920366D01*
X964156Y919480D01*
X964332Y918594D01*
X964833Y917843D01*
X965584Y917342D01*
X966470Y917166D01*
X967356Y917342D01*
X968107Y917843D01*
X968608Y918594D01*
X968784Y919480D01*
X968608Y920366D01*
X968107Y921117D01*
X967356Y921618D01*
X966470Y921795D01*
D02*
G37*
G36*
X916940Y947470D02*
X897890D01*
X896899Y947273D01*
X896059Y946711D01*
X877863Y928515D01*
X877301Y927675D01*
X877104Y926684D01*
Y916437D01*
X877301Y915446D01*
X877863Y914606D01*
X878703Y914045D01*
X878988Y913988D01*
X880208Y913609D01*
X880384Y912723D01*
X880886Y911972D01*
X881637Y911470D01*
X882523Y911294D01*
X882957Y910086D01*
X882995Y909895D01*
X883496Y909144D01*
X884247Y908642D01*
X884536Y908585D01*
X884411Y907315D01*
X883920D01*
X883229Y907177D01*
X882644Y906786D01*
X867404Y891546D01*
X867013Y890961D01*
X866875Y890270D01*
Y827148D01*
X865929Y826489D01*
X865605Y826398D01*
X864870Y826544D01*
X863984Y826368D01*
X863233Y825867D01*
X862732Y825116D01*
X862615Y824527D01*
X858223Y820135D01*
X857634Y820018D01*
X856883Y819517D01*
X856382Y818766D01*
X856206Y817880D01*
X856382Y816994D01*
X856883Y816243D01*
X857634Y815742D01*
X858520Y815565D01*
X859406Y815742D01*
X860157Y816243D01*
X860658Y816994D01*
X860775Y817583D01*
X865167Y821975D01*
X865605Y822062D01*
X865929Y821971D01*
X866875Y821312D01*
Y807720D01*
X867013Y807029D01*
X867404Y806444D01*
X888015Y785833D01*
X888132Y785244D01*
X888633Y784493D01*
X889384Y783992D01*
X890270Y783816D01*
X891156Y783992D01*
X891907Y784493D01*
X892408Y785244D01*
X892585Y786130D01*
X892534Y786386D01*
X892629Y786814D01*
X893534Y787283D01*
X894650Y786557D01*
Y776519D01*
X893982Y776073D01*
X893480Y775322D01*
X893304Y774436D01*
X893480Y773550D01*
X893982Y772799D01*
X894733Y772298D01*
X895618Y772122D01*
X896504Y772298D01*
X897255Y772799D01*
X897757Y773550D01*
X897894Y774240D01*
X898122Y774582D01*
X899224Y775417D01*
X900110Y775593D01*
X900861Y776095D01*
X901363Y776845D01*
X901539Y777731D01*
X901363Y778617D01*
X901029Y779116D01*
Y791352D01*
X903568Y793890D01*
X903959Y794476D01*
X904096Y795166D01*
Y798932D01*
X903959Y799623D01*
X903596Y800165D01*
Y821358D01*
X904132Y821894D01*
X904523Y822480D01*
X904660Y823170D01*
Y830054D01*
X904523Y830745D01*
X904132Y831330D01*
X903596Y831866D01*
Y843993D01*
X903666Y844097D01*
X903803Y844788D01*
Y850443D01*
X904977Y850929D01*
X906015Y849890D01*
Y828163D01*
X906153Y827472D01*
X906245Y827333D01*
Y790519D01*
X906219Y790501D01*
X905657Y789661D01*
X905460Y788670D01*
X905657Y787679D01*
X906219Y786839D01*
X920893Y772165D01*
X920858Y771867D01*
X920393Y770869D01*
X919759Y770743D01*
X918919Y770181D01*
X918357Y769341D01*
X918160Y768350D01*
Y693296D01*
X916220Y691357D01*
X914766Y691247D01*
X914016Y691748D01*
X913130Y691925D01*
X912244Y691748D01*
X911493Y691247D01*
X911262Y690901D01*
X909992Y691286D01*
Y706211D01*
X910188Y706504D01*
X910365Y707390D01*
X910188Y708276D01*
X909687Y709027D01*
X908936Y709528D01*
X908050Y709705D01*
X907164Y709528D01*
X906413Y709027D01*
X905912Y708276D01*
X905735Y707390D01*
X905912Y706504D01*
X906108Y706211D01*
Y615485D01*
X847820Y557197D01*
X847474Y557128D01*
X846723Y556627D01*
X846222Y555876D01*
X846046Y554990D01*
X846222Y554104D01*
X846723Y553353D01*
X847474Y552852D01*
X848360Y552676D01*
X849246Y552852D01*
X849997Y553353D01*
X850498Y554104D01*
X850567Y554450D01*
X909423Y613307D01*
X909845Y613937D01*
X909992Y614680D01*
Y687934D01*
X911262Y688319D01*
X911493Y687973D01*
X912244Y687472D01*
X912334Y687256D01*
X912204Y687061D01*
X912007Y686070D01*
Y677640D01*
X912204Y676649D01*
X912765Y675809D01*
X913605Y675247D01*
X913728Y675223D01*
Y667929D01*
X913532Y667636D01*
X913355Y666750D01*
X913532Y665864D01*
X914033Y665113D01*
X914784Y664612D01*
X915036Y664562D01*
X915756Y664050D01*
X915946Y663196D01*
X915895Y662940D01*
X916072Y662054D01*
X916573Y661303D01*
X917324Y660802D01*
X918210Y660626D01*
X919096Y660802D01*
X919847Y661303D01*
X920248Y661905D01*
X920777Y662112D01*
X921678Y662232D01*
X922299Y661817D01*
X923290Y661620D01*
X942340D01*
X943331Y661817D01*
X944171Y662379D01*
X944733Y663219D01*
X944930Y664210D01*
X944733Y665201D01*
X944171Y666041D01*
X943614Y666414D01*
X943307Y666863D01*
X943210Y667922D01*
X943463Y668299D01*
X943660Y669290D01*
X943463Y670281D01*
X942901Y671121D01*
X942061Y671683D01*
X941070Y671880D01*
X925830D01*
X924839Y671683D01*
X923999Y671121D01*
X923437Y670281D01*
X923240Y669290D01*
X923437Y668299D01*
X923590Y668070D01*
X923467Y667547D01*
X922969Y666736D01*
X922299Y666603D01*
X921515Y666079D01*
X921193Y666144D01*
X920245Y666510D01*
Y667897D01*
X920107Y668588D01*
X920015Y668727D01*
Y678737D01*
X921285Y679509D01*
X921830Y679400D01*
X922821Y679597D01*
X923661Y680159D01*
X931471Y687969D01*
X932033Y688809D01*
X932230Y689800D01*
Y767080D01*
X932033Y768071D01*
X931471Y768911D01*
X909881Y790501D01*
X909855Y790519D01*
Y798380D01*
X911028Y798866D01*
X921983Y787911D01*
Y786775D01*
X922130Y786036D01*
X922549Y785409D01*
X940408Y767550D01*
Y765417D01*
X939138Y765032D01*
X939091Y765101D01*
X938251Y765663D01*
X937260Y765860D01*
X936269Y765663D01*
X935429Y765101D01*
X934867Y764261D01*
X934670Y763270D01*
Y731520D01*
X934867Y730529D01*
X935429Y729689D01*
X946735Y718382D01*
Y697865D01*
X946932Y696874D01*
X947494Y696034D01*
X948334Y695472D01*
X949325Y695275D01*
X950316Y695472D01*
X950568Y695641D01*
X951838Y694962D01*
Y694690D01*
X951985Y693951D01*
X952404Y693324D01*
X954378Y691350D01*
Y691340D01*
X952697Y689660D01*
X951230D01*
X950239Y689463D01*
X949399Y688901D01*
X948837Y688061D01*
X948640Y687070D01*
X948837Y686079D01*
X949399Y685239D01*
X950239Y684677D01*
X951230Y684480D01*
X953770D01*
X954761Y684677D01*
X955601Y685239D01*
X958141Y687779D01*
X958703Y688619D01*
X958900Y689610D01*
X958703Y690601D01*
X958242Y691290D01*
Y692150D01*
X958095Y692889D01*
X957676Y693516D01*
X955702Y695490D01*
Y719524D01*
X956103Y720297D01*
X956876Y720698D01*
X969010D01*
X969749Y720845D01*
X970376Y721264D01*
X972158Y723045D01*
X973428Y722519D01*
Y715825D01*
X965097Y707493D01*
X964676Y706863D01*
X964528Y706120D01*
Y648879D01*
X964332Y648586D01*
X964156Y647700D01*
X964332Y646814D01*
X964833Y646063D01*
X965584Y645562D01*
X966470Y645386D01*
X967356Y645562D01*
X968107Y646063D01*
X968608Y646814D01*
X968784Y647700D01*
X968608Y648586D01*
X968412Y648879D01*
Y705315D01*
X975958Y712861D01*
X977228Y712335D01*
Y700681D01*
X977014Y700638D01*
X976263Y700137D01*
X975762Y699386D01*
X975585Y698500D01*
X975762Y697614D01*
X976263Y696863D01*
X977014Y696362D01*
X977900Y696186D01*
X978786Y696362D01*
X979537Y696863D01*
X980038Y697614D01*
X980107Y697960D01*
X980543Y698397D01*
X980965Y699027D01*
X981112Y699770D01*
X981112Y699770D01*
Y717242D01*
X981102Y717293D01*
Y717425D01*
X982372Y717951D01*
X983578Y716746D01*
Y694224D01*
X980337Y690983D01*
X979915Y690353D01*
X979768Y689610D01*
Y657769D01*
X979572Y657476D01*
X979396Y656590D01*
X979572Y655704D01*
X980073Y654953D01*
X980824Y654452D01*
X981710Y654276D01*
X982596Y654452D01*
X983347Y654953D01*
X983848Y655704D01*
X984025Y656590D01*
X983848Y657476D01*
X983652Y657769D01*
Y688805D01*
X986893Y692047D01*
X987315Y692677D01*
X987462Y693420D01*
Y717550D01*
X987315Y718293D01*
X986893Y718923D01*
X986893Y718923D01*
X984912Y720905D01*
Y741680D01*
X984785Y742321D01*
Y751240D01*
X984647Y751931D01*
X984256Y752516D01*
X941985Y794788D01*
Y795448D01*
X941847Y796139D01*
X941456Y796724D01*
X930905Y807276D01*
Y831069D01*
X931267Y831612D01*
X931405Y832302D01*
Y853587D01*
X931267Y854278D01*
X930876Y854864D01*
X922620Y863119D01*
X922502Y863713D01*
X922111Y864299D01*
X920474Y865936D01*
X920279Y866280D01*
X920507Y866779D01*
X922082Y867243D01*
X922307Y867101D01*
X922422Y866524D01*
X922923Y865773D01*
X923674Y865272D01*
X924560Y865096D01*
X925446Y865272D01*
X926197Y865773D01*
X926698Y866524D01*
X926874Y867410D01*
X926698Y868296D01*
X926197Y869047D01*
X925446Y869548D01*
X924857Y869665D01*
X923585Y870937D01*
X923609Y872480D01*
X924110Y873231D01*
X924287Y874117D01*
X924110Y875003D01*
X923609Y875753D01*
X923267Y875982D01*
X923147Y876887D01*
X923356Y877408D01*
X923434Y877484D01*
X923955Y877833D01*
X924347Y878418D01*
X924484Y879109D01*
X924347Y879800D01*
X923955Y880385D01*
X923404Y880937D01*
X916645Y887695D01*
X917171Y888965D01*
X981733D01*
X1026445Y844253D01*
X1026562Y843664D01*
X1027063Y842913D01*
X1027814Y842412D01*
X1028700Y842235D01*
X1029586Y842412D01*
X1030337Y842913D01*
X1030838Y843664D01*
X1031014Y844550D01*
X1030838Y845436D01*
X1030337Y846187D01*
X1029586Y846688D01*
X1028997Y846805D01*
X983756Y892046D01*
X983171Y892437D01*
X982480Y892574D01*
X917274D01*
X916225Y893810D01*
X916028Y894801D01*
X915467Y895641D01*
X914626Y896202D01*
X913635Y896400D01*
X910291D01*
X909951Y897031D01*
X909784Y897670D01*
X910188Y898274D01*
X910365Y899160D01*
X910188Y900046D01*
X909687Y900797D01*
X908936Y901298D01*
X908050Y901475D01*
X907164Y901298D01*
X907049Y901221D01*
X907000Y901196D01*
X906096Y902112D01*
X906110Y902181D01*
X907141Y903212D01*
X907532Y903797D01*
X907670Y904488D01*
Y906709D01*
X907595Y907085D01*
X907648Y907164D01*
X907824Y908050D01*
X907648Y908936D01*
X907147Y909687D01*
X906396Y910188D01*
X906252Y910217D01*
X905877Y911494D01*
X906378Y912244D01*
X906554Y913130D01*
X906378Y914016D01*
X905877Y914767D01*
X905126Y915268D01*
X904240Y915444D01*
X903354Y915268D01*
X902603Y914767D01*
X902102Y914016D01*
X901926Y913130D01*
X901947Y913020D01*
X901436Y912919D01*
X900685Y912417D01*
X900183Y911666D01*
X900081Y911152D01*
X899834Y910696D01*
X898827Y910205D01*
X898805Y910210D01*
X897378D01*
X896852Y911480D01*
X908127Y922755D01*
X918095D01*
X918594Y922422D01*
X919480Y922245D01*
X920366Y922422D01*
X921117Y922923D01*
X921618Y923674D01*
X921795Y924560D01*
X921618Y925446D01*
X921117Y926197D01*
X920366Y926698D01*
X919480Y926874D01*
X918594Y926698D01*
X918095Y926365D01*
X907380D01*
X906689Y926227D01*
X906104Y925836D01*
X891627Y911359D01*
X891236Y910774D01*
X891098Y910083D01*
Y909678D01*
X890224Y908804D01*
X889911Y908773D01*
X887334Y911349D01*
X887271Y911666D01*
X886770Y912417D01*
X886019Y912919D01*
X885133Y913095D01*
X884699Y914303D01*
X884661Y914494D01*
X884159Y915245D01*
X883408Y915747D01*
X882523Y915923D01*
X882284Y917167D01*
Y919997D01*
X883553Y920383D01*
X884304Y919882D01*
X885187Y919706D01*
X885924Y918969D01*
X886041Y918380D01*
X886543Y917629D01*
X887294Y917127D01*
X888179Y916951D01*
X889065Y917127D01*
X889816Y917629D01*
X890318Y918380D01*
X890360Y918594D01*
X891655D01*
X891698Y918380D01*
X892200Y917629D01*
X892951Y917127D01*
X893836Y916951D01*
X894722Y917127D01*
X895473Y917629D01*
X895975Y918380D01*
X896151Y919266D01*
X895975Y920151D01*
X895473Y920902D01*
X894722Y921404D01*
X893836Y921580D01*
X892951Y921404D01*
X892200Y920902D01*
X891698Y920151D01*
X891655Y919937D01*
X890360D01*
X890318Y920151D01*
X889816Y920902D01*
X889065Y921404D01*
X888476Y921521D01*
X887387Y922610D01*
X887328Y922906D01*
X886827Y923657D01*
X886076Y924158D01*
X885190Y924334D01*
X884304Y924158D01*
X883553Y923657D01*
X882284Y924043D01*
Y925611D01*
X898963Y942290D01*
X916940D01*
X917931Y942487D01*
X918771Y943049D01*
X919333Y943889D01*
X919530Y944880D01*
X919333Y945871D01*
X918771Y946711D01*
X917931Y947273D01*
X916940Y947470D01*
D02*
G37*
G36*
X876866Y910542D02*
X875875Y910344D01*
X875034Y909783D01*
X873351Y908100D01*
X872490D01*
X871499Y907903D01*
X870659Y907341D01*
X870097Y906501D01*
X869900Y905510D01*
X870097Y904519D01*
X870659Y903679D01*
X871499Y903117D01*
X872490Y902920D01*
X874424D01*
X875415Y903117D01*
X876255Y903679D01*
X878697Y906121D01*
X879258Y906961D01*
X879455Y907952D01*
X879258Y908943D01*
X878697Y909783D01*
X877857Y910344D01*
X876866Y910542D01*
D02*
G37*
G36*
X1017270Y910365D02*
X1016384Y910188D01*
X1015633Y909687D01*
X1015132Y908936D01*
X1014956Y908050D01*
X1015132Y907164D01*
X1015633Y906413D01*
X1016384Y905912D01*
X1017270Y905735D01*
X1018156Y905912D01*
X1018907Y906413D01*
X1019408Y907164D01*
X1019585Y908050D01*
X1019408Y908936D01*
X1018907Y909687D01*
X1018156Y910188D01*
X1017270Y910365D01*
D02*
G37*
G36*
X991870Y916714D02*
X990984Y916538D01*
X990233Y916037D01*
X989732Y915286D01*
X989556Y914400D01*
X989732Y913514D01*
X990233Y912763D01*
X990984Y912262D01*
X991870Y912085D01*
X992756Y912262D01*
X993507Y912763D01*
X994008Y913514D01*
X994184Y914400D01*
X994008Y915286D01*
X993507Y916037D01*
X992756Y916538D01*
X991870Y916714D01*
D02*
G37*
G36*
X1124421Y975271D02*
X1123430Y975074D01*
X1122590Y974512D01*
X1122028Y973672D01*
X1121831Y972681D01*
X1122028Y971690D01*
X1122590Y970850D01*
X1125170Y968270D01*
Y941070D01*
X1125367Y940079D01*
X1125929Y939239D01*
X1126769Y938677D01*
X1127760Y938480D01*
X1158437D01*
X1171649Y925269D01*
X1172489Y924707D01*
X1173480Y924510D01*
X1174471Y924707D01*
X1175311Y925269D01*
X1175873Y926109D01*
X1176070Y927100D01*
X1175873Y928091D01*
X1175311Y928931D01*
X1161341Y942901D01*
X1160501Y943463D01*
X1159510Y943660D01*
X1130350D01*
Y969342D01*
X1130153Y970333D01*
X1129591Y971173D01*
X1126252Y974512D01*
X1125412Y975074D01*
X1124421Y975271D01*
D02*
G37*
G36*
X1136650Y977674D02*
X1135764Y977498D01*
X1135013Y976997D01*
X1134512Y976246D01*
X1134335Y975360D01*
X1134512Y974474D01*
X1135013Y973723D01*
X1135764Y973222D01*
X1136650Y973046D01*
X1137536Y973222D01*
X1138287Y973723D01*
X1138788Y974474D01*
X1138964Y975360D01*
X1138788Y976246D01*
X1138287Y976997D01*
X1137536Y977498D01*
X1136650Y977674D01*
D02*
G37*
G36*
X1113422Y981346D02*
X1112536Y981170D01*
X1111786Y980668D01*
X1111284Y979917D01*
X1111108Y979031D01*
X1111284Y978146D01*
X1111786Y977395D01*
X1112536Y976893D01*
X1113422Y976717D01*
X1114308Y976893D01*
X1115059Y977395D01*
X1115560Y978146D01*
X1115737Y979031D01*
X1115560Y979917D01*
X1115059Y980668D01*
X1114308Y981170D01*
X1113422Y981346D01*
D02*
G37*
G36*
X1043883Y1017320D02*
X1018540D01*
X1017549Y1017123D01*
X1016709Y1016561D01*
X1015439Y1015291D01*
X1014877Y1014451D01*
X1014869Y1014412D01*
X1014448Y1013466D01*
X1013490Y1013490D01*
X1013389Y1013510D01*
X993900D01*
X992909Y1013313D01*
X992069Y1012751D01*
X990797Y1011480D01*
X987731D01*
X983950Y1015261D01*
X983110Y1015823D01*
X982119Y1016020D01*
X946120D01*
X945129Y1015823D01*
X944289Y1015261D01*
X939997Y1010970D01*
X928370D01*
X927379Y1010773D01*
X926539Y1010211D01*
X925977Y1009371D01*
X925780Y1008380D01*
X925977Y1007389D01*
X926539Y1006549D01*
X927379Y1005987D01*
X928370Y1005790D01*
X941070D01*
X942061Y1005987D01*
X942901Y1006549D01*
X947193Y1010840D01*
X950491D01*
X950784Y1010523D01*
X951316Y1009570D01*
X951180Y1008890D01*
X951377Y1007899D01*
X951939Y1007059D01*
X967689Y991309D01*
X968529Y990747D01*
X969520Y990550D01*
X1013759D01*
X1038299Y966010D01*
X1039139Y965449D01*
X1040130Y965252D01*
X1073048D01*
X1074039Y965449D01*
X1074773Y965939D01*
X1077020D01*
X1078010Y966136D01*
X1078851Y966698D01*
X1080061Y967908D01*
X1080623Y968748D01*
X1080820Y969739D01*
Y987914D01*
X1080623Y988905D01*
X1080061Y989745D01*
X1058325Y1011481D01*
X1057485Y1012043D01*
X1056494Y1012240D01*
X1050035D01*
X1045714Y1016561D01*
X1044874Y1017123D01*
X1043883Y1017320D01*
D02*
G37*
G36*
X1185506Y935168D02*
X1184620Y934992D01*
X1183869Y934491D01*
X1183368Y933740D01*
X1183192Y932854D01*
X1183368Y931968D01*
X1183869Y931217D01*
X1184620Y930716D01*
X1185506Y930539D01*
X1186392Y930716D01*
X1187143Y931217D01*
X1187644Y931968D01*
X1187821Y932854D01*
X1187644Y933740D01*
X1187143Y934491D01*
X1186392Y934992D01*
X1185506Y935168D01*
D02*
G37*
G36*
X1165860Y945925D02*
X1164974Y945748D01*
X1164223Y945247D01*
X1163722Y944496D01*
X1163546Y943610D01*
X1163722Y942724D01*
X1164223Y941973D01*
X1164974Y941472D01*
X1165860Y941295D01*
X1166746Y941472D01*
X1167497Y941973D01*
X1167998Y942724D01*
X1168175Y943610D01*
X1167998Y944496D01*
X1167497Y945247D01*
X1166746Y945748D01*
X1165860Y945925D01*
D02*
G37*
G36*
X1113790Y958624D02*
X1112904Y958448D01*
X1112153Y957947D01*
X1111652Y957196D01*
X1111476Y956310D01*
X1111652Y955424D01*
X1112153Y954673D01*
X1112904Y954172D01*
X1113790Y953996D01*
X1114676Y954172D01*
X1115427Y954673D01*
X1115928Y955424D01*
X1116105Y956310D01*
X1115928Y957196D01*
X1115427Y957947D01*
X1114676Y958448D01*
X1113790Y958624D01*
D02*
G37*
G36*
X1082040Y900204D02*
X1081154Y900028D01*
X1080403Y899527D01*
X1079902Y898776D01*
X1079725Y897890D01*
X1079902Y897004D01*
X1080403Y896253D01*
X1081154Y895752D01*
X1082040Y895575D01*
X1082926Y895752D01*
X1083677Y896253D01*
X1084178Y897004D01*
X1084354Y897890D01*
X1084178Y898776D01*
X1083677Y899527D01*
X1082926Y900028D01*
X1082040Y900204D01*
D02*
G37*
G36*
X1174750Y818924D02*
X1173864Y818748D01*
X1173113Y818247D01*
X1172612Y817496D01*
X1172436Y816610D01*
X1172612Y815724D01*
X1173113Y814973D01*
X1173864Y814472D01*
X1174750Y814296D01*
X1175636Y814472D01*
X1176387Y814973D01*
X1176888Y815724D01*
X1177065Y816610D01*
X1176888Y817496D01*
X1176387Y818247D01*
X1175636Y818748D01*
X1174750Y818924D01*
D02*
G37*
G36*
X1242060Y882051D02*
X1241174Y881875D01*
X1240423Y881373D01*
X1239922Y880622D01*
X1239745Y879737D01*
X1239908Y878921D01*
X1239667Y878561D01*
X1239470Y877570D01*
X1239667Y876579D01*
X1240229Y875739D01*
X1257250Y858717D01*
Y848360D01*
X1257447Y847369D01*
X1258009Y846529D01*
X1271132Y833406D01*
Y822960D01*
X1271329Y821969D01*
X1271890Y821129D01*
X1272730Y820567D01*
X1273721Y820370D01*
X1274712Y820567D01*
X1275553Y821129D01*
X1276114Y821969D01*
X1276311Y822960D01*
Y834479D01*
X1276114Y835470D01*
X1275553Y836310D01*
X1262430Y849433D01*
Y859790D01*
X1262233Y860781D01*
X1261671Y861621D01*
X1244239Y879054D01*
X1244374Y879737D01*
X1244198Y880622D01*
X1243697Y881373D01*
X1242946Y881875D01*
X1242060Y882051D01*
D02*
G37*
G36*
X1207770Y889050D02*
X1206779Y888853D01*
X1205939Y888291D01*
X1205377Y887451D01*
X1205180Y886460D01*
X1205377Y885469D01*
X1205939Y884629D01*
X1238505Y852062D01*
X1239346Y851501D01*
X1240337Y851303D01*
X1251592D01*
X1252583Y851501D01*
X1253423Y852062D01*
X1253985Y852902D01*
X1254182Y853893D01*
X1253985Y854884D01*
X1253423Y855724D01*
X1252583Y856286D01*
X1251592Y856483D01*
X1241409D01*
X1209601Y888291D01*
X1208761Y888853D01*
X1207770Y889050D01*
D02*
G37*
G36*
X854710Y839245D02*
X853824Y839068D01*
X853516Y838862D01*
X850900D01*
X850161Y838715D01*
X849534Y838296D01*
X807624Y796386D01*
X807205Y795759D01*
X807058Y795020D01*
Y793674D01*
X806852Y793366D01*
X806675Y792480D01*
X806852Y791594D01*
X807353Y790843D01*
X808104Y790342D01*
X808990Y790165D01*
X809876Y790342D01*
X810627Y790843D01*
X811128Y791594D01*
X811630Y791802D01*
X811914Y791612D01*
X812800Y791435D01*
X813686Y791612D01*
X813994Y791818D01*
X817880D01*
X818619Y791965D01*
X819246Y792384D01*
X857772Y830909D01*
X858136Y830982D01*
X858887Y831483D01*
X859388Y832234D01*
X859565Y833120D01*
X859388Y834006D01*
X858887Y834757D01*
X858136Y835258D01*
X857884Y835308D01*
X857164Y835820D01*
X856974Y836674D01*
X857025Y836930D01*
X856848Y837816D01*
X856347Y838567D01*
X855596Y839068D01*
X854710Y839245D01*
D02*
G37*
G36*
X1195070Y804955D02*
X1194184Y804778D01*
X1193433Y804277D01*
X1192932Y803526D01*
X1192756Y802640D01*
X1192932Y801754D01*
X1193433Y801003D01*
X1194184Y800502D01*
X1195070Y800325D01*
X1195956Y800502D01*
X1196707Y801003D01*
X1197208Y801754D01*
X1197384Y802640D01*
X1197208Y803526D01*
X1196707Y804277D01*
X1195956Y804778D01*
X1195070Y804955D01*
D02*
G37*
G36*
X1078320Y808674D02*
X1077434Y808498D01*
X1076684Y807996D01*
X1076182Y807245D01*
X1076006Y806360D01*
X1076182Y805474D01*
X1076684Y804723D01*
X1077434Y804221D01*
X1078320Y804045D01*
X1079206Y804221D01*
X1079957Y804723D01*
X1080459Y805474D01*
X1080635Y806360D01*
X1080459Y807245D01*
X1079957Y807996D01*
X1079206Y808498D01*
X1078320Y808674D01*
D02*
G37*
G36*
X1108710Y857025D02*
X1107824Y856848D01*
X1107073Y856347D01*
X1106572Y855596D01*
X1106395Y854710D01*
X1106572Y853824D01*
X1107073Y853073D01*
X1107824Y852572D01*
X1108710Y852395D01*
X1109596Y852572D01*
X1110347Y853073D01*
X1110848Y853824D01*
X1111024Y854710D01*
X1110848Y855596D01*
X1110347Y856347D01*
X1109596Y856848D01*
X1108710Y857025D01*
D02*
G37*
G36*
X859790Y904715D02*
X858904Y904539D01*
X858153Y904037D01*
X857652Y903286D01*
X857476Y902400D01*
X857652Y901515D01*
X857853Y901213D01*
X857947Y880838D01*
X857757Y880553D01*
X857581Y879668D01*
X857757Y878782D01*
X858259Y878031D01*
X859009Y877529D01*
X859895Y877353D01*
X860781Y877529D01*
X861532Y878031D01*
X862033Y878782D01*
X862210Y879668D01*
X862033Y880553D01*
X861832Y880855D01*
X861762Y896049D01*
X862724Y897152D01*
X863609Y897328D01*
X864360Y897830D01*
X864862Y898581D01*
X865038Y899467D01*
X864862Y900352D01*
X864360Y901103D01*
X863609Y901605D01*
X863020Y901722D01*
X862045Y902697D01*
X861928Y903286D01*
X861427Y904037D01*
X860676Y904539D01*
X859790Y904715D01*
D02*
G37*
G36*
X937260Y882424D02*
X936374Y882248D01*
X935623Y881747D01*
X935122Y880996D01*
X934946Y880110D01*
X935122Y879224D01*
X935623Y878473D01*
X936374Y877972D01*
X937260Y877795D01*
X938146Y877972D01*
X938897Y878473D01*
X939398Y879224D01*
X939575Y880110D01*
X939398Y880996D01*
X938897Y881747D01*
X938146Y882248D01*
X937260Y882424D01*
D02*
G37*
G36*
X1102360Y886235D02*
X1101474Y886058D01*
X1100723Y885557D01*
X1100222Y884806D01*
X1100045Y883920D01*
X1100222Y883034D01*
X1100723Y882283D01*
X1101474Y881782D01*
X1102360Y881606D01*
X1103246Y881782D01*
X1103997Y882283D01*
X1104498Y883034D01*
X1104675Y883920D01*
X1104498Y884806D01*
X1103997Y885557D01*
X1103246Y886058D01*
X1102360Y886235D01*
D02*
G37*
G36*
X1086339Y866403D02*
X1085453Y866227D01*
X1084702Y865725D01*
X1084200Y864974D01*
X1084110Y864521D01*
X1083657Y864431D01*
X1082906Y863929D01*
X1082404Y863178D01*
X1082314Y862725D01*
X1081861Y862635D01*
X1081110Y862133D01*
X1080608Y861382D01*
X1080432Y860497D01*
X1080501Y860147D01*
X1080500Y860143D01*
X1079508Y859151D01*
X1079504Y859149D01*
X1079155Y859219D01*
X1078269Y859043D01*
X1077518Y858541D01*
X1077016Y857790D01*
X1076926Y857337D01*
X1076473Y857247D01*
X1075722Y856745D01*
X1075220Y855994D01*
X1075130Y855541D01*
X1074677Y855451D01*
X1073926Y854949D01*
X1073424Y854198D01*
X1073334Y853745D01*
X1072881Y853655D01*
X1072130Y853153D01*
X1071628Y852402D01*
X1071538Y851949D01*
X1071085Y851859D01*
X1070334Y851357D01*
X1069832Y850606D01*
X1069742Y850153D01*
X1069288Y850062D01*
X1068538Y849561D01*
X1068036Y848810D01*
X1067946Y848357D01*
X1067493Y848267D01*
X1066742Y847765D01*
X1066240Y847014D01*
X1066150Y846561D01*
X1065696Y846470D01*
X1064946Y845969D01*
X1064444Y845218D01*
X1064354Y844764D01*
X1063900Y844674D01*
X1063149Y844173D01*
X1062648Y843422D01*
X1062558Y842969D01*
X1062104Y842878D01*
X1061353Y842377D01*
X1060852Y841626D01*
X1060676Y840740D01*
X1060852Y839854D01*
X1061353Y839103D01*
X1062104Y838602D01*
X1062558Y838512D01*
X1062648Y838058D01*
X1063149Y837307D01*
X1063900Y836806D01*
X1064354Y836715D01*
X1064444Y836262D01*
X1064946Y835511D01*
X1065696Y835010D01*
X1066150Y834919D01*
X1066240Y834466D01*
X1066742Y833715D01*
X1067493Y833214D01*
X1067946Y833123D01*
X1068036Y832670D01*
X1068538Y831919D01*
X1069288Y831417D01*
X1069742Y831327D01*
X1069832Y830874D01*
X1070334Y830123D01*
X1071085Y829622D01*
X1071538Y829531D01*
X1071628Y829078D01*
X1072130Y828327D01*
X1072881Y827825D01*
X1073334Y827735D01*
X1073424Y827282D01*
X1073926Y826531D01*
X1074677Y826029D01*
X1075130Y825939D01*
X1075220Y825486D01*
X1075722Y824735D01*
X1076473Y824233D01*
X1076926Y824143D01*
X1077016Y823690D01*
X1077518Y822939D01*
X1078269Y822437D01*
X1078722Y822347D01*
X1078812Y821894D01*
X1079314Y821143D01*
X1080065Y820641D01*
X1080518Y820551D01*
X1080608Y820098D01*
X1081110Y819347D01*
X1081861Y818845D01*
X1082314Y818755D01*
X1082404Y818302D01*
X1082906Y817551D01*
X1083657Y817049D01*
X1084110Y816959D01*
X1084200Y816506D01*
X1084702Y815755D01*
X1085453Y815253D01*
X1085906Y815163D01*
X1085996Y814710D01*
X1086498Y813959D01*
X1087249Y813457D01*
X1087702Y813367D01*
X1087793Y812914D01*
X1088294Y812163D01*
X1089045Y811661D01*
X1089498Y811571D01*
X1089588Y811117D01*
X1090090Y810367D01*
X1090841Y809865D01*
X1091294Y809775D01*
X1091385Y809321D01*
X1091886Y808570D01*
X1092637Y808069D01*
X1093090Y807979D01*
X1093181Y807525D01*
X1093682Y806775D01*
X1094433Y806273D01*
X1094886Y806183D01*
X1094977Y805729D01*
X1095478Y804978D01*
X1096229Y804477D01*
X1096683Y804387D01*
X1096773Y803933D01*
X1097274Y803182D01*
X1098025Y802681D01*
X1098479Y802590D01*
X1098569Y802137D01*
X1099071Y801386D01*
X1099821Y800885D01*
X1100275Y800795D01*
X1100365Y800341D01*
X1100867Y799590D01*
X1101617Y799089D01*
X1102071Y798998D01*
X1102161Y798545D01*
X1102663Y797794D01*
X1103413Y797292D01*
X1104299Y797116D01*
X1105185Y797292D01*
X1105936Y797794D01*
X1106438Y798545D01*
X1106528Y798998D01*
X1106981Y799089D01*
X1107732Y799590D01*
X1108233Y800341D01*
X1108324Y800795D01*
X1108777Y800885D01*
X1109528Y801386D01*
X1110030Y802137D01*
X1110120Y802590D01*
X1110573Y802681D01*
X1111324Y803182D01*
X1111826Y803933D01*
X1111916Y804387D01*
X1112369Y804477D01*
X1113120Y804978D01*
X1113622Y805729D01*
X1113712Y806183D01*
X1114165Y806273D01*
X1114916Y806775D01*
X1115418Y807525D01*
X1115508Y807979D01*
X1115961Y808069D01*
X1116712Y808570D01*
X1117214Y809321D01*
X1117304Y809775D01*
X1117757Y809865D01*
X1118508Y810367D01*
X1119010Y811117D01*
X1119100Y811571D01*
X1119553Y811661D01*
X1120304Y812163D01*
X1120806Y812914D01*
X1120896Y813367D01*
X1121349Y813457D01*
X1122100Y813959D01*
X1122602Y814710D01*
X1122692Y815163D01*
X1123145Y815253D01*
X1123896Y815755D01*
X1124398Y816506D01*
X1124488Y816959D01*
X1124941Y817049D01*
X1125692Y817551D01*
X1126194Y818302D01*
X1126284Y818755D01*
X1126738Y818845D01*
X1127488Y819347D01*
X1127990Y820098D01*
X1128080Y820551D01*
X1128533Y820641D01*
X1129284Y821143D01*
X1129786Y821894D01*
X1129962Y822779D01*
X1129786Y823665D01*
X1129284Y824416D01*
X1128533Y824918D01*
X1128080Y825008D01*
X1127990Y825461D01*
X1127488Y826212D01*
X1126738Y826714D01*
X1126284Y826804D01*
X1126194Y827257D01*
X1125692Y828008D01*
X1124941Y828510D01*
X1124488Y828600D01*
X1124398Y829053D01*
X1123896Y829804D01*
X1123145Y830306D01*
X1122692Y830396D01*
X1122602Y830849D01*
X1122100Y831600D01*
X1121349Y832102D01*
X1120896Y832192D01*
X1120806Y832645D01*
X1120304Y833396D01*
X1119553Y833898D01*
X1119100Y833988D01*
X1119010Y834442D01*
X1118508Y835192D01*
X1117757Y835694D01*
X1117304Y835784D01*
X1117214Y836237D01*
X1116712Y836988D01*
X1115961Y837490D01*
X1115508Y837580D01*
X1115418Y838034D01*
X1114916Y838784D01*
X1114165Y839286D01*
X1113712Y839376D01*
X1113622Y839830D01*
X1113120Y840581D01*
X1112369Y841082D01*
X1111916Y841172D01*
X1111826Y841626D01*
X1111324Y842377D01*
X1110573Y842878D01*
X1110120Y842969D01*
X1110030Y843422D01*
X1109528Y844173D01*
X1108777Y844674D01*
X1108324Y844764D01*
X1108233Y845218D01*
X1107732Y845969D01*
X1106981Y846470D01*
X1106528Y846561D01*
X1106438Y847014D01*
X1105936Y847765D01*
X1105185Y848267D01*
X1104732Y848357D01*
X1104641Y848810D01*
X1104140Y849561D01*
X1103389Y850062D01*
X1102935Y850153D01*
X1102845Y850606D01*
X1102344Y851357D01*
X1101593Y851859D01*
X1101140Y851949D01*
X1101049Y852402D01*
X1100548Y853153D01*
X1099797Y853655D01*
X1099343Y853745D01*
X1099253Y854198D01*
X1098752Y854949D01*
X1098001Y855451D01*
X1097547Y855541D01*
X1097457Y855994D01*
X1096955Y856745D01*
X1096205Y857247D01*
X1095751Y857337D01*
X1095661Y857790D01*
X1095160Y858541D01*
X1094409Y859043D01*
X1093955Y859133D01*
X1093865Y859586D01*
X1093363Y860337D01*
X1092613Y860839D01*
X1092159Y860929D01*
X1092069Y861382D01*
X1091567Y862133D01*
X1090816Y862635D01*
X1090363Y862725D01*
X1090273Y863178D01*
X1089771Y863929D01*
X1089020Y864431D01*
X1088567Y864521D01*
X1088477Y864974D01*
X1087975Y865725D01*
X1087224Y866227D01*
X1086339Y866403D01*
D02*
G37*
G36*
X1215951Y907093D02*
X1214960Y906896D01*
X1214120Y906334D01*
X1213559Y905494D01*
X1213362Y904503D01*
Y893519D01*
X1213559Y892528D01*
X1214120Y891687D01*
X1243342Y862465D01*
X1244182Y861904D01*
X1245173Y861707D01*
X1246164Y861904D01*
X1247005Y862465D01*
X1247566Y863306D01*
X1247763Y864296D01*
X1247566Y865288D01*
X1247005Y866128D01*
X1218541Y894591D01*
Y904503D01*
X1218344Y905494D01*
X1217783Y906334D01*
X1216942Y906896D01*
X1215951Y907093D01*
D02*
G37*
G36*
X944880Y900204D02*
X943994Y900028D01*
X943243Y899527D01*
X942742Y898776D01*
X942566Y897890D01*
X942742Y897004D01*
X943243Y896253D01*
X943994Y895752D01*
X944880Y895575D01*
X945766Y895752D01*
X946265Y896085D01*
X997908D01*
X1016503Y877491D01*
X1016620Y876902D01*
X1017121Y876151D01*
X1017872Y875650D01*
X1018758Y875473D01*
X1019644Y875650D01*
X1020395Y876151D01*
X1020896Y876902D01*
X1021072Y877788D01*
X1020896Y878674D01*
X1020395Y879425D01*
X1019644Y879926D01*
X1019055Y880043D01*
X999932Y899166D01*
X999346Y899557D01*
X998656Y899695D01*
X946265D01*
X945766Y900028D01*
X944880Y900204D01*
D02*
G37*
%LPD*%
D88*
X876070Y850414D02*
X887730Y838754D01*
X900430Y885059D02*
Y885190D01*
X893627Y857250D02*
X899521Y851355D01*
X922128Y879660D02*
X922679Y879109D01*
X913788Y888000D02*
X922128Y879660D01*
X982480Y890770D02*
X1028700Y844550D01*
X886460Y866140D02*
X887730Y867410D01*
X883690Y865803D02*
Y870415D01*
X882380Y864493D02*
X883690Y865803D01*
X888770Y869818D02*
X893515Y865073D01*
X888770Y869818D02*
Y872113D01*
X891540Y870965D02*
X891795D01*
X893561Y873735D02*
X893561Y873735D01*
X896933Y869712D02*
Y874280D01*
X893778Y877435D02*
X896933Y874280D01*
X893778Y877435D02*
Y877987D01*
X883690Y870415D02*
X890114Y876839D01*
X877340Y867983D02*
X883110Y873753D01*
X887730Y867410D02*
X890949Y864191D01*
Y861069D02*
Y864191D01*
X890040Y860160D02*
X890949Y861069D01*
X890040Y856210D02*
Y860160D01*
X888179Y861509D02*
Y862697D01*
X886460Y859790D02*
X888179Y861509D01*
X998656Y897890D02*
X1018758Y877788D01*
X944880Y897890D02*
X998656D01*
X891500Y829658D02*
X894546Y826612D01*
X899521Y830179D02*
X900586Y829114D01*
Y824110D02*
Y829114D01*
X899521Y823046D02*
X900586Y824110D01*
X901792Y831119D02*
Y844581D01*
Y831119D02*
X902856Y830054D01*
Y823170D02*
Y830054D01*
X901792Y822106D02*
X902856Y823170D01*
X901792Y799432D02*
Y822106D01*
X908050Y788670D02*
Y827933D01*
X907820Y828163D02*
X908050Y827933D01*
X907820Y828163D02*
Y850638D01*
X911834Y831983D02*
X913360Y830457D01*
Y802653D02*
Y830457D01*
Y802653D02*
X926310Y789703D01*
X914354Y832674D02*
Y855919D01*
Y832674D02*
X915630Y831398D01*
Y803593D02*
Y831398D01*
Y803593D02*
X928580Y790643D01*
X917900Y804533D02*
X930850Y791583D01*
X917900Y804533D02*
Y832338D01*
X916920Y833318D02*
X917900Y832338D01*
X916920Y833318D02*
Y858216D01*
X924560Y804648D02*
Y834390D01*
X926830Y805588D02*
X937910Y794508D01*
X926830Y805588D02*
Y832743D01*
X927330Y833243D01*
Y835537D01*
X925830Y837037D02*
X927330Y835537D01*
X925830Y837037D02*
Y839470D01*
X929600Y832302D02*
Y853587D01*
X929100Y831802D02*
X929600Y832302D01*
X929100Y806528D02*
Y831802D01*
Y806528D02*
X940180Y795448D01*
X852170Y753110D02*
X862330Y763270D01*
X778510Y689610D02*
Y737870D01*
X774700Y685800D02*
X778510Y689610D01*
X720090Y685800D02*
X774700D01*
X712470Y678180D02*
X720090Y685800D01*
X770890Y694690D02*
Y754380D01*
X821690Y779780D02*
X842010Y759460D01*
X858520Y817880D02*
X864870Y824230D01*
X893627Y857250D02*
X894080D01*
X890040Y856210D02*
X891540Y854710D01*
X901999Y844788D02*
Y853249D01*
X893957Y861290D02*
X901999Y853249D01*
X895785Y862673D02*
X907820Y850638D01*
X895785Y862673D02*
Y866975D01*
X893515Y861548D02*
X893773Y861290D01*
X893957D01*
X893515Y861548D02*
Y865073D01*
X899160Y863030D02*
Y864870D01*
X901930Y864640D02*
X906780Y859790D01*
X901930Y864640D02*
Y866017D01*
X900307Y867640D02*
X901930Y866017D01*
X898930Y867640D02*
X900307D01*
X897390Y869180D02*
X898930Y867640D01*
X905401Y864455D02*
X907788D01*
X904200Y865655D02*
X905401Y864455D01*
X904200Y865655D02*
Y866958D01*
X901248Y869910D02*
X904200Y866958D01*
X899945Y869910D02*
X901248D01*
X899203Y870652D02*
X899945Y869910D01*
X899203Y870652D02*
Y875220D01*
X901473Y873007D02*
Y876161D01*
Y873007D02*
X907755Y866725D01*
X908695Y868995D02*
X910074D01*
X903743Y873947D02*
X908695Y868995D01*
X903743Y873947D02*
Y877101D01*
X909636Y871265D02*
X912789D01*
X906013Y874887D02*
X909636Y871265D01*
X906013Y874887D02*
Y876596D01*
X906550Y877133D01*
X913553Y873711D02*
X918210Y869054D01*
X913553Y873711D02*
Y876596D01*
X911345Y878805D02*
X913553Y876596D01*
X908459Y878805D02*
X911345D01*
X906040Y881225D02*
X908459Y878805D01*
X915823Y876147D02*
X924560Y867410D01*
X915823Y876147D02*
Y877536D01*
X912285Y881075D02*
X915823Y877536D01*
X909625Y881075D02*
X912285D01*
X908309Y882391D02*
X909625Y881075D01*
X913225Y883345D02*
X921972Y874598D01*
X912744Y883345D02*
X913225D01*
X910807Y885282D02*
X912744Y883345D01*
X921576Y879109D02*
X922679D01*
X891795Y870965D02*
X895785Y866975D01*
X907755Y866725D02*
X908957D01*
X899160Y863030D02*
X907984Y854206D01*
X889292Y843240D02*
X891500Y841032D01*
X887770Y843240D02*
X889292D01*
X891500Y829658D02*
Y841032D01*
X868680Y807720D02*
X890270Y786130D01*
X868680Y807720D02*
Y890270D01*
X881110Y856873D02*
X882880Y858643D01*
X881110Y854170D02*
Y856873D01*
X882690Y861127D02*
X882880Y860937D01*
Y858643D02*
Y860937D01*
X881110Y854170D02*
X889460Y845820D01*
X878840Y858520D02*
X880110Y859790D01*
X878840Y852170D02*
Y858520D01*
X873800Y849474D02*
X876300Y846974D01*
Y839470D02*
Y846974D01*
X871530Y848534D02*
Y864489D01*
Y848534D02*
X872490Y847574D01*
Y810260D02*
Y847574D01*
Y810260D02*
X892810Y789940D01*
X871530Y864489D02*
X874345Y867304D01*
X882690Y861127D02*
Y864183D01*
X890270Y845820D02*
X896620Y839470D01*
X889460Y845820D02*
X890270D01*
X882380Y864493D02*
X882690Y864183D01*
X890393Y873735D02*
X893561D01*
X888770Y872113D02*
X890393Y873735D01*
X907788Y864455D02*
X911630Y860612D01*
X908957Y866725D02*
X914622Y861060D01*
X910074Y868995D02*
X916179Y862889D01*
X897390Y869180D02*
Y869255D01*
X896933Y869712D02*
X897390Y869255D01*
X912335Y890770D02*
X982480D01*
X911930Y890365D02*
X912335Y890770D01*
X906417Y890365D02*
X911930D01*
X913635Y888000D02*
X913788D01*
X905859Y890923D02*
X906417Y890365D01*
X906414Y888094D02*
X908037Y886472D01*
X902380Y888094D02*
X906414D01*
X902322Y888153D02*
X902380Y888094D01*
X905150Y883854D02*
Y885324D01*
X908037Y884177D02*
Y886472D01*
X908309Y882391D02*
Y883905D01*
X905150Y883854D02*
X906040Y882964D01*
X908037Y884177D02*
X908309Y883905D01*
X906040Y881225D02*
Y882964D01*
X894080Y895736D02*
Y896620D01*
X896975Y895421D02*
Y897819D01*
X893850Y900944D02*
X896975Y897819D01*
X888270Y889926D02*
X894080Y895736D01*
X890540Y884435D02*
Y888809D01*
X891225Y889494D01*
Y889671D01*
X896975Y895421D01*
X892810Y885375D02*
Y887869D01*
X899370Y894429D01*
X895350Y887199D02*
X901640Y893489D01*
X895350Y886045D02*
Y887199D01*
Y886045D02*
X900795Y880600D01*
X879059Y890981D02*
X891500Y903422D01*
X888270Y882943D02*
Y889926D01*
X892810Y885375D02*
X898525Y879660D01*
X900299Y885190D02*
X900430D01*
X896048Y878375D02*
X899203Y875220D01*
X921972Y874117D02*
Y874598D01*
X900795Y880049D02*
X903743Y877101D01*
X898525Y879109D02*
X901473Y876161D01*
X910807Y885282D02*
Y885324D01*
X905510Y907064D02*
Y908050D01*
X901700Y905510D02*
X902708D01*
X886337Y901470D02*
X889230Y904363D01*
X883437Y901470D02*
X886337D01*
X883920Y905510D02*
X886460D01*
X892903Y910083D02*
X907380Y924560D01*
X904240Y912699D02*
Y913130D01*
X902322Y910780D02*
X904240Y912699D01*
X895598Y908405D02*
X898805D01*
X901700Y905510D01*
X896803Y901378D02*
Y904985D01*
X893850Y900944D02*
Y906657D01*
X901640Y900263D02*
X905865Y904488D01*
X901640Y893489D02*
Y900263D01*
X885351Y910780D02*
X889230Y906901D01*
X907380Y924560D02*
X919480D01*
X876070Y850414D02*
Y860937D01*
X873800Y849474D02*
Y863549D01*
X878840Y852170D02*
X887770Y843240D01*
X876070Y860937D02*
X877693Y862560D01*
X873800Y863549D02*
X877340Y867089D01*
X878529Y862560D02*
X880110Y864141D01*
X877693Y862560D02*
X878529D01*
X931396Y456416D02*
X941467Y466487D01*
X950909D01*
X898995Y456416D02*
X931396D01*
X896803Y901378D02*
X899370Y898811D01*
X896620Y901561D02*
X896803Y901378D01*
X918210Y685385D02*
X925830Y693005D01*
X918210Y668127D02*
Y685385D01*
X918440Y663170D02*
Y667897D01*
X918210Y662940D02*
X918440Y663170D01*
X918210Y668127D02*
X918440Y667897D01*
X920835Y862352D02*
X929600Y853587D01*
X940180Y794040D02*
Y795448D01*
Y794040D02*
X982980Y751240D01*
X937910Y793100D02*
Y794508D01*
X885425Y922020D02*
X888179Y919266D01*
X885133Y910780D02*
X885351D01*
X868680Y890270D02*
X883920Y905510D01*
X889230Y904363D02*
Y906901D01*
X876866Y890981D02*
X879059D01*
X893850Y906657D02*
X895598Y908405D01*
X891500Y907528D02*
X892903Y908931D01*
X891500Y903422D02*
Y907528D01*
X905510Y896620D02*
X908050Y899160D01*
X885190Y922020D02*
X885425D01*
X877340Y867089D02*
Y867983D01*
X880110Y864141D02*
Y866140D01*
X924560Y804648D02*
X935640Y793568D01*
X930850Y790070D02*
X954310Y766610D01*
Y754410D02*
Y766610D01*
X928580Y789130D02*
X950310Y767400D01*
Y754410D02*
Y767400D01*
X944735Y755985D02*
X946310Y754410D01*
X944735Y755985D02*
X944735D01*
X944735D02*
Y769342D01*
X926310Y787767D02*
X944735Y769342D01*
X926310Y787767D02*
Y789703D01*
X982980Y741680D02*
Y751240D01*
X979170Y741680D02*
Y751840D01*
X937910Y793100D02*
X979170Y751840D01*
X975360Y741680D02*
Y752335D01*
X935640Y792055D02*
X975360Y752335D01*
X928580Y789130D02*
Y790643D01*
X890114Y876839D02*
X891008D01*
X891540Y850900D02*
Y854710D01*
X906550Y877133D02*
Y877504D01*
X898525Y879109D02*
Y879660D01*
X900795Y880049D02*
Y880600D01*
X903770Y880285D02*
Y881720D01*
Y880285D02*
X906550Y877504D01*
X912789Y871265D02*
X913446Y870608D01*
X906780Y859790D02*
X908888D01*
X680720Y759460D02*
X691385Y770126D01*
X696466D01*
X682097Y755543D02*
Y755650D01*
Y755543D02*
X692150Y745490D01*
X698500Y759460D02*
X704135D01*
X693420Y756920D02*
X697230Y753110D01*
Y748030D02*
Y753110D01*
X680720Y757027D02*
Y759460D01*
Y757027D02*
X682097Y755650D01*
X896620Y829870D02*
Y839470D01*
X907984Y854206D02*
X908939D01*
X911834Y831983D02*
Y855228D01*
X909360Y857702D02*
X911834Y855228D01*
X911630Y858643D02*
X914354Y855919D01*
X911630Y858643D02*
Y860612D01*
X914400Y859790D02*
Y860838D01*
X916179Y862889D02*
X917758D01*
X913446Y869010D02*
X917296Y865160D01*
X918698D01*
X918210Y868680D02*
Y869054D01*
X905510Y907064D02*
X905865Y906709D01*
X876564Y873760D02*
Y876564D01*
X877570Y877570D01*
X883920Y878270D02*
X885351Y876839D01*
X883920Y878270D02*
Y880110D01*
X891604Y879609D02*
X892155D01*
X888270Y882943D02*
X891604Y879609D01*
X859790Y902400D02*
X862724Y899467D01*
X896048Y878375D02*
Y878927D01*
X872794Y872198D02*
Y878126D01*
X874345Y879676D01*
Y889585D01*
X872794Y872198D02*
X874345Y870648D01*
Y867304D02*
Y870648D01*
X909360Y857702D02*
Y859318D01*
X908888Y859790D02*
X909360Y859318D01*
X892155Y879609D02*
X893778Y877987D01*
X900430Y885059D02*
X903770Y881720D01*
X913446Y869010D02*
Y870608D01*
X892903Y908931D02*
Y910083D01*
X905865Y904488D02*
Y906709D01*
X899370Y894429D02*
Y898811D01*
X935640Y792055D02*
Y793568D01*
X930850Y790070D02*
Y791583D01*
X876300Y839470D02*
X876300Y839470D01*
X887730Y838754D02*
Y839470D01*
X899224Y777731D02*
Y792100D01*
X901792Y799432D02*
X902291Y798932D01*
Y795166D02*
Y798932D01*
X899224Y792100D02*
X902291Y795166D01*
X901792Y844581D02*
X901999Y844788D01*
X899521Y830179D02*
Y851355D01*
Y797785D02*
Y823046D01*
X896620Y829870D02*
X898316Y828174D01*
Y825051D02*
Y828174D01*
X896454Y823189D02*
X898316Y825051D01*
X896454Y775272D02*
Y823189D01*
X895618Y774436D02*
X896454Y775272D01*
X891225Y883750D02*
X896048Y878927D01*
X890540Y884435D02*
X891225Y883750D01*
X918565Y859861D02*
Y862082D01*
X920835Y862352D02*
Y863023D01*
X916920Y858216D02*
X918565Y859861D01*
X914400Y860838D02*
X914622Y861060D01*
X918698Y865160D02*
X920835Y863023D01*
X917758Y862889D02*
X918565Y862082D01*
X874096Y889834D02*
Y892129D01*
Y889834D02*
X874345Y889585D01*
X874096Y892129D02*
X883437Y901470D01*
D89*
X737235Y824865D02*
X742358D01*
X737235D02*
X742424Y819676D01*
X749609Y812492D01*
X834390Y727710D01*
X781050Y497840D02*
Y541020D01*
X834390Y727710D02*
X877570D01*
X742358Y824865D02*
X786845Y869352D01*
X877570Y727710D02*
X878840Y726440D01*
Y638810D02*
Y726440D01*
X781050Y541020D02*
X878840Y638810D01*
D90*
X677920Y656590D02*
X734060D01*
X739140Y651510D01*
X744220D01*
X877570Y877570D02*
X883920Y880110D01*
X859790Y902400D02*
X859895Y879668D01*
X908050Y614680D02*
Y707390D01*
X848360Y554990D02*
X908050Y614680D01*
X915670Y666750D02*
Y676566D01*
X914596Y677640D02*
X915670Y676566D01*
X982980Y720090D02*
X985520Y717550D01*
Y693420D02*
Y717550D01*
X1050290Y681990D02*
Y709930D01*
X1045210Y681990D02*
Y706120D01*
Y681990D02*
X1046480Y680720D01*
X981710Y689610D02*
X985520Y693420D01*
X981710Y656590D02*
Y689610D01*
X977900Y698500D02*
X979170Y699770D01*
Y717242D01*
X966470Y706120D02*
X975360Y715010D01*
X966470Y647700D02*
Y706120D01*
X1064367Y986790D02*
X1065057Y986100D01*
X1064367Y986790D02*
X1065530D01*
X1058490Y986100D02*
X1065057D01*
X1043138Y1002030D02*
X1053298Y991870D01*
X1055279D01*
D91*
X714393Y711888D02*
X725170Y701111D01*
X908249Y894080D02*
X908519Y893810D01*
X937260Y731520D02*
X947420Y721360D01*
X908050Y788670D02*
X929640Y767080D01*
Y689800D02*
Y767080D01*
X907979Y893810D02*
X908249Y894080D01*
X897890Y944880D02*
X916940D01*
X684530Y661670D02*
X737870D01*
X741680Y657860D01*
X914596Y686070D02*
X920750Y692224D01*
X914596Y677640D02*
Y686070D01*
X921830Y681990D02*
X929640Y689800D01*
X920750Y692224D02*
Y768350D01*
X925830Y693005D02*
Y764540D01*
X685529Y740410D02*
X686836D01*
X683297Y742642D02*
X685529Y740410D01*
X683297Y742642D02*
Y743949D01*
X675406Y751840D02*
X683297Y743949D01*
X664210Y751840D02*
X675406D01*
X687107Y744220D02*
X688414D01*
X722630Y697230D02*
Y698262D01*
X710583Y710310D02*
X722630Y698262D01*
X710583Y710310D02*
Y719129D01*
X691572Y738140D02*
X710583Y719129D01*
X689106Y738140D02*
X691572D01*
X686836Y740410D02*
X689106Y738140D01*
X688414Y744220D02*
X690684Y741950D01*
X693150D02*
X714393Y720707D01*
X690684Y741950D02*
X693150D01*
X714393Y711888D02*
Y720707D01*
X741680Y657860D02*
X748030D01*
X879694Y926684D02*
X897890Y944880D01*
X879694Y916437D02*
Y926684D01*
X1242060Y877570D02*
X1259840Y859790D01*
Y848360D02*
Y859790D01*
Y848360D02*
X1273721Y834479D01*
Y822960D02*
Y834479D01*
X1207770Y886460D02*
X1240337Y853893D01*
X1251592D01*
X1215951Y893519D02*
Y904503D01*
Y893519D02*
X1245173Y864296D01*
X1124421Y972681D02*
X1127760Y969342D01*
X1043883Y1014730D02*
X1048962Y1009650D01*
X1018540Y1014730D02*
X1043883D01*
X1017270Y1013460D02*
X1018540Y1014730D01*
X1021151Y1010920D02*
X1031240D01*
X1019150Y1008920D02*
X1021151Y1010920D01*
X1015389Y1008920D02*
X1019150D01*
X1013389Y1010920D02*
X1015389Y1008920D01*
X1004570Y1010920D02*
X1013389D01*
X1031240D02*
X1033780Y1008380D01*
X953770Y1008890D02*
X969520Y993140D01*
X928370Y1008380D02*
X941070D01*
X946120Y1013430D01*
X982119D01*
X986659Y1008890D01*
X991870D01*
X993900Y1010920D02*
X1004570D01*
X991870Y1008890D02*
X993900Y1010920D01*
X1043138Y1002030D02*
X1046650Y1005542D01*
X987098Y1002030D02*
X1043138D01*
X983710Y1005418D02*
X987098Y1002030D01*
X983710Y1005418D02*
Y1006451D01*
X981050Y1009110D02*
X983710Y1006451D01*
X966690Y1009110D02*
X981050D01*
X966470Y1008890D02*
X966690Y1009110D01*
X725170Y701111D02*
Y702310D01*
X767080Y704850D02*
Y715010D01*
X760730Y712470D02*
Y715972D01*
X758190Y718512D02*
X760730Y715972D01*
X937260Y731520D02*
Y763270D01*
X947420Y721360D02*
X949325Y719455D01*
Y697865D02*
Y719455D01*
X951230Y687070D02*
X953770D01*
X956310Y689610D01*
X759460Y735330D02*
X760730Y734060D01*
Y724208D02*
Y734060D01*
X758190Y721668D02*
X760730Y724208D01*
X758190Y718512D02*
Y721668D01*
X925830Y669290D02*
X941070D01*
X762000Y720090D02*
X767080Y715010D01*
X923290Y664210D02*
X942340D01*
X704135Y737315D02*
Y759460D01*
Y737315D02*
X712470Y728980D01*
X908519Y893810D02*
X913635D01*
X872490Y905510D02*
X874424D01*
X876866Y907952D01*
X702310Y605790D02*
X712470D01*
X685960Y622140D02*
X702310Y605790D01*
X1127760Y941070D02*
Y969342D01*
Y941070D02*
X1159510D01*
X1173480Y927100D01*
X1040130Y967842D02*
X1073048D01*
X1073736Y968529D01*
X1077020D02*
X1078230Y969739D01*
X1073736Y968529D02*
X1077020D01*
X1014832Y993140D02*
X1040130Y967842D01*
X969520Y993140D02*
X1014832D01*
X979170Y1004570D02*
X986790Y996950D01*
X1016410D01*
X1030380Y982980D01*
X1055370D01*
X1058490Y986100D01*
X1078230Y969739D02*
Y987914D01*
X1048962Y1009650D02*
X1056494D01*
X1078230Y987914D01*
X1058490Y986100D02*
X1058819Y986429D01*
X1058490Y1001233D02*
X1058819Y1000904D01*
Y986429D02*
Y1000904D01*
D96*
X910590Y802036D02*
Y829310D01*
X922020Y803801D02*
X933245Y792576D01*
X922020Y803801D02*
Y832836D01*
X921665Y833191D02*
X922020Y832836D01*
X921665Y833191D02*
Y856895D01*
X982980Y720090D02*
Y741680D01*
X759460Y735330D02*
Y767080D01*
X812800Y793750D02*
X817880D01*
X857250Y833120D01*
X850900Y836930D02*
X854710D01*
X762000Y720090D02*
X763895Y721985D01*
Y762085D01*
X762355Y763625D02*
X763895Y762085D01*
X808990Y792480D02*
Y795020D01*
X850900Y836930D01*
X953770Y725170D02*
X956310Y722630D01*
X942340Y731520D02*
X953770Y720090D01*
Y694690D02*
Y720090D01*
Y694690D02*
X956310Y692150D01*
Y689610D02*
Y692150D01*
X923915Y786775D02*
X942340Y768350D01*
Y731520D02*
Y768350D01*
X971550Y725170D02*
Y752758D01*
X956310Y722630D02*
X969010D01*
X971550Y725170D01*
X933245Y791063D02*
X971550Y752758D01*
X923915Y786775D02*
Y788711D01*
X933245Y791063D02*
Y792576D01*
X910590Y802036D02*
X923915Y788711D01*
X975360Y715010D02*
Y741680D01*
X979170Y717242D02*
Y741680D01*
X921665Y856895D02*
X922020Y857250D01*
D99*
X1028700Y844550D02*
D03*
X886460Y866140D02*
D03*
X891540Y870965D02*
D03*
X893561Y873735D02*
D03*
X883110Y873753D02*
D03*
X888179Y862697D02*
D03*
X944880Y897890D02*
D03*
X1018758Y877788D02*
D03*
X921830Y681990D02*
D03*
X900299Y885190D02*
D03*
X902321Y888153D02*
D03*
X905150Y885324D02*
D03*
X910807D02*
D03*
X913635Y888000D02*
D03*
X921576Y879109D02*
D03*
X921972Y874117D02*
D03*
X918210Y868680D02*
D03*
X924560Y867410D02*
D03*
X891008Y876839D02*
D03*
X880110Y866140D02*
D03*
Y859790D02*
D03*
X894080Y857250D02*
D03*
X908939Y854206D02*
D03*
X1129030Y941070D02*
D03*
X797560Y862330D02*
D03*
X899521Y797785D02*
D03*
X899224Y777731D02*
D03*
X895618Y774436D02*
D03*
X946310Y754410D02*
D03*
X950310D02*
D03*
X954310Y754410D02*
D03*
X953770Y725170D02*
D03*
X947420Y721360D02*
D03*
X759460Y735330D02*
D03*
X762000Y720090D02*
D03*
X687107Y744220D02*
D03*
X593090Y828040D02*
D03*
X894546Y826612D02*
D03*
X910590Y829310D02*
D03*
X924560Y834390D02*
D03*
X862330Y763270D02*
D03*
X852170Y753110D02*
D03*
X778510Y737870D02*
D03*
X712470Y678180D02*
D03*
X770890Y694690D02*
D03*
X767080Y636270D02*
D03*
D03*
X772160Y631190D02*
D03*
D03*
X772160Y636270D02*
D03*
D03*
X769620Y636270D02*
D03*
D03*
X764540Y631190D02*
D03*
D03*
X767080Y631190D02*
D03*
D03*
X764540Y633730D02*
D03*
D03*
X764540Y636270D02*
D03*
D03*
X769620Y631190D02*
D03*
D03*
X767080Y628650D02*
D03*
D03*
X769620Y628650D02*
D03*
D03*
X772160Y633730D02*
D03*
D03*
X769620Y633730D02*
D03*
D03*
X770890Y754380D02*
D03*
X842010Y759460D02*
D03*
X821690Y779780D02*
D03*
X858520Y817880D02*
D03*
X864870Y824230D02*
D03*
X899160Y864870D02*
D03*
X909783Y875035D02*
D03*
D03*
X881380Y834390D02*
D03*
X907979Y893810D02*
D03*
X905859Y890923D02*
D03*
X894080Y896620D02*
D03*
X905510Y908050D02*
D03*
X893836Y919266D02*
D03*
X902708Y905510D02*
D03*
X886460D02*
D03*
X904240Y913130D02*
D03*
X902322Y910780D02*
D03*
X896803Y904985D02*
D03*
X677920Y656590D02*
D03*
X684530Y661670D02*
D03*
X744220Y651510D02*
D03*
X1202711Y701717D02*
D03*
D03*
X1187495Y751590D02*
D03*
D03*
X950909Y466487D02*
D03*
X898995Y456416D02*
D03*
D03*
X937260Y880110D02*
D03*
D03*
X1216261Y847090D02*
D03*
D03*
X1218057Y845294D02*
D03*
D03*
X1219854Y843498D02*
D03*
D03*
X1221650Y841702D02*
D03*
D03*
X1218058Y848886D02*
D03*
D03*
X1219853Y847089D02*
D03*
D03*
X1221649Y845294D02*
D03*
D03*
X1223445Y843497D02*
D03*
D03*
X1219853Y850682D02*
D03*
D03*
X1221650Y848886D02*
D03*
D03*
X1223446Y847090D02*
D03*
D03*
X1225242Y845294D02*
D03*
D03*
X1221650Y852478D02*
D03*
D03*
X1223446Y850682D02*
D03*
D03*
X1225242Y848886D02*
D03*
D03*
X1227038Y847090D02*
D03*
D03*
X1228834Y848886D02*
D03*
D03*
X1227038Y850682D02*
D03*
D03*
X1225242Y852478D02*
D03*
D03*
X1223446Y854274D02*
D03*
D03*
X1164255Y904398D02*
D03*
D03*
X1166051Y902602D02*
D03*
D03*
X1167848Y900806D02*
D03*
D03*
X1169643Y899010D02*
D03*
D03*
X1166051Y906194D02*
D03*
D03*
X1167847Y904398D02*
D03*
D03*
X1169643Y902602D02*
D03*
D03*
X1171439Y900806D02*
D03*
D03*
X1167847Y907990D02*
D03*
D03*
X1169643Y906194D02*
D03*
D03*
X1171440Y904398D02*
D03*
D03*
X1173235Y902602D02*
D03*
D03*
X1169643Y909786D02*
D03*
D03*
X1171439Y907990D02*
D03*
D03*
X1173236Y906194D02*
D03*
D03*
X1175032Y904398D02*
D03*
D03*
X1176827Y906194D02*
D03*
D03*
X1175032Y907990D02*
D03*
D03*
X1173235Y909786D02*
D03*
D03*
X1171439Y911582D02*
D03*
D03*
X1151981Y911951D02*
D03*
D03*
X1154181Y910681D02*
D03*
D03*
X1156381Y909411D02*
D03*
D03*
X1158580Y908141D02*
D03*
D03*
X1153251Y914150D02*
D03*
D03*
X1155450Y912880D02*
D03*
D03*
X1157651Y911611D02*
D03*
D03*
X1159850Y910340D02*
D03*
D03*
X1154521Y916350D02*
D03*
D03*
X1156721Y915080D02*
D03*
D03*
X1158921Y913811D02*
D03*
D03*
X1161120Y912540D02*
D03*
D03*
X1155791Y918550D02*
D03*
D03*
X1157991Y917280D02*
D03*
D03*
X1160190Y916010D02*
D03*
D03*
X1162390Y914740D02*
D03*
D03*
X1163660Y916940D02*
D03*
D03*
X1161460Y918210D02*
D03*
D03*
X1159261Y919480D02*
D03*
D03*
X1157061Y920750D02*
D03*
D03*
X1085941Y950051D02*
D03*
D03*
X1088141Y948781D02*
D03*
D03*
X1090341Y947511D02*
D03*
D03*
X1092540Y946241D02*
D03*
D03*
X1087211Y952251D02*
D03*
D03*
X1089410Y950980D02*
D03*
D03*
X1091610Y949711D02*
D03*
D03*
X1093810Y948440D02*
D03*
D03*
X1088481Y954450D02*
D03*
D03*
X1090681Y953180D02*
D03*
D03*
X1092881Y951910D02*
D03*
D03*
X1095080Y950640D02*
D03*
D03*
X1089751Y956650D02*
D03*
D03*
X1091951Y955380D02*
D03*
D03*
X1094150Y954110D02*
D03*
D03*
X1096350Y952840D02*
D03*
D03*
X1097620Y955040D02*
D03*
D03*
X1095421Y956310D02*
D03*
D03*
X1093221Y957580D02*
D03*
D03*
X1091021Y958850D02*
D03*
D03*
X1082362Y962383D02*
D03*
D03*
X1079976Y963251D02*
D03*
D03*
X1077589Y964120D02*
D03*
D03*
X1075202Y964989D02*
D03*
D03*
X1081493Y959996D02*
D03*
D03*
X1079107Y960865D02*
D03*
D03*
X1076720Y961733D02*
D03*
D03*
X1074333Y962602D02*
D03*
D03*
X1080625Y957609D02*
D03*
D03*
X1078238Y958478D02*
D03*
D03*
X1075851Y959346D02*
D03*
D03*
X1073464Y960215D02*
D03*
D03*
X1079756Y955222D02*
D03*
D03*
X1077369Y956091D02*
D03*
D03*
X1074982Y956960D02*
D03*
D03*
X1072596Y957828D02*
D03*
D03*
X1071727Y955442D02*
D03*
D03*
X1074114Y954573D02*
D03*
D03*
X1076501Y953704D02*
D03*
D03*
X1078887Y952835D02*
D03*
D03*
X1009972Y986513D02*
D03*
D03*
X1007586Y987382D02*
D03*
D03*
X1005199Y988250D02*
D03*
D03*
X1002812Y989119D02*
D03*
D03*
X1009103Y984126D02*
D03*
D03*
X1006717Y984995D02*
D03*
D03*
X1004330Y985863D02*
D03*
D03*
X1001943Y986732D02*
D03*
D03*
X1008235Y981739D02*
D03*
D03*
X1005848Y982608D02*
D03*
D03*
X1003461Y983476D02*
D03*
D03*
X1001074Y984345D02*
D03*
D03*
X1007366Y979352D02*
D03*
D03*
X1004979Y980221D02*
D03*
D03*
X1002592Y981090D02*
D03*
D03*
X1000206Y981958D02*
D03*
D03*
X999337Y979572D02*
D03*
D03*
X1001724Y978703D02*
D03*
D03*
X1004111Y977834D02*
D03*
D03*
X1006497Y976965D02*
D03*
D03*
X760693Y802023D02*
D03*
D03*
X758897Y803820D02*
D03*
D03*
X757101Y805616D02*
D03*
D03*
X755305Y807412D02*
D03*
D03*
X758897Y800228D02*
D03*
D03*
X757101Y802024D02*
D03*
D03*
X755305Y803820D02*
D03*
D03*
X753509Y805616D02*
D03*
D03*
X757101Y798432D02*
D03*
D03*
X755305Y800228D02*
D03*
D03*
X753509Y802023D02*
D03*
D03*
X751713Y803820D02*
D03*
D03*
X755305Y796635D02*
D03*
D03*
X753509Y798431D02*
D03*
D03*
X751713Y800228D02*
D03*
D03*
X749917Y802024D02*
D03*
D03*
X748121Y800228D02*
D03*
D03*
X749917Y798431D02*
D03*
D03*
X751713Y796635D02*
D03*
D03*
X753509Y794839D02*
D03*
D03*
X733752Y814596D02*
D03*
X735548Y812800D02*
D03*
X731957Y816392D02*
D03*
X728364Y819984D02*
D03*
X730160Y818188D02*
D03*
X731956Y819984D02*
D03*
X735548Y816392D02*
D03*
X733752Y818188D02*
D03*
X735548Y819984D02*
D03*
X737344Y814596D02*
D03*
X739140Y816392D02*
D03*
X737344Y818188D02*
D03*
X739140Y819984D02*
D03*
X740936Y821780D02*
D03*
X740936Y818188D02*
D03*
X742732Y819984D02*
D03*
X726568Y821780D02*
D03*
X722976Y825372D02*
D03*
X724772Y823576D02*
D03*
X724772Y827168D02*
D03*
X726568Y828964D02*
D03*
X726568Y825372D02*
D03*
X728364Y823576D02*
D03*
X728363Y827168D02*
D03*
X730160Y821780D02*
D03*
X731956Y823576D02*
D03*
X733752Y821780D02*
D03*
X737345Y821780D02*
D03*
X735548Y823576D02*
D03*
X739140Y823576D02*
D03*
X730160Y828964D02*
D03*
X731956Y827168D02*
D03*
X728364Y830760D02*
D03*
X730160Y832556D02*
D03*
X731956Y830760D02*
D03*
X733752Y825372D02*
D03*
X737344Y825372D02*
D03*
X733752Y828964D02*
D03*
X735548Y827168D02*
D03*
X730160Y825372D02*
D03*
X739140Y812800D02*
D03*
D03*
X740936Y814596D02*
D03*
D03*
X740936Y818188D02*
D03*
X740936Y821780D02*
D03*
X739140Y809207D02*
D03*
X740936Y807411D02*
D03*
X739140Y809207D02*
D03*
X740936Y811004D02*
D03*
D03*
X742732Y805615D02*
D03*
X740936Y807411D02*
D03*
X742732Y805615D02*
D03*
X742732Y809208D02*
D03*
D03*
X742732Y812800D02*
D03*
D03*
X746324Y809207D02*
D03*
D03*
X744528Y811004D02*
D03*
D03*
X746325Y812800D02*
D03*
X744529Y814596D02*
D03*
D03*
X746325Y812800D02*
D03*
X748120Y814596D02*
D03*
D03*
X746325Y816392D02*
D03*
D03*
X744529Y818187D02*
D03*
X742732Y819984D02*
D03*
X739140Y823576D02*
D03*
X737344Y825372D02*
D03*
X733752Y828964D02*
D03*
X730160Y832556D02*
D03*
X728364Y830760D02*
D03*
X731956Y830760D02*
D03*
X730160Y828964D02*
D03*
X728363Y827168D02*
D03*
X726568Y828964D02*
D03*
X726568Y825372D02*
D03*
X724772Y827168D02*
D03*
X724772Y823576D02*
D03*
X722976Y825372D02*
D03*
X735548Y827168D02*
D03*
X731956Y827168D02*
D03*
X733752Y825372D02*
D03*
X731956Y823576D02*
D03*
X733752Y821780D02*
D03*
X737344Y818188D02*
D03*
X748120Y807412D02*
D03*
X749917Y805615D02*
D03*
X753508Y809207D02*
D03*
X751713Y807411D02*
D03*
D03*
X748120Y803819D02*
D03*
D03*
X746324Y802023D02*
D03*
D03*
X751713Y811004D02*
D03*
D03*
X749916Y812800D02*
D03*
D03*
X748120Y811003D02*
D03*
D03*
X744528Y807411D02*
D03*
D03*
X749917Y809208D02*
D03*
D03*
X748120Y807412D02*
D03*
X746324Y805615D02*
D03*
D03*
X744528Y803819D02*
D03*
D03*
X739140Y816392D02*
D03*
X735548Y819984D02*
D03*
X730160Y821780D02*
D03*
X728364Y823576D02*
D03*
X726568Y821780D02*
D03*
X728364Y819984D02*
D03*
X735548Y823576D02*
D03*
X731956Y819984D02*
D03*
X730160Y818188D02*
D03*
X737345Y821780D02*
D03*
X733752Y818188D02*
D03*
X731957Y816392D02*
D03*
X739140Y819984D02*
D03*
X735548Y816392D02*
D03*
X733752Y814596D02*
D03*
X737344Y814596D02*
D03*
X735548Y812800D02*
D03*
X744529Y818187D02*
D03*
X742732Y816392D02*
D03*
D03*
X737344Y811003D02*
D03*
D03*
X769275Y519085D02*
D03*
D03*
X771070Y520881D02*
D03*
X772867Y519085D02*
D03*
X771070Y520881D02*
D03*
X772867Y519085D02*
D03*
X774663Y520881D02*
D03*
D03*
X772867Y522677D02*
D03*
D03*
X774663Y524473D02*
D03*
X776459Y519085D02*
D03*
D03*
X774663Y524473D02*
D03*
X776459Y522677D02*
D03*
Y526269D02*
D03*
Y522677D02*
D03*
Y526269D02*
D03*
X780051Y519085D02*
D03*
D03*
X778255Y520881D02*
D03*
Y524473D02*
D03*
Y520881D02*
D03*
X780051Y522677D02*
D03*
D03*
X778255Y524473D02*
D03*
X781847Y520881D02*
D03*
D03*
X783643Y519085D02*
D03*
X771070Y506512D02*
D03*
D03*
X772867Y508308D02*
D03*
X769275D02*
D03*
D03*
X771070Y510104D02*
D03*
D03*
X772867Y508308D02*
D03*
Y511900D02*
D03*
X769275D02*
D03*
D03*
X771070Y513696D02*
D03*
X772867Y511900D02*
D03*
X771070Y513696D02*
D03*
X774663Y506512D02*
D03*
Y513696D02*
D03*
D03*
X781847Y506512D02*
D03*
D03*
X785439D02*
D03*
X789031D02*
D03*
X774663D02*
D03*
Y510104D02*
D03*
D03*
X776459Y508308D02*
D03*
D03*
Y511900D02*
D03*
D03*
X778255Y506512D02*
D03*
D03*
X780051Y508308D02*
D03*
X778255Y510104D02*
D03*
D03*
Y513696D02*
D03*
X780051Y511900D02*
D03*
D03*
Y508308D02*
D03*
X783643D02*
D03*
D03*
X781847Y510104D02*
D03*
D03*
X783643Y511900D02*
D03*
D03*
X781847Y513696D02*
D03*
D03*
X785439Y510104D02*
D03*
Y506512D02*
D03*
X787235Y508308D02*
D03*
D03*
X785439Y513696D02*
D03*
Y510104D02*
D03*
X787235Y511900D02*
D03*
D03*
X785439Y513696D02*
D03*
X789031Y506512D02*
D03*
X792623D02*
D03*
X790827Y508308D02*
D03*
X792623Y506512D02*
D03*
X789031Y510104D02*
D03*
D03*
X790827Y508308D02*
D03*
Y511900D02*
D03*
X792623Y510104D02*
D03*
X789031Y513696D02*
D03*
X790827Y511900D02*
D03*
X789031Y513696D02*
D03*
X792623Y510104D02*
D03*
X771070Y492144D02*
D03*
X772867Y490348D02*
D03*
D03*
X771070Y495736D02*
D03*
D03*
X769275Y497532D02*
D03*
Y501124D02*
D03*
Y497532D02*
D03*
X771070Y492144D02*
D03*
X772867Y493940D02*
D03*
D03*
X771070Y499328D02*
D03*
D03*
X772867Y497532D02*
D03*
D03*
Y501124D02*
D03*
X769275D02*
D03*
Y504716D02*
D03*
D03*
X771070Y502920D02*
D03*
D03*
X772867Y501124D02*
D03*
Y504716D02*
D03*
D03*
X774663Y488552D02*
D03*
D03*
Y495736D02*
D03*
Y502920D02*
D03*
D03*
Y499328D02*
D03*
X776459Y486755D02*
D03*
D03*
X780051D02*
D03*
X778255Y488552D02*
D03*
D03*
X780051Y486755D02*
D03*
Y490348D02*
D03*
X783643Y486755D02*
D03*
D03*
X781847Y488552D02*
D03*
D03*
X785439D02*
D03*
X783643Y490348D02*
D03*
D03*
X785439Y488552D02*
D03*
X789031D02*
D03*
D03*
X774663Y492144D02*
D03*
X776459Y490348D02*
D03*
D03*
X774663Y492144D02*
D03*
Y495736D02*
D03*
X776459Y493940D02*
D03*
X778255Y492144D02*
D03*
X776459Y493940D02*
D03*
X780051Y490348D02*
D03*
X778255Y492144D02*
D03*
X780051Y493940D02*
D03*
X781847Y492144D02*
D03*
D03*
X778255Y495736D02*
D03*
D03*
X780051Y493940D02*
D03*
X781847Y495736D02*
D03*
D03*
X776459Y497532D02*
D03*
X774663Y499328D02*
D03*
X776459Y497532D02*
D03*
X778255Y499328D02*
D03*
D03*
X776459Y504716D02*
D03*
Y501124D02*
D03*
Y504716D02*
D03*
Y501124D02*
D03*
X780051Y497532D02*
D03*
D03*
Y501124D02*
D03*
X778255Y502920D02*
D03*
D03*
X780051Y504716D02*
D03*
Y501124D02*
D03*
Y504716D02*
D03*
X783643Y493940D02*
D03*
D03*
X785439Y492144D02*
D03*
D03*
X781847Y499328D02*
D03*
X783643Y497532D02*
D03*
X781847Y499328D02*
D03*
X783643Y497532D02*
D03*
X787235Y490348D02*
D03*
D03*
Y493940D02*
D03*
D03*
X785439Y499328D02*
D03*
Y495736D02*
D03*
D03*
X787235Y497532D02*
D03*
D03*
X783643Y501124D02*
D03*
D03*
X785439Y499328D02*
D03*
X781847Y502920D02*
D03*
D03*
X783643Y504716D02*
D03*
D03*
X787235Y501124D02*
D03*
X785439Y502920D02*
D03*
X787235Y501124D02*
D03*
X789031Y502920D02*
D03*
X785439D02*
D03*
X787235Y504716D02*
D03*
D03*
X789031Y492144D02*
D03*
D03*
X790827Y493940D02*
D03*
X789031Y495736D02*
D03*
X790827Y493940D02*
D03*
X792623Y495736D02*
D03*
X789031D02*
D03*
X790827Y497532D02*
D03*
X792623Y495736D02*
D03*
X790827Y497532D02*
D03*
X789031Y499328D02*
D03*
D03*
X792623D02*
D03*
D03*
X790827Y501124D02*
D03*
X789031Y502920D02*
D03*
X790827Y501124D02*
D03*
Y504716D02*
D03*
X792623Y502920D02*
D03*
X790827Y504716D02*
D03*
X792623Y502920D02*
D03*
X781847Y517288D02*
D03*
D03*
X798011Y465203D02*
D03*
X799807Y466999D02*
D03*
X801603Y468795D02*
D03*
X803399Y470591D02*
D03*
X805195Y472387D02*
D03*
X806992Y474183D02*
D03*
X808788Y475979D02*
D03*
X810584Y477775D02*
D03*
X812380Y479571D02*
D03*
X814176Y481367D02*
D03*
D03*
X792623Y470591D02*
D03*
X794419Y468795D02*
D03*
X792623Y474183D02*
D03*
Y477775D02*
D03*
X794419Y472387D02*
D03*
X796215Y470591D02*
D03*
X794419Y475979D02*
D03*
X796215Y474183D02*
D03*
X794419Y479571D02*
D03*
Y483163D02*
D03*
X796215Y466999D02*
D03*
X798011Y468795D02*
D03*
Y472387D02*
D03*
X799807Y470591D02*
D03*
X801603Y472387D02*
D03*
X798011Y475979D02*
D03*
X799807Y474183D02*
D03*
X796215Y477775D02*
D03*
X799807D02*
D03*
X798011Y479571D02*
D03*
X803399Y474183D02*
D03*
X801603Y475979D02*
D03*
Y479571D02*
D03*
X805195Y475979D02*
D03*
X803399Y477775D02*
D03*
Y481367D02*
D03*
X805195Y479571D02*
D03*
X806992Y477775D02*
D03*
X808788Y479571D02*
D03*
X796215Y481367D02*
D03*
X799807D02*
D03*
X798011Y483163D02*
D03*
X801603D02*
D03*
X806992Y481367D02*
D03*
X805195Y483163D02*
D03*
X796215Y484959D02*
D03*
X799807D02*
D03*
X801603Y486755D02*
D03*
X803399Y484959D02*
D03*
X805195Y486755D02*
D03*
X808788Y483163D02*
D03*
X810584Y481367D02*
D03*
X806992Y484959D02*
D03*
X812380Y483163D02*
D03*
X810584Y484959D02*
D03*
D03*
X812380Y483163D02*
D03*
X806992Y484959D02*
D03*
X789031Y474183D02*
D03*
Y477775D02*
D03*
X790827Y472387D02*
D03*
Y475979D02*
D03*
X787235Y479571D02*
D03*
X790827D02*
D03*
X787235Y483163D02*
D03*
X789031Y481367D02*
D03*
Y484959D02*
D03*
X792623Y481367D02*
D03*
X790827Y483163D02*
D03*
Y486755D02*
D03*
X792623Y484959D02*
D03*
X794419Y486755D02*
D03*
X792623Y488552D02*
D03*
X794419Y490348D02*
D03*
X798011Y486755D02*
D03*
X796215Y488552D02*
D03*
X799807D02*
D03*
X803399D02*
D03*
X806992D02*
D03*
X808788Y486755D02*
D03*
X798011Y490348D02*
D03*
X801603D02*
D03*
X805195D02*
D03*
D03*
X801603D02*
D03*
X798011D02*
D03*
X808788Y486755D02*
D03*
X806992Y488552D02*
D03*
X803399D02*
D03*
X799807D02*
D03*
X796215D02*
D03*
X798011Y486755D02*
D03*
X794419Y490348D02*
D03*
X792623Y488552D02*
D03*
X794419Y486755D02*
D03*
X792623Y484959D02*
D03*
X790827Y486755D02*
D03*
Y483163D02*
D03*
X792623Y481367D02*
D03*
X789031Y484959D02*
D03*
Y481367D02*
D03*
X787235Y483163D02*
D03*
X790827Y479571D02*
D03*
X787235D02*
D03*
X790827Y475979D02*
D03*
Y472387D02*
D03*
X789031Y477775D02*
D03*
Y474183D02*
D03*
X810584Y481367D02*
D03*
X808788Y483163D02*
D03*
X805195Y486755D02*
D03*
X803399Y484959D02*
D03*
X801603Y486755D02*
D03*
X799807Y484959D02*
D03*
X796215D02*
D03*
X805195Y483163D02*
D03*
X806992Y481367D02*
D03*
X801603Y483163D02*
D03*
X798011D02*
D03*
X799807Y481367D02*
D03*
X796215D02*
D03*
X808788Y479571D02*
D03*
X806992Y477775D02*
D03*
X805195Y479571D02*
D03*
X803399Y481367D02*
D03*
Y477775D02*
D03*
X805195Y475979D02*
D03*
X801603Y479571D02*
D03*
Y475979D02*
D03*
X803399Y474183D02*
D03*
X798011Y479571D02*
D03*
X799807Y477775D02*
D03*
X796215D02*
D03*
X799807Y474183D02*
D03*
X798011Y475979D02*
D03*
X801603Y472387D02*
D03*
X799807Y470591D02*
D03*
X798011Y472387D02*
D03*
Y468795D02*
D03*
X796215Y466999D02*
D03*
X794419Y483163D02*
D03*
Y479571D02*
D03*
X796215Y474183D02*
D03*
X794419Y475979D02*
D03*
X796215Y470591D02*
D03*
X794419Y472387D02*
D03*
X792623Y477775D02*
D03*
Y474183D02*
D03*
X794419Y468795D02*
D03*
X792623Y470591D02*
D03*
X812380Y479571D02*
D03*
X810584Y477775D02*
D03*
X808788Y475979D02*
D03*
X806992Y474183D02*
D03*
X805195Y472387D02*
D03*
X803399Y470591D02*
D03*
X801603Y468795D02*
D03*
X799807Y466999D02*
D03*
X798011Y465203D02*
D03*
X778255Y517288D02*
D03*
X780051Y515492D02*
D03*
D03*
X778255Y517288D02*
D03*
X776459Y515492D02*
D03*
X774663Y517288D02*
D03*
X758498Y504716D02*
D03*
X762090D02*
D03*
X756702Y506512D02*
D03*
X760294D02*
D03*
X758498Y508308D02*
D03*
X762090D02*
D03*
X760294Y510104D02*
D03*
X763886Y506512D02*
D03*
Y510104D02*
D03*
X765682Y508308D02*
D03*
X762090Y511900D02*
D03*
X763886Y513696D02*
D03*
X765682Y504716D02*
D03*
X767478Y506512D02*
D03*
Y510104D02*
D03*
X765682Y515492D02*
D03*
Y511900D02*
D03*
X767478Y513696D02*
D03*
Y517288D02*
D03*
X769275Y515492D02*
D03*
X772867D02*
D03*
D03*
X769275D02*
D03*
X767478Y517288D02*
D03*
Y513696D02*
D03*
X765682Y511900D02*
D03*
Y515492D02*
D03*
X767478Y510104D02*
D03*
Y506512D02*
D03*
X765682Y504716D02*
D03*
X763886Y513696D02*
D03*
X762090Y511900D02*
D03*
X765682Y508308D02*
D03*
X763886Y510104D02*
D03*
Y506512D02*
D03*
X760294Y510104D02*
D03*
X762090Y508308D02*
D03*
X758498D02*
D03*
X760294Y506512D02*
D03*
X756702D02*
D03*
X762090Y504716D02*
D03*
X758498D02*
D03*
X776459Y515492D02*
D03*
X783643D02*
D03*
D03*
X785439Y517288D02*
D03*
X787235Y515492D02*
D03*
D03*
X785439Y517288D02*
D03*
X749917Y805615D02*
D03*
X753508Y809207D02*
D03*
X730160Y825372D02*
D03*
X908050Y707390D02*
D03*
X848360Y554990D02*
D03*
X915670Y666750D02*
D03*
X918210Y662940D02*
D03*
X1078320Y806360D02*
D03*
D03*
X873234Y558274D02*
D03*
Y554682D02*
D03*
Y551090D02*
D03*
X871438Y549294D02*
D03*
X867846D02*
D03*
X864254D02*
D03*
X1100727Y586064D02*
D03*
X1102673Y584432D02*
D03*
X1106252Y584745D02*
D03*
X1104306Y586377D02*
D03*
X1099095Y584118D02*
D03*
X1101040Y582486D02*
D03*
X1104619Y582799D02*
D03*
X875030Y560070D02*
D03*
X876826Y558274D02*
D03*
X875030Y556478D02*
D03*
X878622D02*
D03*
X880418Y554682D02*
D03*
X876826D02*
D03*
X871438Y556478D02*
D03*
X869642Y554682D02*
D03*
X871438Y552886D02*
D03*
X869642Y551090D02*
D03*
X867846Y552886D02*
D03*
X866050Y551090D02*
D03*
X988060Y433070D02*
D03*
D03*
X1146810Y567690D02*
D03*
D03*
X1091736Y523979D02*
D03*
X1095001Y527870D02*
D03*
X1093055Y529503D02*
D03*
X1096634Y529816D02*
D03*
X1094688Y531449D02*
D03*
X1089164Y532768D02*
D03*
X1092742Y533081D02*
D03*
X1091423Y527557D02*
D03*
X1093369Y525924D02*
D03*
X1086212Y525298D02*
D03*
X1088157Y523666D02*
D03*
X1089477Y529190D02*
D03*
X1091110Y531135D02*
D03*
X1085585Y532455D02*
D03*
X1087844Y527244D02*
D03*
X1089790Y525611D02*
D03*
X1085899Y528877D02*
D03*
X1082007Y532142D02*
D03*
X1087531Y530822D02*
D03*
X1084266Y526931D02*
D03*
X1113790Y518160D02*
D03*
X1098267Y531762D02*
D03*
X1096321Y533394D02*
D03*
X1087218Y534401D02*
D03*
X1090797Y534714D02*
D03*
X1083640Y534088D02*
D03*
X1085272Y536034D02*
D03*
X1088851Y536347D02*
D03*
X1080061Y533775D02*
D03*
X1081694Y535720D02*
D03*
X1083327Y537666D02*
D03*
X1086905Y537979D02*
D03*
X1076483Y533462D02*
D03*
X1078115Y535407D02*
D03*
X1079748Y537353D02*
D03*
X1074537Y535094D02*
D03*
X1076170Y537040D02*
D03*
X1090103Y522033D02*
D03*
X673100Y762000D02*
D03*
D03*
X673100Y764540D02*
D03*
D03*
X673100Y767080D02*
D03*
D03*
X673100Y769620D02*
D03*
D03*
X673100Y772160D02*
D03*
D03*
X673100Y774700D02*
D03*
D03*
X673100Y777240D02*
D03*
D03*
X670560Y762000D02*
D03*
D03*
X670560Y764540D02*
D03*
D03*
X670560Y767080D02*
D03*
D03*
X670560Y769620D02*
D03*
D03*
X670560Y772160D02*
D03*
D03*
X670560Y774700D02*
D03*
D03*
X670560Y777240D02*
D03*
D03*
X668020Y764540D02*
D03*
D03*
X668020Y767080D02*
D03*
D03*
X668020Y769620D02*
D03*
D03*
Y772160D02*
D03*
D03*
X668020Y774700D02*
D03*
D03*
X668020Y777240D02*
D03*
D03*
X665480Y764540D02*
D03*
D03*
Y767080D02*
D03*
D03*
X665480Y769620D02*
D03*
D03*
X665480Y772160D02*
D03*
D03*
X665480Y774700D02*
D03*
D03*
X665480Y777240D02*
D03*
D03*
X662940Y777240D02*
D03*
D03*
X662940Y774700D02*
D03*
D03*
X662940Y772160D02*
D03*
D03*
X662940Y769620D02*
D03*
D03*
X662940Y767080D02*
D03*
D03*
X662940Y764540D02*
D03*
D03*
X684530Y661670D02*
D03*
X675640Y703580D02*
D03*
D03*
X675640Y706120D02*
D03*
D03*
X675640Y708660D02*
D03*
D03*
X675640Y711200D02*
D03*
D03*
X675640Y713740D02*
D03*
D03*
X675640Y716280D02*
D03*
D03*
X675640Y718820D02*
D03*
D03*
X675640Y721360D02*
D03*
D03*
X678180Y721360D02*
D03*
D03*
X678180Y718820D02*
D03*
D03*
X678180Y716280D02*
D03*
D03*
X678180Y713740D02*
D03*
D03*
X678180Y711200D02*
D03*
D03*
X678180Y708660D02*
D03*
D03*
Y706120D02*
D03*
D03*
Y703580D02*
D03*
D03*
X680720Y721360D02*
D03*
D03*
X680720Y718820D02*
D03*
D03*
X680720Y716280D02*
D03*
D03*
X680720Y713740D02*
D03*
D03*
Y711200D02*
D03*
D03*
X680720Y708660D02*
D03*
D03*
X680720Y706120D02*
D03*
D03*
X680720Y703580D02*
D03*
D03*
X683260Y721360D02*
D03*
D03*
X683260Y718820D02*
D03*
D03*
X683260Y716280D02*
D03*
D03*
X683260Y713740D02*
D03*
D03*
X683260Y711200D02*
D03*
D03*
X683260Y708660D02*
D03*
D03*
X683260Y706120D02*
D03*
D03*
X683260Y703580D02*
D03*
D03*
X685800Y721360D02*
D03*
D03*
X685800Y718820D02*
D03*
D03*
X685800Y716280D02*
D03*
D03*
X685800Y713740D02*
D03*
D03*
X685800Y711200D02*
D03*
D03*
X685800Y708660D02*
D03*
D03*
X685800Y706120D02*
D03*
D03*
X685800Y703580D02*
D03*
D03*
X685800Y723900D02*
D03*
D03*
X685800Y726440D02*
D03*
D03*
X685800Y728980D02*
D03*
D03*
X685800Y731520D02*
D03*
D03*
X685800Y734060D02*
D03*
D03*
X683260Y723900D02*
D03*
D03*
X683260Y726440D02*
D03*
D03*
X683260Y728980D02*
D03*
D03*
X683260Y731520D02*
D03*
D03*
X683260Y734060D02*
D03*
D03*
X683260Y736600D02*
D03*
D03*
X680720Y723900D02*
D03*
D03*
X680720Y726440D02*
D03*
D03*
X680720Y728980D02*
D03*
D03*
Y731520D02*
D03*
D03*
X680720Y734060D02*
D03*
D03*
X680720Y736600D02*
D03*
D03*
X678180Y723900D02*
D03*
D03*
X678180Y726440D02*
D03*
D03*
X678180Y728980D02*
D03*
D03*
X678180Y731520D02*
D03*
D03*
X678180Y734060D02*
D03*
D03*
X678180Y736600D02*
D03*
D03*
X675640Y736600D02*
D03*
D03*
X675640Y734060D02*
D03*
D03*
X675640Y731520D02*
D03*
D03*
X675640Y728980D02*
D03*
D03*
X675640Y726440D02*
D03*
D03*
X675640Y723900D02*
D03*
D03*
X739140Y636270D02*
D03*
D03*
X741680Y636270D02*
D03*
D03*
X744220Y636270D02*
D03*
D03*
X746760Y636270D02*
D03*
D03*
X749300Y636270D02*
D03*
D03*
X751840Y636270D02*
D03*
D03*
X754380Y636270D02*
D03*
D03*
X756920Y636270D02*
D03*
D03*
X756920Y633730D02*
D03*
D03*
X754380Y633730D02*
D03*
D03*
X751840Y633730D02*
D03*
D03*
X749300Y633730D02*
D03*
D03*
X746760Y633730D02*
D03*
D03*
X744220Y633730D02*
D03*
D03*
X741680Y633730D02*
D03*
D03*
X739140D02*
D03*
D03*
X756920Y631190D02*
D03*
D03*
X754380Y631190D02*
D03*
D03*
X751840Y631190D02*
D03*
D03*
X749300Y631190D02*
D03*
D03*
X746760D02*
D03*
D03*
X744220Y631190D02*
D03*
D03*
X741680Y631190D02*
D03*
D03*
X739140Y631190D02*
D03*
D03*
X756920Y628650D02*
D03*
D03*
X754380Y628650D02*
D03*
D03*
X751840Y628650D02*
D03*
D03*
X749300Y628650D02*
D03*
D03*
X746760D02*
D03*
D03*
X744220Y628650D02*
D03*
D03*
X741680Y628650D02*
D03*
D03*
X739140Y628650D02*
D03*
D03*
X756920Y626110D02*
D03*
D03*
X754380Y626110D02*
D03*
D03*
X751840Y626110D02*
D03*
D03*
X749300Y626110D02*
D03*
D03*
X746760Y626110D02*
D03*
D03*
X744220Y626110D02*
D03*
D03*
X741680Y626110D02*
D03*
D03*
X739140Y626110D02*
D03*
D03*
X759460Y626110D02*
D03*
D03*
X762000Y626110D02*
D03*
D03*
X764540Y626110D02*
D03*
D03*
X767080Y626110D02*
D03*
D03*
X769620Y626110D02*
D03*
D03*
X772160Y626110D02*
D03*
D03*
X759460Y628649D02*
D03*
D03*
X762000Y628650D02*
D03*
D03*
X764540Y628650D02*
D03*
D03*
X772160Y628650D02*
D03*
D03*
X759460Y631190D02*
D03*
D03*
X762000Y631190D02*
D03*
D03*
X759460Y633730D02*
D03*
D03*
X762000Y633730D02*
D03*
D03*
X767080Y633730D02*
D03*
D03*
X762000Y636270D02*
D03*
D03*
X759459Y636270D02*
D03*
D03*
X861624Y342861D02*
D03*
D03*
X864078Y342204D02*
D03*
D03*
X866531Y341547D02*
D03*
D03*
X868984Y340889D02*
D03*
D03*
X871438Y340232D02*
D03*
D03*
X873891Y339574D02*
D03*
D03*
X876345Y338917D02*
D03*
D03*
X878798Y338259D02*
D03*
D03*
X878141Y335806D02*
D03*
D03*
X875687Y336463D02*
D03*
D03*
X873234Y337121D02*
D03*
D03*
X870781Y337778D02*
D03*
D03*
X868327Y338436D02*
D03*
D03*
X865873Y339093D02*
D03*
D03*
X863420Y339751D02*
D03*
D03*
X860967Y340408D02*
D03*
D03*
X877483Y333353D02*
D03*
D03*
X875030Y334010D02*
D03*
D03*
X872577Y334667D02*
D03*
D03*
X870123Y335325D02*
D03*
D03*
X867670Y335982D02*
D03*
D03*
X865216Y336640D02*
D03*
D03*
X862763Y337297D02*
D03*
D03*
X860309Y337954D02*
D03*
D03*
X876826Y330899D02*
D03*
D03*
X874372Y331557D02*
D03*
D03*
X871919Y332214D02*
D03*
D03*
X869466Y332871D02*
D03*
D03*
X867012Y333529D02*
D03*
D03*
X864559Y334186D02*
D03*
D03*
X862105Y334843D02*
D03*
D03*
X859652Y335501D02*
D03*
D03*
X876169Y328446D02*
D03*
D03*
X873715Y329103D02*
D03*
D03*
X871261Y329761D02*
D03*
D03*
X868808Y330418D02*
D03*
D03*
X866355Y331075D02*
D03*
D03*
X863901Y331733D02*
D03*
D03*
X861448Y332390D02*
D03*
D03*
X858995Y333048D02*
D03*
D03*
X878622Y327788D02*
D03*
D03*
X881076Y327131D02*
D03*
D03*
X883529Y326473D02*
D03*
D03*
X885983Y325816D02*
D03*
D03*
X888436Y325159D02*
D03*
D03*
X890889Y324501D02*
D03*
D03*
X879279Y330241D02*
D03*
D03*
X881733Y329584D02*
D03*
D03*
X884186Y328927D02*
D03*
D03*
X886640Y328269D02*
D03*
D03*
X889093Y327612D02*
D03*
D03*
X891547Y326955D02*
D03*
D03*
X879937Y332695D02*
D03*
D03*
X882390Y332038D02*
D03*
D03*
X884844Y331380D02*
D03*
D03*
X887297Y330723D02*
D03*
D03*
X889751Y330066D02*
D03*
D03*
X892204Y329408D02*
D03*
D03*
X880594Y335149D02*
D03*
D03*
X883048Y334491D02*
D03*
D03*
X885501Y333834D02*
D03*
D03*
X887955Y333176D02*
D03*
D03*
X890408Y332519D02*
D03*
D03*
X892861Y331862D02*
D03*
D03*
X893519Y334315D02*
D03*
D03*
X891065Y334972D02*
D03*
D03*
X888612Y335630D02*
D03*
D03*
X886159Y336287D02*
D03*
D03*
X883705Y336945D02*
D03*
D03*
X881251Y337602D02*
D03*
D03*
X986790Y316230D02*
D03*
D03*
X984250Y316230D02*
D03*
D03*
X981710Y316230D02*
D03*
D03*
X979170Y316230D02*
D03*
D03*
X976630Y316230D02*
D03*
D03*
X974090Y316230D02*
D03*
D03*
X971550Y316230D02*
D03*
D03*
X969010Y316230D02*
D03*
D03*
X969010Y318770D02*
D03*
D03*
X971550Y318770D02*
D03*
D03*
X974090Y318770D02*
D03*
D03*
X976630Y318770D02*
D03*
D03*
X979170Y318770D02*
D03*
D03*
X981710Y318770D02*
D03*
D03*
X984250Y318770D02*
D03*
D03*
X986790Y318770D02*
D03*
D03*
X969010Y321310D02*
D03*
D03*
X971550Y321310D02*
D03*
D03*
X974090Y321310D02*
D03*
D03*
X976630Y321310D02*
D03*
D03*
X979170D02*
D03*
D03*
X981710Y321310D02*
D03*
D03*
X984250Y321310D02*
D03*
D03*
X986790Y321310D02*
D03*
D03*
X969010Y323850D02*
D03*
D03*
X971550Y323850D02*
D03*
D03*
X974090Y323850D02*
D03*
D03*
X976630Y323850D02*
D03*
D03*
X979170Y323850D02*
D03*
D03*
X981710Y323850D02*
D03*
D03*
X984250Y323850D02*
D03*
D03*
X986790Y323850D02*
D03*
D03*
X969010Y326390D02*
D03*
D03*
X971550Y326390D02*
D03*
D03*
X974090Y326390D02*
D03*
D03*
X976630Y326390D02*
D03*
D03*
X979170Y326390D02*
D03*
D03*
X981710Y326390D02*
D03*
D03*
X984250Y326390D02*
D03*
D03*
X986790Y326390D02*
D03*
D03*
X966470Y326390D02*
D03*
D03*
X963930Y326390D02*
D03*
D03*
X961390Y326390D02*
D03*
D03*
X958850Y326390D02*
D03*
D03*
X956310Y326390D02*
D03*
D03*
X953770Y326390D02*
D03*
D03*
X966470Y323850D02*
D03*
D03*
X963930Y323850D02*
D03*
D03*
X961390Y323850D02*
D03*
D03*
X958850Y323850D02*
D03*
D03*
X956310Y323850D02*
D03*
D03*
X953770Y323850D02*
D03*
D03*
X966470Y321310D02*
D03*
D03*
X963930Y321310D02*
D03*
D03*
X961390Y321310D02*
D03*
D03*
X958850Y321310D02*
D03*
D03*
X956310Y321310D02*
D03*
D03*
X953770Y321310D02*
D03*
D03*
X966470Y318770D02*
D03*
D03*
X963930Y318770D02*
D03*
D03*
X961390Y318770D02*
D03*
D03*
X958850Y318770D02*
D03*
D03*
X956310Y318770D02*
D03*
D03*
X953770Y318770D02*
D03*
D03*
X953770Y316230D02*
D03*
D03*
X956310Y316230D02*
D03*
D03*
X958850Y316230D02*
D03*
D03*
X961390Y316230D02*
D03*
D03*
X963930Y316230D02*
D03*
D03*
X966470Y316230D02*
D03*
D03*
X1045685Y334972D02*
D03*
D03*
X1048138Y335630D02*
D03*
D03*
X1050591Y336287D02*
D03*
D03*
X1053045Y336945D02*
D03*
D03*
X1055498Y337602D02*
D03*
D03*
X1057952Y338260D02*
D03*
D03*
X1060405Y338917D02*
D03*
D03*
X1062859Y339574D02*
D03*
D03*
X1063516Y337121D02*
D03*
D03*
X1061063Y336464D02*
D03*
D03*
X1058609Y335806D02*
D03*
D03*
X1056156Y335149D02*
D03*
D03*
X1053702Y334491D02*
D03*
D03*
X1051249Y333834D02*
D03*
D03*
X1048795Y333176D02*
D03*
D03*
X1046342Y332519D02*
D03*
D03*
X1064174Y334667D02*
D03*
D03*
X1061720Y334010D02*
D03*
D03*
X1059267Y333353D02*
D03*
D03*
X1056813Y332695D02*
D03*
D03*
X1054360Y332038D02*
D03*
D03*
X1051906Y331381D02*
D03*
D03*
X1049453Y330723D02*
D03*
D03*
X1046999Y330066D02*
D03*
D03*
X1064831Y332214D02*
D03*
D03*
X1062377Y331557D02*
D03*
D03*
X1059924Y330899D02*
D03*
D03*
X1057471Y330242D02*
D03*
D03*
X1055017Y329584D02*
D03*
D03*
X1052564Y328927D02*
D03*
D03*
X1050110Y328269D02*
D03*
D03*
X1047657Y327612D02*
D03*
D03*
X1065488Y329761D02*
D03*
D03*
X1063035Y329103D02*
D03*
D03*
X1060581Y328446D02*
D03*
D03*
X1058128Y327788D02*
D03*
D03*
X1055675Y327131D02*
D03*
D03*
X1053221Y326474D02*
D03*
D03*
X1050768Y325816D02*
D03*
D03*
X1048314Y325159D02*
D03*
D03*
X1067942Y330418D02*
D03*
D03*
X1070395Y331075D02*
D03*
D03*
X1072849Y331732D02*
D03*
D03*
X1075302Y332390D02*
D03*
D03*
X1077755Y333047D02*
D03*
D03*
X1080209Y333705D02*
D03*
D03*
X1067284Y332871D02*
D03*
D03*
X1069738Y333529D02*
D03*
D03*
X1072191Y334186D02*
D03*
D03*
X1074645Y334843D02*
D03*
D03*
X1077098Y335501D02*
D03*
D03*
X1079552Y336158D02*
D03*
D03*
X1066627Y335325D02*
D03*
D03*
X1069080Y335982D02*
D03*
D03*
X1071534Y336640D02*
D03*
D03*
X1073987Y337297D02*
D03*
D03*
X1076441Y337955D02*
D03*
D03*
X1078894Y338612D02*
D03*
D03*
X1065970Y337778D02*
D03*
D03*
X1068423Y338435D02*
D03*
D03*
X1070876Y339093D02*
D03*
D03*
X1073330Y339750D02*
D03*
D03*
X1075784Y340407D02*
D03*
D03*
X1078237Y341065D02*
D03*
D03*
X1077579Y343518D02*
D03*
D03*
X1075126Y342861D02*
D03*
D03*
X1072672Y342204D02*
D03*
D03*
X1070219Y341546D02*
D03*
D03*
X1067766Y340889D02*
D03*
D03*
X1065312Y340232D02*
D03*
D03*
X1161278Y372791D02*
D03*
D03*
X1159079Y371521D02*
D03*
D03*
X1156879Y370250D02*
D03*
D03*
X1154679Y368981D02*
D03*
D03*
X1152480Y367710D02*
D03*
D03*
X1150280Y366441D02*
D03*
D03*
X1148080Y365170D02*
D03*
D03*
X1145880Y363901D02*
D03*
D03*
X1144610Y366100D02*
D03*
D03*
X1146810Y367370D02*
D03*
D03*
X1149009Y368640D02*
D03*
D03*
X1151209Y369910D02*
D03*
D03*
X1153409Y371180D02*
D03*
D03*
X1155609Y372450D02*
D03*
D03*
X1157809Y373720D02*
D03*
D03*
X1160008Y374990D02*
D03*
D03*
X1143340Y368300D02*
D03*
D03*
X1145540Y369570D02*
D03*
D03*
X1147740Y370840D02*
D03*
D03*
X1149939Y372110D02*
D03*
D03*
X1152139Y373380D02*
D03*
D03*
X1154339Y374650D02*
D03*
D03*
X1156538Y375920D02*
D03*
D03*
X1158738Y377190D02*
D03*
D03*
X1142070Y370500D02*
D03*
D03*
X1144270Y371770D02*
D03*
D03*
X1146470Y373040D02*
D03*
D03*
X1148669Y374310D02*
D03*
D03*
X1150869Y375580D02*
D03*
D03*
X1153069Y376850D02*
D03*
D03*
X1155269Y378120D02*
D03*
D03*
X1157468Y379390D02*
D03*
D03*
X1140800Y372700D02*
D03*
D03*
X1143000Y373969D02*
D03*
D03*
X1145200Y375239D02*
D03*
D03*
X1147400Y376510D02*
D03*
D03*
X1149599Y377779D02*
D03*
D03*
X1151799Y379049D02*
D03*
D03*
X1153998Y380320D02*
D03*
D03*
X1156198Y381589D02*
D03*
D03*
X1138600Y371429D02*
D03*
D03*
X1136401Y370159D02*
D03*
D03*
X1134201Y368890D02*
D03*
D03*
X1132001Y367620D02*
D03*
D03*
X1129802Y366349D02*
D03*
D03*
X1127602Y365079D02*
D03*
D03*
X1139871Y369230D02*
D03*
D03*
X1137671Y367960D02*
D03*
D03*
X1135471Y366690D02*
D03*
D03*
X1133271Y365420D02*
D03*
D03*
X1131072Y364150D02*
D03*
D03*
X1128872Y362880D02*
D03*
D03*
X1141141Y367030D02*
D03*
D03*
X1138941Y365760D02*
D03*
D03*
X1136741Y364490D02*
D03*
D03*
X1134541Y363220D02*
D03*
D03*
X1132342Y361950D02*
D03*
D03*
X1130142Y360680D02*
D03*
D03*
X1142410Y364830D02*
D03*
D03*
X1140211Y363561D02*
D03*
D03*
X1138011Y362290D02*
D03*
D03*
X1135811Y361020D02*
D03*
D03*
X1133611Y359750D02*
D03*
D03*
X1131412Y358480D02*
D03*
D03*
X1132682Y356281D02*
D03*
D03*
X1134882Y357551D02*
D03*
D03*
X1137082Y358821D02*
D03*
D03*
X1139281Y360091D02*
D03*
D03*
X1141481Y361361D02*
D03*
D03*
X1143681Y362631D02*
D03*
D03*
X1202292Y416996D02*
D03*
D03*
X1204088Y418792D02*
D03*
D03*
X1205884Y420588D02*
D03*
D03*
X1207680Y422384D02*
D03*
D03*
X1209476Y424180D02*
D03*
D03*
X1211272Y425976D02*
D03*
D03*
X1213068Y427772D02*
D03*
D03*
X1214864Y429568D02*
D03*
D03*
X1216660Y427772D02*
D03*
D03*
X1214864Y425976D02*
D03*
D03*
X1213068Y424180D02*
D03*
D03*
X1211272Y422384D02*
D03*
D03*
X1209476Y420588D02*
D03*
D03*
X1207680Y418792D02*
D03*
D03*
X1205883Y416996D02*
D03*
D03*
X1204088Y415200D02*
D03*
D03*
X1218456Y425976D02*
D03*
D03*
X1216660Y424180D02*
D03*
D03*
X1214864Y422384D02*
D03*
D03*
X1213068Y420588D02*
D03*
D03*
X1211272Y418792D02*
D03*
D03*
X1209476Y416996D02*
D03*
D03*
X1207680Y415200D02*
D03*
D03*
X1205884Y413404D02*
D03*
D03*
X1220252Y424180D02*
D03*
D03*
X1218456Y422384D02*
D03*
D03*
X1216660Y420588D02*
D03*
D03*
X1214864Y418792D02*
D03*
D03*
X1213068Y416996D02*
D03*
D03*
X1211272Y415200D02*
D03*
D03*
X1209476Y413403D02*
D03*
D03*
X1207680Y411608D02*
D03*
D03*
X1222048Y422384D02*
D03*
D03*
X1220252Y420588D02*
D03*
D03*
X1218456Y418792D02*
D03*
D03*
X1216660Y416996D02*
D03*
D03*
X1214864Y415200D02*
D03*
D03*
X1213068Y413404D02*
D03*
D03*
X1211272Y411608D02*
D03*
D03*
X1209476Y409812D02*
D03*
D03*
X1223844Y424180D02*
D03*
D03*
X1225640Y425976D02*
D03*
D03*
X1227436Y427772D02*
D03*
D03*
X1229232Y429568D02*
D03*
D03*
X1231028Y431364D02*
D03*
D03*
X1232825Y433160D02*
D03*
D03*
X1222048Y425976D02*
D03*
D03*
X1223844Y427772D02*
D03*
D03*
X1225640Y429568D02*
D03*
D03*
X1227437Y431364D02*
D03*
D03*
X1229232Y433160D02*
D03*
D03*
X1231028Y434956D02*
D03*
D03*
X1220252Y427772D02*
D03*
D03*
X1222048Y429568D02*
D03*
D03*
X1223844Y431364D02*
D03*
D03*
X1225640Y433160D02*
D03*
D03*
X1227436Y434957D02*
D03*
D03*
X1229232Y436752D02*
D03*
D03*
X1218456Y429568D02*
D03*
D03*
X1220252Y431364D02*
D03*
D03*
X1222048Y433160D02*
D03*
D03*
X1223844Y434956D02*
D03*
D03*
X1225641Y436752D02*
D03*
D03*
X1227436Y438548D02*
D03*
D03*
X1225640Y440344D02*
D03*
D03*
X1223844Y438548D02*
D03*
D03*
X1222048Y436752D02*
D03*
D03*
X1220252Y434956D02*
D03*
D03*
X1218456Y433160D02*
D03*
D03*
X1216660Y431364D02*
D03*
D03*
X1284559Y508498D02*
D03*
D03*
X1283289Y506298D02*
D03*
D03*
X1282020Y504099D02*
D03*
D03*
X1280750Y501899D02*
D03*
D03*
X1279480Y499699D02*
D03*
D03*
X1278210Y497500D02*
D03*
D03*
X1276939Y495300D02*
D03*
D03*
X1275669Y493100D02*
D03*
D03*
X1273470Y494370D02*
D03*
D03*
X1274740Y496570D02*
D03*
D03*
X1276010Y498770D02*
D03*
D03*
X1277280Y500970D02*
D03*
D03*
X1278550Y503169D02*
D03*
D03*
X1279820Y505369D02*
D03*
D03*
X1281090Y507569D02*
D03*
D03*
X1282360Y509768D02*
D03*
D03*
X1271270Y495640D02*
D03*
D03*
X1272540Y497840D02*
D03*
D03*
X1273810Y500040D02*
D03*
D03*
X1275080Y502239D02*
D03*
D03*
X1276350Y504439D02*
D03*
D03*
X1277620Y506639D02*
D03*
D03*
X1278890Y508838D02*
D03*
D03*
X1280160Y511038D02*
D03*
D03*
X1269070Y496910D02*
D03*
D03*
X1270340Y499110D02*
D03*
D03*
X1271610Y501310D02*
D03*
D03*
X1272880Y503510D02*
D03*
D03*
X1274150Y505709D02*
D03*
D03*
X1275420Y507909D02*
D03*
D03*
X1276690Y510109D02*
D03*
D03*
X1277960Y512308D02*
D03*
D03*
X1266871Y498181D02*
D03*
D03*
X1268140Y500380D02*
D03*
D03*
X1269411Y502580D02*
D03*
D03*
X1270680Y504780D02*
D03*
D03*
X1271951Y506979D02*
D03*
D03*
X1273221Y509179D02*
D03*
D03*
X1274491Y511379D02*
D03*
D03*
X1275761Y513578D02*
D03*
D03*
X1265601Y495980D02*
D03*
D03*
X1264331Y493781D02*
D03*
D03*
X1263061Y491581D02*
D03*
D03*
X1261791Y489381D02*
D03*
D03*
X1260521Y487182D02*
D03*
D03*
X1259250Y484982D02*
D03*
D03*
X1267800Y494711D02*
D03*
D03*
X1266530Y492511D02*
D03*
D03*
X1265260Y490311D02*
D03*
D03*
X1263990Y488112D02*
D03*
D03*
X1262720Y485912D02*
D03*
D03*
X1261450Y483712D02*
D03*
D03*
X1270000Y493441D02*
D03*
D03*
X1268730Y491241D02*
D03*
D03*
X1267460Y489041D02*
D03*
D03*
X1266190Y486842D02*
D03*
D03*
X1264920Y484642D02*
D03*
D03*
X1263650Y482442D02*
D03*
D03*
X1272200Y492171D02*
D03*
D03*
X1270929Y489971D02*
D03*
D03*
X1269660Y487771D02*
D03*
D03*
X1268390Y485572D02*
D03*
D03*
X1267119Y483372D02*
D03*
D03*
X1265850Y481172D02*
D03*
D03*
X1268049Y479902D02*
D03*
D03*
X1269319Y482102D02*
D03*
D03*
X1270589Y484301D02*
D03*
D03*
X1271859Y486501D02*
D03*
D03*
X1273129Y488701D02*
D03*
D03*
X1274399Y490901D02*
D03*
D03*
X1297979Y569524D02*
D03*
D03*
X1298636Y571978D02*
D03*
D03*
X1299293Y574431D02*
D03*
D03*
X1299951Y576884D02*
D03*
D03*
X1300608Y579338D02*
D03*
D03*
X1301266Y581791D02*
D03*
D03*
X1301923Y584245D02*
D03*
D03*
X1302580Y586698D02*
D03*
D03*
X1305034Y586041D02*
D03*
D03*
X1304377Y583587D02*
D03*
D03*
X1303719Y581134D02*
D03*
D03*
X1303062Y578680D02*
D03*
D03*
X1302404Y576227D02*
D03*
D03*
X1301747Y573774D02*
D03*
D03*
X1301089Y571320D02*
D03*
D03*
X1300432Y568867D02*
D03*
D03*
X1307487Y585383D02*
D03*
D03*
X1306830Y582930D02*
D03*
D03*
X1306173Y580476D02*
D03*
D03*
X1305515Y578023D02*
D03*
D03*
X1304858Y575570D02*
D03*
D03*
X1304200Y573116D02*
D03*
D03*
X1303543Y570663D02*
D03*
D03*
X1302886Y568209D02*
D03*
D03*
X1309941Y584726D02*
D03*
D03*
X1309283Y582272D02*
D03*
D03*
X1308626Y579819D02*
D03*
D03*
X1307969Y577365D02*
D03*
D03*
X1307311Y574912D02*
D03*
D03*
X1306654Y572459D02*
D03*
D03*
X1305997Y570005D02*
D03*
D03*
X1305339Y567552D02*
D03*
D03*
X1312394Y584068D02*
D03*
D03*
X1311737Y581615D02*
D03*
D03*
X1311080Y579162D02*
D03*
D03*
X1310422Y576708D02*
D03*
D03*
X1309765Y574255D02*
D03*
D03*
X1309107Y571801D02*
D03*
D03*
X1308450Y569348D02*
D03*
D03*
X1307792Y566894D02*
D03*
D03*
X1313052Y586522D02*
D03*
D03*
X1313709Y588976D02*
D03*
D03*
X1314367Y591429D02*
D03*
D03*
X1315024Y593882D02*
D03*
D03*
X1315681Y596336D02*
D03*
D03*
X1316339Y598789D02*
D03*
D03*
X1310598Y587180D02*
D03*
D03*
X1311256Y589633D02*
D03*
D03*
X1311913Y592086D02*
D03*
D03*
X1312571Y594540D02*
D03*
D03*
X1313228Y596993D02*
D03*
D03*
X1313885Y599447D02*
D03*
D03*
X1308145Y587837D02*
D03*
D03*
X1308802Y590290D02*
D03*
D03*
X1309460Y592744D02*
D03*
D03*
X1310117Y595197D02*
D03*
D03*
X1310774Y597651D02*
D03*
D03*
X1311432Y600104D02*
D03*
D03*
X1305691Y588494D02*
D03*
D03*
X1306349Y590948D02*
D03*
D03*
X1307006Y593401D02*
D03*
D03*
X1307664Y595855D02*
D03*
D03*
X1308321Y598308D02*
D03*
D03*
X1308978Y600761D02*
D03*
D03*
X1306525Y601419D02*
D03*
D03*
X1305868Y598965D02*
D03*
D03*
X1305210Y596512D02*
D03*
D03*
X1304553Y594058D02*
D03*
D03*
X1303895Y591605D02*
D03*
D03*
X1303238Y589151D02*
D03*
D03*
X1322070Y687070D02*
D03*
D03*
X1322070Y684530D02*
D03*
D03*
X1322070Y681990D02*
D03*
D03*
X1322070Y679450D02*
D03*
D03*
X1322070Y676910D02*
D03*
D03*
Y674370D02*
D03*
D03*
X1322070Y671830D02*
D03*
D03*
X1322070Y669290D02*
D03*
D03*
X1319530Y669290D02*
D03*
D03*
X1319530Y671830D02*
D03*
D03*
X1319530Y674370D02*
D03*
D03*
X1319530Y676910D02*
D03*
D03*
Y679450D02*
D03*
D03*
X1319530Y681990D02*
D03*
D03*
X1319530Y684530D02*
D03*
D03*
X1319530Y687070D02*
D03*
D03*
X1316990Y669290D02*
D03*
D03*
X1316990Y671830D02*
D03*
D03*
X1316990Y674370D02*
D03*
D03*
X1316990Y676910D02*
D03*
D03*
Y679450D02*
D03*
D03*
X1316990Y681990D02*
D03*
D03*
X1316990Y684530D02*
D03*
D03*
X1316990Y687070D02*
D03*
D03*
X1314450Y669290D02*
D03*
D03*
X1314450Y671830D02*
D03*
D03*
Y674370D02*
D03*
D03*
X1314450Y676910D02*
D03*
D03*
X1314450Y679450D02*
D03*
D03*
X1314450Y681990D02*
D03*
D03*
X1314450Y684530D02*
D03*
D03*
X1314450Y687070D02*
D03*
D03*
X1311910Y669290D02*
D03*
D03*
X1311910Y671830D02*
D03*
D03*
X1311910Y674370D02*
D03*
D03*
X1311910Y676910D02*
D03*
D03*
X1311910Y679450D02*
D03*
D03*
X1311910Y681990D02*
D03*
D03*
X1311910Y684530D02*
D03*
D03*
X1311910Y687070D02*
D03*
D03*
X1311910Y666750D02*
D03*
D03*
X1311910Y664210D02*
D03*
D03*
X1311910Y661670D02*
D03*
D03*
X1311910Y659130D02*
D03*
D03*
X1311910Y656590D02*
D03*
D03*
X1311910Y654050D02*
D03*
D03*
X1314450Y666750D02*
D03*
D03*
X1314450Y664210D02*
D03*
D03*
X1314450Y661670D02*
D03*
D03*
X1314450Y659130D02*
D03*
D03*
X1314450Y656590D02*
D03*
D03*
X1314450Y654050D02*
D03*
D03*
X1316990Y666750D02*
D03*
D03*
X1316990Y664210D02*
D03*
D03*
Y661670D02*
D03*
D03*
X1316990Y659130D02*
D03*
D03*
X1316990Y656590D02*
D03*
D03*
X1316990Y654050D02*
D03*
D03*
X1319530Y666750D02*
D03*
D03*
X1319530Y664210D02*
D03*
D03*
X1319530Y661670D02*
D03*
D03*
X1319530Y659130D02*
D03*
D03*
X1319530Y656590D02*
D03*
D03*
X1319530Y654050D02*
D03*
D03*
X1322070Y654050D02*
D03*
D03*
X1322070Y656590D02*
D03*
D03*
X1322070Y659130D02*
D03*
D03*
X1322070Y661670D02*
D03*
D03*
X1322070Y664210D02*
D03*
D03*
Y666750D02*
D03*
D03*
X1304597Y745965D02*
D03*
D03*
X1303940Y748418D02*
D03*
D03*
X1303283Y750871D02*
D03*
D03*
X1302625Y753325D02*
D03*
D03*
X1301968Y755778D02*
D03*
D03*
X1301311Y758232D02*
D03*
D03*
X1300653Y760685D02*
D03*
D03*
X1299996Y763139D02*
D03*
D03*
X1302449Y763796D02*
D03*
D03*
X1303107Y761343D02*
D03*
D03*
X1303764Y758889D02*
D03*
D03*
X1304421Y756436D02*
D03*
D03*
X1305079Y753982D02*
D03*
D03*
X1305736Y751529D02*
D03*
D03*
X1306394Y749075D02*
D03*
D03*
X1307051Y746622D02*
D03*
D03*
X1304903Y764454D02*
D03*
D03*
X1305560Y762000D02*
D03*
D03*
X1306217Y759547D02*
D03*
D03*
X1306875Y757093D02*
D03*
D03*
X1307532Y754640D02*
D03*
D03*
X1308190Y752186D02*
D03*
D03*
X1308847Y749733D02*
D03*
D03*
X1309504Y747279D02*
D03*
D03*
X1307356Y765111D02*
D03*
D03*
X1308013Y762657D02*
D03*
D03*
X1308671Y760204D02*
D03*
D03*
X1309328Y757751D02*
D03*
D03*
X1309986Y755297D02*
D03*
D03*
X1310643Y752844D02*
D03*
D03*
X1311300Y750390D02*
D03*
D03*
X1311958Y747937D02*
D03*
D03*
X1309810Y765768D02*
D03*
D03*
X1310467Y763315D02*
D03*
D03*
X1311124Y760861D02*
D03*
D03*
X1311782Y758408D02*
D03*
D03*
X1312439Y755955D02*
D03*
D03*
X1313096Y753501D02*
D03*
D03*
X1313754Y751048D02*
D03*
D03*
X1314411Y748594D02*
D03*
D03*
X1309152Y768222D02*
D03*
D03*
X1308495Y770675D02*
D03*
D03*
X1307837Y773129D02*
D03*
D03*
X1307180Y775582D02*
D03*
D03*
X1306523Y778036D02*
D03*
D03*
X1305865Y780489D02*
D03*
D03*
X1306699Y767564D02*
D03*
D03*
X1306041Y770018D02*
D03*
D03*
X1305384Y772471D02*
D03*
D03*
X1304727Y774925D02*
D03*
D03*
X1304069Y777378D02*
D03*
D03*
X1303412Y779832D02*
D03*
D03*
X1304245Y766907D02*
D03*
D03*
X1303588Y769360D02*
D03*
D03*
X1302930Y771814D02*
D03*
D03*
X1302273Y774267D02*
D03*
D03*
X1301615Y776721D02*
D03*
D03*
X1300958Y779174D02*
D03*
D03*
X1301792Y766249D02*
D03*
D03*
X1301134Y768703D02*
D03*
D03*
X1300477Y771156D02*
D03*
D03*
X1299820Y773610D02*
D03*
D03*
X1299162Y776063D02*
D03*
D03*
X1298505Y778517D02*
D03*
D03*
X1296051Y777859D02*
D03*
D03*
X1296709Y775406D02*
D03*
D03*
X1297366Y772952D02*
D03*
D03*
X1298024Y770499D02*
D03*
D03*
X1298681Y768046D02*
D03*
D03*
X1299338Y765592D02*
D03*
D03*
X1132006Y754019D02*
D03*
D03*
X1133802Y752223D02*
D03*
D03*
X1135598Y750427D02*
D03*
D03*
X1137394Y748631D02*
D03*
D03*
X1139190Y746835D02*
D03*
D03*
X1140986Y745039D02*
D03*
D03*
X1139190Y743243D02*
D03*
D03*
X1137394Y745039D02*
D03*
D03*
X1135598Y746835D02*
D03*
D03*
X1133802Y748631D02*
D03*
D03*
X1132006Y750427D02*
D03*
D03*
X1130210Y752223D02*
D03*
D03*
X1137394Y741447D02*
D03*
D03*
X1135598Y743243D02*
D03*
D03*
X1133802Y745039D02*
D03*
D03*
X1132006Y746835D02*
D03*
D03*
X1130210Y748631D02*
D03*
D03*
X1128414Y750427D02*
D03*
D03*
X1135598Y739651D02*
D03*
D03*
X1133802Y741447D02*
D03*
D03*
X1132006Y743243D02*
D03*
D03*
X1130210Y745039D02*
D03*
D03*
X1128414Y746835D02*
D03*
D03*
X1126618Y748631D02*
D03*
D03*
X1133802Y737855D02*
D03*
D03*
X1132006Y739651D02*
D03*
D03*
X1130210Y741447D02*
D03*
D03*
X1128414Y743243D02*
D03*
D03*
X1126618Y745039D02*
D03*
D03*
X1124822Y746835D02*
D03*
D03*
X1132006Y736059D02*
D03*
D03*
X1130210Y737855D02*
D03*
D03*
X1128414Y739651D02*
D03*
D03*
X1126618Y741447D02*
D03*
D03*
X1124822Y743243D02*
D03*
D03*
X1123026Y745039D02*
D03*
D03*
X1130210Y734262D02*
D03*
D03*
X1128414Y736059D02*
D03*
D03*
X1126618Y737855D02*
D03*
D03*
X1124822Y739651D02*
D03*
D03*
X1123026Y741447D02*
D03*
D03*
X1121229Y743243D02*
D03*
D03*
X1128414Y732466D02*
D03*
D03*
X1126618Y734262D02*
D03*
D03*
X1124822Y736059D02*
D03*
D03*
X1123026Y737855D02*
D03*
D03*
X1121229Y739651D02*
D03*
D03*
X1119433Y741447D02*
D03*
D03*
X1126618Y730670D02*
D03*
D03*
X1124822Y732466D02*
D03*
D03*
X1123026Y734262D02*
D03*
D03*
X1121229Y736059D02*
D03*
D03*
X1119433Y737855D02*
D03*
D03*
X1117637Y739651D02*
D03*
D03*
X1124822Y728874D02*
D03*
D03*
X1123026Y730670D02*
D03*
D03*
X1121229Y732466D02*
D03*
D03*
X1119433Y734262D02*
D03*
D03*
X1117637Y736059D02*
D03*
D03*
X1115841Y737855D02*
D03*
D03*
X1123026Y727078D02*
D03*
D03*
X1121229Y728874D02*
D03*
D03*
X1119433Y730670D02*
D03*
D03*
X1117637Y732466D02*
D03*
D03*
X1115841Y734262D02*
D03*
D03*
X1114045Y736059D02*
D03*
D03*
X1121229Y725282D02*
D03*
D03*
X1119433Y727078D02*
D03*
D03*
X1117637Y728874D02*
D03*
D03*
X1115841Y730670D02*
D03*
D03*
X1114045Y732466D02*
D03*
D03*
X1112249Y734262D02*
D03*
D03*
X1117637Y768387D02*
D03*
D03*
X1119433Y766591D02*
D03*
D03*
X1121229Y764795D02*
D03*
D03*
X1123026Y762999D02*
D03*
D03*
X1124822Y761203D02*
D03*
D03*
X1126618Y759407D02*
D03*
D03*
X1128414Y757611D02*
D03*
D03*
X1130210Y755815D02*
D03*
D03*
X1128414Y754019D02*
D03*
D03*
X1126618Y755815D02*
D03*
D03*
X1124822Y757611D02*
D03*
D03*
X1123026Y759407D02*
D03*
D03*
X1121229Y761203D02*
D03*
D03*
X1119433Y762999D02*
D03*
D03*
X1117637Y764795D02*
D03*
D03*
X1115841Y766591D02*
D03*
D03*
X1126618Y752223D02*
D03*
D03*
X1124822Y754019D02*
D03*
D03*
X1123026Y755815D02*
D03*
D03*
X1121229Y757611D02*
D03*
D03*
X1119433Y759407D02*
D03*
D03*
X1117637Y761203D02*
D03*
D03*
X1115841Y762999D02*
D03*
D03*
X1114045Y764795D02*
D03*
D03*
X1124822Y750427D02*
D03*
D03*
X1123026Y752223D02*
D03*
D03*
X1121229Y754019D02*
D03*
D03*
X1119433Y755815D02*
D03*
D03*
X1117637Y757611D02*
D03*
D03*
X1115841Y759407D02*
D03*
D03*
X1114045Y761203D02*
D03*
D03*
X1112249Y762999D02*
D03*
D03*
X1123026Y748631D02*
D03*
D03*
X1121229Y750427D02*
D03*
D03*
X1119433Y752223D02*
D03*
D03*
X1117637Y754019D02*
D03*
D03*
X1115841Y755815D02*
D03*
D03*
X1114045Y757611D02*
D03*
D03*
X1112249Y759407D02*
D03*
D03*
X1110453Y761203D02*
D03*
D03*
X1121229Y746835D02*
D03*
D03*
X1119433Y748631D02*
D03*
D03*
X1117637Y750427D02*
D03*
D03*
X1115841Y752223D02*
D03*
D03*
X1114045Y754019D02*
D03*
D03*
X1112249Y755815D02*
D03*
D03*
X1110453Y757611D02*
D03*
D03*
X1108657Y759407D02*
D03*
D03*
X1119433Y745039D02*
D03*
D03*
X1117637Y746835D02*
D03*
D03*
X1115841Y748631D02*
D03*
D03*
X1114045Y750427D02*
D03*
D03*
X1112249Y752223D02*
D03*
D03*
X1110453Y754019D02*
D03*
D03*
X1108657Y755815D02*
D03*
D03*
X1106861Y757611D02*
D03*
D03*
X1117637Y743243D02*
D03*
D03*
X1115841Y745039D02*
D03*
D03*
X1114045Y746835D02*
D03*
D03*
X1112249Y748631D02*
D03*
D03*
X1110453Y750427D02*
D03*
D03*
X1108657Y752223D02*
D03*
D03*
X1106861Y754019D02*
D03*
D03*
X1105065Y755815D02*
D03*
D03*
X1115841Y741447D02*
D03*
D03*
X1114045Y743243D02*
D03*
D03*
X1112249Y745039D02*
D03*
D03*
X1110453Y746835D02*
D03*
D03*
X1108657Y748631D02*
D03*
D03*
X1106861Y750427D02*
D03*
D03*
X1105065Y752223D02*
D03*
D03*
X1103269Y754019D02*
D03*
D03*
X1114045Y739651D02*
D03*
D03*
X1112249Y741447D02*
D03*
D03*
X1110453Y743243D02*
D03*
D03*
X1108657Y745039D02*
D03*
D03*
X1106861Y746835D02*
D03*
D03*
X1105065Y748631D02*
D03*
D03*
X1103269Y750427D02*
D03*
D03*
X1101473Y752223D02*
D03*
D03*
X1112249Y737855D02*
D03*
D03*
X1110453Y739651D02*
D03*
D03*
X1108657Y741447D02*
D03*
D03*
X1106861Y743243D02*
D03*
D03*
X1105065Y745039D02*
D03*
D03*
X1103269Y746835D02*
D03*
D03*
X1101473Y748631D02*
D03*
D03*
X1099677Y750427D02*
D03*
D03*
X1110453Y736059D02*
D03*
D03*
X1108657Y737855D02*
D03*
D03*
X1106861Y739651D02*
D03*
D03*
X1105065Y741447D02*
D03*
D03*
X1103269Y743243D02*
D03*
D03*
X1101473Y745039D02*
D03*
D03*
X1099677Y746835D02*
D03*
D03*
X1097881Y748631D02*
D03*
D03*
X1153558Y775572D02*
D03*
D03*
X1155355Y773775D02*
D03*
D03*
X1157150Y771980D02*
D03*
D03*
X1158947Y770183D02*
D03*
D03*
X1160743Y768387D02*
D03*
D03*
X1162539Y766591D02*
D03*
D03*
X1160743Y764795D02*
D03*
D03*
X1158947Y766591D02*
D03*
D03*
X1157150Y768387D02*
D03*
D03*
X1155355Y770183D02*
D03*
D03*
X1153558Y771980D02*
D03*
D03*
X1151762Y773775D02*
D03*
D03*
X1158947Y762999D02*
D03*
D03*
X1157150Y764795D02*
D03*
D03*
X1155355Y766591D02*
D03*
D03*
X1153558Y768387D02*
D03*
D03*
X1151762Y770183D02*
D03*
D03*
X1149966Y771980D02*
D03*
D03*
X1157150Y761203D02*
D03*
D03*
X1155355Y762999D02*
D03*
D03*
X1153558Y764795D02*
D03*
D03*
X1151762Y766591D02*
D03*
D03*
X1149966Y768387D02*
D03*
D03*
X1148170Y770183D02*
D03*
D03*
X1155355Y759407D02*
D03*
D03*
X1153558Y761203D02*
D03*
D03*
X1151762Y762999D02*
D03*
D03*
X1149966Y764795D02*
D03*
D03*
X1148170Y766591D02*
D03*
D03*
X1146374Y768387D02*
D03*
D03*
X1153558Y757611D02*
D03*
D03*
X1151762Y759407D02*
D03*
D03*
X1149966Y761203D02*
D03*
D03*
X1148170Y762999D02*
D03*
D03*
X1146374Y764795D02*
D03*
D03*
X1144578Y766591D02*
D03*
D03*
X1151762Y755815D02*
D03*
D03*
X1149966Y757611D02*
D03*
D03*
X1148170Y759407D02*
D03*
D03*
X1146374Y761203D02*
D03*
D03*
X1144578Y762999D02*
D03*
D03*
X1142782Y764795D02*
D03*
D03*
X1149966Y754019D02*
D03*
D03*
X1148170Y755815D02*
D03*
D03*
X1146374Y757611D02*
D03*
D03*
X1144578Y759407D02*
D03*
D03*
X1142782Y761203D02*
D03*
D03*
X1140986Y762999D02*
D03*
D03*
X1148170Y752223D02*
D03*
D03*
X1146374Y754019D02*
D03*
D03*
X1144578Y755815D02*
D03*
D03*
X1142782Y757611D02*
D03*
D03*
X1140986Y759407D02*
D03*
D03*
X1139190Y761203D02*
D03*
D03*
X1146374Y750427D02*
D03*
D03*
X1144578Y752223D02*
D03*
D03*
X1142782Y754019D02*
D03*
D03*
X1140986Y755815D02*
D03*
D03*
X1139190Y757611D02*
D03*
D03*
X1137394Y759407D02*
D03*
D03*
X1144578Y748631D02*
D03*
D03*
X1142782Y750427D02*
D03*
D03*
X1140986Y752223D02*
D03*
D03*
X1139190Y754019D02*
D03*
D03*
X1137394Y755815D02*
D03*
D03*
X1135598Y757611D02*
D03*
D03*
X1142782Y746835D02*
D03*
D03*
X1140986Y748631D02*
D03*
D03*
X1139190Y750427D02*
D03*
D03*
X1137394Y752223D02*
D03*
D03*
X1135598Y754019D02*
D03*
D03*
X1133802Y755815D02*
D03*
D03*
X1119433Y770183D02*
D03*
D03*
X1121229Y768387D02*
D03*
D03*
X1123026Y766591D02*
D03*
D03*
X1124822Y764795D02*
D03*
D03*
X1126618Y762999D02*
D03*
D03*
X1128414Y761203D02*
D03*
D03*
X1130210Y759407D02*
D03*
D03*
X1132006Y757611D02*
D03*
D03*
X1121229Y771980D02*
D03*
D03*
X1123026Y770183D02*
D03*
D03*
X1124822Y768387D02*
D03*
D03*
X1126618Y766591D02*
D03*
D03*
X1128414Y764795D02*
D03*
D03*
X1130210Y762999D02*
D03*
D03*
X1132006Y761203D02*
D03*
D03*
X1133802Y759407D02*
D03*
D03*
X1123026Y773775D02*
D03*
D03*
X1124822Y771980D02*
D03*
D03*
X1126618Y770183D02*
D03*
D03*
X1128414Y768387D02*
D03*
D03*
X1130210Y766591D02*
D03*
D03*
X1132006Y764795D02*
D03*
D03*
X1133802Y762999D02*
D03*
D03*
X1135598Y761203D02*
D03*
D03*
X1124822Y775572D02*
D03*
D03*
X1126618Y773775D02*
D03*
D03*
X1128414Y771980D02*
D03*
D03*
X1130210Y770183D02*
D03*
D03*
X1132006Y768387D02*
D03*
D03*
X1133802Y766591D02*
D03*
D03*
X1135598Y764795D02*
D03*
D03*
X1137394Y762999D02*
D03*
D03*
X1126618Y777368D02*
D03*
D03*
X1128414Y775572D02*
D03*
D03*
X1130210Y773775D02*
D03*
D03*
X1132006Y771980D02*
D03*
D03*
X1133802Y770183D02*
D03*
D03*
X1135598Y768387D02*
D03*
D03*
X1137394Y766591D02*
D03*
D03*
X1139190Y764795D02*
D03*
D03*
X1128414Y779164D02*
D03*
D03*
X1130210Y777368D02*
D03*
D03*
X1132006Y775572D02*
D03*
D03*
X1133802Y773775D02*
D03*
D03*
X1135598Y771980D02*
D03*
D03*
X1137394Y770183D02*
D03*
D03*
X1139190Y768387D02*
D03*
D03*
X1140986Y766591D02*
D03*
D03*
X1130210Y780960D02*
D03*
D03*
X1132006Y779164D02*
D03*
D03*
X1133802Y777368D02*
D03*
D03*
X1135598Y775572D02*
D03*
D03*
X1137394Y773775D02*
D03*
D03*
X1139190Y771980D02*
D03*
D03*
X1140986Y770183D02*
D03*
D03*
X1142782Y768387D02*
D03*
D03*
X1132006Y782756D02*
D03*
D03*
X1133802Y780960D02*
D03*
D03*
X1135598Y779164D02*
D03*
D03*
X1137394Y777368D02*
D03*
D03*
X1139190Y775572D02*
D03*
D03*
X1140986Y773775D02*
D03*
D03*
X1142782Y771980D02*
D03*
D03*
X1144578Y770183D02*
D03*
D03*
X1133802Y784552D02*
D03*
D03*
X1135598Y782756D02*
D03*
D03*
X1137394Y780960D02*
D03*
D03*
X1139190Y779164D02*
D03*
D03*
X1140986Y777368D02*
D03*
D03*
X1142782Y775572D02*
D03*
D03*
X1144578Y773775D02*
D03*
D03*
X1146374Y771980D02*
D03*
D03*
X1135598Y786348D02*
D03*
D03*
X1137394Y784552D02*
D03*
D03*
X1139190Y782756D02*
D03*
D03*
X1140986Y780960D02*
D03*
D03*
X1142782Y779164D02*
D03*
D03*
X1144578Y777368D02*
D03*
D03*
X1146374Y775572D02*
D03*
D03*
X1148170Y773775D02*
D03*
D03*
X1137394Y788144D02*
D03*
D03*
X1139190Y786348D02*
D03*
D03*
X1140986Y784552D02*
D03*
D03*
X1142782Y782756D02*
D03*
D03*
X1144578Y780960D02*
D03*
D03*
X1146374Y779164D02*
D03*
D03*
X1148170Y777368D02*
D03*
D03*
X1149966Y775572D02*
D03*
D03*
X1151762Y777368D02*
D03*
D03*
X1149966Y779164D02*
D03*
D03*
X1148170Y780960D02*
D03*
D03*
X1146374Y782756D02*
D03*
D03*
X1144578Y784552D02*
D03*
D03*
X1142782Y786348D02*
D03*
D03*
X1140986Y788144D02*
D03*
D03*
X1139190Y789940D02*
D03*
D03*
X1098334Y551600D02*
D03*
D03*
X1100280Y549967D02*
D03*
D03*
X1102225Y548334D02*
D03*
D03*
X1104171Y546702D02*
D03*
D03*
X1106117Y545069D02*
D03*
D03*
X1108063Y543436D02*
D03*
D03*
X1106430Y541490D02*
D03*
D03*
X1104484Y543123D02*
D03*
D03*
X1102538Y544756D02*
D03*
D03*
X1100593Y546388D02*
D03*
D03*
X1098647Y548021D02*
D03*
D03*
X1096701Y549654D02*
D03*
D03*
X1104797Y539545D02*
D03*
D03*
X1102851Y541177D02*
D03*
D03*
X1100906Y542810D02*
D03*
D03*
X1098960Y544443D02*
D03*
D03*
X1097014Y546075D02*
D03*
D03*
X1095069Y547708D02*
D03*
D03*
X1103165Y537599D02*
D03*
D03*
X1101219Y539232D02*
D03*
D03*
X1099273Y540864D02*
D03*
D03*
X1097327Y542497D02*
D03*
D03*
X1095382Y544130D02*
D03*
D03*
X1093436Y545762D02*
D03*
D03*
X1101532Y535653D02*
D03*
D03*
X1099586Y537286D02*
D03*
D03*
X1097640Y538918D02*
D03*
D03*
X1095695Y540551D02*
D03*
D03*
X1093749Y542184D02*
D03*
D03*
X1091803Y543816D02*
D03*
D03*
X1099899Y533707D02*
D03*
D03*
X1097953Y535340D02*
D03*
D03*
X1096008Y536973D02*
D03*
D03*
X1094062Y538605D02*
D03*
D03*
X1092116Y540238D02*
D03*
D03*
X1090171Y541871D02*
D03*
D03*
X1098267Y531762D02*
D03*
X1096321Y533394D02*
D03*
X1094375Y535027D02*
D03*
D03*
X1092429Y536660D02*
D03*
D03*
X1090483Y538292D02*
D03*
D03*
X1088538Y539925D02*
D03*
D03*
X1096634Y529816D02*
D03*
X1094688Y531449D02*
D03*
X1092742Y533081D02*
D03*
X1090797Y534714D02*
D03*
X1088851Y536347D02*
D03*
X1086905Y537979D02*
D03*
X1095001Y527870D02*
D03*
X1093055Y529503D02*
D03*
X1091110Y531135D02*
D03*
X1089164Y532768D02*
D03*
X1087218Y534401D02*
D03*
X1085272Y536034D02*
D03*
X1093369Y525924D02*
D03*
X1091423Y527557D02*
D03*
X1089477Y529190D02*
D03*
X1087531Y530822D02*
D03*
X1085585Y532455D02*
D03*
X1083640Y534088D02*
D03*
X1091736Y523979D02*
D03*
X1089790Y525611D02*
D03*
X1087844Y527244D02*
D03*
X1085899Y528877D02*
D03*
X1083953Y530509D02*
D03*
D03*
X1082007Y532142D02*
D03*
X1090103Y522033D02*
D03*
X1088157Y523666D02*
D03*
X1086212Y525298D02*
D03*
X1084266Y526931D02*
D03*
X1082320Y528564D02*
D03*
D03*
X1080374Y530196D02*
D03*
D03*
X1082768Y564661D02*
D03*
D03*
X1084714Y563028D02*
D03*
D03*
X1086659Y561396D02*
D03*
D03*
X1088605Y559763D02*
D03*
D03*
X1090551Y558130D02*
D03*
D03*
X1092497Y556497D02*
D03*
D03*
X1094442Y554865D02*
D03*
D03*
X1096388Y553232D02*
D03*
D03*
X1094755Y551286D02*
D03*
D03*
X1092810Y552919D02*
D03*
D03*
X1090864Y554552D02*
D03*
D03*
X1088918Y556185D02*
D03*
D03*
X1086972Y557817D02*
D03*
D03*
X1085027Y559450D02*
D03*
D03*
X1083081Y561082D02*
D03*
D03*
X1081135Y562715D02*
D03*
D03*
X1093123Y549341D02*
D03*
D03*
X1091177Y550973D02*
D03*
D03*
X1089231Y552606D02*
D03*
D03*
X1087286Y554239D02*
D03*
D03*
X1085340Y555871D02*
D03*
D03*
X1083394Y557504D02*
D03*
D03*
X1081448Y559137D02*
D03*
D03*
X1079502Y560770D02*
D03*
D03*
X1091490Y547395D02*
D03*
D03*
X1089544Y549028D02*
D03*
D03*
X1087599Y550660D02*
D03*
D03*
X1085653Y552293D02*
D03*
D03*
X1083707Y553926D02*
D03*
D03*
X1081761Y555558D02*
D03*
D03*
X1079816Y557191D02*
D03*
D03*
X1077870Y558824D02*
D03*
D03*
X1089857Y545449D02*
D03*
D03*
X1087912Y547082D02*
D03*
D03*
X1085966Y548714D02*
D03*
D03*
X1084020Y550347D02*
D03*
D03*
X1082074Y551980D02*
D03*
D03*
X1080129Y553613D02*
D03*
D03*
X1078183Y555245D02*
D03*
D03*
X1076237Y556878D02*
D03*
D03*
X1088225Y543503D02*
D03*
D03*
X1086279Y545136D02*
D03*
D03*
X1084333Y546769D02*
D03*
D03*
X1082387Y548401D02*
D03*
D03*
X1080442Y550034D02*
D03*
D03*
X1078496Y551667D02*
D03*
D03*
X1076550Y553299D02*
D03*
D03*
X1074604Y554932D02*
D03*
D03*
X1086592Y541558D02*
D03*
D03*
X1084646Y543190D02*
D03*
D03*
X1082701Y544823D02*
D03*
D03*
X1080755Y546456D02*
D03*
D03*
X1078809Y548088D02*
D03*
D03*
X1076863Y549721D02*
D03*
D03*
X1074918Y551354D02*
D03*
D03*
X1072972Y552986D02*
D03*
D03*
X1084959Y539612D02*
D03*
D03*
X1083014Y541245D02*
D03*
D03*
X1081068Y542877D02*
D03*
D03*
X1079122Y544510D02*
D03*
D03*
X1077176Y546143D02*
D03*
D03*
X1075231Y547775D02*
D03*
D03*
X1073285Y549408D02*
D03*
D03*
X1071339Y551041D02*
D03*
D03*
X1083327Y537666D02*
D03*
X1081381Y539299D02*
D03*
D03*
X1079435Y540932D02*
D03*
D03*
X1077489Y542564D02*
D03*
D03*
X1075544Y544197D02*
D03*
D03*
X1073598Y545830D02*
D03*
D03*
X1071652Y547462D02*
D03*
D03*
X1069706Y549095D02*
D03*
D03*
X1081694Y535720D02*
D03*
X1079748Y537353D02*
D03*
X1077803Y538986D02*
D03*
D03*
X1075857Y540619D02*
D03*
D03*
X1073911Y542251D02*
D03*
D03*
X1071965Y543884D02*
D03*
D03*
X1070019Y545517D02*
D03*
D03*
X1068074Y547149D02*
D03*
D03*
X1080061Y533775D02*
D03*
X1078115Y535407D02*
D03*
X1076170Y537040D02*
D03*
X1074224Y538673D02*
D03*
D03*
X1072278Y540305D02*
D03*
D03*
X1070332Y541938D02*
D03*
D03*
X1068387Y543571D02*
D03*
D03*
X1066441Y545203D02*
D03*
D03*
X1078429Y531829D02*
D03*
D03*
X1076483Y533462D02*
D03*
X1074537Y535094D02*
D03*
X1072591Y536727D02*
D03*
D03*
X1070646Y538360D02*
D03*
D03*
X1068700Y539992D02*
D03*
D03*
X1066754Y541625D02*
D03*
D03*
X1064808Y543258D02*
D03*
D03*
X1117926Y574949D02*
D03*
D03*
X1119872Y573316D02*
D03*
D03*
X1121817Y571683D02*
D03*
D03*
X1123763Y570051D02*
D03*
D03*
X1125709Y568418D02*
D03*
D03*
X1127655Y566785D02*
D03*
D03*
X1126022Y564839D02*
D03*
D03*
X1124076Y566472D02*
D03*
D03*
X1122131Y568105D02*
D03*
D03*
X1120185Y569737D02*
D03*
D03*
X1118239Y571370D02*
D03*
D03*
X1116293Y573003D02*
D03*
D03*
X1124389Y562894D02*
D03*
D03*
X1122444Y564526D02*
D03*
D03*
X1120498Y566159D02*
D03*
D03*
X1118552Y567792D02*
D03*
D03*
X1116606Y569424D02*
D03*
D03*
X1114661Y571057D02*
D03*
D03*
X1122757Y560948D02*
D03*
D03*
X1120811Y562581D02*
D03*
D03*
X1118865Y564213D02*
D03*
D03*
X1116919Y565846D02*
D03*
D03*
X1114974Y567479D02*
D03*
D03*
X1113028Y569111D02*
D03*
D03*
X1121124Y559002D02*
D03*
D03*
X1119178Y560635D02*
D03*
D03*
X1117233Y562267D02*
D03*
D03*
X1115287Y563900D02*
D03*
D03*
X1113341Y565533D02*
D03*
D03*
X1111395Y567165D02*
D03*
D03*
X1119491Y557056D02*
D03*
D03*
X1117546Y558689D02*
D03*
D03*
X1115600Y560322D02*
D03*
D03*
X1113654Y561954D02*
D03*
D03*
X1111708Y563587D02*
D03*
D03*
X1109763Y565220D02*
D03*
D03*
X1117859Y555111D02*
D03*
D03*
X1115913Y556743D02*
D03*
D03*
X1113967Y558376D02*
D03*
D03*
X1112021Y560009D02*
D03*
D03*
X1110076Y561641D02*
D03*
D03*
X1108130Y563274D02*
D03*
D03*
X1116226Y553165D02*
D03*
D03*
X1114280Y554798D02*
D03*
D03*
X1112335Y556430D02*
D03*
D03*
X1110389Y558063D02*
D03*
D03*
X1108443Y559696D02*
D03*
D03*
X1106497Y561328D02*
D03*
D03*
X1114593Y551219D02*
D03*
D03*
X1112648Y552852D02*
D03*
D03*
X1110702Y554484D02*
D03*
D03*
X1108756Y556117D02*
D03*
D03*
X1106810Y557750D02*
D03*
D03*
X1104865Y559383D02*
D03*
D03*
X1112961Y549273D02*
D03*
D03*
X1111015Y550906D02*
D03*
D03*
X1109069Y552539D02*
D03*
D03*
X1107123Y554171D02*
D03*
D03*
X1105178Y555804D02*
D03*
D03*
X1103232Y557437D02*
D03*
D03*
X1111328Y547328D02*
D03*
D03*
X1109382Y548960D02*
D03*
D03*
X1107437Y550593D02*
D03*
D03*
X1105491Y552226D02*
D03*
D03*
X1103545Y553858D02*
D03*
D03*
X1101599Y555491D02*
D03*
D03*
X1109695Y545382D02*
D03*
D03*
X1107749Y547015D02*
D03*
D03*
X1105804Y548647D02*
D03*
D03*
X1103858Y550280D02*
D03*
D03*
X1101912Y551913D02*
D03*
D03*
X1099967Y553545D02*
D03*
D03*
X1084400Y566607D02*
D03*
D03*
X1086346Y564974D02*
D03*
D03*
X1088292Y563341D02*
D03*
D03*
X1090238Y561709D02*
D03*
D03*
X1092184Y560076D02*
D03*
D03*
X1094129Y558443D02*
D03*
D03*
X1096075Y556811D02*
D03*
D03*
X1098021Y555178D02*
D03*
D03*
X1086033Y568553D02*
D03*
D03*
X1087979Y566920D02*
D03*
D03*
X1089925Y565287D02*
D03*
D03*
X1091870Y563654D02*
D03*
D03*
X1093816Y562022D02*
D03*
D03*
X1095762Y560389D02*
D03*
D03*
X1097708Y558756D02*
D03*
D03*
X1099653Y557124D02*
D03*
D03*
X1087666Y570498D02*
D03*
D03*
X1089612Y568866D02*
D03*
D03*
X1091557Y567233D02*
D03*
D03*
X1093503Y565600D02*
D03*
D03*
X1095449Y563968D02*
D03*
D03*
X1097395Y562335D02*
D03*
D03*
X1099340Y560702D02*
D03*
D03*
X1101286Y559070D02*
D03*
D03*
X1089299Y572444D02*
D03*
D03*
X1091244Y570811D02*
D03*
D03*
X1093190Y569179D02*
D03*
D03*
X1095136Y567546D02*
D03*
D03*
X1097082Y565913D02*
D03*
D03*
X1099027Y564281D02*
D03*
D03*
X1100973Y562648D02*
D03*
D03*
X1102919Y561015D02*
D03*
D03*
X1090931Y574390D02*
D03*
D03*
X1092877Y572757D02*
D03*
D03*
X1094823Y571124D02*
D03*
D03*
X1096768Y569492D02*
D03*
D03*
X1098714Y567859D02*
D03*
D03*
X1100660Y566226D02*
D03*
D03*
X1102606Y564594D02*
D03*
D03*
X1104551Y562961D02*
D03*
D03*
X1092564Y576335D02*
D03*
D03*
X1094510Y574703D02*
D03*
D03*
X1096455Y573070D02*
D03*
D03*
X1098401Y571437D02*
D03*
D03*
X1100347Y569805D02*
D03*
D03*
X1102293Y568172D02*
D03*
D03*
X1104238Y566539D02*
D03*
D03*
X1106184Y564907D02*
D03*
D03*
X1094197Y578281D02*
D03*
D03*
X1096142Y576649D02*
D03*
D03*
X1098088Y575016D02*
D03*
D03*
X1100034Y573383D02*
D03*
D03*
X1101980Y571750D02*
D03*
D03*
X1103925Y570118D02*
D03*
D03*
X1105871Y568485D02*
D03*
D03*
X1107817Y566852D02*
D03*
D03*
X1095829Y580227D02*
D03*
D03*
X1097775Y578594D02*
D03*
D03*
X1099721Y576962D02*
D03*
D03*
X1101666Y575329D02*
D03*
D03*
X1103612Y573696D02*
D03*
D03*
X1105558Y572064D02*
D03*
D03*
X1107504Y570431D02*
D03*
D03*
X1109449Y568798D02*
D03*
D03*
X1097462Y582173D02*
D03*
D03*
X1099408Y580540D02*
D03*
D03*
X1101353Y578907D02*
D03*
D03*
X1103299Y577275D02*
D03*
D03*
X1105245Y575642D02*
D03*
D03*
X1107191Y574009D02*
D03*
D03*
X1109137Y572377D02*
D03*
D03*
X1111082Y570744D02*
D03*
D03*
X1099095Y584118D02*
D03*
X1101040Y582486D02*
D03*
X1102986Y580853D02*
D03*
D03*
X1104932Y579221D02*
D03*
D03*
X1106878Y577588D02*
D03*
D03*
X1108823Y575955D02*
D03*
D03*
X1110769Y574322D02*
D03*
D03*
X1112715Y572690D02*
D03*
D03*
X1100727Y586064D02*
D03*
X1102673Y584432D02*
D03*
X1104619Y582799D02*
D03*
X1106565Y581166D02*
D03*
D03*
X1108510Y579534D02*
D03*
D03*
X1110456Y577901D02*
D03*
D03*
X1112402Y576268D02*
D03*
D03*
X1114348Y574636D02*
D03*
D03*
X1115980Y576581D02*
D03*
D03*
X1114035Y578214D02*
D03*
D03*
X1112089Y579847D02*
D03*
D03*
X1110143Y581479D02*
D03*
D03*
X1108197Y583112D02*
D03*
D03*
X1106252Y584745D02*
D03*
X1104306Y586377D02*
D03*
X875030Y560070D02*
D03*
X876826Y558274D02*
D03*
X878622Y556478D02*
D03*
X880418Y554682D02*
D03*
X882214Y552886D02*
D03*
D03*
X884010Y551090D02*
D03*
D03*
X885806Y549294D02*
D03*
D03*
X887602Y547498D02*
D03*
D03*
X885806Y545702D02*
D03*
D03*
X884010Y547498D02*
D03*
D03*
X882214Y549294D02*
D03*
D03*
X880418Y551090D02*
D03*
D03*
X878622Y552886D02*
D03*
D03*
X876826Y554682D02*
D03*
X875030Y556478D02*
D03*
X873234Y558274D02*
D03*
X884010Y543905D02*
D03*
D03*
X882214Y545702D02*
D03*
D03*
X880418Y547498D02*
D03*
D03*
X878622Y549294D02*
D03*
D03*
X876826Y551090D02*
D03*
D03*
X875030Y552886D02*
D03*
D03*
X873234Y554682D02*
D03*
X871438Y556478D02*
D03*
X882214Y542109D02*
D03*
D03*
X880418Y543905D02*
D03*
D03*
X878622Y545702D02*
D03*
D03*
X876826Y547498D02*
D03*
D03*
X875030Y549294D02*
D03*
D03*
X873234Y551090D02*
D03*
X871438Y552886D02*
D03*
X869642Y554682D02*
D03*
X880418Y540313D02*
D03*
D03*
X878622Y542109D02*
D03*
D03*
X876826Y543905D02*
D03*
D03*
X875030Y545702D02*
D03*
D03*
X873234Y547498D02*
D03*
D03*
X871438Y549294D02*
D03*
X869642Y551090D02*
D03*
X867846Y552886D02*
D03*
X878622Y538517D02*
D03*
D03*
X876826Y540313D02*
D03*
D03*
X875030Y542109D02*
D03*
D03*
X873234Y543905D02*
D03*
D03*
X871438Y545702D02*
D03*
D03*
X869642Y547498D02*
D03*
D03*
X867846Y549294D02*
D03*
X866050Y551090D02*
D03*
X876826Y536721D02*
D03*
D03*
X875030Y538517D02*
D03*
D03*
X873234Y540313D02*
D03*
D03*
X871438Y542109D02*
D03*
D03*
X869642Y543905D02*
D03*
D03*
X867846Y545702D02*
D03*
D03*
X866050Y547498D02*
D03*
D03*
X864254Y549294D02*
D03*
X875030Y534925D02*
D03*
D03*
X873234Y536721D02*
D03*
D03*
X871438Y538517D02*
D03*
D03*
X869642Y540313D02*
D03*
D03*
X867846Y542109D02*
D03*
D03*
X866050Y543905D02*
D03*
D03*
X864254Y545702D02*
D03*
D03*
X862458Y547498D02*
D03*
D03*
X873234Y533129D02*
D03*
D03*
X871438Y534925D02*
D03*
D03*
X869642Y536721D02*
D03*
D03*
X867846Y538517D02*
D03*
D03*
X866050Y540313D02*
D03*
D03*
X864254Y542109D02*
D03*
D03*
X862458Y543905D02*
D03*
D03*
X860662Y545702D02*
D03*
D03*
X871438Y531333D02*
D03*
D03*
X869642Y533129D02*
D03*
D03*
X867846Y534925D02*
D03*
D03*
X866050Y536721D02*
D03*
D03*
X864254Y538517D02*
D03*
D03*
X862458Y540313D02*
D03*
D03*
X860662Y542109D02*
D03*
D03*
X858866Y543905D02*
D03*
D03*
X869642Y529537D02*
D03*
D03*
X867846Y531333D02*
D03*
D03*
X866050Y533129D02*
D03*
D03*
X864254Y534925D02*
D03*
D03*
X862458Y536721D02*
D03*
D03*
X860662Y538517D02*
D03*
D03*
X858866Y540313D02*
D03*
D03*
X857069Y542109D02*
D03*
D03*
X867846Y527741D02*
D03*
D03*
X866050Y529537D02*
D03*
D03*
X864254Y531333D02*
D03*
D03*
X862458Y533129D02*
D03*
D03*
X860662Y534925D02*
D03*
D03*
X858866Y536721D02*
D03*
D03*
X857069Y538517D02*
D03*
D03*
X855273Y540313D02*
D03*
D03*
X869642Y525945D02*
D03*
D03*
X871438Y524149D02*
D03*
D03*
X873234Y522353D02*
D03*
D03*
X875030Y520557D02*
D03*
D03*
X876826Y518761D02*
D03*
D03*
X878622Y516965D02*
D03*
D03*
X871438Y527741D02*
D03*
D03*
X873234Y525945D02*
D03*
D03*
X875030Y524149D02*
D03*
D03*
X876826Y522353D02*
D03*
D03*
X878622Y520557D02*
D03*
D03*
X880418Y518761D02*
D03*
D03*
X873234Y529537D02*
D03*
D03*
X875030Y527741D02*
D03*
D03*
X876826Y525945D02*
D03*
D03*
X878622Y524149D02*
D03*
D03*
X880418Y522353D02*
D03*
D03*
X882214Y520557D02*
D03*
D03*
X875030Y531333D02*
D03*
D03*
X876826Y529537D02*
D03*
D03*
X878622Y527741D02*
D03*
D03*
X880418Y525945D02*
D03*
D03*
X882214Y524149D02*
D03*
D03*
X884010Y522353D02*
D03*
D03*
X876826Y533129D02*
D03*
D03*
X878622Y531333D02*
D03*
D03*
X880418Y529537D02*
D03*
D03*
X882214Y527741D02*
D03*
D03*
X884010Y525945D02*
D03*
D03*
X885806Y524149D02*
D03*
D03*
X878622Y534925D02*
D03*
D03*
X880418Y533129D02*
D03*
D03*
X882214Y531333D02*
D03*
D03*
X884010Y529537D02*
D03*
D03*
X885806Y527741D02*
D03*
D03*
X887602Y525945D02*
D03*
D03*
X880418Y536721D02*
D03*
D03*
X882214Y534925D02*
D03*
D03*
X884010Y533129D02*
D03*
D03*
X885806Y531333D02*
D03*
D03*
X887602Y529537D02*
D03*
D03*
X889398Y527741D02*
D03*
D03*
X882214Y538517D02*
D03*
D03*
X884010Y536721D02*
D03*
D03*
X885806Y534925D02*
D03*
D03*
X887602Y533129D02*
D03*
D03*
X889398Y531333D02*
D03*
D03*
X891195Y529537D02*
D03*
D03*
X884010Y540313D02*
D03*
D03*
X885806Y538517D02*
D03*
D03*
X887602Y536721D02*
D03*
D03*
X889398Y534925D02*
D03*
D03*
X891195Y533129D02*
D03*
D03*
X892990Y531333D02*
D03*
D03*
X885806Y542109D02*
D03*
D03*
X887602Y540313D02*
D03*
D03*
X889398Y538517D02*
D03*
D03*
X891195Y536721D02*
D03*
D03*
X892990Y534925D02*
D03*
D03*
X894787Y533129D02*
D03*
D03*
X887602Y543905D02*
D03*
D03*
X889398Y542109D02*
D03*
D03*
X891195Y540313D02*
D03*
D03*
X892990Y538517D02*
D03*
D03*
X894787Y536721D02*
D03*
D03*
X896583Y534925D02*
D03*
D03*
X898379Y536721D02*
D03*
D03*
X896583Y538517D02*
D03*
D03*
X894787Y540313D02*
D03*
D03*
X892990Y542109D02*
D03*
D03*
X891195Y543905D02*
D03*
D03*
X889398Y545702D02*
D03*
D03*
X833721Y518761D02*
D03*
D03*
X835517Y516965D02*
D03*
D03*
X837313Y515169D02*
D03*
D03*
X839109Y513373D02*
D03*
D03*
X840905Y511577D02*
D03*
D03*
X842701Y509781D02*
D03*
D03*
X844497Y507985D02*
D03*
D03*
X846293Y506189D02*
D03*
D03*
X835517Y520557D02*
D03*
D03*
X837313Y518761D02*
D03*
D03*
X839109Y516965D02*
D03*
D03*
X840905Y515169D02*
D03*
D03*
X842701Y513373D02*
D03*
D03*
X844497Y511577D02*
D03*
D03*
X846293Y509781D02*
D03*
D03*
X848089Y507985D02*
D03*
D03*
X837313Y522353D02*
D03*
D03*
X839109Y520557D02*
D03*
D03*
X840905Y518761D02*
D03*
D03*
X842701Y516965D02*
D03*
D03*
X844497Y515169D02*
D03*
D03*
X846293Y513373D02*
D03*
D03*
X848089Y511577D02*
D03*
D03*
X849885Y509781D02*
D03*
D03*
X839109Y524149D02*
D03*
D03*
X840905Y522353D02*
D03*
D03*
X842701Y520557D02*
D03*
D03*
X844497Y518761D02*
D03*
D03*
X846293Y516965D02*
D03*
D03*
X848089Y515169D02*
D03*
D03*
X849885Y513373D02*
D03*
D03*
X851681Y511577D02*
D03*
D03*
X840905Y525945D02*
D03*
D03*
X842701Y524149D02*
D03*
D03*
X844497Y522353D02*
D03*
D03*
X846293Y520557D02*
D03*
D03*
X848089Y518761D02*
D03*
D03*
X849885Y516965D02*
D03*
D03*
X851681Y515169D02*
D03*
D03*
X853477Y513373D02*
D03*
D03*
X842701Y527741D02*
D03*
D03*
X844497Y525945D02*
D03*
D03*
X846293Y524149D02*
D03*
D03*
X848089Y522353D02*
D03*
D03*
X849885Y520557D02*
D03*
D03*
X851681Y518761D02*
D03*
D03*
X853477Y516965D02*
D03*
D03*
X855273Y515169D02*
D03*
D03*
X844497Y529537D02*
D03*
D03*
X846293Y527741D02*
D03*
D03*
X848089Y525945D02*
D03*
D03*
X849885Y524149D02*
D03*
D03*
X851681Y522353D02*
D03*
D03*
X853477Y520557D02*
D03*
D03*
X855273Y518761D02*
D03*
D03*
X857069Y516965D02*
D03*
D03*
X846293Y531333D02*
D03*
D03*
X848089Y529537D02*
D03*
D03*
X849885Y527741D02*
D03*
D03*
X851681Y525945D02*
D03*
D03*
X853477Y524149D02*
D03*
D03*
X855273Y522353D02*
D03*
D03*
X857069Y520557D02*
D03*
D03*
X858866Y518761D02*
D03*
D03*
X848089Y533129D02*
D03*
D03*
X849885Y531333D02*
D03*
D03*
X851681Y529537D02*
D03*
D03*
X853477Y527741D02*
D03*
D03*
X855273Y525945D02*
D03*
D03*
X857069Y524149D02*
D03*
D03*
X858866Y522353D02*
D03*
D03*
X860662Y520557D02*
D03*
D03*
X849885Y534925D02*
D03*
D03*
X851681Y533129D02*
D03*
D03*
X853477Y531333D02*
D03*
D03*
X855273Y529537D02*
D03*
D03*
X857069Y527741D02*
D03*
D03*
X858866Y525945D02*
D03*
D03*
X860662Y524149D02*
D03*
D03*
X862458Y522353D02*
D03*
D03*
X851681Y536721D02*
D03*
D03*
X853477Y534925D02*
D03*
D03*
X855273Y533129D02*
D03*
D03*
X857069Y531333D02*
D03*
D03*
X858866Y529537D02*
D03*
D03*
X860662Y527741D02*
D03*
D03*
X862458Y525945D02*
D03*
D03*
X864254Y524149D02*
D03*
D03*
X866050Y525945D02*
D03*
D03*
X864254Y527741D02*
D03*
D03*
X862458Y529537D02*
D03*
D03*
X860662Y531333D02*
D03*
D03*
X858866Y533129D02*
D03*
D03*
X857069Y534925D02*
D03*
D03*
X855273Y536721D02*
D03*
D03*
X853477Y538517D02*
D03*
D03*
X848089Y504392D02*
D03*
D03*
X849885Y502596D02*
D03*
D03*
X851681Y500800D02*
D03*
D03*
X853477Y499004D02*
D03*
D03*
X855273Y497208D02*
D03*
D03*
X857069Y495412D02*
D03*
D03*
X849885Y506189D02*
D03*
D03*
X851681Y504392D02*
D03*
D03*
X853477Y502596D02*
D03*
D03*
X855273Y500800D02*
D03*
D03*
X857069Y499004D02*
D03*
D03*
X858866Y497208D02*
D03*
D03*
X851681Y507985D02*
D03*
D03*
X853477Y506189D02*
D03*
D03*
X855273Y504392D02*
D03*
D03*
X857069Y502596D02*
D03*
D03*
X858866Y500800D02*
D03*
D03*
X860662Y499004D02*
D03*
D03*
X853477Y509781D02*
D03*
D03*
X855273Y507985D02*
D03*
D03*
X857069Y506189D02*
D03*
D03*
X858866Y504392D02*
D03*
D03*
X860662Y502596D02*
D03*
D03*
X862458Y500800D02*
D03*
D03*
X855273Y511577D02*
D03*
D03*
X857069Y509781D02*
D03*
D03*
X858866Y507985D02*
D03*
D03*
X860662Y506189D02*
D03*
D03*
X862458Y504392D02*
D03*
D03*
X864254Y502596D02*
D03*
D03*
X857069Y513373D02*
D03*
D03*
X858866Y511577D02*
D03*
D03*
X860662Y509781D02*
D03*
D03*
X862458Y507985D02*
D03*
D03*
X864254Y506189D02*
D03*
D03*
X866050Y504392D02*
D03*
D03*
X858866Y515169D02*
D03*
D03*
X860662Y513373D02*
D03*
D03*
X862458Y511577D02*
D03*
D03*
X864254Y509781D02*
D03*
D03*
X866050Y507985D02*
D03*
D03*
X867846Y506189D02*
D03*
D03*
X860662Y516965D02*
D03*
D03*
X862458Y515169D02*
D03*
D03*
X864254Y513373D02*
D03*
D03*
X866050Y511577D02*
D03*
D03*
X867846Y509781D02*
D03*
D03*
X869642Y507985D02*
D03*
D03*
X862458Y518761D02*
D03*
D03*
X864254Y516965D02*
D03*
D03*
X866050Y515169D02*
D03*
D03*
X867846Y513373D02*
D03*
D03*
X869642Y511577D02*
D03*
D03*
X871438Y509781D02*
D03*
D03*
X864254Y520557D02*
D03*
D03*
X866050Y518761D02*
D03*
D03*
X867846Y516965D02*
D03*
D03*
X869642Y515169D02*
D03*
D03*
X871438Y513373D02*
D03*
D03*
X873234Y511577D02*
D03*
D03*
X866050Y522353D02*
D03*
D03*
X867846Y520557D02*
D03*
D03*
X869642Y518761D02*
D03*
D03*
X871438Y516965D02*
D03*
D03*
X873234Y515169D02*
D03*
D03*
X875030Y513373D02*
D03*
D03*
X876826Y515169D02*
D03*
D03*
X875030Y516965D02*
D03*
D03*
X873234Y518761D02*
D03*
D03*
X871438Y520557D02*
D03*
D03*
X869642Y522353D02*
D03*
D03*
X867846Y524149D02*
D03*
D03*
X753110Y502920D02*
D03*
D03*
X754906Y504716D02*
D03*
D03*
X756702Y502920D02*
D03*
D03*
X754906Y501124D02*
D03*
D03*
X760294Y502920D02*
D03*
D03*
X758498Y501124D02*
D03*
D03*
X756702Y499328D02*
D03*
D03*
X763886Y502920D02*
D03*
D03*
X762090Y501124D02*
D03*
D03*
X760294Y499328D02*
D03*
D03*
X758498Y497532D02*
D03*
D03*
X767478Y502920D02*
D03*
D03*
X765682Y501124D02*
D03*
D03*
X763886Y499328D02*
D03*
D03*
X762090Y497532D02*
D03*
D03*
X760294Y495736D02*
D03*
D03*
X767478Y499328D02*
D03*
D03*
X765682Y497532D02*
D03*
D03*
X763886Y495736D02*
D03*
D03*
X762090Y493940D02*
D03*
D03*
X767478Y495736D02*
D03*
D03*
X765682Y493940D02*
D03*
D03*
X763886Y492144D02*
D03*
D03*
X769275Y493940D02*
D03*
D03*
X767478Y492144D02*
D03*
D03*
X765682Y490348D02*
D03*
D03*
X769275D02*
D03*
D03*
X767478Y488552D02*
D03*
D03*
X771070D02*
D03*
D03*
X769275Y486755D02*
D03*
D03*
X772867D02*
D03*
D03*
X771070Y484959D02*
D03*
D03*
X774663D02*
D03*
D03*
X772867Y483163D02*
D03*
D03*
X794419Y504716D02*
D03*
D03*
X796215Y506512D02*
D03*
D03*
X794419Y508308D02*
D03*
D03*
X778255Y513696D02*
D03*
X783643Y519085D02*
D03*
X774663Y517288D02*
D03*
X771070D02*
D03*
D03*
X794419Y461611D02*
D03*
D03*
X796215Y463407D02*
D03*
D03*
X792623D02*
D03*
D03*
X794419Y465203D02*
D03*
D03*
X790827D02*
D03*
D03*
X792623Y466999D02*
D03*
D03*
X789031D02*
D03*
D03*
X790827Y468795D02*
D03*
D03*
X787235D02*
D03*
D03*
X789031Y470591D02*
D03*
D03*
X785439D02*
D03*
D03*
X787235Y472387D02*
D03*
D03*
X783643D02*
D03*
D03*
X785439Y474183D02*
D03*
D03*
X787235Y475979D02*
D03*
D03*
X781847Y474183D02*
D03*
D03*
X783643Y475979D02*
D03*
D03*
X785439Y477775D02*
D03*
D03*
X780051Y475979D02*
D03*
D03*
X781847Y477775D02*
D03*
D03*
X783643Y479571D02*
D03*
D03*
X785439Y481367D02*
D03*
D03*
X778255Y477775D02*
D03*
D03*
X780051Y479571D02*
D03*
D03*
X781847Y481367D02*
D03*
D03*
X783643Y483163D02*
D03*
D03*
X785439Y484959D02*
D03*
D03*
X787235Y486755D02*
D03*
D03*
X790827Y490348D02*
D03*
D03*
X776459Y479571D02*
D03*
D03*
X778255Y481367D02*
D03*
D03*
X780051Y483163D02*
D03*
D03*
X781847Y484959D02*
D03*
D03*
X778255D02*
D03*
D03*
X776459Y483163D02*
D03*
D03*
X774663Y481367D02*
D03*
D03*
X815972Y483163D02*
D03*
D03*
X817768Y484959D02*
D03*
D03*
X814176D02*
D03*
D03*
X815972Y486755D02*
D03*
D03*
X812380D02*
D03*
D03*
X814176Y488552D02*
D03*
D03*
X810584D02*
D03*
D03*
X812380Y490348D02*
D03*
D03*
X808788D02*
D03*
D03*
X810584Y492144D02*
D03*
D03*
X806992D02*
D03*
D03*
X808788Y493940D02*
D03*
D03*
X803399Y492144D02*
D03*
D03*
X805195Y493940D02*
D03*
D03*
X806992Y495736D02*
D03*
D03*
X799807Y492144D02*
D03*
D03*
X801603Y493940D02*
D03*
D03*
X803399Y495736D02*
D03*
D03*
X805195Y497532D02*
D03*
D03*
X796215Y492144D02*
D03*
D03*
X798011Y493940D02*
D03*
D03*
X799807Y495736D02*
D03*
D03*
X801603Y497532D02*
D03*
D03*
X803399Y499328D02*
D03*
D03*
X792623Y492144D02*
D03*
D03*
X794419Y493940D02*
D03*
D03*
X796215Y495736D02*
D03*
D03*
X798011Y497532D02*
D03*
D03*
X799807Y499328D02*
D03*
D03*
X801603Y501124D02*
D03*
D03*
X794419Y497532D02*
D03*
D03*
X796215Y499328D02*
D03*
D03*
X798011Y501124D02*
D03*
D03*
X799807Y502920D02*
D03*
D03*
X798011Y504716D02*
D03*
D03*
X796215Y502920D02*
D03*
D03*
X794419Y501124D02*
D03*
D03*
X980440Y763270D02*
D03*
D03*
X982236Y765066D02*
D03*
D03*
X984032Y766862D02*
D03*
D03*
X985828Y768658D02*
D03*
D03*
X987624Y770454D02*
D03*
D03*
X989420Y772250D02*
D03*
D03*
X991216Y774046D02*
D03*
D03*
X993012Y775842D02*
D03*
D03*
X994808Y774046D02*
D03*
D03*
X993012Y772250D02*
D03*
D03*
X991216Y770454D02*
D03*
D03*
X989420Y768658D02*
D03*
D03*
X987624Y766862D02*
D03*
D03*
X985828Y765066D02*
D03*
D03*
X984032Y763270D02*
D03*
D03*
X982236Y761474D02*
D03*
D03*
X996605Y772250D02*
D03*
D03*
X994808Y770454D02*
D03*
D03*
X993012Y768658D02*
D03*
D03*
X991216Y766862D02*
D03*
D03*
X989420Y765066D02*
D03*
D03*
X987624Y763270D02*
D03*
D03*
X985828Y761474D02*
D03*
D03*
X984032Y759678D02*
D03*
D03*
X998400Y770454D02*
D03*
D03*
X996605Y768658D02*
D03*
D03*
X994808Y766862D02*
D03*
D03*
X993012Y765066D02*
D03*
D03*
X991216Y763270D02*
D03*
D03*
X989420Y761474D02*
D03*
D03*
X987624Y759678D02*
D03*
D03*
X985828Y757882D02*
D03*
D03*
X1000197Y768658D02*
D03*
D03*
X998400Y766862D02*
D03*
D03*
X996605Y765066D02*
D03*
D03*
X994808Y763270D02*
D03*
D03*
X993012Y761474D02*
D03*
D03*
X991216Y759678D02*
D03*
D03*
X989420Y757882D02*
D03*
D03*
X987624Y756086D02*
D03*
D03*
X1001993Y766862D02*
D03*
D03*
X1000197Y765066D02*
D03*
D03*
X998400Y763270D02*
D03*
D03*
X996605Y761474D02*
D03*
D03*
X994808Y759678D02*
D03*
D03*
X993012Y757882D02*
D03*
D03*
X991216Y756086D02*
D03*
D03*
X989420Y754290D02*
D03*
D03*
X1003789Y765066D02*
D03*
D03*
X1001993Y763270D02*
D03*
D03*
X1000197Y761474D02*
D03*
D03*
X998400Y759678D02*
D03*
D03*
X996605Y757882D02*
D03*
D03*
X994808Y756086D02*
D03*
D03*
X993012Y754290D02*
D03*
D03*
X991216Y752494D02*
D03*
D03*
X1005585Y763270D02*
D03*
D03*
X1003789Y761474D02*
D03*
D03*
X1001993Y759678D02*
D03*
D03*
X1000197Y757882D02*
D03*
D03*
X998400Y756086D02*
D03*
D03*
X996605Y754290D02*
D03*
D03*
X994808Y752494D02*
D03*
D03*
X993012Y750698D02*
D03*
D03*
X1007381Y761474D02*
D03*
D03*
X1005585Y759678D02*
D03*
D03*
X1003789Y757882D02*
D03*
D03*
X1001993Y756086D02*
D03*
D03*
X1000197Y754290D02*
D03*
D03*
X998400Y752494D02*
D03*
D03*
X996605Y750698D02*
D03*
D03*
X994808Y748902D02*
D03*
D03*
X1009177Y759678D02*
D03*
D03*
X1007381Y757882D02*
D03*
D03*
X1005585Y756086D02*
D03*
D03*
X1003789Y754290D02*
D03*
D03*
X1001993Y752494D02*
D03*
D03*
X1000197Y750698D02*
D03*
D03*
X998400Y748902D02*
D03*
D03*
X996605Y747105D02*
D03*
D03*
X1010973Y757882D02*
D03*
D03*
X1009177Y756086D02*
D03*
D03*
X1007381Y754290D02*
D03*
D03*
X1005585Y752494D02*
D03*
D03*
X1003789Y750698D02*
D03*
D03*
X1001993Y748902D02*
D03*
D03*
X1000197Y747105D02*
D03*
D03*
X998400Y745310D02*
D03*
D03*
X1012769Y756086D02*
D03*
D03*
X1010973Y754290D02*
D03*
D03*
X1009177Y752494D02*
D03*
D03*
X1007381Y750698D02*
D03*
D03*
X1005585Y748902D02*
D03*
D03*
X1003789Y747105D02*
D03*
D03*
X1001993Y745310D02*
D03*
D03*
X1000197Y743513D02*
D03*
D03*
X1014565Y757882D02*
D03*
D03*
X1016361Y759678D02*
D03*
D03*
X1018157Y761474D02*
D03*
D03*
X1019953Y763270D02*
D03*
D03*
X1021749Y765066D02*
D03*
D03*
X1023545Y766862D02*
D03*
D03*
X1012769Y759678D02*
D03*
D03*
X1014565Y761474D02*
D03*
D03*
X1016361Y763270D02*
D03*
D03*
X1018157Y765066D02*
D03*
D03*
X1019953Y766862D02*
D03*
D03*
X1021749Y768658D02*
D03*
D03*
X1010973Y761474D02*
D03*
D03*
X1012769Y763270D02*
D03*
D03*
X1014565Y765066D02*
D03*
D03*
X1016361Y766862D02*
D03*
D03*
X1018157Y768658D02*
D03*
D03*
X1019953Y770454D02*
D03*
D03*
X1009177Y763270D02*
D03*
D03*
X1010973Y765066D02*
D03*
D03*
X1012769Y766862D02*
D03*
D03*
X1014565Y768658D02*
D03*
D03*
X1016361Y770454D02*
D03*
D03*
X1018157Y772250D02*
D03*
D03*
X1007381Y765066D02*
D03*
D03*
X1009177Y766862D02*
D03*
D03*
X1010973Y768658D02*
D03*
D03*
X1012769Y770454D02*
D03*
D03*
X1014565Y772250D02*
D03*
D03*
X1016361Y774046D02*
D03*
D03*
X1005585Y766862D02*
D03*
D03*
X1007381Y768658D02*
D03*
D03*
X1009177Y770454D02*
D03*
D03*
X1010973Y772250D02*
D03*
D03*
X1012769Y774046D02*
D03*
D03*
X1014565Y775842D02*
D03*
D03*
X1003789Y768658D02*
D03*
D03*
X1005585Y770454D02*
D03*
D03*
X1007381Y772250D02*
D03*
D03*
X1009177Y774046D02*
D03*
D03*
X1010973Y775842D02*
D03*
D03*
X1012769Y777638D02*
D03*
D03*
X1001993Y770454D02*
D03*
D03*
X1003789Y772250D02*
D03*
D03*
X1005585Y774046D02*
D03*
D03*
X1007381Y775842D02*
D03*
D03*
X1009177Y777638D02*
D03*
D03*
X1010973Y779435D02*
D03*
D03*
X1000197Y772250D02*
D03*
D03*
X1001993Y774046D02*
D03*
D03*
X1003789Y775842D02*
D03*
D03*
X1005585Y777638D02*
D03*
D03*
X1007381Y779435D02*
D03*
D03*
X1009177Y781230D02*
D03*
D03*
X998400Y774046D02*
D03*
D03*
X1000197Y775842D02*
D03*
D03*
X1001993Y777638D02*
D03*
D03*
X1003789Y779435D02*
D03*
D03*
X1005585Y781230D02*
D03*
D03*
X1007381Y783027D02*
D03*
D03*
X996605Y775842D02*
D03*
D03*
X998400Y777638D02*
D03*
D03*
X1000197Y779435D02*
D03*
D03*
X1001993Y781230D02*
D03*
D03*
X1003789Y783027D02*
D03*
D03*
X1005585Y784823D02*
D03*
D03*
X1003789Y786619D02*
D03*
D03*
X1001993Y784823D02*
D03*
D03*
X1000197Y783027D02*
D03*
D03*
X998400Y781230D02*
D03*
D03*
X996605Y779435D02*
D03*
D03*
X994808Y777638D02*
D03*
D03*
X1021749Y721961D02*
D03*
D03*
X1023545Y723757D02*
D03*
D03*
X1025341Y725553D02*
D03*
D03*
X1027137Y727349D02*
D03*
D03*
X1028933Y729145D02*
D03*
D03*
X1030729Y730941D02*
D03*
D03*
X1032525Y732737D02*
D03*
D03*
X1034322Y734533D02*
D03*
D03*
X1019953Y723757D02*
D03*
D03*
X1021749Y725553D02*
D03*
D03*
X1023545Y727349D02*
D03*
D03*
X1025341Y729145D02*
D03*
D03*
X1027137Y730941D02*
D03*
D03*
X1028933Y732737D02*
D03*
D03*
X1030729Y734533D02*
D03*
D03*
X1032525Y736329D02*
D03*
D03*
X1018157Y725553D02*
D03*
D03*
X1019953Y727349D02*
D03*
D03*
X1021749Y729145D02*
D03*
D03*
X1023545Y730941D02*
D03*
D03*
X1025341Y732737D02*
D03*
D03*
X1027137Y734533D02*
D03*
D03*
X1028933Y736329D02*
D03*
D03*
X1030729Y738125D02*
D03*
D03*
X1016361Y727349D02*
D03*
D03*
X1018157Y729145D02*
D03*
D03*
X1019953Y730941D02*
D03*
D03*
X1021749Y732737D02*
D03*
D03*
X1023545Y734533D02*
D03*
D03*
X1025341Y736329D02*
D03*
D03*
X1027137Y738125D02*
D03*
D03*
X1028933Y739921D02*
D03*
D03*
X1014565Y729145D02*
D03*
D03*
X1016361Y730941D02*
D03*
D03*
X1018157Y732737D02*
D03*
D03*
X1019953Y734533D02*
D03*
D03*
X1021749Y736329D02*
D03*
D03*
X1023545Y738125D02*
D03*
D03*
X1025341Y739921D02*
D03*
D03*
X1027137Y741717D02*
D03*
D03*
X1012769Y730941D02*
D03*
D03*
X1014565Y732737D02*
D03*
D03*
X1016361Y734533D02*
D03*
D03*
X1018157Y736329D02*
D03*
D03*
X1019953Y738125D02*
D03*
D03*
X1021749Y739921D02*
D03*
D03*
X1023545Y741717D02*
D03*
D03*
X1025341Y743513D02*
D03*
D03*
X1010973Y732737D02*
D03*
D03*
X1012769Y734533D02*
D03*
D03*
X1014565Y736329D02*
D03*
D03*
X1016361Y738125D02*
D03*
D03*
X1018157Y739921D02*
D03*
D03*
X1019953Y741717D02*
D03*
D03*
X1021749Y743513D02*
D03*
D03*
X1023545Y745310D02*
D03*
D03*
X1009177Y734533D02*
D03*
D03*
X1010973Y736329D02*
D03*
D03*
X1012769Y738125D02*
D03*
D03*
X1014565Y739921D02*
D03*
D03*
X1016361Y741717D02*
D03*
D03*
X1018157Y743513D02*
D03*
D03*
X1019953Y745310D02*
D03*
D03*
X1021749Y747105D02*
D03*
D03*
X1007381Y736329D02*
D03*
D03*
X1009177Y738125D02*
D03*
D03*
X1010973Y739921D02*
D03*
D03*
X1012769Y741717D02*
D03*
D03*
X1014565Y743513D02*
D03*
D03*
X1016361Y745310D02*
D03*
D03*
X1018157Y747105D02*
D03*
D03*
X1019953Y748902D02*
D03*
D03*
X1005585Y738125D02*
D03*
D03*
X1007381Y739921D02*
D03*
D03*
X1009177Y741717D02*
D03*
D03*
X1010973Y743513D02*
D03*
D03*
X1012769Y745310D02*
D03*
D03*
X1014565Y747105D02*
D03*
D03*
X1016361Y748902D02*
D03*
D03*
X1018157Y750698D02*
D03*
D03*
X1003789Y739921D02*
D03*
D03*
X1005585Y741717D02*
D03*
D03*
X1007381Y743513D02*
D03*
D03*
X1009177Y745310D02*
D03*
D03*
X1010973Y747105D02*
D03*
D03*
X1012769Y748902D02*
D03*
D03*
X1014565Y750698D02*
D03*
D03*
X1016361Y752494D02*
D03*
D03*
X1014565Y754290D02*
D03*
D03*
X1012769Y752494D02*
D03*
D03*
X1010973Y750698D02*
D03*
D03*
X1009177Y748902D02*
D03*
D03*
X1007381Y747105D02*
D03*
D03*
X1005585Y745310D02*
D03*
D03*
X1003789Y743513D02*
D03*
D03*
X1001993Y741717D02*
D03*
D03*
X1036118Y736329D02*
D03*
D03*
X1037914Y738125D02*
D03*
D03*
X1039710Y739921D02*
D03*
D03*
X1041506Y741717D02*
D03*
D03*
X1043302Y743513D02*
D03*
D03*
X1045098Y745310D02*
D03*
D03*
X1034322Y738125D02*
D03*
D03*
X1036118Y739921D02*
D03*
D03*
X1037914Y741717D02*
D03*
D03*
X1039710Y743513D02*
D03*
D03*
X1041506Y745310D02*
D03*
D03*
X1043302Y747105D02*
D03*
D03*
X1032525Y739921D02*
D03*
D03*
X1034322Y741717D02*
D03*
D03*
X1036118Y743513D02*
D03*
D03*
X1037914Y745310D02*
D03*
D03*
X1039710Y747105D02*
D03*
D03*
X1041506Y748902D02*
D03*
D03*
X1030729Y741717D02*
D03*
D03*
X1032525Y743513D02*
D03*
D03*
X1034322Y745310D02*
D03*
D03*
X1036118Y747105D02*
D03*
D03*
X1037914Y748902D02*
D03*
D03*
X1039710Y750698D02*
D03*
D03*
X1028933Y743513D02*
D03*
D03*
X1030729Y745310D02*
D03*
D03*
X1032525Y747105D02*
D03*
D03*
X1034322Y748902D02*
D03*
D03*
X1036118Y750698D02*
D03*
D03*
X1037914Y752494D02*
D03*
D03*
X1027137Y745310D02*
D03*
D03*
X1028933Y747105D02*
D03*
D03*
X1030729Y748902D02*
D03*
D03*
X1032525Y750698D02*
D03*
D03*
X1034322Y752494D02*
D03*
D03*
X1036118Y754290D02*
D03*
D03*
X1025341Y747105D02*
D03*
D03*
X1027137Y748902D02*
D03*
D03*
X1028933Y750698D02*
D03*
D03*
X1030729Y752494D02*
D03*
D03*
X1032525Y754290D02*
D03*
D03*
X1034322Y756086D02*
D03*
D03*
X1023545Y748902D02*
D03*
D03*
X1025341Y750698D02*
D03*
D03*
X1027137Y752494D02*
D03*
D03*
X1028933Y754290D02*
D03*
D03*
X1030729Y756086D02*
D03*
D03*
X1032525Y757882D02*
D03*
D03*
X1021749Y750698D02*
D03*
D03*
X1023545Y752494D02*
D03*
D03*
X1025341Y754290D02*
D03*
D03*
X1027137Y756086D02*
D03*
D03*
X1028933Y757882D02*
D03*
D03*
X1030729Y759678D02*
D03*
D03*
X1019953Y752494D02*
D03*
D03*
X1021749Y754290D02*
D03*
D03*
X1023545Y756086D02*
D03*
D03*
X1025341Y757882D02*
D03*
D03*
X1027137Y759678D02*
D03*
D03*
X1028933Y761474D02*
D03*
D03*
X1018157Y754290D02*
D03*
D03*
X1019953Y756086D02*
D03*
D03*
X1021749Y757882D02*
D03*
D03*
X1023545Y759678D02*
D03*
D03*
X1025341Y761474D02*
D03*
D03*
X1027137Y763270D02*
D03*
D03*
X1025341Y765066D02*
D03*
D03*
X1023545Y763270D02*
D03*
D03*
X1021749Y761474D02*
D03*
D03*
X1019953Y759678D02*
D03*
D03*
X1018157Y757882D02*
D03*
D03*
X1016361Y756086D02*
D03*
D03*
X1062990Y840740D02*
D03*
D03*
X1064786Y842536D02*
D03*
D03*
X1066582Y844332D02*
D03*
D03*
X1068378Y846128D02*
D03*
D03*
X1070174Y847924D02*
D03*
D03*
X1071970Y849720D02*
D03*
D03*
X1073766Y851516D02*
D03*
D03*
X1075562Y853312D02*
D03*
D03*
X1077358Y851516D02*
D03*
D03*
X1075562Y849720D02*
D03*
D03*
X1073766Y847924D02*
D03*
D03*
X1071970Y846128D02*
D03*
D03*
X1070174Y844332D02*
D03*
D03*
X1068378Y842536D02*
D03*
D03*
X1066582Y840740D02*
D03*
D03*
X1064786Y838944D02*
D03*
D03*
X1079155Y849720D02*
D03*
D03*
X1077358Y847924D02*
D03*
D03*
X1075562Y846128D02*
D03*
D03*
X1073766Y844332D02*
D03*
D03*
X1071970Y842536D02*
D03*
D03*
X1070174Y840740D02*
D03*
D03*
X1068378Y838944D02*
D03*
D03*
X1066582Y837148D02*
D03*
D03*
X1080950Y847924D02*
D03*
D03*
X1079155Y846128D02*
D03*
D03*
X1077358Y844332D02*
D03*
D03*
X1075562Y842536D02*
D03*
D03*
X1073766Y840740D02*
D03*
D03*
X1071970Y838944D02*
D03*
D03*
X1070174Y837148D02*
D03*
D03*
X1068378Y835352D02*
D03*
D03*
X1082747Y846128D02*
D03*
D03*
X1080950Y844332D02*
D03*
D03*
X1079155Y842536D02*
D03*
D03*
X1077358Y840740D02*
D03*
D03*
X1075562Y838944D02*
D03*
D03*
X1073766Y837148D02*
D03*
D03*
X1071970Y835352D02*
D03*
D03*
X1070174Y833556D02*
D03*
D03*
X1084543Y844332D02*
D03*
D03*
X1082747Y842536D02*
D03*
D03*
X1080950Y840740D02*
D03*
D03*
X1079155Y838944D02*
D03*
D03*
X1077358Y837148D02*
D03*
D03*
X1075562Y835352D02*
D03*
D03*
X1073766Y833556D02*
D03*
D03*
X1071970Y831760D02*
D03*
D03*
X1086339Y842536D02*
D03*
D03*
X1084543Y840740D02*
D03*
D03*
X1082747Y838944D02*
D03*
D03*
X1080950Y837148D02*
D03*
D03*
X1079155Y835352D02*
D03*
D03*
X1077358Y833556D02*
D03*
D03*
X1075562Y831760D02*
D03*
D03*
X1073766Y829964D02*
D03*
D03*
X1088135Y840740D02*
D03*
D03*
X1086339Y838944D02*
D03*
D03*
X1084543Y837148D02*
D03*
D03*
X1082747Y835352D02*
D03*
D03*
X1080950Y833556D02*
D03*
D03*
X1079155Y831760D02*
D03*
D03*
X1077358Y829964D02*
D03*
D03*
X1075562Y828168D02*
D03*
D03*
X1089931Y838944D02*
D03*
D03*
X1088135Y837148D02*
D03*
D03*
X1086339Y835352D02*
D03*
D03*
X1084543Y833556D02*
D03*
D03*
X1082747Y831760D02*
D03*
D03*
X1080950Y829964D02*
D03*
D03*
X1079155Y828168D02*
D03*
D03*
X1077358Y826372D02*
D03*
D03*
X1091727Y837148D02*
D03*
D03*
X1089931Y835352D02*
D03*
D03*
X1088135Y833556D02*
D03*
D03*
X1086339Y831760D02*
D03*
D03*
X1084543Y829964D02*
D03*
D03*
X1082747Y828168D02*
D03*
D03*
X1080950Y826372D02*
D03*
D03*
X1079155Y824576D02*
D03*
D03*
X1093523Y835352D02*
D03*
D03*
X1091727Y833556D02*
D03*
D03*
X1089931Y831760D02*
D03*
D03*
X1088135Y829964D02*
D03*
D03*
X1086339Y828168D02*
D03*
D03*
X1084543Y826372D02*
D03*
D03*
X1082747Y824576D02*
D03*
D03*
X1080950Y822779D02*
D03*
D03*
X1093523Y831760D02*
D03*
D03*
X1091727Y829964D02*
D03*
D03*
X1089931Y828168D02*
D03*
D03*
X1088135Y826372D02*
D03*
D03*
X1086339Y824576D02*
D03*
D03*
X1084543Y822779D02*
D03*
D03*
X1082747Y820983D02*
D03*
D03*
X1098911Y837148D02*
D03*
D03*
X1100707Y838944D02*
D03*
D03*
X1102503Y840740D02*
D03*
D03*
X1104299Y842536D02*
D03*
D03*
X1106095Y844332D02*
D03*
D03*
X1098911Y840740D02*
D03*
D03*
X1100707Y842536D02*
D03*
D03*
X1102503Y844332D02*
D03*
D03*
X1104299Y846128D02*
D03*
D03*
X1093523Y838944D02*
D03*
D03*
X1097115Y842536D02*
D03*
D03*
X1098911Y844332D02*
D03*
D03*
X1100707Y846128D02*
D03*
D03*
X1102503Y847924D02*
D03*
D03*
X1091727Y840740D02*
D03*
D03*
X1093523Y842536D02*
D03*
D03*
X1097115Y846128D02*
D03*
D03*
X1098911Y847924D02*
D03*
D03*
X1100707Y849720D02*
D03*
D03*
X1089931Y842536D02*
D03*
D03*
X1091727Y844332D02*
D03*
D03*
X1095319Y847924D02*
D03*
D03*
X1097115Y849720D02*
D03*
D03*
X1098911Y851516D02*
D03*
D03*
X1088135Y844332D02*
D03*
D03*
X1089931Y846128D02*
D03*
D03*
X1093523Y849720D02*
D03*
D03*
X1095319Y851516D02*
D03*
D03*
X1097115Y853312D02*
D03*
D03*
X1086339Y846128D02*
D03*
D03*
X1088135Y847924D02*
D03*
D03*
X1091727Y851516D02*
D03*
D03*
X1093523Y853312D02*
D03*
D03*
X1095319Y855108D02*
D03*
D03*
X1084543Y847924D02*
D03*
D03*
X1086339Y849720D02*
D03*
D03*
X1089931Y853312D02*
D03*
D03*
X1091727Y855108D02*
D03*
D03*
X1093523Y856905D02*
D03*
D03*
X1082747Y849720D02*
D03*
D03*
X1084543Y851516D02*
D03*
D03*
X1088135Y855108D02*
D03*
D03*
X1089931Y856905D02*
D03*
D03*
X1091727Y858700D02*
D03*
D03*
X1080950Y851516D02*
D03*
D03*
X1082747Y853312D02*
D03*
D03*
X1086339Y856905D02*
D03*
D03*
X1088135Y858700D02*
D03*
D03*
X1089931Y860497D02*
D03*
D03*
X1079155Y853312D02*
D03*
D03*
X1080950Y855108D02*
D03*
D03*
X1084543Y858700D02*
D03*
D03*
X1086339Y860497D02*
D03*
D03*
X1088135Y862293D02*
D03*
D03*
X1086339Y864089D02*
D03*
D03*
X1084543Y862293D02*
D03*
D03*
X1082747Y860497D02*
D03*
D03*
X1079155Y856905D02*
D03*
D03*
X1077358Y855108D02*
D03*
D03*
X1104299Y799431D02*
D03*
D03*
X1106095Y801227D02*
D03*
D03*
X1107891Y803023D02*
D03*
D03*
X1109687Y804819D02*
D03*
D03*
X1111483Y806615D02*
D03*
D03*
X1113279Y808411D02*
D03*
D03*
X1115076Y810207D02*
D03*
D03*
X1116871Y812003D02*
D03*
D03*
X1102503Y801227D02*
D03*
D03*
X1104299Y803023D02*
D03*
D03*
X1106095Y804819D02*
D03*
D03*
X1107891Y806615D02*
D03*
D03*
X1109687Y808411D02*
D03*
D03*
X1111483Y810207D02*
D03*
D03*
X1113279Y812003D02*
D03*
D03*
X1115076Y813799D02*
D03*
D03*
X1100707Y803023D02*
D03*
D03*
X1102503Y804819D02*
D03*
D03*
X1104299Y806615D02*
D03*
D03*
X1106095Y808411D02*
D03*
D03*
X1107891Y810207D02*
D03*
D03*
X1109687Y812003D02*
D03*
D03*
X1111483Y813799D02*
D03*
D03*
X1113279Y815595D02*
D03*
D03*
X1098911Y804819D02*
D03*
D03*
X1100707Y806615D02*
D03*
D03*
X1102503Y808411D02*
D03*
D03*
X1104299Y810207D02*
D03*
D03*
X1106095Y812003D02*
D03*
D03*
X1107891Y813799D02*
D03*
D03*
X1109687Y815595D02*
D03*
D03*
X1111483Y817391D02*
D03*
D03*
X1097115Y806615D02*
D03*
D03*
X1098911Y808411D02*
D03*
D03*
X1100707Y810207D02*
D03*
D03*
X1102503Y812003D02*
D03*
D03*
X1104299Y813799D02*
D03*
D03*
X1106095Y815595D02*
D03*
D03*
X1107891Y817391D02*
D03*
D03*
X1109687Y819187D02*
D03*
D03*
X1095319Y808411D02*
D03*
D03*
X1097115Y810207D02*
D03*
D03*
X1098911Y812003D02*
D03*
D03*
X1100707Y813799D02*
D03*
D03*
X1102503Y815595D02*
D03*
D03*
X1104299Y817391D02*
D03*
D03*
X1106095Y819187D02*
D03*
D03*
X1107891Y820983D02*
D03*
D03*
X1093523Y810207D02*
D03*
D03*
X1095319Y812003D02*
D03*
D03*
X1097115Y813799D02*
D03*
D03*
X1098911Y815595D02*
D03*
D03*
X1100707Y817391D02*
D03*
D03*
X1102503Y819187D02*
D03*
D03*
X1104299Y820983D02*
D03*
D03*
X1106095Y822779D02*
D03*
D03*
X1091727Y812003D02*
D03*
D03*
X1093523Y813799D02*
D03*
D03*
X1095319Y815595D02*
D03*
D03*
X1097115Y817391D02*
D03*
D03*
X1098911Y819187D02*
D03*
D03*
X1100707Y820983D02*
D03*
D03*
X1102503Y822779D02*
D03*
D03*
X1104299Y824576D02*
D03*
D03*
X1089931Y813799D02*
D03*
D03*
X1091727Y815595D02*
D03*
D03*
X1093523Y817391D02*
D03*
D03*
X1095319Y819187D02*
D03*
D03*
X1097115Y820983D02*
D03*
D03*
X1098911Y822779D02*
D03*
D03*
X1100707Y824576D02*
D03*
D03*
X1102503Y826372D02*
D03*
D03*
X1088135Y815595D02*
D03*
D03*
X1089931Y817391D02*
D03*
D03*
X1091727Y819187D02*
D03*
D03*
X1093523Y820983D02*
D03*
D03*
X1095319Y822779D02*
D03*
D03*
X1097115Y824576D02*
D03*
D03*
X1098911Y826372D02*
D03*
D03*
X1100707Y828168D02*
D03*
D03*
X1086339Y817391D02*
D03*
D03*
X1088135Y819187D02*
D03*
D03*
X1089931Y820983D02*
D03*
D03*
X1091727Y822779D02*
D03*
D03*
X1093523Y824576D02*
D03*
D03*
X1095319Y826372D02*
D03*
D03*
X1097115Y828168D02*
D03*
D03*
X1098911Y829964D02*
D03*
D03*
X1093523Y828168D02*
D03*
D03*
X1091727Y826372D02*
D03*
D03*
X1089931Y824576D02*
D03*
D03*
X1088135Y822779D02*
D03*
D03*
X1086339Y820983D02*
D03*
D03*
X1084543Y819187D02*
D03*
D03*
X1118668Y813799D02*
D03*
D03*
X1120464Y815595D02*
D03*
D03*
X1122260Y817391D02*
D03*
D03*
X1124056Y819187D02*
D03*
D03*
X1125852Y820983D02*
D03*
D03*
X1127648Y822779D02*
D03*
D03*
X1116871Y815595D02*
D03*
D03*
X1118668Y817391D02*
D03*
D03*
X1120464Y819187D02*
D03*
D03*
X1122260Y820983D02*
D03*
D03*
X1124056Y822779D02*
D03*
D03*
X1125852Y824576D02*
D03*
D03*
X1115076Y817391D02*
D03*
D03*
X1116871Y819187D02*
D03*
D03*
X1118668Y820983D02*
D03*
D03*
X1120464Y822779D02*
D03*
D03*
X1122260Y824576D02*
D03*
D03*
X1124056Y826372D02*
D03*
D03*
X1113279Y819187D02*
D03*
D03*
X1115076Y820983D02*
D03*
D03*
X1116871Y822779D02*
D03*
D03*
X1118668Y824576D02*
D03*
D03*
X1120464Y826372D02*
D03*
D03*
X1122260Y828168D02*
D03*
D03*
X1111483Y820983D02*
D03*
D03*
X1113279Y822779D02*
D03*
D03*
X1115076Y824576D02*
D03*
D03*
X1116871Y826372D02*
D03*
D03*
X1118668Y828168D02*
D03*
D03*
X1120464Y829964D02*
D03*
D03*
X1109687Y822779D02*
D03*
D03*
X1111483Y824576D02*
D03*
D03*
X1113279Y826372D02*
D03*
D03*
X1115076Y828168D02*
D03*
D03*
X1116871Y829964D02*
D03*
D03*
X1118668Y831760D02*
D03*
D03*
X1107891Y824576D02*
D03*
D03*
X1109687Y826372D02*
D03*
D03*
X1111483Y828168D02*
D03*
D03*
X1113279Y829964D02*
D03*
D03*
X1115076Y831760D02*
D03*
D03*
X1116871Y833556D02*
D03*
D03*
X1106095Y826372D02*
D03*
D03*
X1107891Y828168D02*
D03*
D03*
X1109687Y829964D02*
D03*
D03*
X1111483Y831760D02*
D03*
D03*
X1113279Y833556D02*
D03*
D03*
X1115076Y835352D02*
D03*
D03*
X1104299Y828168D02*
D03*
D03*
X1106095Y829964D02*
D03*
D03*
X1107891Y831760D02*
D03*
D03*
X1109687Y833556D02*
D03*
D03*
X1111483Y835352D02*
D03*
D03*
X1113279Y837148D02*
D03*
D03*
X1102503Y829964D02*
D03*
D03*
X1104299Y831760D02*
D03*
D03*
X1106095Y833556D02*
D03*
D03*
X1107891Y835352D02*
D03*
D03*
X1109687Y837148D02*
D03*
D03*
X1111483Y838944D02*
D03*
D03*
X1100707Y831760D02*
D03*
D03*
X1102503Y833556D02*
D03*
D03*
X1104299Y835352D02*
D03*
D03*
X1106095Y837148D02*
D03*
D03*
X1107891Y838944D02*
D03*
D03*
X1109687Y840740D02*
D03*
D03*
X1107891Y842536D02*
D03*
D03*
X1106095Y840740D02*
D03*
D03*
X1104299Y838944D02*
D03*
D03*
X1102503Y837148D02*
D03*
D03*
X1100707Y835352D02*
D03*
D03*
X1098911Y833556D02*
D03*
D03*
X1113790Y518160D02*
D03*
X735530Y730090D02*
D03*
D03*
X745530D02*
D03*
D03*
Y720090D02*
D03*
D03*
X735530D02*
D03*
D03*
X709640Y627770D02*
D03*
D03*
X720640Y627770D02*
D03*
D03*
X709640Y638770D02*
D03*
D03*
X720640Y638770D02*
D03*
D03*
X720640Y649770D02*
D03*
D03*
X709640Y649770D02*
D03*
D03*
X864102Y346819D02*
D03*
D03*
X875435Y343354D02*
D03*
D03*
X886883Y340286D02*
D03*
D03*
X898431Y337620D02*
D03*
D03*
X910065Y335358D02*
D03*
D03*
X921771Y333504D02*
D03*
D03*
X933534Y332060D02*
D03*
D03*
X945341Y331027D02*
D03*
D03*
X957176Y330407D02*
D03*
D03*
X969026Y330200D02*
D03*
D03*
X980876Y330407D02*
D03*
D03*
X992711Y331027D02*
D03*
D03*
X1004518Y332060D02*
D03*
D03*
X1016281Y333504D02*
D03*
D03*
X1027987Y335358D02*
D03*
D03*
X1039621Y337620D02*
D03*
D03*
X1051169Y340286D02*
D03*
D03*
X1062616Y343353D02*
D03*
D03*
X1073950Y346818D02*
D03*
D03*
X1085156Y350677D02*
D03*
D03*
X1096221Y354924D02*
D03*
D03*
X1107130Y359555D02*
D03*
D03*
X1117871Y364564D02*
D03*
D03*
X1128431Y369944D02*
D03*
D03*
X1138797Y375690D02*
D03*
D03*
X1148956Y381794D02*
D03*
D03*
X1158895Y388249D02*
D03*
D03*
X1168604Y395047D02*
D03*
D03*
X1178069Y402179D02*
D03*
D03*
X1187279Y409638D02*
D03*
D03*
X1196224Y417413D02*
D03*
D03*
X1204892Y425496D02*
D03*
D03*
X1213272Y433876D02*
D03*
D03*
X1221355Y442544D02*
D03*
D03*
X1229130Y451488D02*
D03*
D03*
X1236589Y460699D02*
D03*
D03*
X1243721Y470164D02*
D03*
D03*
X1250519Y479872D02*
D03*
D03*
X1256974Y489812D02*
D03*
D03*
X1263078Y499971D02*
D03*
D03*
X1268824Y510336D02*
D03*
D03*
X1274204Y520896D02*
D03*
D03*
X1279213Y531638D02*
D03*
D03*
X1283844Y542547D02*
D03*
D03*
X1288091Y553611D02*
D03*
D03*
X1291949Y564818D02*
D03*
D03*
X1295414Y576151D02*
D03*
D03*
X1298482Y587599D02*
D03*
D03*
X1301148Y599147D02*
D03*
D03*
X1303409Y610781D02*
D03*
D03*
X1305263Y622487D02*
D03*
D03*
X1306708Y634250D02*
D03*
D03*
X1307741Y646057D02*
D03*
D03*
X1308361Y657892D02*
D03*
D03*
X1308568Y669742D02*
D03*
D03*
X1308361Y681592D02*
D03*
D03*
X1307741Y693427D02*
D03*
D03*
X1306708Y705234D02*
D03*
D03*
X1305263Y716997D02*
D03*
D03*
X1303409Y728702D02*
D03*
D03*
X1301148Y740336D02*
D03*
D03*
X1298482Y751884D02*
D03*
D03*
X1295414Y763332D02*
D03*
D03*
X1291949Y774666D02*
D03*
D03*
X1288091Y785872D02*
D03*
D03*
X1283844Y796936D02*
D03*
D03*
X1279213Y807846D02*
D03*
D03*
X1078073Y978409D02*
D03*
D03*
X966470Y919480D02*
D03*
D03*
X999490Y674370D02*
D03*
D03*
X991870Y715010D02*
D03*
D03*
X977900Y698500D02*
D03*
D03*
X981710Y656590D02*
D03*
D03*
X966470Y647700D02*
D03*
D03*
X951230Y654050D02*
D03*
D03*
Y687070D02*
D03*
D03*
X913130Y689610D02*
D03*
D03*
X937260Y763270D02*
D03*
D03*
X908050Y707390D02*
D03*
X894546Y826612D02*
D03*
X887730Y839470D02*
D03*
D03*
X876300D02*
D03*
D03*
X854710Y899160D02*
D03*
D03*
X916940Y944880D02*
D03*
D03*
X919480Y924560D02*
D03*
D03*
X1174750Y816610D02*
D03*
D03*
X1195070Y802640D02*
D03*
D03*
X1201420Y774700D02*
D03*
D03*
X1108710Y854710D02*
D03*
D03*
X1102360Y883920D02*
D03*
D03*
X1082040Y897890D02*
D03*
D03*
X1017270Y908050D02*
D03*
D03*
X991870Y914400D02*
D03*
D03*
X1242060Y879737D02*
D03*
D03*
X1207770Y886460D02*
D03*
D03*
X1215951Y904503D02*
D03*
D03*
X1201856Y914400D02*
D03*
D03*
X1185506Y932854D02*
D03*
D03*
X1165860Y943610D02*
D03*
D03*
X1136650Y975360D02*
D03*
D03*
X1113790Y956310D02*
D03*
D03*
X1113422Y979031D02*
D03*
D03*
X1058490Y1001233D02*
D03*
D03*
X1046650Y1005542D02*
D03*
D03*
X1033780Y1008380D02*
D03*
D03*
X1043940Y986790D02*
D03*
D03*
X852896Y350677D02*
D03*
D03*
X841831Y354924D02*
D03*
D03*
X830922Y359555D02*
D03*
D03*
X820181Y364564D02*
D03*
D03*
X809621Y369944D02*
D03*
D03*
X669228Y510337D02*
D03*
D03*
X663848Y520896D02*
D03*
D03*
X658839Y531638D02*
D03*
D03*
X654208Y542547D02*
D03*
D03*
X649961Y553612D02*
D03*
D03*
X646103Y564818D02*
D03*
D03*
X642637Y576151D02*
D03*
D03*
X639570Y587599D02*
D03*
D03*
X636904Y599147D02*
D03*
D03*
X634643Y610781D02*
D03*
D03*
X632789Y622487D02*
D03*
D03*
X631344Y634250D02*
D03*
D03*
X630311Y646057D02*
D03*
D03*
X629691Y657892D02*
D03*
D03*
X629484Y669742D02*
D03*
D03*
X629691Y681592D02*
D03*
D03*
X630311Y693427D02*
D03*
D03*
X631344Y705234D02*
D03*
D03*
X632789Y716997D02*
D03*
D03*
X634643Y728703D02*
D03*
D03*
X636904Y740337D02*
D03*
D03*
X639570Y751885D02*
D03*
D03*
X642637Y763332D02*
D03*
D03*
X646103Y774666D02*
D03*
D03*
X649961Y785872D02*
D03*
D03*
X654208Y796936D02*
D03*
D03*
X658839Y807846D02*
D03*
D03*
X663848Y818587D02*
D03*
D03*
X669228Y829147D02*
D03*
D03*
X674974Y839513D02*
D03*
D03*
X681078Y849672D02*
D03*
D03*
X687533Y859611D02*
D03*
D03*
X694331Y869320D02*
D03*
D03*
X701463Y878785D02*
D03*
D03*
X708922Y887995D02*
D03*
D03*
X716697Y896940D02*
D03*
D03*
X724780Y905607D02*
D03*
D03*
X733160Y913988D02*
D03*
D03*
X741828Y922070D02*
D03*
D03*
X750773Y929846D02*
D03*
D03*
X759983Y937304D02*
D03*
D03*
X769448Y944437D02*
D03*
D03*
X779157Y951235D02*
D03*
D03*
X789096Y957690D02*
D03*
D03*
X799255Y963794D02*
D03*
D03*
X809621Y969539D02*
D03*
D03*
X820181Y974920D02*
D03*
D03*
X830922Y979929D02*
D03*
D03*
X841831Y984559D02*
D03*
D03*
X852896Y988807D02*
D03*
D03*
X864102Y992665D02*
D03*
D03*
X875436Y996130D02*
D03*
D03*
X886883Y999198D02*
D03*
D03*
X898431Y1001864D02*
D03*
D03*
X1050290Y709930D02*
D03*
X1045210Y706120D02*
D03*
X888179Y919266D02*
D03*
X885133Y910780D02*
D03*
X905510Y896620D02*
D03*
X885190Y922020D02*
D03*
X879694Y916437D02*
D03*
X1273721Y822960D02*
D03*
X1251592Y853893D02*
D03*
X1245173Y864296D02*
D03*
X1173480Y927100D02*
D03*
X1124421Y972681D02*
D03*
X1017270Y1013460D02*
D03*
X953770Y1008890D02*
D03*
X928370Y1008380D02*
D03*
X941070D02*
D03*
X991870Y1008890D02*
D03*
X1004570Y1010920D02*
D03*
X966470Y1008890D02*
D03*
X979170Y1004570D02*
D03*
X722630Y697230D02*
D03*
X725170Y702310D02*
D03*
X767080Y704850D02*
D03*
X760730Y712470D02*
D03*
X748030Y657860D02*
D03*
X759460Y767080D02*
D03*
X812800Y793750D02*
D03*
X857250Y833120D02*
D03*
X762355Y763625D02*
D03*
X808990Y792480D02*
D03*
X854710Y836930D02*
D03*
X949325Y697865D02*
D03*
X1050290Y681990D02*
D03*
X1046480Y680720D02*
D03*
X891540Y854710D02*
D03*
X664210Y751840D02*
D03*
X925830Y669290D02*
D03*
X941070D02*
D03*
X923290Y664210D02*
D03*
X942340D02*
D03*
X696466Y770126D02*
D03*
X692150Y745490D02*
D03*
X712470Y728980D02*
D03*
X704135Y759460D02*
D03*
X698500D02*
D03*
X682097Y755650D02*
D03*
X697230Y748030D02*
D03*
X693420Y756920D02*
D03*
X891540Y850900D02*
D03*
X914400Y859790D02*
D03*
X876564Y873760D02*
D03*
X885351Y876839D02*
D03*
X883920Y880110D02*
D03*
X913635Y893810D02*
D03*
X876866Y907952D02*
D03*
X872490Y905510D02*
D03*
X859790Y902400D02*
D03*
X886460Y859790D02*
D03*
X877570Y877570D02*
D03*
X908050Y899160D02*
D03*
X862724Y899467D02*
D03*
X859895Y879668D02*
D03*
D03*
X882523Y913609D02*
D03*
X712470Y605790D02*
D03*
X685960Y622140D02*
D03*
X922020Y857250D02*
D03*
X925830Y839470D02*
D03*
X876866Y890981D02*
D03*
X892810Y789940D02*
D03*
X925830Y764540D02*
D03*
X920750Y768350D02*
D03*
X890270Y786130D02*
D03*
X1065530Y986790D02*
D03*
X1055279Y991870D02*
D03*
M02*
