M48
;Layer_Color=9474304
;FILE_FORMAT=4:4
METRIC,LZ
;TYPE=PLATED
T1F00S00C0.1000
%
T01
X0119807Y00670123
X0115189Y0071247
X0114935Y0072136
X0118618Y007493
X0105029Y0071755
X0104648
Y0068072
X0105029Y0068199
X0094107Y0066929
X0094234Y0066421
X0092583Y0076454
X0092075Y0076835
X0089027Y0078613
X0089281Y0078994
X0080899Y0079248
X0084709Y0058801
X009017Y0045593
X0112395Y0050292
X01167145Y00556887
X00762355Y00763625
X0075946Y0076708
X006985Y0075946
X0069342Y0075692
X00682097Y0075565
X0069215Y0074549
X0066421Y0075184
X0071247Y0072898
X00786845Y00869352
X00859895Y00879668
X00876564Y0087376
X00885351Y00876839
X0089154Y00870965
X00888179Y00862697
X0089789Y008643
X0089154Y0085471
X009144Y0085979
X0092202Y0085725
X0092583Y0083947
X0092456Y0083439
X0091059Y0082931
X00909783Y00875035
X00913635Y0089381
X0090551Y0089662
Y0090805
X00902708Y0090551
X00902322Y0091078
X0089662Y0090551
X0089408Y0089662
X0088265Y0090424
X00885351Y0091078
X00882523Y00913609
X00879694Y00916437
X00876866Y00907952
X00876866Y00890981
X00862724Y00899467
X00888179Y00919266
X00893836Y00919266
X0085471Y0083693
X0085725Y0083312
X008128Y0079375
M30
