M48
;Layer_Color=9474304
;FILE_FORMAT=4:4
METRIC,LZ
;TYPE=PLATED
T1F00S00C0.1000
%
T01
X00809621Y00369944
X00820181Y00364564
X00830922Y00359555
X00841831Y00354924
X00852896Y00350677
X00864102Y00346819
X00864078Y00342204
X00861624Y00342861
X00860967Y00340408
X0086342Y00339751
X00862763Y00337297
X00865216Y0033664
X00865873Y00339093
X00866531Y00341547
X00868984Y00340889
X00871438Y00340232
X00873891Y00339574
X00873234Y00337121
X00875687Y00336463
X00878141Y00335806
X00878798Y00338259
X00881251Y00337602
X00880594Y00335149
X00879937Y00332695
X0088239Y00332038
X00883048Y00334491
X00885501Y00333834
X00886159Y00336287
X00883705Y00336945
X00888612Y0033563
X00891065Y00334972
X00890408Y00332519
X00889751Y00330066
X00892204Y00329408
X00892861Y00331862
X00893519Y00334315
X00887955Y00333176
X00887297Y00330723
X00884844Y0033138
X00884186Y00328927
X00881733Y00329584
X00879279Y00330241
X00878622Y00327788
X00881076Y00327131
X00883529Y00326473
X00885983Y00325816
X00888436Y00325159
X00889093Y00327612
X0088664Y00328269
X00891547Y00326955
X00890889Y00324501
X00876169Y00328446
X00873715Y00329103
X00874372Y00331557
X00871919Y00332214
X00869466Y00332871
X00870123Y00335325
X0086767Y00335982
X00868327Y00338436
X00870781Y00337778
X00872577Y00334667
X0087503Y0033401
X00877483Y00333353
X00876826Y00330899
X00871261Y00329761
X00868808Y00330418
X00866355Y00331075
X00867012Y00333529
X00864559Y00334186
X00862105Y00334843
X00861448Y0033239
X00863901Y00331733
X00858995Y00333048
X00859652Y00335501
X00860309Y00337954
X00876345Y00338917
X00875435Y00343354
X00886883Y00340286
X00898431Y0033762
X00910065Y00335358
X00921771Y00333504
X00933534Y0033206
X00945341Y00331027
X00957176Y00330407
X0095631Y0032639
X0095885Y0032639
X0095885Y0032385
X0096139Y0032385
X0096393Y0032385
X0096393Y0032131
X0096393Y0031877
X0096647Y0031877
X0096647Y0032131
X0096901Y0032131
X0096901Y0031877
X0096901Y0031623
X0096647Y0031623
X0096393Y0031623
X0096139Y0031623
X0096139Y0031877
X0096139Y0032131
X0095885Y0032131
X0095885Y0031877
X0095885Y0031623
X0095631Y0031623
X0095377Y0031623
X0095377Y0031877
Y0032131
X0095377Y0032385
X0095631Y0032385
X0095631Y0032131
X0095631Y0031877
X0095377Y0032639
X0096139
X0096393Y0032639
X0096647Y0032639
X0096647Y0032385
X0096901Y0032385
X0096901Y0032639
X0097155Y0032639
X0097155Y0032385
X0097155Y0032131
X0097155Y0031877
X0097409Y0031877
X0097663Y0031877
X0097917Y0031877
X0097917Y0032131
X0097663
X0097409Y0032131
X0097409Y0032385
X0097663Y0032385
X0097917Y0032385
X0097917Y0032639
X0097663Y0032639
X0097409Y0032639
X0098171Y0032639
X0098171Y0032385
X0098171Y0032131
X0098171Y0031877
X0098425Y0031877
X0098679Y0031877
X0098679Y0031623
X0098425Y0031623
X0098171Y0031623
X0097917Y0031623
X0097663Y0031623
X0097409Y0031623
X0097155Y0031623
X00969026Y003302
X00980876Y00330407
X0098425Y0032639
X0098425Y0032385
X0098679Y0032385
X0098679Y0032639
X0098679Y0032131
X0098425Y0032131
X00992711Y00331027
X01004518Y0033206
X01016281Y00333504
X01027987Y00335358
X01039621Y0033762
X01045685Y00334972
X01046342Y00332519
X01048795Y00333176
X01048138Y0033563
X01050591Y00336287
X01053045Y00336945
X01055498Y00337602
X01057952Y0033826
X01058609Y00335806
X01061063Y00336464
X01063516Y00337121
X01062859Y00339574
X01060405Y00338917
X01065312Y00340232
X0106597Y00337778
X01068423Y00338435
X0106908Y00335982
X01071534Y0033664
X01070876Y00339093
X0107333Y0033975
X01073987Y00337297
X01074645Y00334843
X01075302Y0033239
X01077755Y00333047
X01077098Y00335501
X01079552Y00336158
X01078894Y00338612
X01076441Y00337955
X01075784Y00340407
X01078237Y00341065
X01077579Y00343518
X01075126Y00342861
X01072672Y00342204
X01070219Y00341546
X01067766Y00340889
X01066627Y00335325
X01064174Y00334667
X0106172Y0033401
X01062377Y00331557
X01064831Y00332214
X01065488Y00329761
X01063035Y00329103
X01060581Y00328446
X01059924Y00330899
X01057471Y00330242
X01058128Y00327788
X01055675Y00327131
X01053221Y00326474
X01052564Y00328927
X01055017Y00329584
X0105436Y00332038
X01053702Y00334491
X01056156Y00335149
X01056813Y00332695
X01059267Y00333353
X01051249Y00333834
X01051906Y00331381
X01049453Y00330723
X01046999Y00330066
X01047657Y00327612
X0105011Y00328269
X01050768Y00325816
X01048314Y00325159
X01051169Y00340286
X01062616Y00343353
X0107395Y00346818
X01072191Y00334186
X01069738Y00333529
X01070395Y00331075
X01072849Y00331732
X01067942Y00330418
X01067284Y00332871
X01080209Y00333705
X01085156Y00350677
X01096221Y00354924
X0110713Y00359555
X01117871Y00364564
X01127602Y00365079
X01128872Y0036288
X01130142Y0036068
X01132342Y0036195
X01133611Y0035975
X01131412Y0035848
X01132682Y00356281
X01134882Y00357551
X01137082Y00358821
X01135811Y0036102
X01138011Y0036229
X01139281Y00360091
X01141481Y00361361
X01143681Y00362631
X0114588Y00363901
X0114808Y0036517
X0114681Y0036737
X01149009Y0036864
X0114774Y0037084
X0114647Y0037304
X01148669Y0037431
X011474Y0037651
X01149599Y00377779
X01150869Y0037558
X01153069Y0037685
X01154339Y0037465
X01156538Y0037592
X01158738Y0037719
X01157468Y0037939
X01155269Y0037812
X01153998Y0038032
X01156198Y00381589
X01151799Y00379049
X01148956Y00381794
X011452Y00375239
X01143Y00373969
X011408Y003727
X0114207Y003705
X01139871Y0036923
X011386Y00371429
X01136401Y00370159
X01134201Y0036889
X01132001Y0036762
X01133271Y0036542
X01135471Y0036669
X01137671Y0036796
X01138941Y0036576
X01140211Y00363561
X0114241Y0036483
X01141141Y0036703
X0114334Y003683
X0114461Y003661
X0114554Y0036957
X0114427Y0037177
X01149939Y0037211
X01151209Y0036991
X01153409Y0037118
X01152139Y0037338
X01155609Y0037245
X01156879Y0037025
X01154679Y00368981
X0115248Y0036771
X0115028Y00366441
X01159079Y00371521
X01157809Y0037372
X01160008Y0037499
X01161278Y00372791
X01158895Y00388249
X01168604Y00395047
X01138797Y0037569
X01136741Y0036449
X01134541Y0036322
X01131072Y0036415
X01129802Y00366349
X01128431Y00369944
X01196224Y00417413
X01202292Y00416996
X01204088Y004152
X01205883Y00416996
X01204088Y00418792
X0120768Y00418792
Y00422384
X01205884Y00420588
X01209476Y00420588
X01211272Y00418792
X01213068Y00420588
X01211272Y00422384
X01214864
X01218456Y00422384
X0121666Y0042418
X01214864Y00425976
X01213068Y0042418
X01211272Y00425976
X01209476Y0042418
X01204892Y00425496
X01213068Y00427772
X01214864Y00429568
X0121666Y00431364
X0121666Y00427772
X01220252Y00427772
X01218456Y00429568
X01222048Y00429568
X01220252Y00431364
X01223844Y00431364
X01223844Y00427772
X0122564Y00429568
X0122564Y0043316
X01223844Y00434956
X01222048Y00436752
X01223844Y00438548
X0122564Y00440344
X01227436Y00438548
X01225641Y00436752
X01227436Y00434957
X01229232Y00436752
X01231028Y00434956
X01229232Y0043316
X01231028Y00431364
X01227437Y00431364
X01229232Y00429568
X01227436Y00427772
X0122564Y00425976
X01223844Y0042418
X01222048Y00425976
X01220252Y0042418
X01218456Y00425976
X01222048Y00422384
X01220252Y00420588
X0121666Y00420588
X01214864Y00418792
X01218456Y00418792
X0121666Y00416996
X01214864Y004152
X01213068Y00416996
X01211272Y004152
X01209476Y00416996
X0120768Y004152
Y00411608
X01209476Y00413403
X01209476Y00409812
X01211272Y00411608
X01213068Y00413404
X01205884Y00413404
X01213272Y00433876
X01218456Y0043316
X01220252Y00434956
X01222048Y0043316
X01221355Y00442544
X0122913Y00451488
X01236589Y00460699
X01243721Y00470164
X01250519Y00479872
X0125925Y00484982
X0126145Y00483712
X0126365Y00482442
X0126492Y00484642
X01267119Y00483372
X0126585Y00481172
X01268049Y00479902
X01269319Y00482102
X01270589Y00484301
X0126839Y00485572
X0126619Y00486842
X0126746Y00489041
X0126526Y00490311
X0126653Y00492511
X012678Y00494711
X01265601Y0049598
X01264331Y00493781
X01263061Y00491581
X01261791Y00489381
X01260521Y00487182
X0126272Y00485912
X0126399Y00488112
X0126966Y00487771
X01271859Y00486501
X01273129Y00488701
X01274399Y00490901
X012722Y00492171
X0127Y00493441
X0126873Y00491241
X01270929Y00489971
X0127127Y0049564
X0126907Y0049691
X01266871Y00498181
X0126814Y0050038
X0127034Y0049911
X0127161Y0050131
X0127381Y0050004
X0127254Y0049784
X0127474Y0049657
X0127601Y0049877
X0127821Y004975
X0127948Y00499699
X0128075Y00501899
X0128202Y00504099
X01283289Y00506298
X01284559Y00508498
X0128236Y00509768
X0128109Y00507569
X0127889Y00508838
X0128016Y00511038
X0127796Y00512308
X0127669Y00510109
X01274491Y00511379
X01275761Y00513578
X0127542Y00507909
X0127415Y00505709
X01271951Y00506979
X01273221Y00509179
X01268824Y00510336
X0127068Y0050478
X01269411Y0050258
X0127288Y0050351
X0127508Y00502239
X0127728Y0050097
X0127855Y00503169
X0127635Y00504439
X0127762Y00506639
X0127982Y00505369
X01276939Y004953
X01275669Y004931
X0127347Y0049437
X01263078Y00499971
X01256974Y00489812
X01274204Y00520896
X01279213Y00531638
X01283844Y00542547
X01288091Y00553611
X01291949Y00564818
X01297979Y00569524
X01298636Y00571978
X01301089Y0057132
X01303543Y00570663
X013042Y00573116
X01304858Y0057557
X01305515Y00578023
X01303062Y0057868
X01302404Y00576227
X01299951Y00576884
X01300608Y00579338
X01301266Y00581791
X01303719Y00581134
X01304377Y00583587
X01305034Y00586041
X01305691Y00588494
X01308145Y00587837
X01308802Y0059029
X01306349Y00590948
X01307006Y00593401
X01304553Y00594058
X01303895Y00591605
X01303238Y00589151
X0130258Y00586698
X01301923Y00584245
X0130683Y0058293
X01306173Y00580476
X01308626Y00579819
X01307969Y00577365
X01310422Y00576708
X01309765Y00574255
X01307311Y00574912
X01306654Y00572459
X01309107Y00571801
X0130845Y00569348
X01305997Y00570005
X01305339Y00567552
X01307792Y00566894
X01302886Y00568209
X01300432Y00568867
X01301747Y00573774
X01299293Y00574431
X01295414Y00576151
X01298482Y00587599
X01307487Y00585383
X01309941Y00584726
X01312394Y00584068
X01311737Y00581615
X0131108Y00579162
X01309283Y00582272
X01310598Y0058718
X01311256Y00589633
X01311913Y00592086
X0130946Y00592744
X01310117Y00595197
X01307664Y00595855
X0130521Y00596512
X01305868Y00598965
X01308321Y00598308
X01310774Y00597651
X01311432Y00600104
X01308978Y00600761
X01306525Y00601419
X01301148Y00599147
X01313885Y00599447
X01316339Y00598789
X01315681Y00596336
X01315024Y00593882
X01312571Y0059454
X01313228Y00596993
X01314367Y00591429
X01313709Y00588976
X01313052Y00586522
X01303409Y00610781
X01305263Y00622487
X01306708Y0063425
X01307741Y00646057
X0131191Y0065405
X0131445Y0065405
X0131699
X0131953
X0132207Y0065405
X0132207Y0065659
X0131953Y0065659
X0131699Y0065659
X0131699Y0065913
X0131953Y0065913
X0131953Y0066167
X0132207Y0066167
X0132207Y0066421
Y0066675
X0132207Y0066929
X0132207Y0067183
X0131953Y0067183
X0131953Y0067437
X0131699Y0067437
X0131699Y0067183
X0131699Y0066929
X0131953Y0066929
X0131953Y0066675
X0131953Y0066421
X0131699Y0066421
Y0066167
X0131445Y0066167
X0131445Y0065913
X0131191Y0065913
X0131191Y0065659
X0131445Y0065659
X01308361Y00657892
X0131191Y0066167
X0131191Y0066421
X0131191Y0066675
X0131445Y0066675
X0131445Y0066421
X0131699Y0066675
X0131445Y0066929
X0131191Y0066929
X0131191Y0067183
X0131445
Y0067437
X0131445Y0067691
X0131191Y0067691
X0131191Y0067945
X0131191Y0068199
X0131445Y0068199
X0131445Y0067945
X0131699Y0067945
Y0067691
X0131953Y0067691
Y0067945
X0132207Y0067945
X0132207Y0067691
Y0067437
X0132207Y0068199
X0131953Y0068199
X0131953Y0068453
X0132207Y0068453
X0132207Y0068707
X0131953Y0068707
X0131699Y0068707
X0131445Y0068707
X0131445Y0068453
X0131191Y0068453
X0131191Y0068707
X0131699Y0068453
X0131699Y0068199
X01308361Y00681592
X0131191Y0067437
X01308568Y00669742
X0132207Y0065913
X01307741Y00693427
X01306708Y00705234
X01305263Y00716997
X01303409Y00728702
X01301148Y00740336
X01304597Y00745965
X0130394Y00748418
X01306394Y00749075
X01305736Y00751529
X0130819Y00752186
X01310643Y00752844
X013113Y0075039
X01308847Y00749733
X01309504Y00747279
X01307051Y00746622
X01311958Y00747937
X01314411Y00748594
X01313754Y00751048
X01313096Y00753501
X01312439Y00755955
X01311782Y00758408
X01309328Y00757751
X01308671Y00760204
X01306217Y00759547
X0130556Y00762
X01303107Y00761343
X01302449Y00763796
X01301792Y00766249
X01299338Y00765592
X01299996Y00763139
X01300653Y00760685
X01301311Y00758232
X01301968Y00755778
X01302625Y00753325
X01303283Y00750871
X01305079Y00753982
X01304421Y00756436
X01306875Y00757093
X01307532Y0075464
X01309986Y00755297
X01311124Y00760861
X01310467Y00763315
X0130981Y00765768
X01307356Y00765111
X01304903Y00764454
X01304245Y00766907
X01306699Y00767564
X01306041Y00770018
X01303588Y0076936
X01301134Y00768703
X01300477Y00771156
X01298024Y00770499
X01297366Y00772952
X01296709Y00775406
X01299162Y00776063
X01301615Y00776721
X01300958Y00779174
X01298505Y00778517
X01296051Y00777859
X01291949Y00774666
X0129982Y0077361
X01302273Y00774267
X01304727Y00774925
X01305384Y00772471
X01307837Y00773129
X01308495Y00770675
X01309152Y00768222
X01308013Y00762657
X01303764Y00758889
X01298482Y00751884
X01295414Y00763332
X01298681Y00768046
X0130293Y00771814
X01304069Y00777378
X01306523Y00778036
X0130718Y00775582
X01305865Y00780489
X01303412Y00779832
X01288091Y00785872
X0120142Y007747
X01202711Y00701717
X01232825Y0043316
X01187279Y00409638
X01178069Y00402179
X0111379Y0051816
X01090103Y00522033
X01088157Y00523666
X01086212Y00525298
X01087844Y00527244
X01089477Y0052919
X01091423Y00527557
X01093055Y00529503
X01095001Y0052787
X01096634Y00529816
X01094688Y00531449
X01096321Y00533394
X01097953Y0053534
X01099899Y00533707
X01101532Y00535653
X01103165Y00537599
X01104797Y00539545
X01102851Y00541177
X01101219Y00539232
X01099273Y00540864
X0109764Y00538918
X01099586Y00537286
X01096008Y00536973
X01094062Y00538605
X01092116Y00540238
X01093749Y00542184
X01095695Y00540551
X01097327Y00542497
X0109896Y00544443
X01097014Y00546075
X01098647Y00548021
X01096701Y00549654
X01098334Y005516
X0110028Y00549967
X01101912Y00551913
X01103858Y0055028
X01102225Y00548334
X01104171Y00546702
X01102538Y00544756
X01100593Y00546388
X01100906Y0054281
X01104484Y00543123
X01106117Y00545069
X01107749Y00547015
X01109382Y0054896
X01107437Y00550593
X01109069Y00552539
X01111015Y00550906
X01112648Y00552852
X01114593Y00551219
X01116226Y00553165
X01117859Y00555111
X01115913Y00556743
X01117546Y00558689
X01119491Y00557056
X01121124Y00559002
X01122757Y00560948
X01124389Y00562894
X01122444Y00564526
X01124076Y00566472
X01126022Y00564839
X01127655Y00566785
X01125709Y00568418
X01123763Y00570051
X01121817Y00571683
X01120185Y00569737
X01122131Y00568105
X01120498Y00566159
X01118865Y00564213
X01116919Y00565846
X01118552Y00567792
X01116606Y00569424
X01118239Y0057137
X01119872Y00573316
X01117926Y00574949
X01116293Y00573003
X01114661Y00571057
X01113028Y00569111
X01111082Y00570744
X01109449Y00568798
X01107817Y00566852
X01106184Y00564907
X0110813Y00563274
X01109763Y0056522
X01111395Y00567165
X01113341Y00565533
X01115287Y005639
X01117233Y00562267
X01119178Y00560635
X01120811Y00562581
X011156Y00560322
X01113654Y00561954
X01112021Y00560009
X01113967Y00558376
X01112335Y0055643
X0111428Y00554798
X01110702Y00554484
X01108756Y00556117
X0110681Y0055775
X01108443Y00559696
X01106497Y00561328
X01104551Y00562961
X01102606Y00564594
X01100973Y00562648
X0109934Y00560702
X01097708Y00558756
X01096075Y00556811
X01098021Y00555178
X01096388Y00553232
X01094442Y00554865
X0109281Y00552919
X01094755Y00551286
X01093123Y00549341
X01091177Y00550973
X01089231Y00552606
X01090864Y00554552
X01092497Y00556497
X01090551Y0055813
X01092184Y00560076
X01090238Y00561709
X01088292Y00563341
X01086659Y00561396
X01084714Y00563028
X01086346Y00564974
X010844Y00566607
X01086033Y00568553
X01087979Y0056692
X01089612Y00568866
X01091557Y00567233
X01089925Y00565287
X0109187Y00563654
X01093816Y00562022
X01095449Y00563968
X01097395Y00562335
X01099027Y00564281
X0110066Y00566226
X01102293Y00568172
X01100347Y00569805
X0110198Y0057175
X01100034Y00573383
X01101666Y00575329
X01099721Y00576962
X01098088Y00575016
X01096455Y0057307
X01094823Y00571124
X0109319Y00569179
X01095136Y00567546
X01097082Y00565913
X01098714Y00567859
X01096768Y00569492
X01098401Y00571437
X01103925Y00570118
X01105871Y00568485
X01107504Y00570431
X01105558Y00572064
X01103612Y00573696
X01105245Y00575642
X01107191Y00574009
X01109137Y00572377
X01110769Y00574322
X01108823Y00575955
X01106878Y00577588
X01104932Y00579221
X01106565Y00581166
X01104619Y00582799
X01102673Y00584432
X01100727Y00586064
X01099095Y00584118
X0110104Y00582486
X01099408Y0058054
X01101353Y00578907
X01102986Y00580853
X01103299Y00577275
X01097775Y00578594
X01095829Y00580227
X01094197Y00578281
X01096142Y00576649
X0109451Y00574703
X01092877Y00572757
X01090931Y0057439
X01089299Y00572444
X01091244Y00570811
X01087666Y00570498
X01082768Y00564661
X01081135Y00562715
X01079502Y0056077
X01081448Y00559137
X01083394Y00557504
X01085027Y0055945
X01086972Y00557817
X0108534Y00555871
X01087286Y00554239
X01088918Y00556185
X01088605Y00559763
X01083081Y00561082
X01081761Y00555558
X01079816Y00557191
X01078183Y00555245
X01080129Y00553613
X01082074Y0055198
X01080442Y00550034
X01082387Y00548401
X0108402Y00550347
X01085966Y00548714
X01084333Y00546769
X01086279Y00545136
X01087912Y00547082
X01089544Y00549028
X01087599Y0055066
X01085653Y00552293
X01083707Y00553926
X01078496Y00551667
X0107655Y00553299
X01074604Y00554932
X01076237Y00556878
X0107787Y00558824
X01076863Y00549721
X01078809Y00548088
X01080755Y00546456
X01082701Y00544823
X01081068Y00542877
X01079122Y0054451
X01077176Y00546143
X01075231Y00547775
X01073285Y00549408
X01071652Y00547462
X01069706Y00549095
X01068074Y00547149
X01070019Y00545517
X01068387Y00543571
X01070332Y00541938
X01071965Y00543884
X01073911Y00542251
X01075544Y00544197
X01077489Y00542564
X01075857Y00540619
X01074224Y00538673
X0107617Y0053704
X01077803Y00538986
X01079748Y00537353
X01081381Y00539299
X01083327Y00537666
X01085272Y00536034
X01087218Y00534401
X01089164Y00532768
X01090797Y00534714
X01092429Y0053666
X01094375Y00535027
X01092742Y00533081
X0109111Y00531135
X01087531Y00530822
X01085585Y00532455
X0108364Y00534088
X01082007Y00532142
X01080061Y00533775
X01081694Y0053572
X01078115Y00535407
X01076483Y00533462
X01078429Y00531829
X01080374Y00530196
X0108232Y00528564
X01083953Y00530509
X01085899Y00528877
X01084266Y00526931
X0108979Y00525611
X01091736Y00523979
X01093369Y00525924
X01098267Y00531762
X01088851Y00536347
X01086905Y00537979
X01088538Y00539925
X01090171Y00541871
X01091803Y00543816
X01093436Y00545762
X01095382Y0054413
X01095069Y00547708
X0109149Y00547395
X01089857Y00545449
X01088225Y00543503
X01086592Y00541558
X01084646Y0054319
X01083014Y00541245
X01084959Y00539612
X01090483Y00538292
X01079435Y00540932
X01072278Y00540305
X01070646Y0053836
X010687Y00539992
X01066754Y00541625
X01064808Y00543258
X01066441Y00545203
X01073598Y0054583
X01074918Y00551354
X01072972Y00552986
X01071339Y00551041
X01072591Y00536727
X01074537Y00535094
X0110643Y0054149
X01108063Y00543436
X01109695Y00545382
X01111328Y00547328
X01112961Y00549273
X01105804Y00548647
X01105491Y00552226
X01107123Y00554171
X01105178Y00555804
X01103232Y00557437
X01101599Y00555491
X01099653Y00557124
X01101286Y0055907
X01102919Y00561015
X01104865Y00559383
X01103545Y00553858
X01099967Y00553545
X01094129Y00558443
X01095762Y00560389
X01093503Y005656
X01104238Y00566539
X01111708Y00563587
X01110076Y00561641
X01110389Y00558063
X01114974Y00567479
X01112715Y0057269
X01114348Y00574636
X01112402Y00576268
X01110456Y00577901
X01112089Y00579847
X01110143Y00581479
X0110851Y00579534
X01108197Y00583112
X01106252Y00584745
X01104306Y00586377
X01097462Y00582173
X01092564Y00576335
X01114035Y00578214
X0111598Y00576581
X0114681Y0056769
X01140986Y00745039
X01142782Y00746835
X01140986Y00748631
X0113919Y00750427
X01142782
Y00754019
X01140986Y00752223
X01144578
X0114817
X01146374Y00754019
X01149966
X01151762Y00755815
X01149966Y00757611
X01153558
X01151762Y00759407
X01155355
X0115715Y00761203
X01158947Y00762999
Y00766591
X0115715Y00764795
X01160743
Y00768387
X0115715
Y0077198
X01158947Y00770183
X01155355
Y00773775
X01151762
X01153558Y00775572
X01151762Y00777368
X01149966Y00775572
Y00779164
X0114817Y00777368
X01146374Y00775572
X01144578Y00777368
X01140986
X01142782Y00775572
X0113919
X01135598
X01137394Y00777368
X01133802
X0113021
X01132006Y00775572
X01128414
X01124822
X01126618Y00777368
Y00773775
X01123026
Y00770183
X01119433
X01121229Y0077198
Y00768387
X01117637
Y00764795
X01119433Y00766591
X01121229Y00764795
X01119433Y00762999
X01123026
Y00766591
X01124822Y00764795
X01126618Y00766591
Y00762999
X01124822Y00761203
X01126618Y00759407
X01124822Y00757611
X01128414
X01126618Y00755815
X0113021
X01132006Y00754019
X0113021Y00752223
X01133802
X01137394
X01135598Y00754019
Y00750427
X01137394Y00748631
X01135598Y00746835
X0113919
Y00743243
X01137394Y00741447
X01135598Y00743243
X01137394Y00745039
X01133802
Y00748631
X0113021
X01132006Y00746835
X0113021Y00745039
X01132006Y00743243
X0113021Y00741447
X01133802
X01135598Y00739651
X01133802Y00737855
X01132006Y00736059
X0113021Y00737855
X01132006Y00739651
X01128414
Y00743243
X01126618Y00741447
X01124822Y00743243
X01126618Y00745039
Y00748631
X01124822Y00746835
X01128414
Y00750427
X01132006
X01128414Y00754019
X01126618Y00752223
X01124822Y00754019
Y00750427
X01123026Y00752223
Y00755815
Y00759407
X01121229Y00757611
X01119433Y00759407
X01121229Y00761203
X01117637
Y00757611
X01115841Y00759407
X01114045Y00761203
Y00757611
X01115841Y00755815
Y00752223
X01119433
X01117637Y00754019
X01121229
X01119433Y00755815
X01121229Y00750427
Y00746835
X01119433Y00748631
X01123026
Y00745039
Y00741447
X01121229Y00743243
X01119433Y00741447
X01121229Y00739651
Y00736059
X01119433Y00737855
X01123026
X01126618
X01124822Y00736059
X01128414
X0113021Y00734262
X01128414Y00732466
X01126618Y0073067
X01124822Y00732466
X01126618Y00734262
X01123026
Y0073067
X01121229Y00732466
X01119433Y0073067
Y00734262
X01117637Y00736059
Y00739651
Y00743243
X01115841Y00741447
X01114045Y00743243
X01115841Y00745039
Y00748631
X01114045Y00746835
X01117637
Y00750427
X01114045
Y00754019
X01112249Y00752223
Y00755815
Y00759407
X01110453Y00757611
Y00761203
X01112249Y00762999
X01115841
Y00766591
X01114045Y00764795
X01108657Y00759407
Y00755815
Y00752223
X01106861Y00754019
X01110453
Y00750427
Y00746835
X01112249Y00748631
Y00745039
Y00741447
X01110453Y00743243
Y00739651
Y00736059
X01112249Y00737855
X01115841
X01114045Y00736059
X01115841Y00734262
Y0073067
X01114045Y00732466
X01117637
Y00728874
X01119433Y00727078
X01121229Y00725282
X01123026Y00727078
X01124822Y00728874
X01121229
X01112249Y00734262
X01114045Y00739651
X01106861
X01108657Y00741447
X01106861Y00743243
X01108657Y00745039
Y00748631
X01106861Y00746835
Y00750427
X01105065Y00752223
Y00755815
X01106861Y00757611
X01103269Y00754019
X01101473Y00752223
X01103269Y00750427
Y00746835
X01101473Y00748631
X01105065
Y00745039
Y00741447
X01103269Y00743243
X01101473Y00745039
X01099677Y00746835
Y00750427
X01097881Y00748631
X01108657Y00737855
X01124822Y00739651
X01119433Y00745039
X01133802Y00755815
X01137394
Y00759407
X01135598Y00757611
X0113919
X01142782
X01140986Y00759407
X01144578
X0114817
X01146374Y00757611
Y00761203
X01149966
X01153558
X01151762Y00762999
X01155355
Y00766591
X01153558Y00764795
X01151762Y00766591
X01153558Y00768387
Y0077198
X01151762Y00770183
X01149966Y0077198
Y00768387
Y00764795
X0114817Y00766591
X01146374Y00764795
Y00768387
X0114817Y00770183
X01146374Y0077198
X01144578Y00770183
X01140986
X01142782Y0077198
X0113919
X01135598
X01137394Y00770183
X01133802
X01132006Y00768387
X0113021Y00770183
X01132006Y0077198
X01128414
X01124822
X01126618Y00770183
X01124822Y00768387
X01128414
Y00764795
X0113021Y00766591
X01132006Y00764795
X0113021Y00762999
X01132006Y00761203
X01128414
X0113021Y00759407
X01132006Y00757611
X01133802Y00759407
Y00762999
Y00766591
X01135598Y00764795
X01137394Y00766591
Y00762999
X01135598Y00761203
X0113919
X01142782
X01140986Y00762999
X01144578
X0114817
X01144578Y00766591
X01142782Y00764795
X01140986Y00766591
X0113919Y00764795
Y00768387
X01135598
X01137394Y00773775
X01133802
X0113021
X01132006Y00779164
X0113021Y0078096
X01132006Y00782756
X01133802Y0078096
Y00784552
X01135598Y00786348
X01137394Y00784552
Y0078096
X01135598Y00782756
Y00779164
X0113919
Y00782756
X01140986Y0078096
X01142782Y00782756
Y00779164
X01144578Y0078096
X0114817
X01146374Y00782756
Y00779164
X0114817Y00773775
X01144578
X01140986
X01142782Y00768387
X01140986Y00755815
X01144578
X0114817
X01146374Y00750427
X01144578Y00748631
X0113919Y00754019
Y00786348
X01137394Y00788144
X01140986
Y00784552
X01144578
X01142782Y00786348
X0113919Y0078994
X01128414Y00779164
X01162539Y00766591
X01187495Y0075159
X01043302Y00747105
Y00743513
X01045098Y0074531
X01041506
Y00741717
X01037914
Y00738125
X0103971Y00739921
X01036118
Y00736329
X01032525
X01034322Y00734533
X01032525Y00732737
X01030729Y00730941
X01027137
X01028933Y00732737
Y00729145
X01027137Y00727349
X01025341Y00725553
X01021749
X01023545Y00727349
Y00723757
X01021749Y00721961
X01019953Y00723757
Y00727349
X01018157Y00725553
X01016361Y00727349
X01018157Y00729145
X01014565
Y00732737
X01016361Y00730941
X01018157Y00732737
X01019953Y00730941
X01023545
X01021749Y00732737
Y00729145
X01025341
Y00732737
X01027137Y00734533
X01030729
X01028933Y00736329
X01025341
X01021749
X01023545Y00734533
X01019953
X01016361
X01018157Y00736329
X01014565
X01010973
X01012769Y00734533
Y00730941
X01010973Y00732737
X01009177Y00734533
X01007381Y00736329
Y00739921
X01009177Y00738125
X01012769
X01010973Y00739921
X01014565
X01016361Y00738125
X01018157Y00739921
X01019953Y00738125
X01023545
X01021749Y00739921
X01025341
X01027137Y00738125
X01028933Y00739921
X01030729Y00738125
X01034322
X01032525Y00739921
X01034322Y00741717
X01030729
X01027137
X01028933Y00743513
X01027137Y0074531
X01025341Y00743513
X01021749
X01023545Y0074531
Y00741717
X01019953
X01016361
X01018157Y00743513
X01016361Y0074531
X01019953
X01021749Y00747105
X01025341
X01028933
X01027137Y00748902
X01028933Y00750698
X01030729Y00748902
X01034322
X01032525Y00750698
Y00747105
Y00743513
X01034322Y0074531
X01036118Y00743513
X0103971
X01037914Y0074531
X0103971Y00747105
X01036118
Y00750698
X01037914Y00748902
X0103971Y00750698
X01041506Y00748902
X01037914Y00752494
X01034322
X01030729
X01027137
X01028933Y0075429
X01027137Y00756086
X01030729
X01032525Y0075429
X01034322Y00756086
X01036118Y0075429
X01032525Y00757882
X01028933
X01025341
Y0075429
X01021749
X01023545Y00756086
Y00752494
Y00748902
X01021749Y00750698
X01019953Y00748902
X01016361
X01018157Y00750698
Y00747105
X01014565
Y00743513
X01010973
X01012769Y0074531
Y00741717
X01009177
Y0074531
X01007381Y00743513
Y00747105
Y00750698
X01003789
X01005585Y00748902
Y00752494
Y00756086
X01003789Y0075429
Y00757882
Y00761474
X01005585Y00759678
Y0076327
X01003789Y00765066
X01005585Y00766862
X01001993
X009984
X01000197Y00765066
Y00768658
X009984Y00770454
X01000197Y0077225
X00996605
X00993012
X00994808Y00770454
Y00774046
X00991216
Y00770454
X00987624
X0098942Y0077225
Y00768658
X00985828
Y00765066
X00982236
X00984032Y00766862
Y0076327
X0098044
X00982236Y00761474
X00984032Y00759678
X00985828Y00761474
X0098942
X00987624Y00759678
Y0076327
Y00766862
X0098942Y00765066
X00991216Y00766862
X00994808
X00993012Y00765066
Y00768658
X00996605
Y00765066
X00994808Y0076327
X00991216
Y00759678
X00993012Y00761474
X00994808Y00759678
X00996605Y00761474
X01000197
X009984Y00759678
Y0076327
X01001993
Y00759678
X01000197Y00757882
X00996605
X00993012
X00994808Y00756086
X00993012Y0075429
X00991216Y00756086
X00987624
X0098942Y0075429
Y00757882
X00985828
X00991216Y00752494
X00994808
X00993012Y00750698
X00994808Y00748902
X00996605Y00750698
X01000197
X009984Y00748902
Y00752494
Y00756086
X01000197Y0075429
X00996605
X01001993Y00756086
Y00752494
Y00748902
X01000197Y00747105
X00996605
X009984Y0074531
X01000197Y00743513
X01001993Y0074531
X01005585
X01003789Y00743513
Y00747105
X01005585Y00741717
Y00738125
X01003789Y00739921
X01001993Y00741717
X01010973Y00747105
X01012769Y00748902
X01010973Y00750698
X01014565
X01016361Y00752494
X01019953
Y00756086
X01018157Y0075429
X01016361Y00756086
X01014565Y0075429
X01012769Y00756086
X01010973Y0075429
Y00757882
X01014565
Y00761474
X01016361Y00759678
X01018157Y00761474
X01016361Y0076327
X01019953
Y00766862
X01021749Y00765066
X01023545Y00766862
X01021749Y00768658
X01018157
Y00765066
X01016361Y00766862
X01014565Y00765066
X01010973
X01012769Y00766862
Y0076327
Y00759678
X01010973Y00761474
X01009177Y00759678
X01007381Y00761474
Y00757882
Y0075429
X01009177Y00756086
Y00752494
X01012769
X01009177Y00748902
Y0076327
Y00766862
X01007381Y00765066
Y00768658
X01003789
X01005585Y00770454
X01003789Y0077225
X01007381
X01009177Y00770454
X01012769
X01010973Y0077225
Y00768658
X01014565
Y0077225
X01016361Y00770454
X01018157Y0077225
X01019953Y00770454
X01016361Y00774046
X01012769
X01009177
Y00777638
X01010973Y00775842
X01012769Y00777638
X01014565Y00775842
X01010973Y00779435
X01007381
Y00775842
X01003789
X01005585Y00777638
Y00774046
X01001993
Y00770454
X009984Y00774046
X01000197Y00775842
X009984Y00777638
X01001993
X01003789Y00779435
X01005585Y0078123
X01003789Y00783027
X01007381
X01009177Y0078123
X01001993
Y00784823
X01005585
X01003789Y00786619
X01000197Y00783027
X009984Y0078123
X01000197Y00779435
X00996605
Y00775842
X00993012
X00994808Y00777638
X01025341Y00765066
Y00761474
X01027137Y00759678
X01028933Y00761474
X01030729Y00759678
X01027137Y0076327
X01023545
Y00759678
X01021749Y00761474
Y00757882
X01019953Y00759678
X01018157Y00757882
X01025341Y00750698
X01030729Y0074531
X0099187Y0071501
X009779Y006985
X00949325Y00697865
X0095123Y0068707
Y0065405
X0096647Y006477
X0098171Y0065659
X0099949Y0067437
X0092583Y0066929
X0092329Y0066421
X0091821Y0066294
X0091567Y0066675
X0091313Y0068961
X0090805Y0070739
X0093726Y0076327
X0085217Y0075311
X0084201Y0075946
X00873234Y00558274
X00871438Y00556478
X00873234Y00554682
Y0055109
X00871438Y00552886
Y00549294
X0087503
X00878622
Y00552886
X00876826Y0055109
Y00554682
Y00558274
X00878622Y00556478
X0087503
Y0056007
Y00552886
X00869642Y0055109
Y00554682
X00867846Y00552886
X0086605Y0055109
X00867846Y00549294
X00864254
Y00545702
X00867846
X0086605Y00547498
X00869642
X00873234
X00871438Y00545702
X0087503
X00878622
X00876826Y00547498
X00880418
X0088401
X00882214Y00545702
X00885806
Y00549294
X00882214
Y00552886
X0088401Y0055109
X00880418
Y00554682
Y00543905
X0088401
X00882214Y00542109
X0088401Y00540313
X00880418
X00878622Y00542109
X00876826Y00540313
Y00543905
X0087503Y00542109
Y00538517
X00878622
X00876826Y00536721
X00878622Y00534925
X0087503
X00873234Y00536721
X00871438Y00534925
Y00538517
X00873234Y00540313
X00871438Y00542109
X00873234Y00543905
X00869642
Y00540313
X00867846Y00542109
X0086605Y00540313
Y00543905
X00864254Y00542109
Y00538517
X00867846
Y00534925
X0086605Y00536721
X00869642
Y00533129
X00873234
X00871438Y00531333
Y00527741
X00873234Y00529537
X00869642
X00867846Y00527741
X0086605Y00529537
X00867846Y00531333
X0086605Y00533129
X00864254Y00534925
X00862458Y00536721
X00860662Y00534925
Y00538517
X00862458Y00540313
X00860662Y00542109
X00862458Y00543905
Y00547498
X00860662Y00545702
X00858866Y00543905
Y00540313
X00857069Y00542109
X00855273Y00540313
X00857069Y00538517
Y00534925
X00855273Y00536721
X00858866
Y00533129
X00862458
X00860662Y00531333
X00864254
Y00527741
X00860662
X00862458Y00529537
X00858866
X00855273
X00857069Y00527741
X00853477
X00849885
X00851681Y00529537
X00848089
X00846293Y00527741
X00842701
X00844497Y00529537
Y00525945
X00840905
Y00522353
X00837313
X00839109Y00524149
Y00520557
X00835517
Y00516965
X00833721Y00518761
X00837313
X00839109Y00516965
X00837313Y00515169
X00839109Y00513373
X00840905Y00511577
Y00515169
Y00518761
X00842701Y00516965
X00844497Y00518761
Y00515169
X00842701Y00513373
X00844497Y00511577
X00842701Y00509781
X00844497Y00507985
X00846293Y00506189
Y00509781
Y00513373
X00848089Y00511577
Y00515169
Y00518761
X00846293Y00516965
Y00520557
X00842701
Y00524149
X00844497Y00522353
X00846293Y00524149
X00848089Y00522353
Y00525945
X00851681
X00849885Y00524149
X00851681Y00522353
X00849885Y00520557
Y00516965
X00851681Y00518761
Y00515169
X00849885Y00513373
X00851681Y00511577
X00849885Y00509781
Y00506189
X00851681Y00507985
X00848089
Y00504392
X00851681
X00849885Y00502596
X00851681Y005008
X00853477Y00502596
Y00499004
X00857069
X00855273Y00497208
X00857069Y00495412
X00858866Y00497208
Y005008
X00855273
X00857069Y00502596
X00855273Y00504392
Y00507985
X00857069Y00506189
X00853477
Y00509781
Y00513373
X00855273Y00511577
X00857069Y00513373
X00855273Y00515169
Y00518761
X00857069Y00516965
X00853477
Y00520557
Y00524149
X00855273Y00522353
X00857069Y00524149
Y00520557
X00858866Y00518761
Y00515169
Y00511577
X00860662Y00513373
X00862458Y00511577
X00860662Y00509781
Y00506189
X00862458Y00507985
X00858866
Y00504392
X00862458
X00860662Y00502596
X00862458Y005008
X00860662Y00499004
X00864254Y00502596
Y00506189
Y00509781
Y00513373
X0086605Y00511577
X00867846Y00513373
Y00509781
X0086605Y00507985
X00867846Y00506189
X0086605Y00504392
X00869642Y00507985
Y00511577
Y00515169
X0086605
Y00518761
X00867846Y00516965
X00864254
X00860662
X00862458Y00518761
X00860662Y00520557
Y00524149
X00862458Y00522353
X00858866
Y00525945
X00855273
X00857069Y00531333
X00853477
X00849885
X00851681Y00533129
X00848089
X00846293Y00531333
X00849885Y00534925
X00851681Y00536721
X00853477Y00534925
Y00538517
X00855273Y00533129
X00862458Y00525945
X00864254Y00524149
Y00520557
X00867846
X0086605Y00522353
X00867846Y00524149
X0086605Y00525945
X00869642
X00873234
X00871438Y00524149
X00873234Y00522353
X0087503Y00524149
Y00520557
X00878622
X00876826Y00518761
X00878622Y00516965
X00880418Y00518761
Y00522353
X00876826
X00878622Y00524149
X00876826Y00525945
Y00529537
X00878622Y00527741
X0087503
Y00531333
X00878622
X00876826Y00533129
X00880418
Y00536721
X00882214Y00534925
X0088401Y00536721
Y00533129
X00882214Y00531333
Y00527741
X0088401Y00529537
X00880418
Y00525945
X0088401
X00882214Y00524149
X0088401Y00522353
X00882214Y00520557
X00885806Y00524149
Y00527741
Y00531333
X00889398
X00887602Y00529537
X00889398Y00527741
X00887602Y00525945
X00891195Y00529537
Y00533129
X00887602
Y00536721
X00889398Y00534925
X00885806
Y00538517
X00882214
X00885806Y00542109
X00887602Y00540313
X00889398Y00542109
Y00538517
X00891195Y00536721
X0089299Y00534925
X00894787Y00536721
Y00533129
X0089299Y00531333
Y00538517
X00896583
Y00534925
X00898379Y00536721
X00894787Y00540313
X0089299Y00542109
X00891195Y00540313
Y00543905
X00887602
Y00547498
X00889398Y00545702
X00876826Y00515169
X00873234
X00871438Y00513373
X00873234Y00511577
X00871438Y00509781
X0087503Y00513373
Y00516965
X00871438
X00873234Y00518761
X00869642
X00871438Y00520557
X00869642Y00522353
X00862458Y00515169
X00857069Y00509781
X00794419Y00508308
Y00504716
X00796215Y00506512
X00798011Y00504716
Y00501124
Y00497532
Y0049394
X00801603
X00799807Y00495736
Y00492144
Y00488552
X00801603Y00490348
Y00486755
Y00483163
X00799807Y00484959
Y00481367
Y00477775
X00801603Y00479571
X00798011
X00794419
X00796215Y00477775
X00794419Y00475979
X00796215Y00474183
X00794419Y00472387
X00796215Y00470591
X00794419Y00468795
X00796215Y00466999
X00794419Y00465203
X00798011
X00799807Y00466999
X00801603Y00468795
X00798011
Y00472387
X00799807Y00470591
X00801603Y00472387
X00803399Y00470591
X00805195Y00472387
X00806992Y00474183
X00803399
X00799807
X00801603Y00475979
X00798011
X00805195
X00808788
Y00479571
X00810584Y00477775
X0081238Y00479571
X00810584Y00481367
X00814176
Y00484959
X0081238Y00483163
X00810584Y00484959
X00808788Y00483163
X00805195
X00806992Y00484959
Y00481367
X00803399
Y00477775
X00805195Y00479571
X00806992Y00477775
X00803399Y00484959
X00805195Y00486755
X00806992Y00488552
X00805195Y00490348
X00803399Y00488552
Y00492144
X00806992
X00805195Y0049394
X00806992Y00495736
X00808788Y0049394
Y00490348
Y00486755
X0081238
X00810584Y00488552
X0081238Y00490348
X00814176Y00488552
X00815972Y00486755
Y00483163
X00817768Y00484959
X00810584Y00492144
X00803399Y00495736
X00805195Y00497532
X00801603
X00799807Y00499328
X00801603Y00501124
X00803399Y00499328
X00799807Y0050292
X00796215
Y00499328
X00794419Y00501124
Y00497532
Y0049394
X00796215Y00495736
Y00492144
X00794419Y00490348
X00796215Y00488552
X00794419Y00486755
Y00483163
X00796215Y00484959
Y00481367
X00798011Y00483163
Y00486755
Y00490348
X00796215Y00463407
X00794419Y00461611
X00898995Y00456416
X00950909Y00466487
X0098806Y0043307
X00792623Y00463407
Y00466999
X00790827Y00465203
X00789031Y00466999
X00790827Y00468795
Y00472387
X00789031Y00470591
X00792623
Y00474183
X00789031
X00790827Y00475979
X00789031Y00477775
X00790827Y00479571
X00792623Y00477775
Y00481367
X00789031
Y00484959
X00790827Y00483163
X00787235
X00783643
X00785439Y00484959
X00783643Y00486755
X00785439Y00488552
X00783643Y00490348
X00781847Y00488552
X00780051Y00490348
Y00486755
X00776459
X00778255Y00488552
X00776459Y00490348
X00774663Y00488552
X00772867Y00490348
X0077107Y00488552
Y00492144
Y00495736
X00772867Y0049394
Y00497532
X00769275
Y00501124
X0077107Y00499328
X00772867Y00501124
X0077107Y0050292
Y00506512
X00772867Y00504716
Y00508308
X00769275
Y005119
X0077107Y00510104
X00772867Y005119
X0077107Y00513696
X00774663
Y00510104
X00776459Y005119
X00778255Y00510104
X00776459Y00508308
X00778255Y00506512
X00776459Y00504716
X00774663Y00506512
Y0050292
Y00499328
X00778255
X00776459Y00501124
Y00497532
Y0049394
X00778255Y00495736
X00774663
Y00492144
X00778255
X00781847
Y00495736
X00780051Y0049394
Y00497532
Y00501124
X00781847Y00499328
X00783643Y00501124
X00785439Y00499328
X00783643Y00497532
Y0049394
X00785439Y00495736
Y00492144
X00787235Y00490348
X00789031Y00488552
X00790827Y00490348
X00789031Y00492144
Y00495736
X00790827Y0049394
X00787235
Y00497532
Y00501124
X00789031Y00499328
X00790827Y00501124
Y00497532
X00792623Y00495736
Y00492144
Y00488552
X00790827Y00486755
X00787235
Y00479571
Y00475979
X00783643
X00785439Y00474183
Y00470591
X00783643Y00472387
X00787235
Y00468795
X00781847Y00474183
X00780051Y00475979
Y00479571
X00781847Y00477775
X00785439
X00783643Y00479571
X00785439Y00481367
X00781847
Y00484959
X00780051Y00483163
X00778255Y00484959
X00776459Y00483163
X00774663Y00484959
X0077107
X00772867Y00483163
Y00486755
X00769275
Y00490348
X00765682
X00767478Y00488552
Y00492144
Y00495736
X00765682Y0049394
Y00497532
Y00501124
X00767478Y00499328
Y0050292
X00765682Y00504716
X00767478Y00506512
X00769275Y00504716
X00763886Y00506512
X0076209Y00504716
X00760294Y00506512
X00758498Y00504716
X00756702Y00506512
X00754906Y00504716
X00756702Y0050292
X0075311
X00754906Y00501124
X00756702Y00499328
X00758498Y00501124
X0076209
X00760294Y00499328
Y0050292
X00763886
Y00499328
X0076209Y00497532
X00758498
X00760294Y00495736
X0076209Y0049394
X00763886Y00495736
Y00492144
X00769275Y0049394
X00778255Y0050292
X00780051Y00504716
X00781847Y00506512
X00785439
X00783643Y00504716
Y00508308
Y005119
X00785439Y00510104
X00781847
X00780051Y005119
Y00508308
X00781847Y00513696
X00785439
X00783643Y00515492
X00785439Y00517288
X00783643Y00519085
X00780051
X00776459
Y00522677
X00778255Y00520881
X00774663
X0077107
X00772867Y00522677
Y00519085
X00769275
Y00515492
X00765682
X00767478Y00517288
Y00513696
X00763886
Y00510104
X00760294
X0076209Y005119
Y00508308
X00758498
X00765682
X00767478Y00510104
X00765682Y005119
X00772867Y00515492
X0077107Y00517288
X00774663
X00778255
X00776459Y00515492
X00780051
X00781847Y00517288
Y00520881
X00780051Y00522677
X00778255Y00524473
X00774663
X00776459Y00526269
X00778255Y00513696
X00787235Y005119
Y00508308
X00790827
X00789031Y00506512
X00790827Y00504716
X00792623Y00506512
Y0050292
Y00499328
X00789031Y0050292
X00785439
X00781847
X00787235Y00504716
X00789031Y00510104
X00790827Y005119
X00789031Y00513696
X00787235Y00515492
X00792623Y00510104
Y00484959
X00778255Y00481367
Y00477775
X00776459Y00479571
X00774663Y00481367
X00669228Y00510337
X00663848Y00520896
X00658839Y00531638
X00654208Y00542547
X00649961Y00553612
X00646103Y00564818
X00642637Y00576151
X0063957Y00587599
X00636904Y00599147
X00634643Y00610781
X00632789Y00622487
X00631344Y0063425
X00630311Y00646057
X00629691Y00657892
X00629484Y00669742
X00629691Y00681592
X00630311Y00693427
X00631344Y00705234
X00632789Y00716997
X00634643Y00728703
X00636904Y00740337
X0063957Y00751885
X00642637Y00763332
X00646103Y00774666
X00649961Y00785872
X0066294Y0077724
X0066548Y0077724
X0066548Y007747
X0066548Y0077216
X0066548Y0076962
X0066802Y0076962
Y0077216
X0066802Y007747
X0066802Y0077724
X0067056Y0077724
X0067056Y007747
X0067056Y0077216
X006731Y0077216
X006731Y0076962
X0067056Y0076962
X0067056Y0076708
X006731Y0076708
X006731Y0076454
X0067056Y0076454
X0067056Y00762
X006731Y00762
X0066802Y0076454
X0066802Y0076708
X0066548Y0076708
Y0076454
X0066294Y0076454
X0066294Y0076708
X0066294Y0076962
X0066294Y0077216
X0066294Y007747
X006731Y007747
X006731Y0077724
X00696466Y00770126
X00704135Y0075946
X0069723Y0074803
X0068326Y007366
X0068072Y007366
X0067818
X0067564Y007366
X0067564Y0073406
X0067564Y0073152
X0067818Y0073152
X0068072Y0073152
Y0072898
X0068326
X0068326Y0072644
X0068072Y0072644
X0067818Y0072644
X0067818Y007239
X0067818Y0072136
X0067564Y0072136
X0067564Y007239
X0067564Y0072644
X0067564Y0072898
X0067818Y0072898
X0067818Y0073406
X0068072Y0073406
X0068326Y0073406
X006858Y0073406
X006858Y0073152
X0068326Y0073152
X006858Y0072898
X006858Y0072644
X006858Y007239
X0068326Y007239
X0068326Y0072136
X006858Y0072136
X006858Y0071882
X0068326Y0071882
X0068072Y0071882
X0067818Y0071882
X0067818Y0071628
X0067818Y0071374
X0067818Y007112
X0068072Y007112
Y0071374
X0068072Y0071628
X0068326Y0071628
X0068326Y0071374
X006858Y0071374
X006858Y007112
X0068326Y007112
X0068326Y0070866
X006858Y0070866
X006858Y0070612
X0068326Y0070612
X0068326Y0070358
X006858Y0070358
X0068072Y0070358
X0067818Y0070358
Y0070612
Y0070866
X0068072Y0070866
X0068072Y0070612
X0067564Y0070612
X0067564Y0070358
X0067564Y0070866
X0067564Y007112
X0067564Y0071374
X0067564Y0071628
X0067564Y0071882
X0068072Y0072136
X0068072Y007239
X006858Y0071628
X0072517Y0070231
X0072263Y0069723
X0071247Y0067818
X0070964Y0064977
Y0063877
X0072064Y0063877
Y0062777
X0070964Y0062777
X0071247Y0060579
X0068596Y0062214
X0068453Y0066167
X0067792Y0065659
X0072064Y0064977
X0074422Y0065151
X0074803Y0065786
X007493Y0063627
X0075184Y0063627
X0075184Y0063373
X0075438Y0063373
X0075438Y0063119
X0075692Y0063119
X0075692Y0063373
X0075692Y0063627
X00759459
X0075946Y0063373
X00762Y0063373
X00762Y0063119
X0075946Y0063119
X0075946Y00628649
X0075946Y0062611
X00762Y0062611
X0076454Y0062611
X0076708Y0062611
X0076708Y0062865
X0076454Y0062865
X00762Y0062865
X0076454Y0063119
X0076708Y0063119
X0076708Y0063373
X0076708Y0063627
X0076962Y0063627
X0077216Y0063627
X0077216Y0063373
Y0063119
X0077216Y0062865
X0076962
X0076962Y0062611
X0077216Y0062611
X0076962Y0063119
X0076962Y0063373
X0076454Y0063373
X0076454Y0063627
X00762Y0063627
X0075438Y0063627
X007493Y0063373
X0074676Y0063373
X0074676Y0063119
X007493
X0075184Y0063119
X0075184Y0062865
X007493Y0062865
X0074676
X0074676Y0062611
X007493Y0062611
X0075184Y0062611
X0075438Y0062611
X0075692Y0062611
X0075692Y0062865
X0075438Y0062865
X0074422
X0074422Y0062611
X0074168Y0062611
X0074168Y0062865
X0073914Y0062865
X0073914Y0062611
X0073914Y0063119
X0073914Y0063373
X0074168
X0074168Y0063627
X0073914Y0063627
X0074422Y0063627
X0074676Y0063627
X0074422Y0063373
X0074422Y0063119
X0074168Y0063119
X0077089Y0069469
X0076708Y0070485
X0076073Y0071247
X0074553Y0072009
Y0073009
X0073553
Y0072009
X0077851Y0073787
X0077089Y0075438
X00755305Y00796635
X00753509Y00798431
X00753509Y00794839
X00751713Y00796635
X00751713Y00800228
X00753509Y00802023
X00755305Y00800228
X00755305Y0080382
X00757101Y00805616
X00753509Y00805616
X00755305Y00807412
X00753508Y00809207
X00751713Y00807411
X00751713Y0080382
X00749917Y00805615
Y00802024
X0074812Y00803819
X00746324Y00805615
X00746324Y00802023
X00744528Y00803819
X00744528Y00807411
X00746324Y00809207
X0074812Y00807412
X0074812Y00811003
X00746325Y008128
X00749916Y008128
X0074812Y00814596
X00746325Y00816392
X00744529Y00818187
X00744529Y00814596
X00742732Y00816392
X00740936Y00818188
X0073914Y00816392
X00737344Y00818188
X00733752Y00818188
X00735548Y00816392
X00733752Y00814596
X00731957Y00816392
X00731956Y00819984
X00733752Y0082178
X00735548Y00819984
X00735548Y00823576
X00737344Y00825372
X00735548Y00827168
X00731956Y00827168
X00733752Y00828964
X00731956Y0083076
X0073016Y00828964
X00728364Y0083076
X0073016Y00832556
X00726568Y00828964
X00728363Y00827168
X00726568Y00825372
X00724772Y00827168
X00722976Y00825372
X00724772Y00823576
X00726568Y0082178
X0073016Y0082178
X00728364Y00819984
X0073016Y00818188
X00728364Y00823576
X0073016Y00825372
X00731956Y00823576
X00733752Y00825372
X0073914Y00823576
X00737345Y0082178
X0073914Y00819984
X00740936Y0082178
X00742732Y00819984
X00740936Y00814596
X0073914Y008128
X00737344Y00814596
X00737344Y00811003
X0073914Y00809207
X00740936Y00807411
X00742732Y00805615
X00742732Y00809208
X00742732Y008128
X00744528Y00811004
X00740936Y00811004
X00735548Y008128
X00751713Y00811004
X00749917Y00809208
X00748121Y00800228
X00749917Y00798431
X00757101Y00798432
X00758897Y00800228
X00760693Y00802023
X00757101Y00802024
X00758897Y0080382
X00658839Y00807846
X00654208Y00796936
X00663848Y00818587
X00669228Y00829147
X00674974Y00839513
X00681078Y00849672
X00687533Y00859611
X00694331Y0086932
X00701463Y00878785
X00708922Y00887995
X00716697Y0089694
X0072478Y00905607
X0073316Y00913988
X00741828Y0092207
X00750773Y00929846
X00759983Y00937304
X00769448Y00944437
X00779157Y00951235
X00789096Y0095769
X00799255Y00963794
X00809621Y00969539
X00820181Y0097492
X00830922Y00979929
X00841831Y00984559
X00852896Y00988807
X00864102Y00992665
X00875436Y0099613
X00886883Y00999198
X00898431Y01001864
X0092837Y0100838
X0094107
X0095377Y0100889
X0096647Y0100889
X0097917Y0100457
X0099187Y0100889
X0100457Y0101092
X0101727Y0101346
X0103378Y0100838
X0104665Y01005542
X0105849Y01001233
X0104394Y0098679
X01009972Y00986513
X01009103Y00984126
X01008235Y00981739
X01005848Y00982608
X01003461Y00983476
X01002592Y0098109
X01004979Y00980221
X01007366Y00979352
X01006497Y00976965
X01004111Y00977834
X01001724Y00978703
X00999337Y00979572
X01000206Y00981958
X01001074Y00984345
X01001943Y00986732
X01002812Y00989119
X01005199Y0098825
X0100433Y00985863
X01006717Y00984995
X01007586Y00987382
X01078073Y00978409
X01077589Y0096412
X0107672Y00961733
X01079107Y00960865
X01079976Y00963251
X01082362Y00962383
X01081493Y00959996
X01080625Y00957609
X01078238Y00958478
X01075851Y00959346
X01074982Y0095696
X01077369Y00956091
X01079756Y00955222
X01078887Y00952835
X01076501Y00953704
X01074114Y00954573
X01071727Y00955442
X01072596Y00957828
X01073464Y00960215
X01074333Y00962602
X01075202Y00964989
X01091021Y0095885
X01089751Y0095665
X01091951Y0095538
X01093221Y0095758
X01095421Y0095631
X0109762Y0095504
X0109635Y0095284
X0109508Y0095064
X01092881Y0095191
X0109415Y0095411
X01090681Y0095318
X01088481Y0095445
X01087211Y00952251
X01085941Y00950051
X01088141Y00948781
X0108941Y0095098
X0109161Y00949711
X01090341Y00947511
X0109254Y00946241
X0109381Y0094844
X0111379Y0095631
X01113422Y00979031
X01124421Y00972681
X0113665Y0097536
X0116586Y0094361
X0117348Y009271
X01173235Y00909786
X01171439Y0090799
X01169643Y00909786
X01171439Y00911582
X01169643Y00906194
X0117144Y00904398
X01173236Y00906194
X01176827Y00906194
X01175032Y00904398
X01173235Y00902602
X01169643Y00902602
X01167848Y00900806
X01171439Y00900806
X01169643Y0089901
X01166051Y00902602
X01167847Y00904398
X01166051Y00906194
X01167847Y0090799
X01164255Y00904398
X0115858Y00908141
X0115985Y0091034
X01157651Y00911611
X01156381Y00909411
X01154181Y00910681
X0115545Y0091288
X01153251Y0091415
X01154521Y0091635
X01156721Y0091508
X01158921Y00913811
X0116019Y0091601
X0116146Y0091821
X0116366Y0091694
X0116239Y0091474
X0116112Y0091254
X01157991Y0091728
X01155791Y0091855
X01157061Y0092075
X01159261Y0091948
X01151981Y00911951
X01175032Y0090799
X01185506Y00932854
X0117475Y0081661
X0112226Y00817391
X01120464Y00815595
X01118668Y00817391
Y00813799
X01115076
X01116871Y00812003
X01115076Y00810207
X01113279Y00808411
X01109687
X01111483Y00810207
Y00806615
X01109687Y00804819
X01107891Y00803023
X01104299
X01106095Y00804819
Y00801227
X01104299Y00799431
X01102503Y00801227
Y00804819
X01100707Y00803023
X01098911Y00804819
X01100707Y00806615
X01097115
Y00810207
X01098911Y00808411
X01100707Y00810207
X01102503Y00808411
X01106095
X01104299Y00810207
Y00806615
X01107891
Y00810207
X01109687Y00812003
X01113279
X01111483Y00813799
X01107891
X01104299
X01106095Y00812003
X01102503
X01098911
X01100707Y00813799
X01097115
X01093523
X01095319Y00812003
Y00808411
X01093523Y00810207
X01091727Y00812003
X01089931Y00813799
Y00817391
X01091727Y00815595
X01095319
X01093523Y00817391
X01097115
X01098911Y00815595
X01100707Y00817391
X01102503Y00815595
X01106095
X01104299Y00817391
X01107891
X01109687Y00815595
X01111483Y00817391
X01113279Y00815595
X01116871
X01115076Y00817391
X01116871Y00819187
X01113279
X01109687
X01111483Y00820983
X01109687Y00822779
X01107891Y00820983
X01104299
X01106095Y00822779
Y00819187
X01102503
X01098911
X01100707Y00820983
X01098911Y00822779
X01102503
X01104299Y00824576
X01107891
X01111483
X01109687Y00826372
X01111483Y00828168
X01113279Y00826372
X01116871
X01115076Y00828168
Y00824576
Y00820983
X01116871Y00822779
X01118668Y00820983
X0112226
X01120464Y00822779
Y00819187
X01124056
Y00822779
X01125852Y00820983
X01127648Y00822779
X01125852Y00824576
X0112226
X01118668
Y00828168
X01120464Y00826372
X0112226Y00828168
X01124056Y00826372
X01120464Y00829964
X01116871
X01113279
X01109687
X01111483Y0083176
X01109687Y00833556
X01113279
X01115076Y0083176
X01116871Y00833556
X01118668Y0083176
X01115076Y00835352
X01111483
X01107891
Y0083176
X01104299
X01106095Y00833556
Y00829964
Y00826372
X01104299Y00828168
X01102503Y00826372
X01098911
X01100707Y00828168
Y00824576
X01097115
Y00820983
X01093523
X01095319Y00822779
Y00819187
X01091727
Y00822779
X01089931Y00820983
Y00824576
Y00828168
X01086339
X01088135Y00826372
Y00829964
Y00833556
X01086339Y0083176
Y00835352
Y00838944
X01088135Y00837148
Y0084074
X01086339Y00842536
X01088135Y00844332
X01084543
X0108095
X01082747Y00842536
Y00846128
X0108095Y00847924
X01082747Y0084972
X01079155
X01075562
X01077358Y00847924
Y00851516
X01073766
Y00847924
X01070174
X0107197Y0084972
Y00846128
X01068378
Y00842536
X01064786
X01066582Y00844332
Y0084074
X0106299
X01064786Y00838944
X01066582Y00837148
X01068378Y00838944
X0107197
X01070174Y00837148
Y0084074
Y00844332
X0107197Y00842536
X01073766Y00844332
X01077358
X01075562Y00842536
Y00846128
X01079155
Y00842536
X01077358Y0084074
X01073766
Y00837148
X01075562Y00838944
X01077358Y00837148
X01079155Y00838944
X01082747
X0108095Y00837148
Y0084074
X01084543
Y00837148
X01082747Y00835352
X01079155
X01075562
X01077358Y00833556
X01075562Y0083176
X01073766Y00833556
X01070174
X0107197Y0083176
Y00835352
X01068378
X01073766Y00829964
X01077358
X01075562Y00828168
X01077358Y00826372
X01079155Y00828168
X01082747
X0108095Y00826372
Y00829964
Y00833556
X01082747Y0083176
X01079155
X01084543Y00833556
Y00829964
Y00826372
X01082747Y00824576
X01079155
X0108095Y00822779
X01082747Y00820983
X01084543Y00822779
X01088135
X01086339Y00820983
Y00824576
X01088135Y00819187
Y00815595
X01086339Y00817391
X01084543Y00819187
X01093523Y00824576
X01095319Y00826372
X01093523Y00828168
X01097115
X01098911Y00829964
X01102503
Y00833556
X01100707Y0083176
X01098911Y00833556
X01100707Y00835352
X01098911Y00837148
X01100707Y00838944
X01098911Y0084074
X01102503
Y00844332
X01104299Y00842536
X01106095Y00844332
X01104299Y00846128
X01100707
Y00842536
X01098911Y00844332
X01097115Y00842536
X01093523
X01091727Y00844332
Y0084074
Y00837148
X01089931Y00838944
Y00835352
Y0083176
X01091727Y00833556
X01093523Y0083176
Y00835352
Y00838944
X01089931Y00842536
Y00846128
X01086339
X01088135Y00847924
X01086339Y0084972
X01084543Y00847924
Y00851516
X0108095
X01082747Y00853312
X0108095Y00855108
X01079155Y00853312
X01075562
X01077358Y00855108
X01079155Y00856905
X01082747Y00860497
X01084543Y008587
X01088135
X01086339Y00860497
Y00856905
X01088135Y00855108
X01089931Y00853312
X01091727Y00855108
Y00851516
X01095319
Y00847924
X01093523Y0084972
X01097115
Y00846128
X01098911Y00847924
X01100707Y0084972
X01102503Y00847924
X01098911Y00851516
X01097115Y00853312
X01093523
X01095319Y00855108
X01093523Y00856905
X01089931
Y00860497
X01091727Y008587
X01088135Y00862293
X01086339Y00864089
X01084543Y00862293
X0110871Y0085471
X01107891Y00842536
Y00838944
X01109687Y00837148
X01111483Y00838944
X01113279Y00837148
X01109687Y0084074
X01106095
Y00837148
X01104299Y00838944
Y00835352
X01102503Y00837148
X01107891Y00828168
X01113279Y00822779
X01091727Y00826372
Y00829964
X0107832Y0080636
X0108204Y0089789
X0110236Y0088392
X0101727Y0090805
X0099187Y009144
X0096647Y0091948
X0091948Y0092456
X0091694Y0094488
X0090424Y0091313
X0090805Y0089916
X00907979Y0089381
X00909783Y00875035
X0088392Y0088011
X0087757Y0087757
X00859895Y00879668
X0085979Y009024
X0085471Y0089916
X0087249Y0090551
X0088519Y0092202
X0088646Y0085979
X0089154Y008509
X0088773Y0083947
X0088138Y0083439
X008763Y0083947
X00894546Y00826612
X0093726Y0088011
X0120777Y0088646
X01215951Y00904503
X01201856Y009144
X0124206Y00879737
X01245173Y00864296
X01251592Y00853893
X01227038Y00850682
X01225242Y00852478
X01223446Y00850682
X0122165Y00852478
X01223446Y00854274
X0122165Y00848886
X01223446Y0084709
X01225242Y00848886
X01228834Y00848886
X01227038Y0084709
X01225242Y00845294
X01221649Y00845294
X01219854Y00843498
X01223445Y00843497
X0122165Y00841702
X01218057Y00845294
X01219853Y00847089
X01218058Y00848886
X01219853Y00850682
X01216261Y0084709
X0119507Y0080264
X01279213Y00807846
X01283844Y00796936
X01273721Y0082296
M30
