M48
;Layer_Color=9474304
;FILE_FORMAT=4:4
METRIC,LZ
;TYPE=PLATED
T2F00S00C0.2000
%
T02
X0119807Y00670123
X0118618Y007493
X01167145Y00556887
X0112395Y0050292
X00979441Y00444754
X009017Y0045593
X0090805Y0067183
X0090424Y0067818
X0092583Y0066929
X0092329Y0066421
X00949325Y00697865
X0076708Y0070485
X0076073Y0071247
X0072517Y0070231
X0072263Y0069723
X0074803Y0065786
X0074525Y0065127
X0068453Y0065532
X0068596Y0062214
X0071247Y0060579
X0069723Y0074803
X00704135Y0075946
X00696466Y00770126
X00859895Y00879668
X0087757Y0087757
X0088392Y0088011
X0088646Y0085979
X0089154Y008509
X00909783Y00875035
X00907979Y0089381
X0090805Y0089916
X0090424Y0091313
X0088519Y0092202
X0087249Y0090551
X0085979Y009024
M30
