G04 Layer_Color=2752767*
%FSLAX44Y44*%
%MOMM*%
G71*
G01*
G75*
%ADD284C,0.0508*%
%ADD285C,0.0677*%
D284*
X966994Y517710D02*
Y521774D01*
X971058D01*
Y517710D01*
X966994D01*
Y817710D02*
Y821774D01*
X971058D01*
Y817710D01*
X966994D01*
X1116994Y667710D02*
Y671774D01*
X1121058D01*
Y667710D01*
X1116994D01*
X816994Y667710D02*
Y671774D01*
X821058D01*
Y667710D01*
X816994D01*
X820181Y362532D02*
X818148Y366596D01*
X822213D01*
X820181Y362532D01*
X809621Y367912D02*
X807589Y371976D01*
X811653D01*
X809621Y367912D01*
X654208Y540515D02*
X652176Y544579D01*
X656240D01*
X654208Y540515D01*
X658839Y529606D02*
X656807Y533670D01*
X660871D01*
X658839Y529606D01*
X663848Y518865D02*
X661816Y522929D01*
X665880D01*
X663848Y518865D01*
X669228Y508305D02*
X667196Y512369D01*
X671260D01*
X669228Y508305D01*
X830922Y357523D02*
X828890Y361587D01*
X832954D01*
X830922Y357523D01*
X841831Y352892D02*
X839799Y356956D01*
X843863D01*
X841831Y352892D01*
X898431Y335588D02*
X896399Y339652D01*
X900463D01*
X898431Y335588D01*
X886883Y338254D02*
X884851Y342318D01*
X888915D01*
X886883Y338254D01*
X875435Y341322D02*
X873403Y345386D01*
X877467D01*
X875435Y341322D01*
X864102Y344787D02*
X862070Y348851D01*
X866134D01*
X864102Y344787D01*
X852896Y348645D02*
X850864Y352709D01*
X854928D01*
X852896Y348645D01*
X957176Y328375D02*
X955144Y332439D01*
X959208D01*
X957176Y328375D01*
X945341Y328995D02*
X943309Y333059D01*
X947373D01*
X945341Y328995D01*
X933534Y330028D02*
X931502Y334092D01*
X935566D01*
X933534Y330028D01*
X921771Y331472D02*
X919739Y335536D01*
X923803D01*
X921771Y331472D01*
X910065Y333326D02*
X908033Y337390D01*
X912097D01*
X910065Y333326D01*
X649961Y551580D02*
X647929Y555644D01*
X651993D01*
X649961Y551580D01*
X646103Y562786D02*
X644071Y566850D01*
X648135D01*
X646103Y562786D01*
X642637Y574119D02*
X640605Y578183D01*
X644669D01*
X642637Y574119D01*
X639570Y585567D02*
X637538Y589631D01*
X641602D01*
X639570Y585567D01*
X636904Y597115D02*
X634872Y601179D01*
X638936D01*
X636904Y597115D01*
X634643Y608749D02*
X632611Y612813D01*
X636675D01*
X634643Y608749D01*
X632789Y620455D02*
X630757Y624519D01*
X634821D01*
X632789Y620455D01*
X631344Y632218D02*
X629312Y636282D01*
X633376D01*
X631344Y632218D01*
X630311Y644025D02*
X628279Y648089D01*
X632343D01*
X630311Y644025D01*
X629691Y655860D02*
X627659Y659924D01*
X631723D01*
X629691Y655860D01*
X629484Y667710D02*
X627452Y671774D01*
X631516D01*
X629484Y667710D01*
X629691Y679560D02*
X627659Y683624D01*
X631723D01*
X629691Y679560D01*
X630311Y691395D02*
X628279Y695459D01*
X632343D01*
X630311Y691395D01*
X631344Y703202D02*
X629312Y707266D01*
X633376D01*
X631344Y703202D01*
X632789Y714965D02*
X630757Y719029D01*
X634821D01*
X632789Y714965D01*
X634643Y726671D02*
X632611Y730735D01*
X636675D01*
X634643Y726671D01*
X636904Y738305D02*
X634872Y742368D01*
X638936D01*
X636904Y738305D01*
X639570Y749852D02*
X637538Y753916D01*
X641602D01*
X639570Y749852D01*
X642637Y761300D02*
X640605Y765364D01*
X644669D01*
X642637Y761300D01*
X646103Y772634D02*
X644071Y776698D01*
X648135D01*
X646103Y772634D01*
X649961Y783840D02*
X647929Y787904D01*
X651993D01*
X649961Y783840D01*
X852896Y986775D02*
X850864Y990839D01*
X854928D01*
X852896Y986775D01*
X841831Y982527D02*
X839799Y986591D01*
X843863D01*
X841831Y982527D01*
X830922Y977897D02*
X828890Y981961D01*
X832954D01*
X830922Y977897D01*
X820181Y972888D02*
X818149Y976952D01*
X822213D01*
X820181Y972888D01*
X809621Y967507D02*
X807589Y971571D01*
X811653D01*
X809621Y967507D01*
X799255Y961762D02*
X797223Y965826D01*
X801287D01*
X799255Y961762D01*
X789096Y955658D02*
X787064Y959722D01*
X791128D01*
X789096Y955658D01*
X779157Y949203D02*
X777125Y953267D01*
X781189D01*
X779157Y949203D01*
X769448Y942405D02*
X767416Y946469D01*
X771480D01*
X769448Y942405D01*
X759983Y935272D02*
X757951Y939336D01*
X762015D01*
X759983Y935272D01*
X750773Y927814D02*
X748741Y931878D01*
X752805D01*
X750773Y927814D01*
X741828Y920039D02*
X739796Y924102D01*
X743860D01*
X741828Y920039D01*
X733160Y911956D02*
X731128Y916020D01*
X735192D01*
X733160Y911956D01*
X724780Y903575D02*
X722748Y907639D01*
X726812D01*
X724780Y903575D01*
X716697Y894908D02*
X714665Y898972D01*
X718729D01*
X716697Y894908D01*
X708922Y885963D02*
X706890Y890027D01*
X710954D01*
X708922Y885963D01*
X701463Y876753D02*
X699431Y880817D01*
X703495D01*
X701463Y876753D01*
X694331Y867288D02*
X692299Y871351D01*
X696363D01*
X694331Y867288D01*
X687533Y857579D02*
X685501Y861643D01*
X689565D01*
X687533Y857579D01*
X681078Y847640D02*
X679046Y851704D01*
X683110D01*
X681078Y847640D01*
X674974Y837481D02*
X672942Y841545D01*
X677006D01*
X674974Y837481D01*
X669228Y827115D02*
X667196Y831179D01*
X671260D01*
X669228Y827115D01*
X663848Y816555D02*
X661816Y820619D01*
X665880D01*
X663848Y816555D01*
X658839Y805814D02*
X656807Y809878D01*
X660871D01*
X658839Y805814D01*
X654208Y794904D02*
X652176Y798969D01*
X656240D01*
X654208Y794904D01*
X1138797Y961762D02*
X1136765Y965826D01*
X1140829D01*
X1138797Y961762D01*
X1128431Y967507D02*
X1126399Y971571D01*
X1130463D01*
X1128431Y967507D01*
X1117871Y972888D02*
X1115839Y976952D01*
X1119903D01*
X1117871Y972888D01*
X1107130Y977897D02*
X1105098Y981961D01*
X1109162D01*
X1107130Y977897D01*
X1096221Y982527D02*
X1094189Y986591D01*
X1098253D01*
X1096221Y982527D01*
X1085156Y986775D02*
X1083124Y990839D01*
X1087188D01*
X1085156Y986775D01*
X1073950Y990633D02*
X1071918Y994697D01*
X1075982D01*
X1073950Y990633D01*
X1062617Y994098D02*
X1060584Y998162D01*
X1064649D01*
X1062617Y994098D01*
X1051169Y997166D02*
X1049137Y1001230D01*
X1053201D01*
X1051169Y997166D01*
X1039621Y999832D02*
X1037589Y1003896D01*
X1041653D01*
X1039621Y999832D01*
X1027987Y1002093D02*
X1025955Y1006157D01*
X1030019D01*
X1027987Y1002093D01*
X1016281Y1003947D02*
X1014249Y1008011D01*
X1018313D01*
X1016281Y1003947D01*
X1004518Y1005391D02*
X1002486Y1009455D01*
X1006550D01*
X1004518Y1005391D01*
X992711Y1006424D02*
X990679Y1010489D01*
X994743D01*
X992711Y1006424D01*
X980876Y1007045D02*
X978844Y1011109D01*
X982908D01*
X980876Y1007045D01*
X969026Y1007252D02*
X966994Y1011316D01*
X971058D01*
X969026Y1007252D01*
X957176Y1007045D02*
X955144Y1011109D01*
X959208D01*
X957176Y1007045D01*
X945341Y1006424D02*
X943309Y1010489D01*
X947373D01*
X945341Y1006424D01*
X933534Y1005391D02*
X931502Y1009455D01*
X935566D01*
X933534Y1005391D01*
X921771Y1003947D02*
X919739Y1008011D01*
X923803D01*
X921771Y1003947D01*
X910065Y1002093D02*
X908033Y1006157D01*
X912097D01*
X910065Y1002093D01*
X898431Y999832D02*
X896399Y1003896D01*
X900463D01*
X898431Y999832D01*
X886883Y997166D02*
X884851Y1001230D01*
X888915D01*
X886883Y997166D01*
X875436Y994098D02*
X873404Y998162D01*
X877468D01*
X875436Y994098D01*
X864102Y990633D02*
X862070Y994697D01*
X866134D01*
X864102Y990633D01*
X1303409Y726671D02*
X1301377Y730734D01*
X1305441D01*
X1303409Y726671D01*
X1301148Y738304D02*
X1299116Y742368D01*
X1303180D01*
X1301148Y738304D01*
X1298482Y749852D02*
X1296450Y753916D01*
X1300514D01*
X1298482Y749852D01*
X1295414Y761300D02*
X1293383Y765364D01*
X1297446D01*
X1295414Y761300D01*
X1291949Y772634D02*
X1289917Y776698D01*
X1293981D01*
X1291949Y772634D01*
X1288091Y783840D02*
X1286059Y787904D01*
X1290123D01*
X1288091Y783840D01*
X1283844Y794904D02*
X1281812Y798968D01*
X1285876D01*
X1283844Y794904D01*
X1279213Y805814D02*
X1277181Y809878D01*
X1281245D01*
X1279213Y805814D01*
X1274204Y816555D02*
X1272172Y820619D01*
X1276236D01*
X1274204Y816555D01*
X1268824Y827115D02*
X1266792Y831179D01*
X1270856D01*
X1268824Y827115D01*
X1263078Y837481D02*
X1261046Y841545D01*
X1265110D01*
X1263078Y837481D01*
X1256974Y847639D02*
X1254942Y851703D01*
X1259006D01*
X1256974Y847639D01*
X1250519Y857579D02*
X1248487Y861643D01*
X1252551D01*
X1250519Y857579D01*
X1243721Y867287D02*
X1241689Y871351D01*
X1245753D01*
X1243721Y867287D01*
X1236589Y876753D02*
X1234557Y880817D01*
X1238621D01*
X1236589Y876753D01*
X1229130Y885963D02*
X1227098Y890027D01*
X1231162D01*
X1229130Y885963D01*
X1221355Y894908D02*
X1219323Y898972D01*
X1223387D01*
X1221355Y894908D01*
X1213272Y903575D02*
X1211240Y907639D01*
X1215304D01*
X1213272Y903575D01*
X1204892Y911956D02*
X1202860Y916020D01*
X1206924D01*
X1204892Y911956D01*
X1196224Y920039D02*
X1194192Y924102D01*
X1198256D01*
X1196224Y920039D01*
X1187279Y927814D02*
X1185247Y931878D01*
X1189311D01*
X1187279Y927814D01*
X1178069Y935272D02*
X1176037Y939336D01*
X1180101D01*
X1178069Y935272D01*
X1168604Y942405D02*
X1166572Y946469D01*
X1170636D01*
X1168604Y942405D01*
X1158895Y949203D02*
X1156863Y953267D01*
X1160927D01*
X1158895Y949203D01*
X1148956Y955658D02*
X1146924Y959722D01*
X1150988D01*
X1148956Y955658D01*
X1229130Y449456D02*
X1227098Y453520D01*
X1231162D01*
X1229130Y449456D01*
X1236589Y458667D02*
X1234557Y462731D01*
X1238621D01*
X1236589Y458667D01*
X1243721Y468132D02*
X1241689Y472196D01*
X1245753D01*
X1243721Y468132D01*
X1250519Y477840D02*
X1248487Y481904D01*
X1252551D01*
X1250519Y477840D01*
X1256974Y487780D02*
X1254942Y491844D01*
X1259006D01*
X1256974Y487780D01*
X1263078Y497939D02*
X1261046Y502003D01*
X1265110D01*
X1263078Y497939D01*
X1268824Y508304D02*
X1266792Y512369D01*
X1270856D01*
X1268824Y508304D01*
X1274204Y518864D02*
X1272172Y522928D01*
X1276236D01*
X1274204Y518864D01*
X1279213Y529606D02*
X1277181Y533670D01*
X1281245D01*
X1279213Y529606D01*
X1283844Y540515D02*
X1281812Y544579D01*
X1285876D01*
X1283844Y540515D01*
X1288091Y551580D02*
X1286059Y555644D01*
X1290123D01*
X1288091Y551580D01*
X1291949Y562785D02*
X1289917Y566850D01*
X1293981D01*
X1291949Y562785D01*
X1295414Y574119D02*
X1293383Y578183D01*
X1297446D01*
X1295414Y574119D01*
X1298482Y585567D02*
X1296450Y589631D01*
X1300514D01*
X1298482Y585567D01*
X1301148Y597115D02*
X1299116Y601179D01*
X1303180D01*
X1301148Y597115D01*
X1303409Y608749D02*
X1301377Y612813D01*
X1305441D01*
X1303409Y608749D01*
X1305263Y620455D02*
X1303231Y624519D01*
X1307295D01*
X1305263Y620455D01*
X1306708Y632218D02*
X1304676Y636282D01*
X1308740D01*
X1306708Y632218D01*
X1307741Y644025D02*
X1305709Y648089D01*
X1309773D01*
X1307741Y644025D01*
X1308361Y655860D02*
X1306329Y659924D01*
X1310393D01*
X1308361Y655860D01*
X1308568Y667710D02*
X1306536Y671774D01*
X1310600D01*
X1308568Y667710D01*
X1308361Y679560D02*
X1306329Y683624D01*
X1310393D01*
X1308361Y679560D01*
X1307741Y691395D02*
X1305709Y695459D01*
X1309773D01*
X1307741Y691395D01*
X1306708Y703202D02*
X1304676Y707265D01*
X1308740D01*
X1306708Y703202D01*
X1305263Y714965D02*
X1303231Y719029D01*
X1307295D01*
X1305263Y714965D01*
X1221355Y440512D02*
X1219323Y444576D01*
X1223387D01*
X1221355Y440512D01*
X1213272Y431844D02*
X1211240Y435908D01*
X1215304D01*
X1213272Y431844D01*
X1204892Y423464D02*
X1202859Y427528D01*
X1206924D01*
X1204892Y423464D01*
X1196224Y415381D02*
X1194192Y419445D01*
X1198256D01*
X1196224Y415381D01*
X1187279Y407606D02*
X1185247Y411670D01*
X1189311D01*
X1187279Y407606D01*
X1178069Y400147D02*
X1176037Y404211D01*
X1180101D01*
X1178069Y400147D01*
X1168604Y393015D02*
X1166572Y397079D01*
X1170636D01*
X1168604Y393015D01*
X1158895Y386217D02*
X1156863Y390281D01*
X1160927D01*
X1158895Y386217D01*
X1148956Y379762D02*
X1146924Y383826D01*
X1150988D01*
X1148956Y379762D01*
X1138797Y373658D02*
X1136765Y377722D01*
X1140829D01*
X1138797Y373658D01*
X1128431Y367912D02*
X1126399Y371976D01*
X1130463D01*
X1128431Y367912D01*
X1117871Y362532D02*
X1115839Y366596D01*
X1119903D01*
X1117871Y362532D01*
X1107130Y357523D02*
X1105098Y361587D01*
X1109162D01*
X1107130Y357523D01*
X1096221Y352892D02*
X1094189Y356956D01*
X1098253D01*
X1096221Y352892D01*
X1085156Y348645D02*
X1083124Y352709D01*
X1087188D01*
X1085156Y348645D01*
X1073950Y344786D02*
X1071918Y348850D01*
X1075982D01*
X1073950Y344786D01*
X1062616Y341321D02*
X1060584Y345385D01*
X1064648D01*
X1062616Y341321D01*
X1051169Y338254D02*
X1049137Y342318D01*
X1053201D01*
X1051169Y338254D01*
X1039621Y335588D02*
X1037589Y339652D01*
X1041653D01*
X1039621Y335588D01*
X1027987Y333326D02*
X1025955Y337390D01*
X1030019D01*
X1027987Y333326D01*
X1016281Y331472D02*
X1014249Y335536D01*
X1018313D01*
X1016281Y331472D01*
X1004518Y330028D02*
X1002486Y334092D01*
X1006550D01*
X1004518Y330028D01*
X992711Y328995D02*
X990679Y333059D01*
X994743D01*
X992711Y328995D01*
X980876Y328375D02*
X978844Y332439D01*
X982908D01*
X980876Y328375D01*
X969026Y328168D02*
X966994Y332232D01*
X971058D01*
X969026Y328168D01*
D285*
X1124712Y764540D02*
G03*
X1124712Y764540I-2032J0D01*
G01*
X1099654Y554982D02*
G03*
X1099654Y554982I-2032J0D01*
G01*
X868172Y527050D02*
G03*
X868172Y527050I-2032J0D01*
G01*
X1071372Y834390D02*
G03*
X1071372Y834390I-2032J0D01*
G01*
X783082Y497840D02*
G03*
X783082Y497840I-2032J0D01*
G01*
X983742Y656590D02*
G03*
X983742Y656590I-2032J0D01*
G01*
X979932Y698500D02*
G03*
X979932Y698500I-2032J0D01*
G01*
X1006602Y692150D02*
G03*
X1006602Y692150I-2032J0D01*
G01*
X968502Y647700D02*
G03*
X968502Y647700I-2032J0D01*
G01*
X953262Y654050D02*
G03*
X953262Y654050I-2032J0D01*
G01*
X686562Y661670D02*
G03*
X686562Y661670I-2032J0D01*
G01*
X757682Y647700D02*
G03*
X757682Y647700I-2032J0D01*
G01*
X762762Y642620D02*
G03*
X762762Y642620I-2032J0D01*
G01*
Y647700D02*
G03*
X762762Y647700I-2032J0D01*
G01*
X757682Y637540D02*
G03*
X757682Y637540I-2032J0D01*
G01*
Y642620D02*
G03*
X757682Y642620I-2032J0D01*
G01*
X762762Y637540D02*
G03*
X762762Y637540I-2032J0D01*
G01*
X757682Y632460D02*
G03*
X757682Y632460I-2032J0D01*
G01*
X752602Y647700D02*
G03*
X752602Y647700I-2032J0D01*
G01*
X752602Y642620D02*
G03*
X752602Y642620I-2032J0D01*
G01*
Y637540D02*
G03*
X752602Y637540I-2032J0D01*
G01*
X752602Y632460D02*
G03*
X752602Y632460I-2032J0D01*
G01*
X939292Y763270D02*
G03*
X939292Y763270I-2032J0D01*
G01*
X915162Y689610D02*
G03*
X915162Y689610I-2032J0D01*
G01*
X953262Y687070D02*
G03*
X953262Y687070I-2032J0D01*
G01*
X1009142Y726440D02*
G03*
X1009142Y726440I-2032J0D01*
G01*
X747522Y642620D02*
G03*
X747522Y642620I-2032J0D01*
G01*
X675132Y778510D02*
G03*
X675132Y778510I-2032J0D01*
G01*
X678942Y718820D02*
G03*
X678942Y718820I-2032J0D01*
G01*
Y723900D02*
G03*
X678942Y723900I-2032J0D01*
G01*
Y728980D02*
G03*
X678942Y728980I-2032J0D01*
G01*
Y734060D02*
G03*
X678942Y734060I-2032J0D01*
G01*
X671390Y764608D02*
G03*
X671390Y764608I-2032J0D01*
G01*
Y769620D02*
G03*
X671390Y769620I-2032J0D01*
G01*
Y774700D02*
G03*
X671390Y774700I-2032J0D01*
G01*
X737562Y730090D02*
G03*
X737562Y730090I-2032J0D01*
G01*
X747562D02*
G03*
X747562Y730090I-2032J0D01*
G01*
X737562Y720090D02*
G03*
X737562Y720090I-2032J0D01*
G01*
X747562D02*
G03*
X747562Y720090I-2032J0D01*
G01*
X1105662Y906780D02*
G03*
X1105662Y906780I-2032J0D01*
G01*
X1192022Y838200D02*
G03*
X1192022Y838200I-2032J0D01*
G01*
X939292Y880110D02*
G03*
X939292Y880110I-2032J0D01*
G01*
X1014222Y943610D02*
G03*
X1014222Y943610I-2032J0D01*
G01*
X1113282Y499110D02*
G03*
X1113282Y499110I-2032J0D01*
G01*
X1194562Y737870D02*
G03*
X1194562Y737870I-2032J0D01*
G01*
X1197102Y726440D02*
G03*
X1197102Y726440I-2032J0D01*
G01*
X1200912Y713740D02*
G03*
X1200912Y713740I-2032J0D01*
G01*
X1192022Y711200D02*
G03*
X1192022Y711200I-2032J0D01*
G01*
X1188212Y723900D02*
G03*
X1188212Y723900I-2032J0D01*
G01*
X1184402Y735330D02*
G03*
X1184402Y735330I-2032J0D01*
G01*
X1189798Y736901D02*
G03*
X1189798Y736901I-2032J0D01*
G01*
X1193105Y724640D02*
G03*
X1193105Y724640I-2032J0D01*
G01*
X1196412Y712378D02*
G03*
X1196412Y712378I-2032J0D01*
G01*
X1203452Y657860D02*
G03*
X1203452Y657860I-2032J0D01*
G01*
X1198954Y657475D02*
G03*
X1198954Y657475I-2032J0D01*
G01*
X1194562Y657860D02*
G03*
X1194562Y657860I-2032J0D01*
G01*
X1202182Y645160D02*
G03*
X1202182Y645160I-2032J0D01*
G01*
X1197921Y646092D02*
G03*
X1197921Y646092I-2032J0D01*
G01*
X1193292Y645160D02*
G03*
X1193292Y645160I-2032J0D01*
G01*
X1202182Y631190D02*
G03*
X1202182Y631190I-2032J0D01*
G01*
X1196658Y632179D02*
G03*
X1196658Y632179I-2032J0D01*
G01*
X1192022Y632460D02*
G03*
X1192022Y632460I-2032J0D01*
G01*
X1157136Y548305D02*
G03*
X1157136Y548305I-2032J0D01*
G01*
X1161821Y546534D02*
G03*
X1161821Y546534I-2032J0D01*
G01*
X1165470Y545499D02*
G03*
X1165470Y545499I-2032J0D01*
G01*
X1151382Y539750D02*
G03*
X1151382Y539750I-2032J0D01*
G01*
X1157732Y533400D02*
G03*
X1157732Y533400I-2032J0D01*
G01*
X1154464Y536182D02*
G03*
X1154464Y536182I-2032J0D01*
G01*
X1151382Y524510D02*
G03*
X1151382Y524510I-2032J0D01*
G01*
X1147843Y526865D02*
G03*
X1147843Y526865I-2032J0D01*
G01*
X1143103Y530233D02*
G03*
X1143103Y530233I-2032J0D01*
G01*
X1118362Y491490D02*
G03*
X1118362Y491490I-2032J0D01*
G01*
X1115421Y495340D02*
G03*
X1115421Y495340I-2032J0D01*
G01*
X1108202Y483870D02*
G03*
X1108202Y483870I-2032J0D01*
G01*
X1105292Y487679D02*
G03*
X1105292Y487679I-2032J0D01*
G01*
X1103122Y491490D02*
G03*
X1103122Y491490I-2032J0D01*
G01*
X1098042Y476250D02*
G03*
X1098042Y476250I-2032J0D01*
G01*
X1095163Y480018D02*
G03*
X1095163Y480018I-2032J0D01*
G01*
X1092962Y483870D02*
G03*
X1092962Y483870I-2032J0D01*
G01*
X856742Y899160D02*
G03*
X856742Y899160I-2032J0D01*
G01*
X897382Y720090D02*
G03*
X897382Y720090I-2032J0D01*
G01*
X751050Y772750D02*
G03*
X751050Y772750I-2032J0D01*
G01*
X748356Y770056D02*
G03*
X748356Y770056I-2032J0D01*
G01*
X747458Y776342D02*
G03*
X747458Y776342I-2032J0D01*
G01*
X744764Y773648D02*
G03*
X744764Y773648I-2032J0D01*
G01*
X743866Y779934D02*
G03*
X743866Y779934I-2032J0D01*
G01*
X741172Y777240D02*
G03*
X741172Y777240I-2032J0D01*
G01*
X878332Y839470D02*
G03*
X878332Y839470I-2032J0D01*
G01*
X889762D02*
G03*
X889762Y839470I-2032J0D01*
G01*
X896578Y826612D02*
G03*
X896578Y826612I-2032J0D01*
G01*
X1054862Y389890D02*
G03*
X1054862Y389890I-2032J0D01*
G01*
X968697Y450544D02*
G03*
X968697Y450544I-2032J0D01*
G01*
X968785Y445308D02*
G03*
X968785Y445308I-2032J0D01*
G01*
X968873Y440073D02*
G03*
X968873Y440073I-2032J0D01*
G01*
X956097Y445862D02*
G03*
X956097Y445862I-2032J0D01*
G01*
X956185Y440627D02*
G03*
X956185Y440627I-2032J0D01*
G01*
X956009Y451098D02*
G03*
X956009Y451098I-2032J0D01*
G01*
X943409Y446416D02*
G03*
X943409Y446416I-2032J0D01*
G01*
X943497Y441181D02*
G03*
X943497Y441181I-2032J0D01*
G01*
X943321Y451652D02*
G03*
X943321Y451652I-2032J0D01*
G01*
X891577Y460166D02*
G03*
X891577Y460166I-2032J0D01*
G01*
X890307Y455086D02*
G03*
X890307Y455086I-2032J0D01*
G01*
X892847Y465246D02*
G03*
X892847Y465246I-2032J0D01*
G01*
X879844Y465026D02*
G03*
X879844Y465026I-2032J0D01*
G01*
X878574Y459946D02*
G03*
X878574Y459946I-2032J0D01*
G01*
X881114Y470106D02*
G03*
X881114Y470106I-2032J0D01*
G01*
X869381Y474966D02*
G03*
X869381Y474966I-2032J0D01*
G01*
X866841Y464806D02*
G03*
X866841Y464806I-2032J0D01*
G01*
X868111Y469886D02*
G03*
X868111Y469886I-2032J0D01*
G01*
X751730Y802242D02*
G03*
X751730Y802242I-2032J0D01*
G01*
X748138Y805834D02*
G03*
X748138Y805834I-2032J0D01*
G01*
X758915Y802242D02*
G03*
X758915Y802242I-2032J0D01*
G01*
X755322Y805834D02*
G03*
X755322Y805834I-2032J0D01*
G01*
X751730Y809426D02*
G03*
X751730Y809426I-2032J0D01*
G01*
X737362Y816610D02*
G03*
X737362Y816610I-2032J0D01*
G01*
X740954Y820202D02*
G03*
X740954Y820202I-2032J0D01*
G01*
X732872Y821100D02*
G03*
X732872Y821100I-2032J0D01*
G01*
X736464Y824692D02*
G03*
X736464Y824692I-2032J0D01*
G01*
X728382Y825590D02*
G03*
X728382Y825590I-2032J0D01*
G01*
X731974Y829182D02*
G03*
X731974Y829182I-2032J0D01*
G01*
X723892Y830080D02*
G03*
X723892Y830080I-2032J0D01*
G01*
X727484Y833672D02*
G03*
X727484Y833672I-2032J0D01*
G01*
X711672Y627770D02*
G03*
X711672Y627770I-2032J0D01*
G01*
X722672Y627770D02*
G03*
X722672Y627770I-2032J0D01*
G01*
X711672Y638770D02*
G03*
X711672Y638770I-2032J0D01*
G01*
X722672Y638770D02*
G03*
X722672Y638770I-2032J0D01*
G01*
X711672Y649770D02*
G03*
X711672Y649770I-2032J0D01*
G01*
X722672Y649770D02*
G03*
X722672Y649770I-2032J0D01*
G01*
X1088910Y899454D02*
G03*
X1088910Y899454I-2032J0D01*
G01*
X1130805Y878199D02*
G03*
X1130805Y878199I-2032J0D01*
G01*
X1103345Y921916D02*
G03*
X1103345Y921916I-2032J0D01*
G01*
X1123142Y910486D02*
G03*
X1123142Y910486I-2032J0D01*
G01*
X1133676Y905871D02*
G03*
X1133676Y905871I-2032J0D01*
G01*
X1149538Y895246D02*
G03*
X1149538Y895246I-2032J0D01*
G01*
X1101047Y871096D02*
G03*
X1101047Y871096I-2032J0D01*
G01*
X1170576Y839572D02*
G03*
X1170576Y839572I-2032J0D01*
G01*
X1196231Y800217D02*
G03*
X1196231Y800217I-2032J0D01*
G01*
X1194308Y851807D02*
G03*
X1194308Y851807I-2032J0D01*
G01*
X1205738Y832010D02*
G03*
X1205738Y832010I-2032J0D01*
G01*
X1212553Y822746D02*
G03*
X1212553Y822746I-2032J0D01*
G01*
X1220978Y805614D02*
G03*
X1220978Y805614I-2032J0D01*
G01*
X1166908Y808945D02*
G03*
X1166908Y808945I-2032J0D01*
G01*
X1016478Y906114D02*
G03*
X1016478Y906114I-2032J0D01*
G01*
X1057067Y941991D02*
G03*
X1057067Y941991I-2032J0D01*
G01*
X1043384Y920676D02*
G03*
X1043384Y920676I-2032J0D01*
G01*
X997415Y930364D02*
G03*
X997415Y930364I-2032J0D01*
G01*
X1005544Y955797D02*
G03*
X1005544Y955797I-2032J0D01*
G01*
X1027625Y949880D02*
G03*
X1027625Y949880I-2032J0D01*
G01*
X1038994Y948148D02*
G03*
X1038994Y948148I-2032J0D01*
G01*
X1138182Y795971D02*
G03*
X1138182Y795971I-2032J0D01*
G01*
X1142672Y791481D02*
G03*
X1142672Y791481I-2032J0D01*
G01*
X1147163Y786991D02*
G03*
X1147163Y786991I-2032J0D01*
G01*
X1151653Y782501D02*
G03*
X1151653Y782501I-2032J0D01*
G01*
X1156143Y778010D02*
G03*
X1156143Y778010I-2032J0D01*
G01*
X1151653Y773520D02*
G03*
X1151653Y773520I-2032J0D01*
G01*
X1147163Y778010D02*
G03*
X1147163Y778010I-2032J0D01*
G01*
X1142673Y782501D02*
G03*
X1142673Y782501I-2032J0D01*
G01*
X1138183Y786991D02*
G03*
X1138183Y786991I-2032J0D01*
G01*
X1133692Y791481D02*
G03*
X1133692Y791481I-2032J0D01*
G01*
X1147163Y769030D02*
G03*
X1147163Y769030I-2032J0D01*
G01*
X1142673Y773520D02*
G03*
X1142673Y773520I-2032J0D01*
G01*
X1138182Y778010D02*
G03*
X1138182Y778010I-2032J0D01*
G01*
X1133692Y782501D02*
G03*
X1133692Y782501I-2032J0D01*
G01*
X1129202Y786991D02*
G03*
X1129202Y786991I-2032J0D01*
G01*
X1142673Y764540D02*
G03*
X1142673Y764540I-2032J0D01*
G01*
X1138182Y769030D02*
G03*
X1138182Y769030I-2032J0D01*
G01*
X1133692Y773520D02*
G03*
X1133692Y773520I-2032J0D01*
G01*
X1129202Y778010D02*
G03*
X1129202Y778010I-2032J0D01*
G01*
X1124712Y782501D02*
G03*
X1124712Y782501I-2032J0D01*
G01*
X1138183Y760050D02*
G03*
X1138183Y760050I-2032J0D01*
G01*
X1133692Y764540D02*
G03*
X1133692Y764540I-2032J0D01*
G01*
X1129202Y769030D02*
G03*
X1129202Y769030I-2032J0D01*
G01*
X1124712Y773520D02*
G03*
X1124712Y773520I-2032J0D01*
G01*
X1120222Y778010D02*
G03*
X1120222Y778010I-2032J0D01*
G01*
X1133692Y755560D02*
G03*
X1133692Y755560I-2032J0D01*
G01*
X1129202Y760050D02*
G03*
X1129202Y760050I-2032J0D01*
G01*
X1120222Y769030D02*
G03*
X1120222Y769030I-2032J0D01*
G01*
X1115732Y773520D02*
G03*
X1115732Y773520I-2032J0D01*
G01*
X1129202Y751070D02*
G03*
X1129202Y751070I-2032J0D01*
G01*
X1124712Y755560D02*
G03*
X1124712Y755560I-2032J0D01*
G01*
X1120222Y760050D02*
G03*
X1120222Y760050I-2032J0D01*
G01*
X1115732Y764540D02*
G03*
X1115732Y764540I-2032J0D01*
G01*
X1111242Y769030D02*
G03*
X1111242Y769030I-2032J0D01*
G01*
X1124712Y746580D02*
G03*
X1124712Y746580I-2032J0D01*
G01*
X1120222Y751069D02*
G03*
X1120222Y751069I-2032J0D01*
G01*
X1115732Y755560D02*
G03*
X1115732Y755560I-2032J0D01*
G01*
X1111242Y760050D02*
G03*
X1111242Y760050I-2032J0D01*
G01*
X1106751Y764540D02*
G03*
X1106751Y764540I-2032J0D01*
G01*
X1120222Y742089D02*
G03*
X1120222Y742089I-2032J0D01*
G01*
X1115732Y746580D02*
G03*
X1115732Y746580I-2032J0D01*
G01*
X1111242Y751070D02*
G03*
X1111242Y751070I-2032J0D01*
G01*
X1106751Y755560D02*
G03*
X1106751Y755560I-2032J0D01*
G01*
X1102261Y760050D02*
G03*
X1102261Y760050I-2032J0D01*
G01*
X1115732Y737599D02*
G03*
X1115732Y737599I-2032J0D01*
G01*
X1111242Y742089D02*
G03*
X1111242Y742089I-2032J0D01*
G01*
X1106751Y746580D02*
G03*
X1106751Y746580I-2032J0D01*
G01*
X1102261Y751070D02*
G03*
X1102261Y751070I-2032J0D01*
G01*
X1097771Y755560D02*
G03*
X1097771Y755560I-2032J0D01*
G01*
X1093281Y751070D02*
G03*
X1093281Y751070I-2032J0D01*
G01*
X1097771Y746580D02*
G03*
X1097771Y746580I-2032J0D01*
G01*
X1102261Y742089D02*
G03*
X1102261Y742089I-2032J0D01*
G01*
X1106751Y737599D02*
G03*
X1106751Y737599I-2032J0D01*
G01*
X1111242Y733109D02*
G03*
X1111242Y733109I-2032J0D01*
G01*
X1087568Y522994D02*
G03*
X1087568Y522994I-2032J0D01*
G01*
X1082886Y527284D02*
G03*
X1082886Y527284I-2032J0D01*
G01*
X1078205Y531574D02*
G03*
X1078205Y531574I-2032J0D01*
G01*
X1073523Y535863D02*
G03*
X1073523Y535863I-2032J0D01*
G01*
X1068841Y540154D02*
G03*
X1068841Y540154I-2032J0D01*
G01*
X1073131Y544835D02*
G03*
X1073131Y544835I-2032J0D01*
G01*
X1077813Y540545D02*
G03*
X1077813Y540545I-2032J0D01*
G01*
X1082495Y536255D02*
G03*
X1082495Y536255I-2032J0D01*
G01*
X1087176Y531965D02*
G03*
X1087176Y531965I-2032J0D01*
G01*
X1091858Y527675D02*
G03*
X1091858Y527675I-2032J0D01*
G01*
X1077421Y549517D02*
G03*
X1077421Y549517I-2032J0D01*
G01*
X1082103Y545227D02*
G03*
X1082103Y545227I-2032J0D01*
G01*
X1086785Y540937D02*
G03*
X1086785Y540937I-2032J0D01*
G01*
X1091466Y536647D02*
G03*
X1091466Y536647I-2032J0D01*
G01*
X1096148Y532357D02*
G03*
X1096148Y532357I-2032J0D01*
G01*
X1081711Y554199D02*
G03*
X1081711Y554199I-2032J0D01*
G01*
X1086393Y549909D02*
G03*
X1086393Y549909I-2032J0D01*
G01*
X1091075Y545619D02*
G03*
X1091075Y545619I-2032J0D01*
G01*
X1095756Y541329D02*
G03*
X1095756Y541329I-2032J0D01*
G01*
X1100438Y537039D02*
G03*
X1100438Y537039I-2032J0D01*
G01*
X1086001Y558880D02*
G03*
X1086001Y558880I-2032J0D01*
G01*
X1090683Y554590D02*
G03*
X1090683Y554590I-2032J0D01*
G01*
X1095365Y550300D02*
G03*
X1095365Y550300I-2032J0D01*
G01*
X1100046Y546010D02*
G03*
X1100046Y546010I-2032J0D01*
G01*
X1104728Y541720D02*
G03*
X1104728Y541720I-2032J0D01*
G01*
X1090291Y563562D02*
G03*
X1090291Y563562I-2032J0D01*
G01*
X1094973Y559272D02*
G03*
X1094973Y559272I-2032J0D01*
G01*
X1104336Y550692D02*
G03*
X1104336Y550692I-2032J0D01*
G01*
X1109018Y546402D02*
G03*
X1109018Y546402I-2032J0D01*
G01*
X1094581Y568244D02*
G03*
X1094581Y568244I-2032J0D01*
G01*
X1099263Y563954D02*
G03*
X1099263Y563954I-2032J0D01*
G01*
X1103945Y559664D02*
G03*
X1103945Y559664I-2032J0D01*
G01*
X1108626Y555374D02*
G03*
X1108626Y555374I-2032J0D01*
G01*
X1113308Y551084D02*
G03*
X1113308Y551084I-2032J0D01*
G01*
X1098871Y572925D02*
G03*
X1098871Y572925I-2032J0D01*
G01*
X1103553Y568635D02*
G03*
X1103553Y568635I-2032J0D01*
G01*
X1108234Y564346D02*
G03*
X1108234Y564346I-2032J0D01*
G01*
X1112916Y560056D02*
G03*
X1112916Y560056I-2032J0D01*
G01*
X1117598Y555765D02*
G03*
X1117598Y555765I-2032J0D01*
G01*
X1103161Y577607D02*
G03*
X1103161Y577607I-2032J0D01*
G01*
X1107843Y573317D02*
G03*
X1107843Y573317I-2032J0D01*
G01*
X1112524Y569027D02*
G03*
X1112524Y569027I-2032J0D01*
G01*
X1117206Y564737D02*
G03*
X1117206Y564737I-2032J0D01*
G01*
X1121888Y560447D02*
G03*
X1121888Y560447I-2032J0D01*
G01*
X1107451Y582289D02*
G03*
X1107451Y582289I-2032J0D01*
G01*
X1112133Y577999D02*
G03*
X1112133Y577999I-2032J0D01*
G01*
X1116814Y573709D02*
G03*
X1116814Y573709I-2032J0D01*
G01*
X1121496Y569419D02*
G03*
X1121496Y569419I-2032J0D01*
G01*
X1126178Y565129D02*
G03*
X1126178Y565129I-2032J0D01*
G01*
X1130468Y569811D02*
G03*
X1130468Y569811I-2032J0D01*
G01*
X1125786Y574101D02*
G03*
X1125786Y574101I-2032J0D01*
G01*
X1121105Y578391D02*
G03*
X1121105Y578391I-2032J0D01*
G01*
X1116423Y582681D02*
G03*
X1116423Y582681I-2032J0D01*
G01*
X1111741Y586971D02*
G03*
X1111741Y586971I-2032J0D01*
G01*
X854702Y495619D02*
G03*
X854702Y495619I-2032J0D01*
G01*
X850212Y500109D02*
G03*
X850212Y500109I-2032J0D01*
G01*
X845722Y504599D02*
G03*
X845722Y504599I-2032J0D01*
G01*
X841231Y509090D02*
G03*
X841231Y509090I-2032J0D01*
G01*
X836741Y513580D02*
G03*
X836741Y513580I-2032J0D01*
G01*
X841231Y518070D02*
G03*
X841231Y518070I-2032J0D01*
G01*
X845721Y513580D02*
G03*
X845721Y513580I-2032J0D01*
G01*
X850212Y509090D02*
G03*
X850212Y509090I-2032J0D01*
G01*
X854702Y504599D02*
G03*
X854702Y504599I-2032J0D01*
G01*
X859192Y500109D02*
G03*
X859192Y500109I-2032J0D01*
G01*
X845721Y522560D02*
G03*
X845721Y522560I-2032J0D01*
G01*
X850211Y518070D02*
G03*
X850211Y518070I-2032J0D01*
G01*
X854702Y513580D02*
G03*
X854702Y513580I-2032J0D01*
G01*
X859192Y509089D02*
G03*
X859192Y509089I-2032J0D01*
G01*
X863682Y504599D02*
G03*
X863682Y504599I-2032J0D01*
G01*
X850211Y527050D02*
G03*
X850211Y527050I-2032J0D01*
G01*
X854702Y522560D02*
G03*
X854702Y522560I-2032J0D01*
G01*
X859192Y518070D02*
G03*
X859192Y518070I-2032J0D01*
G01*
X863682Y513579D02*
G03*
X863682Y513579I-2032J0D01*
G01*
X868172Y509090D02*
G03*
X868172Y509090I-2032J0D01*
G01*
X854701Y531540D02*
G03*
X854701Y531540I-2032J0D01*
G01*
X859192Y527050D02*
G03*
X859192Y527050I-2032J0D01*
G01*
X863682Y522560D02*
G03*
X863682Y522560I-2032J0D01*
G01*
X868172Y518070D02*
G03*
X868172Y518070I-2032J0D01*
G01*
X872662Y513580D02*
G03*
X872662Y513580I-2032J0D01*
G01*
X859192Y536030D02*
G03*
X859192Y536030I-2032J0D01*
G01*
X863682Y531540D02*
G03*
X863682Y531540I-2032J0D01*
G01*
X872662Y522560D02*
G03*
X872662Y522560I-2032J0D01*
G01*
X877152Y518070D02*
G03*
X877152Y518070I-2032J0D01*
G01*
X863682Y540520D02*
G03*
X863682Y540520I-2032J0D01*
G01*
X868172Y536030D02*
G03*
X868172Y536030I-2032J0D01*
G01*
X872662Y531540D02*
G03*
X872662Y531540I-2032J0D01*
G01*
X877152Y527050D02*
G03*
X877152Y527050I-2032J0D01*
G01*
X881643Y522560D02*
G03*
X881643Y522560I-2032J0D01*
G01*
X868172Y545010D02*
G03*
X868172Y545010I-2032J0D01*
G01*
X872662Y540521D02*
G03*
X872662Y540521I-2032J0D01*
G01*
X877152Y536030D02*
G03*
X877152Y536030I-2032J0D01*
G01*
X881642Y531540D02*
G03*
X881642Y531540I-2032J0D01*
G01*
X886133Y527050D02*
G03*
X886133Y527050I-2032J0D01*
G01*
X872662Y549501D02*
G03*
X872662Y549501I-2032J0D01*
G01*
X877152Y545011D02*
G03*
X877152Y545011I-2032J0D01*
G01*
X881643Y540520D02*
G03*
X881643Y540520I-2032J0D01*
G01*
X886133Y536030D02*
G03*
X886133Y536030I-2032J0D01*
G01*
X890623Y531540D02*
G03*
X890623Y531540I-2032J0D01*
G01*
X877152Y553991D02*
G03*
X877152Y553991I-2032J0D01*
G01*
X881642Y549501D02*
G03*
X881642Y549501I-2032J0D01*
G01*
X886133Y545010D02*
G03*
X886133Y545010I-2032J0D01*
G01*
X890623Y540520D02*
G03*
X890623Y540520I-2032J0D01*
G01*
X895113Y536030D02*
G03*
X895113Y536030I-2032J0D01*
G01*
X899603Y540520D02*
G03*
X899603Y540520I-2032J0D01*
G01*
X895113Y545010D02*
G03*
X895113Y545010I-2032J0D01*
G01*
X890622Y549501D02*
G03*
X890622Y549501I-2032J0D01*
G01*
X886132Y553991D02*
G03*
X886132Y553991I-2032J0D01*
G01*
X881642Y558481D02*
G03*
X881642Y558481I-2032J0D01*
G01*
X1102803Y820920D02*
G03*
X1102803Y820920I-2032J0D01*
G01*
X1098313Y816430D02*
G03*
X1098313Y816430I-2032J0D01*
G01*
X1093823Y811939D02*
G03*
X1093823Y811939I-2032J0D01*
G01*
X1089332Y807449D02*
G03*
X1089332Y807449I-2032J0D01*
G01*
X1084842Y802959D02*
G03*
X1084842Y802959I-2032J0D01*
G01*
X1080352Y807449D02*
G03*
X1080352Y807449I-2032J0D01*
G01*
X1084842Y811939D02*
G03*
X1084842Y811939I-2032J0D01*
G01*
X1089333Y816430D02*
G03*
X1089333Y816430I-2032J0D01*
G01*
X1093823Y820920D02*
G03*
X1093823Y820920I-2032J0D01*
G01*
X1098313Y825410D02*
G03*
X1098313Y825410I-2032J0D01*
G01*
X1075862Y811939D02*
G03*
X1075862Y811939I-2032J0D01*
G01*
X1080352Y816430D02*
G03*
X1080352Y816430I-2032J0D01*
G01*
X1084843Y820920D02*
G03*
X1084843Y820920I-2032J0D01*
G01*
X1089333Y825410D02*
G03*
X1089333Y825410I-2032J0D01*
G01*
X1093823Y829900D02*
G03*
X1093823Y829900I-2032J0D01*
G01*
X1071372Y816430D02*
G03*
X1071372Y816430I-2032J0D01*
G01*
X1075862Y820920D02*
G03*
X1075862Y820920I-2032J0D01*
G01*
X1080352Y825410D02*
G03*
X1080352Y825410I-2032J0D01*
G01*
X1084842Y829900D02*
G03*
X1084842Y829900I-2032J0D01*
G01*
X1089332Y834390D02*
G03*
X1089332Y834390I-2032J0D01*
G01*
X1066882Y820920D02*
G03*
X1066882Y820920I-2032J0D01*
G01*
X1071372Y825410D02*
G03*
X1071372Y825410I-2032J0D01*
G01*
X1075862Y829900D02*
G03*
X1075862Y829900I-2032J0D01*
G01*
X1080352Y834390D02*
G03*
X1080352Y834390I-2032J0D01*
G01*
X1084842Y838880D02*
G03*
X1084842Y838880I-2032J0D01*
G01*
X1062392Y825410D02*
G03*
X1062392Y825410I-2032J0D01*
G01*
X1066882Y829900D02*
G03*
X1066882Y829900I-2032J0D01*
G01*
X1075862Y838880D02*
G03*
X1075862Y838880I-2032J0D01*
G01*
X1080352Y843370D02*
G03*
X1080352Y843370I-2032J0D01*
G01*
X1057902Y829900D02*
G03*
X1057902Y829900I-2032J0D01*
G01*
X1062392Y834390D02*
G03*
X1062392Y834390I-2032J0D01*
G01*
X1066882Y838880D02*
G03*
X1066882Y838880I-2032J0D01*
G01*
X1071372Y843370D02*
G03*
X1071372Y843370I-2032J0D01*
G01*
X1075862Y847860D02*
G03*
X1075862Y847860I-2032J0D01*
G01*
X1053412Y834390D02*
G03*
X1053412Y834390I-2032J0D01*
G01*
X1057902Y838880D02*
G03*
X1057902Y838880I-2032J0D01*
G01*
X1062392Y843370D02*
G03*
X1062392Y843370I-2032J0D01*
G01*
X1066882Y847860D02*
G03*
X1066882Y847860I-2032J0D01*
G01*
X1071372Y852350D02*
G03*
X1071372Y852350I-2032J0D01*
G01*
X1048921Y838880D02*
G03*
X1048921Y838880I-2032J0D01*
G01*
X1053411Y843370D02*
G03*
X1053411Y843370I-2032J0D01*
G01*
X1057902Y847860D02*
G03*
X1057902Y847860I-2032J0D01*
G01*
X1062392Y852350D02*
G03*
X1062392Y852350I-2032J0D01*
G01*
X1066882Y856841D02*
G03*
X1066882Y856841I-2032J0D01*
G01*
X1044431Y843370D02*
G03*
X1044431Y843370I-2032J0D01*
G01*
X1048921Y847860D02*
G03*
X1048921Y847860I-2032J0D01*
G01*
X1053411Y852350D02*
G03*
X1053411Y852350I-2032J0D01*
G01*
X1057902Y856841D02*
G03*
X1057902Y856841I-2032J0D01*
G01*
X1062392Y861331D02*
G03*
X1062392Y861331I-2032J0D01*
G01*
X1057902Y865821D02*
G03*
X1057902Y865821I-2032J0D01*
G01*
X1053412Y861331D02*
G03*
X1053412Y861331I-2032J0D01*
G01*
X1048921Y856841D02*
G03*
X1048921Y856841I-2032J0D01*
G01*
X1044431Y852350D02*
G03*
X1044431Y852350I-2032J0D01*
G01*
X1039941Y847860D02*
G03*
X1039941Y847860I-2032J0D01*
G01*
X814513Y484370D02*
G03*
X814513Y484370I-2032J0D01*
G01*
X810023Y479879D02*
G03*
X810023Y479879I-2032J0D01*
G01*
X805533Y475389D02*
G03*
X805533Y475389I-2032J0D01*
G01*
X801042Y470899D02*
G03*
X801042Y470899I-2032J0D01*
G01*
X796552Y466409D02*
G03*
X796552Y466409I-2032J0D01*
G01*
X792062Y470899D02*
G03*
X792062Y470899I-2032J0D01*
G01*
X796552Y475389D02*
G03*
X796552Y475389I-2032J0D01*
G01*
X801043Y479879D02*
G03*
X801043Y479879I-2032J0D01*
G01*
X805533Y484370D02*
G03*
X805533Y484370I-2032J0D01*
G01*
X810023Y488860D02*
G03*
X810023Y488860I-2032J0D01*
G01*
X787572Y475389D02*
G03*
X787572Y475389I-2032J0D01*
G01*
X792062Y479879D02*
G03*
X792062Y479879I-2032J0D01*
G01*
X796552Y484370D02*
G03*
X796552Y484370I-2032J0D01*
G01*
X801043Y488860D02*
G03*
X801043Y488860I-2032J0D01*
G01*
X805533Y493350D02*
G03*
X805533Y493350I-2032J0D01*
G01*
X783082Y479879D02*
G03*
X783082Y479879I-2032J0D01*
G01*
X787572Y484370D02*
G03*
X787572Y484370I-2032J0D01*
G01*
X792062Y488860D02*
G03*
X792062Y488860I-2032J0D01*
G01*
X796552Y493350D02*
G03*
X796552Y493350I-2032J0D01*
G01*
X801042Y497840D02*
G03*
X801042Y497840I-2032J0D01*
G01*
X778592Y484370D02*
G03*
X778592Y484370I-2032J0D01*
G01*
X783082Y488860D02*
G03*
X783082Y488860I-2032J0D01*
G01*
X787572Y493350D02*
G03*
X787572Y493350I-2032J0D01*
G01*
X792062Y497840D02*
G03*
X792062Y497840I-2032J0D01*
G01*
X796552Y502330D02*
G03*
X796552Y502330I-2032J0D01*
G01*
X774102Y488860D02*
G03*
X774102Y488860I-2032J0D01*
G01*
X778592Y493350D02*
G03*
X778592Y493350I-2032J0D01*
G01*
X787572Y502330D02*
G03*
X787572Y502330I-2032J0D01*
G01*
X792062Y506820D02*
G03*
X792062Y506820I-2032J0D01*
G01*
X769612Y493350D02*
G03*
X769612Y493350I-2032J0D01*
G01*
X774102Y497840D02*
G03*
X774102Y497840I-2032J0D01*
G01*
X778592Y502330D02*
G03*
X778592Y502330I-2032J0D01*
G01*
X783082Y506820D02*
G03*
X783082Y506820I-2032J0D01*
G01*
X787572Y511310D02*
G03*
X787572Y511310I-2032J0D01*
G01*
X765122Y497840D02*
G03*
X765122Y497840I-2032J0D01*
G01*
X769612Y502330D02*
G03*
X769612Y502330I-2032J0D01*
G01*
X774102Y506820D02*
G03*
X774102Y506820I-2032J0D01*
G01*
X778592Y511310D02*
G03*
X778592Y511310I-2032J0D01*
G01*
X783082Y515801D02*
G03*
X783082Y515801I-2032J0D01*
G01*
X760631Y502330D02*
G03*
X760631Y502330I-2032J0D01*
G01*
X765121Y506820D02*
G03*
X765121Y506820I-2032J0D01*
G01*
X769612Y511310D02*
G03*
X769612Y511310I-2032J0D01*
G01*
X774102Y515801D02*
G03*
X774102Y515801I-2032J0D01*
G01*
X778592Y520291D02*
G03*
X778592Y520291I-2032J0D01*
G01*
X756141Y506820D02*
G03*
X756141Y506820I-2032J0D01*
G01*
X760631Y511310D02*
G03*
X760631Y511310I-2032J0D01*
G01*
X765121Y515801D02*
G03*
X765121Y515801I-2032J0D01*
G01*
X769612Y520291D02*
G03*
X769612Y520291I-2032J0D01*
G01*
X774102Y524781D02*
G03*
X774102Y524781I-2032J0D01*
G01*
X769612Y529271D02*
G03*
X769612Y529271I-2032J0D01*
G01*
X765122Y524781D02*
G03*
X765122Y524781I-2032J0D01*
G01*
X760631Y520291D02*
G03*
X760631Y520291I-2032J0D01*
G01*
X756141Y515801D02*
G03*
X756141Y515801I-2032J0D01*
G01*
X751651Y511310D02*
G03*
X751651Y511310I-2032J0D01*
G01*
X755322Y798650D02*
G03*
X755322Y798650I-2032J0D01*
G01*
X762507Y798650D02*
G03*
X762507Y798650I-2032J0D01*
G01*
X762507Y791465D02*
G03*
X762507Y791465I-2032J0D01*
G01*
X758915Y795057D02*
G03*
X758915Y795057I-2032J0D01*
G01*
X766099D02*
G03*
X766099Y795057I-2032J0D01*
G01*
X922782Y928370D02*
G03*
X922782Y928370I-2032J0D01*
G01*
X918972Y944880D02*
G03*
X918972Y944880I-2032J0D01*
G01*
X925322Y943610D02*
G03*
X925322Y943610I-2032J0D01*
G01*
X940562Y934720D02*
G03*
X940562Y934720I-2032J0D01*
G01*
X948182Y930910D02*
G03*
X948182Y930910I-2032J0D01*
G01*
X934212Y916940D02*
G03*
X934212Y916940I-2032J0D01*
G01*
X767842Y642620D02*
G03*
X767842Y642620I-2032J0D01*
G01*
Y637540D02*
G03*
X767842Y637540I-2032J0D01*
G01*
Y632460D02*
G03*
X767842Y632460I-2032J0D01*
G01*
X762762D02*
G03*
X762762Y632460I-2032J0D01*
G01*
X747522Y632460D02*
G03*
X747522Y632460I-2032J0D01*
G01*
X747522Y637540D02*
G03*
X747522Y637540I-2032J0D01*
G01*
M02*
