M48
;Layer_Color=9474304
;FILE_FORMAT=4:4
METRIC,LZ
;TYPE=PLATED
T1F00S00C0.1000
%
T01
X01200961Y00547297
X01198651Y00589051
X0121539Y0057912
X012319Y0066675
X0120777Y0068834
X0121793Y0076454
X0107823Y0074168
X0097663Y00731497
X00950258Y00726738
X0094361Y0066929
X0094615Y0066548
X009652Y0067056
X0086741Y0062103
X0085344
X0082804Y0056896
X00829996Y0073533
X00833486Y00745911
X0082997Y00749447
X00826435Y0075283
X00822899Y00756518
X0081717Y00757536
X00819364Y00760053
X00797175Y0073881
X0084074Y0072898
X00860023
X00870244Y0073406
X0086741Y00745595
X00870629Y00749447
X00874165Y00752982
X008777Y00756518
X00881236Y00760053
X00884771Y00762973
X00897441Y0075799
X0090805Y0076581
X00794634Y00790773
X00889Y0042418
X0091059Y0043942
X009779Y0041021
X0102489Y0041656
X0102362Y0042799
X0104775Y0041783
X0107188Y004318
X010668Y004445
X0114554Y0047625
X0114046Y0050165
X01070666Y00579064
X0078105Y0072771
X0075438Y0073009
Y0072517
X0071247Y0072644
X006958Y0075676
X00684246Y0075565
X00684276Y00759714
X0066697Y0075968
X0066421Y0075565
Y0074803
X0066675Y0074422
X0065606Y0074348
Y0074768
X00786845Y00869352
X00824288Y0086741
X00846704Y0086073
X00851225Y00857217
X00854324Y0086454
X00859895Y00879668
X00862724Y00876839
X00865552Y00874011
X00871024
X00868755Y00871182
X00868381Y00876839
X00874037
X00876564Y0087376
X00871209Y00879668
X00874037Y00882496
X00876866Y00885324
X00879694Y00888153
X00882493Y00890981
X00876866
X00871209Y00896638
X00862724Y00899467
X00876866Y00907952
X00882523Y00907952
X00885351Y0091078
X00882523Y00913609
X00879694Y00916437
X00888179Y00919266
X00893836Y00919266
X00890949Y00916089
X0089662Y0090551
X00902708
X0090551Y0090805
X00902322Y0091078
X0090515Y00902295
X00907978Y00899467
X00902321
X00899493Y00896638
X0089408Y0089662
X00896665Y0089381
X00888179Y00885324
X00885351Y00876839
X00888179Y00874011
Y00868354
Y00862697
X00885351Y00859869
X00882523Y00862697
X00882523Y00868354
X00893836
X00896665Y00871182
X0090515Y00879668
X00913635Y0089381
X0091948Y0091821
X0093091Y0092456
X0092012Y009652
X00953849Y00885324
X00941864Y0087207
X0092583Y0083947
X0092456Y0083439
X0092517Y00817824
X0091755Y00810204
X0090297Y0080899
X00887847Y00807663
X0091059Y0082931
X0083666Y00832914
X00839736Y00836965
X00826385Y008366
X00820495Y00835502
X00824087Y00824725
X00822899Y00818729
X00817495Y0081628
X00794346Y00811488
X0097663Y0090551
M30
