G04 Layer_Color=16711935*
%FSLAX44Y44*%
%MOMM*%
G71*
G01*
G75*
G04:AMPARAMS|DCode=17|XSize=0.32mm|YSize=0.36mm|CornerRadius=0.08mm|HoleSize=0mm|Usage=FLASHONLY|Rotation=180.000|XOffset=0mm|YOffset=0mm|HoleType=Round|Shape=RoundedRectangle|*
%AMROUNDEDRECTD17*
21,1,0.3200,0.2000,0,0,180.0*
21,1,0.1600,0.3600,0,0,180.0*
1,1,0.1600,-0.0800,0.1000*
1,1,0.1600,0.0800,0.1000*
1,1,0.1600,0.0800,-0.1000*
1,1,0.1600,-0.0800,-0.1000*
%
%ADD17ROUNDEDRECTD17*%
G04:AMPARAMS|DCode=34|XSize=0.32mm|YSize=0.36mm|CornerRadius=0.08mm|HoleSize=0mm|Usage=FLASHONLY|Rotation=135.000|XOffset=0mm|YOffset=0mm|HoleType=Round|Shape=RoundedRectangle|*
%AMROUNDEDRECTD34*
21,1,0.3200,0.2000,0,0,135.0*
21,1,0.1600,0.3600,0,0,135.0*
1,1,0.1600,0.0141,0.1273*
1,1,0.1600,0.1273,0.0141*
1,1,0.1600,-0.0141,-0.1273*
1,1,0.1600,-0.1273,-0.0141*
%
%ADD34ROUNDEDRECTD34*%
G04:AMPARAMS|DCode=35|XSize=0.32mm|YSize=0.36mm|CornerRadius=0.08mm|HoleSize=0mm|Usage=FLASHONLY|Rotation=45.000|XOffset=0mm|YOffset=0mm|HoleType=Round|Shape=RoundedRectangle|*
%AMROUNDEDRECTD35*
21,1,0.3200,0.2000,0,0,45.0*
21,1,0.1600,0.3600,0,0,45.0*
1,1,0.1600,0.1273,-0.0141*
1,1,0.1600,0.0141,-0.1273*
1,1,0.1600,-0.1273,0.0141*
1,1,0.1600,-0.0141,0.1273*
%
%ADD35ROUNDEDRECTD35*%
G04:AMPARAMS|DCode=38|XSize=0.6096mm|YSize=0.9144mm|CornerRadius=0.1524mm|HoleSize=0mm|Usage=FLASHONLY|Rotation=90.000|XOffset=0mm|YOffset=0mm|HoleType=Round|Shape=RoundedRectangle|*
%AMROUNDEDRECTD38*
21,1,0.6096,0.6096,0,0,90.0*
21,1,0.3048,0.9144,0,0,90.0*
1,1,0.3048,0.3048,0.1524*
1,1,0.3048,0.3048,-0.1524*
1,1,0.3048,-0.3048,-0.1524*
1,1,0.3048,-0.3048,0.1524*
%
%ADD38ROUNDEDRECTD38*%
G04:AMPARAMS|DCode=72|XSize=0.508mm|YSize=0.6096mm|CornerRadius=0.127mm|HoleSize=0mm|Usage=FLASHONLY|Rotation=180.000|XOffset=0mm|YOffset=0mm|HoleType=Round|Shape=RoundedRectangle|*
%AMROUNDEDRECTD72*
21,1,0.5080,0.3556,0,0,180.0*
21,1,0.2540,0.6096,0,0,180.0*
1,1,0.2540,-0.1270,0.1778*
1,1,0.2540,0.1270,0.1778*
1,1,0.2540,0.1270,-0.1778*
1,1,0.2540,-0.1270,-0.1778*
%
%ADD72ROUNDEDRECTD72*%
G04:AMPARAMS|DCode=111|XSize=0.508mm|YSize=0.6096mm|CornerRadius=0.127mm|HoleSize=0mm|Usage=FLASHONLY|Rotation=90.000|XOffset=0mm|YOffset=0mm|HoleType=Round|Shape=RoundedRectangle|*
%AMROUNDEDRECTD111*
21,1,0.5080,0.3556,0,0,90.0*
21,1,0.2540,0.6096,0,0,90.0*
1,1,0.2540,0.1778,0.1270*
1,1,0.2540,0.1778,-0.1270*
1,1,0.2540,-0.1778,-0.1270*
1,1,0.2540,-0.1778,0.1270*
%
%ADD111ROUNDEDRECTD111*%
%ADD163R,0.7112X0.8128*%
G04:AMPARAMS|DCode=186|XSize=4.0532mm|YSize=4.7232mm|CornerRadius=0mm|HoleSize=0mm|Usage=FLASHONLY|Rotation=194.898|XOffset=0mm|YOffset=0mm|HoleType=Round|Shape=Rectangle|*
%AMROTATEDRECTD186*
4,1,4,1.3513,2.8033,2.5656,-1.7612,-1.3513,-2.8033,-2.5656,1.7612,1.3513,2.8033,0.0*
%
%ADD186ROTATEDRECTD186*%

G04:AMPARAMS|DCode=210|XSize=4.0532mm|YSize=4.7232mm|CornerRadius=0mm|HoleSize=0mm|Usage=FLASHONLY|Rotation=87.500|XOffset=0mm|YOffset=0mm|HoleType=Round|Shape=Rectangle|*
%AMROTATEDRECTD210*
4,1,4,2.2710,-2.1277,-2.4478,-1.9217,-2.2710,2.1277,2.4478,1.9217,2.2710,-2.1277,0.0*
%
%ADD210ROTATEDRECTD210*%

G04:AMPARAMS|DCode=211|XSize=0.9132mm|YSize=1.5732mm|CornerRadius=0mm|HoleSize=0mm|Usage=FLASHONLY|Rotation=177.500|XOffset=0mm|YOffset=0mm|HoleType=Round|Shape=Rectangle|*
%AMROTATEDRECTD211*
4,1,4,0.4905,0.7659,0.4219,-0.8058,-0.4905,-0.7659,-0.4219,0.8058,0.4905,0.7659,0.0*
%
%ADD211ROTATEDRECTD211*%

G04:AMPARAMS|DCode=214|XSize=4.0532mm|YSize=4.7232mm|CornerRadius=0mm|HoleSize=0mm|Usage=FLASHONLY|Rotation=174.830|XOffset=0mm|YOffset=0mm|HoleType=Round|Shape=Rectangle|*
%AMROTATEDRECTD214*
4,1,4,2.2312,2.1694,1.8055,-2.5346,-2.2312,-2.1694,-1.8055,2.5346,2.2312,2.1694,0.0*
%
%ADD214ROTATEDRECTD214*%

G04:AMPARAMS|DCode=216|XSize=4.0532mm|YSize=4.7232mm|CornerRadius=0mm|HoleSize=0mm|Usage=FLASHONLY|Rotation=67.602|XOffset=0mm|YOffset=0mm|HoleType=Round|Shape=Rectangle|*
%AMROTATEDRECTD216*
4,1,4,1.4112,-2.7736,-2.9556,-0.9738,-1.4112,2.7736,2.9556,0.9738,1.4112,-2.7736,0.0*
%
%ADD216ROTATEDRECTD216*%

%ADD218C,4.5032*%
G04:AMPARAMS|DCode=222|XSize=1.1176mm|YSize=1.8034mm|CornerRadius=0mm|HoleSize=0mm|Usage=FLASHONLY|Rotation=134.998|XOffset=0mm|YOffset=0mm|HoleType=Round|Shape=Rectangle|*
%AMROTATEDRECTD222*
4,1,4,1.0327,0.2424,-0.2425,-1.0327,-1.0327,-0.2424,0.2425,1.0327,1.0327,0.2424,0.0*
%
%ADD222ROTATEDRECTD222*%

G04:AMPARAMS|DCode=223|XSize=0.7032mm|YSize=0.8032mm|CornerRadius=0mm|HoleSize=0mm|Usage=FLASHONLY|Rotation=135.000|XOffset=0mm|YOffset=0mm|HoleType=Round|Shape=Rectangle|*
%AMROTATEDRECTD223*
4,1,4,0.5326,0.0353,-0.0353,-0.5326,-0.5326,-0.0353,0.0353,0.5326,0.5326,0.0353,0.0*
%
%ADD223ROTATEDRECTD223*%

%ADD224P,0.8530X4X360.0*%
G04:AMPARAMS|DCode=225|XSize=0.7532mm|YSize=0.8032mm|CornerRadius=0mm|HoleSize=0mm|Usage=FLASHONLY|Rotation=315.000|XOffset=0mm|YOffset=0mm|HoleType=Round|Shape=Rectangle|*
%AMROTATEDRECTD225*
4,1,4,-0.5503,-0.0177,0.0177,0.5503,0.5503,0.0177,-0.0177,-0.5503,-0.5503,-0.0177,0.0*
%
%ADD225ROTATEDRECTD225*%

G04:AMPARAMS|DCode=226|XSize=2.8032mm|YSize=1.3032mm|CornerRadius=0mm|HoleSize=0mm|Usage=FLASHONLY|Rotation=315.000|XOffset=0mm|YOffset=0mm|HoleType=Round|Shape=Rectangle|*
%AMROTATEDRECTD226*
4,1,4,-1.4518,0.5303,-0.5303,1.4518,1.4518,-0.5303,0.5303,-1.4518,-1.4518,0.5303,0.0*
%
%ADD226ROTATEDRECTD226*%

%ADD227O,0.9032X0.4532*%
%ADD228O,0.4532X0.9032*%
%ADD229R,2.8032X3.8032*%
%ADD230R,1.6032X5.4032*%
G04:AMPARAMS|DCode=231|XSize=0.5032mm|YSize=1.0532mm|CornerRadius=0mm|HoleSize=0mm|Usage=FLASHONLY|Rotation=330.000|XOffset=0mm|YOffset=0mm|HoleType=Round|Shape=Rectangle|*
%AMROTATEDRECTD231*
4,1,4,-0.4812,-0.3302,0.0454,0.5818,0.4812,0.3302,-0.0454,-0.5818,-0.4812,-0.3302,0.0*
%
%ADD231ROTATEDRECTD231*%

G04:AMPARAMS|DCode=232|XSize=2.2032mm|YSize=1.3032mm|CornerRadius=0.3766mm|HoleSize=0mm|Usage=FLASHONLY|Rotation=330.000|XOffset=0mm|YOffset=0mm|HoleType=Round|Shape=RoundedRectangle|*
%AMROUNDEDRECTD232*
21,1,2.2032,0.5500,0,0,330.0*
21,1,1.4500,1.3032,0,0,330.0*
1,1,0.7532,0.4904,-0.6007*
1,1,0.7532,-0.7654,0.1243*
1,1,0.7532,-0.4904,0.6007*
1,1,0.7532,0.7654,-0.1243*
%
%ADD232ROUNDEDRECTD232*%
G04:AMPARAMS|DCode=233|XSize=0.7112mm|YSize=0.8128mm|CornerRadius=0mm|HoleSize=0mm|Usage=FLASHONLY|Rotation=330.000|XOffset=0mm|YOffset=0mm|HoleType=Round|Shape=Rectangle|*
%AMROTATEDRECTD233*
4,1,4,-0.5112,-0.1741,-0.1048,0.5298,0.5112,0.1741,0.1048,-0.5298,-0.5112,-0.1741,0.0*
%
%ADD233ROTATEDRECTD233*%

G04:AMPARAMS|DCode=234|XSize=0.7112mm|YSize=0.8128mm|CornerRadius=0mm|HoleSize=0mm|Usage=FLASHONLY|Rotation=240.000|XOffset=0mm|YOffset=0mm|HoleType=Round|Shape=Rectangle|*
%AMROTATEDRECTD234*
4,1,4,-0.1741,0.5112,0.5298,0.1048,0.1741,-0.5112,-0.5298,-0.1048,-0.1741,0.5112,0.0*
%
%ADD234ROTATEDRECTD234*%

G04:AMPARAMS|DCode=235|XSize=0.7032mm|YSize=0.8032mm|CornerRadius=0mm|HoleSize=0mm|Usage=FLASHONLY|Rotation=330.000|XOffset=0mm|YOffset=0mm|HoleType=Round|Shape=Rectangle|*
%AMROTATEDRECTD235*
4,1,4,-0.5053,-0.1720,-0.1037,0.5236,0.5053,0.1720,0.1037,-0.5236,-0.5053,-0.1720,0.0*
%
%ADD235ROTATEDRECTD235*%

G04:AMPARAMS|DCode=236|XSize=0.5032mm|YSize=1.0532mm|CornerRadius=0mm|HoleSize=0mm|Usage=FLASHONLY|Rotation=300.000|XOffset=0mm|YOffset=0mm|HoleType=Round|Shape=Rectangle|*
%AMROTATEDRECTD236*
4,1,4,-0.5818,-0.0454,0.3302,0.4812,0.5818,0.0454,-0.3302,-0.4812,-0.5818,-0.0454,0.0*
%
%ADD236ROTATEDRECTD236*%

G04:AMPARAMS|DCode=237|XSize=2.2032mm|YSize=1.3032mm|CornerRadius=0.3766mm|HoleSize=0mm|Usage=FLASHONLY|Rotation=300.000|XOffset=0mm|YOffset=0mm|HoleType=Round|Shape=RoundedRectangle|*
%AMROUNDEDRECTD237*
21,1,2.2032,0.5500,0,0,300.0*
21,1,1.4500,1.3032,0,0,300.0*
1,1,0.7532,0.1243,-0.7654*
1,1,0.7532,-0.6007,0.4904*
1,1,0.7532,-0.1243,0.7654*
1,1,0.7532,0.6007,-0.4904*
%
%ADD237ROUNDEDRECTD237*%
G04:AMPARAMS|DCode=238|XSize=0.7112mm|YSize=0.8128mm|CornerRadius=0mm|HoleSize=0mm|Usage=FLASHONLY|Rotation=300.000|XOffset=0mm|YOffset=0mm|HoleType=Round|Shape=Rectangle|*
%AMROTATEDRECTD238*
4,1,4,-0.5298,0.1048,0.1741,0.5112,0.5298,-0.1048,-0.1741,-0.5112,-0.5298,0.1048,0.0*
%
%ADD238ROTATEDRECTD238*%

G04:AMPARAMS|DCode=239|XSize=0.7112mm|YSize=0.8128mm|CornerRadius=0mm|HoleSize=0mm|Usage=FLASHONLY|Rotation=210.000|XOffset=0mm|YOffset=0mm|HoleType=Round|Shape=Rectangle|*
%AMROTATEDRECTD239*
4,1,4,0.1048,0.5298,0.5112,-0.1741,-0.1048,-0.5298,-0.5112,0.1741,0.1048,0.5298,0.0*
%
%ADD239ROTATEDRECTD239*%

G04:AMPARAMS|DCode=240|XSize=0.7032mm|YSize=0.8032mm|CornerRadius=0mm|HoleSize=0mm|Usage=FLASHONLY|Rotation=300.000|XOffset=0mm|YOffset=0mm|HoleType=Round|Shape=Rectangle|*
%AMROTATEDRECTD240*
4,1,4,-0.5236,0.1037,0.1720,0.5053,0.5236,-0.1037,-0.1720,-0.5053,-0.5236,0.1037,0.0*
%
%ADD240ROTATEDRECTD240*%

G04:AMPARAMS|DCode=241|XSize=0.7112mm|YSize=0.8128mm|CornerRadius=0mm|HoleSize=0mm|Usage=FLASHONLY|Rotation=255.000|XOffset=0mm|YOffset=0mm|HoleType=Round|Shape=Rectangle|*
%AMROTATEDRECTD241*
4,1,4,-0.3005,0.4487,0.4846,0.2383,0.3005,-0.4487,-0.4846,-0.2383,-0.3005,0.4487,0.0*
%
%ADD241ROTATEDRECTD241*%

G04:AMPARAMS|DCode=242|XSize=0.7112mm|YSize=0.8128mm|CornerRadius=0mm|HoleSize=0mm|Usage=FLASHONLY|Rotation=345.000|XOffset=0mm|YOffset=0mm|HoleType=Round|Shape=Rectangle|*
%AMROTATEDRECTD242*
4,1,4,-0.4487,-0.3005,-0.2383,0.4846,0.4487,0.3005,0.2383,-0.4846,-0.4487,-0.3005,0.0*
%
%ADD242ROTATEDRECTD242*%

G04:AMPARAMS|DCode=243|XSize=0.7032mm|YSize=0.8032mm|CornerRadius=0mm|HoleSize=0mm|Usage=FLASHONLY|Rotation=345.000|XOffset=0mm|YOffset=0mm|HoleType=Round|Shape=Rectangle|*
%AMROTATEDRECTD243*
4,1,4,-0.4436,-0.2969,-0.2357,0.4789,0.4436,0.2969,0.2357,-0.4789,-0.4436,-0.2969,0.0*
%
%ADD243ROTATEDRECTD243*%

G04:AMPARAMS|DCode=244|XSize=0.5032mm|YSize=1.0532mm|CornerRadius=0mm|HoleSize=0mm|Usage=FLASHONLY|Rotation=345.000|XOffset=0mm|YOffset=0mm|HoleType=Round|Shape=Rectangle|*
%AMROTATEDRECTD244*
4,1,4,-0.3793,-0.4435,-0.1067,0.5738,0.3793,0.4435,0.1067,-0.5738,-0.3793,-0.4435,0.0*
%
%ADD244ROTATEDRECTD244*%

G04:AMPARAMS|DCode=245|XSize=2.2032mm|YSize=1.3032mm|CornerRadius=0.3766mm|HoleSize=0mm|Usage=FLASHONLY|Rotation=345.000|XOffset=0mm|YOffset=0mm|HoleType=Round|Shape=RoundedRectangle|*
%AMROUNDEDRECTD245*
21,1,2.2032,0.5500,0,0,345.0*
21,1,1.4500,1.3032,0,0,345.0*
1,1,0.7532,0.6291,-0.4533*
1,1,0.7532,-0.7715,-0.0780*
1,1,0.7532,-0.6291,0.4533*
1,1,0.7532,0.7715,0.0780*
%
%ADD245ROUNDEDRECTD245*%
G04:AMPARAMS|DCode=246|XSize=0.9132mm|YSize=1.5732mm|CornerRadius=0mm|HoleSize=0mm|Usage=FLASHONLY|Rotation=264.814|XOffset=0mm|YOffset=0mm|HoleType=Round|Shape=Rectangle|*
%AMROTATEDRECTD246*
4,1,4,-0.7421,0.5258,0.8246,0.3836,0.7421,-0.5258,-0.8246,-0.3836,-0.7421,0.5258,0.0*
%
%ADD246ROTATEDRECTD246*%

G04:AMPARAMS|DCode=247|XSize=4.0532mm|YSize=4.7232mm|CornerRadius=0mm|HoleSize=0mm|Usage=FLASHONLY|Rotation=324.603|XOffset=0mm|YOffset=0mm|HoleType=Round|Shape=Rectangle|*
%AMROTATEDRECTD247*
4,1,4,-3.0199,-0.7512,-0.2841,3.0990,3.0199,0.7512,0.2841,-3.0990,-3.0199,-0.7512,0.0*
%
%ADD247ROTATEDRECTD247*%

G04:AMPARAMS|DCode=248|XSize=0.9132mm|YSize=1.5732mm|CornerRadius=0mm|HoleSize=0mm|Usage=FLASHONLY|Rotation=234.603|XOffset=0mm|YOffset=0mm|HoleType=Round|Shape=Rectangle|*
%AMROTATEDRECTD248*
4,1,4,-0.3767,0.8278,0.9057,-0.0834,0.3767,-0.8278,-0.9057,0.0834,-0.3767,0.8278,0.0*
%
%ADD248ROTATEDRECTD248*%

G04:AMPARAMS|DCode=249|XSize=5.4032mm|YSize=1.6032mm|CornerRadius=0mm|HoleSize=0mm|Usage=FLASHONLY|Rotation=0.224|XOffset=0mm|YOffset=0mm|HoleType=Round|Shape=Rectangle|*
%AMROTATEDRECTD249*
4,1,4,-2.6985,-0.8121,-2.7047,0.7911,2.6985,0.8121,2.7047,-0.7911,-2.6985,-0.8121,0.0*
%
%ADD249ROTATEDRECTD249*%

G04:AMPARAMS|DCode=250|XSize=5.4032mm|YSize=1.6032mm|CornerRadius=0mm|HoleSize=0mm|Usage=FLASHONLY|Rotation=45.309|XOffset=0mm|YOffset=0mm|HoleType=Round|Shape=Rectangle|*
%AMROTATEDRECTD250*
4,1,4,-1.3301,-2.4843,-2.4699,-1.3568,1.3301,2.4843,2.4699,1.3568,-1.3301,-2.4843,0.0*
%
%ADD250ROTATEDRECTD250*%

G04:AMPARAMS|DCode=251|XSize=5.4032mm|YSize=1.6032mm|CornerRadius=0mm|HoleSize=0mm|Usage=FLASHONLY|Rotation=29.536|XOffset=0mm|YOffset=0mm|HoleType=Round|Shape=Rectangle|*
%AMROTATEDRECTD251*
4,1,4,-1.9554,-2.0292,-2.7457,-0.6344,1.9554,2.0292,2.7457,0.6344,-1.9554,-2.0292,0.0*
%
%ADD251ROTATEDRECTD251*%

G04:AMPARAMS|DCode=252|XSize=5.4032mm|YSize=1.6032mm|CornerRadius=0mm|HoleSize=0mm|Usage=FLASHONLY|Rotation=60.298|XOffset=0mm|YOffset=0mm|HoleType=Round|Shape=Rectangle|*
%AMROTATEDRECTD252*
4,1,4,-0.6423,-2.7438,-2.0349,-1.9495,0.6423,2.7438,2.0349,1.9495,-0.6423,-2.7438,0.0*
%
%ADD252ROTATEDRECTD252*%

G04:AMPARAMS|DCode=253|XSize=5.4032mm|YSize=1.6032mm|CornerRadius=0mm|HoleSize=0mm|Usage=FLASHONLY|Rotation=104.338|XOffset=0mm|YOffset=0mm|HoleType=Round|Shape=Rectangle|*
%AMROTATEDRECTD253*
4,1,4,1.4457,-2.4190,-0.1076,-2.8160,-1.4457,2.4190,0.1076,2.8160,1.4457,-2.4190,0.0*
%
%ADD253ROTATEDRECTD253*%

G04:AMPARAMS|DCode=254|XSize=5.4032mm|YSize=1.6032mm|CornerRadius=0mm|HoleSize=0mm|Usage=FLASHONLY|Rotation=346.026|XOffset=0mm|YOffset=0mm|HoleType=Round|Shape=Rectangle|*
%AMROTATEDRECTD254*
4,1,4,-2.8152,-0.1255,-2.4281,1.4303,2.8152,0.1255,2.4281,-1.4303,-2.8152,-0.1255,0.0*
%
%ADD254ROTATEDRECTD254*%

G04:AMPARAMS|DCode=255|XSize=5.4032mm|YSize=1.6032mm|CornerRadius=0mm|HoleSize=0mm|Usage=FLASHONLY|Rotation=15.450|XOffset=0mm|YOffset=0mm|HoleType=Round|Shape=Rectangle|*
%AMROTATEDRECTD255*
4,1,4,-2.3904,-1.4923,-2.8175,0.0529,2.3904,1.4923,2.8175,-0.0529,-2.3904,-1.4923,0.0*
%
%ADD255ROTATEDRECTD255*%

G04:AMPARAMS|DCode=256|XSize=5.4032mm|YSize=1.6032mm|CornerRadius=0mm|HoleSize=0mm|Usage=FLASHONLY|Rotation=75.309|XOffset=0mm|YOffset=0mm|HoleType=Round|Shape=Rectangle|*
%AMROTATEDRECTD256*
4,1,4,0.0902,-2.8166,-1.4606,-2.4100,-0.0902,2.8166,1.4606,2.4100,0.0902,-2.8166,0.0*
%
%ADD256ROTATEDRECTD256*%

G04:AMPARAMS|DCode=257|XSize=4.0532mm|YSize=4.7232mm|CornerRadius=0mm|HoleSize=0mm|Usage=FLASHONLY|Rotation=307.103|XOffset=0mm|YOffset=0mm|HoleType=Round|Shape=Rectangle|*
%AMROTATEDRECTD257*
4,1,4,-3.1060,0.1917,0.6610,3.0410,3.1060,-0.1917,-0.6610,-3.0410,-3.1060,0.1917,0.0*
%
%ADD257ROTATEDRECTD257*%

G04:AMPARAMS|DCode=258|XSize=0.9132mm|YSize=1.5732mm|CornerRadius=0mm|HoleSize=0mm|Usage=FLASHONLY|Rotation=217.103|XOffset=0mm|YOffset=0mm|HoleType=Round|Shape=Rectangle|*
%AMROTATEDRECTD258*
4,1,4,-0.1104,0.9028,0.8387,-0.3519,0.1104,-0.9028,-0.8387,0.3519,-0.1104,0.9028,0.0*
%
%ADD258ROTATEDRECTD258*%

G04:AMPARAMS|DCode=259|XSize=0.9132mm|YSize=1.5732mm|CornerRadius=0mm|HoleSize=0mm|Usage=FLASHONLY|Rotation=157.500|XOffset=0mm|YOffset=0mm|HoleType=Round|Shape=Rectangle|*
%AMROTATEDRECTD259*
4,1,4,0.7229,0.5520,0.1208,-0.9015,-0.7229,-0.5520,-0.1208,0.9015,0.7229,0.5520,0.0*
%
%ADD259ROTATEDRECTD259*%

G04:AMPARAMS|DCode=260|XSize=0.9132mm|YSize=1.5732mm|CornerRadius=0mm|HoleSize=0mm|Usage=FLASHONLY|Rotation=285.093|XOffset=0mm|YOffset=0mm|HoleType=Round|Shape=Rectangle|*
%AMROTATEDRECTD260*
4,1,4,-0.8784,0.2360,0.6406,0.6457,0.8784,-0.2360,-0.6406,-0.6457,-0.8784,0.2360,0.0*
%
%ADD260ROTATEDRECTD260*%

%ADD261R,0.2032X0.2032*%
%ADD262O,0.4532X0.8032*%
%ADD263O,0.8032X0.4532*%
%ADD264C,0.6032*%
D17*
X880110Y845820D02*
D03*
X885710D02*
D03*
D34*
X899493Y896638D02*
D03*
X903453Y892678D02*
D03*
X872490Y911860D02*
D03*
X876450Y907900D02*
D03*
X928545Y881760D02*
D03*
X932504Y877800D02*
D03*
D35*
X858520Y894080D02*
D03*
X862480Y898040D02*
D03*
X919480Y896620D02*
D03*
X915520Y892660D02*
D03*
X889000Y882650D02*
D03*
X885040Y878690D02*
D03*
X863040Y884630D02*
D03*
X859080Y880670D02*
D03*
X904800Y873050D02*
D03*
X908760Y877010D02*
D03*
X909320Y905510D02*
D03*
X905360Y901550D02*
D03*
X896620Y905510D02*
D03*
X900580Y909470D02*
D03*
D38*
X678180Y655940D02*
D03*
Y669940D02*
D03*
D72*
X716470Y595630D02*
D03*
X708470Y595630D02*
D03*
D111*
X749300Y620840D02*
D03*
X749300Y628840D02*
D03*
D163*
X694690Y764540D02*
D03*
X704770Y764540D02*
D03*
X694690Y753110D02*
D03*
X704770D02*
D03*
D186*
X1225336Y740457D02*
D03*
D210*
X958786Y408421D02*
D03*
D211*
X938961Y391069D02*
D03*
X951648Y390515D02*
D03*
X964336Y389961D02*
D03*
X977024Y389407D02*
D03*
X979441Y444754D02*
D03*
X966753Y445308D02*
D03*
X954065Y445862D02*
D03*
X941377Y446416D02*
D03*
D214*
X1233396Y647788D02*
D03*
D216*
X869443Y428228D02*
D03*
D218*
X969026Y519742D02*
D03*
Y819742D02*
D03*
X1119026Y669742D02*
D03*
X819026Y669742D02*
D03*
D222*
X662683Y801628D02*
D03*
X683353Y780957D02*
D03*
D223*
X886734Y918484D02*
D03*
X893805Y925556D02*
D03*
D224*
X874037Y859869D02*
D03*
X879694Y865526D02*
D03*
D225*
X882699Y856863D02*
D03*
X871032Y868531D02*
D03*
D226*
X749956Y843936D02*
D03*
X730864Y824844D02*
D03*
X774086Y819806D02*
D03*
X754994Y800714D02*
D03*
D227*
X691140Y626270D02*
D03*
X691140Y641270D02*
D03*
Y646270D02*
D03*
X691140Y651270D02*
D03*
X691140Y656270D02*
D03*
X691140Y661270D02*
D03*
X739140Y661270D02*
D03*
X739140Y656270D02*
D03*
X739140Y651270D02*
D03*
X739140Y636270D02*
D03*
X739140Y631270D02*
D03*
X739140Y626270D02*
D03*
X739140Y621270D02*
D03*
D228*
X697640Y667770D02*
D03*
X702640Y667770D02*
D03*
X707640Y667770D02*
D03*
X712640Y667770D02*
D03*
X717640Y667770D02*
D03*
X722640Y667770D02*
D03*
X727640Y667770D02*
D03*
X732640Y667770D02*
D03*
X727640Y609770D02*
D03*
X722640D02*
D03*
X717640Y609770D02*
D03*
X702640Y609770D02*
D03*
X697640D02*
D03*
D229*
X715140Y638770D02*
D03*
D230*
X750170Y558800D02*
D03*
X700170Y558800D02*
D03*
X1315719Y671860D02*
D03*
X1265721Y671480D02*
D03*
D231*
X1113688Y870511D02*
D03*
X1108059Y873761D02*
D03*
X1102430Y877011D02*
D03*
X1096801Y880261D02*
D03*
X1127888Y895106D02*
D03*
X1122259Y898356D02*
D03*
X1116630Y901606D02*
D03*
X1111001Y904856D02*
D03*
D232*
X1112345Y887684D02*
D03*
D233*
X1136158Y913530D02*
D03*
X1144887Y908490D02*
D03*
X1115261Y925595D02*
D03*
X1123990Y920555D02*
D03*
D234*
X1097463Y915247D02*
D03*
X1092423Y906518D02*
D03*
D235*
X1142557Y889212D02*
D03*
X1137557Y880552D02*
D03*
D236*
X1177291Y801102D02*
D03*
X1174041Y806731D02*
D03*
X1170791Y812360D02*
D03*
X1167541Y817989D02*
D03*
X1201886Y815302D02*
D03*
X1198636Y820931D02*
D03*
X1195386Y826560D02*
D03*
X1192136Y832189D02*
D03*
D237*
X1184714Y816646D02*
D03*
D238*
X1218260Y827122D02*
D03*
X1223300Y818393D02*
D03*
X1206195Y848019D02*
D03*
X1211235Y839290D02*
D03*
D239*
X1185608Y847957D02*
D03*
X1176878Y842917D02*
D03*
D240*
X1211643Y802863D02*
D03*
X1202982Y797863D02*
D03*
D241*
X1001519Y948359D02*
D03*
X998910Y938623D02*
D03*
D242*
X1016033Y962960D02*
D03*
X1025769Y960351D02*
D03*
X1039341Y956715D02*
D03*
X1049077Y954106D02*
D03*
D243*
X1051815Y934882D02*
D03*
X1049227Y925223D02*
D03*
D244*
X1028771Y909347D02*
D03*
X1022492Y911029D02*
D03*
X1016214Y912711D02*
D03*
X1009935Y914393D02*
D03*
X1036121Y936779D02*
D03*
X1029842Y938461D02*
D03*
X1023564Y940143D02*
D03*
X1017286Y941826D02*
D03*
D245*
X1023028Y925586D02*
D03*
D246*
X1249800Y627171D02*
D03*
X1250947Y639819D02*
D03*
X1252096Y652467D02*
D03*
X1253243Y665115D02*
D03*
X1198070Y670123D02*
D03*
X1196922Y657475D02*
D03*
X1195774Y644827D02*
D03*
X1194626Y632179D02*
D03*
D247*
X1186434Y519811D02*
D03*
D248*
X1190236Y493740D02*
D03*
X1197592Y504092D02*
D03*
X1204948Y514445D02*
D03*
X1212305Y524797D02*
D03*
X1167145Y556887D02*
D03*
X1159789Y546534D02*
D03*
X1152432Y536182D02*
D03*
X1145076Y525829D02*
D03*
D249*
X970378Y326230D02*
D03*
X970182Y376230D02*
D03*
D250*
X1214638Y427503D02*
D03*
X1179093Y462667D02*
D03*
D251*
X1143015Y372519D02*
D03*
X1118367Y416021D02*
D03*
D252*
X1269505Y499063D02*
D03*
X1226074Y523837D02*
D03*
D253*
X1303943Y761100D02*
D03*
X1255501Y748718D02*
D03*
D254*
X881307Y337889D02*
D03*
X893381Y386409D02*
D03*
D255*
X1059876Y338052D02*
D03*
X1046556Y386245D02*
D03*
D256*
X1303984Y582394D02*
D03*
X1255619Y595074D02*
D03*
D257*
X1130765Y461841D02*
D03*
D258*
X1126551Y435833D02*
D03*
X1136680Y443494D02*
D03*
X1146809Y451156D02*
D03*
X1156938Y458817D02*
D03*
X1123518Y503002D02*
D03*
X1113389Y495340D02*
D03*
X1103260Y487679D02*
D03*
X1093131Y480018D02*
D03*
D259*
X844878Y418703D02*
D03*
X856611Y413843D02*
D03*
X868345Y408983D02*
D03*
X880078Y404123D02*
D03*
X901279Y455306D02*
D03*
X889545Y460166D02*
D03*
X877812Y465026D02*
D03*
X866079Y469886D02*
D03*
D260*
X1247869Y726803D02*
D03*
X1244562Y739065D02*
D03*
X1241255Y751327D02*
D03*
X1237948Y763589D02*
D03*
X1184459Y749164D02*
D03*
X1187766Y736901D02*
D03*
X1191073Y724640D02*
D03*
X1194380Y712378D02*
D03*
D261*
X969010Y669290D02*
D03*
D262*
X976510Y684790D02*
D03*
X971510Y684790D02*
D03*
X966510Y684790D02*
D03*
X961510Y684790D02*
D03*
X961510Y653790D02*
D03*
X966510Y653790D02*
D03*
X971510Y653790D02*
D03*
X976510Y653790D02*
D03*
D263*
X953510Y676790D02*
D03*
X953510Y671790D02*
D03*
X953510Y666790D02*
D03*
X953510Y661790D02*
D03*
X984510Y661790D02*
D03*
X984510Y666790D02*
D03*
X984510Y671790D02*
D03*
X984510Y676790D02*
D03*
D264*
X908050Y671830D02*
D03*
X904240Y678180D02*
D03*
X767080Y704850D02*
D03*
X760730Y712470D02*
D03*
M02*
