M48
;Layer_Color=9474304
;FILE_FORMAT=4:4
METRIC,LZ
;TYPE=PLATED
T1F00S00C0.1000
%
T01
X0092183Y0068199
X0094742Y0072136
X0095377Y0072517
X0095431Y0075441
X0095031Y0075441
X0094631
X00899224Y00777731
X00895618Y00774436
X0075946Y0073533
X00762Y0072009
X0068199Y0074422
X0079756Y0086233
X00879725Y00859838
X0088011Y0086614
X0088311Y00873753
X00893561Y00873735
X00891008Y00876839
X00891008Y00859869
X00908939Y00854206
X0091821Y0086868
X0092456Y0086741
X00921972Y00874117
X00921576Y00879109
X00913635Y00888153
X00910807Y00885324
X0090515
X00900299Y0088519
X00902322Y00888153
X00890894Y0082771
X00899521Y00797785
X0094107Y0095504
X0094412Y009652
M30
