G04 Layer_Physical_Order=6*
G04 Layer_Color=16711680*
%FSLAX44Y44*%
%MOMM*%
G71*
G01*
G75*
%ADD10C,2.2000*%
%ADD11C,6.0000*%
G04:AMPARAMS|DCode=14|XSize=4mm|YSize=7mm|CornerRadius=1mm|HoleSize=0mm|Usage=FLASHONLY|Rotation=135.000|XOffset=0mm|YOffset=0mm|HoleType=Round|Shape=RoundedRectangle|*
%AMROUNDEDRECTD14*
21,1,4.0000,5.0000,0,0,135.0*
21,1,2.0000,7.0000,0,0,135.0*
1,1,2.0000,1.0607,2.4749*
1,1,2.0000,2.4749,1.0607*
1,1,2.0000,-1.0607,-2.4749*
1,1,2.0000,-2.4749,-1.0607*
%
%ADD14ROUNDEDRECTD14*%
G04:AMPARAMS|DCode=16|XSize=4mm|YSize=7mm|CornerRadius=1mm|HoleSize=0mm|Usage=FLASHONLY|Rotation=225.000|XOffset=0mm|YOffset=0mm|HoleType=Round|Shape=RoundedRectangle|*
%AMROUNDEDRECTD16*
21,1,4.0000,5.0000,0,0,225.0*
21,1,2.0000,7.0000,0,0,225.0*
1,1,2.0000,-2.4749,1.0607*
1,1,2.0000,-1.0607,2.4749*
1,1,2.0000,2.4749,-1.0607*
1,1,2.0000,1.0607,-2.4749*
%
%ADD16ROUNDEDRECTD16*%
G04:AMPARAMS|DCode=27|XSize=4mm|YSize=7mm|CornerRadius=1mm|HoleSize=0mm|Usage=FLASHONLY|Rotation=317.500|XOffset=0mm|YOffset=0mm|HoleType=Round|Shape=RoundedRectangle|*
%AMROUNDEDRECTD27*
21,1,4.0000,5.0000,0,0,317.5*
21,1,2.0000,7.0000,0,0,317.5*
1,1,2.0000,-0.9517,-2.5188*
1,1,2.0000,-2.4263,-1.1676*
1,1,2.0000,0.9517,2.5188*
1,1,2.0000,2.4263,1.1676*
%
%ADD27ROUNDEDRECTD27*%
G04:AMPARAMS|DCode=40|XSize=0.508mm|YSize=0.6096mm|CornerRadius=0mm|HoleSize=0mm|Usage=FLASHONLY|Rotation=315.000|XOffset=0mm|YOffset=0mm|HoleType=Round|Shape=Rectangle|*
%AMROTATEDRECTD40*
4,1,4,-0.3951,-0.0359,0.0359,0.3951,0.3951,0.0359,-0.0359,-0.3951,-0.3951,-0.0359,0.0*
%
%ADD40ROTATEDRECTD40*%

G04:AMPARAMS|DCode=41|XSize=0.32mm|YSize=0.36mm|CornerRadius=0.08mm|HoleSize=0mm|Usage=FLASHONLY|Rotation=45.000|XOffset=0mm|YOffset=0mm|HoleType=Round|Shape=RoundedRectangle|*
%AMROUNDEDRECTD41*
21,1,0.3200,0.2000,0,0,45.0*
21,1,0.1600,0.3600,0,0,45.0*
1,1,0.1600,0.1273,-0.0141*
1,1,0.1600,0.0141,-0.1273*
1,1,0.1600,-0.1273,0.0141*
1,1,0.1600,-0.0141,0.1273*
%
%ADD41ROUNDEDRECTD41*%
G04:AMPARAMS|DCode=43|XSize=0.32mm|YSize=0.36mm|CornerRadius=0.08mm|HoleSize=0mm|Usage=FLASHONLY|Rotation=135.000|XOffset=0mm|YOffset=0mm|HoleType=Round|Shape=RoundedRectangle|*
%AMROUNDEDRECTD43*
21,1,0.3200,0.2000,0,0,135.0*
21,1,0.1600,0.3600,0,0,135.0*
1,1,0.1600,0.0141,0.1273*
1,1,0.1600,0.1273,0.0141*
1,1,0.1600,-0.0141,-0.1273*
1,1,0.1600,-0.1273,-0.0141*
%
%ADD43ROUNDEDRECTD43*%
G04:AMPARAMS|DCode=54|XSize=0.32mm|YSize=0.36mm|CornerRadius=0.08mm|HoleSize=0mm|Usage=FLASHONLY|Rotation=0.000|XOffset=0mm|YOffset=0mm|HoleType=Round|Shape=RoundedRectangle|*
%AMROUNDEDRECTD54*
21,1,0.3200,0.2000,0,0,0.0*
21,1,0.1600,0.3600,0,0,0.0*
1,1,0.1600,0.0800,-0.1000*
1,1,0.1600,-0.0800,-0.1000*
1,1,0.1600,-0.0800,0.1000*
1,1,0.1600,0.0800,0.1000*
%
%ADD54ROUNDEDRECTD54*%
G04:AMPARAMS|DCode=55|XSize=0.32mm|YSize=0.36mm|CornerRadius=0.08mm|HoleSize=0mm|Usage=FLASHONLY|Rotation=270.000|XOffset=0mm|YOffset=0mm|HoleType=Round|Shape=RoundedRectangle|*
%AMROUNDEDRECTD55*
21,1,0.3200,0.2000,0,0,270.0*
21,1,0.1600,0.3600,0,0,270.0*
1,1,0.1600,-0.1000,-0.0800*
1,1,0.1600,-0.1000,0.0800*
1,1,0.1600,0.1000,0.0800*
1,1,0.1600,0.1000,-0.0800*
%
%ADD55ROUNDEDRECTD55*%
G04:AMPARAMS|DCode=59|XSize=0.508mm|YSize=0.6096mm|CornerRadius=0.127mm|HoleSize=0mm|Usage=FLASHONLY|Rotation=180.000|XOffset=0mm|YOffset=0mm|HoleType=Round|Shape=RoundedRectangle|*
%AMROUNDEDRECTD59*
21,1,0.5080,0.3556,0,0,180.0*
21,1,0.2540,0.6096,0,0,180.0*
1,1,0.2540,-0.1270,0.1778*
1,1,0.2540,0.1270,0.1778*
1,1,0.2540,0.1270,-0.1778*
1,1,0.2540,-0.1270,-0.1778*
%
%ADD59ROUNDEDRECTD59*%
G04:AMPARAMS|DCode=60|XSize=0.6096mm|YSize=0.9144mm|CornerRadius=0.1524mm|HoleSize=0mm|Usage=FLASHONLY|Rotation=0.000|XOffset=0mm|YOffset=0mm|HoleType=Round|Shape=RoundedRectangle|*
%AMROUNDEDRECTD60*
21,1,0.6096,0.6096,0,0,0.0*
21,1,0.3048,0.9144,0,0,0.0*
1,1,0.3048,0.1524,-0.3048*
1,1,0.3048,-0.1524,-0.3048*
1,1,0.3048,-0.1524,0.3048*
1,1,0.3048,0.1524,0.3048*
%
%ADD60ROUNDEDRECTD60*%
G04:AMPARAMS|DCode=61|XSize=0.6096mm|YSize=0.9144mm|CornerRadius=0.1524mm|HoleSize=0mm|Usage=FLASHONLY|Rotation=90.000|XOffset=0mm|YOffset=0mm|HoleType=Round|Shape=RoundedRectangle|*
%AMROUNDEDRECTD61*
21,1,0.6096,0.6096,0,0,90.0*
21,1,0.3048,0.9144,0,0,90.0*
1,1,0.3048,0.3048,0.1524*
1,1,0.3048,0.3048,-0.1524*
1,1,0.3048,-0.3048,-0.1524*
1,1,0.3048,-0.3048,0.1524*
%
%ADD61ROUNDEDRECTD61*%
G04:AMPARAMS|DCode=70|XSize=0.71mm|YSize=1.37mm|CornerRadius=0mm|HoleSize=0mm|Usage=FLASHONLY|Rotation=315.000|XOffset=0mm|YOffset=0mm|HoleType=Round|Shape=Rectangle|*
%AMROTATEDRECTD70*
4,1,4,-0.7354,-0.2333,0.2333,0.7354,0.7354,0.2333,-0.2333,-0.7354,-0.7354,-0.2333,0.0*
%
%ADD70ROTATEDRECTD70*%

G04:AMPARAMS|DCode=71|XSize=3.85mm|YSize=4.52mm|CornerRadius=0mm|HoleSize=0mm|Usage=FLASHONLY|Rotation=225.000|XOffset=0mm|YOffset=0mm|HoleType=Round|Shape=Rectangle|*
%AMROTATEDRECTD71*
4,1,4,-0.2369,2.9592,2.9592,-0.2369,0.2369,-2.9592,-2.9592,0.2369,-0.2369,2.9592,0.0*
%
%ADD71ROTATEDRECTD71*%

%ADD78R,0.5080X0.6096*%
%ADD88C,0.1000*%
%ADD89C,4.5000*%
%ADD90C,0.1270*%
%ADD91C,0.2540*%
%ADD92C,3.0000*%
%ADD98C,6.3000*%
%ADD99C,0.2000*%
%ADD100C,7.0000*%
G04:AMPARAMS|DCode=101|XSize=0.508mm|YSize=0.6096mm|CornerRadius=0.127mm|HoleSize=0mm|Usage=FLASHONLY|Rotation=90.000|XOffset=0mm|YOffset=0mm|HoleType=Round|Shape=RoundedRectangle|*
%AMROUNDEDRECTD101*
21,1,0.5080,0.3556,0,0,90.0*
21,1,0.2540,0.6096,0,0,90.0*
1,1,0.2540,0.1778,0.1270*
1,1,0.2540,0.1778,-0.1270*
1,1,0.2540,-0.1778,-0.1270*
1,1,0.2540,-0.1778,0.1270*
%
%ADD101ROUNDEDRECTD101*%
%ADD102R,1.4000X5.2000*%
%ADD103O,0.7000X0.2500*%
%ADD104O,0.2500X0.7000*%
%ADD105R,2.6000X3.6000*%
G04:AMPARAMS|DCode=106|XSize=2.6mm|YSize=1.1mm|CornerRadius=0mm|HoleSize=0mm|Usage=FLASHONLY|Rotation=315.000|XOffset=0mm|YOffset=0mm|HoleType=Round|Shape=Rectangle|*
%AMROTATEDRECTD106*
4,1,4,-1.3081,0.5303,-0.5303,1.3081,1.3081,-0.5303,0.5303,-1.3081,-1.3081,0.5303,0.0*
%
%ADD106ROTATEDRECTD106*%

G04:AMPARAMS|DCode=107|XSize=0.5mm|YSize=0.6mm|CornerRadius=0mm|HoleSize=0mm|Usage=FLASHONLY|Rotation=135.000|XOffset=0mm|YOffset=0mm|HoleType=Round|Shape=Rectangle|*
%AMROTATEDRECTD107*
4,1,4,0.3889,0.0353,-0.0353,-0.3889,-0.3889,-0.0353,0.0353,0.3889,0.3889,0.0353,0.0*
%
%ADD107ROTATEDRECTD107*%

G04:AMPARAMS|DCode=108|XSize=0.508mm|YSize=0.6096mm|CornerRadius=0mm|HoleSize=0mm|Usage=FLASHONLY|Rotation=140.000|XOffset=0mm|YOffset=0mm|HoleType=Round|Shape=Rectangle|*
%AMROTATEDRECTD108*
4,1,4,0.3905,0.0702,-0.0014,-0.3968,-0.3905,-0.0702,0.0014,0.3968,0.3905,0.0702,0.0*
%
%ADD108ROTATEDRECTD108*%

G04:AMPARAMS|DCode=109|XSize=0.508mm|YSize=0.6096mm|CornerRadius=0mm|HoleSize=0mm|Usage=FLASHONLY|Rotation=65.000|XOffset=0mm|YOffset=0mm|HoleType=Round|Shape=Rectangle|*
%AMROTATEDRECTD109*
4,1,4,0.1689,-0.3590,-0.3836,-0.1014,-0.1689,0.3590,0.3836,0.1014,0.1689,-0.3590,0.0*
%
%ADD109ROTATEDRECTD109*%

%ADD110O,0.6000X1.9000*%
G04:AMPARAMS|DCode=111|XSize=0.6mm|YSize=1.9mm|CornerRadius=0mm|HoleSize=0mm|Usage=FLASHONLY|Rotation=330.000|XOffset=0mm|YOffset=0mm|HoleType=Round|Shape=Round|*
%AMOVALD111*
21,1,1.3000,0.6000,0.0000,0.0000,60.0*
1,1,0.6000,-0.3250,-0.5629*
1,1,0.6000,0.3250,0.5629*
%
%ADD111OVALD111*%

G04:AMPARAMS|DCode=112|XSize=0.6mm|YSize=1.9mm|CornerRadius=0mm|HoleSize=0mm|Usage=FLASHONLY|Rotation=305.000|XOffset=0mm|YOffset=0mm|HoleType=Round|Shape=Round|*
%AMOVALD112*
21,1,1.3000,0.6000,0.0000,0.0000,35.0*
1,1,0.6000,-0.5324,-0.3728*
1,1,0.6000,0.5324,0.3728*
%
%ADD112OVALD112*%

G04:AMPARAMS|DCode=113|XSize=3.85mm|YSize=4.52mm|CornerRadius=0mm|HoleSize=0mm|Usage=FLASHONLY|Rotation=329.603|XOffset=0mm|YOffset=0mm|HoleType=Round|Shape=Rectangle|*
%AMROTATEDRECTD113*
4,1,4,-2.8039,-0.9753,-0.5169,2.9234,2.8039,0.9753,0.5169,-2.9234,-2.8039,-0.9753,0.0*
%
%ADD113ROTATEDRECTD113*%

G04:AMPARAMS|DCode=114|XSize=0.71mm|YSize=1.37mm|CornerRadius=0mm|HoleSize=0mm|Usage=FLASHONLY|Rotation=239.603|XOffset=0mm|YOffset=0mm|HoleType=Round|Shape=Rectangle|*
%AMROTATEDRECTD114*
4,1,4,-0.4112,0.6528,0.7705,-0.0404,0.4112,-0.6528,-0.7705,0.0404,-0.4112,0.6528,0.0*
%
%ADD114ROTATEDRECTD114*%

G04:AMPARAMS|DCode=115|XSize=3.85mm|YSize=4.52mm|CornerRadius=0mm|HoleSize=0mm|Usage=FLASHONLY|Rotation=307.103|XOffset=0mm|YOffset=0mm|HoleType=Round|Shape=Rectangle|*
%AMROTATEDRECTD115*
4,1,4,-2.9637,0.1720,0.6412,2.8986,2.9637,-0.1720,-0.6412,-2.8986,-2.9637,0.1720,0.0*
%
%ADD115ROTATEDRECTD115*%

G04:AMPARAMS|DCode=116|XSize=0.71mm|YSize=1.37mm|CornerRadius=0mm|HoleSize=0mm|Usage=FLASHONLY|Rotation=217.103|XOffset=0mm|YOffset=0mm|HoleType=Round|Shape=Rectangle|*
%AMROTATEDRECTD116*
4,1,4,-0.1301,0.7605,0.6964,-0.3322,0.1301,-0.7605,-0.6964,0.3322,-0.1301,0.7605,0.0*
%
%ADD116ROTATEDRECTD116*%

G04:AMPARAMS|DCode=117|XSize=3.85mm|YSize=4.52mm|CornerRadius=0mm|HoleSize=0mm|Usage=FLASHONLY|Rotation=15.093|XOffset=0mm|YOffset=0mm|HoleType=Round|Shape=Rectangle|*
%AMROTATEDRECTD117*
4,1,4,-1.2701,-2.6833,-2.4471,1.6808,1.2701,2.6833,2.4471,-1.6808,-1.2701,-2.6833,0.0*
%
%ADD117ROTATEDRECTD117*%

G04:AMPARAMS|DCode=118|XSize=0.71mm|YSize=1.37mm|CornerRadius=0mm|HoleSize=0mm|Usage=FLASHONLY|Rotation=285.093|XOffset=0mm|YOffset=0mm|HoleType=Round|Shape=Rectangle|*
%AMROTATEDRECTD118*
4,1,4,-0.7538,0.1644,0.5689,0.5211,0.7538,-0.1644,-0.5689,-0.5211,-0.7538,0.1644,0.0*
%
%ADD118ROTATEDRECTD118*%

G04:AMPARAMS|DCode=119|XSize=3.85mm|YSize=4.52mm|CornerRadius=0mm|HoleSize=0mm|Usage=FLASHONLY|Rotation=319.814|XOffset=0mm|YOffset=0mm|HoleType=Round|Shape=Rectangle|*
%AMROTATEDRECTD119*
4,1,4,-2.9289,-0.4844,-0.0123,2.9687,2.9289,0.4844,0.0123,-2.9687,-2.9289,-0.4844,0.0*
%
%ADD119ROTATEDRECTD119*%

G04:AMPARAMS|DCode=120|XSize=0.71mm|YSize=1.37mm|CornerRadius=0mm|HoleSize=0mm|Usage=FLASHONLY|Rotation=229.814|XOffset=0mm|YOffset=0mm|HoleType=Round|Shape=Rectangle|*
%AMROTATEDRECTD120*
4,1,4,-0.2942,0.7132,0.7524,-0.1708,0.2942,-0.7132,-0.7524,0.1708,-0.2942,0.7132,0.0*
%
%ADD120ROTATEDRECTD120*%

G04:AMPARAMS|DCode=121|XSize=5.2mm|YSize=1.4mm|CornerRadius=0mm|HoleSize=0mm|Usage=FLASHONLY|Rotation=104.338|XOffset=0mm|YOffset=0mm|HoleType=Round|Shape=Rectangle|*
%AMROTATEDRECTD121*
4,1,4,1.3220,-2.3457,-0.0343,-2.6924,-1.3220,2.3457,0.0343,2.6924,1.3220,-2.3457,0.0*
%
%ADD121ROTATEDRECTD121*%

G04:AMPARAMS|DCode=122|XSize=5.2mm|YSize=1.4mm|CornerRadius=0mm|HoleSize=0mm|Usage=FLASHONLY|Rotation=75.309|XOffset=0mm|YOffset=0mm|HoleType=Round|Shape=Rectangle|*
%AMROTATEDRECTD122*
4,1,4,0.0177,-2.6925,-1.3365,-2.3375,-0.0177,2.6925,1.3365,2.3375,0.0177,-2.6925,0.0*
%
%ADD122ROTATEDRECTD122*%

G04:AMPARAMS|DCode=123|XSize=5.2mm|YSize=1.4mm|CornerRadius=0mm|HoleSize=0mm|Usage=FLASHONLY|Rotation=60.298|XOffset=0mm|YOffset=0mm|HoleType=Round|Shape=Rectangle|*
%AMROTATEDRECTD123*
4,1,4,-0.6802,-2.6052,-1.8963,-1.9116,0.6802,2.6052,1.8963,1.9116,-0.6802,-2.6052,0.0*
%
%ADD123ROTATEDRECTD123*%

G04:AMPARAMS|DCode=124|XSize=5.2mm|YSize=1.4mm|CornerRadius=0mm|HoleSize=0mm|Usage=FLASHONLY|Rotation=45.309|XOffset=0mm|YOffset=0mm|HoleType=Round|Shape=Rectangle|*
%AMROTATEDRECTD124*
4,1,4,-1.3309,-2.3407,-2.3262,-1.3560,1.3309,2.3407,2.3262,1.3560,-1.3309,-2.3407,0.0*
%
%ADD124ROTATEDRECTD124*%

G04:AMPARAMS|DCode=125|XSize=5.2mm|YSize=1.4mm|CornerRadius=0mm|HoleSize=0mm|Usage=FLASHONLY|Rotation=29.536|XOffset=0mm|YOffset=0mm|HoleType=Round|Shape=Rectangle|*
%AMROTATEDRECTD125*
4,1,4,-1.9171,-1.8907,-2.6072,-0.6727,1.9171,1.8907,2.6072,0.6727,-1.9171,-1.8907,0.0*
%
%ADD125ROTATEDRECTD125*%

G04:AMPARAMS|DCode=126|XSize=5.2mm|YSize=1.4mm|CornerRadius=0mm|HoleSize=0mm|Usage=FLASHONLY|Rotation=15.450|XOffset=0mm|YOffset=0mm|HoleType=Round|Shape=Rectangle|*
%AMROTATEDRECTD126*
4,1,4,-2.3196,-1.3673,-2.6925,-0.0179,2.3196,1.3673,2.6925,0.0179,-2.3196,-1.3673,0.0*
%
%ADD126ROTATEDRECTD126*%

G04:AMPARAMS|DCode=127|XSize=5.2mm|YSize=1.4mm|CornerRadius=0mm|HoleSize=0mm|Usage=FLASHONLY|Rotation=0.224|XOffset=0mm|YOffset=0mm|HoleType=Round|Shape=Rectangle|*
%AMROTATEDRECTD127*
4,1,4,-2.5972,-0.7101,-2.6027,0.6898,2.5972,0.7101,2.6027,-0.6898,-2.5972,-0.7101,0.0*
%
%ADD127ROTATEDRECTD127*%

G04:AMPARAMS|DCode=128|XSize=5.2mm|YSize=1.4mm|CornerRadius=0mm|HoleSize=0mm|Usage=FLASHONLY|Rotation=346.026|XOffset=0mm|YOffset=0mm|HoleType=Round|Shape=Rectangle|*
%AMROTATEDRECTD128*
4,1,4,-2.6921,-0.0514,-2.3540,1.3072,2.6921,0.0514,2.3540,-1.3072,-2.6921,-0.0514,0.0*
%
%ADD128ROTATEDRECTD128*%

G04:AMPARAMS|DCode=129|XSize=3.85mm|YSize=4.52mm|CornerRadius=0mm|HoleSize=0mm|Usage=FLASHONLY|Rotation=287.500|XOffset=0mm|YOffset=0mm|HoleType=Round|Shape=Rectangle|*
%AMROTATEDRECTD129*
4,1,4,-2.7343,1.1563,1.5765,2.5155,2.7343,-1.1563,-1.5765,-2.5155,-2.7343,1.1563,0.0*
%
%ADD129ROTATEDRECTD129*%

G04:AMPARAMS|DCode=130|XSize=0.71mm|YSize=1.37mm|CornerRadius=0mm|HoleSize=0mm|Usage=FLASHONLY|Rotation=197.500|XOffset=0mm|YOffset=0mm|HoleType=Round|Shape=Rectangle|*
%AMROTATEDRECTD130*
4,1,4,0.1326,0.7601,0.5445,-0.5465,-0.1326,-0.7601,-0.5445,0.5465,0.1326,0.7601,0.0*
%
%ADD130ROTATEDRECTD130*%

%ADD131P,0.3592X4X318.3*%
G04:AMPARAMS|DCode=132|XSize=0.9144mm|YSize=1.6002mm|CornerRadius=0mm|HoleSize=0mm|Usage=FLASHONLY|Rotation=134.998|XOffset=0mm|YOffset=0mm|HoleType=Round|Shape=Rectangle|*
%AMROTATEDRECTD132*
4,1,4,0.8891,0.2424,-0.2425,-0.8890,-0.8891,-0.2424,0.2425,0.8890,0.8891,0.2424,0.0*
%
%ADD132ROTATEDRECTD132*%

%ADD133P,0.5657X4X360.0*%
G04:AMPARAMS|DCode=134|XSize=0.55mm|YSize=0.6mm|CornerRadius=0mm|HoleSize=0mm|Usage=FLASHONLY|Rotation=315.000|XOffset=0mm|YOffset=0mm|HoleType=Round|Shape=Rectangle|*
%AMROTATEDRECTD134*
4,1,4,-0.4066,-0.0177,0.0177,0.4066,0.4066,0.0177,-0.0177,-0.4066,-0.4066,-0.0177,0.0*
%
%ADD134ROTATEDRECTD134*%

G04:AMPARAMS|DCode=135|XSize=3.85mm|YSize=4.52mm|CornerRadius=0mm|HoleSize=0mm|Usage=FLASHONLY|Rotation=242.500|XOffset=0mm|YOffset=0mm|HoleType=Round|Shape=Rectangle|*
%AMROTATEDRECTD135*
4,1,4,-1.1158,2.7511,2.8935,0.6639,1.1158,-2.7511,-2.8935,-0.6639,-1.1158,2.7511,0.0*
%
%ADD135ROTATEDRECTD135*%

G04:AMPARAMS|DCode=136|XSize=0.71mm|YSize=1.37mm|CornerRadius=0mm|HoleSize=0mm|Usage=FLASHONLY|Rotation=152.500|XOffset=0mm|YOffset=0mm|HoleType=Round|Shape=Rectangle|*
%AMROTATEDRECTD136*
4,1,4,0.6312,0.4437,-0.0014,-0.7715,-0.6312,-0.4437,0.0014,0.7715,0.6312,0.4437,0.0*
%
%ADD136ROTATEDRECTD136*%

%ADD137O,0.2500X0.6000*%
%ADD138O,0.6000X0.2500*%
G36*
X925830Y958850D02*
X1020720D01*
X1063003Y944769D01*
X1145540Y895709D01*
X1174961Y871009D01*
X1229471Y799561D01*
X1229273Y798306D01*
X1182370Y765810D01*
X1145540Y802640D01*
X1142117Y802640D01*
X1040517Y701040D01*
X998073Y701040D01*
X984300Y714813D01*
Y739448D01*
X984103Y740439D01*
X983541Y741279D01*
X896377Y828444D01*
X895537Y829005D01*
X894546Y829202D01*
X893555Y829005D01*
X892715Y828444D01*
X892153Y827603D01*
X891956Y826612D01*
X892153Y825621D01*
X892715Y824781D01*
X979120Y738375D01*
Y713740D01*
X979317Y712749D01*
X979879Y711909D01*
X989574Y702213D01*
X989088Y701040D01*
X952732Y701040D01*
X952616Y701156D01*
X951776Y701718D01*
X950785Y701915D01*
X949794Y701718D01*
X948954Y701156D01*
X948838Y701040D01*
X930910D01*
Y692200D01*
X913130D01*
X912139Y692003D01*
X911299Y691441D01*
X910737Y690601D01*
X910540Y689610D01*
X910661Y689002D01*
X909491Y688376D01*
X872593Y725273D01*
X871963Y725695D01*
X871220Y725842D01*
X780608D01*
X779864Y725695D01*
X779234Y725273D01*
X764954Y710993D01*
X762937Y713010D01*
X762868Y713356D01*
X762367Y714107D01*
X761616Y714608D01*
X760730Y714784D01*
X759844Y714608D01*
X759093Y714107D01*
X758592Y713356D01*
X758416Y712470D01*
X758592Y711584D01*
X759093Y710833D01*
X759844Y710332D01*
X760190Y710263D01*
X763167Y707287D01*
X763797Y706865D01*
X764126Y706800D01*
X764732Y706009D01*
X764884Y705448D01*
X764765Y704850D01*
X764903Y704157D01*
X764640Y703562D01*
X764134Y702887D01*
X727370D01*
X727308Y703196D01*
X726807Y703947D01*
X726056Y704448D01*
X725170Y704624D01*
X724284Y704448D01*
X723533Y703947D01*
X723032Y703196D01*
X722856Y702310D01*
X723032Y701424D01*
X723444Y700807D01*
X723268Y700113D01*
X723094Y699746D01*
X722959Y699530D01*
X722831Y699505D01*
X722630Y699545D01*
X721744Y699368D01*
X720993Y698867D01*
X720492Y698116D01*
X720315Y697230D01*
X720492Y696344D01*
X720993Y695593D01*
X721744Y695092D01*
X722630Y694915D01*
X723516Y695092D01*
X724267Y695593D01*
X724306Y695653D01*
X726932D01*
X726959Y695619D01*
X727391Y694383D01*
X726364Y693356D01*
X725973Y692771D01*
X725835Y692080D01*
Y672956D01*
X724658Y671837D01*
X724457D01*
X723623Y672394D01*
X722640Y672589D01*
X721657Y672394D01*
X720935Y671911D01*
X720804Y671865D01*
X720668Y671890D01*
X719582Y672266D01*
Y681173D01*
X720964D01*
X722054Y681390D01*
X722978Y682008D01*
X723596Y682932D01*
X723813Y684022D01*
Y690118D01*
X723596Y691208D01*
X722978Y692132D01*
X722054Y692750D01*
X720964Y692967D01*
X717916D01*
X716826Y692750D01*
X715902Y692132D01*
X715284Y691208D01*
X715067Y690118D01*
Y684022D01*
X715284Y682932D01*
X715698Y682313D01*
Y679603D01*
X714428Y679336D01*
X714107Y679817D01*
X713356Y680318D01*
X712470Y680495D01*
X711584Y680318D01*
X710833Y679817D01*
X710332Y679066D01*
X710155Y678180D01*
X710332Y677294D01*
X710833Y676543D01*
X710835Y676542D01*
Y672956D01*
X709658Y671837D01*
X709457D01*
X708623Y672394D01*
X707640Y672589D01*
X706657Y672394D01*
X705823Y671837D01*
X705266Y671003D01*
X705071Y670020D01*
Y665520D01*
X705266Y664537D01*
X705823Y663703D01*
X706657Y663146D01*
X707640Y662951D01*
X708623Y663146D01*
X709457Y663703D01*
X710823Y663703D01*
X711657Y663146D01*
X712640Y662951D01*
X713623Y663146D01*
X714457Y663703D01*
X715823Y663703D01*
X716657Y663146D01*
X717640Y662950D01*
X718623Y663146D01*
X719457Y663703D01*
X720823Y663703D01*
X721657Y663146D01*
X722640Y662951D01*
X723623Y663146D01*
X724457Y663703D01*
X725823Y663703D01*
X726657Y663146D01*
X727640Y662951D01*
X728623Y663146D01*
X729457Y663703D01*
X730823Y663703D01*
X731657Y663146D01*
X732640Y662951D01*
X733623Y663146D01*
X734457Y663703D01*
X735014Y664537D01*
X735209Y665520D01*
Y670020D01*
X735014Y671003D01*
X734457Y671837D01*
X733623Y672394D01*
X732640Y672589D01*
X731657Y672394D01*
X730823Y671837D01*
X730622D01*
X729445Y672956D01*
Y691332D01*
X729727Y691615D01*
X769620D01*
X770311Y691753D01*
X770896Y692144D01*
X771187Y692435D01*
X771776Y692552D01*
X772527Y693053D01*
X773028Y693804D01*
X773204Y694690D01*
X773028Y695576D01*
X772527Y696327D01*
X772431Y697294D01*
X789474Y714338D01*
X861743D01*
X898393Y677688D01*
Y676562D01*
X898540Y675819D01*
X898962Y675189D01*
X912584Y661567D01*
X912584Y661567D01*
X913214Y661145D01*
X913958Y660998D01*
X913958Y660998D01*
X917031D01*
X917324Y660802D01*
X918210Y660626D01*
X919096Y660802D01*
X919847Y661303D01*
X920348Y662054D01*
X920377Y662198D01*
X921654Y662573D01*
X922404Y662072D01*
X923290Y661896D01*
X924176Y662072D01*
X924927Y662573D01*
X925428Y663324D01*
X925604Y664210D01*
X925428Y665096D01*
X924927Y665846D01*
X925366Y666969D01*
X925430Y667055D01*
X925830Y666975D01*
X926716Y667152D01*
X927467Y667653D01*
X927968Y668404D01*
X928145Y669290D01*
X927968Y670176D01*
X927467Y670927D01*
X926716Y671428D01*
X926370Y671497D01*
X911896Y685971D01*
X912522Y687141D01*
X913130Y687020D01*
X930910D01*
Y648970D01*
X845897D01*
X845366Y650123D01*
X845619Y650421D01*
X848315Y654818D01*
X850288Y659584D01*
X851493Y664600D01*
X851897Y669742D01*
X851493Y674884D01*
X850288Y679900D01*
X848315Y684665D01*
X845619Y689063D01*
X842270Y692985D01*
X838347Y696335D01*
X833949Y699030D01*
X829184Y701004D01*
X824168Y702208D01*
X819026Y702613D01*
X813884Y702208D01*
X808868Y701004D01*
X804103Y699030D01*
X799705Y696335D01*
X795782Y692985D01*
X792432Y689063D01*
X789737Y684665D01*
X787764Y679900D01*
X786559Y674884D01*
X786155Y669742D01*
X786559Y664600D01*
X787764Y659584D01*
X789737Y654818D01*
X792432Y650421D01*
X792686Y650123D01*
X792155Y648970D01*
X788615D01*
X780529Y661670D01*
X731438D01*
Y616987D01*
X710137D01*
X710138Y606871D01*
X710077Y606781D01*
X709880Y605790D01*
X710077Y604799D01*
X710138Y604708D01*
X710146Y523292D01*
X709248Y522394D01*
X642613D01*
X642231Y523179D01*
X634818Y540744D01*
X628351Y558679D01*
X622846Y576933D01*
X618321Y595454D01*
X614789Y614189D01*
X612258Y633087D01*
X610737Y652091D01*
X610230Y671150D01*
X610744Y690338D01*
X612286Y709473D01*
X614851Y728495D01*
X618432Y747354D01*
X623018Y765993D01*
X628596Y784361D01*
X635150Y802402D01*
X642662Y820066D01*
X651109Y837303D01*
X660468Y854063D01*
X670284Y869619D01*
X670691Y869891D01*
X670724Y869940D01*
X671001Y870129D01*
X674526Y875510D01*
X685979Y891093D01*
X698258Y906036D01*
X711324Y920293D01*
X725142Y933824D01*
X739670Y946589D01*
X754866Y958552D01*
X769290Y968695D01*
X769439Y968929D01*
X785542Y979085D01*
X802433Y988505D01*
X819808Y996998D01*
X828457Y1000662D01*
X838330Y1004799D01*
X851597Y1009592D01*
X856133Y1011210D01*
X869455Y1015225D01*
X925830Y958850D01*
D02*
G37*
G36*
X802092Y641685D02*
X804103Y640453D01*
X808868Y638479D01*
X813884Y637275D01*
X819026Y636870D01*
X824168Y637275D01*
X829184Y638479D01*
X833949Y640453D01*
X834768Y640955D01*
X1100350Y635017D01*
X1248410Y619760D01*
Y567690D01*
X1213777Y544386D01*
X1105346Y601871D01*
X1058029Y546100D01*
X1058712Y542733D01*
X1057762Y540125D01*
X1057504Y537169D01*
X1058019Y534246D01*
X1059273Y531557D01*
X1061181Y529284D01*
X1061497Y528994D01*
X1068070Y496570D01*
X1097339Y456458D01*
X1101090Y448310D01*
X1113790Y435610D01*
X1099820Y421640D01*
X993140D01*
X993140Y458601D01*
X965099Y485906D01*
X965656Y487136D01*
X969026Y486870D01*
X974168Y487275D01*
X979184Y488479D01*
X983949Y490453D01*
X988347Y493148D01*
X992270Y496498D01*
X995619Y500420D01*
X998315Y504818D01*
X1000288Y509584D01*
X1001493Y514600D01*
X1001897Y519742D01*
X1001493Y524884D01*
X1000288Y529899D01*
X998315Y534665D01*
X995619Y539063D01*
X992270Y542985D01*
X988347Y546335D01*
X983949Y549030D01*
X979184Y551004D01*
X974168Y552208D01*
X969026Y552613D01*
X963884Y552208D01*
X958868Y551004D01*
X954103Y549030D01*
X949705Y546335D01*
X945782Y542985D01*
X942432Y539063D01*
X939737Y534665D01*
X937764Y529899D01*
X936559Y524884D01*
X936155Y519742D01*
X936485Y515540D01*
X935257Y514964D01*
X876315Y572358D01*
X822866Y518909D01*
X847188Y462395D01*
X827289Y427627D01*
X826031Y427459D01*
X736600Y516890D01*
X727162Y572358D01*
X790665Y641941D01*
X802092Y641685D01*
D02*
G37*
G36*
X1168232Y770079D02*
X1182716Y756552D01*
X1182410Y755319D01*
X1179599Y754561D01*
X1178765Y753919D01*
X1178630Y752876D01*
X1180479Y746021D01*
X1181120Y745187D01*
X1182164Y745052D01*
X1192146Y747744D01*
X1195880Y744257D01*
X1208713Y704693D01*
X1207659Y703984D01*
X1200656Y709900D01*
X1199654Y710219D01*
X1198719Y709736D01*
X1194137Y704312D01*
X1193818Y703310D01*
X1194301Y702375D01*
X1203873Y694290D01*
X1204034Y692537D01*
X1190482Y676920D01*
X1181023Y664315D01*
X1179764Y664152D01*
X1156083Y682877D01*
X1142651Y699770D01*
X1129491Y712931D01*
X1101788Y737257D01*
X1101747Y738527D01*
X1150620Y787400D01*
X1168232Y770079D01*
D02*
G37*
G36*
X773430Y642620D02*
Y625095D01*
X772039Y623570D01*
X753157D01*
X752909Y623941D01*
X752069Y624503D01*
X751078Y624700D01*
X747522D01*
X746531Y624503D01*
X745691Y623941D01*
X745443Y623570D01*
X742484D01*
X742373Y623644D01*
X741390Y623839D01*
X736890D01*
X736017Y623666D01*
X735204Y624382D01*
X735073Y624520D01*
Y637283D01*
X749300Y651510D01*
X764540D01*
X773430Y642620D01*
D02*
G37*
G36*
X881976Y560616D02*
X934428Y496862D01*
X948372Y457505D01*
X947765Y456390D01*
X902970Y445770D01*
X900294Y447186D01*
X900201Y448066D01*
X906526Y460218D01*
X906618Y461266D01*
X905942Y462072D01*
X899644Y465350D01*
X898596Y465442D01*
X897790Y464766D01*
X891742Y453148D01*
X890275Y452487D01*
X855618Y470825D01*
X831850Y511810D01*
Y513080D01*
X880708Y560685D01*
X881976Y560616D01*
D02*
G37*
G36*
X990687Y426543D02*
X988151Y426394D01*
X987973Y429437D01*
X990509Y429586D01*
X990687Y426543D01*
D02*
G37*
G36*
X1149889Y555721D02*
X1132890Y526902D01*
X1090370Y492760D01*
X1082709Y488525D01*
X1074112Y502662D01*
X1061923Y538278D01*
X1102608Y589046D01*
X1149889Y555721D01*
D02*
G37*
%LPC*%
G36*
X969026Y852613D02*
X963884Y852208D01*
X958868Y851004D01*
X954103Y849030D01*
X949705Y846335D01*
X945782Y842985D01*
X942432Y839063D01*
X939737Y834665D01*
X937764Y829900D01*
X936559Y824884D01*
X936155Y819742D01*
X936559Y814600D01*
X937764Y809584D01*
X939737Y804818D01*
X942432Y800420D01*
X945782Y796498D01*
X949705Y793148D01*
X954103Y790453D01*
X958868Y788479D01*
X963884Y787275D01*
X969026Y786870D01*
X974168Y787275D01*
X979184Y788479D01*
X983949Y790453D01*
X988347Y793148D01*
X992270Y796498D01*
X995619Y800420D01*
X998315Y804818D01*
X1000288Y809584D01*
X1001493Y814600D01*
X1001897Y819742D01*
X1001493Y824884D01*
X1000288Y829900D01*
X998315Y834665D01*
X995619Y839063D01*
X992270Y842985D01*
X988347Y846335D01*
X983949Y849030D01*
X979184Y851004D01*
X974168Y852208D01*
X969026Y852613D01*
D02*
G37*
G36*
X1195070Y804955D02*
X1194184Y804778D01*
X1193433Y804277D01*
X1192932Y803526D01*
X1192815Y802937D01*
X1186888Y797010D01*
X1185439Y796979D01*
X1183884Y796295D01*
X1173235Y788838D01*
X1172061Y787611D01*
X1171445Y786028D01*
X1171482Y784330D01*
X1172166Y782775D01*
X1173393Y781600D01*
X1174977Y780984D01*
X1176675Y781022D01*
X1178230Y781706D01*
X1188879Y789162D01*
X1190053Y790389D01*
X1190669Y791973D01*
X1190632Y793671D01*
X1190027Y795045D01*
X1195367Y800385D01*
X1195956Y800502D01*
X1196707Y801003D01*
X1197208Y801754D01*
X1197384Y802640D01*
X1197208Y803526D01*
X1196707Y804277D01*
X1195956Y804778D01*
X1195070Y804955D01*
D02*
G37*
G36*
X725561Y839300D02*
X724589Y838897D01*
X716811Y831119D01*
X716408Y830147D01*
X716811Y829175D01*
X720674Y825312D01*
X720838Y824486D01*
X721340Y823736D01*
X722091Y823234D01*
X722544Y823144D01*
X722634Y822690D01*
X723136Y821939D01*
X723886Y821438D01*
X724339Y821348D01*
X724429Y820894D01*
X724931Y820143D01*
X725682Y819641D01*
X726136Y819551D01*
X726226Y819098D01*
X726728Y818347D01*
X727478Y817845D01*
X727932Y817755D01*
X728022Y817302D01*
X728523Y816551D01*
X729274Y816049D01*
X729728Y815959D01*
X729818Y815506D01*
X730320Y814755D01*
X731071Y814253D01*
X731524Y814163D01*
X731614Y813710D01*
X732116Y812959D01*
X732867Y812458D01*
X733319Y812367D01*
X733410Y811914D01*
X733911Y811163D01*
X734662Y810661D01*
X735116Y810571D01*
X735206Y810118D01*
X735708Y809367D01*
X736459Y808865D01*
X736912Y808775D01*
X737002Y808322D01*
X737504Y807571D01*
X738254Y807069D01*
X738708Y806979D01*
X738798Y806526D01*
X739300Y805775D01*
X740051Y805273D01*
X740504Y805183D01*
X740594Y804730D01*
X741096Y803979D01*
X741846Y803477D01*
X742300Y803387D01*
X742390Y802934D01*
X742892Y802183D01*
X743643Y801681D01*
X744096Y801591D01*
X744186Y801138D01*
X744688Y800387D01*
X745439Y799885D01*
X745892Y799795D01*
X745982Y799342D01*
X746484Y798591D01*
X747235Y798089D01*
X747688Y797999D01*
X747778Y797546D01*
X748280Y796795D01*
X749031Y796293D01*
X749484Y796203D01*
X749574Y795750D01*
X750076Y794999D01*
X750827Y794497D01*
X751280Y794407D01*
X751370Y793954D01*
X751872Y793203D01*
X752623Y792701D01*
X753449Y792537D01*
X759325Y786661D01*
X760297Y786258D01*
X761270Y786661D01*
X769048Y794439D01*
X769450Y795411D01*
X769048Y796383D01*
X762908Y802523D01*
X762831Y802909D01*
X762329Y803660D01*
X761578Y804162D01*
X761192Y804239D01*
X761112Y804318D01*
X761035Y804705D01*
X760534Y805456D01*
X759783Y805958D01*
X759395Y806035D01*
X759316Y806115D01*
X759239Y806501D01*
X758737Y807252D01*
X757986Y807754D01*
X757599Y807831D01*
X757520Y807910D01*
X757443Y808298D01*
X756941Y809048D01*
X756190Y809550D01*
X755803Y809627D01*
X755724Y809707D01*
X755647Y810093D01*
X755145Y810844D01*
X754394Y811346D01*
X754008Y811423D01*
X753928Y811503D01*
X753851Y811889D01*
X753349Y812640D01*
X752598Y813142D01*
X752212Y813219D01*
X752132Y813299D01*
X752055Y813685D01*
X751553Y814436D01*
X750802Y814938D01*
X750349Y815028D01*
X750259Y815481D01*
X749757Y816232D01*
X749006Y816734D01*
X748553Y816824D01*
X748463Y817277D01*
X747961Y818028D01*
X747210Y818530D01*
X746757Y818620D01*
X746667Y819073D01*
X746165Y819824D01*
X745414Y820326D01*
X744961Y820416D01*
X744871Y820870D01*
X744369Y821621D01*
X743618Y822122D01*
X743231Y822199D01*
X743151Y822279D01*
X743074Y822665D01*
X742573Y823416D01*
X741822Y823918D01*
X741435Y823995D01*
X741356Y824075D01*
X741279Y824462D01*
X740777Y825213D01*
X740026Y825714D01*
X739639Y825791D01*
X739559Y825871D01*
X739482Y826258D01*
X738981Y827009D01*
X738230Y827510D01*
X737843Y827587D01*
X737764Y827667D01*
X737687Y828054D01*
X737185Y828805D01*
X736434Y829306D01*
X736047Y829383D01*
X735967Y829463D01*
X735890Y829850D01*
X735389Y830601D01*
X734638Y831102D01*
X734251Y831179D01*
X734171Y831259D01*
X734094Y831646D01*
X733593Y832396D01*
X732842Y832898D01*
X732455Y832975D01*
X732375Y833055D01*
X732298Y833442D01*
X731797Y834193D01*
X731046Y834695D01*
X730658Y834772D01*
X726533Y838897D01*
X725561Y839300D01*
D02*
G37*
G36*
X1179853Y807419D02*
X1178155Y807382D01*
X1176600Y806698D01*
X1165951Y799241D01*
X1164776Y798014D01*
X1164160Y796431D01*
X1164197Y794733D01*
X1164882Y793178D01*
X1166109Y792003D01*
X1167692Y791388D01*
X1169390Y791425D01*
X1170945Y792109D01*
X1181594Y799565D01*
X1182769Y800792D01*
X1183384Y802376D01*
X1183347Y804074D01*
X1182663Y805629D01*
X1181436Y806804D01*
X1179853Y807419D01*
D02*
G37*
G36*
X876300Y842060D02*
X875309Y841863D01*
X874469Y841301D01*
X873907Y840461D01*
X873710Y839470D01*
Y830580D01*
X873907Y829589D01*
X874469Y828749D01*
X906730Y796487D01*
Y709733D01*
X906219Y709221D01*
X905657Y708381D01*
X905460Y707390D01*
X905657Y706399D01*
X906219Y705559D01*
X907059Y704997D01*
X908050Y704800D01*
X909041Y704997D01*
X909881Y705559D01*
X911151Y706829D01*
X911713Y707669D01*
X911910Y708660D01*
Y797560D01*
X911713Y798551D01*
X911151Y799391D01*
X879669Y830874D01*
X879736Y831231D01*
X879851Y831386D01*
X881195Y832112D01*
X881380Y832076D01*
X882266Y832252D01*
X883017Y832753D01*
X883518Y833504D01*
X883695Y834390D01*
X883518Y835276D01*
X883017Y836027D01*
X882266Y836528D01*
X881380Y836704D01*
X880494Y836528D01*
X880160Y836305D01*
X878902Y836856D01*
X878890Y836867D01*
Y839470D01*
X878693Y840461D01*
X878131Y841301D01*
X877291Y841863D01*
X876300Y842060D01*
D02*
G37*
G36*
X1085403Y866696D02*
X1082461Y866309D01*
X1079720Y865173D01*
X1077365Y863367D01*
X1063223Y849224D01*
X1062791Y848661D01*
X1061967Y848607D01*
X1061196Y848926D01*
X1060995Y849010D01*
X1060023Y848607D01*
X1060023Y848607D01*
X1053256Y841840D01*
X1052741Y841626D01*
X1043054Y831939D01*
X1043054Y831939D01*
X1042840Y831424D01*
X1041063Y829647D01*
X1040660Y828675D01*
X1041063Y827703D01*
X1041063Y827703D01*
X1075988Y792778D01*
X1076013Y792767D01*
X1076025Y792743D01*
X1076495Y792568D01*
X1076960Y792375D01*
X1076985Y792386D01*
X1077011Y792376D01*
X1105176Y793421D01*
X1105633Y793630D01*
X1106098Y793822D01*
X1106758Y794483D01*
X1109559Y794851D01*
X1112300Y795987D01*
X1114654Y797793D01*
X1128797Y811936D01*
X1130603Y814290D01*
X1131739Y817031D01*
X1132126Y819973D01*
X1131739Y822915D01*
X1130603Y825657D01*
X1128797Y828011D01*
X1093441Y863367D01*
X1091087Y865173D01*
X1088345Y866309D01*
X1085403Y866696D01*
D02*
G37*
G36*
X1165284Y828226D02*
X1163586Y828189D01*
X1162031Y827505D01*
X1151382Y820048D01*
X1150207Y818821D01*
X1149592Y817238D01*
X1149629Y815539D01*
X1150313Y813985D01*
X1151540Y812810D01*
X1153123Y812194D01*
X1154821Y812231D01*
X1156376Y812915D01*
X1167025Y820372D01*
X1168200Y821599D01*
X1168815Y823182D01*
X1168778Y824881D01*
X1168094Y826435D01*
X1166867Y827610D01*
X1165284Y828226D01*
D02*
G37*
G36*
X1174750Y818924D02*
X1173864Y818748D01*
X1173113Y818247D01*
X1172776Y817742D01*
X1172569Y817822D01*
X1170870Y817785D01*
X1169315Y817101D01*
X1158667Y809645D01*
X1157492Y808418D01*
X1156876Y806834D01*
X1156913Y805136D01*
X1157597Y803581D01*
X1158824Y802407D01*
X1160408Y801791D01*
X1162106Y801828D01*
X1163661Y802512D01*
X1174310Y809969D01*
X1175484Y811196D01*
X1176100Y812779D01*
X1176063Y814477D01*
X1175968Y814694D01*
X1176387Y814973D01*
X1176888Y815724D01*
X1177065Y816610D01*
X1176888Y817496D01*
X1176387Y818247D01*
X1175636Y818748D01*
X1174750Y818924D01*
D02*
G37*
G36*
X698338Y683068D02*
X696738D01*
X695930Y682907D01*
X695245Y682450D01*
X694788Y681765D01*
X694627Y680957D01*
Y678958D01*
X694788Y678150D01*
X695245Y677465D01*
X695595Y677231D01*
Y671496D01*
X695266Y671003D01*
X695071Y670020D01*
Y665520D01*
X695257Y664580D01*
X695123Y664393D01*
X694517Y663787D01*
X694330Y663652D01*
X693390Y663839D01*
X691243D01*
X691140Y663860D01*
X685825D01*
X685521Y664063D01*
X684530Y664260D01*
X683539Y664063D01*
X682699Y663501D01*
X682137Y662661D01*
X681940Y661670D01*
X682137Y660679D01*
X682699Y659839D01*
X682837Y659700D01*
X682537Y658670D01*
X682361Y658430D01*
X681450D01*
X680642Y658270D01*
X679958Y657812D01*
X679958D01*
X679682Y658039D01*
X679557Y658227D01*
X678806Y658728D01*
X677920Y658904D01*
X677035Y658728D01*
X676589Y658430D01*
X675850D01*
X675042Y658270D01*
X674358Y657812D01*
X673990Y657262D01*
X671377D01*
Y657464D01*
X671160Y658554D01*
X670543Y659478D01*
X669618Y660096D01*
X668528Y660313D01*
X662432D01*
X661342Y660096D01*
X660418Y659478D01*
X659800Y658554D01*
X659583Y657464D01*
Y654416D01*
X659800Y653326D01*
X660418Y652402D01*
X661342Y651784D01*
X662432Y651567D01*
X668528D01*
X669618Y651784D01*
X670543Y652402D01*
X671160Y653326D01*
X671170Y653378D01*
X673990D01*
X674358Y652828D01*
X674968Y652420D01*
Y649350D01*
X674418Y648982D01*
X673960Y648298D01*
X673799Y647490D01*
Y645890D01*
X673960Y645082D01*
X674418Y644398D01*
X675102Y643940D01*
X675910Y643780D01*
X677910D01*
X678718Y643940D01*
X679402Y644398D01*
X679860Y645082D01*
X680021Y645890D01*
Y647490D01*
X679860Y648298D01*
X679402Y648982D01*
X678852Y649350D01*
Y652196D01*
X679437Y652530D01*
X680122Y652718D01*
X680642Y652370D01*
X681450Y652209D01*
X683050D01*
X683858Y652370D01*
X684542Y652828D01*
X685000Y653512D01*
X685161Y654320D01*
Y654327D01*
X686644D01*
X687019Y653243D01*
X687045Y653105D01*
X686999Y652975D01*
X686516Y652253D01*
X686320Y651270D01*
X686516Y650287D01*
X687073Y649453D01*
X687907Y648896D01*
X688890Y648701D01*
X693390D01*
X694373Y648896D01*
X695207Y649453D01*
X695764Y650287D01*
X695959Y651270D01*
X695764Y652253D01*
X695207Y653087D01*
X695207Y654453D01*
X695764Y655286D01*
X695959Y656270D01*
X695764Y657253D01*
X695207Y658087D01*
X695207Y659453D01*
X695764Y660287D01*
X695959Y661270D01*
X695772Y662209D01*
X695907Y662396D01*
X696514Y663003D01*
X696700Y663137D01*
X697640Y662951D01*
X698623Y663146D01*
X699457Y663703D01*
X700014Y664537D01*
X700209Y665520D01*
Y670020D01*
X700014Y671003D01*
X699480Y671802D01*
Y677231D01*
X699830Y677465D01*
X700288Y678150D01*
X700448Y678958D01*
Y680957D01*
X700288Y681765D01*
X699830Y682450D01*
X699145Y682907D01*
X698338Y683068D01*
D02*
G37*
G36*
X852170Y755424D02*
X851284Y755248D01*
X850533Y754747D01*
X850032Y753996D01*
X849915Y753407D01*
X836182Y739675D01*
X779895D01*
X779396Y740008D01*
X778510Y740184D01*
X777624Y740008D01*
X776873Y739507D01*
X776372Y738756D01*
X776196Y737870D01*
X776372Y736984D01*
X776873Y736233D01*
X777624Y735732D01*
X778510Y735555D01*
X779396Y735732D01*
X779895Y736065D01*
X836930D01*
X837621Y736203D01*
X838206Y736594D01*
X852467Y750855D01*
X853056Y750972D01*
X853807Y751473D01*
X854308Y752224D01*
X854484Y753110D01*
X854308Y753996D01*
X853807Y754747D01*
X853056Y755248D01*
X852170Y755424D01*
D02*
G37*
G36*
X691140Y628860D02*
X685960D01*
X684969Y628663D01*
X684129Y628101D01*
X683567Y627261D01*
X683370Y626270D01*
Y622140D01*
X683567Y621149D01*
X684129Y620309D01*
X684969Y619747D01*
X685960Y619550D01*
X686951Y619747D01*
X687791Y620309D01*
X688353Y621149D01*
X688550Y622140D01*
Y623680D01*
X691140D01*
X691243Y623701D01*
X693390D01*
X694373Y623896D01*
X695207Y624453D01*
X695764Y625287D01*
X695959Y626270D01*
X695764Y627253D01*
X695207Y628087D01*
X694373Y628644D01*
X693390Y628839D01*
X691243D01*
X691140Y628860D01*
D02*
G37*
G36*
X937260Y765584D02*
X936374Y765408D01*
X935623Y764907D01*
X935122Y764156D01*
X934946Y763270D01*
X935122Y762384D01*
X935623Y761633D01*
X936374Y761132D01*
X937260Y760956D01*
X938146Y761132D01*
X938897Y761633D01*
X939398Y762384D01*
X939575Y763270D01*
X939398Y764156D01*
X938897Y764907D01*
X938146Y765408D01*
X937260Y765584D01*
D02*
G37*
G36*
X685778Y791222D02*
X684806Y790819D01*
X674765Y780779D01*
X672691Y780575D01*
X669624Y779644D01*
X669004Y779313D01*
X668906Y779378D01*
X668020Y779555D01*
X667134Y779378D01*
X666750Y779121D01*
X666366Y779378D01*
X665480Y779555D01*
X664594Y779378D01*
X664210Y779121D01*
X663825Y779379D01*
X662940Y779555D01*
X662054Y779379D01*
X661303Y778877D01*
X660801Y778126D01*
X660625Y777240D01*
X660801Y776355D01*
X661059Y775970D01*
X660802Y775585D01*
X660626Y774700D01*
X660802Y773814D01*
X661058Y773430D01*
X660801Y773046D01*
X660625Y772160D01*
X660801Y771274D01*
X660929Y771083D01*
X660776Y770796D01*
X659845Y767729D01*
X659531Y764540D01*
Y734060D01*
Y723900D01*
X659845Y720711D01*
X660776Y717644D01*
X662287Y714817D01*
X664320Y712340D01*
X666797Y710307D01*
X669624Y708796D01*
X672573Y707901D01*
X672777Y707704D01*
X673407Y706532D01*
X673326Y706120D01*
X673502Y705234D01*
X673758Y704850D01*
X673502Y704466D01*
X673326Y703580D01*
X673502Y702694D01*
X674004Y701944D01*
X674754Y701442D01*
X675640Y701266D01*
X676526Y701442D01*
X676910Y701699D01*
X677294Y701442D01*
X678180Y701265D01*
X679066Y701442D01*
X679450Y701699D01*
X679834Y701442D01*
X680720Y701265D01*
X681606Y701442D01*
X681990Y701699D01*
X682374Y701442D01*
X683260Y701266D01*
X684146Y701442D01*
X684530Y701699D01*
X684914Y701442D01*
X685800Y701266D01*
X686685Y701442D01*
X687436Y701944D01*
X687938Y702694D01*
X688114Y703580D01*
X687938Y704466D01*
X687682Y704850D01*
X687938Y705234D01*
X688114Y706120D01*
X687938Y707006D01*
X687682Y707390D01*
X687938Y707774D01*
X688114Y708660D01*
X687938Y709546D01*
X687682Y709930D01*
X687938Y710314D01*
X688114Y711200D01*
X687938Y712086D01*
X687682Y712470D01*
X687939Y712854D01*
X687963Y712976D01*
X689473Y714817D01*
X690984Y717644D01*
X691915Y720711D01*
X692229Y723900D01*
Y734060D01*
Y748687D01*
X694020D01*
X694975Y747733D01*
X695092Y747144D01*
X695593Y746393D01*
X696344Y745892D01*
X697230Y745715D01*
X698116Y745892D01*
X698867Y746393D01*
X699368Y747144D01*
X699545Y748030D01*
X699368Y748916D01*
X698867Y749667D01*
X698533Y749889D01*
X698605Y750062D01*
Y756158D01*
X698202Y757130D01*
X697230Y757533D01*
X692229D01*
Y760117D01*
X697230D01*
X698202Y760520D01*
X698605Y761492D01*
Y767588D01*
X698202Y768560D01*
X698186Y768614D01*
X698604Y769240D01*
X698780Y770126D01*
X698604Y771011D01*
X698102Y771762D01*
X697351Y772264D01*
X696466Y772440D01*
X695580Y772264D01*
X694829Y771762D01*
X694327Y771011D01*
X694210Y770422D01*
X693414Y769626D01*
X693023Y769041D01*
X691776Y769140D01*
X691438Y769299D01*
X690984Y770796D01*
X689473Y773623D01*
X687440Y776100D01*
X687415Y776609D01*
X693215Y782409D01*
X693618Y783381D01*
X693215Y784353D01*
X686750Y790819D01*
X685778Y791222D01*
D02*
G37*
G36*
X707310Y768963D02*
X702230D01*
X701258Y768560D01*
X700855Y767588D01*
Y761492D01*
X701258Y760520D01*
X701973Y760224D01*
X701821Y759460D01*
X701997Y758574D01*
X701396Y757187D01*
X701258Y757130D01*
X700855Y756158D01*
Y750062D01*
X701258Y749090D01*
X702230Y748687D01*
X707310D01*
X708282Y749090D01*
X708685Y750062D01*
Y756158D01*
X708282Y757130D01*
X707310Y757533D01*
X706575D01*
Y760117D01*
X707310D01*
X708282Y760520D01*
X708685Y761492D01*
Y767588D01*
X708282Y768560D01*
X707310Y768963D01*
D02*
G37*
G36*
X842010Y761775D02*
X841124Y761598D01*
X840625Y761265D01*
X770890D01*
X770199Y761127D01*
X769614Y760736D01*
X769223Y760151D01*
X769085Y759460D01*
Y755765D01*
X768752Y755266D01*
X768576Y754380D01*
X768752Y753494D01*
X769253Y752743D01*
X770004Y752242D01*
X770890Y752066D01*
X771776Y752242D01*
X772527Y752743D01*
X773028Y753494D01*
X773204Y754380D01*
X773028Y755266D01*
X772695Y755765D01*
Y757655D01*
X840625D01*
X841124Y757322D01*
X842010Y757145D01*
X842896Y757322D01*
X843647Y757823D01*
X844148Y758574D01*
X844324Y759460D01*
X844148Y760346D01*
X843647Y761097D01*
X842896Y761598D01*
X842010Y761775D01*
D02*
G37*
G36*
X891540Y853214D02*
X890654Y853038D01*
X889903Y852537D01*
X889402Y851786D01*
X889285Y851197D01*
X886934Y848846D01*
X886510Y848931D01*
X884910D01*
X884102Y848770D01*
X883418Y848312D01*
X882960Y847628D01*
X882800Y846820D01*
Y844820D01*
X882960Y844012D01*
X883418Y843328D01*
X884102Y842870D01*
X884910Y842709D01*
X885720D01*
X886105Y841439D01*
X885899Y841301D01*
X885337Y840461D01*
X885140Y839470D01*
X885337Y838479D01*
X885899Y837639D01*
X886739Y837077D01*
X887730Y836880D01*
X894277D01*
X989280Y741877D01*
Y717550D01*
X989477Y716559D01*
X989664Y716280D01*
X989477Y716001D01*
X989280Y715010D01*
X989477Y714019D01*
X990039Y713179D01*
X990879Y712617D01*
X991870Y712420D01*
X994410D01*
X995401Y712617D01*
X996241Y713179D01*
X996803Y714019D01*
X997000Y715010D01*
X996803Y716001D01*
X996241Y716841D01*
X994460Y718623D01*
Y742950D01*
X994263Y743941D01*
X993701Y744781D01*
X897181Y841301D01*
X896341Y841863D01*
X895350Y842060D01*
X888391D01*
X888002Y843328D01*
X888460Y844012D01*
X888621Y844820D01*
Y845428D01*
X891837Y848645D01*
X892426Y848762D01*
X893177Y849263D01*
X893678Y850014D01*
X893855Y850900D01*
X893678Y851786D01*
X893177Y852537D01*
X892426Y853038D01*
X891540Y853214D01*
D02*
G37*
G36*
X979170Y924743D02*
X977504Y924412D01*
X976092Y923468D01*
X975148Y922056D01*
X974816Y920390D01*
Y907390D01*
X975148Y905724D01*
X976092Y904311D01*
X977504Y903368D01*
X979170Y903036D01*
X980836Y903368D01*
X982249Y904311D01*
X983192Y905724D01*
X983524Y907390D01*
Y920390D01*
X983192Y922056D01*
X982249Y923468D01*
X980836Y924412D01*
X979170Y924743D01*
D02*
G37*
G36*
X953770Y924744D02*
X952104Y924412D01*
X950692Y923468D01*
X949748Y922056D01*
X949416Y920390D01*
Y907390D01*
X949748Y905724D01*
X950692Y904312D01*
X952104Y903368D01*
X953770Y903036D01*
X955436Y903368D01*
X956849Y904312D01*
X957792Y905724D01*
X958124Y907390D01*
Y920390D01*
X957792Y922056D01*
X956849Y923468D01*
X955436Y924412D01*
X953770Y924744D01*
D02*
G37*
G36*
X1017270Y924744D02*
X1015604Y924412D01*
X1014192Y923468D01*
X1013248Y922056D01*
X1012916Y920390D01*
Y907390D01*
X1013248Y905724D01*
X1014192Y904312D01*
X1015604Y903368D01*
X1017270Y903036D01*
X1018936Y903368D01*
X1020349Y904312D01*
X1021292Y905724D01*
X1021624Y907390D01*
Y920390D01*
X1021292Y922056D01*
X1020349Y923468D01*
X1018936Y924412D01*
X1017270Y924744D01*
D02*
G37*
G36*
X859790Y904990D02*
X858799Y904793D01*
X857959Y904232D01*
X857397Y903391D01*
X857200Y902400D01*
X857397Y901409D01*
X857959Y900569D01*
X859370Y899158D01*
X859257Y898989D01*
X859097Y898181D01*
X859257Y897374D01*
X859715Y896689D01*
X861129Y895275D01*
X861814Y894817D01*
X862621Y894657D01*
X863429Y894817D01*
X864114Y895275D01*
X865245Y896406D01*
X865703Y897091D01*
X865863Y897898D01*
X865703Y898706D01*
X865245Y899391D01*
X865070Y899566D01*
Y899710D01*
X864872Y900702D01*
X864311Y901542D01*
X861621Y904232D01*
X860781Y904793D01*
X859790Y904990D01*
D02*
G37*
G36*
X905219Y904933D02*
X904411Y904773D01*
X903726Y904315D01*
X902595Y903184D01*
X902137Y902499D01*
X901977Y901692D01*
X902137Y900884D01*
X902595Y900199D01*
X904009Y898785D01*
X904694Y898327D01*
X905502Y898167D01*
X905927Y898251D01*
X906413Y897523D01*
X906528Y896079D01*
X906214Y895614D01*
X904831D01*
X904402Y895901D01*
X903594Y896062D01*
X902787Y895901D01*
X902102Y895443D01*
X900688Y894029D01*
X900230Y893345D01*
X900070Y892537D01*
X900230Y891729D01*
X900688Y891045D01*
X901819Y889913D01*
X902504Y889456D01*
X903311Y889295D01*
X904119Y889456D01*
X904804Y889913D01*
X906218Y891327D01*
X906480Y891720D01*
X907748Y891488D01*
X907852Y891384D01*
X908438Y890993D01*
X909128Y890855D01*
X913209D01*
X914169Y889895D01*
X914854Y889437D01*
X915662Y889277D01*
X916469Y889437D01*
X917154Y889895D01*
X918285Y891026D01*
X918743Y891711D01*
X918904Y892519D01*
X918743Y893326D01*
X918285Y894011D01*
X916871Y895425D01*
X916187Y895883D01*
X915379Y896043D01*
X914571Y895883D01*
X913886Y895425D01*
X912926Y894465D01*
X910163D01*
X910117Y894696D01*
X909615Y895446D01*
X909136Y895767D01*
X909038Y896377D01*
X909049Y896730D01*
X909153Y897167D01*
X909687Y897523D01*
X910188Y898274D01*
X910365Y899160D01*
X910188Y900046D01*
X909687Y900797D01*
X908936Y901298D01*
X908730Y901339D01*
X908744Y901409D01*
X908583Y902216D01*
X908125Y902901D01*
X906711Y904315D01*
X906026Y904773D01*
X905219Y904933D01*
D02*
G37*
G36*
X876591Y911283D02*
X875784Y911123D01*
X875099Y910665D01*
X873685Y909251D01*
X873227Y908566D01*
X873171Y908284D01*
X872987Y908100D01*
X872490D01*
X871499Y907903D01*
X870659Y907341D01*
X870097Y906501D01*
X869900Y905510D01*
X870097Y904519D01*
X870659Y903679D01*
X871499Y903117D01*
X872490Y902920D01*
X874060D01*
X875051Y903117D01*
X875891Y903679D01*
X876833Y904621D01*
X877116Y904678D01*
X877801Y905135D01*
X879215Y906549D01*
X879672Y907234D01*
X879833Y908042D01*
X879672Y908849D01*
X879215Y909534D01*
X878084Y910665D01*
X877399Y911123D01*
X876591Y911283D01*
D02*
G37*
G36*
X885190Y924334D02*
X884304Y924158D01*
X883553Y923657D01*
X883052Y922906D01*
X882876Y922020D01*
X883052Y921134D01*
X883393Y920623D01*
X881873Y919103D01*
X881471Y918131D01*
X881873Y917159D01*
X885409Y913623D01*
X886381Y913221D01*
X887353Y913623D01*
X891596Y917866D01*
X891998Y918838D01*
X891596Y919810D01*
X888060Y923346D01*
X887088Y923748D01*
X886835Y923644D01*
X886827Y923657D01*
X886076Y924158D01*
X885190Y924334D01*
D02*
G37*
G36*
X919480Y926874D02*
X918594Y926698D01*
X917843Y926197D01*
X917342Y925446D01*
X917166Y924560D01*
X917342Y923674D01*
X917843Y922923D01*
X918594Y922422D01*
X919480Y922245D01*
X920366Y922422D01*
X921117Y922923D01*
X921618Y923674D01*
X921795Y924560D01*
X921618Y925446D01*
X921117Y926197D01*
X920366Y926698D01*
X919480Y926874D01*
D02*
G37*
G36*
X916940Y947195D02*
X916054Y947018D01*
X915303Y946517D01*
X914802Y945766D01*
X914625Y944880D01*
X914802Y943994D01*
X915303Y943243D01*
X916054Y942742D01*
X916940Y942566D01*
X916985Y942574D01*
X917240Y942524D01*
X917931Y942661D01*
X918516Y943053D01*
X918907Y943638D01*
X918936Y943781D01*
X919078Y943994D01*
X919255Y944880D01*
X919078Y945766D01*
X918577Y946517D01*
X917826Y947018D01*
X916940Y947195D01*
D02*
G37*
G36*
X966470Y924744D02*
X964804Y924412D01*
X963392Y923468D01*
X962448Y922056D01*
X962116Y920390D01*
Y907390D01*
X962448Y905724D01*
X963392Y904312D01*
X964804Y903368D01*
X966470Y903036D01*
X968136Y903368D01*
X969549Y904312D01*
X970492Y905724D01*
X970824Y907390D01*
Y920390D01*
X970492Y922056D01*
X969549Y923468D01*
X968136Y924412D01*
X966470Y924744D01*
D02*
G37*
G36*
X991870Y924744D02*
X990204Y924412D01*
X988792Y923468D01*
X987848Y922056D01*
X987516Y920390D01*
Y907390D01*
X987848Y905724D01*
X988792Y904312D01*
X990204Y903368D01*
X991870Y903036D01*
X993536Y903368D01*
X994949Y904312D01*
X995892Y905724D01*
X996224Y907390D01*
Y920390D01*
X995892Y922056D01*
X994949Y923468D01*
X993536Y924412D01*
X991870Y924744D01*
D02*
G37*
G36*
X904240Y915444D02*
X903354Y915268D01*
X902603Y914767D01*
X902102Y914016D01*
X902027Y913638D01*
X901246Y912693D01*
X900438Y912853D01*
X899631Y912693D01*
X898946Y912235D01*
X897815Y911104D01*
X897357Y910419D01*
X897196Y909611D01*
X897357Y908804D01*
X897815Y908119D01*
X899229Y906705D01*
X899913Y906247D01*
X900721Y906087D01*
X901529Y906247D01*
X902214Y906705D01*
X903345Y907836D01*
X903802Y908521D01*
X903963Y909329D01*
X903802Y910136D01*
X904748Y910917D01*
X905126Y910992D01*
X905877Y911493D01*
X906378Y912244D01*
X906554Y913130D01*
X906378Y914016D01*
X905877Y914767D01*
X905126Y915268D01*
X904240Y915444D01*
D02*
G37*
G36*
X1069741Y906704D02*
X1068045Y906593D01*
X1066522Y905842D01*
X1065402Y904565D01*
X1058902Y893306D01*
X1058356Y891698D01*
X1058467Y890003D01*
X1059218Y888479D01*
X1060495Y887359D01*
X1062104Y886813D01*
X1063799Y886924D01*
X1065323Y887676D01*
X1066443Y888953D01*
X1072943Y900211D01*
X1073489Y901820D01*
X1073378Y903515D01*
X1072626Y905038D01*
X1071349Y906158D01*
X1069741Y906704D01*
D02*
G37*
G36*
X908618Y880393D02*
X907811Y880233D01*
X907126Y879775D01*
X905995Y878644D01*
X905537Y877959D01*
X905377Y877151D01*
X905537Y876344D01*
X905995Y875659D01*
X907409Y874245D01*
X907719Y874037D01*
X908146Y873398D01*
X908897Y872896D01*
X909783Y872720D01*
X910669Y872896D01*
X911420Y873398D01*
X911921Y874149D01*
X912097Y875035D01*
X911921Y875920D01*
X911905Y875945D01*
X911983Y876061D01*
X912143Y876869D01*
X911983Y877676D01*
X911525Y878361D01*
X910111Y879775D01*
X909426Y880233D01*
X908618Y880393D01*
D02*
G37*
G36*
X877570Y879884D02*
X876684Y879708D01*
X875933Y879207D01*
X875432Y878456D01*
X875315Y877867D01*
X871357Y873910D01*
X871209Y873971D01*
X870237Y873569D01*
X865994Y869326D01*
X865994Y869326D01*
X865592Y868354D01*
X865994Y867382D01*
X869883Y863493D01*
X869883Y863493D01*
X870855Y863090D01*
X871827Y863493D01*
X876070Y867735D01*
X876070Y867735D01*
X876473Y868708D01*
X876070Y869679D01*
X874151Y871599D01*
X877867Y875315D01*
X878456Y875432D01*
X879207Y875933D01*
X879708Y876684D01*
X879884Y877570D01*
X879708Y878456D01*
X879207Y879207D01*
X878456Y879708D01*
X877570Y879884D01*
D02*
G37*
G36*
X1102736Y887654D02*
X1101041Y887543D01*
X1099518Y886792D01*
X1098398Y885515D01*
X1091898Y874257D01*
X1091351Y872648D01*
X1091463Y870953D01*
X1092214Y869429D01*
X1093491Y868309D01*
X1095100Y867763D01*
X1096795Y867874D01*
X1098318Y868626D01*
X1099438Y869903D01*
X1105938Y881161D01*
X1106484Y882770D01*
X1106373Y884465D01*
X1105622Y885988D01*
X1104345Y887108D01*
X1102736Y887654D01*
D02*
G37*
G36*
X882876Y862304D02*
X881904Y861901D01*
X877662Y857659D01*
X877662Y857659D01*
X877259Y856687D01*
X877662Y855715D01*
X881551Y851826D01*
X881551Y851826D01*
X882523Y851423D01*
X883495Y851826D01*
X887737Y856068D01*
X887737Y856068D01*
X888140Y857040D01*
X887769Y857935D01*
X888097Y858153D01*
X888598Y858904D01*
X888774Y859790D01*
X888598Y860676D01*
X888097Y861427D01*
X887346Y861928D01*
X886460Y862104D01*
X885574Y861928D01*
X885022Y861559D01*
X883848Y861901D01*
X882876Y862304D01*
D02*
G37*
G36*
X1124733Y874954D02*
X1123038Y874843D01*
X1121515Y874092D01*
X1120395Y872815D01*
X1113895Y861556D01*
X1113473Y860313D01*
X1109843Y856683D01*
X1109596Y856848D01*
X1108710Y857025D01*
X1107824Y856848D01*
X1107073Y856347D01*
X1106572Y855596D01*
X1106395Y854710D01*
X1106572Y853824D01*
X1107073Y853073D01*
X1107824Y852572D01*
X1108710Y852395D01*
X1109596Y852572D01*
X1109889Y852768D01*
X1110616D01*
X1111359Y852915D01*
X1111990Y853337D01*
X1114835Y856182D01*
X1115488Y855609D01*
X1117097Y855063D01*
X1118792Y855174D01*
X1120315Y855926D01*
X1121435Y857203D01*
X1127935Y868461D01*
X1128481Y870070D01*
X1128370Y871765D01*
X1127619Y873288D01*
X1126342Y874408D01*
X1124733Y874954D01*
D02*
G37*
G36*
X858939Y884053D02*
X858131Y883893D01*
X857446Y883435D01*
X856315Y882304D01*
X855857Y881619D01*
X855697Y880811D01*
X855857Y880004D01*
X856315Y879319D01*
X857729Y877905D01*
X858414Y877447D01*
X859221Y877287D01*
X859725Y877387D01*
X859895Y877353D01*
X860781Y877529D01*
X861532Y878031D01*
X862033Y878782D01*
X862185Y879545D01*
X862303Y879721D01*
X862463Y880529D01*
X862303Y881336D01*
X861845Y882021D01*
X860431Y883435D01*
X859746Y883893D01*
X858939Y884053D01*
D02*
G37*
G36*
X1080739Y900354D02*
X1079044Y900243D01*
X1077521Y899492D01*
X1076400Y898215D01*
X1069901Y886956D01*
X1069354Y885348D01*
X1069465Y883653D01*
X1070217Y882129D01*
X1071494Y881009D01*
X1073103Y880463D01*
X1074798Y880574D01*
X1076321Y881326D01*
X1077441Y882603D01*
X1083941Y893861D01*
X1084487Y895470D01*
X1084376Y897165D01*
X1084258Y897404D01*
X1084354Y897890D01*
X1084178Y898776D01*
X1083677Y899527D01*
X1082926Y900028D01*
X1082040Y900204D01*
X1081498Y900097D01*
X1080739Y900354D01*
D02*
G37*
G36*
X937260Y882424D02*
X936374Y882248D01*
X935623Y881747D01*
X935275Y881225D01*
X934938Y881029D01*
X934483Y880902D01*
X933788Y880799D01*
X933454Y881023D01*
X932646Y881183D01*
X931838Y881023D01*
X931153Y880565D01*
X929739Y879151D01*
X929282Y878466D01*
X929121Y877658D01*
X929282Y876851D01*
X929739Y876166D01*
X930871Y875035D01*
X931555Y874577D01*
X932363Y874417D01*
X933171Y874577D01*
X933855Y875035D01*
X934816Y875995D01*
X934950D01*
X935640Y876133D01*
X936226Y876524D01*
X937557Y877855D01*
X938146Y877972D01*
X938897Y878473D01*
X939398Y879224D01*
X939575Y880110D01*
X939398Y880996D01*
X938897Y881747D01*
X938146Y882248D01*
X937260Y882424D01*
D02*
G37*
G36*
X883920D02*
X883034Y882248D01*
X882283Y881747D01*
X881782Y880996D01*
X881606Y880110D01*
X881758Y879342D01*
X881657Y878832D01*
X881817Y878024D01*
X882275Y877339D01*
X883689Y875925D01*
X884374Y875468D01*
X885182Y875307D01*
X885989Y875468D01*
X886674Y875925D01*
X887805Y877056D01*
X888263Y877741D01*
X888424Y878549D01*
X888263Y879356D01*
X887805Y880041D01*
X886391Y881455D01*
X885706Y881913D01*
X885139Y882026D01*
X884806Y882248D01*
X883920Y882424D01*
D02*
G37*
G36*
X1091737Y894004D02*
X1090042Y893893D01*
X1088519Y893142D01*
X1087399Y891865D01*
X1080899Y880606D01*
X1080353Y878998D01*
X1080464Y877303D01*
X1081215Y875779D01*
X1082492Y874659D01*
X1084101Y874113D01*
X1085796Y874224D01*
X1087319Y874976D01*
X1088439Y876253D01*
X1094939Y887511D01*
X1095486Y889120D01*
X1095374Y890815D01*
X1094623Y892338D01*
X1093346Y893458D01*
X1091737Y894004D01*
D02*
G37*
%LPD*%
G36*
X1109480Y799149D02*
X1105126Y794794D01*
X1076960Y793750D01*
X1042035Y828675D01*
X1060995Y847635D01*
X1109480Y799149D01*
D02*
G37*
%LPC*%
G36*
X1080654Y815088D02*
X1079682Y814686D01*
X1069994Y804998D01*
X1069994Y804998D01*
X1069592Y804026D01*
X1069656Y803872D01*
X1069994Y803054D01*
X1075015Y798034D01*
X1075015Y798034D01*
X1075987Y797631D01*
X1076959Y798034D01*
X1086646Y807721D01*
X1086646Y807721D01*
X1087049Y808693D01*
X1086985Y808848D01*
X1086646Y809665D01*
X1081626Y814686D01*
X1081626Y814686D01*
X1080654Y815088D01*
D02*
G37*
G36*
X1108806Y529749D02*
X1108648Y529708D01*
X1107788Y529484D01*
X1102125Y525201D01*
X1101593Y524293D01*
X1101858Y523275D01*
X1110122Y512349D01*
Y512348D01*
X1111030Y511816D01*
X1111193Y511858D01*
X1112048Y512081D01*
X1117711Y516364D01*
X1118243Y517272D01*
X1117978Y518290D01*
X1109713Y529216D01*
X1109713Y529217D01*
X1108806Y529749D01*
D02*
G37*
%LPD*%
D10*
X812372Y364929D02*
G03*
X1288136Y805807I157908J306741D01*
G01*
D11*
X849700Y396969D02*
G03*
X1261878Y742173I120580J274701D01*
G01*
D14*
X866140Y527050D02*
D03*
X1131570Y756920D02*
D03*
D16*
X781050Y497840D02*
D03*
X1014730Y754380D02*
D03*
X1096010Y830580D02*
D03*
D27*
X1093123Y549341D02*
D03*
D40*
X1213902Y910808D02*
D03*
X1206774Y917936D02*
D03*
X1204956Y903244D02*
D03*
X1197828Y910372D02*
D03*
D41*
X904800Y873050D02*
D03*
X908760Y877010D02*
D03*
X909320Y905510D02*
D03*
X905360Y901550D02*
D03*
X896620Y905510D02*
D03*
X900580Y909470D02*
D03*
X858520Y894080D02*
D03*
X862480Y898040D02*
D03*
X919480Y896620D02*
D03*
X915520Y892660D02*
D03*
X889000Y882650D02*
D03*
X885040Y878690D02*
D03*
X863040Y884630D02*
D03*
X859080Y880670D02*
D03*
D43*
X928545Y881760D02*
D03*
X932504Y877800D02*
D03*
X899493Y896638D02*
D03*
X903453Y892678D02*
D03*
X872490Y911860D02*
D03*
X876450Y907900D02*
D03*
D54*
X880110Y845820D02*
D03*
X885710D02*
D03*
X691938Y679958D02*
D03*
X697538Y679958D02*
D03*
X676650Y655320D02*
D03*
X682250Y655320D02*
D03*
D55*
X676910Y646690D02*
D03*
Y641090D02*
D03*
D59*
X716470Y595630D02*
D03*
X708470Y595630D02*
D03*
D60*
X733440Y687070D02*
D03*
X719440Y687070D02*
D03*
D61*
X665480Y655940D02*
D03*
Y669940D02*
D03*
D70*
X1012206Y794127D02*
D03*
X1021186Y785147D02*
D03*
X1030166Y776166D02*
D03*
X1039147Y767186D02*
D03*
X1078320Y806360D02*
D03*
X1069340Y815340D02*
D03*
X1060360Y824320D02*
D03*
X1051379Y833300D02*
D03*
D71*
X1038546Y793526D02*
D03*
D78*
X694690Y764540D02*
D03*
X704770Y764540D02*
D03*
X694690Y753110D02*
D03*
X704770D02*
D03*
D88*
X917240Y944329D02*
Y945180D01*
X885190Y922020D02*
X887730Y919480D01*
X854722Y416628D02*
Y416628D01*
Y424168D01*
X730864Y824844D02*
X754994Y800714D01*
X704770Y758825D02*
Y764540D01*
X836930Y737870D02*
X852170Y753110D01*
X778510Y737870D02*
X836930D01*
X712470Y678180D02*
X712640Y678010D01*
Y667770D02*
Y678010D01*
X727640Y667770D02*
Y692080D01*
X728980Y693420D01*
X769620D01*
X770890Y694690D01*
Y754380D02*
Y759460D01*
X842010D01*
X908760Y876058D02*
X909783Y875035D01*
X907979Y893810D02*
X909128Y892660D01*
X904584Y893810D02*
X907979D01*
X904240Y913130D02*
X904240D01*
X905360Y901550D02*
X907750Y899160D01*
X908050D01*
X754994Y800714D02*
X754994D01*
X989182Y431356D02*
Y431948D01*
X988060Y433070D02*
X989182Y431948D01*
X1166488Y809807D02*
X1167947D01*
X1174750Y816610D01*
X1181430Y789000D02*
X1195070Y802640D01*
X1181057Y789000D02*
X1181430D01*
X885190Y922020D02*
X885190D01*
X984510Y661790D02*
X988060D01*
X694690Y768350D02*
X696466Y770126D01*
X704770Y753110D02*
Y758825D01*
X704135Y759460D02*
X704770Y758825D01*
X694690Y764540D02*
Y768350D01*
X694690Y750570D02*
Y753110D01*
Y750570D02*
X697230Y748030D01*
X886460Y845820D02*
X891540Y850900D01*
X885710Y845820D02*
X886460D01*
X900580Y909470D02*
X904240Y913130D01*
X883920Y879810D02*
Y880110D01*
X882699Y856863D02*
X885626Y859790D01*
X886460D01*
X871032Y868531D02*
Y871032D01*
X877570Y877570D01*
X883920Y879810D02*
X885040Y878690D01*
X934950Y877800D02*
X937260Y880110D01*
X932504Y877800D02*
X934950D01*
X908760Y876058D02*
Y877010D01*
X886734Y918484D02*
X887730Y919480D01*
X909128Y892660D02*
X915520D01*
X903453Y892678D02*
X904584Y893810D01*
X854710Y897890D02*
Y899160D01*
Y897890D02*
X858520Y894080D01*
X656410Y558800D02*
X700170D01*
X651377Y553767D02*
X656410Y558800D01*
D89*
X1110462Y613568D02*
X1233375Y575853D01*
X1237178Y574686D01*
X1018540Y581660D02*
X1043677Y401461D01*
X803501Y475389D02*
X854722Y424168D01*
X1043677Y401461D02*
X1044401Y396274D01*
X744196Y564774D02*
X746514Y557616D01*
X750170Y546324D01*
X778394Y528472D02*
X873760Y617220D01*
X776258Y526484D02*
X776325Y526546D01*
X775001Y525315D02*
X776258Y526484D01*
X774400Y524755D02*
X774466Y524817D01*
X773143Y523585D02*
X774400Y524755D01*
X772542Y523026D02*
X772608Y523088D01*
X771284Y521856D02*
X772542Y523026D01*
X757710Y523039D02*
X758542Y520468D01*
X770751Y521359D02*
X770817Y521421D01*
X769360Y520065D02*
X770683Y521297D01*
X768892Y519629D02*
X768958Y519691D01*
X768825Y519567D02*
X768892Y519629D01*
X767501Y518335D02*
X768825Y519567D01*
X766967Y517838D02*
X767034Y517900D01*
X766967Y517838D02*
X766967Y517838D01*
X767034Y517900D02*
X767100Y517962D01*
X767101Y517962D01*
X767101Y517963D01*
X767167Y518024D01*
X767167Y518024D01*
X767231Y518084D01*
X767232Y518085D01*
X767233Y518086D01*
X767234Y518087D01*
X767235Y518087D01*
X767235Y518088D01*
X767236Y518089D01*
X767237Y518089D01*
X767301Y518149D01*
X767301Y518149D01*
X767303Y518151D01*
X767366Y518210D01*
X767367Y518210D01*
X767368Y518211D01*
X767433Y518271D01*
X767433Y518271D01*
X767433Y518272D01*
X767434Y518273D01*
X767436Y518274D01*
X767501Y518335D01*
X768825Y519567D02*
X768825Y519567D01*
X768958Y519691D02*
X768958Y519691D01*
X768958Y519691D01*
X768958Y519691D01*
X768959Y519692D01*
X769024Y519753D01*
X769025Y519753D01*
X769025Y519753D01*
X769025Y519754D01*
X769026Y519754D01*
X769092Y519816D01*
X769158Y519877D01*
X769159Y519878D01*
X769160Y519879D01*
X769226Y519940D01*
X769291Y520001D01*
X769291Y520001D01*
X769291Y520001D01*
X769293Y520002D01*
X769294Y520004D01*
X769296Y520005D01*
X769298Y520007D01*
X769360Y520065D01*
X770683Y521297D02*
X770750Y521358D01*
X770750Y521358D01*
X770750Y521359D01*
X770751Y521359D01*
X770751Y521359D01*
X770817Y521421D02*
X770817Y521421D01*
X770817Y521421D01*
X770883Y521482D01*
X770884Y521483D01*
X770950Y521544D01*
X770950Y521544D01*
X770950Y521545D01*
X770951Y521546D01*
X770952Y521546D01*
X771017Y521607D02*
X771081Y521667D01*
X771083Y521668D01*
X771084Y521670D01*
X771085Y521671D01*
X771086Y521671D01*
X771151Y521732D01*
X771152Y521732D01*
X771153Y521733D01*
X771153Y521734D01*
X771216Y521792D01*
X771218Y521794D01*
X771219Y521795D01*
X771220Y521796D01*
X771284Y521856D01*
X772542Y523026D02*
X772542Y523026D01*
X772608Y523088D02*
X772674Y523149D01*
X772675Y523150D01*
X772676Y523150D01*
X772676Y523151D01*
X772676Y523151D01*
X772676Y523151D01*
X772742Y523212D01*
X772742Y523213D01*
X772743Y523213D01*
X772809Y523274D01*
X772875Y523336D01*
X772876Y523337D01*
X772877Y523338D01*
X772942Y523399D01*
X773004Y523456D01*
X773005Y523457D01*
X773006Y523458D01*
X773007Y523459D01*
X773008Y523460D01*
X773009Y523461D01*
X773071Y523519D01*
X773074Y523521D01*
X773075Y523522D01*
X773076Y523523D01*
X773077Y523525D01*
X773078Y523525D01*
X773080Y523526D01*
X773080Y523526D01*
X773143Y523585D01*
X773143Y523585D01*
X774466Y524817D02*
X774467Y524817D01*
X774467Y524817D01*
X774533Y524879D01*
X774533Y524879D01*
X774534Y524880D01*
X774600Y524941D01*
X774600Y524941D01*
X774666Y525002D01*
X774666Y525003D01*
X774666Y525003D01*
X774667Y525004D01*
X774668Y525004D01*
X774734Y525066D01*
X774735Y525067D01*
X774801Y525128D01*
X774866Y525189D01*
X774867Y525190D01*
X774868Y525191D01*
X774869Y525191D01*
X774934Y525252D01*
X774994Y525308D01*
X774995Y525309D01*
X774997Y525311D01*
X774999Y525313D01*
X775001Y525314D01*
X775001Y525315D01*
X776325Y526546D02*
X776325Y526547D01*
X776325Y526547D01*
X776392Y526609D01*
X776457Y526670D01*
X776458Y526670D01*
X776458Y526671D01*
X776459Y526671D01*
X776525Y526733D01*
X776591Y526794D01*
X776592Y526795D01*
X776658Y526856D01*
X776659Y526857D01*
X776660Y526858D01*
X776660Y526858D01*
X776725Y526919D01*
X776726Y526919D01*
X776727Y526921D01*
X776727Y526921D01*
X776730Y526923D01*
X776792Y526982D01*
X776857Y527042D01*
X776857Y527042D01*
X776859Y527044D01*
X778394Y528472D01*
X799010Y479879D02*
X799010Y479879D01*
X758562Y520407D02*
X758562Y520407D01*
X758542Y520468D02*
X758542Y520467D01*
X758562Y520407D01*
X758562Y520407D02*
X758562Y520407D01*
X758599Y520291D01*
X756820Y525787D02*
X757710Y523039D01*
X750170Y546324D02*
X756820Y525787D01*
X990600Y582930D02*
X1089965Y615103D01*
X770952Y521546D02*
X771017Y521607D01*
X884402Y614838D02*
X984250Y584200D01*
X763090Y515801D02*
X763090Y515801D01*
X739140Y580390D02*
X744196Y564774D01*
D90*
X715140Y642750D02*
X733660Y661270D01*
X702640Y657530D02*
X715140Y645030D01*
X741870Y636270D02*
X746870Y631270D01*
X739140D02*
X746870D01*
X746730Y626270D02*
X749300Y628840D01*
X739140Y626270D02*
X746730D01*
X722995Y697595D02*
X769985D01*
X722630Y697230D02*
X722995Y697595D01*
X769985D02*
X788670Y716280D01*
X717640Y685270D02*
X719440Y687070D01*
X717640Y667770D02*
Y685270D01*
X676650Y655320D02*
X676910Y655060D01*
Y646690D02*
Y655060D01*
X676650Y655320D02*
X677920Y656590D01*
X733660Y661270D02*
X739140D01*
X680350Y667770D02*
X694485D01*
X743980Y651270D02*
X744220Y651510D01*
X739140Y651270D02*
X743980D01*
X697538Y667872D02*
X697640Y667770D01*
X697538Y667872D02*
Y679958D01*
X702640Y657530D02*
Y667770D01*
X665480Y655940D02*
X666100Y655320D01*
X676650D01*
X683200Y656270D02*
X691140D01*
X682250Y655320D02*
X683200Y656270D01*
X702640Y667770D02*
Y667770D01*
X694485Y664425D02*
Y667770D01*
X700795D02*
X702640D01*
X863600Y718820D02*
X915670Y666750D01*
X900335Y676562D02*
X913958Y662940D01*
X900335Y676562D02*
Y678493D01*
X913958Y662940D02*
X918210D01*
X741680Y636270D02*
X741870D01*
X739140D02*
X741680D01*
X702640Y651270D02*
X707640Y646270D01*
X702640Y626270D02*
X715140Y638770D01*
X707640Y646270D02*
X712640Y641270D01*
X691140D02*
X712640D01*
X746870Y631270D02*
X749300Y628840D01*
X989415Y665398D02*
Y686985D01*
X988060Y661790D02*
X989330Y663060D01*
Y665313D01*
X989415Y665398D01*
X977900Y698500D02*
X989415Y686985D01*
X788670Y716280D02*
X862548D01*
X900335Y678493D01*
X786572Y718820D02*
X863600D01*
X768698Y700945D02*
X786572Y718820D01*
X866582Y721360D02*
X923290Y664652D01*
X783590Y721360D02*
X866582D01*
X767080Y704850D02*
X783590Y721360D01*
X871220Y723900D02*
X925830Y669290D01*
X780608Y723900D02*
X871220D01*
X765368Y708660D02*
X780608Y723900D01*
X923290Y664210D02*
Y664652D01*
X726535Y700945D02*
X768698D01*
X725170Y702310D02*
X726535Y700945D01*
X764540Y708660D02*
X765368D01*
X760730Y712470D02*
X764540Y708660D01*
X678180Y669940D02*
X680350Y667770D01*
X715140Y642750D02*
Y645030D01*
Y638770D02*
Y642750D01*
X702640Y651270D02*
Y657530D01*
X691140Y646270D02*
X707640D01*
X697640Y606460D02*
X702640Y601460D01*
X697640Y606460D02*
Y609770D01*
X708470Y583610D02*
Y595630D01*
X702640Y601460D02*
X708470Y595630D01*
X702640Y601460D02*
Y609770D01*
Y626270D01*
X748870Y621270D02*
X749300Y620840D01*
X739140Y621270D02*
X748870D01*
X1110616Y854710D02*
X1120915Y865009D01*
X1108710Y854710D02*
X1110616D01*
D91*
X991870Y717550D02*
X994410Y715010D01*
X954780Y676790D02*
Y686810D01*
X966510Y647700D02*
Y653790D01*
X961390Y684790D02*
Y688720D01*
X950785Y699325D02*
X961390Y688720D01*
X958470Y654050D02*
X960120Y652400D01*
X684530Y661670D02*
X684930Y661270D01*
X1135419Y969049D02*
X1141730Y975360D01*
X999490Y674370D02*
Y695960D01*
X981710Y713740D02*
X999490Y695960D01*
X744150Y564820D02*
X744196Y564774D01*
X750170Y546324D02*
Y558800D01*
X909320Y708660D02*
Y797560D01*
X908050Y707390D02*
X909320Y708660D01*
X684930Y661270D02*
X691140D01*
X739140Y656270D02*
X746440D01*
X1109700Y956310D02*
X1113790D01*
X1197828Y910372D02*
X1201856Y914400D01*
X1205391Y917936D01*
X991870Y717550D02*
Y742950D01*
X895350Y839470D02*
X991870Y742950D01*
Y715010D02*
X994410D01*
X981710Y713740D02*
Y739448D01*
X894546Y826612D02*
X981710Y739448D01*
X1017270Y913890D02*
Y914400D01*
X1214120Y869950D02*
X1240580Y843490D01*
X1193800Y890270D02*
X1214120Y869950D01*
X1222454Y878284D01*
X1258876Y843490D02*
X1266161Y836206D01*
Y833087D02*
Y836206D01*
X1237023Y874700D02*
X1242060Y879737D01*
X1193800Y906344D02*
X1197828Y910372D01*
X1193800Y890270D02*
Y906344D01*
X1240580Y843490D02*
X1258876D01*
X1244308Y864296D02*
X1245173D01*
X1213902Y910808D02*
X1215951Y908758D01*
Y904503D02*
Y908758D01*
X1207770Y886460D02*
Y900430D01*
X1204956Y903244D02*
X1207770Y900430D01*
X1205391Y917936D02*
X1206774D01*
X1133856Y947420D02*
X1146418Y959981D01*
X1095730Y970280D02*
X1109700Y956310D01*
X1091425Y974585D02*
X1095730Y970280D01*
Y978688D01*
X1102424Y985381D01*
X1091425Y974585D02*
Y991731D01*
X1146418Y959981D02*
X1152768Y953631D01*
X1157416D01*
X1189527Y922020D02*
X1193882Y926375D01*
X1186200Y918693D02*
X1189527Y922020D01*
X1156970Y953185D02*
X1157416Y953631D01*
X1156970Y934720D02*
Y953185D01*
Y934720D02*
X1174750D01*
X1187450Y922020D01*
X1189527D01*
X1186200Y916266D02*
Y918693D01*
X1177835Y922745D02*
X1178478D01*
X1173480Y927100D02*
X1177835Y922745D01*
X1135419Y966331D02*
Y969049D01*
X1185506Y932854D02*
X1186160D01*
X1017270Y1008890D02*
Y1013460D01*
X966470Y1008890D02*
X966470Y1008890D01*
X979170Y1004570D02*
Y1008890D01*
X1043940Y986790D02*
Y987540D01*
X1046205Y989806D01*
X1041726Y994285D02*
X1046205Y989806D01*
X1053223D01*
X981470Y656590D02*
X981710D01*
X977780Y652900D02*
X981470Y656590D01*
X951230Y654050D02*
X958470D01*
X960120Y652400D02*
X961510Y653790D01*
X746440Y656270D02*
X748030Y657860D01*
X949325Y697865D02*
X950785Y699325D01*
X941070Y689610D02*
X949325Y697865D01*
X913130Y689610D02*
X941070D01*
X951230Y687070D02*
X954520D01*
X750170Y528720D02*
Y546324D01*
X744196Y564774D02*
X750170Y558800D01*
X859790Y902400D02*
X862480Y899710D01*
Y898040D02*
Y899710D01*
X874060Y905510D02*
X876450Y907900D01*
X872490Y905510D02*
X874060D01*
X887730Y839470D02*
X895350D01*
X876300Y830580D02*
Y839470D01*
Y830580D02*
X909320Y797560D01*
X750170Y528720D02*
X758599Y520291D01*
X717640Y601980D02*
Y609770D01*
Y596800D02*
Y601980D01*
X712470Y605790D02*
X716280Y601980D01*
X717640D01*
X685960Y622140D02*
Y626270D01*
X691140D01*
X722640Y569820D02*
X727640Y564820D01*
Y609770D01*
X716470Y575990D02*
X722640Y569820D01*
Y609770D01*
X716470Y575990D02*
Y595630D01*
X717640Y596800D01*
X954520Y687070D02*
X954780Y686810D01*
X1222454Y878284D02*
Y895506D01*
X1113790Y956310D02*
X1122680Y947420D01*
X1133856D01*
D92*
X675880Y734060D02*
Y764540D01*
Y728980D02*
Y734060D01*
Y723900D02*
Y728980D01*
D98*
X969026Y519742D02*
D03*
Y819742D02*
D03*
X1119026Y669742D02*
D03*
X819026Y669742D02*
D03*
D99*
X852170Y753110D02*
D03*
X778510Y737870D02*
D03*
X712470Y678180D02*
D03*
X770890Y694690D02*
D03*
X767080Y636270D02*
D03*
X772160Y631190D02*
D03*
X772160Y636270D02*
D03*
X769620Y636270D02*
D03*
X764540Y631190D02*
D03*
X767080Y631190D02*
D03*
X764540Y633730D02*
D03*
X764540Y636270D02*
D03*
X769620Y631190D02*
D03*
X767080Y628650D02*
D03*
X769620Y628650D02*
D03*
X772160Y633730D02*
D03*
X769620Y633730D02*
D03*
X770890Y754380D02*
D03*
X842010Y759460D02*
D03*
X909783Y875035D02*
D03*
X881380Y834390D02*
D03*
X907979Y893810D02*
D03*
X904240Y913130D02*
D03*
X677920Y656590D02*
D03*
X684530Y661670D02*
D03*
X744220Y651510D02*
D03*
X1202711Y701717D02*
D03*
X1187495Y751590D02*
D03*
X950909Y466487D02*
D03*
X898995Y456416D02*
D03*
X937260Y880110D02*
D03*
X1216261Y847090D02*
D03*
X1218057Y845294D02*
D03*
X1219854Y843498D02*
D03*
X1221650Y841702D02*
D03*
X1218058Y848886D02*
D03*
X1219853Y847089D02*
D03*
X1221649Y845294D02*
D03*
X1223445Y843497D02*
D03*
X1219853Y850682D02*
D03*
X1221650Y848886D02*
D03*
X1223446Y847090D02*
D03*
X1225242Y845294D02*
D03*
X1221650Y852478D02*
D03*
X1223446Y850682D02*
D03*
X1225242Y848886D02*
D03*
X1227038Y847090D02*
D03*
X1228834Y848886D02*
D03*
X1227038Y850682D02*
D03*
X1225242Y852478D02*
D03*
X1223446Y854274D02*
D03*
X1164255Y904398D02*
D03*
X1166051Y902602D02*
D03*
X1167848Y900806D02*
D03*
X1169643Y899010D02*
D03*
X1166051Y906194D02*
D03*
X1167847Y904398D02*
D03*
X1169643Y902602D02*
D03*
X1171439Y900806D02*
D03*
X1167847Y907990D02*
D03*
X1169643Y906194D02*
D03*
X1171440Y904398D02*
D03*
X1173235Y902602D02*
D03*
X1169643Y909786D02*
D03*
X1171439Y907990D02*
D03*
X1173236Y906194D02*
D03*
X1175032Y904398D02*
D03*
X1176827Y906194D02*
D03*
X1175032Y907990D02*
D03*
X1173235Y909786D02*
D03*
X1171439Y911582D02*
D03*
X1151981Y911951D02*
D03*
X1154181Y910681D02*
D03*
X1156381Y909411D02*
D03*
X1158580Y908141D02*
D03*
X1153251Y914150D02*
D03*
X1155450Y912880D02*
D03*
X1157651Y911611D02*
D03*
X1159850Y910340D02*
D03*
X1154521Y916350D02*
D03*
X1156721Y915080D02*
D03*
X1158921Y913811D02*
D03*
X1161120Y912540D02*
D03*
X1155791Y918550D02*
D03*
X1157991Y917280D02*
D03*
X1160190Y916010D02*
D03*
X1162390Y914740D02*
D03*
X1163660Y916940D02*
D03*
X1161460Y918210D02*
D03*
X1159261Y919480D02*
D03*
X1157061Y920750D02*
D03*
X1085941Y950051D02*
D03*
X1088141Y948781D02*
D03*
X1090341Y947511D02*
D03*
X1092540Y946241D02*
D03*
X1087211Y952251D02*
D03*
X1089410Y950980D02*
D03*
X1091610Y949711D02*
D03*
X1093810Y948440D02*
D03*
X1088481Y954450D02*
D03*
X1090681Y953180D02*
D03*
X1092881Y951910D02*
D03*
X1095080Y950640D02*
D03*
X1089751Y956650D02*
D03*
X1091951Y955380D02*
D03*
X1094150Y954110D02*
D03*
X1096350Y952840D02*
D03*
X1097620Y955040D02*
D03*
X1095421Y956310D02*
D03*
X1093221Y957580D02*
D03*
X1091021Y958850D02*
D03*
X1082362Y962383D02*
D03*
X1079976Y963251D02*
D03*
X1077589Y964120D02*
D03*
X1075202Y964989D02*
D03*
X1081493Y959996D02*
D03*
X1079107Y960865D02*
D03*
X1076720Y961733D02*
D03*
X1074333Y962602D02*
D03*
X1080625Y957609D02*
D03*
X1078238Y958478D02*
D03*
X1075851Y959346D02*
D03*
X1073464Y960215D02*
D03*
X1079756Y955222D02*
D03*
X1077369Y956091D02*
D03*
X1074982Y956960D02*
D03*
X1072596Y957828D02*
D03*
X1071727Y955442D02*
D03*
X1074114Y954573D02*
D03*
X1076501Y953704D02*
D03*
X1078887Y952835D02*
D03*
X1009972Y986513D02*
D03*
X1007586Y987382D02*
D03*
X1005199Y988250D02*
D03*
X1002812Y989119D02*
D03*
X1009103Y984126D02*
D03*
X1006717Y984995D02*
D03*
X1004330Y985863D02*
D03*
X1001943Y986732D02*
D03*
X1008235Y981739D02*
D03*
X1005848Y982608D02*
D03*
X1003461Y983476D02*
D03*
X1001074Y984345D02*
D03*
X1007366Y979352D02*
D03*
X1004979Y980221D02*
D03*
X1002592Y981090D02*
D03*
X1000206Y981958D02*
D03*
X999337Y979572D02*
D03*
X1001724Y978703D02*
D03*
X1004111Y977834D02*
D03*
X1006497Y976965D02*
D03*
X760693Y802023D02*
D03*
X758897Y803820D02*
D03*
X757101Y805616D02*
D03*
X755305Y807412D02*
D03*
X758897Y800228D02*
D03*
X757101Y802024D02*
D03*
X755305Y803820D02*
D03*
X753509Y805616D02*
D03*
X757101Y798432D02*
D03*
X755305Y800228D02*
D03*
X753509Y802023D02*
D03*
X751713Y803820D02*
D03*
X755305Y796635D02*
D03*
X753509Y798431D02*
D03*
X751713Y800228D02*
D03*
X749917Y802024D02*
D03*
X748121Y800228D02*
D03*
X749917Y798431D02*
D03*
X751713Y796635D02*
D03*
X753509Y794839D02*
D03*
X733752Y814596D02*
D03*
X735548Y812800D02*
D03*
X731957Y816392D02*
D03*
X728364Y819984D02*
D03*
X730160Y818188D02*
D03*
X731956Y819984D02*
D03*
X735548Y816392D02*
D03*
X733752Y818188D02*
D03*
X735548Y819984D02*
D03*
X737344Y814596D02*
D03*
X739140Y816392D02*
D03*
X737344Y818188D02*
D03*
X739140Y819984D02*
D03*
X740936Y821780D02*
D03*
X740936Y818188D02*
D03*
X742732Y819984D02*
D03*
X726568Y821780D02*
D03*
X722976Y825372D02*
D03*
X724772Y823576D02*
D03*
X724772Y827168D02*
D03*
X726568Y828964D02*
D03*
X726568Y825372D02*
D03*
X728364Y823576D02*
D03*
X728363Y827168D02*
D03*
X730160Y821780D02*
D03*
X731956Y823576D02*
D03*
X733752Y821780D02*
D03*
X737345Y821780D02*
D03*
X735548Y823576D02*
D03*
X739140Y823576D02*
D03*
X730160Y828964D02*
D03*
X731956Y827168D02*
D03*
X728364Y830760D02*
D03*
X730160Y832556D02*
D03*
X731956Y830760D02*
D03*
X733752Y825372D02*
D03*
X737344Y825372D02*
D03*
X733752Y828964D02*
D03*
X735548Y827168D02*
D03*
X739140Y812800D02*
D03*
X740936Y814596D02*
D03*
X739140Y809207D02*
D03*
X740936Y811004D02*
D03*
X742732Y805615D02*
D03*
X740936Y807411D02*
D03*
X742732Y809208D02*
D03*
X742732Y812800D02*
D03*
X746324Y809207D02*
D03*
X744528Y811004D02*
D03*
X744529Y814596D02*
D03*
X746325Y812800D02*
D03*
X748120Y814596D02*
D03*
X746325Y816392D02*
D03*
X748120Y807412D02*
D03*
X753508Y809207D02*
D03*
X751713Y807411D02*
D03*
X748120Y803819D02*
D03*
X746324Y802023D02*
D03*
X751713Y811004D02*
D03*
X749916Y812800D02*
D03*
X748120Y811003D02*
D03*
X744528Y807411D02*
D03*
X749917Y809208D02*
D03*
X746324Y805615D02*
D03*
X744528Y803819D02*
D03*
X744529Y818187D02*
D03*
X742732Y816392D02*
D03*
X737344Y811003D02*
D03*
X769275Y519085D02*
D03*
X771070Y520881D02*
D03*
X772867Y519085D02*
D03*
X774663Y520881D02*
D03*
X772867Y522677D02*
D03*
X774663Y524473D02*
D03*
X776459Y519085D02*
D03*
Y526269D02*
D03*
Y522677D02*
D03*
X780051Y519085D02*
D03*
X778255Y520881D02*
D03*
X780051Y522677D02*
D03*
X778255Y524473D02*
D03*
X781847Y520881D02*
D03*
X783643Y519085D02*
D03*
X771070Y506512D02*
D03*
X769275Y508308D02*
D03*
X771070Y510104D02*
D03*
X772867Y508308D02*
D03*
Y511900D02*
D03*
X769275D02*
D03*
X771070Y513696D02*
D03*
X774663Y506512D02*
D03*
Y513696D02*
D03*
X781847Y506512D02*
D03*
X785439D02*
D03*
X789031D02*
D03*
X774663Y510104D02*
D03*
X776459Y508308D02*
D03*
Y511900D02*
D03*
X778255Y506512D02*
D03*
X780051Y508308D02*
D03*
X778255Y510104D02*
D03*
X780051Y511900D02*
D03*
X783643Y508308D02*
D03*
X781847Y510104D02*
D03*
X783643Y511900D02*
D03*
X781847Y513696D02*
D03*
X787235Y508308D02*
D03*
X785439Y510104D02*
D03*
X787235Y511900D02*
D03*
X785439Y513696D02*
D03*
X792623Y506512D02*
D03*
X789031Y510104D02*
D03*
X790827Y508308D02*
D03*
X789031Y513696D02*
D03*
X790827Y511900D02*
D03*
X792623Y510104D02*
D03*
X772867Y490348D02*
D03*
X771070Y495736D02*
D03*
X769275Y501124D02*
D03*
Y497532D02*
D03*
X771070Y492144D02*
D03*
X772867Y493940D02*
D03*
X771070Y499328D02*
D03*
X772867Y497532D02*
D03*
Y501124D02*
D03*
X769275Y504716D02*
D03*
X771070Y502920D02*
D03*
X772867Y504716D02*
D03*
X774663Y488552D02*
D03*
Y502920D02*
D03*
X776459Y486755D02*
D03*
X780051D02*
D03*
X778255Y488552D02*
D03*
X783643Y486755D02*
D03*
X781847Y488552D02*
D03*
X785439D02*
D03*
X783643Y490348D02*
D03*
X789031Y488552D02*
D03*
X774663Y492144D02*
D03*
X776459Y490348D02*
D03*
X774663Y495736D02*
D03*
X776459Y493940D02*
D03*
X780051Y490348D02*
D03*
X778255Y492144D02*
D03*
X781847D02*
D03*
X778255Y495736D02*
D03*
X780051Y493940D02*
D03*
X781847Y495736D02*
D03*
X774663Y499328D02*
D03*
X776459Y497532D02*
D03*
X778255Y499328D02*
D03*
X776459Y504716D02*
D03*
Y501124D02*
D03*
X780051Y497532D02*
D03*
X778255Y502920D02*
D03*
X780051Y504716D02*
D03*
Y501124D02*
D03*
X783643Y493940D02*
D03*
X785439Y492144D02*
D03*
X781847Y499328D02*
D03*
X783643Y497532D02*
D03*
X787235Y490348D02*
D03*
Y493940D02*
D03*
X785439Y495736D02*
D03*
X787235Y497532D02*
D03*
X783643Y501124D02*
D03*
X785439Y499328D02*
D03*
X781847Y502920D02*
D03*
X783643Y504716D02*
D03*
X787235Y501124D02*
D03*
X785439Y502920D02*
D03*
X787235Y504716D02*
D03*
X789031Y492144D02*
D03*
Y495736D02*
D03*
X790827Y493940D02*
D03*
X792623Y495736D02*
D03*
X790827Y497532D02*
D03*
X789031Y499328D02*
D03*
X792623D02*
D03*
X789031Y502920D02*
D03*
X790827Y501124D02*
D03*
Y504716D02*
D03*
X792623Y502920D02*
D03*
X781847Y517288D02*
D03*
X798011Y465203D02*
D03*
X799807Y466999D02*
D03*
X801603Y468795D02*
D03*
X803399Y470591D02*
D03*
X805195Y472387D02*
D03*
X806992Y474183D02*
D03*
X808788Y475979D02*
D03*
X810584Y477775D02*
D03*
X812380Y479571D02*
D03*
X814176Y481367D02*
D03*
X792623Y470591D02*
D03*
X794419Y468795D02*
D03*
X792623Y474183D02*
D03*
Y477775D02*
D03*
X794419Y472387D02*
D03*
X796215Y470591D02*
D03*
X794419Y475979D02*
D03*
X796215Y474183D02*
D03*
X794419Y479571D02*
D03*
Y483163D02*
D03*
X796215Y466999D02*
D03*
X798011Y468795D02*
D03*
Y472387D02*
D03*
X799807Y470591D02*
D03*
X801603Y472387D02*
D03*
X798011Y475979D02*
D03*
X799807Y474183D02*
D03*
X796215Y477775D02*
D03*
X799807D02*
D03*
X798011Y479571D02*
D03*
X803399Y474183D02*
D03*
X801603Y475979D02*
D03*
Y479571D02*
D03*
X805195Y475979D02*
D03*
X803399Y477775D02*
D03*
Y481367D02*
D03*
X805195Y479571D02*
D03*
X806992Y477775D02*
D03*
X808788Y479571D02*
D03*
X796215Y481367D02*
D03*
X799807D02*
D03*
X798011Y483163D02*
D03*
X801603D02*
D03*
X806992Y481367D02*
D03*
X805195Y483163D02*
D03*
X796215Y484959D02*
D03*
X799807D02*
D03*
X801603Y486755D02*
D03*
X803399Y484959D02*
D03*
X805195Y486755D02*
D03*
X808788Y483163D02*
D03*
X810584Y481367D02*
D03*
X806992Y484959D02*
D03*
X812380Y483163D02*
D03*
X810584Y484959D02*
D03*
X789031Y474183D02*
D03*
Y477775D02*
D03*
X790827Y472387D02*
D03*
Y475979D02*
D03*
X787235Y479571D02*
D03*
X790827D02*
D03*
X787235Y483163D02*
D03*
X789031Y481367D02*
D03*
Y484959D02*
D03*
X792623Y481367D02*
D03*
X790827Y483163D02*
D03*
Y486755D02*
D03*
X792623Y484959D02*
D03*
X794419Y486755D02*
D03*
X792623Y488552D02*
D03*
X794419Y490348D02*
D03*
X798011Y486755D02*
D03*
X796215Y488552D02*
D03*
X799807D02*
D03*
X803399D02*
D03*
X806992D02*
D03*
X808788Y486755D02*
D03*
X798011Y490348D02*
D03*
X801603D02*
D03*
X805195D02*
D03*
X778255Y517288D02*
D03*
X780051Y515492D02*
D03*
X776459D02*
D03*
X758498Y504716D02*
D03*
X762090D02*
D03*
X756702Y506512D02*
D03*
X760294D02*
D03*
X758498Y508308D02*
D03*
X762090D02*
D03*
X760294Y510104D02*
D03*
X763886Y506512D02*
D03*
Y510104D02*
D03*
X765682Y508308D02*
D03*
X762090Y511900D02*
D03*
X763886Y513696D02*
D03*
X765682Y504716D02*
D03*
X767478Y506512D02*
D03*
Y510104D02*
D03*
X765682Y515492D02*
D03*
Y511900D02*
D03*
X767478Y513696D02*
D03*
Y517288D02*
D03*
X769275Y515492D02*
D03*
X772867D02*
D03*
X783643D02*
D03*
X785439Y517288D02*
D03*
X787235Y515492D02*
D03*
X749917Y805615D02*
D03*
X730160Y825372D02*
D03*
X915670Y666750D02*
D03*
X918210Y662940D02*
D03*
X1078320Y806360D02*
D03*
X873234Y558274D02*
D03*
Y554682D02*
D03*
Y551090D02*
D03*
X871438Y549294D02*
D03*
X867846D02*
D03*
X864254D02*
D03*
X1100727Y586064D02*
D03*
X1102673Y584432D02*
D03*
X1106252Y584745D02*
D03*
X1104306Y586377D02*
D03*
X1099095Y584118D02*
D03*
X1101040Y582486D02*
D03*
X1104619Y582799D02*
D03*
X875030Y560070D02*
D03*
X876826Y558274D02*
D03*
X875030Y556478D02*
D03*
X878622D02*
D03*
X880418Y554682D02*
D03*
X876826D02*
D03*
X871438Y556478D02*
D03*
X869642Y554682D02*
D03*
X871438Y552886D02*
D03*
X869642Y551090D02*
D03*
X867846Y552886D02*
D03*
X866050Y551090D02*
D03*
X988060Y433070D02*
D03*
X1146810Y567690D02*
D03*
X673100Y762000D02*
D03*
X673100Y764540D02*
D03*
X673100Y767080D02*
D03*
X673100Y769620D02*
D03*
X673100Y772160D02*
D03*
X673100Y774700D02*
D03*
X673100Y777240D02*
D03*
X670560Y762000D02*
D03*
X670560Y764540D02*
D03*
X670560Y767080D02*
D03*
X670560Y769620D02*
D03*
X670560Y772160D02*
D03*
X670560Y774700D02*
D03*
X670560Y777240D02*
D03*
X668020Y764540D02*
D03*
X668020Y767080D02*
D03*
X668020Y769620D02*
D03*
Y772160D02*
D03*
X668020Y774700D02*
D03*
X668020Y777240D02*
D03*
X665480Y764540D02*
D03*
Y767080D02*
D03*
X665480Y769620D02*
D03*
X665480Y772160D02*
D03*
X665480Y774700D02*
D03*
X665480Y777240D02*
D03*
X662940Y777240D02*
D03*
X662940Y774700D02*
D03*
X662940Y772160D02*
D03*
X662940Y769620D02*
D03*
X662940Y767080D02*
D03*
X662940Y764540D02*
D03*
X675640Y703580D02*
D03*
X675640Y706120D02*
D03*
X675640Y708660D02*
D03*
X675640Y711200D02*
D03*
X675640Y713740D02*
D03*
X675640Y716280D02*
D03*
X675640Y718820D02*
D03*
X675640Y721360D02*
D03*
X678180Y721360D02*
D03*
X678180Y718820D02*
D03*
X678180Y716280D02*
D03*
X678180Y713740D02*
D03*
X678180Y711200D02*
D03*
X678180Y708660D02*
D03*
Y706120D02*
D03*
Y703580D02*
D03*
X680720Y721360D02*
D03*
X680720Y718820D02*
D03*
X680720Y716280D02*
D03*
X680720Y713740D02*
D03*
Y711200D02*
D03*
X680720Y708660D02*
D03*
X680720Y706120D02*
D03*
X680720Y703580D02*
D03*
X683260Y721360D02*
D03*
X683260Y718820D02*
D03*
X683260Y716280D02*
D03*
X683260Y713740D02*
D03*
X683260Y711200D02*
D03*
X683260Y708660D02*
D03*
X683260Y706120D02*
D03*
X683260Y703580D02*
D03*
X685800Y721360D02*
D03*
X685800Y718820D02*
D03*
X685800Y716280D02*
D03*
X685800Y713740D02*
D03*
X685800Y711200D02*
D03*
X685800Y708660D02*
D03*
X685800Y706120D02*
D03*
X685800Y703580D02*
D03*
X685800Y723900D02*
D03*
X685800Y726440D02*
D03*
X685800Y728980D02*
D03*
X685800Y731520D02*
D03*
X685800Y734060D02*
D03*
X683260Y723900D02*
D03*
X683260Y726440D02*
D03*
X683260Y728980D02*
D03*
X683260Y731520D02*
D03*
X683260Y734060D02*
D03*
X683260Y736600D02*
D03*
X680720Y723900D02*
D03*
X680720Y726440D02*
D03*
X680720Y728980D02*
D03*
Y731520D02*
D03*
X680720Y734060D02*
D03*
X680720Y736600D02*
D03*
X678180Y723900D02*
D03*
X678180Y726440D02*
D03*
X678180Y728980D02*
D03*
X678180Y731520D02*
D03*
X678180Y734060D02*
D03*
X678180Y736600D02*
D03*
X675640Y736600D02*
D03*
X675640Y734060D02*
D03*
X675640Y731520D02*
D03*
X675640Y728980D02*
D03*
X675640Y726440D02*
D03*
X675640Y723900D02*
D03*
X739140Y636270D02*
D03*
X741680Y636270D02*
D03*
X744220Y636270D02*
D03*
X746760Y636270D02*
D03*
X749300Y636270D02*
D03*
X751840Y636270D02*
D03*
X754380Y636270D02*
D03*
X756920Y636270D02*
D03*
X756920Y633730D02*
D03*
X754380Y633730D02*
D03*
X751840Y633730D02*
D03*
X749300Y633730D02*
D03*
X746760Y633730D02*
D03*
X744220Y633730D02*
D03*
X741680Y633730D02*
D03*
X739140D02*
D03*
X756920Y631190D02*
D03*
X754380Y631190D02*
D03*
X751840Y631190D02*
D03*
X749300Y631190D02*
D03*
X746760D02*
D03*
X744220Y631190D02*
D03*
X741680Y631190D02*
D03*
X739140Y631190D02*
D03*
X756920Y628650D02*
D03*
X754380Y628650D02*
D03*
X751840Y628650D02*
D03*
X749300Y628650D02*
D03*
X746760D02*
D03*
X744220Y628650D02*
D03*
X741680Y628650D02*
D03*
X739140Y628650D02*
D03*
X756920Y626110D02*
D03*
X754380Y626110D02*
D03*
X751840Y626110D02*
D03*
X749300Y626110D02*
D03*
X746760Y626110D02*
D03*
X744220Y626110D02*
D03*
X741680Y626110D02*
D03*
X739140Y626110D02*
D03*
X759460Y626110D02*
D03*
X762000Y626110D02*
D03*
X764540Y626110D02*
D03*
X767080Y626110D02*
D03*
X769620Y626110D02*
D03*
X772160Y626110D02*
D03*
X759460Y628649D02*
D03*
X762000Y628650D02*
D03*
X764540Y628650D02*
D03*
X772160Y628650D02*
D03*
X759460Y631190D02*
D03*
X762000Y631190D02*
D03*
X759460Y633730D02*
D03*
X762000Y633730D02*
D03*
X767080Y633730D02*
D03*
X762000Y636270D02*
D03*
X759459Y636270D02*
D03*
X861624Y342861D02*
D03*
X864078Y342204D02*
D03*
X866531Y341547D02*
D03*
X868984Y340889D02*
D03*
X871438Y340232D02*
D03*
X873891Y339574D02*
D03*
X876345Y338917D02*
D03*
X878798Y338259D02*
D03*
X878141Y335806D02*
D03*
X875687Y336463D02*
D03*
X873234Y337121D02*
D03*
X870781Y337778D02*
D03*
X868327Y338436D02*
D03*
X865873Y339093D02*
D03*
X863420Y339751D02*
D03*
X860967Y340408D02*
D03*
X877483Y333353D02*
D03*
X875030Y334010D02*
D03*
X872577Y334667D02*
D03*
X870123Y335325D02*
D03*
X867670Y335982D02*
D03*
X865216Y336640D02*
D03*
X862763Y337297D02*
D03*
X860309Y337954D02*
D03*
X876826Y330899D02*
D03*
X874372Y331557D02*
D03*
X871919Y332214D02*
D03*
X869466Y332871D02*
D03*
X867012Y333529D02*
D03*
X864559Y334186D02*
D03*
X862105Y334843D02*
D03*
X859652Y335501D02*
D03*
X876169Y328446D02*
D03*
X873715Y329103D02*
D03*
X871261Y329761D02*
D03*
X868808Y330418D02*
D03*
X866355Y331075D02*
D03*
X863901Y331733D02*
D03*
X861448Y332390D02*
D03*
X858995Y333048D02*
D03*
X878622Y327788D02*
D03*
X881076Y327131D02*
D03*
X883529Y326473D02*
D03*
X885983Y325816D02*
D03*
X888436Y325159D02*
D03*
X890889Y324501D02*
D03*
X879279Y330241D02*
D03*
X881733Y329584D02*
D03*
X884186Y328927D02*
D03*
X886640Y328269D02*
D03*
X889093Y327612D02*
D03*
X891547Y326955D02*
D03*
X879937Y332695D02*
D03*
X882390Y332038D02*
D03*
X884844Y331380D02*
D03*
X887297Y330723D02*
D03*
X889751Y330066D02*
D03*
X892204Y329408D02*
D03*
X880594Y335149D02*
D03*
X883048Y334491D02*
D03*
X885501Y333834D02*
D03*
X887955Y333176D02*
D03*
X890408Y332519D02*
D03*
X892861Y331862D02*
D03*
X893519Y334315D02*
D03*
X891065Y334972D02*
D03*
X888612Y335630D02*
D03*
X886159Y336287D02*
D03*
X883705Y336945D02*
D03*
X881251Y337602D02*
D03*
X986790Y316230D02*
D03*
X984250Y316230D02*
D03*
X981710Y316230D02*
D03*
X979170Y316230D02*
D03*
X976630Y316230D02*
D03*
X974090Y316230D02*
D03*
X971550Y316230D02*
D03*
X969010Y316230D02*
D03*
X969010Y318770D02*
D03*
X971550Y318770D02*
D03*
X974090Y318770D02*
D03*
X976630Y318770D02*
D03*
X979170Y318770D02*
D03*
X981710Y318770D02*
D03*
X984250Y318770D02*
D03*
X986790Y318770D02*
D03*
X969010Y321310D02*
D03*
X971550Y321310D02*
D03*
X974090Y321310D02*
D03*
X976630Y321310D02*
D03*
X979170D02*
D03*
X981710Y321310D02*
D03*
X984250Y321310D02*
D03*
X986790Y321310D02*
D03*
X969010Y323850D02*
D03*
X971550Y323850D02*
D03*
X974090Y323850D02*
D03*
X976630Y323850D02*
D03*
X979170Y323850D02*
D03*
X981710Y323850D02*
D03*
X984250Y323850D02*
D03*
X986790Y323850D02*
D03*
X969010Y326390D02*
D03*
X971550Y326390D02*
D03*
X974090Y326390D02*
D03*
X976630Y326390D02*
D03*
X979170Y326390D02*
D03*
X981710Y326390D02*
D03*
X984250Y326390D02*
D03*
X986790Y326390D02*
D03*
X966470Y326390D02*
D03*
X963930Y326390D02*
D03*
X961390Y326390D02*
D03*
X958850Y326390D02*
D03*
X956310Y326390D02*
D03*
X953770Y326390D02*
D03*
X966470Y323850D02*
D03*
X963930Y323850D02*
D03*
X961390Y323850D02*
D03*
X958850Y323850D02*
D03*
X956310Y323850D02*
D03*
X953770Y323850D02*
D03*
X966470Y321310D02*
D03*
X963930Y321310D02*
D03*
X961390Y321310D02*
D03*
X958850Y321310D02*
D03*
X956310Y321310D02*
D03*
X953770Y321310D02*
D03*
X966470Y318770D02*
D03*
X963930Y318770D02*
D03*
X961390Y318770D02*
D03*
X958850Y318770D02*
D03*
X956310Y318770D02*
D03*
X953770Y318770D02*
D03*
X953770Y316230D02*
D03*
X956310Y316230D02*
D03*
X958850Y316230D02*
D03*
X961390Y316230D02*
D03*
X963930Y316230D02*
D03*
X966470Y316230D02*
D03*
X1045685Y334972D02*
D03*
X1048138Y335630D02*
D03*
X1050591Y336287D02*
D03*
X1053045Y336945D02*
D03*
X1055498Y337602D02*
D03*
X1057952Y338260D02*
D03*
X1060405Y338917D02*
D03*
X1062859Y339574D02*
D03*
X1063516Y337121D02*
D03*
X1061063Y336464D02*
D03*
X1058609Y335806D02*
D03*
X1056156Y335149D02*
D03*
X1053702Y334491D02*
D03*
X1051249Y333834D02*
D03*
X1048795Y333176D02*
D03*
X1046342Y332519D02*
D03*
X1064174Y334667D02*
D03*
X1061720Y334010D02*
D03*
X1059267Y333353D02*
D03*
X1056813Y332695D02*
D03*
X1054360Y332038D02*
D03*
X1051906Y331381D02*
D03*
X1049453Y330723D02*
D03*
X1046999Y330066D02*
D03*
X1064831Y332214D02*
D03*
X1062377Y331557D02*
D03*
X1059924Y330899D02*
D03*
X1057471Y330242D02*
D03*
X1055017Y329584D02*
D03*
X1052564Y328927D02*
D03*
X1050110Y328269D02*
D03*
X1047657Y327612D02*
D03*
X1065488Y329761D02*
D03*
X1063035Y329103D02*
D03*
X1060581Y328446D02*
D03*
X1058128Y327788D02*
D03*
X1055675Y327131D02*
D03*
X1053221Y326474D02*
D03*
X1050768Y325816D02*
D03*
X1048314Y325159D02*
D03*
X1067942Y330418D02*
D03*
X1070395Y331075D02*
D03*
X1072849Y331732D02*
D03*
X1075302Y332390D02*
D03*
X1077755Y333047D02*
D03*
X1080209Y333705D02*
D03*
X1067284Y332871D02*
D03*
X1069738Y333529D02*
D03*
X1072191Y334186D02*
D03*
X1074645Y334843D02*
D03*
X1077098Y335501D02*
D03*
X1079552Y336158D02*
D03*
X1066627Y335325D02*
D03*
X1069080Y335982D02*
D03*
X1071534Y336640D02*
D03*
X1073987Y337297D02*
D03*
X1076441Y337955D02*
D03*
X1078894Y338612D02*
D03*
X1065970Y337778D02*
D03*
X1068423Y338435D02*
D03*
X1070876Y339093D02*
D03*
X1073330Y339750D02*
D03*
X1075784Y340407D02*
D03*
X1078237Y341065D02*
D03*
X1077579Y343518D02*
D03*
X1075126Y342861D02*
D03*
X1072672Y342204D02*
D03*
X1070219Y341546D02*
D03*
X1067766Y340889D02*
D03*
X1065312Y340232D02*
D03*
X1161278Y372791D02*
D03*
X1159079Y371521D02*
D03*
X1156879Y370250D02*
D03*
X1154679Y368981D02*
D03*
X1152480Y367710D02*
D03*
X1150280Y366441D02*
D03*
X1148080Y365170D02*
D03*
X1145880Y363901D02*
D03*
X1144610Y366100D02*
D03*
X1146810Y367370D02*
D03*
X1149009Y368640D02*
D03*
X1151209Y369910D02*
D03*
X1153409Y371180D02*
D03*
X1155609Y372450D02*
D03*
X1157809Y373720D02*
D03*
X1160008Y374990D02*
D03*
X1143340Y368300D02*
D03*
X1145540Y369570D02*
D03*
X1147740Y370840D02*
D03*
X1149939Y372110D02*
D03*
X1152139Y373380D02*
D03*
X1154339Y374650D02*
D03*
X1156538Y375920D02*
D03*
X1158738Y377190D02*
D03*
X1142070Y370500D02*
D03*
X1144270Y371770D02*
D03*
X1146470Y373040D02*
D03*
X1148669Y374310D02*
D03*
X1150869Y375580D02*
D03*
X1153069Y376850D02*
D03*
X1155269Y378120D02*
D03*
X1157468Y379390D02*
D03*
X1140800Y372700D02*
D03*
X1143000Y373969D02*
D03*
X1145200Y375239D02*
D03*
X1147400Y376510D02*
D03*
X1149599Y377779D02*
D03*
X1151799Y379049D02*
D03*
X1153998Y380320D02*
D03*
X1156198Y381589D02*
D03*
X1138600Y371429D02*
D03*
X1136401Y370159D02*
D03*
X1134201Y368890D02*
D03*
X1132001Y367620D02*
D03*
X1129802Y366349D02*
D03*
X1127602Y365079D02*
D03*
X1139871Y369230D02*
D03*
X1137671Y367960D02*
D03*
X1135471Y366690D02*
D03*
X1133271Y365420D02*
D03*
X1131072Y364150D02*
D03*
X1128872Y362880D02*
D03*
X1141141Y367030D02*
D03*
X1138941Y365760D02*
D03*
X1136741Y364490D02*
D03*
X1134541Y363220D02*
D03*
X1132342Y361950D02*
D03*
X1130142Y360680D02*
D03*
X1142410Y364830D02*
D03*
X1140211Y363561D02*
D03*
X1138011Y362290D02*
D03*
X1135811Y361020D02*
D03*
X1133611Y359750D02*
D03*
X1131412Y358480D02*
D03*
X1132682Y356281D02*
D03*
X1134882Y357551D02*
D03*
X1137082Y358821D02*
D03*
X1139281Y360091D02*
D03*
X1141481Y361361D02*
D03*
X1143681Y362631D02*
D03*
X1202292Y416996D02*
D03*
X1204088Y418792D02*
D03*
X1205884Y420588D02*
D03*
X1207680Y422384D02*
D03*
X1209476Y424180D02*
D03*
X1211272Y425976D02*
D03*
X1213068Y427772D02*
D03*
X1214864Y429568D02*
D03*
X1216660Y427772D02*
D03*
X1214864Y425976D02*
D03*
X1213068Y424180D02*
D03*
X1211272Y422384D02*
D03*
X1209476Y420588D02*
D03*
X1207680Y418792D02*
D03*
X1205883Y416996D02*
D03*
X1204088Y415200D02*
D03*
X1218456Y425976D02*
D03*
X1216660Y424180D02*
D03*
X1214864Y422384D02*
D03*
X1213068Y420588D02*
D03*
X1211272Y418792D02*
D03*
X1209476Y416996D02*
D03*
X1207680Y415200D02*
D03*
X1205884Y413404D02*
D03*
X1220252Y424180D02*
D03*
X1218456Y422384D02*
D03*
X1216660Y420588D02*
D03*
X1214864Y418792D02*
D03*
X1213068Y416996D02*
D03*
X1211272Y415200D02*
D03*
X1209476Y413403D02*
D03*
X1207680Y411608D02*
D03*
X1222048Y422384D02*
D03*
X1220252Y420588D02*
D03*
X1218456Y418792D02*
D03*
X1216660Y416996D02*
D03*
X1214864Y415200D02*
D03*
X1213068Y413404D02*
D03*
X1211272Y411608D02*
D03*
X1209476Y409812D02*
D03*
X1223844Y424180D02*
D03*
X1225640Y425976D02*
D03*
X1227436Y427772D02*
D03*
X1229232Y429568D02*
D03*
X1231028Y431364D02*
D03*
X1232825Y433160D02*
D03*
X1222048Y425976D02*
D03*
X1223844Y427772D02*
D03*
X1225640Y429568D02*
D03*
X1227437Y431364D02*
D03*
X1229232Y433160D02*
D03*
X1231028Y434956D02*
D03*
X1220252Y427772D02*
D03*
X1222048Y429568D02*
D03*
X1223844Y431364D02*
D03*
X1225640Y433160D02*
D03*
X1227436Y434957D02*
D03*
X1229232Y436752D02*
D03*
X1218456Y429568D02*
D03*
X1220252Y431364D02*
D03*
X1222048Y433160D02*
D03*
X1223844Y434956D02*
D03*
X1225641Y436752D02*
D03*
X1227436Y438548D02*
D03*
X1225640Y440344D02*
D03*
X1223844Y438548D02*
D03*
X1222048Y436752D02*
D03*
X1220252Y434956D02*
D03*
X1218456Y433160D02*
D03*
X1216660Y431364D02*
D03*
X1284559Y508498D02*
D03*
X1283289Y506298D02*
D03*
X1282020Y504099D02*
D03*
X1280750Y501899D02*
D03*
X1279480Y499699D02*
D03*
X1278210Y497500D02*
D03*
X1276939Y495300D02*
D03*
X1275669Y493100D02*
D03*
X1273470Y494370D02*
D03*
X1274740Y496570D02*
D03*
X1276010Y498770D02*
D03*
X1277280Y500970D02*
D03*
X1278550Y503169D02*
D03*
X1279820Y505369D02*
D03*
X1281090Y507569D02*
D03*
X1282360Y509768D02*
D03*
X1271270Y495640D02*
D03*
X1272540Y497840D02*
D03*
X1273810Y500040D02*
D03*
X1275080Y502239D02*
D03*
X1276350Y504439D02*
D03*
X1277620Y506639D02*
D03*
X1278890Y508838D02*
D03*
X1280160Y511038D02*
D03*
X1269070Y496910D02*
D03*
X1270340Y499110D02*
D03*
X1271610Y501310D02*
D03*
X1272880Y503510D02*
D03*
X1274150Y505709D02*
D03*
X1275420Y507909D02*
D03*
X1276690Y510109D02*
D03*
X1277960Y512308D02*
D03*
X1266871Y498181D02*
D03*
X1268140Y500380D02*
D03*
X1269411Y502580D02*
D03*
X1270680Y504780D02*
D03*
X1271951Y506979D02*
D03*
X1273221Y509179D02*
D03*
X1274491Y511379D02*
D03*
X1275761Y513578D02*
D03*
X1265601Y495980D02*
D03*
X1264331Y493781D02*
D03*
X1263061Y491581D02*
D03*
X1261791Y489381D02*
D03*
X1260521Y487182D02*
D03*
X1259250Y484982D02*
D03*
X1267800Y494711D02*
D03*
X1266530Y492511D02*
D03*
X1265260Y490311D02*
D03*
X1263990Y488112D02*
D03*
X1262720Y485912D02*
D03*
X1261450Y483712D02*
D03*
X1270000Y493441D02*
D03*
X1268730Y491241D02*
D03*
X1267460Y489041D02*
D03*
X1266190Y486842D02*
D03*
X1264920Y484642D02*
D03*
X1263650Y482442D02*
D03*
X1272200Y492171D02*
D03*
X1270929Y489971D02*
D03*
X1269660Y487771D02*
D03*
X1268390Y485572D02*
D03*
X1267119Y483372D02*
D03*
X1265850Y481172D02*
D03*
X1268049Y479902D02*
D03*
X1269319Y482102D02*
D03*
X1270589Y484301D02*
D03*
X1271859Y486501D02*
D03*
X1273129Y488701D02*
D03*
X1274399Y490901D02*
D03*
X1297979Y569524D02*
D03*
X1298636Y571978D02*
D03*
X1299293Y574431D02*
D03*
X1299951Y576884D02*
D03*
X1300608Y579338D02*
D03*
X1301266Y581791D02*
D03*
X1301923Y584245D02*
D03*
X1302580Y586698D02*
D03*
X1305034Y586041D02*
D03*
X1304377Y583587D02*
D03*
X1303719Y581134D02*
D03*
X1303062Y578680D02*
D03*
X1302404Y576227D02*
D03*
X1301747Y573774D02*
D03*
X1301089Y571320D02*
D03*
X1300432Y568867D02*
D03*
X1307487Y585383D02*
D03*
X1306830Y582930D02*
D03*
X1306173Y580476D02*
D03*
X1305515Y578023D02*
D03*
X1304858Y575570D02*
D03*
X1304200Y573116D02*
D03*
X1303543Y570663D02*
D03*
X1302886Y568209D02*
D03*
X1309941Y584726D02*
D03*
X1309283Y582272D02*
D03*
X1308626Y579819D02*
D03*
X1307969Y577365D02*
D03*
X1307311Y574912D02*
D03*
X1306654Y572459D02*
D03*
X1305997Y570005D02*
D03*
X1305339Y567552D02*
D03*
X1312394Y584068D02*
D03*
X1311737Y581615D02*
D03*
X1311080Y579162D02*
D03*
X1310422Y576708D02*
D03*
X1309765Y574255D02*
D03*
X1309107Y571801D02*
D03*
X1308450Y569348D02*
D03*
X1307792Y566894D02*
D03*
X1313052Y586522D02*
D03*
X1313709Y588976D02*
D03*
X1314367Y591429D02*
D03*
X1315024Y593882D02*
D03*
X1315681Y596336D02*
D03*
X1316339Y598789D02*
D03*
X1310598Y587180D02*
D03*
X1311256Y589633D02*
D03*
X1311913Y592086D02*
D03*
X1312571Y594540D02*
D03*
X1313228Y596993D02*
D03*
X1313885Y599447D02*
D03*
X1308145Y587837D02*
D03*
X1308802Y590290D02*
D03*
X1309460Y592744D02*
D03*
X1310117Y595197D02*
D03*
X1310774Y597651D02*
D03*
X1311432Y600104D02*
D03*
X1305691Y588494D02*
D03*
X1306349Y590948D02*
D03*
X1307006Y593401D02*
D03*
X1307664Y595855D02*
D03*
X1308321Y598308D02*
D03*
X1308978Y600761D02*
D03*
X1306525Y601419D02*
D03*
X1305868Y598965D02*
D03*
X1305210Y596512D02*
D03*
X1304553Y594058D02*
D03*
X1303895Y591605D02*
D03*
X1303238Y589151D02*
D03*
X1322070Y687070D02*
D03*
X1322070Y684530D02*
D03*
X1322070Y681990D02*
D03*
X1322070Y679450D02*
D03*
X1322070Y676910D02*
D03*
Y674370D02*
D03*
X1322070Y671830D02*
D03*
X1322070Y669290D02*
D03*
X1319530Y669290D02*
D03*
X1319530Y671830D02*
D03*
X1319530Y674370D02*
D03*
X1319530Y676910D02*
D03*
Y679450D02*
D03*
X1319530Y681990D02*
D03*
X1319530Y684530D02*
D03*
X1319530Y687070D02*
D03*
X1316990Y669290D02*
D03*
X1316990Y671830D02*
D03*
X1316990Y674370D02*
D03*
X1316990Y676910D02*
D03*
Y679450D02*
D03*
X1316990Y681990D02*
D03*
X1316990Y684530D02*
D03*
X1316990Y687070D02*
D03*
X1314450Y669290D02*
D03*
X1314450Y671830D02*
D03*
Y674370D02*
D03*
X1314450Y676910D02*
D03*
X1314450Y679450D02*
D03*
X1314450Y681990D02*
D03*
X1314450Y684530D02*
D03*
X1314450Y687070D02*
D03*
X1311910Y669290D02*
D03*
X1311910Y671830D02*
D03*
X1311910Y674370D02*
D03*
X1311910Y676910D02*
D03*
X1311910Y679450D02*
D03*
X1311910Y681990D02*
D03*
X1311910Y684530D02*
D03*
X1311910Y687070D02*
D03*
X1311910Y666750D02*
D03*
X1311910Y664210D02*
D03*
X1311910Y661670D02*
D03*
X1311910Y659130D02*
D03*
X1311910Y656590D02*
D03*
X1311910Y654050D02*
D03*
X1314450Y666750D02*
D03*
X1314450Y664210D02*
D03*
X1314450Y661670D02*
D03*
X1314450Y659130D02*
D03*
X1314450Y656590D02*
D03*
X1314450Y654050D02*
D03*
X1316990Y666750D02*
D03*
X1316990Y664210D02*
D03*
Y661670D02*
D03*
X1316990Y659130D02*
D03*
X1316990Y656590D02*
D03*
X1316990Y654050D02*
D03*
X1319530Y666750D02*
D03*
X1319530Y664210D02*
D03*
X1319530Y661670D02*
D03*
X1319530Y659130D02*
D03*
X1319530Y656590D02*
D03*
X1319530Y654050D02*
D03*
X1322070Y654050D02*
D03*
X1322070Y656590D02*
D03*
X1322070Y659130D02*
D03*
X1322070Y661670D02*
D03*
X1322070Y664210D02*
D03*
Y666750D02*
D03*
X1304597Y745965D02*
D03*
X1303940Y748418D02*
D03*
X1303283Y750871D02*
D03*
X1302625Y753325D02*
D03*
X1301968Y755778D02*
D03*
X1301311Y758232D02*
D03*
X1300653Y760685D02*
D03*
X1299996Y763139D02*
D03*
X1302449Y763796D02*
D03*
X1303107Y761343D02*
D03*
X1303764Y758889D02*
D03*
X1304421Y756436D02*
D03*
X1305079Y753982D02*
D03*
X1305736Y751529D02*
D03*
X1306394Y749075D02*
D03*
X1307051Y746622D02*
D03*
X1304903Y764454D02*
D03*
X1305560Y762000D02*
D03*
X1306217Y759547D02*
D03*
X1306875Y757093D02*
D03*
X1307532Y754640D02*
D03*
X1308190Y752186D02*
D03*
X1308847Y749733D02*
D03*
X1309504Y747279D02*
D03*
X1307356Y765111D02*
D03*
X1308013Y762657D02*
D03*
X1308671Y760204D02*
D03*
X1309328Y757751D02*
D03*
X1309986Y755297D02*
D03*
X1310643Y752844D02*
D03*
X1311300Y750390D02*
D03*
X1311958Y747937D02*
D03*
X1309810Y765768D02*
D03*
X1310467Y763315D02*
D03*
X1311124Y760861D02*
D03*
X1311782Y758408D02*
D03*
X1312439Y755955D02*
D03*
X1313096Y753501D02*
D03*
X1313754Y751048D02*
D03*
X1314411Y748594D02*
D03*
X1309152Y768222D02*
D03*
X1308495Y770675D02*
D03*
X1307837Y773129D02*
D03*
X1307180Y775582D02*
D03*
X1306523Y778036D02*
D03*
X1305865Y780489D02*
D03*
X1306699Y767564D02*
D03*
X1306041Y770018D02*
D03*
X1305384Y772471D02*
D03*
X1304727Y774925D02*
D03*
X1304069Y777378D02*
D03*
X1303412Y779832D02*
D03*
X1304245Y766907D02*
D03*
X1303588Y769360D02*
D03*
X1302930Y771814D02*
D03*
X1302273Y774267D02*
D03*
X1301615Y776721D02*
D03*
X1300958Y779174D02*
D03*
X1301792Y766249D02*
D03*
X1301134Y768703D02*
D03*
X1300477Y771156D02*
D03*
X1299820Y773610D02*
D03*
X1299162Y776063D02*
D03*
X1298505Y778517D02*
D03*
X1296051Y777859D02*
D03*
X1296709Y775406D02*
D03*
X1297366Y772952D02*
D03*
X1298024Y770499D02*
D03*
X1298681Y768046D02*
D03*
X1299338Y765592D02*
D03*
X1132006Y754019D02*
D03*
X1133802Y752223D02*
D03*
X1135598Y750427D02*
D03*
X1137394Y748631D02*
D03*
X1139190Y746835D02*
D03*
X1140986Y745039D02*
D03*
X1139190Y743243D02*
D03*
X1137394Y745039D02*
D03*
X1135598Y746835D02*
D03*
X1133802Y748631D02*
D03*
X1132006Y750427D02*
D03*
X1130210Y752223D02*
D03*
X1137394Y741447D02*
D03*
X1135598Y743243D02*
D03*
X1133802Y745039D02*
D03*
X1132006Y746835D02*
D03*
X1130210Y748631D02*
D03*
X1128414Y750427D02*
D03*
X1135598Y739651D02*
D03*
X1133802Y741447D02*
D03*
X1132006Y743243D02*
D03*
X1130210Y745039D02*
D03*
X1128414Y746835D02*
D03*
X1126618Y748631D02*
D03*
X1133802Y737855D02*
D03*
X1132006Y739651D02*
D03*
X1130210Y741447D02*
D03*
X1128414Y743243D02*
D03*
X1126618Y745039D02*
D03*
X1124822Y746835D02*
D03*
X1132006Y736059D02*
D03*
X1130210Y737855D02*
D03*
X1128414Y739651D02*
D03*
X1126618Y741447D02*
D03*
X1124822Y743243D02*
D03*
X1123026Y745039D02*
D03*
X1130210Y734262D02*
D03*
X1128414Y736059D02*
D03*
X1126618Y737855D02*
D03*
X1124822Y739651D02*
D03*
X1123026Y741447D02*
D03*
X1121229Y743243D02*
D03*
X1128414Y732466D02*
D03*
X1126618Y734262D02*
D03*
X1124822Y736059D02*
D03*
X1123026Y737855D02*
D03*
X1121229Y739651D02*
D03*
X1119433Y741447D02*
D03*
X1126618Y730670D02*
D03*
X1124822Y732466D02*
D03*
X1123026Y734262D02*
D03*
X1121229Y736059D02*
D03*
X1119433Y737855D02*
D03*
X1117637Y739651D02*
D03*
X1124822Y728874D02*
D03*
X1123026Y730670D02*
D03*
X1121229Y732466D02*
D03*
X1119433Y734262D02*
D03*
X1117637Y736059D02*
D03*
X1115841Y737855D02*
D03*
X1123026Y727078D02*
D03*
X1121229Y728874D02*
D03*
X1119433Y730670D02*
D03*
X1117637Y732466D02*
D03*
X1115841Y734262D02*
D03*
X1114045Y736059D02*
D03*
X1121229Y725282D02*
D03*
X1119433Y727078D02*
D03*
X1117637Y728874D02*
D03*
X1115841Y730670D02*
D03*
X1114045Y732466D02*
D03*
X1112249Y734262D02*
D03*
X1117637Y768387D02*
D03*
X1119433Y766591D02*
D03*
X1121229Y764795D02*
D03*
X1123026Y762999D02*
D03*
X1124822Y761203D02*
D03*
X1126618Y759407D02*
D03*
X1128414Y757611D02*
D03*
X1130210Y755815D02*
D03*
X1128414Y754019D02*
D03*
X1126618Y755815D02*
D03*
X1124822Y757611D02*
D03*
X1123026Y759407D02*
D03*
X1121229Y761203D02*
D03*
X1119433Y762999D02*
D03*
X1117637Y764795D02*
D03*
X1115841Y766591D02*
D03*
X1126618Y752223D02*
D03*
X1124822Y754019D02*
D03*
X1123026Y755815D02*
D03*
X1121229Y757611D02*
D03*
X1119433Y759407D02*
D03*
X1117637Y761203D02*
D03*
X1115841Y762999D02*
D03*
X1114045Y764795D02*
D03*
X1124822Y750427D02*
D03*
X1123026Y752223D02*
D03*
X1121229Y754019D02*
D03*
X1119433Y755815D02*
D03*
X1117637Y757611D02*
D03*
X1115841Y759407D02*
D03*
X1114045Y761203D02*
D03*
X1112249Y762999D02*
D03*
X1123026Y748631D02*
D03*
X1121229Y750427D02*
D03*
X1119433Y752223D02*
D03*
X1117637Y754019D02*
D03*
X1115841Y755815D02*
D03*
X1114045Y757611D02*
D03*
X1112249Y759407D02*
D03*
X1110453Y761203D02*
D03*
X1121229Y746835D02*
D03*
X1119433Y748631D02*
D03*
X1117637Y750427D02*
D03*
X1115841Y752223D02*
D03*
X1114045Y754019D02*
D03*
X1112249Y755815D02*
D03*
X1110453Y757611D02*
D03*
X1108657Y759407D02*
D03*
X1119433Y745039D02*
D03*
X1117637Y746835D02*
D03*
X1115841Y748631D02*
D03*
X1114045Y750427D02*
D03*
X1112249Y752223D02*
D03*
X1110453Y754019D02*
D03*
X1108657Y755815D02*
D03*
X1106861Y757611D02*
D03*
X1117637Y743243D02*
D03*
X1115841Y745039D02*
D03*
X1114045Y746835D02*
D03*
X1112249Y748631D02*
D03*
X1110453Y750427D02*
D03*
X1108657Y752223D02*
D03*
X1106861Y754019D02*
D03*
X1105065Y755815D02*
D03*
X1115841Y741447D02*
D03*
X1114045Y743243D02*
D03*
X1112249Y745039D02*
D03*
X1110453Y746835D02*
D03*
X1108657Y748631D02*
D03*
X1106861Y750427D02*
D03*
X1105065Y752223D02*
D03*
X1103269Y754019D02*
D03*
X1114045Y739651D02*
D03*
X1112249Y741447D02*
D03*
X1110453Y743243D02*
D03*
X1108657Y745039D02*
D03*
X1106861Y746835D02*
D03*
X1105065Y748631D02*
D03*
X1103269Y750427D02*
D03*
X1101473Y752223D02*
D03*
X1112249Y737855D02*
D03*
X1110453Y739651D02*
D03*
X1108657Y741447D02*
D03*
X1106861Y743243D02*
D03*
X1105065Y745039D02*
D03*
X1103269Y746835D02*
D03*
X1101473Y748631D02*
D03*
X1099677Y750427D02*
D03*
X1110453Y736059D02*
D03*
X1108657Y737855D02*
D03*
X1106861Y739651D02*
D03*
X1105065Y741447D02*
D03*
X1103269Y743243D02*
D03*
X1101473Y745039D02*
D03*
X1099677Y746835D02*
D03*
X1097881Y748631D02*
D03*
X1153558Y775572D02*
D03*
X1155355Y773775D02*
D03*
X1157150Y771980D02*
D03*
X1158947Y770183D02*
D03*
X1160743Y768387D02*
D03*
X1162539Y766591D02*
D03*
X1160743Y764795D02*
D03*
X1158947Y766591D02*
D03*
X1157150Y768387D02*
D03*
X1155355Y770183D02*
D03*
X1153558Y771980D02*
D03*
X1151762Y773775D02*
D03*
X1158947Y762999D02*
D03*
X1157150Y764795D02*
D03*
X1155355Y766591D02*
D03*
X1153558Y768387D02*
D03*
X1151762Y770183D02*
D03*
X1149966Y771980D02*
D03*
X1157150Y761203D02*
D03*
X1155355Y762999D02*
D03*
X1153558Y764795D02*
D03*
X1151762Y766591D02*
D03*
X1149966Y768387D02*
D03*
X1148170Y770183D02*
D03*
X1155355Y759407D02*
D03*
X1153558Y761203D02*
D03*
X1151762Y762999D02*
D03*
X1149966Y764795D02*
D03*
X1148170Y766591D02*
D03*
X1146374Y768387D02*
D03*
X1153558Y757611D02*
D03*
X1151762Y759407D02*
D03*
X1149966Y761203D02*
D03*
X1148170Y762999D02*
D03*
X1146374Y764795D02*
D03*
X1144578Y766591D02*
D03*
X1151762Y755815D02*
D03*
X1149966Y757611D02*
D03*
X1148170Y759407D02*
D03*
X1146374Y761203D02*
D03*
X1144578Y762999D02*
D03*
X1142782Y764795D02*
D03*
X1149966Y754019D02*
D03*
X1148170Y755815D02*
D03*
X1146374Y757611D02*
D03*
X1144578Y759407D02*
D03*
X1142782Y761203D02*
D03*
X1140986Y762999D02*
D03*
X1148170Y752223D02*
D03*
X1146374Y754019D02*
D03*
X1144578Y755815D02*
D03*
X1142782Y757611D02*
D03*
X1140986Y759407D02*
D03*
X1139190Y761203D02*
D03*
X1146374Y750427D02*
D03*
X1144578Y752223D02*
D03*
X1142782Y754019D02*
D03*
X1140986Y755815D02*
D03*
X1139190Y757611D02*
D03*
X1137394Y759407D02*
D03*
X1144578Y748631D02*
D03*
X1142782Y750427D02*
D03*
X1140986Y752223D02*
D03*
X1139190Y754019D02*
D03*
X1137394Y755815D02*
D03*
X1135598Y757611D02*
D03*
X1142782Y746835D02*
D03*
X1140986Y748631D02*
D03*
X1139190Y750427D02*
D03*
X1137394Y752223D02*
D03*
X1135598Y754019D02*
D03*
X1133802Y755815D02*
D03*
X1119433Y770183D02*
D03*
X1121229Y768387D02*
D03*
X1123026Y766591D02*
D03*
X1124822Y764795D02*
D03*
X1126618Y762999D02*
D03*
X1128414Y761203D02*
D03*
X1130210Y759407D02*
D03*
X1132006Y757611D02*
D03*
X1121229Y771980D02*
D03*
X1123026Y770183D02*
D03*
X1124822Y768387D02*
D03*
X1126618Y766591D02*
D03*
X1128414Y764795D02*
D03*
X1130210Y762999D02*
D03*
X1132006Y761203D02*
D03*
X1133802Y759407D02*
D03*
X1123026Y773775D02*
D03*
X1124822Y771980D02*
D03*
X1126618Y770183D02*
D03*
X1128414Y768387D02*
D03*
X1130210Y766591D02*
D03*
X1132006Y764795D02*
D03*
X1133802Y762999D02*
D03*
X1135598Y761203D02*
D03*
X1124822Y775572D02*
D03*
X1126618Y773775D02*
D03*
X1128414Y771980D02*
D03*
X1130210Y770183D02*
D03*
X1132006Y768387D02*
D03*
X1133802Y766591D02*
D03*
X1135598Y764795D02*
D03*
X1137394Y762999D02*
D03*
X1126618Y777368D02*
D03*
X1128414Y775572D02*
D03*
X1130210Y773775D02*
D03*
X1132006Y771980D02*
D03*
X1133802Y770183D02*
D03*
X1135598Y768387D02*
D03*
X1137394Y766591D02*
D03*
X1139190Y764795D02*
D03*
X1128414Y779164D02*
D03*
X1130210Y777368D02*
D03*
X1132006Y775572D02*
D03*
X1133802Y773775D02*
D03*
X1135598Y771980D02*
D03*
X1137394Y770183D02*
D03*
X1139190Y768387D02*
D03*
X1140986Y766591D02*
D03*
X1130210Y780960D02*
D03*
X1132006Y779164D02*
D03*
X1133802Y777368D02*
D03*
X1135598Y775572D02*
D03*
X1137394Y773775D02*
D03*
X1139190Y771980D02*
D03*
X1140986Y770183D02*
D03*
X1142782Y768387D02*
D03*
X1132006Y782756D02*
D03*
X1133802Y780960D02*
D03*
X1135598Y779164D02*
D03*
X1137394Y777368D02*
D03*
X1139190Y775572D02*
D03*
X1140986Y773775D02*
D03*
X1142782Y771980D02*
D03*
X1144578Y770183D02*
D03*
X1133802Y784552D02*
D03*
X1135598Y782756D02*
D03*
X1137394Y780960D02*
D03*
X1139190Y779164D02*
D03*
X1140986Y777368D02*
D03*
X1142782Y775572D02*
D03*
X1144578Y773775D02*
D03*
X1146374Y771980D02*
D03*
X1135598Y786348D02*
D03*
X1137394Y784552D02*
D03*
X1139190Y782756D02*
D03*
X1140986Y780960D02*
D03*
X1142782Y779164D02*
D03*
X1144578Y777368D02*
D03*
X1146374Y775572D02*
D03*
X1148170Y773775D02*
D03*
X1137394Y788144D02*
D03*
X1139190Y786348D02*
D03*
X1140986Y784552D02*
D03*
X1142782Y782756D02*
D03*
X1144578Y780960D02*
D03*
X1146374Y779164D02*
D03*
X1148170Y777368D02*
D03*
X1149966Y775572D02*
D03*
X1151762Y777368D02*
D03*
X1149966Y779164D02*
D03*
X1148170Y780960D02*
D03*
X1146374Y782756D02*
D03*
X1144578Y784552D02*
D03*
X1142782Y786348D02*
D03*
X1140986Y788144D02*
D03*
X1139190Y789940D02*
D03*
X1098334Y551600D02*
D03*
X1100280Y549967D02*
D03*
X1102225Y548334D02*
D03*
X1104171Y546702D02*
D03*
X1106117Y545069D02*
D03*
X1108063Y543436D02*
D03*
X1106430Y541490D02*
D03*
X1104484Y543123D02*
D03*
X1102538Y544756D02*
D03*
X1100593Y546388D02*
D03*
X1098647Y548021D02*
D03*
X1096701Y549654D02*
D03*
X1104797Y539545D02*
D03*
X1102851Y541177D02*
D03*
X1100906Y542810D02*
D03*
X1098960Y544443D02*
D03*
X1097014Y546075D02*
D03*
X1095069Y547708D02*
D03*
X1103165Y537599D02*
D03*
X1101219Y539232D02*
D03*
X1099273Y540864D02*
D03*
X1097327Y542497D02*
D03*
X1095382Y544130D02*
D03*
X1093436Y545762D02*
D03*
X1101532Y535653D02*
D03*
X1099586Y537286D02*
D03*
X1097640Y538918D02*
D03*
X1095695Y540551D02*
D03*
X1093749Y542184D02*
D03*
X1091803Y543816D02*
D03*
X1099899Y533707D02*
D03*
X1097953Y535340D02*
D03*
X1096008Y536973D02*
D03*
X1094062Y538605D02*
D03*
X1092116Y540238D02*
D03*
X1090171Y541871D02*
D03*
X1098267Y531762D02*
D03*
X1096321Y533394D02*
D03*
X1094375Y535027D02*
D03*
X1092429Y536660D02*
D03*
X1090483Y538292D02*
D03*
X1088538Y539925D02*
D03*
X1096634Y529816D02*
D03*
X1094688Y531449D02*
D03*
X1092742Y533081D02*
D03*
X1090797Y534714D02*
D03*
X1088851Y536347D02*
D03*
X1086905Y537979D02*
D03*
X1095001Y527870D02*
D03*
X1093055Y529503D02*
D03*
X1091110Y531135D02*
D03*
X1089164Y532768D02*
D03*
X1087218Y534401D02*
D03*
X1085272Y536034D02*
D03*
X1093369Y525924D02*
D03*
X1091423Y527557D02*
D03*
X1089477Y529190D02*
D03*
X1087531Y530822D02*
D03*
X1085585Y532455D02*
D03*
X1083640Y534088D02*
D03*
X1091736Y523979D02*
D03*
X1089790Y525611D02*
D03*
X1087844Y527244D02*
D03*
X1085899Y528877D02*
D03*
X1083953Y530509D02*
D03*
X1082007Y532142D02*
D03*
X1090103Y522033D02*
D03*
X1088157Y523666D02*
D03*
X1086212Y525298D02*
D03*
X1084266Y526931D02*
D03*
X1082320Y528564D02*
D03*
X1080374Y530196D02*
D03*
X1082768Y564661D02*
D03*
X1084714Y563028D02*
D03*
X1086659Y561396D02*
D03*
X1088605Y559763D02*
D03*
X1090551Y558130D02*
D03*
X1092497Y556497D02*
D03*
X1094442Y554865D02*
D03*
X1096388Y553232D02*
D03*
X1094755Y551286D02*
D03*
X1092810Y552919D02*
D03*
X1090864Y554552D02*
D03*
X1088918Y556185D02*
D03*
X1086972Y557817D02*
D03*
X1085027Y559450D02*
D03*
X1083081Y561082D02*
D03*
X1081135Y562715D02*
D03*
X1093123Y549341D02*
D03*
X1091177Y550973D02*
D03*
X1089231Y552606D02*
D03*
X1087286Y554239D02*
D03*
X1085340Y555871D02*
D03*
X1083394Y557504D02*
D03*
X1081448Y559137D02*
D03*
X1079502Y560770D02*
D03*
X1091490Y547395D02*
D03*
X1089544Y549028D02*
D03*
X1087599Y550660D02*
D03*
X1085653Y552293D02*
D03*
X1083707Y553926D02*
D03*
X1081761Y555558D02*
D03*
X1079816Y557191D02*
D03*
X1077870Y558824D02*
D03*
X1089857Y545449D02*
D03*
X1087912Y547082D02*
D03*
X1085966Y548714D02*
D03*
X1084020Y550347D02*
D03*
X1082074Y551980D02*
D03*
X1080129Y553613D02*
D03*
X1078183Y555245D02*
D03*
X1076237Y556878D02*
D03*
X1088225Y543503D02*
D03*
X1086279Y545136D02*
D03*
X1084333Y546769D02*
D03*
X1082387Y548401D02*
D03*
X1080442Y550034D02*
D03*
X1078496Y551667D02*
D03*
X1076550Y553299D02*
D03*
X1074604Y554932D02*
D03*
X1086592Y541558D02*
D03*
X1084646Y543190D02*
D03*
X1082701Y544823D02*
D03*
X1080755Y546456D02*
D03*
X1078809Y548088D02*
D03*
X1076863Y549721D02*
D03*
X1074918Y551354D02*
D03*
X1072972Y552986D02*
D03*
X1084959Y539612D02*
D03*
X1083014Y541245D02*
D03*
X1081068Y542877D02*
D03*
X1079122Y544510D02*
D03*
X1077176Y546143D02*
D03*
X1075231Y547775D02*
D03*
X1073285Y549408D02*
D03*
X1071339Y551041D02*
D03*
X1083327Y537666D02*
D03*
X1081381Y539299D02*
D03*
X1079435Y540932D02*
D03*
X1077489Y542564D02*
D03*
X1075544Y544197D02*
D03*
X1073598Y545830D02*
D03*
X1071652Y547462D02*
D03*
X1069706Y549095D02*
D03*
X1081694Y535720D02*
D03*
X1079748Y537353D02*
D03*
X1077803Y538986D02*
D03*
X1075857Y540619D02*
D03*
X1073911Y542251D02*
D03*
X1071965Y543884D02*
D03*
X1070019Y545517D02*
D03*
X1068074Y547149D02*
D03*
X1080061Y533775D02*
D03*
X1078115Y535407D02*
D03*
X1076170Y537040D02*
D03*
X1074224Y538673D02*
D03*
X1072278Y540305D02*
D03*
X1070332Y541938D02*
D03*
X1068387Y543571D02*
D03*
X1066441Y545203D02*
D03*
X1078429Y531829D02*
D03*
X1076483Y533462D02*
D03*
X1074537Y535094D02*
D03*
X1072591Y536727D02*
D03*
X1070646Y538360D02*
D03*
X1068700Y539992D02*
D03*
X1066754Y541625D02*
D03*
X1064808Y543258D02*
D03*
X1117926Y574949D02*
D03*
X1119872Y573316D02*
D03*
X1121817Y571683D02*
D03*
X1123763Y570051D02*
D03*
X1125709Y568418D02*
D03*
X1127655Y566785D02*
D03*
X1126022Y564839D02*
D03*
X1124076Y566472D02*
D03*
X1122131Y568105D02*
D03*
X1120185Y569737D02*
D03*
X1118239Y571370D02*
D03*
X1116293Y573003D02*
D03*
X1124389Y562894D02*
D03*
X1122444Y564526D02*
D03*
X1120498Y566159D02*
D03*
X1118552Y567792D02*
D03*
X1116606Y569424D02*
D03*
X1114661Y571057D02*
D03*
X1122757Y560948D02*
D03*
X1120811Y562581D02*
D03*
X1118865Y564213D02*
D03*
X1116919Y565846D02*
D03*
X1114974Y567479D02*
D03*
X1113028Y569111D02*
D03*
X1121124Y559002D02*
D03*
X1119178Y560635D02*
D03*
X1117233Y562267D02*
D03*
X1115287Y563900D02*
D03*
X1113341Y565533D02*
D03*
X1111395Y567165D02*
D03*
X1119491Y557056D02*
D03*
X1117546Y558689D02*
D03*
X1115600Y560322D02*
D03*
X1113654Y561954D02*
D03*
X1111708Y563587D02*
D03*
X1109763Y565220D02*
D03*
X1117859Y555111D02*
D03*
X1115913Y556743D02*
D03*
X1113967Y558376D02*
D03*
X1112021Y560009D02*
D03*
X1110076Y561641D02*
D03*
X1108130Y563274D02*
D03*
X1116226Y553165D02*
D03*
X1114280Y554798D02*
D03*
X1112335Y556430D02*
D03*
X1110389Y558063D02*
D03*
X1108443Y559696D02*
D03*
X1106497Y561328D02*
D03*
X1114593Y551219D02*
D03*
X1112648Y552852D02*
D03*
X1110702Y554484D02*
D03*
X1108756Y556117D02*
D03*
X1106810Y557750D02*
D03*
X1104865Y559383D02*
D03*
X1112961Y549273D02*
D03*
X1111015Y550906D02*
D03*
X1109069Y552539D02*
D03*
X1107123Y554171D02*
D03*
X1105178Y555804D02*
D03*
X1103232Y557437D02*
D03*
X1111328Y547328D02*
D03*
X1109382Y548960D02*
D03*
X1107437Y550593D02*
D03*
X1105491Y552226D02*
D03*
X1103545Y553858D02*
D03*
X1101599Y555491D02*
D03*
X1109695Y545382D02*
D03*
X1107749Y547015D02*
D03*
X1105804Y548647D02*
D03*
X1103858Y550280D02*
D03*
X1101912Y551913D02*
D03*
X1099967Y553545D02*
D03*
X1084400Y566607D02*
D03*
X1086346Y564974D02*
D03*
X1088292Y563341D02*
D03*
X1090238Y561709D02*
D03*
X1092184Y560076D02*
D03*
X1094129Y558443D02*
D03*
X1096075Y556811D02*
D03*
X1098021Y555178D02*
D03*
X1086033Y568553D02*
D03*
X1087979Y566920D02*
D03*
X1089925Y565287D02*
D03*
X1091870Y563654D02*
D03*
X1093816Y562022D02*
D03*
X1095762Y560389D02*
D03*
X1097708Y558756D02*
D03*
X1099653Y557124D02*
D03*
X1087666Y570498D02*
D03*
X1089612Y568866D02*
D03*
X1091557Y567233D02*
D03*
X1093503Y565600D02*
D03*
X1095449Y563968D02*
D03*
X1097395Y562335D02*
D03*
X1099340Y560702D02*
D03*
X1101286Y559070D02*
D03*
X1089299Y572444D02*
D03*
X1091244Y570811D02*
D03*
X1093190Y569179D02*
D03*
X1095136Y567546D02*
D03*
X1097082Y565913D02*
D03*
X1099027Y564281D02*
D03*
X1100973Y562648D02*
D03*
X1102919Y561015D02*
D03*
X1090931Y574390D02*
D03*
X1092877Y572757D02*
D03*
X1094823Y571124D02*
D03*
X1096768Y569492D02*
D03*
X1098714Y567859D02*
D03*
X1100660Y566226D02*
D03*
X1102606Y564594D02*
D03*
X1104551Y562961D02*
D03*
X1092564Y576335D02*
D03*
X1094510Y574703D02*
D03*
X1096455Y573070D02*
D03*
X1098401Y571437D02*
D03*
X1100347Y569805D02*
D03*
X1102293Y568172D02*
D03*
X1104238Y566539D02*
D03*
X1106184Y564907D02*
D03*
X1094197Y578281D02*
D03*
X1096142Y576649D02*
D03*
X1098088Y575016D02*
D03*
X1100034Y573383D02*
D03*
X1101980Y571750D02*
D03*
X1103925Y570118D02*
D03*
X1105871Y568485D02*
D03*
X1107817Y566852D02*
D03*
X1095829Y580227D02*
D03*
X1097775Y578594D02*
D03*
X1099721Y576962D02*
D03*
X1101666Y575329D02*
D03*
X1103612Y573696D02*
D03*
X1105558Y572064D02*
D03*
X1107504Y570431D02*
D03*
X1109449Y568798D02*
D03*
X1097462Y582173D02*
D03*
X1099408Y580540D02*
D03*
X1101353Y578907D02*
D03*
X1103299Y577275D02*
D03*
X1105245Y575642D02*
D03*
X1107191Y574009D02*
D03*
X1109137Y572377D02*
D03*
X1111082Y570744D02*
D03*
X1102986Y580853D02*
D03*
X1104932Y579221D02*
D03*
X1106878Y577588D02*
D03*
X1108823Y575955D02*
D03*
X1110769Y574322D02*
D03*
X1112715Y572690D02*
D03*
X1106565Y581166D02*
D03*
X1108510Y579534D02*
D03*
X1110456Y577901D02*
D03*
X1112402Y576268D02*
D03*
X1114348Y574636D02*
D03*
X1115980Y576581D02*
D03*
X1114035Y578214D02*
D03*
X1112089Y579847D02*
D03*
X1110143Y581479D02*
D03*
X1108197Y583112D02*
D03*
X882214Y552886D02*
D03*
X884010Y551090D02*
D03*
X885806Y549294D02*
D03*
X887602Y547498D02*
D03*
X885806Y545702D02*
D03*
X884010Y547498D02*
D03*
X882214Y549294D02*
D03*
X880418Y551090D02*
D03*
X878622Y552886D02*
D03*
X884010Y543905D02*
D03*
X882214Y545702D02*
D03*
X880418Y547498D02*
D03*
X878622Y549294D02*
D03*
X876826Y551090D02*
D03*
X875030Y552886D02*
D03*
X882214Y542109D02*
D03*
X880418Y543905D02*
D03*
X878622Y545702D02*
D03*
X876826Y547498D02*
D03*
X875030Y549294D02*
D03*
X880418Y540313D02*
D03*
X878622Y542109D02*
D03*
X876826Y543905D02*
D03*
X875030Y545702D02*
D03*
X873234Y547498D02*
D03*
X878622Y538517D02*
D03*
X876826Y540313D02*
D03*
X875030Y542109D02*
D03*
X873234Y543905D02*
D03*
X871438Y545702D02*
D03*
X869642Y547498D02*
D03*
X876826Y536721D02*
D03*
X875030Y538517D02*
D03*
X873234Y540313D02*
D03*
X871438Y542109D02*
D03*
X869642Y543905D02*
D03*
X867846Y545702D02*
D03*
X866050Y547498D02*
D03*
X875030Y534925D02*
D03*
X873234Y536721D02*
D03*
X871438Y538517D02*
D03*
X869642Y540313D02*
D03*
X867846Y542109D02*
D03*
X866050Y543905D02*
D03*
X864254Y545702D02*
D03*
X862458Y547498D02*
D03*
X873234Y533129D02*
D03*
X871438Y534925D02*
D03*
X869642Y536721D02*
D03*
X867846Y538517D02*
D03*
X866050Y540313D02*
D03*
X864254Y542109D02*
D03*
X862458Y543905D02*
D03*
X860662Y545702D02*
D03*
X871438Y531333D02*
D03*
X869642Y533129D02*
D03*
X867846Y534925D02*
D03*
X866050Y536721D02*
D03*
X864254Y538517D02*
D03*
X862458Y540313D02*
D03*
X860662Y542109D02*
D03*
X858866Y543905D02*
D03*
X869642Y529537D02*
D03*
X867846Y531333D02*
D03*
X866050Y533129D02*
D03*
X864254Y534925D02*
D03*
X862458Y536721D02*
D03*
X860662Y538517D02*
D03*
X858866Y540313D02*
D03*
X857069Y542109D02*
D03*
X867846Y527741D02*
D03*
X866050Y529537D02*
D03*
X864254Y531333D02*
D03*
X862458Y533129D02*
D03*
X860662Y534925D02*
D03*
X858866Y536721D02*
D03*
X857069Y538517D02*
D03*
X855273Y540313D02*
D03*
X869642Y525945D02*
D03*
X871438Y524149D02*
D03*
X873234Y522353D02*
D03*
X875030Y520557D02*
D03*
X876826Y518761D02*
D03*
X878622Y516965D02*
D03*
X871438Y527741D02*
D03*
X873234Y525945D02*
D03*
X875030Y524149D02*
D03*
X876826Y522353D02*
D03*
X878622Y520557D02*
D03*
X880418Y518761D02*
D03*
X873234Y529537D02*
D03*
X875030Y527741D02*
D03*
X876826Y525945D02*
D03*
X878622Y524149D02*
D03*
X880418Y522353D02*
D03*
X882214Y520557D02*
D03*
X875030Y531333D02*
D03*
X876826Y529537D02*
D03*
X878622Y527741D02*
D03*
X880418Y525945D02*
D03*
X882214Y524149D02*
D03*
X884010Y522353D02*
D03*
X876826Y533129D02*
D03*
X878622Y531333D02*
D03*
X880418Y529537D02*
D03*
X882214Y527741D02*
D03*
X884010Y525945D02*
D03*
X885806Y524149D02*
D03*
X878622Y534925D02*
D03*
X880418Y533129D02*
D03*
X882214Y531333D02*
D03*
X884010Y529537D02*
D03*
X885806Y527741D02*
D03*
X887602Y525945D02*
D03*
X880418Y536721D02*
D03*
X882214Y534925D02*
D03*
X884010Y533129D02*
D03*
X885806Y531333D02*
D03*
X887602Y529537D02*
D03*
X889398Y527741D02*
D03*
X882214Y538517D02*
D03*
X884010Y536721D02*
D03*
X885806Y534925D02*
D03*
X887602Y533129D02*
D03*
X889398Y531333D02*
D03*
X891195Y529537D02*
D03*
X884010Y540313D02*
D03*
X885806Y538517D02*
D03*
X887602Y536721D02*
D03*
X889398Y534925D02*
D03*
X891195Y533129D02*
D03*
X892990Y531333D02*
D03*
X885806Y542109D02*
D03*
X887602Y540313D02*
D03*
X889398Y538517D02*
D03*
X891195Y536721D02*
D03*
X892990Y534925D02*
D03*
X894787Y533129D02*
D03*
X887602Y543905D02*
D03*
X889398Y542109D02*
D03*
X891195Y540313D02*
D03*
X892990Y538517D02*
D03*
X894787Y536721D02*
D03*
X896583Y534925D02*
D03*
X898379Y536721D02*
D03*
X896583Y538517D02*
D03*
X894787Y540313D02*
D03*
X892990Y542109D02*
D03*
X891195Y543905D02*
D03*
X889398Y545702D02*
D03*
X833721Y518761D02*
D03*
X835517Y516965D02*
D03*
X837313Y515169D02*
D03*
X839109Y513373D02*
D03*
X840905Y511577D02*
D03*
X842701Y509781D02*
D03*
X844497Y507985D02*
D03*
X846293Y506189D02*
D03*
X835517Y520557D02*
D03*
X837313Y518761D02*
D03*
X839109Y516965D02*
D03*
X840905Y515169D02*
D03*
X842701Y513373D02*
D03*
X844497Y511577D02*
D03*
X846293Y509781D02*
D03*
X848089Y507985D02*
D03*
X837313Y522353D02*
D03*
X839109Y520557D02*
D03*
X840905Y518761D02*
D03*
X842701Y516965D02*
D03*
X844497Y515169D02*
D03*
X846293Y513373D02*
D03*
X848089Y511577D02*
D03*
X849885Y509781D02*
D03*
X839109Y524149D02*
D03*
X840905Y522353D02*
D03*
X842701Y520557D02*
D03*
X844497Y518761D02*
D03*
X846293Y516965D02*
D03*
X848089Y515169D02*
D03*
X849885Y513373D02*
D03*
X851681Y511577D02*
D03*
X840905Y525945D02*
D03*
X842701Y524149D02*
D03*
X844497Y522353D02*
D03*
X846293Y520557D02*
D03*
X848089Y518761D02*
D03*
X849885Y516965D02*
D03*
X851681Y515169D02*
D03*
X853477Y513373D02*
D03*
X842701Y527741D02*
D03*
X844497Y525945D02*
D03*
X846293Y524149D02*
D03*
X848089Y522353D02*
D03*
X849885Y520557D02*
D03*
X851681Y518761D02*
D03*
X853477Y516965D02*
D03*
X855273Y515169D02*
D03*
X844497Y529537D02*
D03*
X846293Y527741D02*
D03*
X848089Y525945D02*
D03*
X849885Y524149D02*
D03*
X851681Y522353D02*
D03*
X853477Y520557D02*
D03*
X855273Y518761D02*
D03*
X857069Y516965D02*
D03*
X846293Y531333D02*
D03*
X848089Y529537D02*
D03*
X849885Y527741D02*
D03*
X851681Y525945D02*
D03*
X853477Y524149D02*
D03*
X855273Y522353D02*
D03*
X857069Y520557D02*
D03*
X858866Y518761D02*
D03*
X848089Y533129D02*
D03*
X849885Y531333D02*
D03*
X851681Y529537D02*
D03*
X853477Y527741D02*
D03*
X855273Y525945D02*
D03*
X857069Y524149D02*
D03*
X858866Y522353D02*
D03*
X860662Y520557D02*
D03*
X849885Y534925D02*
D03*
X851681Y533129D02*
D03*
X853477Y531333D02*
D03*
X855273Y529537D02*
D03*
X857069Y527741D02*
D03*
X858866Y525945D02*
D03*
X860662Y524149D02*
D03*
X862458Y522353D02*
D03*
X851681Y536721D02*
D03*
X853477Y534925D02*
D03*
X855273Y533129D02*
D03*
X857069Y531333D02*
D03*
X858866Y529537D02*
D03*
X860662Y527741D02*
D03*
X862458Y525945D02*
D03*
X864254Y524149D02*
D03*
X866050Y525945D02*
D03*
X864254Y527741D02*
D03*
X862458Y529537D02*
D03*
X860662Y531333D02*
D03*
X858866Y533129D02*
D03*
X857069Y534925D02*
D03*
X855273Y536721D02*
D03*
X853477Y538517D02*
D03*
X848089Y504392D02*
D03*
X849885Y502596D02*
D03*
X851681Y500800D02*
D03*
X853477Y499004D02*
D03*
X855273Y497208D02*
D03*
X857069Y495412D02*
D03*
X849885Y506189D02*
D03*
X851681Y504392D02*
D03*
X853477Y502596D02*
D03*
X855273Y500800D02*
D03*
X857069Y499004D02*
D03*
X858866Y497208D02*
D03*
X851681Y507985D02*
D03*
X853477Y506189D02*
D03*
X855273Y504392D02*
D03*
X857069Y502596D02*
D03*
X858866Y500800D02*
D03*
X860662Y499004D02*
D03*
X853477Y509781D02*
D03*
X855273Y507985D02*
D03*
X857069Y506189D02*
D03*
X858866Y504392D02*
D03*
X860662Y502596D02*
D03*
X862458Y500800D02*
D03*
X855273Y511577D02*
D03*
X857069Y509781D02*
D03*
X858866Y507985D02*
D03*
X860662Y506189D02*
D03*
X862458Y504392D02*
D03*
X864254Y502596D02*
D03*
X857069Y513373D02*
D03*
X858866Y511577D02*
D03*
X860662Y509781D02*
D03*
X862458Y507985D02*
D03*
X864254Y506189D02*
D03*
X866050Y504392D02*
D03*
X858866Y515169D02*
D03*
X860662Y513373D02*
D03*
X862458Y511577D02*
D03*
X864254Y509781D02*
D03*
X866050Y507985D02*
D03*
X867846Y506189D02*
D03*
X860662Y516965D02*
D03*
X862458Y515169D02*
D03*
X864254Y513373D02*
D03*
X866050Y511577D02*
D03*
X867846Y509781D02*
D03*
X869642Y507985D02*
D03*
X862458Y518761D02*
D03*
X864254Y516965D02*
D03*
X866050Y515169D02*
D03*
X867846Y513373D02*
D03*
X869642Y511577D02*
D03*
X871438Y509781D02*
D03*
X864254Y520557D02*
D03*
X866050Y518761D02*
D03*
X867846Y516965D02*
D03*
X869642Y515169D02*
D03*
X871438Y513373D02*
D03*
X873234Y511577D02*
D03*
X866050Y522353D02*
D03*
X867846Y520557D02*
D03*
X869642Y518761D02*
D03*
X871438Y516965D02*
D03*
X873234Y515169D02*
D03*
X875030Y513373D02*
D03*
X876826Y515169D02*
D03*
X875030Y516965D02*
D03*
X873234Y518761D02*
D03*
X871438Y520557D02*
D03*
X869642Y522353D02*
D03*
X867846Y524149D02*
D03*
X753110Y502920D02*
D03*
X754906Y504716D02*
D03*
X756702Y502920D02*
D03*
X754906Y501124D02*
D03*
X760294Y502920D02*
D03*
X758498Y501124D02*
D03*
X756702Y499328D02*
D03*
X763886Y502920D02*
D03*
X762090Y501124D02*
D03*
X760294Y499328D02*
D03*
X758498Y497532D02*
D03*
X767478Y502920D02*
D03*
X765682Y501124D02*
D03*
X763886Y499328D02*
D03*
X762090Y497532D02*
D03*
X760294Y495736D02*
D03*
X767478Y499328D02*
D03*
X765682Y497532D02*
D03*
X763886Y495736D02*
D03*
X762090Y493940D02*
D03*
X767478Y495736D02*
D03*
X765682Y493940D02*
D03*
X763886Y492144D02*
D03*
X769275Y493940D02*
D03*
X767478Y492144D02*
D03*
X765682Y490348D02*
D03*
X769275D02*
D03*
X767478Y488552D02*
D03*
X771070D02*
D03*
X769275Y486755D02*
D03*
X772867D02*
D03*
X771070Y484959D02*
D03*
X774663D02*
D03*
X772867Y483163D02*
D03*
X794419Y504716D02*
D03*
X796215Y506512D02*
D03*
X794419Y508308D02*
D03*
X778255Y513696D02*
D03*
X774663Y517288D02*
D03*
X771070D02*
D03*
X794419Y461611D02*
D03*
X796215Y463407D02*
D03*
X792623D02*
D03*
X794419Y465203D02*
D03*
X790827D02*
D03*
X792623Y466999D02*
D03*
X789031D02*
D03*
X790827Y468795D02*
D03*
X787235D02*
D03*
X789031Y470591D02*
D03*
X785439D02*
D03*
X787235Y472387D02*
D03*
X783643D02*
D03*
X785439Y474183D02*
D03*
X787235Y475979D02*
D03*
X781847Y474183D02*
D03*
X783643Y475979D02*
D03*
X785439Y477775D02*
D03*
X780051Y475979D02*
D03*
X781847Y477775D02*
D03*
X783643Y479571D02*
D03*
X785439Y481367D02*
D03*
X778255Y477775D02*
D03*
X780051Y479571D02*
D03*
X781847Y481367D02*
D03*
X783643Y483163D02*
D03*
X785439Y484959D02*
D03*
X787235Y486755D02*
D03*
X790827Y490348D02*
D03*
X776459Y479571D02*
D03*
X778255Y481367D02*
D03*
X780051Y483163D02*
D03*
X781847Y484959D02*
D03*
X778255D02*
D03*
X776459Y483163D02*
D03*
X774663Y481367D02*
D03*
X815972Y483163D02*
D03*
X817768Y484959D02*
D03*
X814176D02*
D03*
X815972Y486755D02*
D03*
X812380D02*
D03*
X814176Y488552D02*
D03*
X810584D02*
D03*
X812380Y490348D02*
D03*
X808788D02*
D03*
X810584Y492144D02*
D03*
X806992D02*
D03*
X808788Y493940D02*
D03*
X803399Y492144D02*
D03*
X805195Y493940D02*
D03*
X806992Y495736D02*
D03*
X799807Y492144D02*
D03*
X801603Y493940D02*
D03*
X803399Y495736D02*
D03*
X805195Y497532D02*
D03*
X796215Y492144D02*
D03*
X798011Y493940D02*
D03*
X799807Y495736D02*
D03*
X801603Y497532D02*
D03*
X803399Y499328D02*
D03*
X792623Y492144D02*
D03*
X794419Y493940D02*
D03*
X796215Y495736D02*
D03*
X798011Y497532D02*
D03*
X799807Y499328D02*
D03*
X801603Y501124D02*
D03*
X794419Y497532D02*
D03*
X796215Y499328D02*
D03*
X798011Y501124D02*
D03*
X799807Y502920D02*
D03*
X798011Y504716D02*
D03*
X796215Y502920D02*
D03*
X794419Y501124D02*
D03*
X980440Y763270D02*
D03*
X982236Y765066D02*
D03*
X984032Y766862D02*
D03*
X985828Y768658D02*
D03*
X987624Y770454D02*
D03*
X989420Y772250D02*
D03*
X991216Y774046D02*
D03*
X993012Y775842D02*
D03*
X994808Y774046D02*
D03*
X993012Y772250D02*
D03*
X991216Y770454D02*
D03*
X989420Y768658D02*
D03*
X987624Y766862D02*
D03*
X985828Y765066D02*
D03*
X984032Y763270D02*
D03*
X982236Y761474D02*
D03*
X996605Y772250D02*
D03*
X994808Y770454D02*
D03*
X993012Y768658D02*
D03*
X991216Y766862D02*
D03*
X989420Y765066D02*
D03*
X987624Y763270D02*
D03*
X985828Y761474D02*
D03*
X984032Y759678D02*
D03*
X998400Y770454D02*
D03*
X996605Y768658D02*
D03*
X994808Y766862D02*
D03*
X993012Y765066D02*
D03*
X991216Y763270D02*
D03*
X989420Y761474D02*
D03*
X987624Y759678D02*
D03*
X985828Y757882D02*
D03*
X1000197Y768658D02*
D03*
X998400Y766862D02*
D03*
X996605Y765066D02*
D03*
X994808Y763270D02*
D03*
X993012Y761474D02*
D03*
X991216Y759678D02*
D03*
X989420Y757882D02*
D03*
X987624Y756086D02*
D03*
X1001993Y766862D02*
D03*
X1000197Y765066D02*
D03*
X998400Y763270D02*
D03*
X996605Y761474D02*
D03*
X994808Y759678D02*
D03*
X993012Y757882D02*
D03*
X991216Y756086D02*
D03*
X989420Y754290D02*
D03*
X1003789Y765066D02*
D03*
X1001993Y763270D02*
D03*
X1000197Y761474D02*
D03*
X998400Y759678D02*
D03*
X996605Y757882D02*
D03*
X994808Y756086D02*
D03*
X993012Y754290D02*
D03*
X991216Y752494D02*
D03*
X1005585Y763270D02*
D03*
X1003789Y761474D02*
D03*
X1001993Y759678D02*
D03*
X1000197Y757882D02*
D03*
X998400Y756086D02*
D03*
X996605Y754290D02*
D03*
X994808Y752494D02*
D03*
X993012Y750698D02*
D03*
X1007381Y761474D02*
D03*
X1005585Y759678D02*
D03*
X1003789Y757882D02*
D03*
X1001993Y756086D02*
D03*
X1000197Y754290D02*
D03*
X998400Y752494D02*
D03*
X996605Y750698D02*
D03*
X994808Y748902D02*
D03*
X1009177Y759678D02*
D03*
X1007381Y757882D02*
D03*
X1005585Y756086D02*
D03*
X1003789Y754290D02*
D03*
X1001993Y752494D02*
D03*
X1000197Y750698D02*
D03*
X998400Y748902D02*
D03*
X996605Y747105D02*
D03*
X1010973Y757882D02*
D03*
X1009177Y756086D02*
D03*
X1007381Y754290D02*
D03*
X1005585Y752494D02*
D03*
X1003789Y750698D02*
D03*
X1001993Y748902D02*
D03*
X1000197Y747105D02*
D03*
X998400Y745310D02*
D03*
X1012769Y756086D02*
D03*
X1010973Y754290D02*
D03*
X1009177Y752494D02*
D03*
X1007381Y750698D02*
D03*
X1005585Y748902D02*
D03*
X1003789Y747105D02*
D03*
X1001993Y745310D02*
D03*
X1000197Y743513D02*
D03*
X1014565Y757882D02*
D03*
X1016361Y759678D02*
D03*
X1018157Y761474D02*
D03*
X1019953Y763270D02*
D03*
X1021749Y765066D02*
D03*
X1023545Y766862D02*
D03*
X1012769Y759678D02*
D03*
X1014565Y761474D02*
D03*
X1016361Y763270D02*
D03*
X1018157Y765066D02*
D03*
X1019953Y766862D02*
D03*
X1021749Y768658D02*
D03*
X1010973Y761474D02*
D03*
X1012769Y763270D02*
D03*
X1014565Y765066D02*
D03*
X1016361Y766862D02*
D03*
X1018157Y768658D02*
D03*
X1019953Y770454D02*
D03*
X1009177Y763270D02*
D03*
X1010973Y765066D02*
D03*
X1012769Y766862D02*
D03*
X1014565Y768658D02*
D03*
X1016361Y770454D02*
D03*
X1018157Y772250D02*
D03*
X1007381Y765066D02*
D03*
X1009177Y766862D02*
D03*
X1010973Y768658D02*
D03*
X1012769Y770454D02*
D03*
X1014565Y772250D02*
D03*
X1016361Y774046D02*
D03*
X1005585Y766862D02*
D03*
X1007381Y768658D02*
D03*
X1009177Y770454D02*
D03*
X1010973Y772250D02*
D03*
X1012769Y774046D02*
D03*
X1014565Y775842D02*
D03*
X1003789Y768658D02*
D03*
X1005585Y770454D02*
D03*
X1007381Y772250D02*
D03*
X1009177Y774046D02*
D03*
X1010973Y775842D02*
D03*
X1012769Y777638D02*
D03*
X1001993Y770454D02*
D03*
X1003789Y772250D02*
D03*
X1005585Y774046D02*
D03*
X1007381Y775842D02*
D03*
X1009177Y777638D02*
D03*
X1010973Y779435D02*
D03*
X1000197Y772250D02*
D03*
X1001993Y774046D02*
D03*
X1003789Y775842D02*
D03*
X1005585Y777638D02*
D03*
X1007381Y779435D02*
D03*
X1009177Y781230D02*
D03*
X998400Y774046D02*
D03*
X1000197Y775842D02*
D03*
X1001993Y777638D02*
D03*
X1003789Y779435D02*
D03*
X1005585Y781230D02*
D03*
X1007381Y783027D02*
D03*
X996605Y775842D02*
D03*
X998400Y777638D02*
D03*
X1000197Y779435D02*
D03*
X1001993Y781230D02*
D03*
X1003789Y783027D02*
D03*
X1005585Y784823D02*
D03*
X1003789Y786619D02*
D03*
X1001993Y784823D02*
D03*
X1000197Y783027D02*
D03*
X998400Y781230D02*
D03*
X996605Y779435D02*
D03*
X994808Y777638D02*
D03*
X1021749Y721961D02*
D03*
X1023545Y723757D02*
D03*
X1025341Y725553D02*
D03*
X1027137Y727349D02*
D03*
X1028933Y729145D02*
D03*
X1030729Y730941D02*
D03*
X1032525Y732737D02*
D03*
X1034322Y734533D02*
D03*
X1019953Y723757D02*
D03*
X1021749Y725553D02*
D03*
X1023545Y727349D02*
D03*
X1025341Y729145D02*
D03*
X1027137Y730941D02*
D03*
X1028933Y732737D02*
D03*
X1030729Y734533D02*
D03*
X1032525Y736329D02*
D03*
X1018157Y725553D02*
D03*
X1019953Y727349D02*
D03*
X1021749Y729145D02*
D03*
X1023545Y730941D02*
D03*
X1025341Y732737D02*
D03*
X1027137Y734533D02*
D03*
X1028933Y736329D02*
D03*
X1030729Y738125D02*
D03*
X1016361Y727349D02*
D03*
X1018157Y729145D02*
D03*
X1019953Y730941D02*
D03*
X1021749Y732737D02*
D03*
X1023545Y734533D02*
D03*
X1025341Y736329D02*
D03*
X1027137Y738125D02*
D03*
X1028933Y739921D02*
D03*
X1014565Y729145D02*
D03*
X1016361Y730941D02*
D03*
X1018157Y732737D02*
D03*
X1019953Y734533D02*
D03*
X1021749Y736329D02*
D03*
X1023545Y738125D02*
D03*
X1025341Y739921D02*
D03*
X1027137Y741717D02*
D03*
X1012769Y730941D02*
D03*
X1014565Y732737D02*
D03*
X1016361Y734533D02*
D03*
X1018157Y736329D02*
D03*
X1019953Y738125D02*
D03*
X1021749Y739921D02*
D03*
X1023545Y741717D02*
D03*
X1025341Y743513D02*
D03*
X1010973Y732737D02*
D03*
X1012769Y734533D02*
D03*
X1014565Y736329D02*
D03*
X1016361Y738125D02*
D03*
X1018157Y739921D02*
D03*
X1019953Y741717D02*
D03*
X1021749Y743513D02*
D03*
X1023545Y745310D02*
D03*
X1009177Y734533D02*
D03*
X1010973Y736329D02*
D03*
X1012769Y738125D02*
D03*
X1014565Y739921D02*
D03*
X1016361Y741717D02*
D03*
X1018157Y743513D02*
D03*
X1019953Y745310D02*
D03*
X1021749Y747105D02*
D03*
X1007381Y736329D02*
D03*
X1009177Y738125D02*
D03*
X1010973Y739921D02*
D03*
X1012769Y741717D02*
D03*
X1014565Y743513D02*
D03*
X1016361Y745310D02*
D03*
X1018157Y747105D02*
D03*
X1019953Y748902D02*
D03*
X1005585Y738125D02*
D03*
X1007381Y739921D02*
D03*
X1009177Y741717D02*
D03*
X1010973Y743513D02*
D03*
X1012769Y745310D02*
D03*
X1014565Y747105D02*
D03*
X1016361Y748902D02*
D03*
X1018157Y750698D02*
D03*
X1003789Y739921D02*
D03*
X1005585Y741717D02*
D03*
X1007381Y743513D02*
D03*
X1009177Y745310D02*
D03*
X1010973Y747105D02*
D03*
X1012769Y748902D02*
D03*
X1014565Y750698D02*
D03*
X1016361Y752494D02*
D03*
X1014565Y754290D02*
D03*
X1012769Y752494D02*
D03*
X1010973Y750698D02*
D03*
X1009177Y748902D02*
D03*
X1007381Y747105D02*
D03*
X1005585Y745310D02*
D03*
X1003789Y743513D02*
D03*
X1001993Y741717D02*
D03*
X1036118Y736329D02*
D03*
X1037914Y738125D02*
D03*
X1039710Y739921D02*
D03*
X1041506Y741717D02*
D03*
X1043302Y743513D02*
D03*
X1045098Y745310D02*
D03*
X1034322Y738125D02*
D03*
X1036118Y739921D02*
D03*
X1037914Y741717D02*
D03*
X1039710Y743513D02*
D03*
X1041506Y745310D02*
D03*
X1043302Y747105D02*
D03*
X1032525Y739921D02*
D03*
X1034322Y741717D02*
D03*
X1036118Y743513D02*
D03*
X1037914Y745310D02*
D03*
X1039710Y747105D02*
D03*
X1041506Y748902D02*
D03*
X1030729Y741717D02*
D03*
X1032525Y743513D02*
D03*
X1034322Y745310D02*
D03*
X1036118Y747105D02*
D03*
X1037914Y748902D02*
D03*
X1039710Y750698D02*
D03*
X1028933Y743513D02*
D03*
X1030729Y745310D02*
D03*
X1032525Y747105D02*
D03*
X1034322Y748902D02*
D03*
X1036118Y750698D02*
D03*
X1037914Y752494D02*
D03*
X1027137Y745310D02*
D03*
X1028933Y747105D02*
D03*
X1030729Y748902D02*
D03*
X1032525Y750698D02*
D03*
X1034322Y752494D02*
D03*
X1036118Y754290D02*
D03*
X1025341Y747105D02*
D03*
X1027137Y748902D02*
D03*
X1028933Y750698D02*
D03*
X1030729Y752494D02*
D03*
X1032525Y754290D02*
D03*
X1034322Y756086D02*
D03*
X1023545Y748902D02*
D03*
X1025341Y750698D02*
D03*
X1027137Y752494D02*
D03*
X1028933Y754290D02*
D03*
X1030729Y756086D02*
D03*
X1032525Y757882D02*
D03*
X1021749Y750698D02*
D03*
X1023545Y752494D02*
D03*
X1025341Y754290D02*
D03*
X1027137Y756086D02*
D03*
X1028933Y757882D02*
D03*
X1030729Y759678D02*
D03*
X1019953Y752494D02*
D03*
X1021749Y754290D02*
D03*
X1023545Y756086D02*
D03*
X1025341Y757882D02*
D03*
X1027137Y759678D02*
D03*
X1028933Y761474D02*
D03*
X1018157Y754290D02*
D03*
X1019953Y756086D02*
D03*
X1021749Y757882D02*
D03*
X1023545Y759678D02*
D03*
X1025341Y761474D02*
D03*
X1027137Y763270D02*
D03*
X1025341Y765066D02*
D03*
X1023545Y763270D02*
D03*
X1021749Y761474D02*
D03*
X1019953Y759678D02*
D03*
X1018157Y757882D02*
D03*
X1016361Y756086D02*
D03*
X1062990Y840740D02*
D03*
X1064786Y842536D02*
D03*
X1066582Y844332D02*
D03*
X1068378Y846128D02*
D03*
X1070174Y847924D02*
D03*
X1071970Y849720D02*
D03*
X1073766Y851516D02*
D03*
X1075562Y853312D02*
D03*
X1077358Y851516D02*
D03*
X1075562Y849720D02*
D03*
X1073766Y847924D02*
D03*
X1071970Y846128D02*
D03*
X1070174Y844332D02*
D03*
X1068378Y842536D02*
D03*
X1066582Y840740D02*
D03*
X1064786Y838944D02*
D03*
X1079155Y849720D02*
D03*
X1077358Y847924D02*
D03*
X1075562Y846128D02*
D03*
X1073766Y844332D02*
D03*
X1071970Y842536D02*
D03*
X1070174Y840740D02*
D03*
X1068378Y838944D02*
D03*
X1066582Y837148D02*
D03*
X1080950Y847924D02*
D03*
X1079155Y846128D02*
D03*
X1077358Y844332D02*
D03*
X1075562Y842536D02*
D03*
X1073766Y840740D02*
D03*
X1071970Y838944D02*
D03*
X1070174Y837148D02*
D03*
X1068378Y835352D02*
D03*
X1082747Y846128D02*
D03*
X1080950Y844332D02*
D03*
X1079155Y842536D02*
D03*
X1077358Y840740D02*
D03*
X1075562Y838944D02*
D03*
X1073766Y837148D02*
D03*
X1071970Y835352D02*
D03*
X1070174Y833556D02*
D03*
X1084543Y844332D02*
D03*
X1082747Y842536D02*
D03*
X1080950Y840740D02*
D03*
X1079155Y838944D02*
D03*
X1077358Y837148D02*
D03*
X1075562Y835352D02*
D03*
X1073766Y833556D02*
D03*
X1071970Y831760D02*
D03*
X1086339Y842536D02*
D03*
X1084543Y840740D02*
D03*
X1082747Y838944D02*
D03*
X1080950Y837148D02*
D03*
X1079155Y835352D02*
D03*
X1077358Y833556D02*
D03*
X1075562Y831760D02*
D03*
X1073766Y829964D02*
D03*
X1088135Y840740D02*
D03*
X1086339Y838944D02*
D03*
X1084543Y837148D02*
D03*
X1082747Y835352D02*
D03*
X1080950Y833556D02*
D03*
X1079155Y831760D02*
D03*
X1077358Y829964D02*
D03*
X1075562Y828168D02*
D03*
X1089931Y838944D02*
D03*
X1088135Y837148D02*
D03*
X1086339Y835352D02*
D03*
X1084543Y833556D02*
D03*
X1082747Y831760D02*
D03*
X1080950Y829964D02*
D03*
X1079155Y828168D02*
D03*
X1077358Y826372D02*
D03*
X1091727Y837148D02*
D03*
X1089931Y835352D02*
D03*
X1088135Y833556D02*
D03*
X1086339Y831760D02*
D03*
X1084543Y829964D02*
D03*
X1082747Y828168D02*
D03*
X1080950Y826372D02*
D03*
X1079155Y824576D02*
D03*
X1093523Y835352D02*
D03*
X1091727Y833556D02*
D03*
X1089931Y831760D02*
D03*
X1088135Y829964D02*
D03*
X1086339Y828168D02*
D03*
X1084543Y826372D02*
D03*
X1082747Y824576D02*
D03*
X1080950Y822779D02*
D03*
X1093523Y831760D02*
D03*
X1091727Y829964D02*
D03*
X1089931Y828168D02*
D03*
X1088135Y826372D02*
D03*
X1086339Y824576D02*
D03*
X1084543Y822779D02*
D03*
X1082747Y820983D02*
D03*
X1098911Y837148D02*
D03*
X1100707Y838944D02*
D03*
X1102503Y840740D02*
D03*
X1104299Y842536D02*
D03*
X1106095Y844332D02*
D03*
X1098911Y840740D02*
D03*
X1100707Y842536D02*
D03*
X1102503Y844332D02*
D03*
X1104299Y846128D02*
D03*
X1093523Y838944D02*
D03*
X1097115Y842536D02*
D03*
X1098911Y844332D02*
D03*
X1100707Y846128D02*
D03*
X1102503Y847924D02*
D03*
X1091727Y840740D02*
D03*
X1093523Y842536D02*
D03*
X1097115Y846128D02*
D03*
X1098911Y847924D02*
D03*
X1100707Y849720D02*
D03*
X1089931Y842536D02*
D03*
X1091727Y844332D02*
D03*
X1095319Y847924D02*
D03*
X1097115Y849720D02*
D03*
X1098911Y851516D02*
D03*
X1088135Y844332D02*
D03*
X1089931Y846128D02*
D03*
X1093523Y849720D02*
D03*
X1095319Y851516D02*
D03*
X1097115Y853312D02*
D03*
X1086339Y846128D02*
D03*
X1088135Y847924D02*
D03*
X1091727Y851516D02*
D03*
X1093523Y853312D02*
D03*
X1095319Y855108D02*
D03*
X1084543Y847924D02*
D03*
X1086339Y849720D02*
D03*
X1089931Y853312D02*
D03*
X1091727Y855108D02*
D03*
X1093523Y856905D02*
D03*
X1082747Y849720D02*
D03*
X1084543Y851516D02*
D03*
X1088135Y855108D02*
D03*
X1089931Y856905D02*
D03*
X1091727Y858700D02*
D03*
X1080950Y851516D02*
D03*
X1082747Y853312D02*
D03*
X1086339Y856905D02*
D03*
X1088135Y858700D02*
D03*
X1089931Y860497D02*
D03*
X1079155Y853312D02*
D03*
X1080950Y855108D02*
D03*
X1084543Y858700D02*
D03*
X1086339Y860497D02*
D03*
X1088135Y862293D02*
D03*
X1086339Y864089D02*
D03*
X1084543Y862293D02*
D03*
X1082747Y860497D02*
D03*
X1079155Y856905D02*
D03*
X1077358Y855108D02*
D03*
X1104299Y799431D02*
D03*
X1106095Y801227D02*
D03*
X1107891Y803023D02*
D03*
X1109687Y804819D02*
D03*
X1111483Y806615D02*
D03*
X1113279Y808411D02*
D03*
X1115076Y810207D02*
D03*
X1116871Y812003D02*
D03*
X1102503Y801227D02*
D03*
X1104299Y803023D02*
D03*
X1106095Y804819D02*
D03*
X1107891Y806615D02*
D03*
X1109687Y808411D02*
D03*
X1111483Y810207D02*
D03*
X1113279Y812003D02*
D03*
X1115076Y813799D02*
D03*
X1100707Y803023D02*
D03*
X1102503Y804819D02*
D03*
X1104299Y806615D02*
D03*
X1106095Y808411D02*
D03*
X1107891Y810207D02*
D03*
X1109687Y812003D02*
D03*
X1111483Y813799D02*
D03*
X1113279Y815595D02*
D03*
X1098911Y804819D02*
D03*
X1100707Y806615D02*
D03*
X1102503Y808411D02*
D03*
X1104299Y810207D02*
D03*
X1106095Y812003D02*
D03*
X1107891Y813799D02*
D03*
X1109687Y815595D02*
D03*
X1111483Y817391D02*
D03*
X1097115Y806615D02*
D03*
X1098911Y808411D02*
D03*
X1100707Y810207D02*
D03*
X1102503Y812003D02*
D03*
X1104299Y813799D02*
D03*
X1106095Y815595D02*
D03*
X1107891Y817391D02*
D03*
X1109687Y819187D02*
D03*
X1095319Y808411D02*
D03*
X1097115Y810207D02*
D03*
X1098911Y812003D02*
D03*
X1100707Y813799D02*
D03*
X1102503Y815595D02*
D03*
X1104299Y817391D02*
D03*
X1106095Y819187D02*
D03*
X1107891Y820983D02*
D03*
X1093523Y810207D02*
D03*
X1095319Y812003D02*
D03*
X1097115Y813799D02*
D03*
X1098911Y815595D02*
D03*
X1100707Y817391D02*
D03*
X1102503Y819187D02*
D03*
X1104299Y820983D02*
D03*
X1106095Y822779D02*
D03*
X1091727Y812003D02*
D03*
X1093523Y813799D02*
D03*
X1095319Y815595D02*
D03*
X1097115Y817391D02*
D03*
X1098911Y819187D02*
D03*
X1100707Y820983D02*
D03*
X1102503Y822779D02*
D03*
X1104299Y824576D02*
D03*
X1089931Y813799D02*
D03*
X1091727Y815595D02*
D03*
X1093523Y817391D02*
D03*
X1095319Y819187D02*
D03*
X1097115Y820983D02*
D03*
X1098911Y822779D02*
D03*
X1100707Y824576D02*
D03*
X1102503Y826372D02*
D03*
X1088135Y815595D02*
D03*
X1089931Y817391D02*
D03*
X1091727Y819187D02*
D03*
X1093523Y820983D02*
D03*
X1095319Y822779D02*
D03*
X1097115Y824576D02*
D03*
X1098911Y826372D02*
D03*
X1100707Y828168D02*
D03*
X1086339Y817391D02*
D03*
X1088135Y819187D02*
D03*
X1089931Y820983D02*
D03*
X1091727Y822779D02*
D03*
X1093523Y824576D02*
D03*
X1095319Y826372D02*
D03*
X1097115Y828168D02*
D03*
X1098911Y829964D02*
D03*
X1093523Y828168D02*
D03*
X1091727Y826372D02*
D03*
X1089931Y824576D02*
D03*
X1088135Y822779D02*
D03*
X1086339Y820983D02*
D03*
X1084543Y819187D02*
D03*
X1118668Y813799D02*
D03*
X1120464Y815595D02*
D03*
X1122260Y817391D02*
D03*
X1124056Y819187D02*
D03*
X1125852Y820983D02*
D03*
X1127648Y822779D02*
D03*
X1116871Y815595D02*
D03*
X1118668Y817391D02*
D03*
X1120464Y819187D02*
D03*
X1122260Y820983D02*
D03*
X1124056Y822779D02*
D03*
X1125852Y824576D02*
D03*
X1115076Y817391D02*
D03*
X1116871Y819187D02*
D03*
X1118668Y820983D02*
D03*
X1120464Y822779D02*
D03*
X1122260Y824576D02*
D03*
X1124056Y826372D02*
D03*
X1113279Y819187D02*
D03*
X1115076Y820983D02*
D03*
X1116871Y822779D02*
D03*
X1118668Y824576D02*
D03*
X1120464Y826372D02*
D03*
X1122260Y828168D02*
D03*
X1111483Y820983D02*
D03*
X1113279Y822779D02*
D03*
X1115076Y824576D02*
D03*
X1116871Y826372D02*
D03*
X1118668Y828168D02*
D03*
X1120464Y829964D02*
D03*
X1109687Y822779D02*
D03*
X1111483Y824576D02*
D03*
X1113279Y826372D02*
D03*
X1115076Y828168D02*
D03*
X1116871Y829964D02*
D03*
X1118668Y831760D02*
D03*
X1107891Y824576D02*
D03*
X1109687Y826372D02*
D03*
X1111483Y828168D02*
D03*
X1113279Y829964D02*
D03*
X1115076Y831760D02*
D03*
X1116871Y833556D02*
D03*
X1106095Y826372D02*
D03*
X1107891Y828168D02*
D03*
X1109687Y829964D02*
D03*
X1111483Y831760D02*
D03*
X1113279Y833556D02*
D03*
X1115076Y835352D02*
D03*
X1104299Y828168D02*
D03*
X1106095Y829964D02*
D03*
X1107891Y831760D02*
D03*
X1109687Y833556D02*
D03*
X1111483Y835352D02*
D03*
X1113279Y837148D02*
D03*
X1102503Y829964D02*
D03*
X1104299Y831760D02*
D03*
X1106095Y833556D02*
D03*
X1107891Y835352D02*
D03*
X1109687Y837148D02*
D03*
X1111483Y838944D02*
D03*
X1100707Y831760D02*
D03*
X1102503Y833556D02*
D03*
X1104299Y835352D02*
D03*
X1106095Y837148D02*
D03*
X1107891Y838944D02*
D03*
X1109687Y840740D02*
D03*
X1107891Y842536D02*
D03*
X1106095Y840740D02*
D03*
X1104299Y838944D02*
D03*
X1102503Y837148D02*
D03*
X1100707Y835352D02*
D03*
X1098911Y833556D02*
D03*
X1113790Y518160D02*
D03*
X735530Y730090D02*
D03*
X745530D02*
D03*
Y720090D02*
D03*
X735530D02*
D03*
X709640Y627770D02*
D03*
X720640Y627770D02*
D03*
X709640Y638770D02*
D03*
X720640Y638770D02*
D03*
X720640Y649770D02*
D03*
X709640Y649770D02*
D03*
X864102Y346819D02*
D03*
X875435Y343354D02*
D03*
X886883Y340286D02*
D03*
X898431Y337620D02*
D03*
X910065Y335358D02*
D03*
X921771Y333504D02*
D03*
X933534Y332060D02*
D03*
X945341Y331027D02*
D03*
X957176Y330407D02*
D03*
X969026Y330200D02*
D03*
X980876Y330407D02*
D03*
X992711Y331027D02*
D03*
X1004518Y332060D02*
D03*
X1016281Y333504D02*
D03*
X1027987Y335358D02*
D03*
X1039621Y337620D02*
D03*
X1051169Y340286D02*
D03*
X1062616Y343353D02*
D03*
X1073950Y346818D02*
D03*
X1085156Y350677D02*
D03*
X1096221Y354924D02*
D03*
X1107130Y359555D02*
D03*
X1117871Y364564D02*
D03*
X1128431Y369944D02*
D03*
X1138797Y375690D02*
D03*
X1148956Y381794D02*
D03*
X1158895Y388249D02*
D03*
X1168604Y395047D02*
D03*
X1178069Y402179D02*
D03*
X1187279Y409638D02*
D03*
X1196224Y417413D02*
D03*
X1204892Y425496D02*
D03*
X1213272Y433876D02*
D03*
X1221355Y442544D02*
D03*
X1229130Y451488D02*
D03*
X1236589Y460699D02*
D03*
X1243721Y470164D02*
D03*
X1250519Y479872D02*
D03*
X1256974Y489812D02*
D03*
X1263078Y499971D02*
D03*
X1268824Y510336D02*
D03*
X1274204Y520896D02*
D03*
X1279213Y531638D02*
D03*
X1283844Y542547D02*
D03*
X1288091Y553611D02*
D03*
X1291949Y564818D02*
D03*
X1295414Y576151D02*
D03*
X1298482Y587599D02*
D03*
X1301148Y599147D02*
D03*
X1303409Y610781D02*
D03*
X1305263Y622487D02*
D03*
X1306708Y634250D02*
D03*
X1307741Y646057D02*
D03*
X1308361Y657892D02*
D03*
X1308568Y669742D02*
D03*
X1308361Y681592D02*
D03*
X1307741Y693427D02*
D03*
X1306708Y705234D02*
D03*
X1305263Y716997D02*
D03*
X1303409Y728702D02*
D03*
X1301148Y740336D02*
D03*
X1298482Y751884D02*
D03*
X1295414Y763332D02*
D03*
X1291949Y774666D02*
D03*
X1288091Y785872D02*
D03*
X1283844Y796936D02*
D03*
X1279213Y807846D02*
D03*
X1078073Y978409D02*
D03*
X966470Y919480D02*
D03*
X999490Y674370D02*
D03*
X991870Y715010D02*
D03*
X977900Y698500D02*
D03*
X981710Y656590D02*
D03*
X966470Y647700D02*
D03*
X951230Y654050D02*
D03*
Y687070D02*
D03*
X913130Y689610D02*
D03*
X937260Y763270D02*
D03*
X908050Y707390D02*
D03*
X894546Y826612D02*
D03*
X887730Y839470D02*
D03*
X876300D02*
D03*
X854710Y899160D02*
D03*
X916940Y944880D02*
D03*
X919480Y924560D02*
D03*
X1174750Y816610D02*
D03*
X1195070Y802640D02*
D03*
X1201420Y774700D02*
D03*
X1108710Y854710D02*
D03*
X1102360Y883920D02*
D03*
X1082040Y897890D02*
D03*
X1017270Y908050D02*
D03*
X991870Y914400D02*
D03*
X1242060Y879737D02*
D03*
X1207770Y886460D02*
D03*
X1215951Y904503D02*
D03*
X1201856Y914400D02*
D03*
X1185506Y932854D02*
D03*
X1165860Y943610D02*
D03*
X1136650Y975360D02*
D03*
X1113790Y956310D02*
D03*
X1113422Y979031D02*
D03*
X1058490Y1001233D02*
D03*
X1046650Y1005542D02*
D03*
X1033780Y1008380D02*
D03*
X1043940Y986790D02*
D03*
X852896Y350677D02*
D03*
X841831Y354924D02*
D03*
X830922Y359555D02*
D03*
X820181Y364564D02*
D03*
X809621Y369944D02*
D03*
X669228Y510337D02*
D03*
X663848Y520896D02*
D03*
X658839Y531638D02*
D03*
X654208Y542547D02*
D03*
X649961Y553612D02*
D03*
X646103Y564818D02*
D03*
X642637Y576151D02*
D03*
X639570Y587599D02*
D03*
X636904Y599147D02*
D03*
X634643Y610781D02*
D03*
X632789Y622487D02*
D03*
X631344Y634250D02*
D03*
X630311Y646057D02*
D03*
X629691Y657892D02*
D03*
X629484Y669742D02*
D03*
X629691Y681592D02*
D03*
X630311Y693427D02*
D03*
X631344Y705234D02*
D03*
X632789Y716997D02*
D03*
X634643Y728703D02*
D03*
X636904Y740337D02*
D03*
X639570Y751885D02*
D03*
X642637Y763332D02*
D03*
X646103Y774666D02*
D03*
X649961Y785872D02*
D03*
X654208Y796936D02*
D03*
X658839Y807846D02*
D03*
X663848Y818587D02*
D03*
X669228Y829147D02*
D03*
X674974Y839513D02*
D03*
X681078Y849672D02*
D03*
X687533Y859611D02*
D03*
X694331Y869320D02*
D03*
X701463Y878785D02*
D03*
X708922Y887995D02*
D03*
X716697Y896940D02*
D03*
X724780Y905607D02*
D03*
X733160Y913988D02*
D03*
X741828Y922070D02*
D03*
X750773Y929846D02*
D03*
X759983Y937304D02*
D03*
X769448Y944437D02*
D03*
X779157Y951235D02*
D03*
X789096Y957690D02*
D03*
X799255Y963794D02*
D03*
X809621Y969539D02*
D03*
X820181Y974920D02*
D03*
X830922Y979929D02*
D03*
X841831Y984559D02*
D03*
X852896Y988807D02*
D03*
X864102Y992665D02*
D03*
X875436Y996130D02*
D03*
X886883Y999198D02*
D03*
X898431Y1001864D02*
D03*
X885190Y922020D02*
D03*
X1273721Y822960D02*
D03*
X1251592Y853893D02*
D03*
X1245173Y864296D02*
D03*
X1173480Y927100D02*
D03*
X1124421Y972681D02*
D03*
X1017270Y1013460D02*
D03*
X953770Y1008890D02*
D03*
X928370Y1008380D02*
D03*
X941070D02*
D03*
X991870Y1008890D02*
D03*
X1004570Y1010920D02*
D03*
X966470Y1008890D02*
D03*
X979170Y1004570D02*
D03*
X722630Y697230D02*
D03*
X725170Y702310D02*
D03*
X767080Y704850D02*
D03*
X760730Y712470D02*
D03*
X748030Y657860D02*
D03*
X949325Y697865D02*
D03*
X925830Y669290D02*
D03*
X923290Y664210D02*
D03*
X696466Y770126D02*
D03*
X704135Y759460D02*
D03*
X697230Y748030D02*
D03*
X891540Y850900D02*
D03*
X883920Y880110D02*
D03*
X872490Y905510D02*
D03*
X859790Y902400D02*
D03*
X886460Y859790D02*
D03*
X877570Y877570D02*
D03*
X908050Y899160D02*
D03*
X859895Y879668D02*
D03*
X712470Y605790D02*
D03*
X685960Y622140D02*
D03*
D100*
X1233375Y575853D02*
G03*
X1243333Y733655I-263095J95817D01*
G01*
X1043677Y401461D02*
G03*
X1233375Y575853I-73397J270209D01*
G01*
X854722Y416628D02*
G03*
X1043677Y401461I115558J255042D01*
G01*
D101*
X749300Y620840D02*
D03*
X749300Y628840D02*
D03*
D102*
X750170Y558800D02*
D03*
X700170Y558800D02*
D03*
X1317859Y672020D02*
D03*
X1267861Y671640D02*
D03*
D103*
X691140Y626270D02*
D03*
X691140Y641270D02*
D03*
Y646270D02*
D03*
X691140Y651270D02*
D03*
X691140Y656270D02*
D03*
X691140Y661270D02*
D03*
X739140Y661270D02*
D03*
X739140Y656270D02*
D03*
X739140Y651270D02*
D03*
X739140Y636270D02*
D03*
X739140Y631270D02*
D03*
X739140Y626270D02*
D03*
X739140Y621270D02*
D03*
D104*
X697640Y667770D02*
D03*
X702640Y667770D02*
D03*
X707640Y667770D02*
D03*
X712640Y667770D02*
D03*
X717640Y667770D02*
D03*
X722640Y667770D02*
D03*
X727640Y667770D02*
D03*
X732640Y667770D02*
D03*
X727640Y609770D02*
D03*
X722640D02*
D03*
X717640Y609770D02*
D03*
X702640Y609770D02*
D03*
X697640D02*
D03*
D105*
X715140Y638770D02*
D03*
D106*
X749956Y843936D02*
D03*
X730864Y824844D02*
D03*
X774086Y819806D02*
D03*
X754994Y800714D02*
D03*
D107*
X886734Y918484D02*
D03*
X893805Y925556D02*
D03*
D108*
X1178478Y922745D02*
D03*
X1186200Y916266D02*
D03*
X1186160Y932854D02*
D03*
X1193882Y926375D02*
D03*
D109*
X1045986Y1003421D02*
D03*
X1041726Y994285D02*
D03*
X1057483Y998941D02*
D03*
X1053223Y989806D02*
D03*
D110*
X928370Y1008890D02*
D03*
X941070Y1008890D02*
D03*
X953770Y1008890D02*
D03*
X966470Y1008890D02*
D03*
X979170Y1008890D02*
D03*
X991870Y1008890D02*
D03*
X1004570Y1008890D02*
D03*
X1017270Y1008890D02*
D03*
X928370Y913890D02*
D03*
X941070D02*
D03*
X953770Y913890D02*
D03*
X966470Y913890D02*
D03*
X979170Y913890D02*
D03*
X991870Y913890D02*
D03*
X1004570Y913890D02*
D03*
X1017270Y913890D02*
D03*
D111*
X1091425Y991731D02*
D03*
X1102424Y985381D02*
D03*
X1113422Y979031D02*
D03*
X1124421Y972681D02*
D03*
X1135419Y966331D02*
D03*
X1146418Y959981D02*
D03*
X1157416Y953631D02*
D03*
X1168415Y947281D02*
D03*
X1043925Y909459D02*
D03*
X1054924Y903109D02*
D03*
X1065922Y896759D02*
D03*
X1076921Y890409D02*
D03*
X1087919Y884059D02*
D03*
X1098918Y877709D02*
D03*
X1109916Y871359D02*
D03*
X1120915Y865009D02*
D03*
D112*
X1222454Y895506D02*
D03*
X1229739Y885103D02*
D03*
X1237023Y874700D02*
D03*
X1244308Y864296D02*
D03*
X1251592Y853893D02*
D03*
X1258876Y843490D02*
D03*
X1266161Y833087D02*
D03*
X1273445Y822684D02*
D03*
X1144635Y841016D02*
D03*
X1151919Y830613D02*
D03*
X1159203Y820210D02*
D03*
X1166488Y809807D02*
D03*
X1173772Y799404D02*
D03*
X1181057Y789000D02*
D03*
X1188341Y778597D02*
D03*
X1195626Y768194D02*
D03*
D113*
X1166434Y533673D02*
D03*
D114*
X1172493Y508033D02*
D03*
X1178920Y518987D02*
D03*
X1185345Y529941D02*
D03*
X1191771Y540896D02*
D03*
X1143987Y568927D02*
D03*
X1137560Y557973D02*
D03*
X1131135Y547019D02*
D03*
X1124709Y536064D02*
D03*
D115*
X1117165Y479622D02*
D03*
D116*
X1112951Y453614D02*
D03*
X1123080Y461275D02*
D03*
X1133209Y468937D02*
D03*
X1143338Y476598D02*
D03*
X1109918Y520783D02*
D03*
X1099789Y513121D02*
D03*
X1089660Y505460D02*
D03*
X1079531Y497799D02*
D03*
D117*
X1228372Y742884D02*
D03*
D118*
X1250905Y729230D02*
D03*
X1247598Y741492D02*
D03*
X1244291Y753754D02*
D03*
X1240984Y766016D02*
D03*
X1187495Y751590D02*
D03*
X1190802Y739328D02*
D03*
X1194109Y727066D02*
D03*
X1197416Y714805D02*
D03*
D119*
X1218838Y663160D02*
D03*
D120*
X1220449Y636863D02*
D03*
X1228644Y646565D02*
D03*
X1236839Y656267D02*
D03*
X1245034Y665969D02*
D03*
X1202711Y701717D02*
D03*
X1194516Y692015D02*
D03*
X1186321Y682313D02*
D03*
X1178126Y672611D02*
D03*
D121*
X1305651Y761841D02*
D03*
X1257209Y749459D02*
D03*
D122*
X1306883Y582940D02*
D03*
X1258517Y595620D02*
D03*
D123*
X1272665Y498153D02*
D03*
X1229234Y522927D02*
D03*
D124*
X1216653Y424378D02*
D03*
X1181107Y459542D02*
D03*
D125*
X1145164Y369409D02*
D03*
X1120516Y412911D02*
D03*
D126*
X1062030Y334043D02*
D03*
X1048710Y382237D02*
D03*
D127*
X970378Y321710D02*
D03*
X970182Y371710D02*
D03*
D128*
X876613Y333880D02*
D03*
X888687Y382400D02*
D03*
D129*
X943927Y425280D02*
D03*
D130*
X931231Y402194D02*
D03*
X943344Y406013D02*
D03*
X955456Y409832D02*
D03*
X967568Y413651D02*
D03*
X950909Y466487D02*
D03*
X938796Y462667D02*
D03*
X926684Y458848D02*
D03*
X914572Y455029D02*
D03*
D131*
X989478Y425454D02*
D03*
X989182Y430526D02*
D03*
D132*
X662683Y801628D02*
D03*
X683353Y780957D02*
D03*
D133*
X874037Y859869D02*
D03*
X879694Y865526D02*
D03*
D134*
X882699Y856863D02*
D03*
X871032Y868531D02*
D03*
D135*
X864921Y432215D02*
D03*
D136*
X839619Y424868D02*
D03*
X850884Y419004D02*
D03*
X862149Y413140D02*
D03*
X873414Y407276D02*
D03*
X898995Y456416D02*
D03*
X887730Y462280D02*
D03*
X876465Y468144D02*
D03*
X865200Y474008D02*
D03*
D137*
X976510Y684790D02*
D03*
X971510Y684790D02*
D03*
X966510Y684790D02*
D03*
X961510Y684790D02*
D03*
X961510Y653790D02*
D03*
X966510Y653790D02*
D03*
X971510Y653790D02*
D03*
X976510Y653790D02*
D03*
D138*
X953510Y676790D02*
D03*
X953510Y671790D02*
D03*
X953510Y666790D02*
D03*
X953510Y661790D02*
D03*
X984510Y661790D02*
D03*
X984510Y666790D02*
D03*
X984510Y671790D02*
D03*
X984510Y676790D02*
D03*
M02*
