G04 Layer_Color=2752767*
%FSLAX44Y44*%
%MOMM*%
G71*
G01*
G75*
%ADD259C,0.0677*%
D259*
X854202Y753110D02*
G03*
X854202Y753110I-2032J0D01*
G01*
X780542Y737870D02*
G03*
X780542Y737870I-2032J0D01*
G01*
X714502Y678180D02*
G03*
X714502Y678180I-2032J0D01*
G01*
X772922Y694690D02*
G03*
X772922Y694690I-2032J0D01*
G01*
X769112Y636270D02*
G03*
X769112Y636270I-2032J0D01*
G01*
X774192Y631190D02*
G03*
X774192Y631190I-2032J0D01*
G01*
X774192Y636270D02*
G03*
X774192Y636270I-2032J0D01*
G01*
X771652Y636270D02*
G03*
X771652Y636270I-2032J0D01*
G01*
X766572Y631190D02*
G03*
X766572Y631190I-2032J0D01*
G01*
X769112Y631190D02*
G03*
X769112Y631190I-2032J0D01*
G01*
X766572Y633730D02*
G03*
X766572Y633730I-2032J0D01*
G01*
X766572Y636270D02*
G03*
X766572Y636270I-2032J0D01*
G01*
X771652Y631190D02*
G03*
X771652Y631190I-2032J0D01*
G01*
X769112Y628650D02*
G03*
X769112Y628650I-2032J0D01*
G01*
X771652Y628650D02*
G03*
X771652Y628650I-2032J0D01*
G01*
X774192Y633730D02*
G03*
X774192Y633730I-2032J0D01*
G01*
X771652Y633730D02*
G03*
X771652Y633730I-2032J0D01*
G01*
X772922Y754380D02*
G03*
X772922Y754380I-2032J0D01*
G01*
X844042Y759460D02*
G03*
X844042Y759460I-2032J0D01*
G01*
X911815Y875035D02*
G03*
X911815Y875035I-2032J0D01*
G01*
X883412Y834390D02*
G03*
X883412Y834390I-2032J0D01*
G01*
X910011Y893810D02*
G03*
X910011Y893810I-2032J0D01*
G01*
X906272Y913130D02*
G03*
X906272Y913130I-2032J0D01*
G01*
X679952Y656590D02*
G03*
X679952Y656590I-2032J0D01*
G01*
X686562Y661670D02*
G03*
X686562Y661670I-2032J0D01*
G01*
X746252Y651510D02*
G03*
X746252Y651510I-2032J0D01*
G01*
X1204743Y701717D02*
G03*
X1204743Y701717I-2032J0D01*
G01*
X1189527Y751590D02*
G03*
X1189527Y751590I-2032J0D01*
G01*
X952941Y466487D02*
G03*
X952941Y466487I-2032J0D01*
G01*
X901027Y456416D02*
G03*
X901027Y456416I-2032J0D01*
G01*
X939292Y880110D02*
G03*
X939292Y880110I-2032J0D01*
G01*
X1218293Y847090D02*
G03*
X1218293Y847090I-2032J0D01*
G01*
X1220089Y845294D02*
G03*
X1220089Y845294I-2032J0D01*
G01*
X1221886Y843498D02*
G03*
X1221886Y843498I-2032J0D01*
G01*
X1223682Y841702D02*
G03*
X1223682Y841702I-2032J0D01*
G01*
X1220090Y848886D02*
G03*
X1220090Y848886I-2032J0D01*
G01*
X1221885Y847089D02*
G03*
X1221885Y847089I-2032J0D01*
G01*
X1223681Y845294D02*
G03*
X1223681Y845294I-2032J0D01*
G01*
X1225477Y843497D02*
G03*
X1225477Y843497I-2032J0D01*
G01*
X1221885Y850682D02*
G03*
X1221885Y850682I-2032J0D01*
G01*
X1223682Y848886D02*
G03*
X1223682Y848886I-2032J0D01*
G01*
X1225478Y847090D02*
G03*
X1225478Y847090I-2032J0D01*
G01*
X1227274Y845294D02*
G03*
X1227274Y845294I-2032J0D01*
G01*
X1223682Y852478D02*
G03*
X1223682Y852478I-2032J0D01*
G01*
X1225478Y850682D02*
G03*
X1225478Y850682I-2032J0D01*
G01*
X1227274Y848886D02*
G03*
X1227274Y848886I-2032J0D01*
G01*
X1229070Y847090D02*
G03*
X1229070Y847090I-2032J0D01*
G01*
X1230866Y848886D02*
G03*
X1230866Y848886I-2032J0D01*
G01*
X1229070Y850682D02*
G03*
X1229070Y850682I-2032J0D01*
G01*
X1227274Y852478D02*
G03*
X1227274Y852478I-2032J0D01*
G01*
X1225478Y854274D02*
G03*
X1225478Y854274I-2032J0D01*
G01*
X1166287Y904398D02*
G03*
X1166287Y904398I-2032J0D01*
G01*
X1168083Y902602D02*
G03*
X1168083Y902602I-2032J0D01*
G01*
X1169880Y900806D02*
G03*
X1169880Y900806I-2032J0D01*
G01*
X1171675Y899010D02*
G03*
X1171675Y899010I-2032J0D01*
G01*
X1168083Y906194D02*
G03*
X1168083Y906194I-2032J0D01*
G01*
X1169879Y904398D02*
G03*
X1169879Y904398I-2032J0D01*
G01*
X1171675Y902602D02*
G03*
X1171675Y902602I-2032J0D01*
G01*
X1173471Y900806D02*
G03*
X1173471Y900806I-2032J0D01*
G01*
X1169879Y907990D02*
G03*
X1169879Y907990I-2032J0D01*
G01*
X1171675Y906194D02*
G03*
X1171675Y906194I-2032J0D01*
G01*
X1173472Y904398D02*
G03*
X1173472Y904398I-2032J0D01*
G01*
X1175267Y902602D02*
G03*
X1175267Y902602I-2032J0D01*
G01*
X1171675Y909786D02*
G03*
X1171675Y909786I-2032J0D01*
G01*
X1173471Y907990D02*
G03*
X1173471Y907990I-2032J0D01*
G01*
X1175268Y906194D02*
G03*
X1175268Y906194I-2032J0D01*
G01*
X1177064Y904398D02*
G03*
X1177064Y904398I-2032J0D01*
G01*
X1178859Y906194D02*
G03*
X1178859Y906194I-2032J0D01*
G01*
X1177064Y907990D02*
G03*
X1177064Y907990I-2032J0D01*
G01*
X1175267Y909786D02*
G03*
X1175267Y909786I-2032J0D01*
G01*
X1173471Y911582D02*
G03*
X1173471Y911582I-2032J0D01*
G01*
X1154013Y911951D02*
G03*
X1154013Y911951I-2032J0D01*
G01*
X1156213Y910681D02*
G03*
X1156213Y910681I-2032J0D01*
G01*
X1158413Y909411D02*
G03*
X1158413Y909411I-2032J0D01*
G01*
X1160612Y908141D02*
G03*
X1160612Y908141I-2032J0D01*
G01*
X1155283Y914150D02*
G03*
X1155283Y914150I-2032J0D01*
G01*
X1157482Y912880D02*
G03*
X1157482Y912880I-2032J0D01*
G01*
X1159682Y911611D02*
G03*
X1159682Y911611I-2032J0D01*
G01*
X1161882Y910340D02*
G03*
X1161882Y910340I-2032J0D01*
G01*
X1156553Y916350D02*
G03*
X1156553Y916350I-2032J0D01*
G01*
X1158753Y915080D02*
G03*
X1158753Y915080I-2032J0D01*
G01*
X1160953Y913811D02*
G03*
X1160953Y913811I-2032J0D01*
G01*
X1163152Y912540D02*
G03*
X1163152Y912540I-2032J0D01*
G01*
X1157823Y918550D02*
G03*
X1157823Y918550I-2032J0D01*
G01*
X1160023Y917280D02*
G03*
X1160023Y917280I-2032J0D01*
G01*
X1162222Y916010D02*
G03*
X1162222Y916010I-2032J0D01*
G01*
X1164422Y914740D02*
G03*
X1164422Y914740I-2032J0D01*
G01*
X1165692Y916940D02*
G03*
X1165692Y916940I-2032J0D01*
G01*
X1163493Y918210D02*
G03*
X1163493Y918210I-2032J0D01*
G01*
X1161293Y919480D02*
G03*
X1161293Y919480I-2032J0D01*
G01*
X1159093Y920750D02*
G03*
X1159093Y920750I-2032J0D01*
G01*
X1087973Y950051D02*
G03*
X1087973Y950051I-2032J0D01*
G01*
X1090173Y948781D02*
G03*
X1090173Y948781I-2032J0D01*
G01*
X1092373Y947511D02*
G03*
X1092373Y947511I-2032J0D01*
G01*
X1094572Y946241D02*
G03*
X1094572Y946241I-2032J0D01*
G01*
X1089243Y952251D02*
G03*
X1089243Y952251I-2032J0D01*
G01*
X1091442Y950980D02*
G03*
X1091442Y950980I-2032J0D01*
G01*
X1093643Y949711D02*
G03*
X1093643Y949711I-2032J0D01*
G01*
X1095842Y948440D02*
G03*
X1095842Y948440I-2032J0D01*
G01*
X1090513Y954450D02*
G03*
X1090513Y954450I-2032J0D01*
G01*
X1092713Y953180D02*
G03*
X1092713Y953180I-2032J0D01*
G01*
X1094913Y951910D02*
G03*
X1094913Y951910I-2032J0D01*
G01*
X1097112Y950640D02*
G03*
X1097112Y950640I-2032J0D01*
G01*
X1091783Y956650D02*
G03*
X1091783Y956650I-2032J0D01*
G01*
X1093983Y955380D02*
G03*
X1093983Y955380I-2032J0D01*
G01*
X1096182Y954110D02*
G03*
X1096182Y954110I-2032J0D01*
G01*
X1098382Y952840D02*
G03*
X1098382Y952840I-2032J0D01*
G01*
X1099652Y955040D02*
G03*
X1099652Y955040I-2032J0D01*
G01*
X1097452Y956310D02*
G03*
X1097452Y956310I-2032J0D01*
G01*
X1095253Y957580D02*
G03*
X1095253Y957580I-2032J0D01*
G01*
X1093053Y958850D02*
G03*
X1093053Y958850I-2032J0D01*
G01*
X1084394Y962383D02*
G03*
X1084394Y962383I-2032J0D01*
G01*
X1082008Y963251D02*
G03*
X1082008Y963251I-2032J0D01*
G01*
X1079621Y964120D02*
G03*
X1079621Y964120I-2032J0D01*
G01*
X1077234Y964989D02*
G03*
X1077234Y964989I-2032J0D01*
G01*
X1083525Y959996D02*
G03*
X1083525Y959996I-2032J0D01*
G01*
X1081139Y960865D02*
G03*
X1081139Y960865I-2032J0D01*
G01*
X1078752Y961733D02*
G03*
X1078752Y961733I-2032J0D01*
G01*
X1076365Y962602D02*
G03*
X1076365Y962602I-2032J0D01*
G01*
X1082657Y957609D02*
G03*
X1082657Y957609I-2032J0D01*
G01*
X1080270Y958478D02*
G03*
X1080270Y958478I-2032J0D01*
G01*
X1077883Y959346D02*
G03*
X1077883Y959346I-2032J0D01*
G01*
X1075496Y960215D02*
G03*
X1075496Y960215I-2032J0D01*
G01*
X1081788Y955222D02*
G03*
X1081788Y955222I-2032J0D01*
G01*
X1079401Y956091D02*
G03*
X1079401Y956091I-2032J0D01*
G01*
X1077014Y956960D02*
G03*
X1077014Y956960I-2032J0D01*
G01*
X1074628Y957828D02*
G03*
X1074628Y957828I-2032J0D01*
G01*
X1073759Y955442D02*
G03*
X1073759Y955442I-2032J0D01*
G01*
X1076146Y954573D02*
G03*
X1076146Y954573I-2032J0D01*
G01*
X1078533Y953704D02*
G03*
X1078533Y953704I-2032J0D01*
G01*
X1080919Y952835D02*
G03*
X1080919Y952835I-2032J0D01*
G01*
X1012004Y986513D02*
G03*
X1012004Y986513I-2032J0D01*
G01*
X1009617Y987382D02*
G03*
X1009617Y987382I-2032J0D01*
G01*
X1007231Y988250D02*
G03*
X1007231Y988250I-2032J0D01*
G01*
X1004844Y989119D02*
G03*
X1004844Y989119I-2032J0D01*
G01*
X1011135Y984126D02*
G03*
X1011135Y984126I-2032J0D01*
G01*
X1008749Y984995D02*
G03*
X1008749Y984995I-2032J0D01*
G01*
X1006362Y985863D02*
G03*
X1006362Y985863I-2032J0D01*
G01*
X1003975Y986732D02*
G03*
X1003975Y986732I-2032J0D01*
G01*
X1010267Y981739D02*
G03*
X1010267Y981739I-2032J0D01*
G01*
X1007880Y982608D02*
G03*
X1007880Y982608I-2032J0D01*
G01*
X1005493Y983476D02*
G03*
X1005493Y983476I-2032J0D01*
G01*
X1003106Y984345D02*
G03*
X1003106Y984345I-2032J0D01*
G01*
X1009398Y979352D02*
G03*
X1009398Y979352I-2032J0D01*
G01*
X1007011Y980221D02*
G03*
X1007011Y980221I-2032J0D01*
G01*
X1004624Y981090D02*
G03*
X1004624Y981090I-2032J0D01*
G01*
X1002237Y981958D02*
G03*
X1002237Y981958I-2032J0D01*
G01*
X1001369Y979572D02*
G03*
X1001369Y979572I-2032J0D01*
G01*
X1003756Y978703D02*
G03*
X1003756Y978703I-2032J0D01*
G01*
X1006143Y977834D02*
G03*
X1006143Y977834I-2032J0D01*
G01*
X1008529Y976965D02*
G03*
X1008529Y976965I-2032J0D01*
G01*
X762725Y802023D02*
G03*
X762725Y802023I-2032J0D01*
G01*
X760929Y803820D02*
G03*
X760929Y803820I-2032J0D01*
G01*
X759133Y805616D02*
G03*
X759133Y805616I-2032J0D01*
G01*
X757337Y807412D02*
G03*
X757337Y807412I-2032J0D01*
G01*
X760929Y800228D02*
G03*
X760929Y800228I-2032J0D01*
G01*
X759133Y802024D02*
G03*
X759133Y802024I-2032J0D01*
G01*
X757337Y803820D02*
G03*
X757337Y803820I-2032J0D01*
G01*
X755541Y805616D02*
G03*
X755541Y805616I-2032J0D01*
G01*
X759133Y798432D02*
G03*
X759133Y798432I-2032J0D01*
G01*
X757337Y800228D02*
G03*
X757337Y800228I-2032J0D01*
G01*
X755540Y802023D02*
G03*
X755540Y802023I-2032J0D01*
G01*
X753745Y803820D02*
G03*
X753745Y803820I-2032J0D01*
G01*
X757337Y796635D02*
G03*
X757337Y796635I-2032J0D01*
G01*
X755541Y798431D02*
G03*
X755541Y798431I-2032J0D01*
G01*
X753745Y800228D02*
G03*
X753745Y800228I-2032J0D01*
G01*
X751949Y802024D02*
G03*
X751949Y802024I-2032J0D01*
G01*
X750153Y800228D02*
G03*
X750153Y800228I-2032J0D01*
G01*
X751948Y798431D02*
G03*
X751948Y798431I-2032J0D01*
G01*
X753745Y796635D02*
G03*
X753745Y796635I-2032J0D01*
G01*
X755541Y794839D02*
G03*
X755541Y794839I-2032J0D01*
G01*
X735784Y814596D02*
G03*
X735784Y814596I-2032J0D01*
G01*
X737580Y812800D02*
G03*
X737580Y812800I-2032J0D01*
G01*
X733989Y816392D02*
G03*
X733989Y816392I-2032J0D01*
G01*
X730396Y819984D02*
G03*
X730396Y819984I-2032J0D01*
G01*
X732192Y818188D02*
G03*
X732192Y818188I-2032J0D01*
G01*
X733988Y819984D02*
G03*
X733988Y819984I-2032J0D01*
G01*
X737580Y816392D02*
G03*
X737580Y816392I-2032J0D01*
G01*
X735784Y818188D02*
G03*
X735784Y818188I-2032J0D01*
G01*
X737580Y819984D02*
G03*
X737580Y819984I-2032J0D01*
G01*
X739376Y814596D02*
G03*
X739376Y814596I-2032J0D01*
G01*
X741172Y816392D02*
G03*
X741172Y816392I-2032J0D01*
G01*
X739376Y818188D02*
G03*
X739376Y818188I-2032J0D01*
G01*
X741172Y819984D02*
G03*
X741172Y819984I-2032J0D01*
G01*
X742968Y821780D02*
G03*
X742968Y821780I-2032J0D01*
G01*
X742968Y818188D02*
G03*
X742968Y818188I-2032J0D01*
G01*
X744764Y819984D02*
G03*
X744764Y819984I-2032J0D01*
G01*
X728600Y821780D02*
G03*
X728600Y821780I-2032J0D01*
G01*
X725008Y825372D02*
G03*
X725008Y825372I-2032J0D01*
G01*
X726804Y823576D02*
G03*
X726804Y823576I-2032J0D01*
G01*
X726804Y827168D02*
G03*
X726804Y827168I-2032J0D01*
G01*
X728600Y828964D02*
G03*
X728600Y828964I-2032J0D01*
G01*
X728600Y825372D02*
G03*
X728600Y825372I-2032J0D01*
G01*
X730396Y823576D02*
G03*
X730396Y823576I-2032J0D01*
G01*
X730395Y827168D02*
G03*
X730395Y827168I-2032J0D01*
G01*
X732192Y821780D02*
G03*
X732192Y821780I-2032J0D01*
G01*
X733988Y823576D02*
G03*
X733988Y823576I-2032J0D01*
G01*
X735784Y821780D02*
G03*
X735784Y821780I-2032J0D01*
G01*
X739377Y821780D02*
G03*
X739377Y821780I-2032J0D01*
G01*
X737580Y823576D02*
G03*
X737580Y823576I-2032J0D01*
G01*
X741172Y823576D02*
G03*
X741172Y823576I-2032J0D01*
G01*
X732192Y828964D02*
G03*
X732192Y828964I-2032J0D01*
G01*
X733988Y827168D02*
G03*
X733988Y827168I-2032J0D01*
G01*
X730396Y830760D02*
G03*
X730396Y830760I-2032J0D01*
G01*
X732192Y832556D02*
G03*
X732192Y832556I-2032J0D01*
G01*
X733988Y830760D02*
G03*
X733988Y830760I-2032J0D01*
G01*
X735784Y825372D02*
G03*
X735784Y825372I-2032J0D01*
G01*
X739376Y825372D02*
G03*
X739376Y825372I-2032J0D01*
G01*
X735784Y828964D02*
G03*
X735784Y828964I-2032J0D01*
G01*
X737580Y827168D02*
G03*
X737580Y827168I-2032J0D01*
G01*
X741172Y812800D02*
G03*
X741172Y812800I-2032J0D01*
G01*
X742968Y814596D02*
G03*
X742968Y814596I-2032J0D01*
G01*
X741172Y809207D02*
G03*
X741172Y809207I-2032J0D01*
G01*
X742968Y811004D02*
G03*
X742968Y811004I-2032J0D01*
G01*
X744764Y805615D02*
G03*
X744764Y805615I-2032J0D01*
G01*
X742968Y807411D02*
G03*
X742968Y807411I-2032J0D01*
G01*
X744764Y809208D02*
G03*
X744764Y809208I-2032J0D01*
G01*
X744764Y812800D02*
G03*
X744764Y812800I-2032J0D01*
G01*
X748356Y809207D02*
G03*
X748356Y809207I-2032J0D01*
G01*
X746560Y811004D02*
G03*
X746560Y811004I-2032J0D01*
G01*
X746561Y814596D02*
G03*
X746561Y814596I-2032J0D01*
G01*
X748357Y812800D02*
G03*
X748357Y812800I-2032J0D01*
G01*
X750153Y814596D02*
G03*
X750153Y814596I-2032J0D01*
G01*
X748357Y816392D02*
G03*
X748357Y816392I-2032J0D01*
G01*
X750152Y807412D02*
G03*
X750152Y807412I-2032J0D01*
G01*
X755540Y809207D02*
G03*
X755540Y809207I-2032J0D01*
G01*
X753745Y807411D02*
G03*
X753745Y807411I-2032J0D01*
G01*
X750152Y803819D02*
G03*
X750152Y803819I-2032J0D01*
G01*
X748356Y802023D02*
G03*
X748356Y802023I-2032J0D01*
G01*
X753745Y811004D02*
G03*
X753745Y811004I-2032J0D01*
G01*
X751948Y812800D02*
G03*
X751948Y812800I-2032J0D01*
G01*
X750153Y811003D02*
G03*
X750153Y811003I-2032J0D01*
G01*
X746560Y807411D02*
G03*
X746560Y807411I-2032J0D01*
G01*
X751949Y809208D02*
G03*
X751949Y809208I-2032J0D01*
G01*
X748356Y805615D02*
G03*
X748356Y805615I-2032J0D01*
G01*
X746560Y803819D02*
G03*
X746560Y803819I-2032J0D01*
G01*
X746561Y818187D02*
G03*
X746561Y818187I-2032J0D01*
G01*
X744764Y816392D02*
G03*
X744764Y816392I-2032J0D01*
G01*
X739376Y811003D02*
G03*
X739376Y811003I-2032J0D01*
G01*
X771307Y519085D02*
G03*
X771307Y519085I-2032J0D01*
G01*
X773102Y520881D02*
G03*
X773102Y520881I-2032J0D01*
G01*
X774899Y519085D02*
G03*
X774899Y519085I-2032J0D01*
G01*
X776695Y520881D02*
G03*
X776695Y520881I-2032J0D01*
G01*
X774899Y522677D02*
G03*
X774899Y522677I-2032J0D01*
G01*
X776695Y524473D02*
G03*
X776695Y524473I-2032J0D01*
G01*
X778491Y519085D02*
G03*
X778491Y519085I-2032J0D01*
G01*
Y526269D02*
G03*
X778491Y526269I-2032J0D01*
G01*
Y522677D02*
G03*
X778491Y522677I-2032J0D01*
G01*
X782083Y519085D02*
G03*
X782083Y519085I-2032J0D01*
G01*
X780287Y520881D02*
G03*
X780287Y520881I-2032J0D01*
G01*
X782083Y522677D02*
G03*
X782083Y522677I-2032J0D01*
G01*
X780287Y524473D02*
G03*
X780287Y524473I-2032J0D01*
G01*
X783879Y520881D02*
G03*
X783879Y520881I-2032J0D01*
G01*
X785675Y519085D02*
G03*
X785675Y519085I-2032J0D01*
G01*
X773102Y506512D02*
G03*
X773102Y506512I-2032J0D01*
G01*
X771307Y508308D02*
G03*
X771307Y508308I-2032J0D01*
G01*
X773102Y510104D02*
G03*
X773102Y510104I-2032J0D01*
G01*
X774899Y508308D02*
G03*
X774899Y508308I-2032J0D01*
G01*
Y511900D02*
G03*
X774899Y511900I-2032J0D01*
G01*
X771307D02*
G03*
X771307Y511900I-2032J0D01*
G01*
X773102Y513696D02*
G03*
X773102Y513696I-2032J0D01*
G01*
X776695Y506512D02*
G03*
X776695Y506512I-2032J0D01*
G01*
Y513696D02*
G03*
X776695Y513696I-2032J0D01*
G01*
X783879Y506512D02*
G03*
X783879Y506512I-2032J0D01*
G01*
X787471D02*
G03*
X787471Y506512I-2032J0D01*
G01*
X791063D02*
G03*
X791063Y506512I-2032J0D01*
G01*
X776695Y510104D02*
G03*
X776695Y510104I-2032J0D01*
G01*
X778491Y508308D02*
G03*
X778491Y508308I-2032J0D01*
G01*
Y511900D02*
G03*
X778491Y511900I-2032J0D01*
G01*
X780287Y506512D02*
G03*
X780287Y506512I-2032J0D01*
G01*
X782083Y508308D02*
G03*
X782083Y508308I-2032J0D01*
G01*
X780287Y510104D02*
G03*
X780287Y510104I-2032J0D01*
G01*
X782083Y511900D02*
G03*
X782083Y511900I-2032J0D01*
G01*
X785675Y508308D02*
G03*
X785675Y508308I-2032J0D01*
G01*
X783879Y510104D02*
G03*
X783879Y510104I-2032J0D01*
G01*
X785675Y511900D02*
G03*
X785675Y511900I-2032J0D01*
G01*
X783879Y513696D02*
G03*
X783879Y513696I-2032J0D01*
G01*
X789267Y508308D02*
G03*
X789267Y508308I-2032J0D01*
G01*
X787471Y510104D02*
G03*
X787471Y510104I-2032J0D01*
G01*
X789267Y511900D02*
G03*
X789267Y511900I-2032J0D01*
G01*
X787471Y513696D02*
G03*
X787471Y513696I-2032J0D01*
G01*
X794655Y506512D02*
G03*
X794655Y506512I-2032J0D01*
G01*
X791063Y510104D02*
G03*
X791063Y510104I-2032J0D01*
G01*
X792859Y508308D02*
G03*
X792859Y508308I-2032J0D01*
G01*
X791063Y513696D02*
G03*
X791063Y513696I-2032J0D01*
G01*
X792859Y511900D02*
G03*
X792859Y511900I-2032J0D01*
G01*
X794655Y510104D02*
G03*
X794655Y510104I-2032J0D01*
G01*
X774899Y490348D02*
G03*
X774899Y490348I-2032J0D01*
G01*
X773102Y495736D02*
G03*
X773102Y495736I-2032J0D01*
G01*
X771307Y501124D02*
G03*
X771307Y501124I-2032J0D01*
G01*
Y497532D02*
G03*
X771307Y497532I-2032J0D01*
G01*
X773102Y492144D02*
G03*
X773102Y492144I-2032J0D01*
G01*
X774899Y493940D02*
G03*
X774899Y493940I-2032J0D01*
G01*
X773102Y499328D02*
G03*
X773102Y499328I-2032J0D01*
G01*
X774899Y497532D02*
G03*
X774899Y497532I-2032J0D01*
G01*
Y501124D02*
G03*
X774899Y501124I-2032J0D01*
G01*
X771307Y504716D02*
G03*
X771307Y504716I-2032J0D01*
G01*
X773102Y502920D02*
G03*
X773102Y502920I-2032J0D01*
G01*
X774899Y504716D02*
G03*
X774899Y504716I-2032J0D01*
G01*
X776695Y488552D02*
G03*
X776695Y488552I-2032J0D01*
G01*
Y502920D02*
G03*
X776695Y502920I-2032J0D01*
G01*
X778491Y486755D02*
G03*
X778491Y486755I-2032J0D01*
G01*
X782083D02*
G03*
X782083Y486755I-2032J0D01*
G01*
X780287Y488552D02*
G03*
X780287Y488552I-2032J0D01*
G01*
X785675Y486755D02*
G03*
X785675Y486755I-2032J0D01*
G01*
X783879Y488552D02*
G03*
X783879Y488552I-2032J0D01*
G01*
X787471D02*
G03*
X787471Y488552I-2032J0D01*
G01*
X785675Y490348D02*
G03*
X785675Y490348I-2032J0D01*
G01*
X791063Y488552D02*
G03*
X791063Y488552I-2032J0D01*
G01*
X776695Y492144D02*
G03*
X776695Y492144I-2032J0D01*
G01*
X778491Y490348D02*
G03*
X778491Y490348I-2032J0D01*
G01*
X776695Y495736D02*
G03*
X776695Y495736I-2032J0D01*
G01*
X778491Y493940D02*
G03*
X778491Y493940I-2032J0D01*
G01*
X782083Y490348D02*
G03*
X782083Y490348I-2032J0D01*
G01*
X780287Y492144D02*
G03*
X780287Y492144I-2032J0D01*
G01*
X783879D02*
G03*
X783879Y492144I-2032J0D01*
G01*
X780287Y495736D02*
G03*
X780287Y495736I-2032J0D01*
G01*
X782083Y493940D02*
G03*
X782083Y493940I-2032J0D01*
G01*
X783879Y495736D02*
G03*
X783879Y495736I-2032J0D01*
G01*
X776695Y499328D02*
G03*
X776695Y499328I-2032J0D01*
G01*
X778491Y497532D02*
G03*
X778491Y497532I-2032J0D01*
G01*
X780287Y499328D02*
G03*
X780287Y499328I-2032J0D01*
G01*
X778491Y504716D02*
G03*
X778491Y504716I-2032J0D01*
G01*
Y501124D02*
G03*
X778491Y501124I-2032J0D01*
G01*
X782083Y497532D02*
G03*
X782083Y497532I-2032J0D01*
G01*
X780287Y502920D02*
G03*
X780287Y502920I-2032J0D01*
G01*
X782083Y504716D02*
G03*
X782083Y504716I-2032J0D01*
G01*
Y501124D02*
G03*
X782083Y501124I-2032J0D01*
G01*
X785675Y493940D02*
G03*
X785675Y493940I-2032J0D01*
G01*
X787471Y492144D02*
G03*
X787471Y492144I-2032J0D01*
G01*
X783879Y499328D02*
G03*
X783879Y499328I-2032J0D01*
G01*
X785675Y497532D02*
G03*
X785675Y497532I-2032J0D01*
G01*
X789267Y490348D02*
G03*
X789267Y490348I-2032J0D01*
G01*
Y493940D02*
G03*
X789267Y493940I-2032J0D01*
G01*
X787471Y495736D02*
G03*
X787471Y495736I-2032J0D01*
G01*
X789267Y497532D02*
G03*
X789267Y497532I-2032J0D01*
G01*
X785675Y501124D02*
G03*
X785675Y501124I-2032J0D01*
G01*
X787471Y499328D02*
G03*
X787471Y499328I-2032J0D01*
G01*
X783879Y502920D02*
G03*
X783879Y502920I-2032J0D01*
G01*
X785675Y504716D02*
G03*
X785675Y504716I-2032J0D01*
G01*
X789267Y501124D02*
G03*
X789267Y501124I-2032J0D01*
G01*
X787471Y502920D02*
G03*
X787471Y502920I-2032J0D01*
G01*
X789267Y504716D02*
G03*
X789267Y504716I-2032J0D01*
G01*
X791063Y492144D02*
G03*
X791063Y492144I-2032J0D01*
G01*
Y495736D02*
G03*
X791063Y495736I-2032J0D01*
G01*
X792859Y493940D02*
G03*
X792859Y493940I-2032J0D01*
G01*
X794655Y495736D02*
G03*
X794655Y495736I-2032J0D01*
G01*
X792859Y497532D02*
G03*
X792859Y497532I-2032J0D01*
G01*
X791063Y499328D02*
G03*
X791063Y499328I-2032J0D01*
G01*
X794655D02*
G03*
X794655Y499328I-2032J0D01*
G01*
X791063Y502920D02*
G03*
X791063Y502920I-2032J0D01*
G01*
X792859Y501124D02*
G03*
X792859Y501124I-2032J0D01*
G01*
Y504716D02*
G03*
X792859Y504716I-2032J0D01*
G01*
X794655Y502920D02*
G03*
X794655Y502920I-2032J0D01*
G01*
X783879Y517288D02*
G03*
X783879Y517288I-2032J0D01*
G01*
X800043Y465203D02*
G03*
X800043Y465203I-2032J0D01*
G01*
X801839Y466999D02*
G03*
X801839Y466999I-2032J0D01*
G01*
X803635Y468795D02*
G03*
X803635Y468795I-2032J0D01*
G01*
X805431Y470591D02*
G03*
X805431Y470591I-2032J0D01*
G01*
X807227Y472387D02*
G03*
X807227Y472387I-2032J0D01*
G01*
X809024Y474183D02*
G03*
X809024Y474183I-2032J0D01*
G01*
X810820Y475979D02*
G03*
X810820Y475979I-2032J0D01*
G01*
X812616Y477775D02*
G03*
X812616Y477775I-2032J0D01*
G01*
X814412Y479571D02*
G03*
X814412Y479571I-2032J0D01*
G01*
X816208Y481367D02*
G03*
X816208Y481367I-2032J0D01*
G01*
X794655Y470591D02*
G03*
X794655Y470591I-2032J0D01*
G01*
X796451Y468795D02*
G03*
X796451Y468795I-2032J0D01*
G01*
X794655Y474183D02*
G03*
X794655Y474183I-2032J0D01*
G01*
Y477775D02*
G03*
X794655Y477775I-2032J0D01*
G01*
X796451Y472387D02*
G03*
X796451Y472387I-2032J0D01*
G01*
X798247Y470591D02*
G03*
X798247Y470591I-2032J0D01*
G01*
X796451Y475979D02*
G03*
X796451Y475979I-2032J0D01*
G01*
X798247Y474183D02*
G03*
X798247Y474183I-2032J0D01*
G01*
X796451Y479571D02*
G03*
X796451Y479571I-2032J0D01*
G01*
Y483163D02*
G03*
X796451Y483163I-2032J0D01*
G01*
X798247Y466999D02*
G03*
X798247Y466999I-2032J0D01*
G01*
X800043Y468795D02*
G03*
X800043Y468795I-2032J0D01*
G01*
Y472387D02*
G03*
X800043Y472387I-2032J0D01*
G01*
X801839Y470591D02*
G03*
X801839Y470591I-2032J0D01*
G01*
X803635Y472387D02*
G03*
X803635Y472387I-2032J0D01*
G01*
X800043Y475979D02*
G03*
X800043Y475979I-2032J0D01*
G01*
X801839Y474183D02*
G03*
X801839Y474183I-2032J0D01*
G01*
X798247Y477775D02*
G03*
X798247Y477775I-2032J0D01*
G01*
X801839D02*
G03*
X801839Y477775I-2032J0D01*
G01*
X800043Y479571D02*
G03*
X800043Y479571I-2032J0D01*
G01*
X805431Y474183D02*
G03*
X805431Y474183I-2032J0D01*
G01*
X803635Y475979D02*
G03*
X803635Y475979I-2032J0D01*
G01*
Y479571D02*
G03*
X803635Y479571I-2032J0D01*
G01*
X807227Y475979D02*
G03*
X807227Y475979I-2032J0D01*
G01*
X805431Y477775D02*
G03*
X805431Y477775I-2032J0D01*
G01*
Y481367D02*
G03*
X805431Y481367I-2032J0D01*
G01*
X807227Y479571D02*
G03*
X807227Y479571I-2032J0D01*
G01*
X809024Y477775D02*
G03*
X809024Y477775I-2032J0D01*
G01*
X810820Y479571D02*
G03*
X810820Y479571I-2032J0D01*
G01*
X798247Y481367D02*
G03*
X798247Y481367I-2032J0D01*
G01*
X801839D02*
G03*
X801839Y481367I-2032J0D01*
G01*
X800043Y483163D02*
G03*
X800043Y483163I-2032J0D01*
G01*
X803635D02*
G03*
X803635Y483163I-2032J0D01*
G01*
X809024Y481367D02*
G03*
X809024Y481367I-2032J0D01*
G01*
X807227Y483163D02*
G03*
X807227Y483163I-2032J0D01*
G01*
X798247Y484959D02*
G03*
X798247Y484959I-2032J0D01*
G01*
X801839D02*
G03*
X801839Y484959I-2032J0D01*
G01*
X803635Y486755D02*
G03*
X803635Y486755I-2032J0D01*
G01*
X805431Y484959D02*
G03*
X805431Y484959I-2032J0D01*
G01*
X807227Y486755D02*
G03*
X807227Y486755I-2032J0D01*
G01*
X810820Y483163D02*
G03*
X810820Y483163I-2032J0D01*
G01*
X812616Y481367D02*
G03*
X812616Y481367I-2032J0D01*
G01*
X809024Y484959D02*
G03*
X809024Y484959I-2032J0D01*
G01*
X814412Y483163D02*
G03*
X814412Y483163I-2032J0D01*
G01*
X812616Y484959D02*
G03*
X812616Y484959I-2032J0D01*
G01*
X791063Y474183D02*
G03*
X791063Y474183I-2032J0D01*
G01*
Y477775D02*
G03*
X791063Y477775I-2032J0D01*
G01*
X792859Y472387D02*
G03*
X792859Y472387I-2032J0D01*
G01*
Y475979D02*
G03*
X792859Y475979I-2032J0D01*
G01*
X789267Y479571D02*
G03*
X789267Y479571I-2032J0D01*
G01*
X792859D02*
G03*
X792859Y479571I-2032J0D01*
G01*
X789267Y483163D02*
G03*
X789267Y483163I-2032J0D01*
G01*
X791063Y481367D02*
G03*
X791063Y481367I-2032J0D01*
G01*
Y484959D02*
G03*
X791063Y484959I-2032J0D01*
G01*
X794655Y481367D02*
G03*
X794655Y481367I-2032J0D01*
G01*
X792859Y483163D02*
G03*
X792859Y483163I-2032J0D01*
G01*
Y486755D02*
G03*
X792859Y486755I-2032J0D01*
G01*
X794655Y484959D02*
G03*
X794655Y484959I-2032J0D01*
G01*
X796451Y486755D02*
G03*
X796451Y486755I-2032J0D01*
G01*
X794655Y488552D02*
G03*
X794655Y488552I-2032J0D01*
G01*
X796451Y490348D02*
G03*
X796451Y490348I-2032J0D01*
G01*
X800043Y486755D02*
G03*
X800043Y486755I-2032J0D01*
G01*
X798247Y488552D02*
G03*
X798247Y488552I-2032J0D01*
G01*
X801839D02*
G03*
X801839Y488552I-2032J0D01*
G01*
X805431D02*
G03*
X805431Y488552I-2032J0D01*
G01*
X809024D02*
G03*
X809024Y488552I-2032J0D01*
G01*
X810820Y486755D02*
G03*
X810820Y486755I-2032J0D01*
G01*
X800043Y490348D02*
G03*
X800043Y490348I-2032J0D01*
G01*
X803635D02*
G03*
X803635Y490348I-2032J0D01*
G01*
X807227D02*
G03*
X807227Y490348I-2032J0D01*
G01*
X780287Y517288D02*
G03*
X780287Y517288I-2032J0D01*
G01*
X782083Y515492D02*
G03*
X782083Y515492I-2032J0D01*
G01*
X778491D02*
G03*
X778491Y515492I-2032J0D01*
G01*
X760530Y504716D02*
G03*
X760530Y504716I-2032J0D01*
G01*
X764122D02*
G03*
X764122Y504716I-2032J0D01*
G01*
X758734Y506512D02*
G03*
X758734Y506512I-2032J0D01*
G01*
X762326D02*
G03*
X762326Y506512I-2032J0D01*
G01*
X760530Y508308D02*
G03*
X760530Y508308I-2032J0D01*
G01*
X764122D02*
G03*
X764122Y508308I-2032J0D01*
G01*
X762326Y510104D02*
G03*
X762326Y510104I-2032J0D01*
G01*
X765918Y506512D02*
G03*
X765918Y506512I-2032J0D01*
G01*
Y510104D02*
G03*
X765918Y510104I-2032J0D01*
G01*
X767714Y508308D02*
G03*
X767714Y508308I-2032J0D01*
G01*
X764122Y511900D02*
G03*
X764122Y511900I-2032J0D01*
G01*
X765918Y513696D02*
G03*
X765918Y513696I-2032J0D01*
G01*
X767714Y504716D02*
G03*
X767714Y504716I-2032J0D01*
G01*
X769510Y506512D02*
G03*
X769510Y506512I-2032J0D01*
G01*
Y510104D02*
G03*
X769510Y510104I-2032J0D01*
G01*
X767714Y515492D02*
G03*
X767714Y515492I-2032J0D01*
G01*
Y511900D02*
G03*
X767714Y511900I-2032J0D01*
G01*
X769510Y513696D02*
G03*
X769510Y513696I-2032J0D01*
G01*
Y517288D02*
G03*
X769510Y517288I-2032J0D01*
G01*
X771307Y515492D02*
G03*
X771307Y515492I-2032J0D01*
G01*
X774899D02*
G03*
X774899Y515492I-2032J0D01*
G01*
X785675D02*
G03*
X785675Y515492I-2032J0D01*
G01*
X787471Y517288D02*
G03*
X787471Y517288I-2032J0D01*
G01*
X789267Y515492D02*
G03*
X789267Y515492I-2032J0D01*
G01*
X751949Y805615D02*
G03*
X751949Y805615I-2032J0D01*
G01*
X732192Y825372D02*
G03*
X732192Y825372I-2032J0D01*
G01*
X917702Y666750D02*
G03*
X917702Y666750I-2032J0D01*
G01*
X920242Y662940D02*
G03*
X920242Y662940I-2032J0D01*
G01*
X1080352Y806360D02*
G03*
X1080352Y806360I-2032J0D01*
G01*
X875266Y558274D02*
G03*
X875266Y558274I-2032J0D01*
G01*
Y554682D02*
G03*
X875266Y554682I-2032J0D01*
G01*
Y551090D02*
G03*
X875266Y551090I-2032J0D01*
G01*
X873470Y549294D02*
G03*
X873470Y549294I-2032J0D01*
G01*
X869878D02*
G03*
X869878Y549294I-2032J0D01*
G01*
X866286D02*
G03*
X866286Y549294I-2032J0D01*
G01*
X1102759Y586064D02*
G03*
X1102759Y586064I-2032J0D01*
G01*
X1104705Y584432D02*
G03*
X1104705Y584432I-2032J0D01*
G01*
X1108283Y584745D02*
G03*
X1108283Y584745I-2032J0D01*
G01*
X1106338Y586377D02*
G03*
X1106338Y586377I-2032J0D01*
G01*
X1101127Y584118D02*
G03*
X1101127Y584118I-2032J0D01*
G01*
X1103072Y582486D02*
G03*
X1103072Y582486I-2032J0D01*
G01*
X1106651Y582799D02*
G03*
X1106651Y582799I-2032J0D01*
G01*
X877062Y560070D02*
G03*
X877062Y560070I-2032J0D01*
G01*
X878858Y558274D02*
G03*
X878858Y558274I-2032J0D01*
G01*
X877062Y556478D02*
G03*
X877062Y556478I-2032J0D01*
G01*
X880654D02*
G03*
X880654Y556478I-2032J0D01*
G01*
X882450Y554682D02*
G03*
X882450Y554682I-2032J0D01*
G01*
X878858D02*
G03*
X878858Y554682I-2032J0D01*
G01*
X873470Y556478D02*
G03*
X873470Y556478I-2032J0D01*
G01*
X871674Y554682D02*
G03*
X871674Y554682I-2032J0D01*
G01*
X873470Y552886D02*
G03*
X873470Y552886I-2032J0D01*
G01*
X871674Y551090D02*
G03*
X871674Y551090I-2032J0D01*
G01*
X869878Y552886D02*
G03*
X869878Y552886I-2032J0D01*
G01*
X868082Y551090D02*
G03*
X868082Y551090I-2032J0D01*
G01*
X990092Y433070D02*
G03*
X990092Y433070I-2032J0D01*
G01*
X1148842Y567690D02*
G03*
X1148842Y567690I-2032J0D01*
G01*
X675132Y762000D02*
G03*
X675132Y762000I-2032J0D01*
G01*
X675132Y764540D02*
G03*
X675132Y764540I-2032J0D01*
G01*
X675132Y767080D02*
G03*
X675132Y767080I-2032J0D01*
G01*
X675132Y769620D02*
G03*
X675132Y769620I-2032J0D01*
G01*
X675132Y772160D02*
G03*
X675132Y772160I-2032J0D01*
G01*
X675132Y774700D02*
G03*
X675132Y774700I-2032J0D01*
G01*
X675132Y777240D02*
G03*
X675132Y777240I-2032J0D01*
G01*
X672592Y762000D02*
G03*
X672592Y762000I-2032J0D01*
G01*
X672592Y764540D02*
G03*
X672592Y764540I-2032J0D01*
G01*
X672592Y767080D02*
G03*
X672592Y767080I-2032J0D01*
G01*
X672592Y769620D02*
G03*
X672592Y769620I-2032J0D01*
G01*
X672592Y772160D02*
G03*
X672592Y772160I-2032J0D01*
G01*
X672592Y774700D02*
G03*
X672592Y774700I-2032J0D01*
G01*
X672592Y777240D02*
G03*
X672592Y777240I-2032J0D01*
G01*
X670052Y764540D02*
G03*
X670052Y764540I-2032J0D01*
G01*
X670052Y767080D02*
G03*
X670052Y767080I-2032J0D01*
G01*
X670052Y769620D02*
G03*
X670052Y769620I-2032J0D01*
G01*
Y772160D02*
G03*
X670052Y772160I-2032J0D01*
G01*
X670052Y774700D02*
G03*
X670052Y774700I-2032J0D01*
G01*
X670052Y777240D02*
G03*
X670052Y777240I-2032J0D01*
G01*
X667512Y764540D02*
G03*
X667512Y764540I-2032J0D01*
G01*
Y767080D02*
G03*
X667512Y767080I-2032J0D01*
G01*
X667512Y769620D02*
G03*
X667512Y769620I-2032J0D01*
G01*
X667512Y772160D02*
G03*
X667512Y772160I-2032J0D01*
G01*
X667512Y774700D02*
G03*
X667512Y774700I-2032J0D01*
G01*
X667512Y777240D02*
G03*
X667512Y777240I-2032J0D01*
G01*
X664972Y777240D02*
G03*
X664972Y777240I-2032J0D01*
G01*
X664972Y774700D02*
G03*
X664972Y774700I-2032J0D01*
G01*
X664972Y772160D02*
G03*
X664972Y772160I-2032J0D01*
G01*
X664972Y769620D02*
G03*
X664972Y769620I-2032J0D01*
G01*
X664972Y767080D02*
G03*
X664972Y767080I-2032J0D01*
G01*
X664972Y764540D02*
G03*
X664972Y764540I-2032J0D01*
G01*
X677672Y703580D02*
G03*
X677672Y703580I-2032J0D01*
G01*
X677672Y706120D02*
G03*
X677672Y706120I-2032J0D01*
G01*
X677672Y708660D02*
G03*
X677672Y708660I-2032J0D01*
G01*
X677672Y711200D02*
G03*
X677672Y711200I-2032J0D01*
G01*
X677672Y713740D02*
G03*
X677672Y713740I-2032J0D01*
G01*
X677672Y716280D02*
G03*
X677672Y716280I-2032J0D01*
G01*
X677672Y718820D02*
G03*
X677672Y718820I-2032J0D01*
G01*
X677672Y721360D02*
G03*
X677672Y721360I-2032J0D01*
G01*
X680212Y721360D02*
G03*
X680212Y721360I-2032J0D01*
G01*
X680212Y718820D02*
G03*
X680212Y718820I-2032J0D01*
G01*
X680212Y716280D02*
G03*
X680212Y716280I-2032J0D01*
G01*
X680212Y713740D02*
G03*
X680212Y713740I-2032J0D01*
G01*
X680212Y711200D02*
G03*
X680212Y711200I-2032J0D01*
G01*
X680212Y708660D02*
G03*
X680212Y708660I-2032J0D01*
G01*
Y706120D02*
G03*
X680212Y706120I-2032J0D01*
G01*
Y703580D02*
G03*
X680212Y703580I-2032J0D01*
G01*
X682752Y721360D02*
G03*
X682752Y721360I-2032J0D01*
G01*
X682752Y718820D02*
G03*
X682752Y718820I-2032J0D01*
G01*
X682752Y716280D02*
G03*
X682752Y716280I-2032J0D01*
G01*
X682752Y713740D02*
G03*
X682752Y713740I-2032J0D01*
G01*
Y711200D02*
G03*
X682752Y711200I-2032J0D01*
G01*
X682752Y708660D02*
G03*
X682752Y708660I-2032J0D01*
G01*
X682752Y706120D02*
G03*
X682752Y706120I-2032J0D01*
G01*
X682752Y703580D02*
G03*
X682752Y703580I-2032J0D01*
G01*
X685292Y721360D02*
G03*
X685292Y721360I-2032J0D01*
G01*
X685292Y718820D02*
G03*
X685292Y718820I-2032J0D01*
G01*
X685292Y716280D02*
G03*
X685292Y716280I-2032J0D01*
G01*
X685292Y713740D02*
G03*
X685292Y713740I-2032J0D01*
G01*
X685292Y711200D02*
G03*
X685292Y711200I-2032J0D01*
G01*
X685292Y708660D02*
G03*
X685292Y708660I-2032J0D01*
G01*
X685292Y706120D02*
G03*
X685292Y706120I-2032J0D01*
G01*
X685292Y703580D02*
G03*
X685292Y703580I-2032J0D01*
G01*
X687832Y721360D02*
G03*
X687832Y721360I-2032J0D01*
G01*
X687832Y718820D02*
G03*
X687832Y718820I-2032J0D01*
G01*
X687832Y716280D02*
G03*
X687832Y716280I-2032J0D01*
G01*
X687832Y713740D02*
G03*
X687832Y713740I-2032J0D01*
G01*
X687832Y711200D02*
G03*
X687832Y711200I-2032J0D01*
G01*
X687832Y708660D02*
G03*
X687832Y708660I-2032J0D01*
G01*
X687832Y706120D02*
G03*
X687832Y706120I-2032J0D01*
G01*
X687832Y703580D02*
G03*
X687832Y703580I-2032J0D01*
G01*
X687832Y723900D02*
G03*
X687832Y723900I-2032J0D01*
G01*
X687832Y726440D02*
G03*
X687832Y726440I-2032J0D01*
G01*
X687832Y728980D02*
G03*
X687832Y728980I-2032J0D01*
G01*
X687832Y731520D02*
G03*
X687832Y731520I-2032J0D01*
G01*
X687832Y734060D02*
G03*
X687832Y734060I-2032J0D01*
G01*
X685292Y723900D02*
G03*
X685292Y723900I-2032J0D01*
G01*
X685292Y726440D02*
G03*
X685292Y726440I-2032J0D01*
G01*
X685292Y728980D02*
G03*
X685292Y728980I-2032J0D01*
G01*
X685292Y731520D02*
G03*
X685292Y731520I-2032J0D01*
G01*
X685292Y734060D02*
G03*
X685292Y734060I-2032J0D01*
G01*
X685292Y736600D02*
G03*
X685292Y736600I-2032J0D01*
G01*
X682752Y723900D02*
G03*
X682752Y723900I-2032J0D01*
G01*
X682752Y726440D02*
G03*
X682752Y726440I-2032J0D01*
G01*
X682752Y728980D02*
G03*
X682752Y728980I-2032J0D01*
G01*
Y731520D02*
G03*
X682752Y731520I-2032J0D01*
G01*
X682752Y734060D02*
G03*
X682752Y734060I-2032J0D01*
G01*
X682752Y736600D02*
G03*
X682752Y736600I-2032J0D01*
G01*
X680212Y723900D02*
G03*
X680212Y723900I-2032J0D01*
G01*
X680212Y726440D02*
G03*
X680212Y726440I-2032J0D01*
G01*
X680212Y728980D02*
G03*
X680212Y728980I-2032J0D01*
G01*
X680212Y731520D02*
G03*
X680212Y731520I-2032J0D01*
G01*
X680212Y734060D02*
G03*
X680212Y734060I-2032J0D01*
G01*
X680212Y736600D02*
G03*
X680212Y736600I-2032J0D01*
G01*
X677672Y736600D02*
G03*
X677672Y736600I-2032J0D01*
G01*
X677672Y734060D02*
G03*
X677672Y734060I-2032J0D01*
G01*
X677672Y731520D02*
G03*
X677672Y731520I-2032J0D01*
G01*
X677672Y728980D02*
G03*
X677672Y728980I-2032J0D01*
G01*
X677672Y726440D02*
G03*
X677672Y726440I-2032J0D01*
G01*
X677672Y723900D02*
G03*
X677672Y723900I-2032J0D01*
G01*
X741172Y636270D02*
G03*
X741172Y636270I-2032J0D01*
G01*
X743712Y636270D02*
G03*
X743712Y636270I-2032J0D01*
G01*
X746252Y636270D02*
G03*
X746252Y636270I-2032J0D01*
G01*
X748792Y636270D02*
G03*
X748792Y636270I-2032J0D01*
G01*
X751332Y636270D02*
G03*
X751332Y636270I-2032J0D01*
G01*
X753872Y636270D02*
G03*
X753872Y636270I-2032J0D01*
G01*
X756412Y636270D02*
G03*
X756412Y636270I-2032J0D01*
G01*
X758952Y636270D02*
G03*
X758952Y636270I-2032J0D01*
G01*
X758952Y633730D02*
G03*
X758952Y633730I-2032J0D01*
G01*
X756412Y633730D02*
G03*
X756412Y633730I-2032J0D01*
G01*
X753872Y633730D02*
G03*
X753872Y633730I-2032J0D01*
G01*
X751332Y633730D02*
G03*
X751332Y633730I-2032J0D01*
G01*
X748792Y633730D02*
G03*
X748792Y633730I-2032J0D01*
G01*
X746252Y633730D02*
G03*
X746252Y633730I-2032J0D01*
G01*
X743712Y633730D02*
G03*
X743712Y633730I-2032J0D01*
G01*
X741172D02*
G03*
X741172Y633730I-2032J0D01*
G01*
X758952Y631190D02*
G03*
X758952Y631190I-2032J0D01*
G01*
X756412Y631190D02*
G03*
X756412Y631190I-2032J0D01*
G01*
X753872Y631190D02*
G03*
X753872Y631190I-2032J0D01*
G01*
X751332Y631190D02*
G03*
X751332Y631190I-2032J0D01*
G01*
X748792D02*
G03*
X748792Y631190I-2032J0D01*
G01*
X746252Y631190D02*
G03*
X746252Y631190I-2032J0D01*
G01*
X743712Y631190D02*
G03*
X743712Y631190I-2032J0D01*
G01*
X741172Y631190D02*
G03*
X741172Y631190I-2032J0D01*
G01*
X758952Y628650D02*
G03*
X758952Y628650I-2032J0D01*
G01*
X756412Y628650D02*
G03*
X756412Y628650I-2032J0D01*
G01*
X753872Y628650D02*
G03*
X753872Y628650I-2032J0D01*
G01*
X751332Y628650D02*
G03*
X751332Y628650I-2032J0D01*
G01*
X748792D02*
G03*
X748792Y628650I-2032J0D01*
G01*
X746252Y628650D02*
G03*
X746252Y628650I-2032J0D01*
G01*
X743712Y628650D02*
G03*
X743712Y628650I-2032J0D01*
G01*
X741172Y628650D02*
G03*
X741172Y628650I-2032J0D01*
G01*
X758952Y626110D02*
G03*
X758952Y626110I-2032J0D01*
G01*
X756412Y626110D02*
G03*
X756412Y626110I-2032J0D01*
G01*
X753872Y626110D02*
G03*
X753872Y626110I-2032J0D01*
G01*
X751332Y626110D02*
G03*
X751332Y626110I-2032J0D01*
G01*
X748792Y626110D02*
G03*
X748792Y626110I-2032J0D01*
G01*
X746252Y626110D02*
G03*
X746252Y626110I-2032J0D01*
G01*
X743712Y626110D02*
G03*
X743712Y626110I-2032J0D01*
G01*
X741172Y626110D02*
G03*
X741172Y626110I-2032J0D01*
G01*
X761492Y626110D02*
G03*
X761492Y626110I-2032J0D01*
G01*
X764032Y626110D02*
G03*
X764032Y626110I-2032J0D01*
G01*
X766572Y626110D02*
G03*
X766572Y626110I-2032J0D01*
G01*
X769112Y626110D02*
G03*
X769112Y626110I-2032J0D01*
G01*
X771652Y626110D02*
G03*
X771652Y626110I-2032J0D01*
G01*
X774192Y626110D02*
G03*
X774192Y626110I-2032J0D01*
G01*
X761492Y628649D02*
G03*
X761492Y628649I-2032J0D01*
G01*
X764032Y628650D02*
G03*
X764032Y628650I-2032J0D01*
G01*
X766572Y628650D02*
G03*
X766572Y628650I-2032J0D01*
G01*
X774192Y628650D02*
G03*
X774192Y628650I-2032J0D01*
G01*
X761492Y631190D02*
G03*
X761492Y631190I-2032J0D01*
G01*
X764032Y631190D02*
G03*
X764032Y631190I-2032J0D01*
G01*
X761492Y633730D02*
G03*
X761492Y633730I-2032J0D01*
G01*
X764032Y633730D02*
G03*
X764032Y633730I-2032J0D01*
G01*
X769112Y633730D02*
G03*
X769112Y633730I-2032J0D01*
G01*
X764032Y636270D02*
G03*
X764032Y636270I-2032J0D01*
G01*
X761491Y636270D02*
G03*
X761491Y636270I-2032J0D01*
G01*
X863656Y342861D02*
G03*
X863656Y342861I-2032J0D01*
G01*
X866109Y342204D02*
G03*
X866109Y342204I-2032J0D01*
G01*
X868563Y341547D02*
G03*
X868563Y341547I-2032J0D01*
G01*
X871016Y340889D02*
G03*
X871016Y340889I-2032J0D01*
G01*
X873470Y340232D02*
G03*
X873470Y340232I-2032J0D01*
G01*
X875923Y339574D02*
G03*
X875923Y339574I-2032J0D01*
G01*
X878377Y338917D02*
G03*
X878377Y338917I-2032J0D01*
G01*
X880830Y338259D02*
G03*
X880830Y338259I-2032J0D01*
G01*
X880173Y335806D02*
G03*
X880173Y335806I-2032J0D01*
G01*
X877719Y336463D02*
G03*
X877719Y336463I-2032J0D01*
G01*
X875266Y337121D02*
G03*
X875266Y337121I-2032J0D01*
G01*
X872813Y337778D02*
G03*
X872813Y337778I-2032J0D01*
G01*
X870359Y338436D02*
G03*
X870359Y338436I-2032J0D01*
G01*
X867906Y339093D02*
G03*
X867906Y339093I-2032J0D01*
G01*
X865452Y339751D02*
G03*
X865452Y339751I-2032J0D01*
G01*
X862999Y340408D02*
G03*
X862999Y340408I-2032J0D01*
G01*
X879515Y333353D02*
G03*
X879515Y333353I-2032J0D01*
G01*
X877062Y334010D02*
G03*
X877062Y334010I-2032J0D01*
G01*
X874609Y334667D02*
G03*
X874609Y334667I-2032J0D01*
G01*
X872155Y335325D02*
G03*
X872155Y335325I-2032J0D01*
G01*
X869702Y335982D02*
G03*
X869702Y335982I-2032J0D01*
G01*
X867248Y336640D02*
G03*
X867248Y336640I-2032J0D01*
G01*
X864795Y337297D02*
G03*
X864795Y337297I-2032J0D01*
G01*
X862341Y337954D02*
G03*
X862341Y337954I-2032J0D01*
G01*
X878858Y330899D02*
G03*
X878858Y330899I-2032J0D01*
G01*
X876404Y331557D02*
G03*
X876404Y331557I-2032J0D01*
G01*
X873951Y332214D02*
G03*
X873951Y332214I-2032J0D01*
G01*
X871498Y332871D02*
G03*
X871498Y332871I-2032J0D01*
G01*
X869044Y333529D02*
G03*
X869044Y333529I-2032J0D01*
G01*
X866591Y334186D02*
G03*
X866591Y334186I-2032J0D01*
G01*
X864137Y334843D02*
G03*
X864137Y334843I-2032J0D01*
G01*
X861684Y335501D02*
G03*
X861684Y335501I-2032J0D01*
G01*
X878201Y328446D02*
G03*
X878201Y328446I-2032J0D01*
G01*
X875747Y329103D02*
G03*
X875747Y329103I-2032J0D01*
G01*
X873293Y329761D02*
G03*
X873293Y329761I-2032J0D01*
G01*
X870840Y330418D02*
G03*
X870840Y330418I-2032J0D01*
G01*
X868387Y331075D02*
G03*
X868387Y331075I-2032J0D01*
G01*
X865933Y331733D02*
G03*
X865933Y331733I-2032J0D01*
G01*
X863480Y332390D02*
G03*
X863480Y332390I-2032J0D01*
G01*
X861027Y333048D02*
G03*
X861027Y333048I-2032J0D01*
G01*
X880654Y327788D02*
G03*
X880654Y327788I-2032J0D01*
G01*
X883108Y327131D02*
G03*
X883108Y327131I-2032J0D01*
G01*
X885561Y326473D02*
G03*
X885561Y326473I-2032J0D01*
G01*
X888015Y325816D02*
G03*
X888015Y325816I-2032J0D01*
G01*
X890468Y325159D02*
G03*
X890468Y325159I-2032J0D01*
G01*
X892921Y324501D02*
G03*
X892921Y324501I-2032J0D01*
G01*
X881311Y330241D02*
G03*
X881311Y330241I-2032J0D01*
G01*
X883765Y329584D02*
G03*
X883765Y329584I-2032J0D01*
G01*
X886218Y328927D02*
G03*
X886218Y328927I-2032J0D01*
G01*
X888672Y328269D02*
G03*
X888672Y328269I-2032J0D01*
G01*
X891125Y327612D02*
G03*
X891125Y327612I-2032J0D01*
G01*
X893579Y326955D02*
G03*
X893579Y326955I-2032J0D01*
G01*
X881969Y332695D02*
G03*
X881969Y332695I-2032J0D01*
G01*
X884422Y332038D02*
G03*
X884422Y332038I-2032J0D01*
G01*
X886876Y331380D02*
G03*
X886876Y331380I-2032J0D01*
G01*
X889329Y330723D02*
G03*
X889329Y330723I-2032J0D01*
G01*
X891783Y330066D02*
G03*
X891783Y330066I-2032J0D01*
G01*
X894236Y329408D02*
G03*
X894236Y329408I-2032J0D01*
G01*
X882626Y335149D02*
G03*
X882626Y335149I-2032J0D01*
G01*
X885080Y334491D02*
G03*
X885080Y334491I-2032J0D01*
G01*
X887533Y333834D02*
G03*
X887533Y333834I-2032J0D01*
G01*
X889987Y333176D02*
G03*
X889987Y333176I-2032J0D01*
G01*
X892440Y332519D02*
G03*
X892440Y332519I-2032J0D01*
G01*
X894893Y331862D02*
G03*
X894893Y331862I-2032J0D01*
G01*
X895551Y334315D02*
G03*
X895551Y334315I-2032J0D01*
G01*
X893097Y334972D02*
G03*
X893097Y334972I-2032J0D01*
G01*
X890644Y335630D02*
G03*
X890644Y335630I-2032J0D01*
G01*
X888191Y336287D02*
G03*
X888191Y336287I-2032J0D01*
G01*
X885737Y336945D02*
G03*
X885737Y336945I-2032J0D01*
G01*
X883283Y337602D02*
G03*
X883283Y337602I-2032J0D01*
G01*
X988822Y316230D02*
G03*
X988822Y316230I-2032J0D01*
G01*
X986282Y316230D02*
G03*
X986282Y316230I-2032J0D01*
G01*
X983742Y316230D02*
G03*
X983742Y316230I-2032J0D01*
G01*
X981202Y316230D02*
G03*
X981202Y316230I-2032J0D01*
G01*
X978662Y316230D02*
G03*
X978662Y316230I-2032J0D01*
G01*
X976122Y316230D02*
G03*
X976122Y316230I-2032J0D01*
G01*
X973582Y316230D02*
G03*
X973582Y316230I-2032J0D01*
G01*
X971042Y316230D02*
G03*
X971042Y316230I-2032J0D01*
G01*
X971042Y318770D02*
G03*
X971042Y318770I-2032J0D01*
G01*
X973582Y318770D02*
G03*
X973582Y318770I-2032J0D01*
G01*
X976122Y318770D02*
G03*
X976122Y318770I-2032J0D01*
G01*
X978662Y318770D02*
G03*
X978662Y318770I-2032J0D01*
G01*
X981202Y318770D02*
G03*
X981202Y318770I-2032J0D01*
G01*
X983742Y318770D02*
G03*
X983742Y318770I-2032J0D01*
G01*
X986282Y318770D02*
G03*
X986282Y318770I-2032J0D01*
G01*
X988822Y318770D02*
G03*
X988822Y318770I-2032J0D01*
G01*
X971042Y321310D02*
G03*
X971042Y321310I-2032J0D01*
G01*
X973582Y321310D02*
G03*
X973582Y321310I-2032J0D01*
G01*
X976122Y321310D02*
G03*
X976122Y321310I-2032J0D01*
G01*
X978662Y321310D02*
G03*
X978662Y321310I-2032J0D01*
G01*
X981202D02*
G03*
X981202Y321310I-2032J0D01*
G01*
X983742Y321310D02*
G03*
X983742Y321310I-2032J0D01*
G01*
X986282Y321310D02*
G03*
X986282Y321310I-2032J0D01*
G01*
X988822Y321310D02*
G03*
X988822Y321310I-2032J0D01*
G01*
X971042Y323850D02*
G03*
X971042Y323850I-2032J0D01*
G01*
X973582Y323850D02*
G03*
X973582Y323850I-2032J0D01*
G01*
X976122Y323850D02*
G03*
X976122Y323850I-2032J0D01*
G01*
X978662Y323850D02*
G03*
X978662Y323850I-2032J0D01*
G01*
X981202Y323850D02*
G03*
X981202Y323850I-2032J0D01*
G01*
X983742Y323850D02*
G03*
X983742Y323850I-2032J0D01*
G01*
X986282Y323850D02*
G03*
X986282Y323850I-2032J0D01*
G01*
X988822Y323850D02*
G03*
X988822Y323850I-2032J0D01*
G01*
X971042Y326390D02*
G03*
X971042Y326390I-2032J0D01*
G01*
X973582Y326390D02*
G03*
X973582Y326390I-2032J0D01*
G01*
X976122Y326390D02*
G03*
X976122Y326390I-2032J0D01*
G01*
X978662Y326390D02*
G03*
X978662Y326390I-2032J0D01*
G01*
X981202Y326390D02*
G03*
X981202Y326390I-2032J0D01*
G01*
X983742Y326390D02*
G03*
X983742Y326390I-2032J0D01*
G01*
X986282Y326390D02*
G03*
X986282Y326390I-2032J0D01*
G01*
X988822Y326390D02*
G03*
X988822Y326390I-2032J0D01*
G01*
X968502Y326390D02*
G03*
X968502Y326390I-2032J0D01*
G01*
X965962Y326390D02*
G03*
X965962Y326390I-2032J0D01*
G01*
X963422Y326390D02*
G03*
X963422Y326390I-2032J0D01*
G01*
X960882Y326390D02*
G03*
X960882Y326390I-2032J0D01*
G01*
X958342Y326390D02*
G03*
X958342Y326390I-2032J0D01*
G01*
X955802Y326390D02*
G03*
X955802Y326390I-2032J0D01*
G01*
X968502Y323850D02*
G03*
X968502Y323850I-2032J0D01*
G01*
X965962Y323850D02*
G03*
X965962Y323850I-2032J0D01*
G01*
X963422Y323850D02*
G03*
X963422Y323850I-2032J0D01*
G01*
X960882Y323850D02*
G03*
X960882Y323850I-2032J0D01*
G01*
X958342Y323850D02*
G03*
X958342Y323850I-2032J0D01*
G01*
X955802Y323850D02*
G03*
X955802Y323850I-2032J0D01*
G01*
X968502Y321310D02*
G03*
X968502Y321310I-2032J0D01*
G01*
X965962Y321310D02*
G03*
X965962Y321310I-2032J0D01*
G01*
X963422Y321310D02*
G03*
X963422Y321310I-2032J0D01*
G01*
X960882Y321310D02*
G03*
X960882Y321310I-2032J0D01*
G01*
X958342Y321310D02*
G03*
X958342Y321310I-2032J0D01*
G01*
X955802Y321310D02*
G03*
X955802Y321310I-2032J0D01*
G01*
X968502Y318770D02*
G03*
X968502Y318770I-2032J0D01*
G01*
X965962Y318770D02*
G03*
X965962Y318770I-2032J0D01*
G01*
X963422Y318770D02*
G03*
X963422Y318770I-2032J0D01*
G01*
X960882Y318770D02*
G03*
X960882Y318770I-2032J0D01*
G01*
X958342Y318770D02*
G03*
X958342Y318770I-2032J0D01*
G01*
X955802Y318770D02*
G03*
X955802Y318770I-2032J0D01*
G01*
X955802Y316230D02*
G03*
X955802Y316230I-2032J0D01*
G01*
X958342Y316230D02*
G03*
X958342Y316230I-2032J0D01*
G01*
X960882Y316230D02*
G03*
X960882Y316230I-2032J0D01*
G01*
X963422Y316230D02*
G03*
X963422Y316230I-2032J0D01*
G01*
X965962Y316230D02*
G03*
X965962Y316230I-2032J0D01*
G01*
X968503Y316230D02*
G03*
X968503Y316230I-2032J0D01*
G01*
X1047717Y334972D02*
G03*
X1047717Y334972I-2032J0D01*
G01*
X1050170Y335630D02*
G03*
X1050170Y335630I-2032J0D01*
G01*
X1052623Y336287D02*
G03*
X1052623Y336287I-2032J0D01*
G01*
X1055077Y336945D02*
G03*
X1055077Y336945I-2032J0D01*
G01*
X1057530Y337602D02*
G03*
X1057530Y337602I-2032J0D01*
G01*
X1059984Y338260D02*
G03*
X1059984Y338260I-2032J0D01*
G01*
X1062437Y338917D02*
G03*
X1062437Y338917I-2032J0D01*
G01*
X1064891Y339574D02*
G03*
X1064891Y339574I-2032J0D01*
G01*
X1065548Y337121D02*
G03*
X1065548Y337121I-2032J0D01*
G01*
X1063095Y336464D02*
G03*
X1063095Y336464I-2032J0D01*
G01*
X1060641Y335806D02*
G03*
X1060641Y335806I-2032J0D01*
G01*
X1058188Y335149D02*
G03*
X1058188Y335149I-2032J0D01*
G01*
X1055734Y334491D02*
G03*
X1055734Y334491I-2032J0D01*
G01*
X1053281Y333834D02*
G03*
X1053281Y333834I-2032J0D01*
G01*
X1050827Y333176D02*
G03*
X1050827Y333176I-2032J0D01*
G01*
X1048374Y332519D02*
G03*
X1048374Y332519I-2032J0D01*
G01*
X1066206Y334667D02*
G03*
X1066206Y334667I-2032J0D01*
G01*
X1063752Y334010D02*
G03*
X1063752Y334010I-2032J0D01*
G01*
X1061299Y333353D02*
G03*
X1061299Y333353I-2032J0D01*
G01*
X1058845Y332695D02*
G03*
X1058845Y332695I-2032J0D01*
G01*
X1056392Y332038D02*
G03*
X1056392Y332038I-2032J0D01*
G01*
X1053938Y331381D02*
G03*
X1053938Y331381I-2032J0D01*
G01*
X1051485Y330723D02*
G03*
X1051485Y330723I-2032J0D01*
G01*
X1049031Y330066D02*
G03*
X1049031Y330066I-2032J0D01*
G01*
X1066863Y332214D02*
G03*
X1066863Y332214I-2032J0D01*
G01*
X1064409Y331557D02*
G03*
X1064409Y331557I-2032J0D01*
G01*
X1061956Y330899D02*
G03*
X1061956Y330899I-2032J0D01*
G01*
X1059503Y330242D02*
G03*
X1059503Y330242I-2032J0D01*
G01*
X1057049Y329584D02*
G03*
X1057049Y329584I-2032J0D01*
G01*
X1054596Y328927D02*
G03*
X1054596Y328927I-2032J0D01*
G01*
X1052142Y328269D02*
G03*
X1052142Y328269I-2032J0D01*
G01*
X1049689Y327612D02*
G03*
X1049689Y327612I-2032J0D01*
G01*
X1067520Y329761D02*
G03*
X1067520Y329761I-2032J0D01*
G01*
X1065067Y329103D02*
G03*
X1065067Y329103I-2032J0D01*
G01*
X1062613Y328446D02*
G03*
X1062613Y328446I-2032J0D01*
G01*
X1060160Y327788D02*
G03*
X1060160Y327788I-2032J0D01*
G01*
X1057707Y327131D02*
G03*
X1057707Y327131I-2032J0D01*
G01*
X1055253Y326474D02*
G03*
X1055253Y326474I-2032J0D01*
G01*
X1052800Y325816D02*
G03*
X1052800Y325816I-2032J0D01*
G01*
X1050346Y325159D02*
G03*
X1050346Y325159I-2032J0D01*
G01*
X1069974Y330418D02*
G03*
X1069974Y330418I-2032J0D01*
G01*
X1072427Y331075D02*
G03*
X1072427Y331075I-2032J0D01*
G01*
X1074881Y331732D02*
G03*
X1074881Y331732I-2032J0D01*
G01*
X1077334Y332390D02*
G03*
X1077334Y332390I-2032J0D01*
G01*
X1079787Y333047D02*
G03*
X1079787Y333047I-2032J0D01*
G01*
X1082241Y333705D02*
G03*
X1082241Y333705I-2032J0D01*
G01*
X1069316Y332871D02*
G03*
X1069316Y332871I-2032J0D01*
G01*
X1071770Y333529D02*
G03*
X1071770Y333529I-2032J0D01*
G01*
X1074223Y334186D02*
G03*
X1074223Y334186I-2032J0D01*
G01*
X1076677Y334843D02*
G03*
X1076677Y334843I-2032J0D01*
G01*
X1079130Y335501D02*
G03*
X1079130Y335501I-2032J0D01*
G01*
X1081584Y336158D02*
G03*
X1081584Y336158I-2032J0D01*
G01*
X1068659Y335325D02*
G03*
X1068659Y335325I-2032J0D01*
G01*
X1071112Y335982D02*
G03*
X1071112Y335982I-2032J0D01*
G01*
X1073566Y336640D02*
G03*
X1073566Y336640I-2032J0D01*
G01*
X1076019Y337297D02*
G03*
X1076019Y337297I-2032J0D01*
G01*
X1078473Y337955D02*
G03*
X1078473Y337955I-2032J0D01*
G01*
X1080926Y338612D02*
G03*
X1080926Y338612I-2032J0D01*
G01*
X1068002Y337778D02*
G03*
X1068002Y337778I-2032J0D01*
G01*
X1070455Y338435D02*
G03*
X1070455Y338435I-2032J0D01*
G01*
X1072908Y339093D02*
G03*
X1072908Y339093I-2032J0D01*
G01*
X1075362Y339750D02*
G03*
X1075362Y339750I-2032J0D01*
G01*
X1077816Y340407D02*
G03*
X1077816Y340407I-2032J0D01*
G01*
X1080269Y341065D02*
G03*
X1080269Y341065I-2032J0D01*
G01*
X1079611Y343518D02*
G03*
X1079611Y343518I-2032J0D01*
G01*
X1077158Y342861D02*
G03*
X1077158Y342861I-2032J0D01*
G01*
X1074704Y342204D02*
G03*
X1074704Y342204I-2032J0D01*
G01*
X1072251Y341546D02*
G03*
X1072251Y341546I-2032J0D01*
G01*
X1069798Y340889D02*
G03*
X1069798Y340889I-2032J0D01*
G01*
X1067344Y340232D02*
G03*
X1067344Y340232I-2032J0D01*
G01*
X1163310Y372791D02*
G03*
X1163310Y372791I-2032J0D01*
G01*
X1161111Y371521D02*
G03*
X1161111Y371521I-2032J0D01*
G01*
X1158911Y370250D02*
G03*
X1158911Y370250I-2032J0D01*
G01*
X1156711Y368981D02*
G03*
X1156711Y368981I-2032J0D01*
G01*
X1154512Y367710D02*
G03*
X1154512Y367710I-2032J0D01*
G01*
X1152312Y366441D02*
G03*
X1152312Y366441I-2032J0D01*
G01*
X1150112Y365170D02*
G03*
X1150112Y365170I-2032J0D01*
G01*
X1147912Y363901D02*
G03*
X1147912Y363901I-2032J0D01*
G01*
X1146642Y366100D02*
G03*
X1146642Y366100I-2032J0D01*
G01*
X1148842Y367370D02*
G03*
X1148842Y367370I-2032J0D01*
G01*
X1151041Y368640D02*
G03*
X1151041Y368640I-2032J0D01*
G01*
X1153241Y369910D02*
G03*
X1153241Y369910I-2032J0D01*
G01*
X1155441Y371180D02*
G03*
X1155441Y371180I-2032J0D01*
G01*
X1157641Y372450D02*
G03*
X1157641Y372450I-2032J0D01*
G01*
X1159841Y373720D02*
G03*
X1159841Y373720I-2032J0D01*
G01*
X1162040Y374990D02*
G03*
X1162040Y374990I-2032J0D01*
G01*
X1145372Y368300D02*
G03*
X1145372Y368300I-2032J0D01*
G01*
X1147572Y369570D02*
G03*
X1147572Y369570I-2032J0D01*
G01*
X1149772Y370840D02*
G03*
X1149772Y370840I-2032J0D01*
G01*
X1151972Y372110D02*
G03*
X1151972Y372110I-2032J0D01*
G01*
X1154171Y373380D02*
G03*
X1154171Y373380I-2032J0D01*
G01*
X1156371Y374650D02*
G03*
X1156371Y374650I-2032J0D01*
G01*
X1158570Y375920D02*
G03*
X1158570Y375920I-2032J0D01*
G01*
X1160770Y377190D02*
G03*
X1160770Y377190I-2032J0D01*
G01*
X1144102Y370500D02*
G03*
X1144102Y370500I-2032J0D01*
G01*
X1146302Y371770D02*
G03*
X1146302Y371770I-2032J0D01*
G01*
X1148502Y373040D02*
G03*
X1148502Y373040I-2032J0D01*
G01*
X1150701Y374310D02*
G03*
X1150701Y374310I-2032J0D01*
G01*
X1152901Y375580D02*
G03*
X1152901Y375580I-2032J0D01*
G01*
X1155101Y376850D02*
G03*
X1155101Y376850I-2032J0D01*
G01*
X1157301Y378120D02*
G03*
X1157301Y378120I-2032J0D01*
G01*
X1159500Y379390D02*
G03*
X1159500Y379390I-2032J0D01*
G01*
X1142832Y372700D02*
G03*
X1142832Y372700I-2032J0D01*
G01*
X1145032Y373969D02*
G03*
X1145032Y373969I-2032J0D01*
G01*
X1147232Y375239D02*
G03*
X1147232Y375239I-2032J0D01*
G01*
X1149432Y376510D02*
G03*
X1149432Y376510I-2032J0D01*
G01*
X1151631Y377779D02*
G03*
X1151631Y377779I-2032J0D01*
G01*
X1153831Y379049D02*
G03*
X1153831Y379049I-2032J0D01*
G01*
X1156031Y380320D02*
G03*
X1156031Y380320I-2032J0D01*
G01*
X1158230Y381589D02*
G03*
X1158230Y381589I-2032J0D01*
G01*
X1140632Y371429D02*
G03*
X1140632Y371429I-2032J0D01*
G01*
X1138433Y370159D02*
G03*
X1138433Y370159I-2032J0D01*
G01*
X1136233Y368890D02*
G03*
X1136233Y368890I-2032J0D01*
G01*
X1134034Y367620D02*
G03*
X1134034Y367620I-2032J0D01*
G01*
X1131834Y366349D02*
G03*
X1131834Y366349I-2032J0D01*
G01*
X1129634Y365079D02*
G03*
X1129634Y365079I-2032J0D01*
G01*
X1141903Y369230D02*
G03*
X1141903Y369230I-2032J0D01*
G01*
X1139703Y367960D02*
G03*
X1139703Y367960I-2032J0D01*
G01*
X1137503Y366690D02*
G03*
X1137503Y366690I-2032J0D01*
G01*
X1135303Y365420D02*
G03*
X1135303Y365420I-2032J0D01*
G01*
X1133104Y364150D02*
G03*
X1133104Y364150I-2032J0D01*
G01*
X1130904Y362880D02*
G03*
X1130904Y362880I-2032J0D01*
G01*
X1143173Y367030D02*
G03*
X1143173Y367030I-2032J0D01*
G01*
X1140973Y365760D02*
G03*
X1140973Y365760I-2032J0D01*
G01*
X1138773Y364490D02*
G03*
X1138773Y364490I-2032J0D01*
G01*
X1136573Y363220D02*
G03*
X1136573Y363220I-2032J0D01*
G01*
X1134374Y361950D02*
G03*
X1134374Y361950I-2032J0D01*
G01*
X1132174Y360680D02*
G03*
X1132174Y360680I-2032J0D01*
G01*
X1144442Y364830D02*
G03*
X1144442Y364830I-2032J0D01*
G01*
X1142243Y363561D02*
G03*
X1142243Y363561I-2032J0D01*
G01*
X1140043Y362290D02*
G03*
X1140043Y362290I-2032J0D01*
G01*
X1137843Y361020D02*
G03*
X1137843Y361020I-2032J0D01*
G01*
X1135643Y359750D02*
G03*
X1135643Y359750I-2032J0D01*
G01*
X1133444Y358480D02*
G03*
X1133444Y358480I-2032J0D01*
G01*
X1134714Y356281D02*
G03*
X1134714Y356281I-2032J0D01*
G01*
X1136914Y357551D02*
G03*
X1136914Y357551I-2032J0D01*
G01*
X1139113Y358821D02*
G03*
X1139113Y358821I-2032J0D01*
G01*
X1141313Y360091D02*
G03*
X1141313Y360091I-2032J0D01*
G01*
X1143513Y361361D02*
G03*
X1143513Y361361I-2032J0D01*
G01*
X1145713Y362631D02*
G03*
X1145713Y362631I-2032J0D01*
G01*
X1204324Y416996D02*
G03*
X1204324Y416996I-2032J0D01*
G01*
X1206120Y418792D02*
G03*
X1206120Y418792I-2032J0D01*
G01*
X1207916Y420588D02*
G03*
X1207916Y420588I-2032J0D01*
G01*
X1209712Y422384D02*
G03*
X1209712Y422384I-2032J0D01*
G01*
X1211508Y424180D02*
G03*
X1211508Y424180I-2032J0D01*
G01*
X1213304Y425976D02*
G03*
X1213304Y425976I-2032J0D01*
G01*
X1215100Y427772D02*
G03*
X1215100Y427772I-2032J0D01*
G01*
X1216896Y429568D02*
G03*
X1216896Y429568I-2032J0D01*
G01*
X1218692Y427772D02*
G03*
X1218692Y427772I-2032J0D01*
G01*
X1216896Y425976D02*
G03*
X1216896Y425976I-2032J0D01*
G01*
X1215100Y424180D02*
G03*
X1215100Y424180I-2032J0D01*
G01*
X1213304Y422384D02*
G03*
X1213304Y422384I-2032J0D01*
G01*
X1211508Y420588D02*
G03*
X1211508Y420588I-2032J0D01*
G01*
X1209712Y418792D02*
G03*
X1209712Y418792I-2032J0D01*
G01*
X1207915Y416996D02*
G03*
X1207915Y416996I-2032J0D01*
G01*
X1206120Y415200D02*
G03*
X1206120Y415200I-2032J0D01*
G01*
X1220488Y425976D02*
G03*
X1220488Y425976I-2032J0D01*
G01*
X1218692Y424180D02*
G03*
X1218692Y424180I-2032J0D01*
G01*
X1216896Y422384D02*
G03*
X1216896Y422384I-2032J0D01*
G01*
X1215100Y420588D02*
G03*
X1215100Y420588I-2032J0D01*
G01*
X1213304Y418792D02*
G03*
X1213304Y418792I-2032J0D01*
G01*
X1211508Y416996D02*
G03*
X1211508Y416996I-2032J0D01*
G01*
X1209712Y415200D02*
G03*
X1209712Y415200I-2032J0D01*
G01*
X1207916Y413404D02*
G03*
X1207916Y413404I-2032J0D01*
G01*
X1222284Y424180D02*
G03*
X1222284Y424180I-2032J0D01*
G01*
X1220488Y422384D02*
G03*
X1220488Y422384I-2032J0D01*
G01*
X1218692Y420588D02*
G03*
X1218692Y420588I-2032J0D01*
G01*
X1216896Y418792D02*
G03*
X1216896Y418792I-2032J0D01*
G01*
X1215100Y416996D02*
G03*
X1215100Y416996I-2032J0D01*
G01*
X1213304Y415200D02*
G03*
X1213304Y415200I-2032J0D01*
G01*
X1211508Y413403D02*
G03*
X1211508Y413403I-2032J0D01*
G01*
X1209712Y411608D02*
G03*
X1209712Y411608I-2032J0D01*
G01*
X1224080Y422384D02*
G03*
X1224080Y422384I-2032J0D01*
G01*
X1222284Y420588D02*
G03*
X1222284Y420588I-2032J0D01*
G01*
X1220488Y418792D02*
G03*
X1220488Y418792I-2032J0D01*
G01*
X1218692Y416996D02*
G03*
X1218692Y416996I-2032J0D01*
G01*
X1216896Y415200D02*
G03*
X1216896Y415200I-2032J0D01*
G01*
X1215100Y413404D02*
G03*
X1215100Y413404I-2032J0D01*
G01*
X1213304Y411608D02*
G03*
X1213304Y411608I-2032J0D01*
G01*
X1211508Y409812D02*
G03*
X1211508Y409812I-2032J0D01*
G01*
X1225876Y424180D02*
G03*
X1225876Y424180I-2032J0D01*
G01*
X1227672Y425976D02*
G03*
X1227672Y425976I-2032J0D01*
G01*
X1229468Y427772D02*
G03*
X1229468Y427772I-2032J0D01*
G01*
X1231264Y429568D02*
G03*
X1231264Y429568I-2032J0D01*
G01*
X1233060Y431364D02*
G03*
X1233060Y431364I-2032J0D01*
G01*
X1234857Y433160D02*
G03*
X1234857Y433160I-2032J0D01*
G01*
X1224080Y425976D02*
G03*
X1224080Y425976I-2032J0D01*
G01*
X1225876Y427772D02*
G03*
X1225876Y427772I-2032J0D01*
G01*
X1227672Y429568D02*
G03*
X1227672Y429568I-2032J0D01*
G01*
X1229469Y431364D02*
G03*
X1229469Y431364I-2032J0D01*
G01*
X1231264Y433160D02*
G03*
X1231264Y433160I-2032J0D01*
G01*
X1233060Y434956D02*
G03*
X1233060Y434956I-2032J0D01*
G01*
X1222284Y427772D02*
G03*
X1222284Y427772I-2032J0D01*
G01*
X1224080Y429568D02*
G03*
X1224080Y429568I-2032J0D01*
G01*
X1225876Y431364D02*
G03*
X1225876Y431364I-2032J0D01*
G01*
X1227672Y433160D02*
G03*
X1227672Y433160I-2032J0D01*
G01*
X1229468Y434957D02*
G03*
X1229468Y434957I-2032J0D01*
G01*
X1231264Y436752D02*
G03*
X1231264Y436752I-2032J0D01*
G01*
X1220488Y429568D02*
G03*
X1220488Y429568I-2032J0D01*
G01*
X1222284Y431364D02*
G03*
X1222284Y431364I-2032J0D01*
G01*
X1224080Y433160D02*
G03*
X1224080Y433160I-2032J0D01*
G01*
X1225876Y434956D02*
G03*
X1225876Y434956I-2032J0D01*
G01*
X1227673Y436752D02*
G03*
X1227673Y436752I-2032J0D01*
G01*
X1229468Y438548D02*
G03*
X1229468Y438548I-2032J0D01*
G01*
X1227672Y440344D02*
G03*
X1227672Y440344I-2032J0D01*
G01*
X1225876Y438548D02*
G03*
X1225876Y438548I-2032J0D01*
G01*
X1224080Y436752D02*
G03*
X1224080Y436752I-2032J0D01*
G01*
X1222284Y434956D02*
G03*
X1222284Y434956I-2032J0D01*
G01*
X1220488Y433160D02*
G03*
X1220488Y433160I-2032J0D01*
G01*
X1218692Y431364D02*
G03*
X1218692Y431364I-2032J0D01*
G01*
X1286591Y508498D02*
G03*
X1286591Y508498I-2032J0D01*
G01*
X1285322Y506298D02*
G03*
X1285322Y506298I-2032J0D01*
G01*
X1284052Y504099D02*
G03*
X1284052Y504099I-2032J0D01*
G01*
X1282782Y501899D02*
G03*
X1282782Y501899I-2032J0D01*
G01*
X1281512Y499699D02*
G03*
X1281512Y499699I-2032J0D01*
G01*
X1280242Y497500D02*
G03*
X1280242Y497500I-2032J0D01*
G01*
X1278971Y495300D02*
G03*
X1278971Y495300I-2032J0D01*
G01*
X1277701Y493100D02*
G03*
X1277701Y493100I-2032J0D01*
G01*
X1275502Y494370D02*
G03*
X1275502Y494370I-2032J0D01*
G01*
X1276772Y496570D02*
G03*
X1276772Y496570I-2032J0D01*
G01*
X1278042Y498770D02*
G03*
X1278042Y498770I-2032J0D01*
G01*
X1279312Y500970D02*
G03*
X1279312Y500970I-2032J0D01*
G01*
X1280582Y503169D02*
G03*
X1280582Y503169I-2032J0D01*
G01*
X1281852Y505369D02*
G03*
X1281852Y505369I-2032J0D01*
G01*
X1283122Y507569D02*
G03*
X1283122Y507569I-2032J0D01*
G01*
X1284392Y509768D02*
G03*
X1284392Y509768I-2032J0D01*
G01*
X1273302Y495640D02*
G03*
X1273302Y495640I-2032J0D01*
G01*
X1274572Y497840D02*
G03*
X1274572Y497840I-2032J0D01*
G01*
X1275842Y500040D02*
G03*
X1275842Y500040I-2032J0D01*
G01*
X1277112Y502239D02*
G03*
X1277112Y502239I-2032J0D01*
G01*
X1278382Y504439D02*
G03*
X1278382Y504439I-2032J0D01*
G01*
X1279652Y506639D02*
G03*
X1279652Y506639I-2032J0D01*
G01*
X1280922Y508838D02*
G03*
X1280922Y508838I-2032J0D01*
G01*
X1282192Y511038D02*
G03*
X1282192Y511038I-2032J0D01*
G01*
X1271102Y496910D02*
G03*
X1271102Y496910I-2032J0D01*
G01*
X1272372Y499110D02*
G03*
X1272372Y499110I-2032J0D01*
G01*
X1273642Y501310D02*
G03*
X1273642Y501310I-2032J0D01*
G01*
X1274912Y503510D02*
G03*
X1274912Y503510I-2032J0D01*
G01*
X1276182Y505709D02*
G03*
X1276182Y505709I-2032J0D01*
G01*
X1277452Y507909D02*
G03*
X1277452Y507909I-2032J0D01*
G01*
X1278722Y510109D02*
G03*
X1278722Y510109I-2032J0D01*
G01*
X1279992Y512308D02*
G03*
X1279992Y512308I-2032J0D01*
G01*
X1268903Y498181D02*
G03*
X1268903Y498181I-2032J0D01*
G01*
X1270172Y500380D02*
G03*
X1270172Y500380I-2032J0D01*
G01*
X1271443Y502580D02*
G03*
X1271443Y502580I-2032J0D01*
G01*
X1272712Y504780D02*
G03*
X1272712Y504780I-2032J0D01*
G01*
X1273983Y506979D02*
G03*
X1273983Y506979I-2032J0D01*
G01*
X1275253Y509179D02*
G03*
X1275253Y509179I-2032J0D01*
G01*
X1276523Y511379D02*
G03*
X1276523Y511379I-2032J0D01*
G01*
X1277793Y513578D02*
G03*
X1277793Y513578I-2032J0D01*
G01*
X1267633Y495980D02*
G03*
X1267633Y495980I-2032J0D01*
G01*
X1266363Y493781D02*
G03*
X1266363Y493781I-2032J0D01*
G01*
X1265092Y491581D02*
G03*
X1265092Y491581I-2032J0D01*
G01*
X1263823Y489381D02*
G03*
X1263823Y489381I-2032J0D01*
G01*
X1262553Y487182D02*
G03*
X1262553Y487182I-2032J0D01*
G01*
X1261282Y484982D02*
G03*
X1261282Y484982I-2032J0D01*
G01*
X1269832Y494711D02*
G03*
X1269832Y494711I-2032J0D01*
G01*
X1268562Y492511D02*
G03*
X1268562Y492511I-2032J0D01*
G01*
X1267292Y490311D02*
G03*
X1267292Y490311I-2032J0D01*
G01*
X1266022Y488112D02*
G03*
X1266022Y488112I-2032J0D01*
G01*
X1264752Y485912D02*
G03*
X1264752Y485912I-2032J0D01*
G01*
X1263482Y483712D02*
G03*
X1263482Y483712I-2032J0D01*
G01*
X1272032Y493441D02*
G03*
X1272032Y493441I-2032J0D01*
G01*
X1270762Y491241D02*
G03*
X1270762Y491241I-2032J0D01*
G01*
X1269492Y489041D02*
G03*
X1269492Y489041I-2032J0D01*
G01*
X1268222Y486842D02*
G03*
X1268222Y486842I-2032J0D01*
G01*
X1266952Y484642D02*
G03*
X1266952Y484642I-2032J0D01*
G01*
X1265682Y482442D02*
G03*
X1265682Y482442I-2032J0D01*
G01*
X1274232Y492171D02*
G03*
X1274232Y492171I-2032J0D01*
G01*
X1272962Y489971D02*
G03*
X1272962Y489971I-2032J0D01*
G01*
X1271692Y487771D02*
G03*
X1271692Y487771I-2032J0D01*
G01*
X1270422Y485572D02*
G03*
X1270422Y485572I-2032J0D01*
G01*
X1269151Y483372D02*
G03*
X1269151Y483372I-2032J0D01*
G01*
X1267882Y481172D02*
G03*
X1267882Y481172I-2032J0D01*
G01*
X1270081Y479902D02*
G03*
X1270081Y479902I-2032J0D01*
G01*
X1271351Y482102D02*
G03*
X1271351Y482102I-2032J0D01*
G01*
X1272621Y484301D02*
G03*
X1272621Y484301I-2032J0D01*
G01*
X1273891Y486501D02*
G03*
X1273891Y486501I-2032J0D01*
G01*
X1275161Y488701D02*
G03*
X1275161Y488701I-2032J0D01*
G01*
X1276431Y490901D02*
G03*
X1276431Y490901I-2032J0D01*
G01*
X1300011Y569524D02*
G03*
X1300011Y569524I-2032J0D01*
G01*
X1300668Y571978D02*
G03*
X1300668Y571978I-2032J0D01*
G01*
X1301325Y574431D02*
G03*
X1301325Y574431I-2032J0D01*
G01*
X1301983Y576884D02*
G03*
X1301983Y576884I-2032J0D01*
G01*
X1302640Y579338D02*
G03*
X1302640Y579338I-2032J0D01*
G01*
X1303298Y581791D02*
G03*
X1303298Y581791I-2032J0D01*
G01*
X1303955Y584245D02*
G03*
X1303955Y584245I-2032J0D01*
G01*
X1304612Y586698D02*
G03*
X1304612Y586698I-2032J0D01*
G01*
X1307066Y586041D02*
G03*
X1307066Y586041I-2032J0D01*
G01*
X1306409Y583587D02*
G03*
X1306409Y583587I-2032J0D01*
G01*
X1305751Y581134D02*
G03*
X1305751Y581134I-2032J0D01*
G01*
X1305094Y578680D02*
G03*
X1305094Y578680I-2032J0D01*
G01*
X1304436Y576227D02*
G03*
X1304436Y576227I-2032J0D01*
G01*
X1303779Y573774D02*
G03*
X1303779Y573774I-2032J0D01*
G01*
X1303121Y571320D02*
G03*
X1303121Y571320I-2032J0D01*
G01*
X1302464Y568867D02*
G03*
X1302464Y568867I-2032J0D01*
G01*
X1309519Y585383D02*
G03*
X1309519Y585383I-2032J0D01*
G01*
X1308862Y582930D02*
G03*
X1308862Y582930I-2032J0D01*
G01*
X1308205Y580476D02*
G03*
X1308205Y580476I-2032J0D01*
G01*
X1307547Y578023D02*
G03*
X1307547Y578023I-2032J0D01*
G01*
X1306890Y575570D02*
G03*
X1306890Y575570I-2032J0D01*
G01*
X1306232Y573116D02*
G03*
X1306232Y573116I-2032J0D01*
G01*
X1305575Y570663D02*
G03*
X1305575Y570663I-2032J0D01*
G01*
X1304918Y568209D02*
G03*
X1304918Y568209I-2032J0D01*
G01*
X1311973Y584726D02*
G03*
X1311973Y584726I-2032J0D01*
G01*
X1311315Y582272D02*
G03*
X1311315Y582272I-2032J0D01*
G01*
X1310658Y579819D02*
G03*
X1310658Y579819I-2032J0D01*
G01*
X1310001Y577365D02*
G03*
X1310001Y577365I-2032J0D01*
G01*
X1309343Y574912D02*
G03*
X1309343Y574912I-2032J0D01*
G01*
X1308686Y572459D02*
G03*
X1308686Y572459I-2032J0D01*
G01*
X1308029Y570005D02*
G03*
X1308029Y570005I-2032J0D01*
G01*
X1307371Y567552D02*
G03*
X1307371Y567552I-2032J0D01*
G01*
X1314426Y584068D02*
G03*
X1314426Y584068I-2032J0D01*
G01*
X1313769Y581615D02*
G03*
X1313769Y581615I-2032J0D01*
G01*
X1313112Y579162D02*
G03*
X1313112Y579162I-2032J0D01*
G01*
X1312454Y576708D02*
G03*
X1312454Y576708I-2032J0D01*
G01*
X1311797Y574255D02*
G03*
X1311797Y574255I-2032J0D01*
G01*
X1311139Y571801D02*
G03*
X1311139Y571801I-2032J0D01*
G01*
X1310482Y569348D02*
G03*
X1310482Y569348I-2032J0D01*
G01*
X1309824Y566894D02*
G03*
X1309824Y566894I-2032J0D01*
G01*
X1315084Y586522D02*
G03*
X1315084Y586522I-2032J0D01*
G01*
X1315741Y588976D02*
G03*
X1315741Y588976I-2032J0D01*
G01*
X1316399Y591429D02*
G03*
X1316399Y591429I-2032J0D01*
G01*
X1317056Y593882D02*
G03*
X1317056Y593882I-2032J0D01*
G01*
X1317713Y596336D02*
G03*
X1317713Y596336I-2032J0D01*
G01*
X1318371Y598789D02*
G03*
X1318371Y598789I-2032J0D01*
G01*
X1312630Y587180D02*
G03*
X1312630Y587180I-2032J0D01*
G01*
X1313288Y589633D02*
G03*
X1313288Y589633I-2032J0D01*
G01*
X1313945Y592086D02*
G03*
X1313945Y592086I-2032J0D01*
G01*
X1314603Y594540D02*
G03*
X1314603Y594540I-2032J0D01*
G01*
X1315260Y596993D02*
G03*
X1315260Y596993I-2032J0D01*
G01*
X1315917Y599447D02*
G03*
X1315917Y599447I-2032J0D01*
G01*
X1310177Y587837D02*
G03*
X1310177Y587837I-2032J0D01*
G01*
X1310834Y590290D02*
G03*
X1310834Y590290I-2032J0D01*
G01*
X1311492Y592744D02*
G03*
X1311492Y592744I-2032J0D01*
G01*
X1312149Y595197D02*
G03*
X1312149Y595197I-2032J0D01*
G01*
X1312806Y597651D02*
G03*
X1312806Y597651I-2032J0D01*
G01*
X1313464Y600104D02*
G03*
X1313464Y600104I-2032J0D01*
G01*
X1307723Y588494D02*
G03*
X1307723Y588494I-2032J0D01*
G01*
X1308381Y590948D02*
G03*
X1308381Y590948I-2032J0D01*
G01*
X1309038Y593401D02*
G03*
X1309038Y593401I-2032J0D01*
G01*
X1309696Y595855D02*
G03*
X1309696Y595855I-2032J0D01*
G01*
X1310353Y598308D02*
G03*
X1310353Y598308I-2032J0D01*
G01*
X1311010Y600761D02*
G03*
X1311010Y600761I-2032J0D01*
G01*
X1308557Y601419D02*
G03*
X1308557Y601419I-2032J0D01*
G01*
X1307900Y598965D02*
G03*
X1307900Y598965I-2032J0D01*
G01*
X1307242Y596512D02*
G03*
X1307242Y596512I-2032J0D01*
G01*
X1306585Y594058D02*
G03*
X1306585Y594058I-2032J0D01*
G01*
X1305927Y591605D02*
G03*
X1305927Y591605I-2032J0D01*
G01*
X1305270Y589151D02*
G03*
X1305270Y589151I-2032J0D01*
G01*
X1324102Y687070D02*
G03*
X1324102Y687070I-2032J0D01*
G01*
X1324102Y684530D02*
G03*
X1324102Y684530I-2032J0D01*
G01*
X1324102Y681990D02*
G03*
X1324102Y681990I-2032J0D01*
G01*
X1324102Y679450D02*
G03*
X1324102Y679450I-2032J0D01*
G01*
X1324102Y676910D02*
G03*
X1324102Y676910I-2032J0D01*
G01*
Y674370D02*
G03*
X1324102Y674370I-2032J0D01*
G01*
X1324102Y671830D02*
G03*
X1324102Y671830I-2032J0D01*
G01*
X1324102Y669290D02*
G03*
X1324102Y669290I-2032J0D01*
G01*
X1321562Y669290D02*
G03*
X1321562Y669290I-2032J0D01*
G01*
X1321562Y671830D02*
G03*
X1321562Y671830I-2032J0D01*
G01*
X1321562Y674370D02*
G03*
X1321562Y674370I-2032J0D01*
G01*
X1321562Y676910D02*
G03*
X1321562Y676910I-2032J0D01*
G01*
Y679450D02*
G03*
X1321562Y679450I-2032J0D01*
G01*
X1321562Y681990D02*
G03*
X1321562Y681990I-2032J0D01*
G01*
X1321562Y684530D02*
G03*
X1321562Y684530I-2032J0D01*
G01*
X1321562Y687070D02*
G03*
X1321562Y687070I-2032J0D01*
G01*
X1319022Y669290D02*
G03*
X1319022Y669290I-2032J0D01*
G01*
X1319022Y671830D02*
G03*
X1319022Y671830I-2032J0D01*
G01*
X1319022Y674370D02*
G03*
X1319022Y674370I-2032J0D01*
G01*
X1319022Y676910D02*
G03*
X1319022Y676910I-2032J0D01*
G01*
Y679450D02*
G03*
X1319022Y679450I-2032J0D01*
G01*
X1319022Y681990D02*
G03*
X1319022Y681990I-2032J0D01*
G01*
X1319022Y684530D02*
G03*
X1319022Y684530I-2032J0D01*
G01*
X1319022Y687070D02*
G03*
X1319022Y687070I-2032J0D01*
G01*
X1316482Y669290D02*
G03*
X1316482Y669290I-2032J0D01*
G01*
X1316482Y671830D02*
G03*
X1316482Y671830I-2032J0D01*
G01*
Y674370D02*
G03*
X1316482Y674370I-2032J0D01*
G01*
X1316482Y676910D02*
G03*
X1316482Y676910I-2032J0D01*
G01*
X1316482Y679450D02*
G03*
X1316482Y679450I-2032J0D01*
G01*
X1316482Y681990D02*
G03*
X1316482Y681990I-2032J0D01*
G01*
X1316482Y684530D02*
G03*
X1316482Y684530I-2032J0D01*
G01*
X1316482Y687070D02*
G03*
X1316482Y687070I-2032J0D01*
G01*
X1313942Y669290D02*
G03*
X1313942Y669290I-2032J0D01*
G01*
X1313942Y671830D02*
G03*
X1313942Y671830I-2032J0D01*
G01*
X1313942Y674370D02*
G03*
X1313942Y674370I-2032J0D01*
G01*
X1313942Y676910D02*
G03*
X1313942Y676910I-2032J0D01*
G01*
X1313942Y679450D02*
G03*
X1313942Y679450I-2032J0D01*
G01*
X1313942Y681990D02*
G03*
X1313942Y681990I-2032J0D01*
G01*
X1313942Y684530D02*
G03*
X1313942Y684530I-2032J0D01*
G01*
X1313942Y687070D02*
G03*
X1313942Y687070I-2032J0D01*
G01*
X1313942Y666750D02*
G03*
X1313942Y666750I-2032J0D01*
G01*
X1313942Y664210D02*
G03*
X1313942Y664210I-2032J0D01*
G01*
X1313942Y661670D02*
G03*
X1313942Y661670I-2032J0D01*
G01*
X1313942Y659130D02*
G03*
X1313942Y659130I-2032J0D01*
G01*
X1313942Y656590D02*
G03*
X1313942Y656590I-2032J0D01*
G01*
X1313942Y654050D02*
G03*
X1313942Y654050I-2032J0D01*
G01*
X1316482Y666750D02*
G03*
X1316482Y666750I-2032J0D01*
G01*
X1316482Y664210D02*
G03*
X1316482Y664210I-2032J0D01*
G01*
X1316482Y661670D02*
G03*
X1316482Y661670I-2032J0D01*
G01*
X1316482Y659130D02*
G03*
X1316482Y659130I-2032J0D01*
G01*
X1316482Y656590D02*
G03*
X1316482Y656590I-2032J0D01*
G01*
X1316482Y654050D02*
G03*
X1316482Y654050I-2032J0D01*
G01*
X1319022Y666750D02*
G03*
X1319022Y666750I-2032J0D01*
G01*
X1319022Y664210D02*
G03*
X1319022Y664210I-2032J0D01*
G01*
Y661670D02*
G03*
X1319022Y661670I-2032J0D01*
G01*
X1319022Y659130D02*
G03*
X1319022Y659130I-2032J0D01*
G01*
X1319022Y656590D02*
G03*
X1319022Y656590I-2032J0D01*
G01*
X1319022Y654050D02*
G03*
X1319022Y654050I-2032J0D01*
G01*
X1321562Y666750D02*
G03*
X1321562Y666750I-2032J0D01*
G01*
X1321562Y664210D02*
G03*
X1321562Y664210I-2032J0D01*
G01*
X1321562Y661670D02*
G03*
X1321562Y661670I-2032J0D01*
G01*
X1321562Y659130D02*
G03*
X1321562Y659130I-2032J0D01*
G01*
X1321562Y656590D02*
G03*
X1321562Y656590I-2032J0D01*
G01*
X1321562Y654050D02*
G03*
X1321562Y654050I-2032J0D01*
G01*
X1324102Y654050D02*
G03*
X1324102Y654050I-2032J0D01*
G01*
X1324102Y656590D02*
G03*
X1324102Y656590I-2032J0D01*
G01*
X1324102Y659130D02*
G03*
X1324102Y659130I-2032J0D01*
G01*
X1324102Y661670D02*
G03*
X1324102Y661670I-2032J0D01*
G01*
X1324102Y664210D02*
G03*
X1324102Y664210I-2032J0D01*
G01*
Y666750D02*
G03*
X1324102Y666750I-2032J0D01*
G01*
X1306629Y745965D02*
G03*
X1306629Y745965I-2032J0D01*
G01*
X1305972Y748418D02*
G03*
X1305972Y748418I-2032J0D01*
G01*
X1305315Y750871D02*
G03*
X1305315Y750871I-2032J0D01*
G01*
X1304657Y753325D02*
G03*
X1304657Y753325I-2032J0D01*
G01*
X1304000Y755778D02*
G03*
X1304000Y755778I-2032J0D01*
G01*
X1303343Y758232D02*
G03*
X1303343Y758232I-2032J0D01*
G01*
X1302685Y760685D02*
G03*
X1302685Y760685I-2032J0D01*
G01*
X1302028Y763139D02*
G03*
X1302028Y763139I-2032J0D01*
G01*
X1304481Y763796D02*
G03*
X1304481Y763796I-2032J0D01*
G01*
X1305139Y761343D02*
G03*
X1305139Y761343I-2032J0D01*
G01*
X1305796Y758889D02*
G03*
X1305796Y758889I-2032J0D01*
G01*
X1306453Y756436D02*
G03*
X1306453Y756436I-2032J0D01*
G01*
X1307111Y753982D02*
G03*
X1307111Y753982I-2032J0D01*
G01*
X1307768Y751529D02*
G03*
X1307768Y751529I-2032J0D01*
G01*
X1308426Y749075D02*
G03*
X1308426Y749075I-2032J0D01*
G01*
X1309083Y746622D02*
G03*
X1309083Y746622I-2032J0D01*
G01*
X1306935Y764454D02*
G03*
X1306935Y764454I-2032J0D01*
G01*
X1307592Y762000D02*
G03*
X1307592Y762000I-2032J0D01*
G01*
X1308249Y759547D02*
G03*
X1308249Y759547I-2032J0D01*
G01*
X1308907Y757093D02*
G03*
X1308907Y757093I-2032J0D01*
G01*
X1309564Y754640D02*
G03*
X1309564Y754640I-2032J0D01*
G01*
X1310222Y752186D02*
G03*
X1310222Y752186I-2032J0D01*
G01*
X1310879Y749733D02*
G03*
X1310879Y749733I-2032J0D01*
G01*
X1311536Y747279D02*
G03*
X1311536Y747279I-2032J0D01*
G01*
X1309388Y765111D02*
G03*
X1309388Y765111I-2032J0D01*
G01*
X1310045Y762657D02*
G03*
X1310045Y762657I-2032J0D01*
G01*
X1310703Y760204D02*
G03*
X1310703Y760204I-2032J0D01*
G01*
X1311360Y757751D02*
G03*
X1311360Y757751I-2032J0D01*
G01*
X1312018Y755297D02*
G03*
X1312018Y755297I-2032J0D01*
G01*
X1312675Y752844D02*
G03*
X1312675Y752844I-2032J0D01*
G01*
X1313332Y750390D02*
G03*
X1313332Y750390I-2032J0D01*
G01*
X1313990Y747937D02*
G03*
X1313990Y747937I-2032J0D01*
G01*
X1311841Y765768D02*
G03*
X1311841Y765768I-2032J0D01*
G01*
X1312499Y763315D02*
G03*
X1312499Y763315I-2032J0D01*
G01*
X1313156Y760861D02*
G03*
X1313156Y760861I-2032J0D01*
G01*
X1313814Y758408D02*
G03*
X1313814Y758408I-2032J0D01*
G01*
X1314471Y755955D02*
G03*
X1314471Y755955I-2032J0D01*
G01*
X1315128Y753501D02*
G03*
X1315128Y753501I-2032J0D01*
G01*
X1315786Y751048D02*
G03*
X1315786Y751048I-2032J0D01*
G01*
X1316443Y748594D02*
G03*
X1316443Y748594I-2032J0D01*
G01*
X1311184Y768222D02*
G03*
X1311184Y768222I-2032J0D01*
G01*
X1310527Y770675D02*
G03*
X1310527Y770675I-2032J0D01*
G01*
X1309869Y773129D02*
G03*
X1309869Y773129I-2032J0D01*
G01*
X1309212Y775582D02*
G03*
X1309212Y775582I-2032J0D01*
G01*
X1308555Y778036D02*
G03*
X1308555Y778036I-2032J0D01*
G01*
X1307897Y780489D02*
G03*
X1307897Y780489I-2032J0D01*
G01*
X1308731Y767564D02*
G03*
X1308731Y767564I-2032J0D01*
G01*
X1308073Y770018D02*
G03*
X1308073Y770018I-2032J0D01*
G01*
X1307416Y772471D02*
G03*
X1307416Y772471I-2032J0D01*
G01*
X1306759Y774925D02*
G03*
X1306759Y774925I-2032J0D01*
G01*
X1306101Y777378D02*
G03*
X1306101Y777378I-2032J0D01*
G01*
X1305444Y779832D02*
G03*
X1305444Y779832I-2032J0D01*
G01*
X1306277Y766907D02*
G03*
X1306277Y766907I-2032J0D01*
G01*
X1305620Y769360D02*
G03*
X1305620Y769360I-2032J0D01*
G01*
X1304962Y771814D02*
G03*
X1304962Y771814I-2032J0D01*
G01*
X1304305Y774267D02*
G03*
X1304305Y774267I-2032J0D01*
G01*
X1303647Y776721D02*
G03*
X1303647Y776721I-2032J0D01*
G01*
X1302990Y779174D02*
G03*
X1302990Y779174I-2032J0D01*
G01*
X1303824Y766249D02*
G03*
X1303824Y766249I-2032J0D01*
G01*
X1303166Y768703D02*
G03*
X1303166Y768703I-2032J0D01*
G01*
X1302509Y771156D02*
G03*
X1302509Y771156I-2032J0D01*
G01*
X1301852Y773610D02*
G03*
X1301852Y773610I-2032J0D01*
G01*
X1301194Y776063D02*
G03*
X1301194Y776063I-2032J0D01*
G01*
X1300537Y778517D02*
G03*
X1300537Y778517I-2032J0D01*
G01*
X1298083Y777859D02*
G03*
X1298083Y777859I-2032J0D01*
G01*
X1298741Y775406D02*
G03*
X1298741Y775406I-2032J0D01*
G01*
X1299398Y772952D02*
G03*
X1299398Y772952I-2032J0D01*
G01*
X1300056Y770499D02*
G03*
X1300056Y770499I-2032J0D01*
G01*
X1300713Y768046D02*
G03*
X1300713Y768046I-2032J0D01*
G01*
X1301370Y765592D02*
G03*
X1301370Y765592I-2032J0D01*
G01*
X1134038Y754019D02*
G03*
X1134038Y754019I-2032J0D01*
G01*
X1135834Y752223D02*
G03*
X1135834Y752223I-2032J0D01*
G01*
X1137630Y750427D02*
G03*
X1137630Y750427I-2032J0D01*
G01*
X1139426Y748631D02*
G03*
X1139426Y748631I-2032J0D01*
G01*
X1141222Y746835D02*
G03*
X1141222Y746835I-2032J0D01*
G01*
X1143018Y745039D02*
G03*
X1143018Y745039I-2032J0D01*
G01*
X1141222Y743243D02*
G03*
X1141222Y743243I-2032J0D01*
G01*
X1139426Y745039D02*
G03*
X1139426Y745039I-2032J0D01*
G01*
X1137630Y746835D02*
G03*
X1137630Y746835I-2032J0D01*
G01*
X1135834Y748631D02*
G03*
X1135834Y748631I-2032J0D01*
G01*
X1134038Y750427D02*
G03*
X1134038Y750427I-2032J0D01*
G01*
X1132242Y752223D02*
G03*
X1132242Y752223I-2032J0D01*
G01*
X1139426Y741447D02*
G03*
X1139426Y741447I-2032J0D01*
G01*
X1137630Y743243D02*
G03*
X1137630Y743243I-2032J0D01*
G01*
X1135834Y745039D02*
G03*
X1135834Y745039I-2032J0D01*
G01*
X1134038Y746835D02*
G03*
X1134038Y746835I-2032J0D01*
G01*
X1132242Y748631D02*
G03*
X1132242Y748631I-2032J0D01*
G01*
X1130446Y750427D02*
G03*
X1130446Y750427I-2032J0D01*
G01*
X1137630Y739651D02*
G03*
X1137630Y739651I-2032J0D01*
G01*
X1135834Y741447D02*
G03*
X1135834Y741447I-2032J0D01*
G01*
X1134038Y743243D02*
G03*
X1134038Y743243I-2032J0D01*
G01*
X1132242Y745039D02*
G03*
X1132242Y745039I-2032J0D01*
G01*
X1130446Y746835D02*
G03*
X1130446Y746835I-2032J0D01*
G01*
X1128650Y748631D02*
G03*
X1128650Y748631I-2032J0D01*
G01*
X1135834Y737855D02*
G03*
X1135834Y737855I-2032J0D01*
G01*
X1134038Y739651D02*
G03*
X1134038Y739651I-2032J0D01*
G01*
X1132242Y741447D02*
G03*
X1132242Y741447I-2032J0D01*
G01*
X1130446Y743243D02*
G03*
X1130446Y743243I-2032J0D01*
G01*
X1128650Y745039D02*
G03*
X1128650Y745039I-2032J0D01*
G01*
X1126854Y746835D02*
G03*
X1126854Y746835I-2032J0D01*
G01*
X1134038Y736059D02*
G03*
X1134038Y736059I-2032J0D01*
G01*
X1132242Y737855D02*
G03*
X1132242Y737855I-2032J0D01*
G01*
X1130446Y739651D02*
G03*
X1130446Y739651I-2032J0D01*
G01*
X1128650Y741447D02*
G03*
X1128650Y741447I-2032J0D01*
G01*
X1126854Y743243D02*
G03*
X1126854Y743243I-2032J0D01*
G01*
X1125058Y745039D02*
G03*
X1125058Y745039I-2032J0D01*
G01*
X1132242Y734262D02*
G03*
X1132242Y734262I-2032J0D01*
G01*
X1130446Y736059D02*
G03*
X1130446Y736059I-2032J0D01*
G01*
X1128650Y737855D02*
G03*
X1128650Y737855I-2032J0D01*
G01*
X1126854Y739651D02*
G03*
X1126854Y739651I-2032J0D01*
G01*
X1125058Y741447D02*
G03*
X1125058Y741447I-2032J0D01*
G01*
X1123261Y743243D02*
G03*
X1123261Y743243I-2032J0D01*
G01*
X1130446Y732466D02*
G03*
X1130446Y732466I-2032J0D01*
G01*
X1128650Y734262D02*
G03*
X1128650Y734262I-2032J0D01*
G01*
X1126854Y736059D02*
G03*
X1126854Y736059I-2032J0D01*
G01*
X1125058Y737855D02*
G03*
X1125058Y737855I-2032J0D01*
G01*
X1123261Y739651D02*
G03*
X1123261Y739651I-2032J0D01*
G01*
X1121465Y741447D02*
G03*
X1121465Y741447I-2032J0D01*
G01*
X1128650Y730670D02*
G03*
X1128650Y730670I-2032J0D01*
G01*
X1126854Y732466D02*
G03*
X1126854Y732466I-2032J0D01*
G01*
X1125058Y734262D02*
G03*
X1125058Y734262I-2032J0D01*
G01*
X1123261Y736059D02*
G03*
X1123261Y736059I-2032J0D01*
G01*
X1121465Y737855D02*
G03*
X1121465Y737855I-2032J0D01*
G01*
X1119669Y739651D02*
G03*
X1119669Y739651I-2032J0D01*
G01*
X1126854Y728874D02*
G03*
X1126854Y728874I-2032J0D01*
G01*
X1125058Y730670D02*
G03*
X1125058Y730670I-2032J0D01*
G01*
X1123261Y732466D02*
G03*
X1123261Y732466I-2032J0D01*
G01*
X1121465Y734262D02*
G03*
X1121465Y734262I-2032J0D01*
G01*
X1119669Y736059D02*
G03*
X1119669Y736059I-2032J0D01*
G01*
X1117873Y737855D02*
G03*
X1117873Y737855I-2032J0D01*
G01*
X1125058Y727078D02*
G03*
X1125058Y727078I-2032J0D01*
G01*
X1123261Y728874D02*
G03*
X1123261Y728874I-2032J0D01*
G01*
X1121465Y730670D02*
G03*
X1121465Y730670I-2032J0D01*
G01*
X1119669Y732466D02*
G03*
X1119669Y732466I-2032J0D01*
G01*
X1117873Y734262D02*
G03*
X1117873Y734262I-2032J0D01*
G01*
X1116077Y736059D02*
G03*
X1116077Y736059I-2032J0D01*
G01*
X1123261Y725282D02*
G03*
X1123261Y725282I-2032J0D01*
G01*
X1121465Y727078D02*
G03*
X1121465Y727078I-2032J0D01*
G01*
X1119669Y728874D02*
G03*
X1119669Y728874I-2032J0D01*
G01*
X1117873Y730670D02*
G03*
X1117873Y730670I-2032J0D01*
G01*
X1116077Y732466D02*
G03*
X1116077Y732466I-2032J0D01*
G01*
X1114281Y734262D02*
G03*
X1114281Y734262I-2032J0D01*
G01*
X1119669Y768387D02*
G03*
X1119669Y768387I-2032J0D01*
G01*
X1121465Y766591D02*
G03*
X1121465Y766591I-2032J0D01*
G01*
X1123261Y764795D02*
G03*
X1123261Y764795I-2032J0D01*
G01*
X1125058Y762999D02*
G03*
X1125058Y762999I-2032J0D01*
G01*
X1126854Y761203D02*
G03*
X1126854Y761203I-2032J0D01*
G01*
X1128650Y759407D02*
G03*
X1128650Y759407I-2032J0D01*
G01*
X1130446Y757611D02*
G03*
X1130446Y757611I-2032J0D01*
G01*
X1132242Y755815D02*
G03*
X1132242Y755815I-2032J0D01*
G01*
X1130446Y754019D02*
G03*
X1130446Y754019I-2032J0D01*
G01*
X1128650Y755815D02*
G03*
X1128650Y755815I-2032J0D01*
G01*
X1126854Y757611D02*
G03*
X1126854Y757611I-2032J0D01*
G01*
X1125058Y759407D02*
G03*
X1125058Y759407I-2032J0D01*
G01*
X1123261Y761203D02*
G03*
X1123261Y761203I-2032J0D01*
G01*
X1121465Y762999D02*
G03*
X1121465Y762999I-2032J0D01*
G01*
X1119669Y764795D02*
G03*
X1119669Y764795I-2032J0D01*
G01*
X1117873Y766591D02*
G03*
X1117873Y766591I-2032J0D01*
G01*
X1128650Y752223D02*
G03*
X1128650Y752223I-2032J0D01*
G01*
X1126854Y754019D02*
G03*
X1126854Y754019I-2032J0D01*
G01*
X1125058Y755815D02*
G03*
X1125058Y755815I-2032J0D01*
G01*
X1123261Y757611D02*
G03*
X1123261Y757611I-2032J0D01*
G01*
X1121465Y759407D02*
G03*
X1121465Y759407I-2032J0D01*
G01*
X1119669Y761203D02*
G03*
X1119669Y761203I-2032J0D01*
G01*
X1117873Y762999D02*
G03*
X1117873Y762999I-2032J0D01*
G01*
X1116077Y764795D02*
G03*
X1116077Y764795I-2032J0D01*
G01*
X1126854Y750427D02*
G03*
X1126854Y750427I-2032J0D01*
G01*
X1125058Y752223D02*
G03*
X1125058Y752223I-2032J0D01*
G01*
X1123261Y754019D02*
G03*
X1123261Y754019I-2032J0D01*
G01*
X1121465Y755815D02*
G03*
X1121465Y755815I-2032J0D01*
G01*
X1119669Y757611D02*
G03*
X1119669Y757611I-2032J0D01*
G01*
X1117873Y759407D02*
G03*
X1117873Y759407I-2032J0D01*
G01*
X1116077Y761203D02*
G03*
X1116077Y761203I-2032J0D01*
G01*
X1114281Y762999D02*
G03*
X1114281Y762999I-2032J0D01*
G01*
X1125058Y748631D02*
G03*
X1125058Y748631I-2032J0D01*
G01*
X1123261Y750427D02*
G03*
X1123261Y750427I-2032J0D01*
G01*
X1121465Y752223D02*
G03*
X1121465Y752223I-2032J0D01*
G01*
X1119669Y754019D02*
G03*
X1119669Y754019I-2032J0D01*
G01*
X1117873Y755815D02*
G03*
X1117873Y755815I-2032J0D01*
G01*
X1116077Y757611D02*
G03*
X1116077Y757611I-2032J0D01*
G01*
X1114281Y759407D02*
G03*
X1114281Y759407I-2032J0D01*
G01*
X1112485Y761203D02*
G03*
X1112485Y761203I-2032J0D01*
G01*
X1123261Y746835D02*
G03*
X1123261Y746835I-2032J0D01*
G01*
X1121465Y748631D02*
G03*
X1121465Y748631I-2032J0D01*
G01*
X1119669Y750427D02*
G03*
X1119669Y750427I-2032J0D01*
G01*
X1117873Y752223D02*
G03*
X1117873Y752223I-2032J0D01*
G01*
X1116077Y754019D02*
G03*
X1116077Y754019I-2032J0D01*
G01*
X1114281Y755815D02*
G03*
X1114281Y755815I-2032J0D01*
G01*
X1112485Y757611D02*
G03*
X1112485Y757611I-2032J0D01*
G01*
X1110689Y759407D02*
G03*
X1110689Y759407I-2032J0D01*
G01*
X1121465Y745039D02*
G03*
X1121465Y745039I-2032J0D01*
G01*
X1119669Y746835D02*
G03*
X1119669Y746835I-2032J0D01*
G01*
X1117873Y748631D02*
G03*
X1117873Y748631I-2032J0D01*
G01*
X1116077Y750427D02*
G03*
X1116077Y750427I-2032J0D01*
G01*
X1114281Y752223D02*
G03*
X1114281Y752223I-2032J0D01*
G01*
X1112485Y754019D02*
G03*
X1112485Y754019I-2032J0D01*
G01*
X1110689Y755815D02*
G03*
X1110689Y755815I-2032J0D01*
G01*
X1108893Y757611D02*
G03*
X1108893Y757611I-2032J0D01*
G01*
X1119669Y743243D02*
G03*
X1119669Y743243I-2032J0D01*
G01*
X1117873Y745039D02*
G03*
X1117873Y745039I-2032J0D01*
G01*
X1116077Y746835D02*
G03*
X1116077Y746835I-2032J0D01*
G01*
X1114281Y748631D02*
G03*
X1114281Y748631I-2032J0D01*
G01*
X1112485Y750427D02*
G03*
X1112485Y750427I-2032J0D01*
G01*
X1110689Y752223D02*
G03*
X1110689Y752223I-2032J0D01*
G01*
X1108893Y754019D02*
G03*
X1108893Y754019I-2032J0D01*
G01*
X1107097Y755815D02*
G03*
X1107097Y755815I-2032J0D01*
G01*
X1117873Y741447D02*
G03*
X1117873Y741447I-2032J0D01*
G01*
X1116077Y743243D02*
G03*
X1116077Y743243I-2032J0D01*
G01*
X1114281Y745039D02*
G03*
X1114281Y745039I-2032J0D01*
G01*
X1112485Y746835D02*
G03*
X1112485Y746835I-2032J0D01*
G01*
X1110689Y748631D02*
G03*
X1110689Y748631I-2032J0D01*
G01*
X1108893Y750427D02*
G03*
X1108893Y750427I-2032J0D01*
G01*
X1107097Y752223D02*
G03*
X1107097Y752223I-2032J0D01*
G01*
X1105301Y754019D02*
G03*
X1105301Y754019I-2032J0D01*
G01*
X1116077Y739651D02*
G03*
X1116077Y739651I-2032J0D01*
G01*
X1114281Y741447D02*
G03*
X1114281Y741447I-2032J0D01*
G01*
X1112485Y743243D02*
G03*
X1112485Y743243I-2032J0D01*
G01*
X1110689Y745039D02*
G03*
X1110689Y745039I-2032J0D01*
G01*
X1108893Y746835D02*
G03*
X1108893Y746835I-2032J0D01*
G01*
X1107097Y748631D02*
G03*
X1107097Y748631I-2032J0D01*
G01*
X1105301Y750427D02*
G03*
X1105301Y750427I-2032J0D01*
G01*
X1103505Y752223D02*
G03*
X1103505Y752223I-2032J0D01*
G01*
X1114281Y737855D02*
G03*
X1114281Y737855I-2032J0D01*
G01*
X1112485Y739651D02*
G03*
X1112485Y739651I-2032J0D01*
G01*
X1110689Y741447D02*
G03*
X1110689Y741447I-2032J0D01*
G01*
X1108893Y743243D02*
G03*
X1108893Y743243I-2032J0D01*
G01*
X1107097Y745039D02*
G03*
X1107097Y745039I-2032J0D01*
G01*
X1105301Y746835D02*
G03*
X1105301Y746835I-2032J0D01*
G01*
X1103505Y748631D02*
G03*
X1103505Y748631I-2032J0D01*
G01*
X1101709Y750427D02*
G03*
X1101709Y750427I-2032J0D01*
G01*
X1112485Y736059D02*
G03*
X1112485Y736059I-2032J0D01*
G01*
X1110689Y737855D02*
G03*
X1110689Y737855I-2032J0D01*
G01*
X1108893Y739651D02*
G03*
X1108893Y739651I-2032J0D01*
G01*
X1107097Y741447D02*
G03*
X1107097Y741447I-2032J0D01*
G01*
X1105301Y743243D02*
G03*
X1105301Y743243I-2032J0D01*
G01*
X1103505Y745039D02*
G03*
X1103505Y745039I-2032J0D01*
G01*
X1101709Y746835D02*
G03*
X1101709Y746835I-2032J0D01*
G01*
X1099913Y748631D02*
G03*
X1099913Y748631I-2032J0D01*
G01*
X1155590Y775572D02*
G03*
X1155590Y775572I-2032J0D01*
G01*
X1157386Y773775D02*
G03*
X1157386Y773775I-2032J0D01*
G01*
X1159183Y771980D02*
G03*
X1159183Y771980I-2032J0D01*
G01*
X1160979Y770183D02*
G03*
X1160979Y770183I-2032J0D01*
G01*
X1162775Y768387D02*
G03*
X1162775Y768387I-2032J0D01*
G01*
X1164571Y766591D02*
G03*
X1164571Y766591I-2032J0D01*
G01*
X1162775Y764795D02*
G03*
X1162775Y764795I-2032J0D01*
G01*
X1160979Y766591D02*
G03*
X1160979Y766591I-2032J0D01*
G01*
X1159183Y768387D02*
G03*
X1159183Y768387I-2032J0D01*
G01*
X1157386Y770183D02*
G03*
X1157386Y770183I-2032J0D01*
G01*
X1155590Y771980D02*
G03*
X1155590Y771980I-2032J0D01*
G01*
X1153794Y773775D02*
G03*
X1153794Y773775I-2032J0D01*
G01*
X1160979Y762999D02*
G03*
X1160979Y762999I-2032J0D01*
G01*
X1159183Y764795D02*
G03*
X1159183Y764795I-2032J0D01*
G01*
X1157386Y766591D02*
G03*
X1157386Y766591I-2032J0D01*
G01*
X1155590Y768387D02*
G03*
X1155590Y768387I-2032J0D01*
G01*
X1153794Y770183D02*
G03*
X1153794Y770183I-2032J0D01*
G01*
X1151998Y771980D02*
G03*
X1151998Y771980I-2032J0D01*
G01*
X1159183Y761203D02*
G03*
X1159183Y761203I-2032J0D01*
G01*
X1157386Y762999D02*
G03*
X1157386Y762999I-2032J0D01*
G01*
X1155590Y764795D02*
G03*
X1155590Y764795I-2032J0D01*
G01*
X1153794Y766591D02*
G03*
X1153794Y766591I-2032J0D01*
G01*
X1151998Y768387D02*
G03*
X1151998Y768387I-2032J0D01*
G01*
X1150202Y770183D02*
G03*
X1150202Y770183I-2032J0D01*
G01*
X1157386Y759407D02*
G03*
X1157386Y759407I-2032J0D01*
G01*
X1155590Y761203D02*
G03*
X1155590Y761203I-2032J0D01*
G01*
X1153794Y762999D02*
G03*
X1153794Y762999I-2032J0D01*
G01*
X1151998Y764795D02*
G03*
X1151998Y764795I-2032J0D01*
G01*
X1150202Y766591D02*
G03*
X1150202Y766591I-2032J0D01*
G01*
X1148406Y768387D02*
G03*
X1148406Y768387I-2032J0D01*
G01*
X1155590Y757611D02*
G03*
X1155590Y757611I-2032J0D01*
G01*
X1153794Y759407D02*
G03*
X1153794Y759407I-2032J0D01*
G01*
X1151998Y761203D02*
G03*
X1151998Y761203I-2032J0D01*
G01*
X1150202Y762999D02*
G03*
X1150202Y762999I-2032J0D01*
G01*
X1148406Y764795D02*
G03*
X1148406Y764795I-2032J0D01*
G01*
X1146610Y766591D02*
G03*
X1146610Y766591I-2032J0D01*
G01*
X1153794Y755815D02*
G03*
X1153794Y755815I-2032J0D01*
G01*
X1151998Y757611D02*
G03*
X1151998Y757611I-2032J0D01*
G01*
X1150202Y759407D02*
G03*
X1150202Y759407I-2032J0D01*
G01*
X1148406Y761203D02*
G03*
X1148406Y761203I-2032J0D01*
G01*
X1146610Y762999D02*
G03*
X1146610Y762999I-2032J0D01*
G01*
X1144814Y764795D02*
G03*
X1144814Y764795I-2032J0D01*
G01*
X1151998Y754019D02*
G03*
X1151998Y754019I-2032J0D01*
G01*
X1150202Y755815D02*
G03*
X1150202Y755815I-2032J0D01*
G01*
X1148406Y757611D02*
G03*
X1148406Y757611I-2032J0D01*
G01*
X1146610Y759407D02*
G03*
X1146610Y759407I-2032J0D01*
G01*
X1144814Y761203D02*
G03*
X1144814Y761203I-2032J0D01*
G01*
X1143018Y762999D02*
G03*
X1143018Y762999I-2032J0D01*
G01*
X1150202Y752223D02*
G03*
X1150202Y752223I-2032J0D01*
G01*
X1148406Y754019D02*
G03*
X1148406Y754019I-2032J0D01*
G01*
X1146610Y755815D02*
G03*
X1146610Y755815I-2032J0D01*
G01*
X1144814Y757611D02*
G03*
X1144814Y757611I-2032J0D01*
G01*
X1143018Y759407D02*
G03*
X1143018Y759407I-2032J0D01*
G01*
X1141222Y761203D02*
G03*
X1141222Y761203I-2032J0D01*
G01*
X1148406Y750427D02*
G03*
X1148406Y750427I-2032J0D01*
G01*
X1146610Y752223D02*
G03*
X1146610Y752223I-2032J0D01*
G01*
X1144814Y754019D02*
G03*
X1144814Y754019I-2032J0D01*
G01*
X1143018Y755815D02*
G03*
X1143018Y755815I-2032J0D01*
G01*
X1141222Y757611D02*
G03*
X1141222Y757611I-2032J0D01*
G01*
X1139426Y759407D02*
G03*
X1139426Y759407I-2032J0D01*
G01*
X1146610Y748631D02*
G03*
X1146610Y748631I-2032J0D01*
G01*
X1144814Y750427D02*
G03*
X1144814Y750427I-2032J0D01*
G01*
X1143018Y752223D02*
G03*
X1143018Y752223I-2032J0D01*
G01*
X1141222Y754019D02*
G03*
X1141222Y754019I-2032J0D01*
G01*
X1139426Y755815D02*
G03*
X1139426Y755815I-2032J0D01*
G01*
X1137630Y757611D02*
G03*
X1137630Y757611I-2032J0D01*
G01*
X1144814Y746835D02*
G03*
X1144814Y746835I-2032J0D01*
G01*
X1143018Y748631D02*
G03*
X1143018Y748631I-2032J0D01*
G01*
X1141222Y750427D02*
G03*
X1141222Y750427I-2032J0D01*
G01*
X1139426Y752223D02*
G03*
X1139426Y752223I-2032J0D01*
G01*
X1137630Y754019D02*
G03*
X1137630Y754019I-2032J0D01*
G01*
X1135834Y755815D02*
G03*
X1135834Y755815I-2032J0D01*
G01*
X1121465Y770183D02*
G03*
X1121465Y770183I-2032J0D01*
G01*
X1123261Y768387D02*
G03*
X1123261Y768387I-2032J0D01*
G01*
X1125058Y766591D02*
G03*
X1125058Y766591I-2032J0D01*
G01*
X1126854Y764795D02*
G03*
X1126854Y764795I-2032J0D01*
G01*
X1128650Y762999D02*
G03*
X1128650Y762999I-2032J0D01*
G01*
X1130446Y761203D02*
G03*
X1130446Y761203I-2032J0D01*
G01*
X1132242Y759407D02*
G03*
X1132242Y759407I-2032J0D01*
G01*
X1134038Y757611D02*
G03*
X1134038Y757611I-2032J0D01*
G01*
X1123261Y771980D02*
G03*
X1123261Y771980I-2032J0D01*
G01*
X1125058Y770183D02*
G03*
X1125058Y770183I-2032J0D01*
G01*
X1126854Y768387D02*
G03*
X1126854Y768387I-2032J0D01*
G01*
X1128650Y766591D02*
G03*
X1128650Y766591I-2032J0D01*
G01*
X1130446Y764795D02*
G03*
X1130446Y764795I-2032J0D01*
G01*
X1132242Y762999D02*
G03*
X1132242Y762999I-2032J0D01*
G01*
X1134038Y761203D02*
G03*
X1134038Y761203I-2032J0D01*
G01*
X1135834Y759407D02*
G03*
X1135834Y759407I-2032J0D01*
G01*
X1125058Y773775D02*
G03*
X1125058Y773775I-2032J0D01*
G01*
X1126854Y771980D02*
G03*
X1126854Y771980I-2032J0D01*
G01*
X1128650Y770183D02*
G03*
X1128650Y770183I-2032J0D01*
G01*
X1130446Y768387D02*
G03*
X1130446Y768387I-2032J0D01*
G01*
X1132242Y766591D02*
G03*
X1132242Y766591I-2032J0D01*
G01*
X1134038Y764795D02*
G03*
X1134038Y764795I-2032J0D01*
G01*
X1135834Y762999D02*
G03*
X1135834Y762999I-2032J0D01*
G01*
X1137630Y761203D02*
G03*
X1137630Y761203I-2032J0D01*
G01*
X1126854Y775572D02*
G03*
X1126854Y775572I-2032J0D01*
G01*
X1128650Y773775D02*
G03*
X1128650Y773775I-2032J0D01*
G01*
X1130446Y771980D02*
G03*
X1130446Y771980I-2032J0D01*
G01*
X1132242Y770183D02*
G03*
X1132242Y770183I-2032J0D01*
G01*
X1134038Y768387D02*
G03*
X1134038Y768387I-2032J0D01*
G01*
X1135834Y766591D02*
G03*
X1135834Y766591I-2032J0D01*
G01*
X1137630Y764795D02*
G03*
X1137630Y764795I-2032J0D01*
G01*
X1139426Y762999D02*
G03*
X1139426Y762999I-2032J0D01*
G01*
X1128650Y777368D02*
G03*
X1128650Y777368I-2032J0D01*
G01*
X1130446Y775572D02*
G03*
X1130446Y775572I-2032J0D01*
G01*
X1132242Y773775D02*
G03*
X1132242Y773775I-2032J0D01*
G01*
X1134038Y771980D02*
G03*
X1134038Y771980I-2032J0D01*
G01*
X1135834Y770183D02*
G03*
X1135834Y770183I-2032J0D01*
G01*
X1137630Y768387D02*
G03*
X1137630Y768387I-2032J0D01*
G01*
X1139426Y766591D02*
G03*
X1139426Y766591I-2032J0D01*
G01*
X1141222Y764795D02*
G03*
X1141222Y764795I-2032J0D01*
G01*
X1130446Y779164D02*
G03*
X1130446Y779164I-2032J0D01*
G01*
X1132242Y777368D02*
G03*
X1132242Y777368I-2032J0D01*
G01*
X1134038Y775572D02*
G03*
X1134038Y775572I-2032J0D01*
G01*
X1135834Y773775D02*
G03*
X1135834Y773775I-2032J0D01*
G01*
X1137630Y771980D02*
G03*
X1137630Y771980I-2032J0D01*
G01*
X1139426Y770183D02*
G03*
X1139426Y770183I-2032J0D01*
G01*
X1141222Y768387D02*
G03*
X1141222Y768387I-2032J0D01*
G01*
X1143018Y766591D02*
G03*
X1143018Y766591I-2032J0D01*
G01*
X1132242Y780960D02*
G03*
X1132242Y780960I-2032J0D01*
G01*
X1134038Y779164D02*
G03*
X1134038Y779164I-2032J0D01*
G01*
X1135834Y777368D02*
G03*
X1135834Y777368I-2032J0D01*
G01*
X1137630Y775572D02*
G03*
X1137630Y775572I-2032J0D01*
G01*
X1139426Y773775D02*
G03*
X1139426Y773775I-2032J0D01*
G01*
X1141222Y771980D02*
G03*
X1141222Y771980I-2032J0D01*
G01*
X1143018Y770183D02*
G03*
X1143018Y770183I-2032J0D01*
G01*
X1144814Y768387D02*
G03*
X1144814Y768387I-2032J0D01*
G01*
X1134038Y782756D02*
G03*
X1134038Y782756I-2032J0D01*
G01*
X1135834Y780960D02*
G03*
X1135834Y780960I-2032J0D01*
G01*
X1137630Y779164D02*
G03*
X1137630Y779164I-2032J0D01*
G01*
X1139426Y777368D02*
G03*
X1139426Y777368I-2032J0D01*
G01*
X1141222Y775572D02*
G03*
X1141222Y775572I-2032J0D01*
G01*
X1143018Y773775D02*
G03*
X1143018Y773775I-2032J0D01*
G01*
X1144814Y771980D02*
G03*
X1144814Y771980I-2032J0D01*
G01*
X1146610Y770183D02*
G03*
X1146610Y770183I-2032J0D01*
G01*
X1135834Y784552D02*
G03*
X1135834Y784552I-2032J0D01*
G01*
X1137630Y782756D02*
G03*
X1137630Y782756I-2032J0D01*
G01*
X1139426Y780960D02*
G03*
X1139426Y780960I-2032J0D01*
G01*
X1141222Y779164D02*
G03*
X1141222Y779164I-2032J0D01*
G01*
X1143018Y777368D02*
G03*
X1143018Y777368I-2032J0D01*
G01*
X1144814Y775572D02*
G03*
X1144814Y775572I-2032J0D01*
G01*
X1146610Y773775D02*
G03*
X1146610Y773775I-2032J0D01*
G01*
X1148406Y771980D02*
G03*
X1148406Y771980I-2032J0D01*
G01*
X1137630Y786348D02*
G03*
X1137630Y786348I-2032J0D01*
G01*
X1139426Y784552D02*
G03*
X1139426Y784552I-2032J0D01*
G01*
X1141222Y782756D02*
G03*
X1141222Y782756I-2032J0D01*
G01*
X1143018Y780960D02*
G03*
X1143018Y780960I-2032J0D01*
G01*
X1144814Y779164D02*
G03*
X1144814Y779164I-2032J0D01*
G01*
X1146610Y777368D02*
G03*
X1146610Y777368I-2032J0D01*
G01*
X1148406Y775572D02*
G03*
X1148406Y775572I-2032J0D01*
G01*
X1150202Y773775D02*
G03*
X1150202Y773775I-2032J0D01*
G01*
X1139426Y788144D02*
G03*
X1139426Y788144I-2032J0D01*
G01*
X1141222Y786348D02*
G03*
X1141222Y786348I-2032J0D01*
G01*
X1143018Y784552D02*
G03*
X1143018Y784552I-2032J0D01*
G01*
X1144814Y782756D02*
G03*
X1144814Y782756I-2032J0D01*
G01*
X1146610Y780960D02*
G03*
X1146610Y780960I-2032J0D01*
G01*
X1148406Y779164D02*
G03*
X1148406Y779164I-2032J0D01*
G01*
X1150202Y777368D02*
G03*
X1150202Y777368I-2032J0D01*
G01*
X1151998Y775572D02*
G03*
X1151998Y775572I-2032J0D01*
G01*
X1153794Y777368D02*
G03*
X1153794Y777368I-2032J0D01*
G01*
X1151998Y779164D02*
G03*
X1151998Y779164I-2032J0D01*
G01*
X1150202Y780960D02*
G03*
X1150202Y780960I-2032J0D01*
G01*
X1148406Y782756D02*
G03*
X1148406Y782756I-2032J0D01*
G01*
X1146610Y784552D02*
G03*
X1146610Y784552I-2032J0D01*
G01*
X1144814Y786348D02*
G03*
X1144814Y786348I-2032J0D01*
G01*
X1143018Y788144D02*
G03*
X1143018Y788144I-2032J0D01*
G01*
X1141222Y789940D02*
G03*
X1141222Y789940I-2032J0D01*
G01*
X1100366Y551600D02*
G03*
X1100366Y551600I-2032J0D01*
G01*
X1102312Y549967D02*
G03*
X1102312Y549967I-2032J0D01*
G01*
X1104257Y548334D02*
G03*
X1104257Y548334I-2032J0D01*
G01*
X1106203Y546702D02*
G03*
X1106203Y546702I-2032J0D01*
G01*
X1108149Y545069D02*
G03*
X1108149Y545069I-2032J0D01*
G01*
X1110095Y543436D02*
G03*
X1110095Y543436I-2032J0D01*
G01*
X1108462Y541490D02*
G03*
X1108462Y541490I-2032J0D01*
G01*
X1106516Y543123D02*
G03*
X1106516Y543123I-2032J0D01*
G01*
X1104570Y544756D02*
G03*
X1104570Y544756I-2032J0D01*
G01*
X1102625Y546388D02*
G03*
X1102625Y546388I-2032J0D01*
G01*
X1100679Y548021D02*
G03*
X1100679Y548021I-2032J0D01*
G01*
X1098733Y549654D02*
G03*
X1098733Y549654I-2032J0D01*
G01*
X1106829Y539545D02*
G03*
X1106829Y539545I-2032J0D01*
G01*
X1104883Y541177D02*
G03*
X1104883Y541177I-2032J0D01*
G01*
X1102938Y542810D02*
G03*
X1102938Y542810I-2032J0D01*
G01*
X1100992Y544443D02*
G03*
X1100992Y544443I-2032J0D01*
G01*
X1099046Y546075D02*
G03*
X1099046Y546075I-2032J0D01*
G01*
X1097101Y547708D02*
G03*
X1097101Y547708I-2032J0D01*
G01*
X1105197Y537599D02*
G03*
X1105197Y537599I-2032J0D01*
G01*
X1103251Y539232D02*
G03*
X1103251Y539232I-2032J0D01*
G01*
X1101305Y540864D02*
G03*
X1101305Y540864I-2032J0D01*
G01*
X1099359Y542497D02*
G03*
X1099359Y542497I-2032J0D01*
G01*
X1097414Y544130D02*
G03*
X1097414Y544130I-2032J0D01*
G01*
X1095468Y545762D02*
G03*
X1095468Y545762I-2032J0D01*
G01*
X1103564Y535653D02*
G03*
X1103564Y535653I-2032J0D01*
G01*
X1101618Y537286D02*
G03*
X1101618Y537286I-2032J0D01*
G01*
X1099672Y538918D02*
G03*
X1099672Y538918I-2032J0D01*
G01*
X1097727Y540551D02*
G03*
X1097727Y540551I-2032J0D01*
G01*
X1095781Y542184D02*
G03*
X1095781Y542184I-2032J0D01*
G01*
X1093835Y543816D02*
G03*
X1093835Y543816I-2032J0D01*
G01*
X1101931Y533707D02*
G03*
X1101931Y533707I-2032J0D01*
G01*
X1099986Y535340D02*
G03*
X1099986Y535340I-2032J0D01*
G01*
X1098040Y536973D02*
G03*
X1098040Y536973I-2032J0D01*
G01*
X1096094Y538605D02*
G03*
X1096094Y538605I-2032J0D01*
G01*
X1094148Y540238D02*
G03*
X1094148Y540238I-2032J0D01*
G01*
X1092203Y541871D02*
G03*
X1092203Y541871I-2032J0D01*
G01*
X1100298Y531762D02*
G03*
X1100298Y531762I-2032J0D01*
G01*
X1098353Y533394D02*
G03*
X1098353Y533394I-2032J0D01*
G01*
X1096407Y535027D02*
G03*
X1096407Y535027I-2032J0D01*
G01*
X1094461Y536660D02*
G03*
X1094461Y536660I-2032J0D01*
G01*
X1092515Y538292D02*
G03*
X1092515Y538292I-2032J0D01*
G01*
X1090570Y539925D02*
G03*
X1090570Y539925I-2032J0D01*
G01*
X1098666Y529816D02*
G03*
X1098666Y529816I-2032J0D01*
G01*
X1096720Y531449D02*
G03*
X1096720Y531449I-2032J0D01*
G01*
X1094774Y533081D02*
G03*
X1094774Y533081I-2032J0D01*
G01*
X1092829Y534714D02*
G03*
X1092829Y534714I-2032J0D01*
G01*
X1090883Y536347D02*
G03*
X1090883Y536347I-2032J0D01*
G01*
X1088937Y537979D02*
G03*
X1088937Y537979I-2032J0D01*
G01*
X1097033Y527870D02*
G03*
X1097033Y527870I-2032J0D01*
G01*
X1095087Y529503D02*
G03*
X1095087Y529503I-2032J0D01*
G01*
X1093142Y531135D02*
G03*
X1093142Y531135I-2032J0D01*
G01*
X1091196Y532768D02*
G03*
X1091196Y532768I-2032J0D01*
G01*
X1089250Y534401D02*
G03*
X1089250Y534401I-2032J0D01*
G01*
X1087304Y536034D02*
G03*
X1087304Y536034I-2032J0D01*
G01*
X1095400Y525924D02*
G03*
X1095400Y525924I-2032J0D01*
G01*
X1093455Y527557D02*
G03*
X1093455Y527557I-2032J0D01*
G01*
X1091509Y529190D02*
G03*
X1091509Y529190I-2032J0D01*
G01*
X1089563Y530822D02*
G03*
X1089563Y530822I-2032J0D01*
G01*
X1087617Y532455D02*
G03*
X1087617Y532455I-2032J0D01*
G01*
X1085672Y534088D02*
G03*
X1085672Y534088I-2032J0D01*
G01*
X1093768Y523979D02*
G03*
X1093768Y523979I-2032J0D01*
G01*
X1091822Y525611D02*
G03*
X1091822Y525611I-2032J0D01*
G01*
X1089876Y527244D02*
G03*
X1089876Y527244I-2032J0D01*
G01*
X1087931Y528877D02*
G03*
X1087931Y528877I-2032J0D01*
G01*
X1085985Y530509D02*
G03*
X1085985Y530509I-2032J0D01*
G01*
X1084039Y532142D02*
G03*
X1084039Y532142I-2032J0D01*
G01*
X1092135Y522033D02*
G03*
X1092135Y522033I-2032J0D01*
G01*
X1090189Y523666D02*
G03*
X1090189Y523666I-2032J0D01*
G01*
X1088244Y525298D02*
G03*
X1088244Y525298I-2032J0D01*
G01*
X1086298Y526931D02*
G03*
X1086298Y526931I-2032J0D01*
G01*
X1084352Y528564D02*
G03*
X1084352Y528564I-2032J0D01*
G01*
X1082406Y530196D02*
G03*
X1082406Y530196I-2032J0D01*
G01*
X1084800Y564661D02*
G03*
X1084800Y564661I-2032J0D01*
G01*
X1086746Y563028D02*
G03*
X1086746Y563028I-2032J0D01*
G01*
X1088691Y561396D02*
G03*
X1088691Y561396I-2032J0D01*
G01*
X1090637Y559763D02*
G03*
X1090637Y559763I-2032J0D01*
G01*
X1092583Y558130D02*
G03*
X1092583Y558130I-2032J0D01*
G01*
X1094529Y556497D02*
G03*
X1094529Y556497I-2032J0D01*
G01*
X1096474Y554865D02*
G03*
X1096474Y554865I-2032J0D01*
G01*
X1098420Y553232D02*
G03*
X1098420Y553232I-2032J0D01*
G01*
X1096787Y551286D02*
G03*
X1096787Y551286I-2032J0D01*
G01*
X1094842Y552919D02*
G03*
X1094842Y552919I-2032J0D01*
G01*
X1092896Y554552D02*
G03*
X1092896Y554552I-2032J0D01*
G01*
X1090950Y556185D02*
G03*
X1090950Y556185I-2032J0D01*
G01*
X1089004Y557817D02*
G03*
X1089004Y557817I-2032J0D01*
G01*
X1087059Y559450D02*
G03*
X1087059Y559450I-2032J0D01*
G01*
X1085113Y561082D02*
G03*
X1085113Y561082I-2032J0D01*
G01*
X1083167Y562715D02*
G03*
X1083167Y562715I-2032J0D01*
G01*
X1095155Y549341D02*
G03*
X1095155Y549341I-2032J0D01*
G01*
X1093209Y550973D02*
G03*
X1093209Y550973I-2032J0D01*
G01*
X1091263Y552606D02*
G03*
X1091263Y552606I-2032J0D01*
G01*
X1089317Y554239D02*
G03*
X1089317Y554239I-2032J0D01*
G01*
X1087372Y555871D02*
G03*
X1087372Y555871I-2032J0D01*
G01*
X1085426Y557504D02*
G03*
X1085426Y557504I-2032J0D01*
G01*
X1083480Y559137D02*
G03*
X1083480Y559137I-2032J0D01*
G01*
X1081535Y560770D02*
G03*
X1081535Y560770I-2032J0D01*
G01*
X1093522Y547395D02*
G03*
X1093522Y547395I-2032J0D01*
G01*
X1091576Y549028D02*
G03*
X1091576Y549028I-2032J0D01*
G01*
X1089631Y550660D02*
G03*
X1089631Y550660I-2032J0D01*
G01*
X1087685Y552293D02*
G03*
X1087685Y552293I-2032J0D01*
G01*
X1085739Y553926D02*
G03*
X1085739Y553926I-2032J0D01*
G01*
X1083793Y555558D02*
G03*
X1083793Y555558I-2032J0D01*
G01*
X1081848Y557191D02*
G03*
X1081848Y557191I-2032J0D01*
G01*
X1079902Y558824D02*
G03*
X1079902Y558824I-2032J0D01*
G01*
X1091889Y545449D02*
G03*
X1091889Y545449I-2032J0D01*
G01*
X1089944Y547082D02*
G03*
X1089944Y547082I-2032J0D01*
G01*
X1087998Y548714D02*
G03*
X1087998Y548714I-2032J0D01*
G01*
X1086052Y550347D02*
G03*
X1086052Y550347I-2032J0D01*
G01*
X1084106Y551980D02*
G03*
X1084106Y551980I-2032J0D01*
G01*
X1082161Y553613D02*
G03*
X1082161Y553613I-2032J0D01*
G01*
X1080215Y555245D02*
G03*
X1080215Y555245I-2032J0D01*
G01*
X1078269Y556878D02*
G03*
X1078269Y556878I-2032J0D01*
G01*
X1090257Y543503D02*
G03*
X1090257Y543503I-2032J0D01*
G01*
X1088311Y545136D02*
G03*
X1088311Y545136I-2032J0D01*
G01*
X1086365Y546769D02*
G03*
X1086365Y546769I-2032J0D01*
G01*
X1084419Y548401D02*
G03*
X1084419Y548401I-2032J0D01*
G01*
X1082474Y550034D02*
G03*
X1082474Y550034I-2032J0D01*
G01*
X1080528Y551667D02*
G03*
X1080528Y551667I-2032J0D01*
G01*
X1078582Y553299D02*
G03*
X1078582Y553299I-2032J0D01*
G01*
X1076636Y554932D02*
G03*
X1076636Y554932I-2032J0D01*
G01*
X1088624Y541558D02*
G03*
X1088624Y541558I-2032J0D01*
G01*
X1086678Y543190D02*
G03*
X1086678Y543190I-2032J0D01*
G01*
X1084733Y544823D02*
G03*
X1084733Y544823I-2032J0D01*
G01*
X1082787Y546456D02*
G03*
X1082787Y546456I-2032J0D01*
G01*
X1080841Y548088D02*
G03*
X1080841Y548088I-2032J0D01*
G01*
X1078895Y549721D02*
G03*
X1078895Y549721I-2032J0D01*
G01*
X1076949Y551354D02*
G03*
X1076949Y551354I-2032J0D01*
G01*
X1075004Y552986D02*
G03*
X1075004Y552986I-2032J0D01*
G01*
X1086991Y539612D02*
G03*
X1086991Y539612I-2032J0D01*
G01*
X1085046Y541245D02*
G03*
X1085046Y541245I-2032J0D01*
G01*
X1083100Y542877D02*
G03*
X1083100Y542877I-2032J0D01*
G01*
X1081154Y544510D02*
G03*
X1081154Y544510I-2032J0D01*
G01*
X1079208Y546143D02*
G03*
X1079208Y546143I-2032J0D01*
G01*
X1077263Y547775D02*
G03*
X1077263Y547775I-2032J0D01*
G01*
X1075317Y549408D02*
G03*
X1075317Y549408I-2032J0D01*
G01*
X1073371Y551041D02*
G03*
X1073371Y551041I-2032J0D01*
G01*
X1085359Y537666D02*
G03*
X1085359Y537666I-2032J0D01*
G01*
X1083413Y539299D02*
G03*
X1083413Y539299I-2032J0D01*
G01*
X1081467Y540932D02*
G03*
X1081467Y540932I-2032J0D01*
G01*
X1079521Y542564D02*
G03*
X1079521Y542564I-2032J0D01*
G01*
X1077576Y544197D02*
G03*
X1077576Y544197I-2032J0D01*
G01*
X1075630Y545830D02*
G03*
X1075630Y545830I-2032J0D01*
G01*
X1073684Y547462D02*
G03*
X1073684Y547462I-2032J0D01*
G01*
X1071738Y549095D02*
G03*
X1071738Y549095I-2032J0D01*
G01*
X1083726Y535720D02*
G03*
X1083726Y535720I-2032J0D01*
G01*
X1081780Y537353D02*
G03*
X1081780Y537353I-2032J0D01*
G01*
X1079835Y538986D02*
G03*
X1079835Y538986I-2032J0D01*
G01*
X1077889Y540619D02*
G03*
X1077889Y540619I-2032J0D01*
G01*
X1075943Y542251D02*
G03*
X1075943Y542251I-2032J0D01*
G01*
X1073997Y543884D02*
G03*
X1073997Y543884I-2032J0D01*
G01*
X1072051Y545517D02*
G03*
X1072051Y545517I-2032J0D01*
G01*
X1070106Y547149D02*
G03*
X1070106Y547149I-2032J0D01*
G01*
X1082093Y533775D02*
G03*
X1082093Y533775I-2032J0D01*
G01*
X1080147Y535407D02*
G03*
X1080147Y535407I-2032J0D01*
G01*
X1078202Y537040D02*
G03*
X1078202Y537040I-2032J0D01*
G01*
X1076256Y538673D02*
G03*
X1076256Y538673I-2032J0D01*
G01*
X1074310Y540305D02*
G03*
X1074310Y540305I-2032J0D01*
G01*
X1072365Y541938D02*
G03*
X1072365Y541938I-2032J0D01*
G01*
X1070419Y543571D02*
G03*
X1070419Y543571I-2032J0D01*
G01*
X1068473Y545203D02*
G03*
X1068473Y545203I-2032J0D01*
G01*
X1080461Y531829D02*
G03*
X1080461Y531829I-2032J0D01*
G01*
X1078515Y533462D02*
G03*
X1078515Y533462I-2032J0D01*
G01*
X1076569Y535094D02*
G03*
X1076569Y535094I-2032J0D01*
G01*
X1074623Y536727D02*
G03*
X1074623Y536727I-2032J0D01*
G01*
X1072678Y538360D02*
G03*
X1072678Y538360I-2032J0D01*
G01*
X1070732Y539992D02*
G03*
X1070732Y539992I-2032J0D01*
G01*
X1068786Y541625D02*
G03*
X1068786Y541625I-2032J0D01*
G01*
X1066840Y543258D02*
G03*
X1066840Y543258I-2032J0D01*
G01*
X1119958Y574949D02*
G03*
X1119958Y574949I-2032J0D01*
G01*
X1121904Y573316D02*
G03*
X1121904Y573316I-2032J0D01*
G01*
X1123849Y571683D02*
G03*
X1123849Y571683I-2032J0D01*
G01*
X1125795Y570051D02*
G03*
X1125795Y570051I-2032J0D01*
G01*
X1127741Y568418D02*
G03*
X1127741Y568418I-2032J0D01*
G01*
X1129687Y566785D02*
G03*
X1129687Y566785I-2032J0D01*
G01*
X1128054Y564839D02*
G03*
X1128054Y564839I-2032J0D01*
G01*
X1126108Y566472D02*
G03*
X1126108Y566472I-2032J0D01*
G01*
X1124163Y568105D02*
G03*
X1124163Y568105I-2032J0D01*
G01*
X1122217Y569737D02*
G03*
X1122217Y569737I-2032J0D01*
G01*
X1120271Y571370D02*
G03*
X1120271Y571370I-2032J0D01*
G01*
X1118325Y573003D02*
G03*
X1118325Y573003I-2032J0D01*
G01*
X1126421Y562894D02*
G03*
X1126421Y562894I-2032J0D01*
G01*
X1124476Y564526D02*
G03*
X1124476Y564526I-2032J0D01*
G01*
X1122530Y566159D02*
G03*
X1122530Y566159I-2032J0D01*
G01*
X1120584Y567792D02*
G03*
X1120584Y567792I-2032J0D01*
G01*
X1118638Y569424D02*
G03*
X1118638Y569424I-2032J0D01*
G01*
X1116693Y571057D02*
G03*
X1116693Y571057I-2032J0D01*
G01*
X1124789Y560948D02*
G03*
X1124789Y560948I-2032J0D01*
G01*
X1122843Y562581D02*
G03*
X1122843Y562581I-2032J0D01*
G01*
X1120897Y564213D02*
G03*
X1120897Y564213I-2032J0D01*
G01*
X1118951Y565846D02*
G03*
X1118951Y565846I-2032J0D01*
G01*
X1117006Y567479D02*
G03*
X1117006Y567479I-2032J0D01*
G01*
X1115060Y569111D02*
G03*
X1115060Y569111I-2032J0D01*
G01*
X1123156Y559002D02*
G03*
X1123156Y559002I-2032J0D01*
G01*
X1121210Y560635D02*
G03*
X1121210Y560635I-2032J0D01*
G01*
X1119265Y562267D02*
G03*
X1119265Y562267I-2032J0D01*
G01*
X1117319Y563900D02*
G03*
X1117319Y563900I-2032J0D01*
G01*
X1115373Y565533D02*
G03*
X1115373Y565533I-2032J0D01*
G01*
X1113427Y567165D02*
G03*
X1113427Y567165I-2032J0D01*
G01*
X1121523Y557056D02*
G03*
X1121523Y557056I-2032J0D01*
G01*
X1119578Y558689D02*
G03*
X1119578Y558689I-2032J0D01*
G01*
X1117632Y560322D02*
G03*
X1117632Y560322I-2032J0D01*
G01*
X1115686Y561954D02*
G03*
X1115686Y561954I-2032J0D01*
G01*
X1113740Y563587D02*
G03*
X1113740Y563587I-2032J0D01*
G01*
X1111795Y565220D02*
G03*
X1111795Y565220I-2032J0D01*
G01*
X1119891Y555111D02*
G03*
X1119891Y555111I-2032J0D01*
G01*
X1117945Y556743D02*
G03*
X1117945Y556743I-2032J0D01*
G01*
X1115999Y558376D02*
G03*
X1115999Y558376I-2032J0D01*
G01*
X1114053Y560009D02*
G03*
X1114053Y560009I-2032J0D01*
G01*
X1112108Y561641D02*
G03*
X1112108Y561641I-2032J0D01*
G01*
X1110162Y563274D02*
G03*
X1110162Y563274I-2032J0D01*
G01*
X1118258Y553165D02*
G03*
X1118258Y553165I-2032J0D01*
G01*
X1116312Y554798D02*
G03*
X1116312Y554798I-2032J0D01*
G01*
X1114367Y556430D02*
G03*
X1114367Y556430I-2032J0D01*
G01*
X1112421Y558063D02*
G03*
X1112421Y558063I-2032J0D01*
G01*
X1110475Y559696D02*
G03*
X1110475Y559696I-2032J0D01*
G01*
X1108529Y561328D02*
G03*
X1108529Y561328I-2032J0D01*
G01*
X1116625Y551219D02*
G03*
X1116625Y551219I-2032J0D01*
G01*
X1114680Y552852D02*
G03*
X1114680Y552852I-2032J0D01*
G01*
X1112734Y554484D02*
G03*
X1112734Y554484I-2032J0D01*
G01*
X1110788Y556117D02*
G03*
X1110788Y556117I-2032J0D01*
G01*
X1108842Y557750D02*
G03*
X1108842Y557750I-2032J0D01*
G01*
X1106897Y559383D02*
G03*
X1106897Y559383I-2032J0D01*
G01*
X1114993Y549273D02*
G03*
X1114993Y549273I-2032J0D01*
G01*
X1113047Y550906D02*
G03*
X1113047Y550906I-2032J0D01*
G01*
X1111101Y552539D02*
G03*
X1111101Y552539I-2032J0D01*
G01*
X1109155Y554171D02*
G03*
X1109155Y554171I-2032J0D01*
G01*
X1107210Y555804D02*
G03*
X1107210Y555804I-2032J0D01*
G01*
X1105264Y557437D02*
G03*
X1105264Y557437I-2032J0D01*
G01*
X1113360Y547328D02*
G03*
X1113360Y547328I-2032J0D01*
G01*
X1111414Y548960D02*
G03*
X1111414Y548960I-2032J0D01*
G01*
X1109469Y550593D02*
G03*
X1109469Y550593I-2032J0D01*
G01*
X1107523Y552226D02*
G03*
X1107523Y552226I-2032J0D01*
G01*
X1105577Y553858D02*
G03*
X1105577Y553858I-2032J0D01*
G01*
X1103631Y555491D02*
G03*
X1103631Y555491I-2032J0D01*
G01*
X1111727Y545382D02*
G03*
X1111727Y545382I-2032J0D01*
G01*
X1109781Y547015D02*
G03*
X1109781Y547015I-2032J0D01*
G01*
X1107836Y548647D02*
G03*
X1107836Y548647I-2032J0D01*
G01*
X1105890Y550280D02*
G03*
X1105890Y550280I-2032J0D01*
G01*
X1103944Y551913D02*
G03*
X1103944Y551913I-2032J0D01*
G01*
X1101999Y553545D02*
G03*
X1101999Y553545I-2032J0D01*
G01*
X1086432Y566607D02*
G03*
X1086432Y566607I-2032J0D01*
G01*
X1088378Y564974D02*
G03*
X1088378Y564974I-2032J0D01*
G01*
X1090324Y563341D02*
G03*
X1090324Y563341I-2032J0D01*
G01*
X1092270Y561709D02*
G03*
X1092270Y561709I-2032J0D01*
G01*
X1094215Y560076D02*
G03*
X1094215Y560076I-2032J0D01*
G01*
X1096161Y558443D02*
G03*
X1096161Y558443I-2032J0D01*
G01*
X1098107Y556811D02*
G03*
X1098107Y556811I-2032J0D01*
G01*
X1100053Y555178D02*
G03*
X1100053Y555178I-2032J0D01*
G01*
X1088065Y568553D02*
G03*
X1088065Y568553I-2032J0D01*
G01*
X1090011Y566920D02*
G03*
X1090011Y566920I-2032J0D01*
G01*
X1091957Y565287D02*
G03*
X1091957Y565287I-2032J0D01*
G01*
X1093902Y563654D02*
G03*
X1093902Y563654I-2032J0D01*
G01*
X1095848Y562022D02*
G03*
X1095848Y562022I-2032J0D01*
G01*
X1097794Y560389D02*
G03*
X1097794Y560389I-2032J0D01*
G01*
X1099740Y558756D02*
G03*
X1099740Y558756I-2032J0D01*
G01*
X1101685Y557124D02*
G03*
X1101685Y557124I-2032J0D01*
G01*
X1089698Y570498D02*
G03*
X1089698Y570498I-2032J0D01*
G01*
X1091644Y568866D02*
G03*
X1091644Y568866I-2032J0D01*
G01*
X1093589Y567233D02*
G03*
X1093589Y567233I-2032J0D01*
G01*
X1095535Y565600D02*
G03*
X1095535Y565600I-2032J0D01*
G01*
X1097481Y563968D02*
G03*
X1097481Y563968I-2032J0D01*
G01*
X1099427Y562335D02*
G03*
X1099427Y562335I-2032J0D01*
G01*
X1101372Y560702D02*
G03*
X1101372Y560702I-2032J0D01*
G01*
X1103318Y559070D02*
G03*
X1103318Y559070I-2032J0D01*
G01*
X1091331Y572444D02*
G03*
X1091331Y572444I-2032J0D01*
G01*
X1093276Y570811D02*
G03*
X1093276Y570811I-2032J0D01*
G01*
X1095222Y569179D02*
G03*
X1095222Y569179I-2032J0D01*
G01*
X1097168Y567546D02*
G03*
X1097168Y567546I-2032J0D01*
G01*
X1099113Y565913D02*
G03*
X1099113Y565913I-2032J0D01*
G01*
X1101059Y564281D02*
G03*
X1101059Y564281I-2032J0D01*
G01*
X1103005Y562648D02*
G03*
X1103005Y562648I-2032J0D01*
G01*
X1104951Y561015D02*
G03*
X1104951Y561015I-2032J0D01*
G01*
X1092963Y574390D02*
G03*
X1092963Y574390I-2032J0D01*
G01*
X1094909Y572757D02*
G03*
X1094909Y572757I-2032J0D01*
G01*
X1096855Y571124D02*
G03*
X1096855Y571124I-2032J0D01*
G01*
X1098801Y569492D02*
G03*
X1098801Y569492I-2032J0D01*
G01*
X1100746Y567859D02*
G03*
X1100746Y567859I-2032J0D01*
G01*
X1102692Y566226D02*
G03*
X1102692Y566226I-2032J0D01*
G01*
X1104638Y564594D02*
G03*
X1104638Y564594I-2032J0D01*
G01*
X1106583Y562961D02*
G03*
X1106583Y562961I-2032J0D01*
G01*
X1094596Y576335D02*
G03*
X1094596Y576335I-2032J0D01*
G01*
X1096542Y574703D02*
G03*
X1096542Y574703I-2032J0D01*
G01*
X1098487Y573070D02*
G03*
X1098487Y573070I-2032J0D01*
G01*
X1100433Y571437D02*
G03*
X1100433Y571437I-2032J0D01*
G01*
X1102379Y569805D02*
G03*
X1102379Y569805I-2032J0D01*
G01*
X1104325Y568172D02*
G03*
X1104325Y568172I-2032J0D01*
G01*
X1106270Y566539D02*
G03*
X1106270Y566539I-2032J0D01*
G01*
X1108216Y564907D02*
G03*
X1108216Y564907I-2032J0D01*
G01*
X1096229Y578281D02*
G03*
X1096229Y578281I-2032J0D01*
G01*
X1098174Y576649D02*
G03*
X1098174Y576649I-2032J0D01*
G01*
X1100120Y575016D02*
G03*
X1100120Y575016I-2032J0D01*
G01*
X1102066Y573383D02*
G03*
X1102066Y573383I-2032J0D01*
G01*
X1104012Y571750D02*
G03*
X1104012Y571750I-2032J0D01*
G01*
X1105957Y570118D02*
G03*
X1105957Y570118I-2032J0D01*
G01*
X1107903Y568485D02*
G03*
X1107903Y568485I-2032J0D01*
G01*
X1109849Y566852D02*
G03*
X1109849Y566852I-2032J0D01*
G01*
X1097861Y580227D02*
G03*
X1097861Y580227I-2032J0D01*
G01*
X1099807Y578594D02*
G03*
X1099807Y578594I-2032J0D01*
G01*
X1101753Y576962D02*
G03*
X1101753Y576962I-2032J0D01*
G01*
X1103699Y575329D02*
G03*
X1103699Y575329I-2032J0D01*
G01*
X1105644Y573696D02*
G03*
X1105644Y573696I-2032J0D01*
G01*
X1107590Y572064D02*
G03*
X1107590Y572064I-2032J0D01*
G01*
X1109536Y570431D02*
G03*
X1109536Y570431I-2032J0D01*
G01*
X1111481Y568798D02*
G03*
X1111481Y568798I-2032J0D01*
G01*
X1099494Y582173D02*
G03*
X1099494Y582173I-2032J0D01*
G01*
X1101440Y580540D02*
G03*
X1101440Y580540I-2032J0D01*
G01*
X1103385Y578907D02*
G03*
X1103385Y578907I-2032J0D01*
G01*
X1105331Y577275D02*
G03*
X1105331Y577275I-2032J0D01*
G01*
X1107277Y575642D02*
G03*
X1107277Y575642I-2032J0D01*
G01*
X1109223Y574009D02*
G03*
X1109223Y574009I-2032J0D01*
G01*
X1111169Y572377D02*
G03*
X1111169Y572377I-2032J0D01*
G01*
X1113114Y570744D02*
G03*
X1113114Y570744I-2032J0D01*
G01*
X1105018Y580853D02*
G03*
X1105018Y580853I-2032J0D01*
G01*
X1106964Y579221D02*
G03*
X1106964Y579221I-2032J0D01*
G01*
X1108910Y577588D02*
G03*
X1108910Y577588I-2032J0D01*
G01*
X1110855Y575955D02*
G03*
X1110855Y575955I-2032J0D01*
G01*
X1112801Y574322D02*
G03*
X1112801Y574322I-2032J0D01*
G01*
X1114747Y572690D02*
G03*
X1114747Y572690I-2032J0D01*
G01*
X1108597Y581166D02*
G03*
X1108597Y581166I-2032J0D01*
G01*
X1110542Y579534D02*
G03*
X1110542Y579534I-2032J0D01*
G01*
X1112488Y577901D02*
G03*
X1112488Y577901I-2032J0D01*
G01*
X1114434Y576268D02*
G03*
X1114434Y576268I-2032J0D01*
G01*
X1116380Y574636D02*
G03*
X1116380Y574636I-2032J0D01*
G01*
X1118012Y576581D02*
G03*
X1118012Y576581I-2032J0D01*
G01*
X1116067Y578214D02*
G03*
X1116067Y578214I-2032J0D01*
G01*
X1114121Y579847D02*
G03*
X1114121Y579847I-2032J0D01*
G01*
X1112175Y581479D02*
G03*
X1112175Y581479I-2032J0D01*
G01*
X1110229Y583112D02*
G03*
X1110229Y583112I-2032J0D01*
G01*
X884246Y552886D02*
G03*
X884246Y552886I-2032J0D01*
G01*
X886042Y551090D02*
G03*
X886042Y551090I-2032J0D01*
G01*
X887838Y549294D02*
G03*
X887838Y549294I-2032J0D01*
G01*
X889634Y547498D02*
G03*
X889634Y547498I-2032J0D01*
G01*
X887838Y545702D02*
G03*
X887838Y545702I-2032J0D01*
G01*
X886042Y547498D02*
G03*
X886042Y547498I-2032J0D01*
G01*
X884246Y549294D02*
G03*
X884246Y549294I-2032J0D01*
G01*
X882450Y551090D02*
G03*
X882450Y551090I-2032J0D01*
G01*
X880654Y552886D02*
G03*
X880654Y552886I-2032J0D01*
G01*
X886042Y543905D02*
G03*
X886042Y543905I-2032J0D01*
G01*
X884246Y545702D02*
G03*
X884246Y545702I-2032J0D01*
G01*
X882450Y547498D02*
G03*
X882450Y547498I-2032J0D01*
G01*
X880654Y549294D02*
G03*
X880654Y549294I-2032J0D01*
G01*
X878858Y551090D02*
G03*
X878858Y551090I-2032J0D01*
G01*
X877062Y552886D02*
G03*
X877062Y552886I-2032J0D01*
G01*
X884246Y542109D02*
G03*
X884246Y542109I-2032J0D01*
G01*
X882450Y543905D02*
G03*
X882450Y543905I-2032J0D01*
G01*
X880654Y545702D02*
G03*
X880654Y545702I-2032J0D01*
G01*
X878858Y547498D02*
G03*
X878858Y547498I-2032J0D01*
G01*
X877062Y549294D02*
G03*
X877062Y549294I-2032J0D01*
G01*
X882450Y540313D02*
G03*
X882450Y540313I-2032J0D01*
G01*
X880654Y542109D02*
G03*
X880654Y542109I-2032J0D01*
G01*
X878858Y543905D02*
G03*
X878858Y543905I-2032J0D01*
G01*
X877062Y545702D02*
G03*
X877062Y545702I-2032J0D01*
G01*
X875266Y547498D02*
G03*
X875266Y547498I-2032J0D01*
G01*
X880654Y538517D02*
G03*
X880654Y538517I-2032J0D01*
G01*
X878858Y540313D02*
G03*
X878858Y540313I-2032J0D01*
G01*
X877062Y542109D02*
G03*
X877062Y542109I-2032J0D01*
G01*
X875266Y543905D02*
G03*
X875266Y543905I-2032J0D01*
G01*
X873470Y545702D02*
G03*
X873470Y545702I-2032J0D01*
G01*
X871674Y547498D02*
G03*
X871674Y547498I-2032J0D01*
G01*
X878858Y536721D02*
G03*
X878858Y536721I-2032J0D01*
G01*
X877062Y538517D02*
G03*
X877062Y538517I-2032J0D01*
G01*
X875266Y540313D02*
G03*
X875266Y540313I-2032J0D01*
G01*
X873470Y542109D02*
G03*
X873470Y542109I-2032J0D01*
G01*
X871674Y543905D02*
G03*
X871674Y543905I-2032J0D01*
G01*
X869878Y545702D02*
G03*
X869878Y545702I-2032J0D01*
G01*
X868082Y547498D02*
G03*
X868082Y547498I-2032J0D01*
G01*
X877062Y534925D02*
G03*
X877062Y534925I-2032J0D01*
G01*
X875266Y536721D02*
G03*
X875266Y536721I-2032J0D01*
G01*
X873470Y538517D02*
G03*
X873470Y538517I-2032J0D01*
G01*
X871674Y540313D02*
G03*
X871674Y540313I-2032J0D01*
G01*
X869878Y542109D02*
G03*
X869878Y542109I-2032J0D01*
G01*
X868082Y543905D02*
G03*
X868082Y543905I-2032J0D01*
G01*
X866286Y545702D02*
G03*
X866286Y545702I-2032J0D01*
G01*
X864490Y547498D02*
G03*
X864490Y547498I-2032J0D01*
G01*
X875266Y533129D02*
G03*
X875266Y533129I-2032J0D01*
G01*
X873470Y534925D02*
G03*
X873470Y534925I-2032J0D01*
G01*
X871674Y536721D02*
G03*
X871674Y536721I-2032J0D01*
G01*
X869878Y538517D02*
G03*
X869878Y538517I-2032J0D01*
G01*
X868082Y540313D02*
G03*
X868082Y540313I-2032J0D01*
G01*
X866286Y542109D02*
G03*
X866286Y542109I-2032J0D01*
G01*
X864490Y543905D02*
G03*
X864490Y543905I-2032J0D01*
G01*
X862694Y545702D02*
G03*
X862694Y545702I-2032J0D01*
G01*
X873470Y531333D02*
G03*
X873470Y531333I-2032J0D01*
G01*
X871674Y533129D02*
G03*
X871674Y533129I-2032J0D01*
G01*
X869878Y534925D02*
G03*
X869878Y534925I-2032J0D01*
G01*
X868082Y536721D02*
G03*
X868082Y536721I-2032J0D01*
G01*
X866286Y538517D02*
G03*
X866286Y538517I-2032J0D01*
G01*
X864490Y540313D02*
G03*
X864490Y540313I-2032J0D01*
G01*
X862694Y542109D02*
G03*
X862694Y542109I-2032J0D01*
G01*
X860898Y543905D02*
G03*
X860898Y543905I-2032J0D01*
G01*
X871674Y529537D02*
G03*
X871674Y529537I-2032J0D01*
G01*
X869878Y531333D02*
G03*
X869878Y531333I-2032J0D01*
G01*
X868082Y533129D02*
G03*
X868082Y533129I-2032J0D01*
G01*
X866286Y534925D02*
G03*
X866286Y534925I-2032J0D01*
G01*
X864490Y536721D02*
G03*
X864490Y536721I-2032J0D01*
G01*
X862694Y538517D02*
G03*
X862694Y538517I-2032J0D01*
G01*
X860898Y540313D02*
G03*
X860898Y540313I-2032J0D01*
G01*
X859101Y542109D02*
G03*
X859101Y542109I-2032J0D01*
G01*
X869878Y527741D02*
G03*
X869878Y527741I-2032J0D01*
G01*
X868082Y529537D02*
G03*
X868082Y529537I-2032J0D01*
G01*
X866286Y531333D02*
G03*
X866286Y531333I-2032J0D01*
G01*
X864490Y533129D02*
G03*
X864490Y533129I-2032J0D01*
G01*
X862694Y534925D02*
G03*
X862694Y534925I-2032J0D01*
G01*
X860898Y536721D02*
G03*
X860898Y536721I-2032J0D01*
G01*
X859101Y538517D02*
G03*
X859101Y538517I-2032J0D01*
G01*
X857305Y540313D02*
G03*
X857305Y540313I-2032J0D01*
G01*
X871674Y525945D02*
G03*
X871674Y525945I-2032J0D01*
G01*
X873470Y524149D02*
G03*
X873470Y524149I-2032J0D01*
G01*
X875266Y522353D02*
G03*
X875266Y522353I-2032J0D01*
G01*
X877062Y520557D02*
G03*
X877062Y520557I-2032J0D01*
G01*
X878858Y518761D02*
G03*
X878858Y518761I-2032J0D01*
G01*
X880654Y516965D02*
G03*
X880654Y516965I-2032J0D01*
G01*
X873470Y527741D02*
G03*
X873470Y527741I-2032J0D01*
G01*
X875266Y525945D02*
G03*
X875266Y525945I-2032J0D01*
G01*
X877062Y524149D02*
G03*
X877062Y524149I-2032J0D01*
G01*
X878858Y522353D02*
G03*
X878858Y522353I-2032J0D01*
G01*
X880654Y520557D02*
G03*
X880654Y520557I-2032J0D01*
G01*
X882450Y518761D02*
G03*
X882450Y518761I-2032J0D01*
G01*
X875266Y529537D02*
G03*
X875266Y529537I-2032J0D01*
G01*
X877062Y527741D02*
G03*
X877062Y527741I-2032J0D01*
G01*
X878858Y525945D02*
G03*
X878858Y525945I-2032J0D01*
G01*
X880654Y524149D02*
G03*
X880654Y524149I-2032J0D01*
G01*
X882450Y522353D02*
G03*
X882450Y522353I-2032J0D01*
G01*
X884246Y520557D02*
G03*
X884246Y520557I-2032J0D01*
G01*
X877062Y531333D02*
G03*
X877062Y531333I-2032J0D01*
G01*
X878858Y529537D02*
G03*
X878858Y529537I-2032J0D01*
G01*
X880654Y527741D02*
G03*
X880654Y527741I-2032J0D01*
G01*
X882450Y525945D02*
G03*
X882450Y525945I-2032J0D01*
G01*
X884246Y524149D02*
G03*
X884246Y524149I-2032J0D01*
G01*
X886042Y522353D02*
G03*
X886042Y522353I-2032J0D01*
G01*
X878858Y533129D02*
G03*
X878858Y533129I-2032J0D01*
G01*
X880654Y531333D02*
G03*
X880654Y531333I-2032J0D01*
G01*
X882450Y529537D02*
G03*
X882450Y529537I-2032J0D01*
G01*
X884246Y527741D02*
G03*
X884246Y527741I-2032J0D01*
G01*
X886042Y525945D02*
G03*
X886042Y525945I-2032J0D01*
G01*
X887838Y524149D02*
G03*
X887838Y524149I-2032J0D01*
G01*
X880654Y534925D02*
G03*
X880654Y534925I-2032J0D01*
G01*
X882450Y533129D02*
G03*
X882450Y533129I-2032J0D01*
G01*
X884246Y531333D02*
G03*
X884246Y531333I-2032J0D01*
G01*
X886042Y529537D02*
G03*
X886042Y529537I-2032J0D01*
G01*
X887838Y527741D02*
G03*
X887838Y527741I-2032J0D01*
G01*
X889634Y525945D02*
G03*
X889634Y525945I-2032J0D01*
G01*
X882450Y536721D02*
G03*
X882450Y536721I-2032J0D01*
G01*
X884246Y534925D02*
G03*
X884246Y534925I-2032J0D01*
G01*
X886042Y533129D02*
G03*
X886042Y533129I-2032J0D01*
G01*
X887838Y531333D02*
G03*
X887838Y531333I-2032J0D01*
G01*
X889634Y529537D02*
G03*
X889634Y529537I-2032J0D01*
G01*
X891430Y527741D02*
G03*
X891430Y527741I-2032J0D01*
G01*
X884246Y538517D02*
G03*
X884246Y538517I-2032J0D01*
G01*
X886042Y536721D02*
G03*
X886042Y536721I-2032J0D01*
G01*
X887838Y534925D02*
G03*
X887838Y534925I-2032J0D01*
G01*
X889634Y533129D02*
G03*
X889634Y533129I-2032J0D01*
G01*
X891430Y531333D02*
G03*
X891430Y531333I-2032J0D01*
G01*
X893226Y529537D02*
G03*
X893226Y529537I-2032J0D01*
G01*
X886042Y540313D02*
G03*
X886042Y540313I-2032J0D01*
G01*
X887838Y538517D02*
G03*
X887838Y538517I-2032J0D01*
G01*
X889634Y536721D02*
G03*
X889634Y536721I-2032J0D01*
G01*
X891430Y534925D02*
G03*
X891430Y534925I-2032J0D01*
G01*
X893226Y533129D02*
G03*
X893226Y533129I-2032J0D01*
G01*
X895023Y531333D02*
G03*
X895023Y531333I-2032J0D01*
G01*
X887838Y542109D02*
G03*
X887838Y542109I-2032J0D01*
G01*
X889634Y540313D02*
G03*
X889634Y540313I-2032J0D01*
G01*
X891430Y538517D02*
G03*
X891430Y538517I-2032J0D01*
G01*
X893226Y536721D02*
G03*
X893226Y536721I-2032J0D01*
G01*
X895023Y534925D02*
G03*
X895023Y534925I-2032J0D01*
G01*
X896819Y533129D02*
G03*
X896819Y533129I-2032J0D01*
G01*
X889634Y543905D02*
G03*
X889634Y543905I-2032J0D01*
G01*
X891430Y542109D02*
G03*
X891430Y542109I-2032J0D01*
G01*
X893226Y540313D02*
G03*
X893226Y540313I-2032J0D01*
G01*
X895023Y538517D02*
G03*
X895023Y538517I-2032J0D01*
G01*
X896819Y536721D02*
G03*
X896819Y536721I-2032J0D01*
G01*
X898615Y534925D02*
G03*
X898615Y534925I-2032J0D01*
G01*
X900411Y536721D02*
G03*
X900411Y536721I-2032J0D01*
G01*
X898615Y538517D02*
G03*
X898615Y538517I-2032J0D01*
G01*
X896819Y540313D02*
G03*
X896819Y540313I-2032J0D01*
G01*
X895023Y542109D02*
G03*
X895023Y542109I-2032J0D01*
G01*
X893226Y543905D02*
G03*
X893226Y543905I-2032J0D01*
G01*
X891430Y545702D02*
G03*
X891430Y545702I-2032J0D01*
G01*
X835753Y518761D02*
G03*
X835753Y518761I-2032J0D01*
G01*
X837549Y516965D02*
G03*
X837549Y516965I-2032J0D01*
G01*
X839345Y515169D02*
G03*
X839345Y515169I-2032J0D01*
G01*
X841141Y513373D02*
G03*
X841141Y513373I-2032J0D01*
G01*
X842937Y511577D02*
G03*
X842937Y511577I-2032J0D01*
G01*
X844733Y509781D02*
G03*
X844733Y509781I-2032J0D01*
G01*
X846529Y507985D02*
G03*
X846529Y507985I-2032J0D01*
G01*
X848325Y506189D02*
G03*
X848325Y506189I-2032J0D01*
G01*
X837549Y520557D02*
G03*
X837549Y520557I-2032J0D01*
G01*
X839345Y518761D02*
G03*
X839345Y518761I-2032J0D01*
G01*
X841141Y516965D02*
G03*
X841141Y516965I-2032J0D01*
G01*
X842937Y515169D02*
G03*
X842937Y515169I-2032J0D01*
G01*
X844733Y513373D02*
G03*
X844733Y513373I-2032J0D01*
G01*
X846529Y511577D02*
G03*
X846529Y511577I-2032J0D01*
G01*
X848325Y509781D02*
G03*
X848325Y509781I-2032J0D01*
G01*
X850121Y507985D02*
G03*
X850121Y507985I-2032J0D01*
G01*
X839345Y522353D02*
G03*
X839345Y522353I-2032J0D01*
G01*
X841141Y520557D02*
G03*
X841141Y520557I-2032J0D01*
G01*
X842937Y518761D02*
G03*
X842937Y518761I-2032J0D01*
G01*
X844733Y516965D02*
G03*
X844733Y516965I-2032J0D01*
G01*
X846529Y515169D02*
G03*
X846529Y515169I-2032J0D01*
G01*
X848325Y513373D02*
G03*
X848325Y513373I-2032J0D01*
G01*
X850121Y511577D02*
G03*
X850121Y511577I-2032J0D01*
G01*
X851917Y509781D02*
G03*
X851917Y509781I-2032J0D01*
G01*
X841141Y524149D02*
G03*
X841141Y524149I-2032J0D01*
G01*
X842937Y522353D02*
G03*
X842937Y522353I-2032J0D01*
G01*
X844733Y520557D02*
G03*
X844733Y520557I-2032J0D01*
G01*
X846529Y518761D02*
G03*
X846529Y518761I-2032J0D01*
G01*
X848325Y516965D02*
G03*
X848325Y516965I-2032J0D01*
G01*
X850121Y515169D02*
G03*
X850121Y515169I-2032J0D01*
G01*
X851917Y513373D02*
G03*
X851917Y513373I-2032J0D01*
G01*
X853713Y511577D02*
G03*
X853713Y511577I-2032J0D01*
G01*
X842937Y525945D02*
G03*
X842937Y525945I-2032J0D01*
G01*
X844733Y524149D02*
G03*
X844733Y524149I-2032J0D01*
G01*
X846529Y522353D02*
G03*
X846529Y522353I-2032J0D01*
G01*
X848325Y520557D02*
G03*
X848325Y520557I-2032J0D01*
G01*
X850121Y518761D02*
G03*
X850121Y518761I-2032J0D01*
G01*
X851917Y516965D02*
G03*
X851917Y516965I-2032J0D01*
G01*
X853713Y515169D02*
G03*
X853713Y515169I-2032J0D01*
G01*
X855509Y513373D02*
G03*
X855509Y513373I-2032J0D01*
G01*
X844733Y527741D02*
G03*
X844733Y527741I-2032J0D01*
G01*
X846529Y525945D02*
G03*
X846529Y525945I-2032J0D01*
G01*
X848325Y524149D02*
G03*
X848325Y524149I-2032J0D01*
G01*
X850121Y522353D02*
G03*
X850121Y522353I-2032J0D01*
G01*
X851917Y520557D02*
G03*
X851917Y520557I-2032J0D01*
G01*
X853713Y518761D02*
G03*
X853713Y518761I-2032J0D01*
G01*
X855509Y516965D02*
G03*
X855509Y516965I-2032J0D01*
G01*
X857305Y515169D02*
G03*
X857305Y515169I-2032J0D01*
G01*
X846529Y529537D02*
G03*
X846529Y529537I-2032J0D01*
G01*
X848325Y527741D02*
G03*
X848325Y527741I-2032J0D01*
G01*
X850121Y525945D02*
G03*
X850121Y525945I-2032J0D01*
G01*
X851917Y524149D02*
G03*
X851917Y524149I-2032J0D01*
G01*
X853713Y522353D02*
G03*
X853713Y522353I-2032J0D01*
G01*
X855509Y520557D02*
G03*
X855509Y520557I-2032J0D01*
G01*
X857305Y518761D02*
G03*
X857305Y518761I-2032J0D01*
G01*
X859101Y516965D02*
G03*
X859101Y516965I-2032J0D01*
G01*
X848325Y531333D02*
G03*
X848325Y531333I-2032J0D01*
G01*
X850121Y529537D02*
G03*
X850121Y529537I-2032J0D01*
G01*
X851917Y527741D02*
G03*
X851917Y527741I-2032J0D01*
G01*
X853713Y525945D02*
G03*
X853713Y525945I-2032J0D01*
G01*
X855509Y524149D02*
G03*
X855509Y524149I-2032J0D01*
G01*
X857305Y522353D02*
G03*
X857305Y522353I-2032J0D01*
G01*
X859101Y520557D02*
G03*
X859101Y520557I-2032J0D01*
G01*
X860898Y518761D02*
G03*
X860898Y518761I-2032J0D01*
G01*
X850121Y533129D02*
G03*
X850121Y533129I-2032J0D01*
G01*
X851917Y531333D02*
G03*
X851917Y531333I-2032J0D01*
G01*
X853713Y529537D02*
G03*
X853713Y529537I-2032J0D01*
G01*
X855509Y527741D02*
G03*
X855509Y527741I-2032J0D01*
G01*
X857305Y525945D02*
G03*
X857305Y525945I-2032J0D01*
G01*
X859101Y524149D02*
G03*
X859101Y524149I-2032J0D01*
G01*
X860898Y522353D02*
G03*
X860898Y522353I-2032J0D01*
G01*
X862694Y520557D02*
G03*
X862694Y520557I-2032J0D01*
G01*
X851917Y534925D02*
G03*
X851917Y534925I-2032J0D01*
G01*
X853713Y533129D02*
G03*
X853713Y533129I-2032J0D01*
G01*
X855509Y531333D02*
G03*
X855509Y531333I-2032J0D01*
G01*
X857305Y529537D02*
G03*
X857305Y529537I-2032J0D01*
G01*
X859101Y527741D02*
G03*
X859101Y527741I-2032J0D01*
G01*
X860898Y525945D02*
G03*
X860898Y525945I-2032J0D01*
G01*
X862694Y524149D02*
G03*
X862694Y524149I-2032J0D01*
G01*
X864490Y522353D02*
G03*
X864490Y522353I-2032J0D01*
G01*
X853713Y536721D02*
G03*
X853713Y536721I-2032J0D01*
G01*
X855509Y534925D02*
G03*
X855509Y534925I-2032J0D01*
G01*
X857305Y533129D02*
G03*
X857305Y533129I-2032J0D01*
G01*
X859101Y531333D02*
G03*
X859101Y531333I-2032J0D01*
G01*
X860898Y529537D02*
G03*
X860898Y529537I-2032J0D01*
G01*
X862694Y527741D02*
G03*
X862694Y527741I-2032J0D01*
G01*
X864490Y525945D02*
G03*
X864490Y525945I-2032J0D01*
G01*
X866286Y524149D02*
G03*
X866286Y524149I-2032J0D01*
G01*
X868082Y525945D02*
G03*
X868082Y525945I-2032J0D01*
G01*
X866286Y527741D02*
G03*
X866286Y527741I-2032J0D01*
G01*
X864490Y529537D02*
G03*
X864490Y529537I-2032J0D01*
G01*
X862694Y531333D02*
G03*
X862694Y531333I-2032J0D01*
G01*
X860898Y533129D02*
G03*
X860898Y533129I-2032J0D01*
G01*
X859101Y534925D02*
G03*
X859101Y534925I-2032J0D01*
G01*
X857305Y536721D02*
G03*
X857305Y536721I-2032J0D01*
G01*
X855509Y538517D02*
G03*
X855509Y538517I-2032J0D01*
G01*
X850121Y504392D02*
G03*
X850121Y504392I-2032J0D01*
G01*
X851917Y502596D02*
G03*
X851917Y502596I-2032J0D01*
G01*
X853713Y500800D02*
G03*
X853713Y500800I-2032J0D01*
G01*
X855509Y499004D02*
G03*
X855509Y499004I-2032J0D01*
G01*
X857305Y497208D02*
G03*
X857305Y497208I-2032J0D01*
G01*
X859101Y495412D02*
G03*
X859101Y495412I-2032J0D01*
G01*
X851917Y506189D02*
G03*
X851917Y506189I-2032J0D01*
G01*
X853713Y504392D02*
G03*
X853713Y504392I-2032J0D01*
G01*
X855509Y502596D02*
G03*
X855509Y502596I-2032J0D01*
G01*
X857305Y500800D02*
G03*
X857305Y500800I-2032J0D01*
G01*
X859101Y499004D02*
G03*
X859101Y499004I-2032J0D01*
G01*
X860898Y497208D02*
G03*
X860898Y497208I-2032J0D01*
G01*
X853713Y507985D02*
G03*
X853713Y507985I-2032J0D01*
G01*
X855509Y506189D02*
G03*
X855509Y506189I-2032J0D01*
G01*
X857305Y504392D02*
G03*
X857305Y504392I-2032J0D01*
G01*
X859101Y502596D02*
G03*
X859101Y502596I-2032J0D01*
G01*
X860898Y500800D02*
G03*
X860898Y500800I-2032J0D01*
G01*
X862694Y499004D02*
G03*
X862694Y499004I-2032J0D01*
G01*
X855509Y509781D02*
G03*
X855509Y509781I-2032J0D01*
G01*
X857305Y507985D02*
G03*
X857305Y507985I-2032J0D01*
G01*
X859101Y506189D02*
G03*
X859101Y506189I-2032J0D01*
G01*
X860898Y504392D02*
G03*
X860898Y504392I-2032J0D01*
G01*
X862694Y502596D02*
G03*
X862694Y502596I-2032J0D01*
G01*
X864490Y500800D02*
G03*
X864490Y500800I-2032J0D01*
G01*
X857305Y511577D02*
G03*
X857305Y511577I-2032J0D01*
G01*
X859101Y509781D02*
G03*
X859101Y509781I-2032J0D01*
G01*
X860898Y507985D02*
G03*
X860898Y507985I-2032J0D01*
G01*
X862694Y506189D02*
G03*
X862694Y506189I-2032J0D01*
G01*
X864490Y504392D02*
G03*
X864490Y504392I-2032J0D01*
G01*
X866286Y502596D02*
G03*
X866286Y502596I-2032J0D01*
G01*
X859101Y513373D02*
G03*
X859101Y513373I-2032J0D01*
G01*
X860898Y511577D02*
G03*
X860898Y511577I-2032J0D01*
G01*
X862694Y509781D02*
G03*
X862694Y509781I-2032J0D01*
G01*
X864490Y507985D02*
G03*
X864490Y507985I-2032J0D01*
G01*
X866286Y506189D02*
G03*
X866286Y506189I-2032J0D01*
G01*
X868082Y504392D02*
G03*
X868082Y504392I-2032J0D01*
G01*
X860898Y515169D02*
G03*
X860898Y515169I-2032J0D01*
G01*
X862694Y513373D02*
G03*
X862694Y513373I-2032J0D01*
G01*
X864490Y511577D02*
G03*
X864490Y511577I-2032J0D01*
G01*
X866286Y509781D02*
G03*
X866286Y509781I-2032J0D01*
G01*
X868082Y507985D02*
G03*
X868082Y507985I-2032J0D01*
G01*
X869878Y506189D02*
G03*
X869878Y506189I-2032J0D01*
G01*
X862694Y516965D02*
G03*
X862694Y516965I-2032J0D01*
G01*
X864490Y515169D02*
G03*
X864490Y515169I-2032J0D01*
G01*
X866286Y513373D02*
G03*
X866286Y513373I-2032J0D01*
G01*
X868082Y511577D02*
G03*
X868082Y511577I-2032J0D01*
G01*
X869878Y509781D02*
G03*
X869878Y509781I-2032J0D01*
G01*
X871674Y507985D02*
G03*
X871674Y507985I-2032J0D01*
G01*
X864490Y518761D02*
G03*
X864490Y518761I-2032J0D01*
G01*
X866286Y516965D02*
G03*
X866286Y516965I-2032J0D01*
G01*
X868082Y515169D02*
G03*
X868082Y515169I-2032J0D01*
G01*
X869878Y513373D02*
G03*
X869878Y513373I-2032J0D01*
G01*
X871674Y511577D02*
G03*
X871674Y511577I-2032J0D01*
G01*
X873470Y509781D02*
G03*
X873470Y509781I-2032J0D01*
G01*
X866286Y520557D02*
G03*
X866286Y520557I-2032J0D01*
G01*
X868082Y518761D02*
G03*
X868082Y518761I-2032J0D01*
G01*
X869878Y516965D02*
G03*
X869878Y516965I-2032J0D01*
G01*
X871674Y515169D02*
G03*
X871674Y515169I-2032J0D01*
G01*
X873470Y513373D02*
G03*
X873470Y513373I-2032J0D01*
G01*
X875266Y511577D02*
G03*
X875266Y511577I-2032J0D01*
G01*
X868082Y522353D02*
G03*
X868082Y522353I-2032J0D01*
G01*
X869878Y520557D02*
G03*
X869878Y520557I-2032J0D01*
G01*
X871674Y518761D02*
G03*
X871674Y518761I-2032J0D01*
G01*
X873470Y516965D02*
G03*
X873470Y516965I-2032J0D01*
G01*
X875266Y515169D02*
G03*
X875266Y515169I-2032J0D01*
G01*
X877062Y513373D02*
G03*
X877062Y513373I-2032J0D01*
G01*
X878858Y515169D02*
G03*
X878858Y515169I-2032J0D01*
G01*
X877062Y516965D02*
G03*
X877062Y516965I-2032J0D01*
G01*
X875266Y518761D02*
G03*
X875266Y518761I-2032J0D01*
G01*
X873470Y520557D02*
G03*
X873470Y520557I-2032J0D01*
G01*
X871674Y522353D02*
G03*
X871674Y522353I-2032J0D01*
G01*
X869878Y524149D02*
G03*
X869878Y524149I-2032J0D01*
G01*
X755142Y502920D02*
G03*
X755142Y502920I-2032J0D01*
G01*
X756938Y504716D02*
G03*
X756938Y504716I-2032J0D01*
G01*
X758734Y502920D02*
G03*
X758734Y502920I-2032J0D01*
G01*
X756938Y501124D02*
G03*
X756938Y501124I-2032J0D01*
G01*
X762326Y502920D02*
G03*
X762326Y502920I-2032J0D01*
G01*
X760530Y501124D02*
G03*
X760530Y501124I-2032J0D01*
G01*
X758734Y499328D02*
G03*
X758734Y499328I-2032J0D01*
G01*
X765918Y502920D02*
G03*
X765918Y502920I-2032J0D01*
G01*
X764122Y501124D02*
G03*
X764122Y501124I-2032J0D01*
G01*
X762326Y499328D02*
G03*
X762326Y499328I-2032J0D01*
G01*
X760530Y497532D02*
G03*
X760530Y497532I-2032J0D01*
G01*
X769510Y502920D02*
G03*
X769510Y502920I-2032J0D01*
G01*
X767714Y501124D02*
G03*
X767714Y501124I-2032J0D01*
G01*
X765918Y499328D02*
G03*
X765918Y499328I-2032J0D01*
G01*
X764122Y497532D02*
G03*
X764122Y497532I-2032J0D01*
G01*
X762326Y495736D02*
G03*
X762326Y495736I-2032J0D01*
G01*
X769510Y499328D02*
G03*
X769510Y499328I-2032J0D01*
G01*
X767714Y497532D02*
G03*
X767714Y497532I-2032J0D01*
G01*
X765918Y495736D02*
G03*
X765918Y495736I-2032J0D01*
G01*
X764122Y493940D02*
G03*
X764122Y493940I-2032J0D01*
G01*
X769510Y495736D02*
G03*
X769510Y495736I-2032J0D01*
G01*
X767714Y493940D02*
G03*
X767714Y493940I-2032J0D01*
G01*
X765918Y492144D02*
G03*
X765918Y492144I-2032J0D01*
G01*
X771307Y493940D02*
G03*
X771307Y493940I-2032J0D01*
G01*
X769510Y492144D02*
G03*
X769510Y492144I-2032J0D01*
G01*
X767714Y490348D02*
G03*
X767714Y490348I-2032J0D01*
G01*
X771307D02*
G03*
X771307Y490348I-2032J0D01*
G01*
X769510Y488552D02*
G03*
X769510Y488552I-2032J0D01*
G01*
X773102D02*
G03*
X773102Y488552I-2032J0D01*
G01*
X771307Y486755D02*
G03*
X771307Y486755I-2032J0D01*
G01*
X774899D02*
G03*
X774899Y486755I-2032J0D01*
G01*
X773102Y484959D02*
G03*
X773102Y484959I-2032J0D01*
G01*
X776695D02*
G03*
X776695Y484959I-2032J0D01*
G01*
X774899Y483163D02*
G03*
X774899Y483163I-2032J0D01*
G01*
X796451Y504716D02*
G03*
X796451Y504716I-2032J0D01*
G01*
X798247Y506512D02*
G03*
X798247Y506512I-2032J0D01*
G01*
X796451Y508308D02*
G03*
X796451Y508308I-2032J0D01*
G01*
X780287Y513696D02*
G03*
X780287Y513696I-2032J0D01*
G01*
X776695Y517288D02*
G03*
X776695Y517288I-2032J0D01*
G01*
X773102D02*
G03*
X773102Y517288I-2032J0D01*
G01*
X796451Y461611D02*
G03*
X796451Y461611I-2032J0D01*
G01*
X798247Y463407D02*
G03*
X798247Y463407I-2032J0D01*
G01*
X794655D02*
G03*
X794655Y463407I-2032J0D01*
G01*
X796451Y465203D02*
G03*
X796451Y465203I-2032J0D01*
G01*
X792859D02*
G03*
X792859Y465203I-2032J0D01*
G01*
X794655Y466999D02*
G03*
X794655Y466999I-2032J0D01*
G01*
X791063D02*
G03*
X791063Y466999I-2032J0D01*
G01*
X792859Y468795D02*
G03*
X792859Y468795I-2032J0D01*
G01*
X789267D02*
G03*
X789267Y468795I-2032J0D01*
G01*
X791063Y470591D02*
G03*
X791063Y470591I-2032J0D01*
G01*
X787471D02*
G03*
X787471Y470591I-2032J0D01*
G01*
X789267Y472387D02*
G03*
X789267Y472387I-2032J0D01*
G01*
X785675D02*
G03*
X785675Y472387I-2032J0D01*
G01*
X787471Y474183D02*
G03*
X787471Y474183I-2032J0D01*
G01*
X789267Y475979D02*
G03*
X789267Y475979I-2032J0D01*
G01*
X783879Y474183D02*
G03*
X783879Y474183I-2032J0D01*
G01*
X785675Y475979D02*
G03*
X785675Y475979I-2032J0D01*
G01*
X787471Y477775D02*
G03*
X787471Y477775I-2032J0D01*
G01*
X782083Y475979D02*
G03*
X782083Y475979I-2032J0D01*
G01*
X783879Y477775D02*
G03*
X783879Y477775I-2032J0D01*
G01*
X785675Y479571D02*
G03*
X785675Y479571I-2032J0D01*
G01*
X787471Y481367D02*
G03*
X787471Y481367I-2032J0D01*
G01*
X780287Y477775D02*
G03*
X780287Y477775I-2032J0D01*
G01*
X782083Y479571D02*
G03*
X782083Y479571I-2032J0D01*
G01*
X783879Y481367D02*
G03*
X783879Y481367I-2032J0D01*
G01*
X785675Y483163D02*
G03*
X785675Y483163I-2032J0D01*
G01*
X787471Y484959D02*
G03*
X787471Y484959I-2032J0D01*
G01*
X789267Y486755D02*
G03*
X789267Y486755I-2032J0D01*
G01*
X792859Y490348D02*
G03*
X792859Y490348I-2032J0D01*
G01*
X778491Y479571D02*
G03*
X778491Y479571I-2032J0D01*
G01*
X780287Y481367D02*
G03*
X780287Y481367I-2032J0D01*
G01*
X782083Y483163D02*
G03*
X782083Y483163I-2032J0D01*
G01*
X783879Y484959D02*
G03*
X783879Y484959I-2032J0D01*
G01*
X780287D02*
G03*
X780287Y484959I-2032J0D01*
G01*
X778491Y483163D02*
G03*
X778491Y483163I-2032J0D01*
G01*
X776695Y481367D02*
G03*
X776695Y481367I-2032J0D01*
G01*
X818004Y483163D02*
G03*
X818004Y483163I-2032J0D01*
G01*
X819800Y484959D02*
G03*
X819800Y484959I-2032J0D01*
G01*
X816208D02*
G03*
X816208Y484959I-2032J0D01*
G01*
X818004Y486755D02*
G03*
X818004Y486755I-2032J0D01*
G01*
X814412D02*
G03*
X814412Y486755I-2032J0D01*
G01*
X816208Y488552D02*
G03*
X816208Y488552I-2032J0D01*
G01*
X812616D02*
G03*
X812616Y488552I-2032J0D01*
G01*
X814412Y490348D02*
G03*
X814412Y490348I-2032J0D01*
G01*
X810820D02*
G03*
X810820Y490348I-2032J0D01*
G01*
X812616Y492144D02*
G03*
X812616Y492144I-2032J0D01*
G01*
X809024D02*
G03*
X809024Y492144I-2032J0D01*
G01*
X810820Y493940D02*
G03*
X810820Y493940I-2032J0D01*
G01*
X805431Y492144D02*
G03*
X805431Y492144I-2032J0D01*
G01*
X807227Y493940D02*
G03*
X807227Y493940I-2032J0D01*
G01*
X809024Y495736D02*
G03*
X809024Y495736I-2032J0D01*
G01*
X801839Y492144D02*
G03*
X801839Y492144I-2032J0D01*
G01*
X803635Y493940D02*
G03*
X803635Y493940I-2032J0D01*
G01*
X805431Y495736D02*
G03*
X805431Y495736I-2032J0D01*
G01*
X807227Y497532D02*
G03*
X807227Y497532I-2032J0D01*
G01*
X798247Y492144D02*
G03*
X798247Y492144I-2032J0D01*
G01*
X800043Y493940D02*
G03*
X800043Y493940I-2032J0D01*
G01*
X801839Y495736D02*
G03*
X801839Y495736I-2032J0D01*
G01*
X803635Y497532D02*
G03*
X803635Y497532I-2032J0D01*
G01*
X805431Y499328D02*
G03*
X805431Y499328I-2032J0D01*
G01*
X794655Y492144D02*
G03*
X794655Y492144I-2032J0D01*
G01*
X796451Y493940D02*
G03*
X796451Y493940I-2032J0D01*
G01*
X798247Y495736D02*
G03*
X798247Y495736I-2032J0D01*
G01*
X800043Y497532D02*
G03*
X800043Y497532I-2032J0D01*
G01*
X801839Y499328D02*
G03*
X801839Y499328I-2032J0D01*
G01*
X803635Y501124D02*
G03*
X803635Y501124I-2032J0D01*
G01*
X796451Y497532D02*
G03*
X796451Y497532I-2032J0D01*
G01*
X798247Y499328D02*
G03*
X798247Y499328I-2032J0D01*
G01*
X800043Y501124D02*
G03*
X800043Y501124I-2032J0D01*
G01*
X801839Y502920D02*
G03*
X801839Y502920I-2032J0D01*
G01*
X800043Y504716D02*
G03*
X800043Y504716I-2032J0D01*
G01*
X798247Y502920D02*
G03*
X798247Y502920I-2032J0D01*
G01*
X796451Y501124D02*
G03*
X796451Y501124I-2032J0D01*
G01*
X982472Y763270D02*
G03*
X982472Y763270I-2032J0D01*
G01*
X984268Y765066D02*
G03*
X984268Y765066I-2032J0D01*
G01*
X986064Y766862D02*
G03*
X986064Y766862I-2032J0D01*
G01*
X987860Y768658D02*
G03*
X987860Y768658I-2032J0D01*
G01*
X989656Y770454D02*
G03*
X989656Y770454I-2032J0D01*
G01*
X991452Y772250D02*
G03*
X991452Y772250I-2032J0D01*
G01*
X993248Y774046D02*
G03*
X993248Y774046I-2032J0D01*
G01*
X995044Y775842D02*
G03*
X995044Y775842I-2032J0D01*
G01*
X996840Y774046D02*
G03*
X996840Y774046I-2032J0D01*
G01*
X995044Y772250D02*
G03*
X995044Y772250I-2032J0D01*
G01*
X993248Y770454D02*
G03*
X993248Y770454I-2032J0D01*
G01*
X991452Y768658D02*
G03*
X991452Y768658I-2032J0D01*
G01*
X989656Y766862D02*
G03*
X989656Y766862I-2032J0D01*
G01*
X987860Y765066D02*
G03*
X987860Y765066I-2032J0D01*
G01*
X986064Y763270D02*
G03*
X986064Y763270I-2032J0D01*
G01*
X984268Y761474D02*
G03*
X984268Y761474I-2032J0D01*
G01*
X998636Y772250D02*
G03*
X998636Y772250I-2032J0D01*
G01*
X996840Y770454D02*
G03*
X996840Y770454I-2032J0D01*
G01*
X995044Y768658D02*
G03*
X995044Y768658I-2032J0D01*
G01*
X993248Y766862D02*
G03*
X993248Y766862I-2032J0D01*
G01*
X991452Y765066D02*
G03*
X991452Y765066I-2032J0D01*
G01*
X989656Y763270D02*
G03*
X989656Y763270I-2032J0D01*
G01*
X987860Y761474D02*
G03*
X987860Y761474I-2032J0D01*
G01*
X986064Y759678D02*
G03*
X986064Y759678I-2032J0D01*
G01*
X1000433Y770454D02*
G03*
X1000433Y770454I-2032J0D01*
G01*
X998636Y768658D02*
G03*
X998636Y768658I-2032J0D01*
G01*
X996840Y766862D02*
G03*
X996840Y766862I-2032J0D01*
G01*
X995044Y765066D02*
G03*
X995044Y765066I-2032J0D01*
G01*
X993248Y763270D02*
G03*
X993248Y763270I-2032J0D01*
G01*
X991452Y761474D02*
G03*
X991452Y761474I-2032J0D01*
G01*
X989656Y759678D02*
G03*
X989656Y759678I-2032J0D01*
G01*
X987860Y757882D02*
G03*
X987860Y757882I-2032J0D01*
G01*
X1002229Y768658D02*
G03*
X1002229Y768658I-2032J0D01*
G01*
X1000433Y766862D02*
G03*
X1000433Y766862I-2032J0D01*
G01*
X998636Y765066D02*
G03*
X998636Y765066I-2032J0D01*
G01*
X996840Y763270D02*
G03*
X996840Y763270I-2032J0D01*
G01*
X995044Y761474D02*
G03*
X995044Y761474I-2032J0D01*
G01*
X993248Y759678D02*
G03*
X993248Y759678I-2032J0D01*
G01*
X991452Y757882D02*
G03*
X991452Y757882I-2032J0D01*
G01*
X989656Y756086D02*
G03*
X989656Y756086I-2032J0D01*
G01*
X1004025Y766862D02*
G03*
X1004025Y766862I-2032J0D01*
G01*
X1002229Y765066D02*
G03*
X1002229Y765066I-2032J0D01*
G01*
X1000433Y763270D02*
G03*
X1000433Y763270I-2032J0D01*
G01*
X998636Y761474D02*
G03*
X998636Y761474I-2032J0D01*
G01*
X996840Y759678D02*
G03*
X996840Y759678I-2032J0D01*
G01*
X995044Y757882D02*
G03*
X995044Y757882I-2032J0D01*
G01*
X993248Y756086D02*
G03*
X993248Y756086I-2032J0D01*
G01*
X991452Y754290D02*
G03*
X991452Y754290I-2032J0D01*
G01*
X1005821Y765066D02*
G03*
X1005821Y765066I-2032J0D01*
G01*
X1004025Y763270D02*
G03*
X1004025Y763270I-2032J0D01*
G01*
X1002229Y761474D02*
G03*
X1002229Y761474I-2032J0D01*
G01*
X1000433Y759678D02*
G03*
X1000433Y759678I-2032J0D01*
G01*
X998636Y757882D02*
G03*
X998636Y757882I-2032J0D01*
G01*
X996840Y756086D02*
G03*
X996840Y756086I-2032J0D01*
G01*
X995044Y754290D02*
G03*
X995044Y754290I-2032J0D01*
G01*
X993248Y752494D02*
G03*
X993248Y752494I-2032J0D01*
G01*
X1007617Y763270D02*
G03*
X1007617Y763270I-2032J0D01*
G01*
X1005821Y761474D02*
G03*
X1005821Y761474I-2032J0D01*
G01*
X1004025Y759678D02*
G03*
X1004025Y759678I-2032J0D01*
G01*
X1002229Y757882D02*
G03*
X1002229Y757882I-2032J0D01*
G01*
X1000433Y756086D02*
G03*
X1000433Y756086I-2032J0D01*
G01*
X998636Y754290D02*
G03*
X998636Y754290I-2032J0D01*
G01*
X996840Y752494D02*
G03*
X996840Y752494I-2032J0D01*
G01*
X995044Y750698D02*
G03*
X995044Y750698I-2032J0D01*
G01*
X1009413Y761474D02*
G03*
X1009413Y761474I-2032J0D01*
G01*
X1007617Y759678D02*
G03*
X1007617Y759678I-2032J0D01*
G01*
X1005821Y757882D02*
G03*
X1005821Y757882I-2032J0D01*
G01*
X1004025Y756086D02*
G03*
X1004025Y756086I-2032J0D01*
G01*
X1002229Y754290D02*
G03*
X1002229Y754290I-2032J0D01*
G01*
X1000433Y752494D02*
G03*
X1000433Y752494I-2032J0D01*
G01*
X998636Y750698D02*
G03*
X998636Y750698I-2032J0D01*
G01*
X996840Y748902D02*
G03*
X996840Y748902I-2032J0D01*
G01*
X1011209Y759678D02*
G03*
X1011209Y759678I-2032J0D01*
G01*
X1009413Y757882D02*
G03*
X1009413Y757882I-2032J0D01*
G01*
X1007617Y756086D02*
G03*
X1007617Y756086I-2032J0D01*
G01*
X1005821Y754290D02*
G03*
X1005821Y754290I-2032J0D01*
G01*
X1004025Y752494D02*
G03*
X1004025Y752494I-2032J0D01*
G01*
X1002229Y750698D02*
G03*
X1002229Y750698I-2032J0D01*
G01*
X1000433Y748902D02*
G03*
X1000433Y748902I-2032J0D01*
G01*
X998636Y747105D02*
G03*
X998636Y747105I-2032J0D01*
G01*
X1013005Y757882D02*
G03*
X1013005Y757882I-2032J0D01*
G01*
X1011209Y756086D02*
G03*
X1011209Y756086I-2032J0D01*
G01*
X1009413Y754290D02*
G03*
X1009413Y754290I-2032J0D01*
G01*
X1007617Y752494D02*
G03*
X1007617Y752494I-2032J0D01*
G01*
X1005821Y750698D02*
G03*
X1005821Y750698I-2032J0D01*
G01*
X1004025Y748902D02*
G03*
X1004025Y748902I-2032J0D01*
G01*
X1002229Y747105D02*
G03*
X1002229Y747105I-2032J0D01*
G01*
X1000433Y745310D02*
G03*
X1000433Y745310I-2032J0D01*
G01*
X1014801Y756086D02*
G03*
X1014801Y756086I-2032J0D01*
G01*
X1013005Y754290D02*
G03*
X1013005Y754290I-2032J0D01*
G01*
X1011209Y752494D02*
G03*
X1011209Y752494I-2032J0D01*
G01*
X1009413Y750698D02*
G03*
X1009413Y750698I-2032J0D01*
G01*
X1007617Y748902D02*
G03*
X1007617Y748902I-2032J0D01*
G01*
X1005821Y747105D02*
G03*
X1005821Y747105I-2032J0D01*
G01*
X1004025Y745310D02*
G03*
X1004025Y745310I-2032J0D01*
G01*
X1002229Y743513D02*
G03*
X1002229Y743513I-2032J0D01*
G01*
X1016597Y757882D02*
G03*
X1016597Y757882I-2032J0D01*
G01*
X1018393Y759678D02*
G03*
X1018393Y759678I-2032J0D01*
G01*
X1020189Y761474D02*
G03*
X1020189Y761474I-2032J0D01*
G01*
X1021985Y763270D02*
G03*
X1021985Y763270I-2032J0D01*
G01*
X1023781Y765066D02*
G03*
X1023781Y765066I-2032J0D01*
G01*
X1025577Y766862D02*
G03*
X1025577Y766862I-2032J0D01*
G01*
X1014801Y759678D02*
G03*
X1014801Y759678I-2032J0D01*
G01*
X1016597Y761474D02*
G03*
X1016597Y761474I-2032J0D01*
G01*
X1018393Y763270D02*
G03*
X1018393Y763270I-2032J0D01*
G01*
X1020189Y765066D02*
G03*
X1020189Y765066I-2032J0D01*
G01*
X1021985Y766862D02*
G03*
X1021985Y766862I-2032J0D01*
G01*
X1023781Y768658D02*
G03*
X1023781Y768658I-2032J0D01*
G01*
X1013005Y761474D02*
G03*
X1013005Y761474I-2032J0D01*
G01*
X1014801Y763270D02*
G03*
X1014801Y763270I-2032J0D01*
G01*
X1016597Y765066D02*
G03*
X1016597Y765066I-2032J0D01*
G01*
X1018393Y766862D02*
G03*
X1018393Y766862I-2032J0D01*
G01*
X1020189Y768658D02*
G03*
X1020189Y768658I-2032J0D01*
G01*
X1021985Y770454D02*
G03*
X1021985Y770454I-2032J0D01*
G01*
X1011209Y763270D02*
G03*
X1011209Y763270I-2032J0D01*
G01*
X1013005Y765066D02*
G03*
X1013005Y765066I-2032J0D01*
G01*
X1014801Y766862D02*
G03*
X1014801Y766862I-2032J0D01*
G01*
X1016597Y768658D02*
G03*
X1016597Y768658I-2032J0D01*
G01*
X1018393Y770454D02*
G03*
X1018393Y770454I-2032J0D01*
G01*
X1020189Y772250D02*
G03*
X1020189Y772250I-2032J0D01*
G01*
X1009413Y765066D02*
G03*
X1009413Y765066I-2032J0D01*
G01*
X1011209Y766862D02*
G03*
X1011209Y766862I-2032J0D01*
G01*
X1013005Y768658D02*
G03*
X1013005Y768658I-2032J0D01*
G01*
X1014801Y770454D02*
G03*
X1014801Y770454I-2032J0D01*
G01*
X1016597Y772250D02*
G03*
X1016597Y772250I-2032J0D01*
G01*
X1018393Y774046D02*
G03*
X1018393Y774046I-2032J0D01*
G01*
X1007617Y766862D02*
G03*
X1007617Y766862I-2032J0D01*
G01*
X1009413Y768658D02*
G03*
X1009413Y768658I-2032J0D01*
G01*
X1011209Y770454D02*
G03*
X1011209Y770454I-2032J0D01*
G01*
X1013005Y772250D02*
G03*
X1013005Y772250I-2032J0D01*
G01*
X1014801Y774046D02*
G03*
X1014801Y774046I-2032J0D01*
G01*
X1016597Y775842D02*
G03*
X1016597Y775842I-2032J0D01*
G01*
X1005821Y768658D02*
G03*
X1005821Y768658I-2032J0D01*
G01*
X1007617Y770454D02*
G03*
X1007617Y770454I-2032J0D01*
G01*
X1009413Y772250D02*
G03*
X1009413Y772250I-2032J0D01*
G01*
X1011209Y774046D02*
G03*
X1011209Y774046I-2032J0D01*
G01*
X1013005Y775842D02*
G03*
X1013005Y775842I-2032J0D01*
G01*
X1014801Y777638D02*
G03*
X1014801Y777638I-2032J0D01*
G01*
X1004025Y770454D02*
G03*
X1004025Y770454I-2032J0D01*
G01*
X1005821Y772250D02*
G03*
X1005821Y772250I-2032J0D01*
G01*
X1007617Y774046D02*
G03*
X1007617Y774046I-2032J0D01*
G01*
X1009413Y775842D02*
G03*
X1009413Y775842I-2032J0D01*
G01*
X1011209Y777638D02*
G03*
X1011209Y777638I-2032J0D01*
G01*
X1013005Y779435D02*
G03*
X1013005Y779435I-2032J0D01*
G01*
X1002229Y772250D02*
G03*
X1002229Y772250I-2032J0D01*
G01*
X1004025Y774046D02*
G03*
X1004025Y774046I-2032J0D01*
G01*
X1005821Y775842D02*
G03*
X1005821Y775842I-2032J0D01*
G01*
X1007617Y777638D02*
G03*
X1007617Y777638I-2032J0D01*
G01*
X1009413Y779435D02*
G03*
X1009413Y779435I-2032J0D01*
G01*
X1011209Y781230D02*
G03*
X1011209Y781230I-2032J0D01*
G01*
X1000433Y774046D02*
G03*
X1000433Y774046I-2032J0D01*
G01*
X1002229Y775842D02*
G03*
X1002229Y775842I-2032J0D01*
G01*
X1004025Y777638D02*
G03*
X1004025Y777638I-2032J0D01*
G01*
X1005821Y779435D02*
G03*
X1005821Y779435I-2032J0D01*
G01*
X1007617Y781230D02*
G03*
X1007617Y781230I-2032J0D01*
G01*
X1009413Y783027D02*
G03*
X1009413Y783027I-2032J0D01*
G01*
X998636Y775842D02*
G03*
X998636Y775842I-2032J0D01*
G01*
X1000433Y777638D02*
G03*
X1000433Y777638I-2032J0D01*
G01*
X1002229Y779435D02*
G03*
X1002229Y779435I-2032J0D01*
G01*
X1004025Y781230D02*
G03*
X1004025Y781230I-2032J0D01*
G01*
X1005821Y783027D02*
G03*
X1005821Y783027I-2032J0D01*
G01*
X1007617Y784823D02*
G03*
X1007617Y784823I-2032J0D01*
G01*
X1005821Y786619D02*
G03*
X1005821Y786619I-2032J0D01*
G01*
X1004025Y784823D02*
G03*
X1004025Y784823I-2032J0D01*
G01*
X1002229Y783027D02*
G03*
X1002229Y783027I-2032J0D01*
G01*
X1000433Y781230D02*
G03*
X1000433Y781230I-2032J0D01*
G01*
X998636Y779435D02*
G03*
X998636Y779435I-2032J0D01*
G01*
X996840Y777638D02*
G03*
X996840Y777638I-2032J0D01*
G01*
X1023781Y721961D02*
G03*
X1023781Y721961I-2032J0D01*
G01*
X1025577Y723757D02*
G03*
X1025577Y723757I-2032J0D01*
G01*
X1027373Y725553D02*
G03*
X1027373Y725553I-2032J0D01*
G01*
X1029169Y727349D02*
G03*
X1029169Y727349I-2032J0D01*
G01*
X1030965Y729145D02*
G03*
X1030965Y729145I-2032J0D01*
G01*
X1032761Y730941D02*
G03*
X1032761Y730941I-2032J0D01*
G01*
X1034557Y732737D02*
G03*
X1034557Y732737I-2032J0D01*
G01*
X1036354Y734533D02*
G03*
X1036354Y734533I-2032J0D01*
G01*
X1021985Y723757D02*
G03*
X1021985Y723757I-2032J0D01*
G01*
X1023781Y725553D02*
G03*
X1023781Y725553I-2032J0D01*
G01*
X1025577Y727349D02*
G03*
X1025577Y727349I-2032J0D01*
G01*
X1027373Y729145D02*
G03*
X1027373Y729145I-2032J0D01*
G01*
X1029169Y730941D02*
G03*
X1029169Y730941I-2032J0D01*
G01*
X1030965Y732737D02*
G03*
X1030965Y732737I-2032J0D01*
G01*
X1032761Y734533D02*
G03*
X1032761Y734533I-2032J0D01*
G01*
X1034557Y736329D02*
G03*
X1034557Y736329I-2032J0D01*
G01*
X1020189Y725553D02*
G03*
X1020189Y725553I-2032J0D01*
G01*
X1021985Y727349D02*
G03*
X1021985Y727349I-2032J0D01*
G01*
X1023781Y729145D02*
G03*
X1023781Y729145I-2032J0D01*
G01*
X1025577Y730941D02*
G03*
X1025577Y730941I-2032J0D01*
G01*
X1027373Y732737D02*
G03*
X1027373Y732737I-2032J0D01*
G01*
X1029169Y734533D02*
G03*
X1029169Y734533I-2032J0D01*
G01*
X1030965Y736329D02*
G03*
X1030965Y736329I-2032J0D01*
G01*
X1032761Y738125D02*
G03*
X1032761Y738125I-2032J0D01*
G01*
X1018393Y727349D02*
G03*
X1018393Y727349I-2032J0D01*
G01*
X1020189Y729145D02*
G03*
X1020189Y729145I-2032J0D01*
G01*
X1021985Y730941D02*
G03*
X1021985Y730941I-2032J0D01*
G01*
X1023781Y732737D02*
G03*
X1023781Y732737I-2032J0D01*
G01*
X1025577Y734533D02*
G03*
X1025577Y734533I-2032J0D01*
G01*
X1027373Y736329D02*
G03*
X1027373Y736329I-2032J0D01*
G01*
X1029169Y738125D02*
G03*
X1029169Y738125I-2032J0D01*
G01*
X1030965Y739921D02*
G03*
X1030965Y739921I-2032J0D01*
G01*
X1016597Y729145D02*
G03*
X1016597Y729145I-2032J0D01*
G01*
X1018393Y730941D02*
G03*
X1018393Y730941I-2032J0D01*
G01*
X1020189Y732737D02*
G03*
X1020189Y732737I-2032J0D01*
G01*
X1021985Y734533D02*
G03*
X1021985Y734533I-2032J0D01*
G01*
X1023781Y736329D02*
G03*
X1023781Y736329I-2032J0D01*
G01*
X1025577Y738125D02*
G03*
X1025577Y738125I-2032J0D01*
G01*
X1027373Y739921D02*
G03*
X1027373Y739921I-2032J0D01*
G01*
X1029169Y741717D02*
G03*
X1029169Y741717I-2032J0D01*
G01*
X1014801Y730941D02*
G03*
X1014801Y730941I-2032J0D01*
G01*
X1016597Y732737D02*
G03*
X1016597Y732737I-2032J0D01*
G01*
X1018393Y734533D02*
G03*
X1018393Y734533I-2032J0D01*
G01*
X1020189Y736329D02*
G03*
X1020189Y736329I-2032J0D01*
G01*
X1021985Y738125D02*
G03*
X1021985Y738125I-2032J0D01*
G01*
X1023781Y739921D02*
G03*
X1023781Y739921I-2032J0D01*
G01*
X1025577Y741717D02*
G03*
X1025577Y741717I-2032J0D01*
G01*
X1027373Y743513D02*
G03*
X1027373Y743513I-2032J0D01*
G01*
X1013005Y732737D02*
G03*
X1013005Y732737I-2032J0D01*
G01*
X1014801Y734533D02*
G03*
X1014801Y734533I-2032J0D01*
G01*
X1016597Y736329D02*
G03*
X1016597Y736329I-2032J0D01*
G01*
X1018393Y738125D02*
G03*
X1018393Y738125I-2032J0D01*
G01*
X1020189Y739921D02*
G03*
X1020189Y739921I-2032J0D01*
G01*
X1021985Y741717D02*
G03*
X1021985Y741717I-2032J0D01*
G01*
X1023781Y743513D02*
G03*
X1023781Y743513I-2032J0D01*
G01*
X1025577Y745310D02*
G03*
X1025577Y745310I-2032J0D01*
G01*
X1011209Y734533D02*
G03*
X1011209Y734533I-2032J0D01*
G01*
X1013005Y736329D02*
G03*
X1013005Y736329I-2032J0D01*
G01*
X1014801Y738125D02*
G03*
X1014801Y738125I-2032J0D01*
G01*
X1016597Y739921D02*
G03*
X1016597Y739921I-2032J0D01*
G01*
X1018393Y741717D02*
G03*
X1018393Y741717I-2032J0D01*
G01*
X1020189Y743513D02*
G03*
X1020189Y743513I-2032J0D01*
G01*
X1021985Y745310D02*
G03*
X1021985Y745310I-2032J0D01*
G01*
X1023781Y747105D02*
G03*
X1023781Y747105I-2032J0D01*
G01*
X1009413Y736329D02*
G03*
X1009413Y736329I-2032J0D01*
G01*
X1011209Y738125D02*
G03*
X1011209Y738125I-2032J0D01*
G01*
X1013005Y739921D02*
G03*
X1013005Y739921I-2032J0D01*
G01*
X1014801Y741717D02*
G03*
X1014801Y741717I-2032J0D01*
G01*
X1016597Y743513D02*
G03*
X1016597Y743513I-2032J0D01*
G01*
X1018393Y745310D02*
G03*
X1018393Y745310I-2032J0D01*
G01*
X1020189Y747105D02*
G03*
X1020189Y747105I-2032J0D01*
G01*
X1021985Y748902D02*
G03*
X1021985Y748902I-2032J0D01*
G01*
X1007617Y738125D02*
G03*
X1007617Y738125I-2032J0D01*
G01*
X1009413Y739921D02*
G03*
X1009413Y739921I-2032J0D01*
G01*
X1011209Y741717D02*
G03*
X1011209Y741717I-2032J0D01*
G01*
X1013005Y743513D02*
G03*
X1013005Y743513I-2032J0D01*
G01*
X1014801Y745310D02*
G03*
X1014801Y745310I-2032J0D01*
G01*
X1016597Y747105D02*
G03*
X1016597Y747105I-2032J0D01*
G01*
X1018393Y748902D02*
G03*
X1018393Y748902I-2032J0D01*
G01*
X1020189Y750698D02*
G03*
X1020189Y750698I-2032J0D01*
G01*
X1005821Y739921D02*
G03*
X1005821Y739921I-2032J0D01*
G01*
X1007617Y741717D02*
G03*
X1007617Y741717I-2032J0D01*
G01*
X1009413Y743513D02*
G03*
X1009413Y743513I-2032J0D01*
G01*
X1011209Y745310D02*
G03*
X1011209Y745310I-2032J0D01*
G01*
X1013005Y747105D02*
G03*
X1013005Y747105I-2032J0D01*
G01*
X1014801Y748902D02*
G03*
X1014801Y748902I-2032J0D01*
G01*
X1016597Y750698D02*
G03*
X1016597Y750698I-2032J0D01*
G01*
X1018393Y752494D02*
G03*
X1018393Y752494I-2032J0D01*
G01*
X1016597Y754290D02*
G03*
X1016597Y754290I-2032J0D01*
G01*
X1014801Y752494D02*
G03*
X1014801Y752494I-2032J0D01*
G01*
X1013005Y750698D02*
G03*
X1013005Y750698I-2032J0D01*
G01*
X1011209Y748902D02*
G03*
X1011209Y748902I-2032J0D01*
G01*
X1009413Y747105D02*
G03*
X1009413Y747105I-2032J0D01*
G01*
X1007617Y745310D02*
G03*
X1007617Y745310I-2032J0D01*
G01*
X1005821Y743513D02*
G03*
X1005821Y743513I-2032J0D01*
G01*
X1004025Y741717D02*
G03*
X1004025Y741717I-2032J0D01*
G01*
X1038150Y736329D02*
G03*
X1038150Y736329I-2032J0D01*
G01*
X1039946Y738125D02*
G03*
X1039946Y738125I-2032J0D01*
G01*
X1041742Y739921D02*
G03*
X1041742Y739921I-2032J0D01*
G01*
X1043538Y741717D02*
G03*
X1043538Y741717I-2032J0D01*
G01*
X1045334Y743513D02*
G03*
X1045334Y743513I-2032J0D01*
G01*
X1047130Y745310D02*
G03*
X1047130Y745310I-2032J0D01*
G01*
X1036354Y738125D02*
G03*
X1036354Y738125I-2032J0D01*
G01*
X1038150Y739921D02*
G03*
X1038150Y739921I-2032J0D01*
G01*
X1039946Y741717D02*
G03*
X1039946Y741717I-2032J0D01*
G01*
X1041742Y743513D02*
G03*
X1041742Y743513I-2032J0D01*
G01*
X1043538Y745310D02*
G03*
X1043538Y745310I-2032J0D01*
G01*
X1045334Y747105D02*
G03*
X1045334Y747105I-2032J0D01*
G01*
X1034557Y739921D02*
G03*
X1034557Y739921I-2032J0D01*
G01*
X1036354Y741717D02*
G03*
X1036354Y741717I-2032J0D01*
G01*
X1038150Y743513D02*
G03*
X1038150Y743513I-2032J0D01*
G01*
X1039946Y745310D02*
G03*
X1039946Y745310I-2032J0D01*
G01*
X1041742Y747105D02*
G03*
X1041742Y747105I-2032J0D01*
G01*
X1043538Y748902D02*
G03*
X1043538Y748902I-2032J0D01*
G01*
X1032761Y741717D02*
G03*
X1032761Y741717I-2032J0D01*
G01*
X1034557Y743513D02*
G03*
X1034557Y743513I-2032J0D01*
G01*
X1036354Y745310D02*
G03*
X1036354Y745310I-2032J0D01*
G01*
X1038150Y747105D02*
G03*
X1038150Y747105I-2032J0D01*
G01*
X1039946Y748902D02*
G03*
X1039946Y748902I-2032J0D01*
G01*
X1041742Y750698D02*
G03*
X1041742Y750698I-2032J0D01*
G01*
X1030965Y743513D02*
G03*
X1030965Y743513I-2032J0D01*
G01*
X1032761Y745310D02*
G03*
X1032761Y745310I-2032J0D01*
G01*
X1034557Y747105D02*
G03*
X1034557Y747105I-2032J0D01*
G01*
X1036354Y748902D02*
G03*
X1036354Y748902I-2032J0D01*
G01*
X1038150Y750698D02*
G03*
X1038150Y750698I-2032J0D01*
G01*
X1039946Y752494D02*
G03*
X1039946Y752494I-2032J0D01*
G01*
X1029169Y745310D02*
G03*
X1029169Y745310I-2032J0D01*
G01*
X1030965Y747105D02*
G03*
X1030965Y747105I-2032J0D01*
G01*
X1032761Y748902D02*
G03*
X1032761Y748902I-2032J0D01*
G01*
X1034557Y750698D02*
G03*
X1034557Y750698I-2032J0D01*
G01*
X1036354Y752494D02*
G03*
X1036354Y752494I-2032J0D01*
G01*
X1038150Y754290D02*
G03*
X1038150Y754290I-2032J0D01*
G01*
X1027373Y747105D02*
G03*
X1027373Y747105I-2032J0D01*
G01*
X1029169Y748902D02*
G03*
X1029169Y748902I-2032J0D01*
G01*
X1030965Y750698D02*
G03*
X1030965Y750698I-2032J0D01*
G01*
X1032761Y752494D02*
G03*
X1032761Y752494I-2032J0D01*
G01*
X1034557Y754290D02*
G03*
X1034557Y754290I-2032J0D01*
G01*
X1036354Y756086D02*
G03*
X1036354Y756086I-2032J0D01*
G01*
X1025577Y748902D02*
G03*
X1025577Y748902I-2032J0D01*
G01*
X1027373Y750698D02*
G03*
X1027373Y750698I-2032J0D01*
G01*
X1029169Y752494D02*
G03*
X1029169Y752494I-2032J0D01*
G01*
X1030965Y754290D02*
G03*
X1030965Y754290I-2032J0D01*
G01*
X1032761Y756086D02*
G03*
X1032761Y756086I-2032J0D01*
G01*
X1034557Y757882D02*
G03*
X1034557Y757882I-2032J0D01*
G01*
X1023781Y750698D02*
G03*
X1023781Y750698I-2032J0D01*
G01*
X1025577Y752494D02*
G03*
X1025577Y752494I-2032J0D01*
G01*
X1027373Y754290D02*
G03*
X1027373Y754290I-2032J0D01*
G01*
X1029169Y756086D02*
G03*
X1029169Y756086I-2032J0D01*
G01*
X1030965Y757882D02*
G03*
X1030965Y757882I-2032J0D01*
G01*
X1032761Y759678D02*
G03*
X1032761Y759678I-2032J0D01*
G01*
X1021985Y752494D02*
G03*
X1021985Y752494I-2032J0D01*
G01*
X1023781Y754290D02*
G03*
X1023781Y754290I-2032J0D01*
G01*
X1025577Y756086D02*
G03*
X1025577Y756086I-2032J0D01*
G01*
X1027373Y757882D02*
G03*
X1027373Y757882I-2032J0D01*
G01*
X1029169Y759678D02*
G03*
X1029169Y759678I-2032J0D01*
G01*
X1030965Y761474D02*
G03*
X1030965Y761474I-2032J0D01*
G01*
X1020189Y754290D02*
G03*
X1020189Y754290I-2032J0D01*
G01*
X1021985Y756086D02*
G03*
X1021985Y756086I-2032J0D01*
G01*
X1023781Y757882D02*
G03*
X1023781Y757882I-2032J0D01*
G01*
X1025577Y759678D02*
G03*
X1025577Y759678I-2032J0D01*
G01*
X1027373Y761474D02*
G03*
X1027373Y761474I-2032J0D01*
G01*
X1029169Y763270D02*
G03*
X1029169Y763270I-2032J0D01*
G01*
X1027373Y765066D02*
G03*
X1027373Y765066I-2032J0D01*
G01*
X1025577Y763270D02*
G03*
X1025577Y763270I-2032J0D01*
G01*
X1023781Y761474D02*
G03*
X1023781Y761474I-2032J0D01*
G01*
X1021985Y759678D02*
G03*
X1021985Y759678I-2032J0D01*
G01*
X1020189Y757882D02*
G03*
X1020189Y757882I-2032J0D01*
G01*
X1018393Y756086D02*
G03*
X1018393Y756086I-2032J0D01*
G01*
X1065022Y840740D02*
G03*
X1065022Y840740I-2032J0D01*
G01*
X1066818Y842536D02*
G03*
X1066818Y842536I-2032J0D01*
G01*
X1068614Y844332D02*
G03*
X1068614Y844332I-2032J0D01*
G01*
X1070410Y846128D02*
G03*
X1070410Y846128I-2032J0D01*
G01*
X1072206Y847924D02*
G03*
X1072206Y847924I-2032J0D01*
G01*
X1074002Y849720D02*
G03*
X1074002Y849720I-2032J0D01*
G01*
X1075798Y851516D02*
G03*
X1075798Y851516I-2032J0D01*
G01*
X1077594Y853312D02*
G03*
X1077594Y853312I-2032J0D01*
G01*
X1079390Y851516D02*
G03*
X1079390Y851516I-2032J0D01*
G01*
X1077594Y849720D02*
G03*
X1077594Y849720I-2032J0D01*
G01*
X1075798Y847924D02*
G03*
X1075798Y847924I-2032J0D01*
G01*
X1074002Y846128D02*
G03*
X1074002Y846128I-2032J0D01*
G01*
X1072206Y844332D02*
G03*
X1072206Y844332I-2032J0D01*
G01*
X1070410Y842536D02*
G03*
X1070410Y842536I-2032J0D01*
G01*
X1068614Y840740D02*
G03*
X1068614Y840740I-2032J0D01*
G01*
X1066818Y838944D02*
G03*
X1066818Y838944I-2032J0D01*
G01*
X1081187Y849720D02*
G03*
X1081187Y849720I-2032J0D01*
G01*
X1079390Y847924D02*
G03*
X1079390Y847924I-2032J0D01*
G01*
X1077594Y846128D02*
G03*
X1077594Y846128I-2032J0D01*
G01*
X1075798Y844332D02*
G03*
X1075798Y844332I-2032J0D01*
G01*
X1074002Y842536D02*
G03*
X1074002Y842536I-2032J0D01*
G01*
X1072206Y840740D02*
G03*
X1072206Y840740I-2032J0D01*
G01*
X1070410Y838944D02*
G03*
X1070410Y838944I-2032J0D01*
G01*
X1068614Y837148D02*
G03*
X1068614Y837148I-2032J0D01*
G01*
X1082982Y847924D02*
G03*
X1082982Y847924I-2032J0D01*
G01*
X1081187Y846128D02*
G03*
X1081187Y846128I-2032J0D01*
G01*
X1079390Y844332D02*
G03*
X1079390Y844332I-2032J0D01*
G01*
X1077594Y842536D02*
G03*
X1077594Y842536I-2032J0D01*
G01*
X1075798Y840740D02*
G03*
X1075798Y840740I-2032J0D01*
G01*
X1074002Y838944D02*
G03*
X1074002Y838944I-2032J0D01*
G01*
X1072206Y837148D02*
G03*
X1072206Y837148I-2032J0D01*
G01*
X1070410Y835352D02*
G03*
X1070410Y835352I-2032J0D01*
G01*
X1084779Y846128D02*
G03*
X1084779Y846128I-2032J0D01*
G01*
X1082982Y844332D02*
G03*
X1082982Y844332I-2032J0D01*
G01*
X1081187Y842536D02*
G03*
X1081187Y842536I-2032J0D01*
G01*
X1079390Y840740D02*
G03*
X1079390Y840740I-2032J0D01*
G01*
X1077594Y838944D02*
G03*
X1077594Y838944I-2032J0D01*
G01*
X1075798Y837148D02*
G03*
X1075798Y837148I-2032J0D01*
G01*
X1074002Y835352D02*
G03*
X1074002Y835352I-2032J0D01*
G01*
X1072206Y833556D02*
G03*
X1072206Y833556I-2032J0D01*
G01*
X1086575Y844332D02*
G03*
X1086575Y844332I-2032J0D01*
G01*
X1084779Y842536D02*
G03*
X1084779Y842536I-2032J0D01*
G01*
X1082982Y840740D02*
G03*
X1082982Y840740I-2032J0D01*
G01*
X1081187Y838944D02*
G03*
X1081187Y838944I-2032J0D01*
G01*
X1079390Y837148D02*
G03*
X1079390Y837148I-2032J0D01*
G01*
X1077594Y835352D02*
G03*
X1077594Y835352I-2032J0D01*
G01*
X1075798Y833556D02*
G03*
X1075798Y833556I-2032J0D01*
G01*
X1074002Y831760D02*
G03*
X1074002Y831760I-2032J0D01*
G01*
X1088371Y842536D02*
G03*
X1088371Y842536I-2032J0D01*
G01*
X1086575Y840740D02*
G03*
X1086575Y840740I-2032J0D01*
G01*
X1084779Y838944D02*
G03*
X1084779Y838944I-2032J0D01*
G01*
X1082982Y837148D02*
G03*
X1082982Y837148I-2032J0D01*
G01*
X1081187Y835352D02*
G03*
X1081187Y835352I-2032J0D01*
G01*
X1079390Y833556D02*
G03*
X1079390Y833556I-2032J0D01*
G01*
X1077594Y831760D02*
G03*
X1077594Y831760I-2032J0D01*
G01*
X1075798Y829964D02*
G03*
X1075798Y829964I-2032J0D01*
G01*
X1090167Y840740D02*
G03*
X1090167Y840740I-2032J0D01*
G01*
X1088371Y838944D02*
G03*
X1088371Y838944I-2032J0D01*
G01*
X1086575Y837148D02*
G03*
X1086575Y837148I-2032J0D01*
G01*
X1084779Y835352D02*
G03*
X1084779Y835352I-2032J0D01*
G01*
X1082982Y833556D02*
G03*
X1082982Y833556I-2032J0D01*
G01*
X1081187Y831760D02*
G03*
X1081187Y831760I-2032J0D01*
G01*
X1079390Y829964D02*
G03*
X1079390Y829964I-2032J0D01*
G01*
X1077594Y828168D02*
G03*
X1077594Y828168I-2032J0D01*
G01*
X1091963Y838944D02*
G03*
X1091963Y838944I-2032J0D01*
G01*
X1090167Y837148D02*
G03*
X1090167Y837148I-2032J0D01*
G01*
X1088371Y835352D02*
G03*
X1088371Y835352I-2032J0D01*
G01*
X1086575Y833556D02*
G03*
X1086575Y833556I-2032J0D01*
G01*
X1084779Y831760D02*
G03*
X1084779Y831760I-2032J0D01*
G01*
X1082982Y829964D02*
G03*
X1082982Y829964I-2032J0D01*
G01*
X1081187Y828168D02*
G03*
X1081187Y828168I-2032J0D01*
G01*
X1079390Y826372D02*
G03*
X1079390Y826372I-2032J0D01*
G01*
X1093759Y837148D02*
G03*
X1093759Y837148I-2032J0D01*
G01*
X1091963Y835352D02*
G03*
X1091963Y835352I-2032J0D01*
G01*
X1090167Y833556D02*
G03*
X1090167Y833556I-2032J0D01*
G01*
X1088371Y831760D02*
G03*
X1088371Y831760I-2032J0D01*
G01*
X1086575Y829964D02*
G03*
X1086575Y829964I-2032J0D01*
G01*
X1084779Y828168D02*
G03*
X1084779Y828168I-2032J0D01*
G01*
X1082982Y826372D02*
G03*
X1082982Y826372I-2032J0D01*
G01*
X1081187Y824576D02*
G03*
X1081187Y824576I-2032J0D01*
G01*
X1095555Y835352D02*
G03*
X1095555Y835352I-2032J0D01*
G01*
X1093759Y833556D02*
G03*
X1093759Y833556I-2032J0D01*
G01*
X1091963Y831760D02*
G03*
X1091963Y831760I-2032J0D01*
G01*
X1090167Y829964D02*
G03*
X1090167Y829964I-2032J0D01*
G01*
X1088371Y828168D02*
G03*
X1088371Y828168I-2032J0D01*
G01*
X1086575Y826372D02*
G03*
X1086575Y826372I-2032J0D01*
G01*
X1084779Y824576D02*
G03*
X1084779Y824576I-2032J0D01*
G01*
X1082982Y822779D02*
G03*
X1082982Y822779I-2032J0D01*
G01*
X1095555Y831760D02*
G03*
X1095555Y831760I-2032J0D01*
G01*
X1093759Y829964D02*
G03*
X1093759Y829964I-2032J0D01*
G01*
X1091963Y828168D02*
G03*
X1091963Y828168I-2032J0D01*
G01*
X1090167Y826372D02*
G03*
X1090167Y826372I-2032J0D01*
G01*
X1088371Y824576D02*
G03*
X1088371Y824576I-2032J0D01*
G01*
X1086575Y822779D02*
G03*
X1086575Y822779I-2032J0D01*
G01*
X1084779Y820983D02*
G03*
X1084779Y820983I-2032J0D01*
G01*
X1100943Y837148D02*
G03*
X1100943Y837148I-2032J0D01*
G01*
X1102739Y838944D02*
G03*
X1102739Y838944I-2032J0D01*
G01*
X1104535Y840740D02*
G03*
X1104535Y840740I-2032J0D01*
G01*
X1106331Y842536D02*
G03*
X1106331Y842536I-2032J0D01*
G01*
X1108127Y844332D02*
G03*
X1108127Y844332I-2032J0D01*
G01*
X1100943Y840740D02*
G03*
X1100943Y840740I-2032J0D01*
G01*
X1102739Y842536D02*
G03*
X1102739Y842536I-2032J0D01*
G01*
X1104535Y844332D02*
G03*
X1104535Y844332I-2032J0D01*
G01*
X1106331Y846128D02*
G03*
X1106331Y846128I-2032J0D01*
G01*
X1095555Y838944D02*
G03*
X1095555Y838944I-2032J0D01*
G01*
X1099147Y842536D02*
G03*
X1099147Y842536I-2032J0D01*
G01*
X1100943Y844332D02*
G03*
X1100943Y844332I-2032J0D01*
G01*
X1102739Y846128D02*
G03*
X1102739Y846128I-2032J0D01*
G01*
X1104535Y847924D02*
G03*
X1104535Y847924I-2032J0D01*
G01*
X1093759Y840740D02*
G03*
X1093759Y840740I-2032J0D01*
G01*
X1095555Y842536D02*
G03*
X1095555Y842536I-2032J0D01*
G01*
X1099147Y846128D02*
G03*
X1099147Y846128I-2032J0D01*
G01*
X1100943Y847924D02*
G03*
X1100943Y847924I-2032J0D01*
G01*
X1102739Y849720D02*
G03*
X1102739Y849720I-2032J0D01*
G01*
X1091963Y842536D02*
G03*
X1091963Y842536I-2032J0D01*
G01*
X1093759Y844332D02*
G03*
X1093759Y844332I-2032J0D01*
G01*
X1097351Y847924D02*
G03*
X1097351Y847924I-2032J0D01*
G01*
X1099147Y849720D02*
G03*
X1099147Y849720I-2032J0D01*
G01*
X1100943Y851516D02*
G03*
X1100943Y851516I-2032J0D01*
G01*
X1090167Y844332D02*
G03*
X1090167Y844332I-2032J0D01*
G01*
X1091963Y846128D02*
G03*
X1091963Y846128I-2032J0D01*
G01*
X1095555Y849720D02*
G03*
X1095555Y849720I-2032J0D01*
G01*
X1097351Y851516D02*
G03*
X1097351Y851516I-2032J0D01*
G01*
X1099147Y853312D02*
G03*
X1099147Y853312I-2032J0D01*
G01*
X1088371Y846128D02*
G03*
X1088371Y846128I-2032J0D01*
G01*
X1090167Y847924D02*
G03*
X1090167Y847924I-2032J0D01*
G01*
X1093759Y851516D02*
G03*
X1093759Y851516I-2032J0D01*
G01*
X1095555Y853312D02*
G03*
X1095555Y853312I-2032J0D01*
G01*
X1097351Y855108D02*
G03*
X1097351Y855108I-2032J0D01*
G01*
X1086575Y847924D02*
G03*
X1086575Y847924I-2032J0D01*
G01*
X1088371Y849720D02*
G03*
X1088371Y849720I-2032J0D01*
G01*
X1091963Y853312D02*
G03*
X1091963Y853312I-2032J0D01*
G01*
X1093759Y855108D02*
G03*
X1093759Y855108I-2032J0D01*
G01*
X1095555Y856905D02*
G03*
X1095555Y856905I-2032J0D01*
G01*
X1084779Y849720D02*
G03*
X1084779Y849720I-2032J0D01*
G01*
X1086575Y851516D02*
G03*
X1086575Y851516I-2032J0D01*
G01*
X1090167Y855108D02*
G03*
X1090167Y855108I-2032J0D01*
G01*
X1091963Y856905D02*
G03*
X1091963Y856905I-2032J0D01*
G01*
X1093759Y858700D02*
G03*
X1093759Y858700I-2032J0D01*
G01*
X1082982Y851516D02*
G03*
X1082982Y851516I-2032J0D01*
G01*
X1084779Y853312D02*
G03*
X1084779Y853312I-2032J0D01*
G01*
X1088371Y856905D02*
G03*
X1088371Y856905I-2032J0D01*
G01*
X1090167Y858700D02*
G03*
X1090167Y858700I-2032J0D01*
G01*
X1091963Y860497D02*
G03*
X1091963Y860497I-2032J0D01*
G01*
X1081187Y853312D02*
G03*
X1081187Y853312I-2032J0D01*
G01*
X1082982Y855108D02*
G03*
X1082982Y855108I-2032J0D01*
G01*
X1086575Y858700D02*
G03*
X1086575Y858700I-2032J0D01*
G01*
X1088371Y860497D02*
G03*
X1088371Y860497I-2032J0D01*
G01*
X1090167Y862293D02*
G03*
X1090167Y862293I-2032J0D01*
G01*
X1088371Y864089D02*
G03*
X1088371Y864089I-2032J0D01*
G01*
X1086575Y862293D02*
G03*
X1086575Y862293I-2032J0D01*
G01*
X1084779Y860497D02*
G03*
X1084779Y860497I-2032J0D01*
G01*
X1081187Y856905D02*
G03*
X1081187Y856905I-2032J0D01*
G01*
X1079390Y855108D02*
G03*
X1079390Y855108I-2032J0D01*
G01*
X1106331Y799431D02*
G03*
X1106331Y799431I-2032J0D01*
G01*
X1108127Y801227D02*
G03*
X1108127Y801227I-2032J0D01*
G01*
X1109923Y803023D02*
G03*
X1109923Y803023I-2032J0D01*
G01*
X1111719Y804819D02*
G03*
X1111719Y804819I-2032J0D01*
G01*
X1113515Y806615D02*
G03*
X1113515Y806615I-2032J0D01*
G01*
X1115311Y808411D02*
G03*
X1115311Y808411I-2032J0D01*
G01*
X1117107Y810207D02*
G03*
X1117107Y810207I-2032J0D01*
G01*
X1118904Y812003D02*
G03*
X1118904Y812003I-2032J0D01*
G01*
X1104535Y801227D02*
G03*
X1104535Y801227I-2032J0D01*
G01*
X1106331Y803023D02*
G03*
X1106331Y803023I-2032J0D01*
G01*
X1108127Y804819D02*
G03*
X1108127Y804819I-2032J0D01*
G01*
X1109923Y806615D02*
G03*
X1109923Y806615I-2032J0D01*
G01*
X1111719Y808411D02*
G03*
X1111719Y808411I-2032J0D01*
G01*
X1113515Y810207D02*
G03*
X1113515Y810207I-2032J0D01*
G01*
X1115311Y812003D02*
G03*
X1115311Y812003I-2032J0D01*
G01*
X1117107Y813799D02*
G03*
X1117107Y813799I-2032J0D01*
G01*
X1102739Y803023D02*
G03*
X1102739Y803023I-2032J0D01*
G01*
X1104535Y804819D02*
G03*
X1104535Y804819I-2032J0D01*
G01*
X1106331Y806615D02*
G03*
X1106331Y806615I-2032J0D01*
G01*
X1108127Y808411D02*
G03*
X1108127Y808411I-2032J0D01*
G01*
X1109923Y810207D02*
G03*
X1109923Y810207I-2032J0D01*
G01*
X1111719Y812003D02*
G03*
X1111719Y812003I-2032J0D01*
G01*
X1113515Y813799D02*
G03*
X1113515Y813799I-2032J0D01*
G01*
X1115311Y815595D02*
G03*
X1115311Y815595I-2032J0D01*
G01*
X1100943Y804819D02*
G03*
X1100943Y804819I-2032J0D01*
G01*
X1102739Y806615D02*
G03*
X1102739Y806615I-2032J0D01*
G01*
X1104535Y808411D02*
G03*
X1104535Y808411I-2032J0D01*
G01*
X1106331Y810207D02*
G03*
X1106331Y810207I-2032J0D01*
G01*
X1108127Y812003D02*
G03*
X1108127Y812003I-2032J0D01*
G01*
X1109923Y813799D02*
G03*
X1109923Y813799I-2032J0D01*
G01*
X1111719Y815595D02*
G03*
X1111719Y815595I-2032J0D01*
G01*
X1113515Y817391D02*
G03*
X1113515Y817391I-2032J0D01*
G01*
X1099147Y806615D02*
G03*
X1099147Y806615I-2032J0D01*
G01*
X1100943Y808411D02*
G03*
X1100943Y808411I-2032J0D01*
G01*
X1102739Y810207D02*
G03*
X1102739Y810207I-2032J0D01*
G01*
X1104535Y812003D02*
G03*
X1104535Y812003I-2032J0D01*
G01*
X1106331Y813799D02*
G03*
X1106331Y813799I-2032J0D01*
G01*
X1108127Y815595D02*
G03*
X1108127Y815595I-2032J0D01*
G01*
X1109923Y817391D02*
G03*
X1109923Y817391I-2032J0D01*
G01*
X1111719Y819187D02*
G03*
X1111719Y819187I-2032J0D01*
G01*
X1097351Y808411D02*
G03*
X1097351Y808411I-2032J0D01*
G01*
X1099147Y810207D02*
G03*
X1099147Y810207I-2032J0D01*
G01*
X1100943Y812003D02*
G03*
X1100943Y812003I-2032J0D01*
G01*
X1102739Y813799D02*
G03*
X1102739Y813799I-2032J0D01*
G01*
X1104535Y815595D02*
G03*
X1104535Y815595I-2032J0D01*
G01*
X1106331Y817391D02*
G03*
X1106331Y817391I-2032J0D01*
G01*
X1108127Y819187D02*
G03*
X1108127Y819187I-2032J0D01*
G01*
X1109923Y820983D02*
G03*
X1109923Y820983I-2032J0D01*
G01*
X1095555Y810207D02*
G03*
X1095555Y810207I-2032J0D01*
G01*
X1097351Y812003D02*
G03*
X1097351Y812003I-2032J0D01*
G01*
X1099147Y813799D02*
G03*
X1099147Y813799I-2032J0D01*
G01*
X1100943Y815595D02*
G03*
X1100943Y815595I-2032J0D01*
G01*
X1102739Y817391D02*
G03*
X1102739Y817391I-2032J0D01*
G01*
X1104535Y819187D02*
G03*
X1104535Y819187I-2032J0D01*
G01*
X1106331Y820983D02*
G03*
X1106331Y820983I-2032J0D01*
G01*
X1108127Y822779D02*
G03*
X1108127Y822779I-2032J0D01*
G01*
X1093759Y812003D02*
G03*
X1093759Y812003I-2032J0D01*
G01*
X1095555Y813799D02*
G03*
X1095555Y813799I-2032J0D01*
G01*
X1097351Y815595D02*
G03*
X1097351Y815595I-2032J0D01*
G01*
X1099147Y817391D02*
G03*
X1099147Y817391I-2032J0D01*
G01*
X1100943Y819187D02*
G03*
X1100943Y819187I-2032J0D01*
G01*
X1102739Y820983D02*
G03*
X1102739Y820983I-2032J0D01*
G01*
X1104535Y822779D02*
G03*
X1104535Y822779I-2032J0D01*
G01*
X1106331Y824576D02*
G03*
X1106331Y824576I-2032J0D01*
G01*
X1091963Y813799D02*
G03*
X1091963Y813799I-2032J0D01*
G01*
X1093759Y815595D02*
G03*
X1093759Y815595I-2032J0D01*
G01*
X1095555Y817391D02*
G03*
X1095555Y817391I-2032J0D01*
G01*
X1097351Y819187D02*
G03*
X1097351Y819187I-2032J0D01*
G01*
X1099147Y820983D02*
G03*
X1099147Y820983I-2032J0D01*
G01*
X1100943Y822779D02*
G03*
X1100943Y822779I-2032J0D01*
G01*
X1102739Y824576D02*
G03*
X1102739Y824576I-2032J0D01*
G01*
X1104535Y826372D02*
G03*
X1104535Y826372I-2032J0D01*
G01*
X1090167Y815595D02*
G03*
X1090167Y815595I-2032J0D01*
G01*
X1091963Y817391D02*
G03*
X1091963Y817391I-2032J0D01*
G01*
X1093759Y819187D02*
G03*
X1093759Y819187I-2032J0D01*
G01*
X1095555Y820983D02*
G03*
X1095555Y820983I-2032J0D01*
G01*
X1097351Y822779D02*
G03*
X1097351Y822779I-2032J0D01*
G01*
X1099147Y824576D02*
G03*
X1099147Y824576I-2032J0D01*
G01*
X1100943Y826372D02*
G03*
X1100943Y826372I-2032J0D01*
G01*
X1102739Y828168D02*
G03*
X1102739Y828168I-2032J0D01*
G01*
X1088371Y817391D02*
G03*
X1088371Y817391I-2032J0D01*
G01*
X1090167Y819187D02*
G03*
X1090167Y819187I-2032J0D01*
G01*
X1091963Y820983D02*
G03*
X1091963Y820983I-2032J0D01*
G01*
X1093759Y822779D02*
G03*
X1093759Y822779I-2032J0D01*
G01*
X1095555Y824576D02*
G03*
X1095555Y824576I-2032J0D01*
G01*
X1097351Y826372D02*
G03*
X1097351Y826372I-2032J0D01*
G01*
X1099147Y828168D02*
G03*
X1099147Y828168I-2032J0D01*
G01*
X1100943Y829964D02*
G03*
X1100943Y829964I-2032J0D01*
G01*
X1095555Y828168D02*
G03*
X1095555Y828168I-2032J0D01*
G01*
X1093759Y826372D02*
G03*
X1093759Y826372I-2032J0D01*
G01*
X1091963Y824576D02*
G03*
X1091963Y824576I-2032J0D01*
G01*
X1090167Y822779D02*
G03*
X1090167Y822779I-2032J0D01*
G01*
X1088371Y820983D02*
G03*
X1088371Y820983I-2032J0D01*
G01*
X1086575Y819187D02*
G03*
X1086575Y819187I-2032J0D01*
G01*
X1120700Y813799D02*
G03*
X1120700Y813799I-2032J0D01*
G01*
X1122496Y815595D02*
G03*
X1122496Y815595I-2032J0D01*
G01*
X1124292Y817391D02*
G03*
X1124292Y817391I-2032J0D01*
G01*
X1126088Y819187D02*
G03*
X1126088Y819187I-2032J0D01*
G01*
X1127884Y820983D02*
G03*
X1127884Y820983I-2032J0D01*
G01*
X1129680Y822779D02*
G03*
X1129680Y822779I-2032J0D01*
G01*
X1118904Y815595D02*
G03*
X1118904Y815595I-2032J0D01*
G01*
X1120700Y817391D02*
G03*
X1120700Y817391I-2032J0D01*
G01*
X1122496Y819187D02*
G03*
X1122496Y819187I-2032J0D01*
G01*
X1124292Y820983D02*
G03*
X1124292Y820983I-2032J0D01*
G01*
X1126088Y822779D02*
G03*
X1126088Y822779I-2032J0D01*
G01*
X1127884Y824576D02*
G03*
X1127884Y824576I-2032J0D01*
G01*
X1117107Y817391D02*
G03*
X1117107Y817391I-2032J0D01*
G01*
X1118904Y819187D02*
G03*
X1118904Y819187I-2032J0D01*
G01*
X1120700Y820983D02*
G03*
X1120700Y820983I-2032J0D01*
G01*
X1122496Y822779D02*
G03*
X1122496Y822779I-2032J0D01*
G01*
X1124292Y824576D02*
G03*
X1124292Y824576I-2032J0D01*
G01*
X1126088Y826372D02*
G03*
X1126088Y826372I-2032J0D01*
G01*
X1115311Y819187D02*
G03*
X1115311Y819187I-2032J0D01*
G01*
X1117107Y820983D02*
G03*
X1117107Y820983I-2032J0D01*
G01*
X1118904Y822779D02*
G03*
X1118904Y822779I-2032J0D01*
G01*
X1120700Y824576D02*
G03*
X1120700Y824576I-2032J0D01*
G01*
X1122496Y826372D02*
G03*
X1122496Y826372I-2032J0D01*
G01*
X1124292Y828168D02*
G03*
X1124292Y828168I-2032J0D01*
G01*
X1113515Y820983D02*
G03*
X1113515Y820983I-2032J0D01*
G01*
X1115311Y822779D02*
G03*
X1115311Y822779I-2032J0D01*
G01*
X1117107Y824576D02*
G03*
X1117107Y824576I-2032J0D01*
G01*
X1118904Y826372D02*
G03*
X1118904Y826372I-2032J0D01*
G01*
X1120700Y828168D02*
G03*
X1120700Y828168I-2032J0D01*
G01*
X1122496Y829964D02*
G03*
X1122496Y829964I-2032J0D01*
G01*
X1111719Y822779D02*
G03*
X1111719Y822779I-2032J0D01*
G01*
X1113515Y824576D02*
G03*
X1113515Y824576I-2032J0D01*
G01*
X1115311Y826372D02*
G03*
X1115311Y826372I-2032J0D01*
G01*
X1117107Y828168D02*
G03*
X1117107Y828168I-2032J0D01*
G01*
X1118904Y829964D02*
G03*
X1118904Y829964I-2032J0D01*
G01*
X1120700Y831760D02*
G03*
X1120700Y831760I-2032J0D01*
G01*
X1109923Y824576D02*
G03*
X1109923Y824576I-2032J0D01*
G01*
X1111719Y826372D02*
G03*
X1111719Y826372I-2032J0D01*
G01*
X1113515Y828168D02*
G03*
X1113515Y828168I-2032J0D01*
G01*
X1115311Y829964D02*
G03*
X1115311Y829964I-2032J0D01*
G01*
X1117107Y831760D02*
G03*
X1117107Y831760I-2032J0D01*
G01*
X1118904Y833556D02*
G03*
X1118904Y833556I-2032J0D01*
G01*
X1108127Y826372D02*
G03*
X1108127Y826372I-2032J0D01*
G01*
X1109923Y828168D02*
G03*
X1109923Y828168I-2032J0D01*
G01*
X1111719Y829964D02*
G03*
X1111719Y829964I-2032J0D01*
G01*
X1113515Y831760D02*
G03*
X1113515Y831760I-2032J0D01*
G01*
X1115311Y833556D02*
G03*
X1115311Y833556I-2032J0D01*
G01*
X1117107Y835352D02*
G03*
X1117107Y835352I-2032J0D01*
G01*
X1106331Y828168D02*
G03*
X1106331Y828168I-2032J0D01*
G01*
X1108127Y829964D02*
G03*
X1108127Y829964I-2032J0D01*
G01*
X1109923Y831760D02*
G03*
X1109923Y831760I-2032J0D01*
G01*
X1111719Y833556D02*
G03*
X1111719Y833556I-2032J0D01*
G01*
X1113515Y835352D02*
G03*
X1113515Y835352I-2032J0D01*
G01*
X1115311Y837148D02*
G03*
X1115311Y837148I-2032J0D01*
G01*
X1104535Y829964D02*
G03*
X1104535Y829964I-2032J0D01*
G01*
X1106331Y831760D02*
G03*
X1106331Y831760I-2032J0D01*
G01*
X1108127Y833556D02*
G03*
X1108127Y833556I-2032J0D01*
G01*
X1109923Y835352D02*
G03*
X1109923Y835352I-2032J0D01*
G01*
X1111719Y837148D02*
G03*
X1111719Y837148I-2032J0D01*
G01*
X1113515Y838944D02*
G03*
X1113515Y838944I-2032J0D01*
G01*
X1102739Y831760D02*
G03*
X1102739Y831760I-2032J0D01*
G01*
X1104535Y833556D02*
G03*
X1104535Y833556I-2032J0D01*
G01*
X1106331Y835352D02*
G03*
X1106331Y835352I-2032J0D01*
G01*
X1108127Y837148D02*
G03*
X1108127Y837148I-2032J0D01*
G01*
X1109923Y838944D02*
G03*
X1109923Y838944I-2032J0D01*
G01*
X1111719Y840740D02*
G03*
X1111719Y840740I-2032J0D01*
G01*
X1109923Y842536D02*
G03*
X1109923Y842536I-2032J0D01*
G01*
X1108127Y840740D02*
G03*
X1108127Y840740I-2032J0D01*
G01*
X1106331Y838944D02*
G03*
X1106331Y838944I-2032J0D01*
G01*
X1104535Y837148D02*
G03*
X1104535Y837148I-2032J0D01*
G01*
X1102739Y835352D02*
G03*
X1102739Y835352I-2032J0D01*
G01*
X1100943Y833556D02*
G03*
X1100943Y833556I-2032J0D01*
G01*
X1115822Y518160D02*
G03*
X1115822Y518160I-2032J0D01*
G01*
X737562Y730090D02*
G03*
X737562Y730090I-2032J0D01*
G01*
X747562D02*
G03*
X747562Y730090I-2032J0D01*
G01*
Y720090D02*
G03*
X747562Y720090I-2032J0D01*
G01*
X737562D02*
G03*
X737562Y720090I-2032J0D01*
G01*
X711672Y627770D02*
G03*
X711672Y627770I-2032J0D01*
G01*
X722672Y627770D02*
G03*
X722672Y627770I-2032J0D01*
G01*
X711672Y638770D02*
G03*
X711672Y638770I-2032J0D01*
G01*
X722672Y638770D02*
G03*
X722672Y638770I-2032J0D01*
G01*
X722672Y649770D02*
G03*
X722672Y649770I-2032J0D01*
G01*
X711672Y649770D02*
G03*
X711672Y649770I-2032J0D01*
G01*
X866134Y346819D02*
G03*
X866134Y346819I-2032J0D01*
G01*
X877467Y343354D02*
G03*
X877467Y343354I-2032J0D01*
G01*
X888915Y340286D02*
G03*
X888915Y340286I-2032J0D01*
G01*
X900463Y337620D02*
G03*
X900463Y337620I-2032J0D01*
G01*
X912097Y335358D02*
G03*
X912097Y335358I-2032J0D01*
G01*
X923803Y333504D02*
G03*
X923803Y333504I-2032J0D01*
G01*
X935566Y332060D02*
G03*
X935566Y332060I-2032J0D01*
G01*
X947373Y331027D02*
G03*
X947373Y331027I-2032J0D01*
G01*
X959208Y330407D02*
G03*
X959208Y330407I-2032J0D01*
G01*
X971058Y330200D02*
G03*
X971058Y330200I-2032J0D01*
G01*
X982908Y330407D02*
G03*
X982908Y330407I-2032J0D01*
G01*
X994743Y331027D02*
G03*
X994743Y331027I-2032J0D01*
G01*
X1006550Y332060D02*
G03*
X1006550Y332060I-2032J0D01*
G01*
X1018313Y333504D02*
G03*
X1018313Y333504I-2032J0D01*
G01*
X1030019Y335358D02*
G03*
X1030019Y335358I-2032J0D01*
G01*
X1041653Y337620D02*
G03*
X1041653Y337620I-2032J0D01*
G01*
X1053201Y340286D02*
G03*
X1053201Y340286I-2032J0D01*
G01*
X1064648Y343353D02*
G03*
X1064648Y343353I-2032J0D01*
G01*
X1075982Y346818D02*
G03*
X1075982Y346818I-2032J0D01*
G01*
X1087188Y350677D02*
G03*
X1087188Y350677I-2032J0D01*
G01*
X1098253Y354924D02*
G03*
X1098253Y354924I-2032J0D01*
G01*
X1109162Y359555D02*
G03*
X1109162Y359555I-2032J0D01*
G01*
X1119903Y364564D02*
G03*
X1119903Y364564I-2032J0D01*
G01*
X1130463Y369944D02*
G03*
X1130463Y369944I-2032J0D01*
G01*
X1140829Y375690D02*
G03*
X1140829Y375690I-2032J0D01*
G01*
X1150988Y381794D02*
G03*
X1150988Y381794I-2032J0D01*
G01*
X1160927Y388249D02*
G03*
X1160927Y388249I-2032J0D01*
G01*
X1170636Y395047D02*
G03*
X1170636Y395047I-2032J0D01*
G01*
X1180101Y402179D02*
G03*
X1180101Y402179I-2032J0D01*
G01*
X1189311Y409638D02*
G03*
X1189311Y409638I-2032J0D01*
G01*
X1198256Y417413D02*
G03*
X1198256Y417413I-2032J0D01*
G01*
X1206924Y425496D02*
G03*
X1206924Y425496I-2032J0D01*
G01*
X1215304Y433876D02*
G03*
X1215304Y433876I-2032J0D01*
G01*
X1223387Y442544D02*
G03*
X1223387Y442544I-2032J0D01*
G01*
X1231162Y451488D02*
G03*
X1231162Y451488I-2032J0D01*
G01*
X1238621Y460699D02*
G03*
X1238621Y460699I-2032J0D01*
G01*
X1245753Y470164D02*
G03*
X1245753Y470164I-2032J0D01*
G01*
X1252551Y479872D02*
G03*
X1252551Y479872I-2032J0D01*
G01*
X1259006Y489812D02*
G03*
X1259006Y489812I-2032J0D01*
G01*
X1265110Y499971D02*
G03*
X1265110Y499971I-2032J0D01*
G01*
X1270856Y510336D02*
G03*
X1270856Y510336I-2032J0D01*
G01*
X1276236Y520896D02*
G03*
X1276236Y520896I-2032J0D01*
G01*
X1281245Y531638D02*
G03*
X1281245Y531638I-2032J0D01*
G01*
X1285876Y542547D02*
G03*
X1285876Y542547I-2032J0D01*
G01*
X1290123Y553611D02*
G03*
X1290123Y553611I-2032J0D01*
G01*
X1293981Y564818D02*
G03*
X1293981Y564818I-2032J0D01*
G01*
X1297446Y576151D02*
G03*
X1297446Y576151I-2032J0D01*
G01*
X1300514Y587599D02*
G03*
X1300514Y587599I-2032J0D01*
G01*
X1303180Y599147D02*
G03*
X1303180Y599147I-2032J0D01*
G01*
X1305441Y610781D02*
G03*
X1305441Y610781I-2032J0D01*
G01*
X1307295Y622487D02*
G03*
X1307295Y622487I-2032J0D01*
G01*
X1308740Y634250D02*
G03*
X1308740Y634250I-2032J0D01*
G01*
X1309773Y646057D02*
G03*
X1309773Y646057I-2032J0D01*
G01*
X1310393Y657892D02*
G03*
X1310393Y657892I-2032J0D01*
G01*
X1310600Y669742D02*
G03*
X1310600Y669742I-2032J0D01*
G01*
X1310393Y681592D02*
G03*
X1310393Y681592I-2032J0D01*
G01*
X1309773Y693427D02*
G03*
X1309773Y693427I-2032J0D01*
G01*
X1308740Y705234D02*
G03*
X1308740Y705234I-2032J0D01*
G01*
X1307295Y716997D02*
G03*
X1307295Y716997I-2032J0D01*
G01*
X1305441Y728702D02*
G03*
X1305441Y728702I-2032J0D01*
G01*
X1303180Y740336D02*
G03*
X1303180Y740336I-2032J0D01*
G01*
X1300514Y751884D02*
G03*
X1300514Y751884I-2032J0D01*
G01*
X1297446Y763332D02*
G03*
X1297446Y763332I-2032J0D01*
G01*
X1293981Y774666D02*
G03*
X1293981Y774666I-2032J0D01*
G01*
X1290123Y785872D02*
G03*
X1290123Y785872I-2032J0D01*
G01*
X1285876Y796936D02*
G03*
X1285876Y796936I-2032J0D01*
G01*
X1281245Y807846D02*
G03*
X1281245Y807846I-2032J0D01*
G01*
X1080105Y978409D02*
G03*
X1080105Y978409I-2032J0D01*
G01*
X968502Y919480D02*
G03*
X968502Y919480I-2032J0D01*
G01*
X1001522Y674370D02*
G03*
X1001522Y674370I-2032J0D01*
G01*
X993902Y715010D02*
G03*
X993902Y715010I-2032J0D01*
G01*
X979932Y698500D02*
G03*
X979932Y698500I-2032J0D01*
G01*
X983742Y656590D02*
G03*
X983742Y656590I-2032J0D01*
G01*
X968502Y647700D02*
G03*
X968502Y647700I-2032J0D01*
G01*
X953262Y654050D02*
G03*
X953262Y654050I-2032J0D01*
G01*
Y687070D02*
G03*
X953262Y687070I-2032J0D01*
G01*
X915162Y689610D02*
G03*
X915162Y689610I-2032J0D01*
G01*
X939292Y763270D02*
G03*
X939292Y763270I-2032J0D01*
G01*
X910082Y707390D02*
G03*
X910082Y707390I-2032J0D01*
G01*
X896578Y826612D02*
G03*
X896578Y826612I-2032J0D01*
G01*
X889762Y839470D02*
G03*
X889762Y839470I-2032J0D01*
G01*
X878332D02*
G03*
X878332Y839470I-2032J0D01*
G01*
X856742Y899160D02*
G03*
X856742Y899160I-2032J0D01*
G01*
X918972Y944880D02*
G03*
X918972Y944880I-2032J0D01*
G01*
X921512Y924560D02*
G03*
X921512Y924560I-2032J0D01*
G01*
X1176782Y816610D02*
G03*
X1176782Y816610I-2032J0D01*
G01*
X1197102Y802640D02*
G03*
X1197102Y802640I-2032J0D01*
G01*
X1203452Y774700D02*
G03*
X1203452Y774700I-2032J0D01*
G01*
X1110742Y854710D02*
G03*
X1110742Y854710I-2032J0D01*
G01*
X1104392Y883920D02*
G03*
X1104392Y883920I-2032J0D01*
G01*
X1084072Y897890D02*
G03*
X1084072Y897890I-2032J0D01*
G01*
X1019302Y908050D02*
G03*
X1019302Y908050I-2032J0D01*
G01*
X993902Y914400D02*
G03*
X993902Y914400I-2032J0D01*
G01*
X1244092Y879737D02*
G03*
X1244092Y879737I-2032J0D01*
G01*
X1209802Y886460D02*
G03*
X1209802Y886460I-2032J0D01*
G01*
X1217983Y904503D02*
G03*
X1217983Y904503I-2032J0D01*
G01*
X1203888Y914400D02*
G03*
X1203888Y914400I-2032J0D01*
G01*
X1187538Y932854D02*
G03*
X1187538Y932854I-2032J0D01*
G01*
X1167892Y943610D02*
G03*
X1167892Y943610I-2032J0D01*
G01*
X1138682Y975360D02*
G03*
X1138682Y975360I-2032J0D01*
G01*
X1115822Y956310D02*
G03*
X1115822Y956310I-2032J0D01*
G01*
X1115454Y979031D02*
G03*
X1115454Y979031I-2032J0D01*
G01*
X1060522Y1001233D02*
G03*
X1060522Y1001233I-2032J0D01*
G01*
X1048682Y1005542D02*
G03*
X1048682Y1005542I-2032J0D01*
G01*
X1035812Y1008380D02*
G03*
X1035812Y1008380I-2032J0D01*
G01*
X1045972Y986790D02*
G03*
X1045972Y986790I-2032J0D01*
G01*
X854928Y350677D02*
G03*
X854928Y350677I-2032J0D01*
G01*
X843863Y354924D02*
G03*
X843863Y354924I-2032J0D01*
G01*
X832954Y359555D02*
G03*
X832954Y359555I-2032J0D01*
G01*
X822213Y364564D02*
G03*
X822213Y364564I-2032J0D01*
G01*
X811653Y369944D02*
G03*
X811653Y369944I-2032J0D01*
G01*
X671260Y510337D02*
G03*
X671260Y510337I-2032J0D01*
G01*
X665880Y520896D02*
G03*
X665880Y520896I-2032J0D01*
G01*
X660871Y531638D02*
G03*
X660871Y531638I-2032J0D01*
G01*
X656240Y542547D02*
G03*
X656240Y542547I-2032J0D01*
G01*
X651993Y553612D02*
G03*
X651993Y553612I-2032J0D01*
G01*
X648135Y564818D02*
G03*
X648135Y564818I-2032J0D01*
G01*
X644669Y576151D02*
G03*
X644669Y576151I-2032J0D01*
G01*
X641602Y587599D02*
G03*
X641602Y587599I-2032J0D01*
G01*
X638936Y599147D02*
G03*
X638936Y599147I-2032J0D01*
G01*
X636675Y610781D02*
G03*
X636675Y610781I-2032J0D01*
G01*
X634821Y622487D02*
G03*
X634821Y622487I-2032J0D01*
G01*
X633376Y634250D02*
G03*
X633376Y634250I-2032J0D01*
G01*
X632343Y646057D02*
G03*
X632343Y646057I-2032J0D01*
G01*
X631723Y657892D02*
G03*
X631723Y657892I-2032J0D01*
G01*
X631516Y669742D02*
G03*
X631516Y669742I-2032J0D01*
G01*
X631723Y681592D02*
G03*
X631723Y681592I-2032J0D01*
G01*
X632343Y693427D02*
G03*
X632343Y693427I-2032J0D01*
G01*
X633376Y705234D02*
G03*
X633376Y705234I-2032J0D01*
G01*
X634821Y716997D02*
G03*
X634821Y716997I-2032J0D01*
G01*
X636675Y728703D02*
G03*
X636675Y728703I-2032J0D01*
G01*
X638936Y740337D02*
G03*
X638936Y740337I-2032J0D01*
G01*
X641602Y751885D02*
G03*
X641602Y751885I-2032J0D01*
G01*
X644669Y763332D02*
G03*
X644669Y763332I-2032J0D01*
G01*
X648135Y774666D02*
G03*
X648135Y774666I-2032J0D01*
G01*
X651993Y785872D02*
G03*
X651993Y785872I-2032J0D01*
G01*
X656240Y796936D02*
G03*
X656240Y796936I-2032J0D01*
G01*
X660871Y807846D02*
G03*
X660871Y807846I-2032J0D01*
G01*
X665880Y818587D02*
G03*
X665880Y818587I-2032J0D01*
G01*
X671260Y829147D02*
G03*
X671260Y829147I-2032J0D01*
G01*
X677006Y839513D02*
G03*
X677006Y839513I-2032J0D01*
G01*
X683110Y849672D02*
G03*
X683110Y849672I-2032J0D01*
G01*
X689565Y859611D02*
G03*
X689565Y859611I-2032J0D01*
G01*
X696363Y869320D02*
G03*
X696363Y869320I-2032J0D01*
G01*
X703495Y878785D02*
G03*
X703495Y878785I-2032J0D01*
G01*
X710954Y887995D02*
G03*
X710954Y887995I-2032J0D01*
G01*
X718729Y896940D02*
G03*
X718729Y896940I-2032J0D01*
G01*
X726812Y905607D02*
G03*
X726812Y905607I-2032J0D01*
G01*
X735192Y913988D02*
G03*
X735192Y913988I-2032J0D01*
G01*
X743860Y922070D02*
G03*
X743860Y922070I-2032J0D01*
G01*
X752805Y929846D02*
G03*
X752805Y929846I-2032J0D01*
G01*
X762015Y937304D02*
G03*
X762015Y937304I-2032J0D01*
G01*
X771480Y944437D02*
G03*
X771480Y944437I-2032J0D01*
G01*
X781189Y951235D02*
G03*
X781189Y951235I-2032J0D01*
G01*
X791128Y957690D02*
G03*
X791128Y957690I-2032J0D01*
G01*
X801287Y963794D02*
G03*
X801287Y963794I-2032J0D01*
G01*
X811653Y969539D02*
G03*
X811653Y969539I-2032J0D01*
G01*
X822213Y974920D02*
G03*
X822213Y974920I-2032J0D01*
G01*
X832954Y979929D02*
G03*
X832954Y979929I-2032J0D01*
G01*
X843863Y984559D02*
G03*
X843863Y984559I-2032J0D01*
G01*
X854928Y988807D02*
G03*
X854928Y988807I-2032J0D01*
G01*
X866134Y992665D02*
G03*
X866134Y992665I-2032J0D01*
G01*
X877468Y996130D02*
G03*
X877468Y996130I-2032J0D01*
G01*
X888915Y999198D02*
G03*
X888915Y999198I-2032J0D01*
G01*
X900463Y1001864D02*
G03*
X900463Y1001864I-2032J0D01*
G01*
X887222Y922020D02*
G03*
X887222Y922020I-2032J0D01*
G01*
X1275753Y822960D02*
G03*
X1275753Y822960I-2032J0D01*
G01*
X1253624Y853893D02*
G03*
X1253624Y853893I-2032J0D01*
G01*
X1247206Y864296D02*
G03*
X1247206Y864296I-2032J0D01*
G01*
X1175512Y927100D02*
G03*
X1175512Y927100I-2032J0D01*
G01*
X1126453Y972681D02*
G03*
X1126453Y972681I-2032J0D01*
G01*
X1019302Y1013460D02*
G03*
X1019302Y1013460I-2032J0D01*
G01*
X955802Y1008890D02*
G03*
X955802Y1008890I-2032J0D01*
G01*
X930402Y1008380D02*
G03*
X930402Y1008380I-2032J0D01*
G01*
X943102D02*
G03*
X943102Y1008380I-2032J0D01*
G01*
X993902Y1008890D02*
G03*
X993902Y1008890I-2032J0D01*
G01*
X1006602Y1010920D02*
G03*
X1006602Y1010920I-2032J0D01*
G01*
X968502Y1008890D02*
G03*
X968502Y1008890I-2032J0D01*
G01*
X981202Y1004570D02*
G03*
X981202Y1004570I-2032J0D01*
G01*
X724662Y697230D02*
G03*
X724662Y697230I-2032J0D01*
G01*
X727202Y702310D02*
G03*
X727202Y702310I-2032J0D01*
G01*
X769112Y704850D02*
G03*
X769112Y704850I-2032J0D01*
G01*
X762762Y712470D02*
G03*
X762762Y712470I-2032J0D01*
G01*
X750062Y657860D02*
G03*
X750062Y657860I-2032J0D01*
G01*
X951357Y697865D02*
G03*
X951357Y697865I-2032J0D01*
G01*
X927862Y669290D02*
G03*
X927862Y669290I-2032J0D01*
G01*
X925322Y664210D02*
G03*
X925322Y664210I-2032J0D01*
G01*
X698497Y770126D02*
G03*
X698497Y770126I-2032J0D01*
G01*
X706167Y759460D02*
G03*
X706167Y759460I-2032J0D01*
G01*
X699262Y748030D02*
G03*
X699262Y748030I-2032J0D01*
G01*
X893572Y850900D02*
G03*
X893572Y850900I-2032J0D01*
G01*
X885952Y880110D02*
G03*
X885952Y880110I-2032J0D01*
G01*
X874522Y905510D02*
G03*
X874522Y905510I-2032J0D01*
G01*
X861822Y902400D02*
G03*
X861822Y902400I-2032J0D01*
G01*
X888492Y859790D02*
G03*
X888492Y859790I-2032J0D01*
G01*
X879602Y877570D02*
G03*
X879602Y877570I-2032J0D01*
G01*
X910082Y899160D02*
G03*
X910082Y899160I-2032J0D01*
G01*
X861927Y879668D02*
G03*
X861927Y879668I-2032J0D01*
G01*
X714502Y605790D02*
G03*
X714502Y605790I-2032J0D01*
G01*
X687992Y622140D02*
G03*
X687992Y622140I-2032J0D01*
G01*
M02*
