G04 Layer_Color=128*
%FSLAX44Y44*%
%MOMM*%
G71*
G01*
G75*
%ADD284C,0.0508*%
D284*
X907050Y671830D02*
X909050D01*
X908050Y670830D02*
Y672830D01*
X903240Y678180D02*
X905240D01*
X904240Y677180D02*
Y679180D01*
X721630Y697230D02*
X723630D01*
X722630Y696230D02*
Y698230D01*
X724170Y702310D02*
X726170D01*
X725170Y701310D02*
Y703310D01*
X766080Y704850D02*
X768080D01*
X767080Y703850D02*
Y705850D01*
X759730Y712470D02*
X761730D01*
X760730Y711470D02*
Y713470D01*
X747030Y657860D02*
X749030D01*
X748030Y656860D02*
Y658860D01*
X908783Y875035D02*
X910783D01*
X909783Y874035D02*
Y876035D01*
X948325Y697865D02*
X950325D01*
X949325Y696865D02*
Y698865D01*
X924830Y669290D02*
X926830D01*
X925830Y668290D02*
Y670290D01*
X922290Y664210D02*
X924290D01*
X923290Y663210D02*
Y665210D01*
X695465Y770126D02*
X697466D01*
X696466Y769126D02*
Y771125D01*
X703135Y759460D02*
X705135D01*
X704135Y758460D02*
Y760460D01*
X696230Y748030D02*
X698230D01*
X697230Y747030D02*
Y749030D01*
X890540Y850900D02*
X892540D01*
X891540Y849900D02*
Y851900D01*
X903240Y913130D02*
X905240D01*
X904240Y912130D02*
Y914130D01*
X882920Y880110D02*
X884920D01*
X883920Y879110D02*
Y881110D01*
X884190Y922020D02*
X886190D01*
X885190Y921020D02*
Y923020D01*
X871490Y905510D02*
X873490D01*
X872490Y904510D02*
Y906510D01*
X858790Y902400D02*
X860790D01*
X859790Y901400D02*
Y903400D01*
X885460Y859790D02*
X887460D01*
X886460Y858790D02*
Y860790D01*
X876570Y877570D02*
X878570D01*
X877570Y876570D02*
Y878570D01*
X1197070Y670123D02*
X1199070D01*
X1198070Y669123D02*
Y671123D01*
X1166145Y556887D02*
X1168145D01*
X1167145Y555887D02*
Y557887D01*
X978441Y444754D02*
X980441D01*
X979441Y443755D02*
Y445755D01*
X907050Y899160D02*
X909050D01*
X908050Y898160D02*
Y900160D01*
X906979Y893810D02*
X908979D01*
X907979Y892810D02*
Y894810D01*
X858895Y879668D02*
X860895D01*
X859895Y878668D02*
Y880668D01*
X711470Y605790D02*
X713470D01*
X712470Y604790D02*
Y606790D01*
X684960Y622140D02*
X686960D01*
X685960Y621140D02*
Y623140D01*
X683530Y655320D02*
X685530D01*
X684530Y654320D02*
Y656320D01*
X744250Y651270D02*
X746250D01*
X745250Y650270D02*
Y652270D01*
X1185180Y749300D02*
X1187180D01*
X1186180Y748300D02*
Y750300D01*
X1122950Y502920D02*
X1124950D01*
X1123950Y501920D02*
Y503920D01*
X900700Y455930D02*
X902700D01*
X901700Y454930D02*
Y456930D01*
M02*
