G04 Layer_Color=8388736*
%FSLAX44Y44*%
%MOMM*%
G71*
G01*
G75*
G04:AMPARAMS|DCode=16|XSize=0.32mm|YSize=0.36mm|CornerRadius=0.08mm|HoleSize=0mm|Usage=FLASHONLY|Rotation=270.000|XOffset=0mm|YOffset=0mm|HoleType=Round|Shape=RoundedRectangle|*
%AMROUNDEDRECTD16*
21,1,0.3200,0.2000,0,0,270.0*
21,1,0.1600,0.3600,0,0,270.0*
1,1,0.1600,-0.1000,-0.0800*
1,1,0.1600,-0.1000,0.0800*
1,1,0.1600,0.1000,0.0800*
1,1,0.1600,0.1000,-0.0800*
%
%ADD16ROUNDEDRECTD16*%
G04:AMPARAMS|DCode=17|XSize=0.32mm|YSize=0.36mm|CornerRadius=0.08mm|HoleSize=0mm|Usage=FLASHONLY|Rotation=180.000|XOffset=0mm|YOffset=0mm|HoleType=Round|Shape=RoundedRectangle|*
%AMROUNDEDRECTD17*
21,1,0.3200,0.2000,0,0,180.0*
21,1,0.1600,0.3600,0,0,180.0*
1,1,0.1600,-0.0800,0.1000*
1,1,0.1600,0.0800,0.1000*
1,1,0.1600,0.0800,-0.1000*
1,1,0.1600,-0.0800,-0.1000*
%
%ADD17ROUNDEDRECTD17*%
G04:AMPARAMS|DCode=22|XSize=0.7112mm|YSize=1.3208mm|CornerRadius=0.1778mm|HoleSize=0mm|Usage=FLASHONLY|Rotation=220.000|XOffset=0mm|YOffset=0mm|HoleType=Round|Shape=RoundedRectangle|*
%AMROUNDEDRECTD22*
21,1,0.7112,0.9652,0,0,220.0*
21,1,0.3556,1.3208,0,0,220.0*
1,1,0.3556,-0.4464,0.2554*
1,1,0.3556,-0.1740,0.4840*
1,1,0.3556,0.4464,-0.2554*
1,1,0.3556,0.1740,-0.4840*
%
%ADD22ROUNDEDRECTD22*%
G04:AMPARAMS|DCode=29|XSize=0.508mm|YSize=0.6096mm|CornerRadius=0.127mm|HoleSize=0mm|Usage=FLASHONLY|Rotation=225.000|XOffset=0mm|YOffset=0mm|HoleType=Round|Shape=RoundedRectangle|*
%AMROUNDEDRECTD29*
21,1,0.5080,0.3556,0,0,225.0*
21,1,0.2540,0.6096,0,0,225.0*
1,1,0.2540,-0.2155,0.0359*
1,1,0.2540,-0.0359,0.2155*
1,1,0.2540,0.2155,-0.0359*
1,1,0.2540,0.0359,-0.2155*
%
%ADD29ROUNDEDRECTD29*%
G04:AMPARAMS|DCode=30|XSize=0.6096mm|YSize=0.9144mm|CornerRadius=0.1524mm|HoleSize=0mm|Usage=FLASHONLY|Rotation=135.000|XOffset=0mm|YOffset=0mm|HoleType=Round|Shape=RoundedRectangle|*
%AMROUNDEDRECTD30*
21,1,0.6096,0.6096,0,0,135.0*
21,1,0.3048,0.9144,0,0,135.0*
1,1,0.3048,0.1078,0.3233*
1,1,0.3048,0.3233,0.1078*
1,1,0.3048,-0.1078,-0.3233*
1,1,0.3048,-0.3233,-0.1078*
%
%ADD30ROUNDEDRECTD30*%
G04:AMPARAMS|DCode=31|XSize=0.6096mm|YSize=0.9144mm|CornerRadius=0.1524mm|HoleSize=0mm|Usage=FLASHONLY|Rotation=225.000|XOffset=0mm|YOffset=0mm|HoleType=Round|Shape=RoundedRectangle|*
%AMROUNDEDRECTD31*
21,1,0.6096,0.6096,0,0,225.0*
21,1,0.3048,0.9144,0,0,225.0*
1,1,0.3048,-0.3233,0.1078*
1,1,0.3048,-0.1078,0.3233*
1,1,0.3048,0.3233,-0.1078*
1,1,0.3048,0.1078,-0.3233*
%
%ADD31ROUNDEDRECTD31*%
G04:AMPARAMS|DCode=34|XSize=0.32mm|YSize=0.36mm|CornerRadius=0.08mm|HoleSize=0mm|Usage=FLASHONLY|Rotation=135.000|XOffset=0mm|YOffset=0mm|HoleType=Round|Shape=RoundedRectangle|*
%AMROUNDEDRECTD34*
21,1,0.3200,0.2000,0,0,135.0*
21,1,0.1600,0.3600,0,0,135.0*
1,1,0.1600,0.0141,0.1273*
1,1,0.1600,0.1273,0.0141*
1,1,0.1600,-0.0141,-0.1273*
1,1,0.1600,-0.1273,-0.0141*
%
%ADD34ROUNDEDRECTD34*%
G04:AMPARAMS|DCode=35|XSize=0.32mm|YSize=0.36mm|CornerRadius=0.08mm|HoleSize=0mm|Usage=FLASHONLY|Rotation=45.000|XOffset=0mm|YOffset=0mm|HoleType=Round|Shape=RoundedRectangle|*
%AMROUNDEDRECTD35*
21,1,0.3200,0.2000,0,0,45.0*
21,1,0.1600,0.3600,0,0,45.0*
1,1,0.1600,0.1273,-0.0141*
1,1,0.1600,0.0141,-0.1273*
1,1,0.1600,-0.1273,0.0141*
1,1,0.1600,-0.0141,0.1273*
%
%ADD35ROUNDEDRECTD35*%
G04:AMPARAMS|DCode=37|XSize=0.7112mm|YSize=1.3208mm|CornerRadius=0.1778mm|HoleSize=0mm|Usage=FLASHONLY|Rotation=225.219|XOffset=0mm|YOffset=0mm|HoleType=Round|Shape=RoundedRectangle|*
%AMROUNDEDRECTD37*
21,1,0.7112,0.9652,0,0,225.2*
21,1,0.3556,1.3208,0,0,225.2*
1,1,0.3556,-0.4678,0.2137*
1,1,0.3556,-0.2173,0.4661*
1,1,0.3556,0.4678,-0.2137*
1,1,0.3556,0.2173,-0.4661*
%
%ADD37ROUNDEDRECTD37*%
G04:AMPARAMS|DCode=38|XSize=0.6096mm|YSize=0.9144mm|CornerRadius=0.1524mm|HoleSize=0mm|Usage=FLASHONLY|Rotation=90.000|XOffset=0mm|YOffset=0mm|HoleType=Round|Shape=RoundedRectangle|*
%AMROUNDEDRECTD38*
21,1,0.6096,0.6096,0,0,90.0*
21,1,0.3048,0.9144,0,0,90.0*
1,1,0.3048,0.3048,0.1524*
1,1,0.3048,0.3048,-0.1524*
1,1,0.3048,-0.3048,-0.1524*
1,1,0.3048,-0.3048,0.1524*
%
%ADD38ROUNDEDRECTD38*%
G04:AMPARAMS|DCode=42|XSize=0.7112mm|YSize=1.3208mm|CornerRadius=0.1778mm|HoleSize=0mm|Usage=FLASHONLY|Rotation=315.000|XOffset=0mm|YOffset=0mm|HoleType=Round|Shape=RoundedRectangle|*
%AMROUNDEDRECTD42*
21,1,0.7112,0.9652,0,0,315.0*
21,1,0.3556,1.3208,0,0,315.0*
1,1,0.3556,-0.2155,-0.4670*
1,1,0.3556,-0.4670,-0.2155*
1,1,0.3556,0.2155,0.4670*
1,1,0.3556,0.4670,0.2155*
%
%ADD42ROUNDEDRECTD42*%
G04:AMPARAMS|DCode=43|XSize=0.7112mm|YSize=1.3208mm|CornerRadius=0.1778mm|HoleSize=0mm|Usage=FLASHONLY|Rotation=315.000|XOffset=0mm|YOffset=0mm|HoleType=Round|Shape=RoundedRectangle|*
%AMROUNDEDRECTD43*
21,1,0.7112,0.9652,0,0,315.0*
21,1,0.3556,1.3208,0,0,315.0*
1,1,0.3556,-0.2155,-0.4670*
1,1,0.3556,-0.4670,-0.2155*
1,1,0.3556,0.2155,0.4670*
1,1,0.3556,0.4670,0.2155*
%
%ADD43ROUNDEDRECTD43*%
G04:AMPARAMS|DCode=50|XSize=0.7112mm|YSize=1.3208mm|CornerRadius=0.1778mm|HoleSize=0mm|Usage=FLASHONLY|Rotation=55.000|XOffset=0mm|YOffset=0mm|HoleType=Round|Shape=RoundedRectangle|*
%AMROUNDEDRECTD50*
21,1,0.7112,0.9652,0,0,55.0*
21,1,0.3556,1.3208,0,0,55.0*
1,1,0.3556,0.4973,-0.1312*
1,1,0.3556,0.2933,-0.4224*
1,1,0.3556,-0.4973,0.1312*
1,1,0.3556,-0.2933,0.4224*
%
%ADD50ROUNDEDRECTD50*%
G04:AMPARAMS|DCode=72|XSize=0.508mm|YSize=0.6096mm|CornerRadius=0.127mm|HoleSize=0mm|Usage=FLASHONLY|Rotation=180.000|XOffset=0mm|YOffset=0mm|HoleType=Round|Shape=RoundedRectangle|*
%AMROUNDEDRECTD72*
21,1,0.5080,0.3556,0,0,180.0*
21,1,0.2540,0.6096,0,0,180.0*
1,1,0.2540,-0.1270,0.1778*
1,1,0.2540,0.1270,0.1778*
1,1,0.2540,0.1270,-0.1778*
1,1,0.2540,-0.1270,-0.1778*
%
%ADD72ROUNDEDRECTD72*%
G04:AMPARAMS|DCode=73|XSize=0.6096mm|YSize=0.9144mm|CornerRadius=0.1524mm|HoleSize=0mm|Usage=FLASHONLY|Rotation=0.000|XOffset=0mm|YOffset=0mm|HoleType=Round|Shape=RoundedRectangle|*
%AMROUNDEDRECTD73*
21,1,0.6096,0.6096,0,0,0.0*
21,1,0.3048,0.9144,0,0,0.0*
1,1,0.3048,0.1524,-0.3048*
1,1,0.3048,-0.1524,-0.3048*
1,1,0.3048,-0.1524,0.3048*
1,1,0.3048,0.1524,0.3048*
%
%ADD73ROUNDEDRECTD73*%
G04:AMPARAMS|DCode=74|XSize=0.7112mm|YSize=1.3208mm|CornerRadius=0.1778mm|HoleSize=0mm|Usage=FLASHONLY|Rotation=225.000|XOffset=0mm|YOffset=0mm|HoleType=Round|Shape=RoundedRectangle|*
%AMROUNDEDRECTD74*
21,1,0.7112,0.9652,0,0,225.0*
21,1,0.3556,1.3208,0,0,225.0*
1,1,0.3556,-0.4670,0.2155*
1,1,0.3556,-0.2155,0.4670*
1,1,0.3556,0.4670,-0.2155*
1,1,0.3556,0.2155,-0.4670*
%
%ADD74ROUNDEDRECTD74*%
%ADD163R,0.7112X0.8128*%
%ADD164R,0.9144X0.4064*%
%ADD165R,0.8128X0.7112*%
%ADD166R,0.9032X0.4532*%
%ADD167R,1.8532X2.5832*%
%ADD168R,0.9332X0.5532*%
%ADD169R,0.7032X0.7032*%
%ADD170R,0.7032X0.7032*%
%ADD171C,0.2705*%
G04:AMPARAMS|DCode=172|XSize=4.7032mm|YSize=5.2032mm|CornerRadius=1.2266mm|HoleSize=0mm|Usage=FLASHONLY|Rotation=180.000|XOffset=0mm|YOffset=0mm|HoleType=Round|Shape=RoundedRectangle|*
%AMROUNDEDRECTD172*
21,1,4.7032,2.7500,0,0,180.0*
21,1,2.2500,5.2032,0,0,180.0*
1,1,2.4532,-1.1250,1.3750*
1,1,2.4532,1.1250,1.3750*
1,1,2.4532,1.1250,-1.3750*
1,1,2.4532,-1.1250,-1.3750*
%
%ADD172ROUNDEDRECTD172*%
G04:AMPARAMS|DCode=173|XSize=3.0226mm|YSize=1.2192mm|CornerRadius=0.6096mm|HoleSize=0mm|Usage=FLASHONLY|Rotation=60.000|XOffset=0mm|YOffset=0mm|HoleType=Round|Shape=RoundedRectangle|*
%AMROUNDEDRECTD173*
21,1,3.0226,0.0000,0,0,60.0*
21,1,1.8034,1.2192,0,0,60.0*
1,1,1.2192,0.4508,0.7809*
1,1,1.2192,-0.4508,-0.7809*
1,1,1.2192,-0.4508,-0.7809*
1,1,1.2192,0.4508,0.7809*
%
%ADD173ROUNDEDRECTD173*%
G04:AMPARAMS|DCode=174|XSize=0.8128mm|YSize=1.905mm|CornerRadius=0.4064mm|HoleSize=0mm|Usage=FLASHONLY|Rotation=330.000|XOffset=0mm|YOffset=0mm|HoleType=Round|Shape=RoundedRectangle|*
%AMROUNDEDRECTD174*
21,1,0.8128,1.0922,0,0,330.0*
21,1,0.0000,1.9050,0,0,330.0*
1,1,0.8128,-0.2731,-0.4729*
1,1,0.8128,-0.2731,-0.4729*
1,1,0.8128,0.2731,0.4729*
1,1,0.8128,0.2731,0.4729*
%
%ADD174ROUNDEDRECTD174*%
G04:AMPARAMS|DCode=175|XSize=3.0226mm|YSize=1.2192mm|CornerRadius=0.6096mm|HoleSize=0mm|Usage=FLASHONLY|Rotation=30.000|XOffset=0mm|YOffset=0mm|HoleType=Round|Shape=RoundedRectangle|*
%AMROUNDEDRECTD175*
21,1,3.0226,0.0000,0,0,30.0*
21,1,1.8034,1.2192,0,0,30.0*
1,1,1.2192,0.7809,0.4508*
1,1,1.2192,-0.7809,-0.4508*
1,1,1.2192,-0.7809,-0.4508*
1,1,1.2192,0.7809,0.4508*
%
%ADD175ROUNDEDRECTD175*%
G04:AMPARAMS|DCode=176|XSize=0.8128mm|YSize=1.905mm|CornerRadius=0.4064mm|HoleSize=0mm|Usage=FLASHONLY|Rotation=300.000|XOffset=0mm|YOffset=0mm|HoleType=Round|Shape=RoundedRectangle|*
%AMROUNDEDRECTD176*
21,1,0.8128,1.0922,0,0,300.0*
21,1,0.0000,1.9050,0,0,300.0*
1,1,0.8128,-0.4729,-0.2731*
1,1,0.8128,-0.4729,-0.2731*
1,1,0.8128,0.4729,0.2731*
1,1,0.8128,0.4729,0.2731*
%
%ADD176ROUNDEDRECTD176*%
G04:AMPARAMS|DCode=177|XSize=3.0226mm|YSize=1.2192mm|CornerRadius=0.6096mm|HoleSize=0mm|Usage=FLASHONLY|Rotation=75.000|XOffset=0mm|YOffset=0mm|HoleType=Round|Shape=RoundedRectangle|*
%AMROUNDEDRECTD177*
21,1,3.0226,0.0000,0,0,75.0*
21,1,1.8034,1.2192,0,0,75.0*
1,1,1.2192,0.2334,0.8710*
1,1,1.2192,-0.2334,-0.8710*
1,1,1.2192,-0.2334,-0.8710*
1,1,1.2192,0.2334,0.8710*
%
%ADD177ROUNDEDRECTD177*%
G04:AMPARAMS|DCode=178|XSize=0.8128mm|YSize=1.905mm|CornerRadius=0.4064mm|HoleSize=0mm|Usage=FLASHONLY|Rotation=345.000|XOffset=0mm|YOffset=0mm|HoleType=Round|Shape=RoundedRectangle|*
%AMROUNDEDRECTD178*
21,1,0.8128,1.0922,0,0,345.0*
21,1,0.0000,1.9050,0,0,345.0*
1,1,0.8128,-0.1413,-0.5275*
1,1,0.8128,-0.1413,-0.5275*
1,1,0.8128,0.1413,0.5275*
1,1,0.8128,0.1413,0.5275*
%
%ADD178ROUNDEDRECTD178*%
G04:AMPARAMS|DCode=179|XSize=1.0532mm|YSize=1.0032mm|CornerRadius=0mm|HoleSize=0mm|Usage=FLASHONLY|Rotation=315.000|XOffset=0mm|YOffset=0mm|HoleType=Round|Shape=Rectangle|*
%AMROTATEDRECTD179*
4,1,4,-0.7270,0.0177,-0.0177,0.7270,0.7270,-0.0177,0.0177,-0.7270,-0.7270,0.0177,0.0*
%
%ADD179ROTATEDRECTD179*%

G04:AMPARAMS|DCode=180|XSize=0.7112mm|YSize=0.8128mm|CornerRadius=0mm|HoleSize=0mm|Usage=FLASHONLY|Rotation=135.000|XOffset=0mm|YOffset=0mm|HoleType=Round|Shape=Rectangle|*
%AMROTATEDRECTD180*
4,1,4,0.5388,0.0359,-0.0359,-0.5388,-0.5388,-0.0359,0.0359,0.5388,0.5388,0.0359,0.0*
%
%ADD180ROTATEDRECTD180*%

G04:AMPARAMS|DCode=181|XSize=1.6032mm|YSize=1.3032mm|CornerRadius=0mm|HoleSize=0mm|Usage=FLASHONLY|Rotation=135.000|XOffset=0mm|YOffset=0mm|HoleType=Round|Shape=Rectangle|*
%AMROTATEDRECTD181*
4,1,4,1.0276,-0.1061,0.1061,-1.0276,-1.0276,0.1061,-0.1061,1.0276,1.0276,-0.1061,0.0*
%
%ADD181ROTATEDRECTD181*%

G04:AMPARAMS|DCode=182|XSize=3.2532mm|YSize=2.6032mm|CornerRadius=0mm|HoleSize=0mm|Usage=FLASHONLY|Rotation=192.500|XOffset=0mm|YOffset=0mm|HoleType=Round|Shape=Rectangle|*
%AMROTATEDRECTD182*
4,1,4,1.3063,1.6228,1.8698,-0.9187,-1.3063,-1.6228,-1.8698,0.9187,1.3063,1.6228,0.0*
%
%ADD182ROTATEDRECTD182*%

%ADD183P,0.9945X4X237.5*%
G04:AMPARAMS|DCode=184|XSize=3.2532mm|YSize=2.6032mm|CornerRadius=0mm|HoleSize=0mm|Usage=FLASHONLY|Rotation=250.000|XOffset=0mm|YOffset=0mm|HoleType=Round|Shape=Rectangle|*
%AMROTATEDRECTD184*
4,1,4,-0.6668,1.9737,1.7794,1.0833,0.6668,-1.9737,-1.7794,-1.0833,-0.6668,1.9737,0.0*
%
%ADD184ROTATEDRECTD184*%

%ADD185P,0.9945X4X295.0*%
G04:AMPARAMS|DCode=186|XSize=4.0532mm|YSize=4.7232mm|CornerRadius=0mm|HoleSize=0mm|Usage=FLASHONLY|Rotation=194.898|XOffset=0mm|YOffset=0mm|HoleType=Round|Shape=Rectangle|*
%AMROTATEDRECTD186*
4,1,4,1.3513,2.8033,2.5656,-1.7612,-1.3513,-2.8033,-2.5656,1.7612,1.3513,2.8033,0.0*
%
%ADD186ROTATEDRECTD186*%

G04:AMPARAMS|DCode=187|XSize=0.9132mm|YSize=1.5732mm|CornerRadius=0mm|HoleSize=0mm|Usage=FLASHONLY|Rotation=284.898|XOffset=0mm|YOffset=0mm|HoleType=Round|Shape=Rectangle|*
%AMROTATEDRECTD187*
4,1,4,-0.8776,0.2390,0.6428,0.6435,0.8776,-0.2390,-0.6428,-0.6435,-0.8776,0.2390,0.0*
%
%ADD187ROTATEDRECTD187*%

G04:AMPARAMS|DCode=188|XSize=0.9532mm|YSize=0.8032mm|CornerRadius=0mm|HoleSize=0mm|Usage=FLASHONLY|Rotation=315.000|XOffset=0mm|YOffset=0mm|HoleType=Round|Shape=Rectangle|*
%AMROTATEDRECTD188*
4,1,4,-0.6210,0.0530,-0.0530,0.6210,0.6210,-0.0530,0.0530,-0.6210,-0.6210,0.0530,0.0*
%
%ADD188ROTATEDRECTD188*%

G04:AMPARAMS|DCode=189|XSize=0.557mm|YSize=0.3286mm|CornerRadius=0.13mm|HoleSize=0mm|Usage=FLASHONLY|Rotation=270.000|XOffset=0mm|YOffset=0mm|HoleType=Round|Shape=RoundedRectangle|*
%AMROUNDEDRECTD189*
21,1,0.5570,0.0686,0,0,270.0*
21,1,0.2970,0.3286,0,0,270.0*
1,1,0.2600,-0.0343,-0.1485*
1,1,0.2600,-0.0343,0.1485*
1,1,0.2600,0.0343,0.1485*
1,1,0.2600,0.0343,-0.1485*
%
%ADD189ROUNDEDRECTD189*%
G04:AMPARAMS|DCode=190|XSize=0.557mm|YSize=0.3286mm|CornerRadius=0.1071mm|HoleSize=0mm|Usage=FLASHONLY|Rotation=270.000|XOffset=0mm|YOffset=0mm|HoleType=Round|Shape=RoundedRectangle|*
%AMROUNDEDRECTD190*
21,1,0.5570,0.1143,0,0,270.0*
21,1,0.3427,0.3286,0,0,270.0*
1,1,0.2143,-0.0571,-0.1714*
1,1,0.2143,-0.0571,0.1714*
1,1,0.2143,0.0571,0.1714*
1,1,0.2143,0.0571,-0.1714*
%
%ADD190ROUNDEDRECTD190*%
G04:AMPARAMS|DCode=191|XSize=0.557mm|YSize=0.3286mm|CornerRadius=0.1529mm|HoleSize=0mm|Usage=FLASHONLY|Rotation=270.000|XOffset=0mm|YOffset=0mm|HoleType=Round|Shape=RoundedRectangle|*
%AMROUNDEDRECTD191*
21,1,0.5570,0.0229,0,0,270.0*
21,1,0.2513,0.3286,0,0,270.0*
1,1,0.3057,-0.0114,-0.1256*
1,1,0.3057,-0.0114,0.1256*
1,1,0.3057,0.0114,0.1256*
1,1,0.3057,0.0114,-0.1256*
%
%ADD191ROUNDEDRECTD191*%
G04:AMPARAMS|DCode=192|XSize=0.557mm|YSize=0.3286mm|CornerRadius=0.13mm|HoleSize=0mm|Usage=FLASHONLY|Rotation=0.000|XOffset=0mm|YOffset=0mm|HoleType=Round|Shape=RoundedRectangle|*
%AMROUNDEDRECTD192*
21,1,0.5570,0.0686,0,0,0.0*
21,1,0.2970,0.3286,0,0,0.0*
1,1,0.2600,0.1485,-0.0343*
1,1,0.2600,-0.1485,-0.0343*
1,1,0.2600,-0.1485,0.0343*
1,1,0.2600,0.1485,0.0343*
%
%ADD192ROUNDEDRECTD192*%
G04:AMPARAMS|DCode=193|XSize=0.557mm|YSize=0.3286mm|CornerRadius=0.1071mm|HoleSize=0mm|Usage=FLASHONLY|Rotation=0.000|XOffset=0mm|YOffset=0mm|HoleType=Round|Shape=RoundedRectangle|*
%AMROUNDEDRECTD193*
21,1,0.5570,0.1143,0,0,0.0*
21,1,0.3427,0.3286,0,0,0.0*
1,1,0.2143,0.1714,-0.0571*
1,1,0.2143,-0.1714,-0.0571*
1,1,0.2143,-0.1714,0.0571*
1,1,0.2143,0.1714,0.0571*
%
%ADD193ROUNDEDRECTD193*%
%ADD194P,7.5988X4X90.0*%
G04:AMPARAMS|DCode=195|XSize=0.4532mm|YSize=1.4532mm|CornerRadius=0mm|HoleSize=0mm|Usage=FLASHONLY|Rotation=45.000|XOffset=0mm|YOffset=0mm|HoleType=Round|Shape=Round|*
%AMOVALD195*
21,1,1.0000,0.4532,0.0000,0.0000,135.0*
1,1,0.4532,0.3535,-0.3535*
1,1,0.4532,-0.3535,0.3535*
%
%ADD195OVALD195*%

G04:AMPARAMS|DCode=196|XSize=0.4532mm|YSize=1.4532mm|CornerRadius=0mm|HoleSize=0mm|Usage=FLASHONLY|Rotation=135.000|XOffset=0mm|YOffset=0mm|HoleType=Round|Shape=Round|*
%AMOVALD196*
21,1,1.0000,0.4532,0.0000,0.0000,225.0*
1,1,0.4532,0.3535,0.3535*
1,1,0.4532,-0.3535,-0.3535*
%
%ADD196OVALD196*%

G04:AMPARAMS|DCode=197|XSize=0.7112mm|YSize=0.8128mm|CornerRadius=0mm|HoleSize=0mm|Usage=FLASHONLY|Rotation=225.000|XOffset=0mm|YOffset=0mm|HoleType=Round|Shape=Rectangle|*
%AMROTATEDRECTD197*
4,1,4,-0.0359,0.5388,0.5388,-0.0359,0.0359,-0.5388,-0.5388,0.0359,-0.0359,0.5388,0.0*
%
%ADD197ROTATEDRECTD197*%

G04:AMPARAMS|DCode=198|XSize=3.2532mm|YSize=2.6032mm|CornerRadius=0mm|HoleSize=0mm|Usage=FLASHONLY|Rotation=202.500|XOffset=0mm|YOffset=0mm|HoleType=Round|Shape=Rectangle|*
%AMROTATEDRECTD198*
4,1,4,1.0047,1.8250,2.0009,-0.5800,-1.0047,-1.8250,-2.0009,0.5800,1.0047,1.8250,0.0*
%
%ADD198ROTATEDRECTD198*%

%ADD199P,0.9945X4X247.5*%
G04:AMPARAMS|DCode=200|XSize=4.0532mm|YSize=4.7232mm|CornerRadius=0mm|HoleSize=0mm|Usage=FLASHONLY|Rotation=147.500|XOffset=0mm|YOffset=0mm|HoleType=Round|Shape=Rectangle|*
%AMROTATEDRECTD200*
4,1,4,2.9781,0.9029,0.4403,-3.0806,-2.9781,-0.9029,-0.4403,3.0806,2.9781,0.9029,0.0*
%
%ADD200ROTATEDRECTD200*%

G04:AMPARAMS|DCode=201|XSize=0.9132mm|YSize=1.5732mm|CornerRadius=0mm|HoleSize=0mm|Usage=FLASHONLY|Rotation=237.500|XOffset=0mm|YOffset=0mm|HoleType=Round|Shape=Rectangle|*
%AMROTATEDRECTD201*
4,1,4,-0.4181,0.8077,0.9087,-0.0376,0.4181,-0.8077,-0.9087,0.0376,-0.4181,0.8077,0.0*
%
%ADD201ROTATEDRECTD201*%

%ADD202R,1.4032X1.7032*%
G04:AMPARAMS|DCode=203|XSize=0.7032mm|YSize=1.2032mm|CornerRadius=0.3516mm|HoleSize=0mm|Usage=FLASHONLY|Rotation=180.000|XOffset=0mm|YOffset=0mm|HoleType=Round|Shape=RoundedRectangle|*
%AMROUNDEDRECTD203*
21,1,0.7032,0.5000,0,0,180.0*
21,1,0.0000,1.2032,0,0,180.0*
1,1,0.7032,0.0000,0.2500*
1,1,0.7032,0.0000,0.2500*
1,1,0.7032,0.0000,-0.2500*
1,1,0.7032,0.0000,-0.2500*
%
%ADD203ROUNDEDRECTD203*%
%ADD204R,0.7032X1.2032*%
%ADD205R,1.2032X1.7032*%
G04:AMPARAMS|DCode=206|XSize=1.2032mm|YSize=2.2032mm|CornerRadius=0mm|HoleSize=0mm|Usage=FLASHONLY|Rotation=45.000|XOffset=0mm|YOffset=0mm|HoleType=Round|Shape=Rectangle|*
%AMROTATEDRECTD206*
4,1,4,0.3535,-1.2044,-1.2044,0.3535,-0.3535,1.2044,1.2044,-0.3535,0.3535,-1.2044,0.0*
%
%ADD206ROTATEDRECTD206*%

G04:AMPARAMS|DCode=207|XSize=1.016mm|YSize=0.8128mm|CornerRadius=0mm|HoleSize=0mm|Usage=FLASHONLY|Rotation=225.000|XOffset=0mm|YOffset=0mm|HoleType=Round|Shape=Rectangle|*
%AMROTATEDRECTD207*
4,1,4,0.0718,0.6466,0.6466,0.0718,-0.0718,-0.6466,-0.6466,-0.0718,0.0718,0.6466,0.0*
%
%ADD207ROTATEDRECTD207*%

G04:AMPARAMS|DCode=208|XSize=1.1182mm|YSize=1.4232mm|CornerRadius=0mm|HoleSize=0mm|Usage=FLASHONLY|Rotation=315.000|XOffset=0mm|YOffset=0mm|HoleType=Round|Shape=Rectangle|*
%AMROTATEDRECTD208*
4,1,4,-0.8985,-0.1078,0.1078,0.8985,0.8985,0.1078,-0.1078,-0.8985,-0.8985,-0.1078,0.0*
%
%ADD208ROTATEDRECTD208*%

G04:AMPARAMS|DCode=209|XSize=1.9532mm|YSize=1.3032mm|CornerRadius=0mm|HoleSize=0mm|Usage=FLASHONLY|Rotation=45.000|XOffset=0mm|YOffset=0mm|HoleType=Round|Shape=Rectangle|*
%AMROTATEDRECTD209*
4,1,4,-0.2298,-1.1513,-1.1513,-0.2298,0.2298,1.1513,1.1513,0.2298,-0.2298,-1.1513,0.0*
%
%ADD209ROTATEDRECTD209*%

G04:AMPARAMS|DCode=210|XSize=4.0532mm|YSize=4.7232mm|CornerRadius=0mm|HoleSize=0mm|Usage=FLASHONLY|Rotation=87.500|XOffset=0mm|YOffset=0mm|HoleType=Round|Shape=Rectangle|*
%AMROTATEDRECTD210*
4,1,4,2.2710,-2.1277,-2.4478,-1.9217,-2.2710,2.1277,2.4478,1.9217,2.2710,-2.1277,0.0*
%
%ADD210ROTATEDRECTD210*%

G04:AMPARAMS|DCode=211|XSize=0.9132mm|YSize=1.5732mm|CornerRadius=0mm|HoleSize=0mm|Usage=FLASHONLY|Rotation=177.500|XOffset=0mm|YOffset=0mm|HoleType=Round|Shape=Rectangle|*
%AMROTATEDRECTD211*
4,1,4,0.4905,0.7659,0.4219,-0.8058,-0.4905,-0.7659,-0.4219,0.8058,0.4905,0.7659,0.0*
%
%ADD211ROTATEDRECTD211*%

G04:AMPARAMS|DCode=212|XSize=4.0532mm|YSize=4.7232mm|CornerRadius=0mm|HoleSize=0mm|Usage=FLASHONLY|Rotation=127.500|XOffset=0mm|YOffset=0mm|HoleType=Round|Shape=Rectangle|*
%AMROTATEDRECTD212*
4,1,4,3.1073,-0.1702,-0.6399,-3.0455,-3.1073,0.1702,0.6399,3.0455,3.1073,-0.1702,0.0*
%
%ADD212ROTATEDRECTD212*%

G04:AMPARAMS|DCode=213|XSize=0.9132mm|YSize=1.5732mm|CornerRadius=0mm|HoleSize=0mm|Usage=FLASHONLY|Rotation=217.500|XOffset=0mm|YOffset=0mm|HoleType=Round|Shape=Rectangle|*
%AMROTATEDRECTD213*
4,1,4,-0.1166,0.9020,0.8411,-0.3461,0.1166,-0.9020,-0.8411,0.3461,-0.1166,0.9020,0.0*
%
%ADD213ROTATEDRECTD213*%

G04:AMPARAMS|DCode=214|XSize=4.0532mm|YSize=4.7232mm|CornerRadius=0mm|HoleSize=0mm|Usage=FLASHONLY|Rotation=174.830|XOffset=0mm|YOffset=0mm|HoleType=Round|Shape=Rectangle|*
%AMROTATEDRECTD214*
4,1,4,2.2312,2.1694,1.8055,-2.5346,-2.2312,-2.1694,-1.8055,2.5346,2.2312,2.1694,0.0*
%
%ADD214ROTATEDRECTD214*%

G04:AMPARAMS|DCode=215|XSize=0.9132mm|YSize=1.5732mm|CornerRadius=0mm|HoleSize=0mm|Usage=FLASHONLY|Rotation=264.830|XOffset=0mm|YOffset=0mm|HoleType=Round|Shape=Rectangle|*
%AMROTATEDRECTD215*
4,1,4,-0.7422,0.5256,0.8245,0.3839,0.7422,-0.5256,-0.8245,-0.3839,-0.7422,0.5256,0.0*
%
%ADD215ROTATEDRECTD215*%

G04:AMPARAMS|DCode=216|XSize=4.0532mm|YSize=4.7232mm|CornerRadius=0mm|HoleSize=0mm|Usage=FLASHONLY|Rotation=67.602|XOffset=0mm|YOffset=0mm|HoleType=Round|Shape=Rectangle|*
%AMROTATEDRECTD216*
4,1,4,1.4112,-2.7736,-2.9556,-0.9738,-1.4112,2.7736,2.9556,0.9738,1.4112,-2.7736,0.0*
%
%ADD216ROTATEDRECTD216*%

G04:AMPARAMS|DCode=217|XSize=0.9132mm|YSize=1.5732mm|CornerRadius=0mm|HoleSize=0mm|Usage=FLASHONLY|Rotation=157.602|XOffset=0mm|YOffset=0mm|HoleType=Round|Shape=Rectangle|*
%AMROTATEDRECTD217*
4,1,4,0.7219,0.5533,0.1224,-0.9012,-0.7219,-0.5533,-0.1224,0.9012,0.7219,0.5533,0.0*
%
%ADD217ROTATEDRECTD217*%

%ADD218C,4.5032*%
G04:AMPARAMS|DCode=219|XSize=4.2032mm|YSize=7.2032mm|CornerRadius=1.1016mm|HoleSize=0mm|Usage=FLASHONLY|Rotation=315.000|XOffset=0mm|YOffset=0mm|HoleType=Round|Shape=RoundedRectangle|*
%AMROUNDEDRECTD219*
21,1,4.2032,5.0000,0,0,315.0*
21,1,2.0000,7.2032,0,0,315.0*
1,1,2.2032,-1.0607,-2.4749*
1,1,2.2032,-2.4749,-1.0607*
1,1,2.2032,1.0607,2.4749*
1,1,2.2032,2.4749,1.0607*
%
%ADD219ROUNDEDRECTD219*%
G04:AMPARAMS|DCode=220|XSize=4.2032mm|YSize=7.2032mm|CornerRadius=1.1016mm|HoleSize=0mm|Usage=FLASHONLY|Rotation=317.500|XOffset=0mm|YOffset=0mm|HoleType=Round|Shape=RoundedRectangle|*
%AMROUNDEDRECTD220*
21,1,4.2032,5.0000,0,0,317.5*
21,1,2.0000,7.2032,0,0,317.5*
1,1,2.2032,-0.9517,-2.5188*
1,1,2.2032,-2.4263,-1.1676*
1,1,2.2032,0.9517,2.5188*
1,1,2.2032,2.4263,1.1676*
%
%ADD220ROUNDEDRECTD220*%
G04:AMPARAMS|DCode=221|XSize=4.2032mm|YSize=7.2032mm|CornerRadius=1.1016mm|HoleSize=0mm|Usage=FLASHONLY|Rotation=45.000|XOffset=0mm|YOffset=0mm|HoleType=Round|Shape=RoundedRectangle|*
%AMROUNDEDRECTD221*
21,1,4.2032,5.0000,0,0,45.0*
21,1,2.0000,7.2032,0,0,45.0*
1,1,2.2032,2.4749,-1.0607*
1,1,2.2032,1.0607,-2.4749*
1,1,2.2032,-2.4749,1.0607*
1,1,2.2032,-1.0607,2.4749*
%
%ADD221ROUNDEDRECTD221*%
D16*
X985520Y686060D02*
D03*
Y680460D02*
D03*
X944880Y689870D02*
D03*
Y684270D02*
D03*
X934720Y724910D02*
D03*
Y730510D02*
D03*
D17*
X978160Y643890D02*
D03*
X972560D02*
D03*
X958590Y698500D02*
D03*
X964190D02*
D03*
D22*
X1064573Y571742D02*
D03*
X1052317Y561457D02*
D03*
D29*
X777836Y793131D02*
D03*
X783493Y798788D02*
D03*
X793653Y811488D02*
D03*
X787996Y805831D02*
D03*
D30*
X764024Y752910D02*
D03*
X754125Y762810D02*
D03*
X827785Y729790D02*
D03*
X837684Y719890D02*
D03*
X845304Y850700D02*
D03*
X835405Y860600D02*
D03*
D31*
X795774Y762810D02*
D03*
X785875Y752910D02*
D03*
X799845Y818950D02*
D03*
X809744Y828849D02*
D03*
X874514Y729790D02*
D03*
X864615Y719890D02*
D03*
X902715Y757990D02*
D03*
X912614Y767889D02*
D03*
D34*
X848535Y867790D02*
D03*
X852494Y863830D02*
D03*
X895708Y845114D02*
D03*
X899668Y841154D02*
D03*
X924735Y860170D02*
D03*
X928694Y856210D02*
D03*
D35*
X880434Y930020D02*
D03*
X876475Y926060D02*
D03*
X884630Y845260D02*
D03*
X880670Y841300D02*
D03*
X894404Y832230D02*
D03*
X890445Y828270D02*
D03*
X881179Y834244D02*
D03*
X885138Y838204D02*
D03*
D37*
X819705Y864199D02*
D03*
X808435Y852841D02*
D03*
X828763Y871884D02*
D03*
X840018Y883256D02*
D03*
D38*
X985520Y732140D02*
D03*
X985520Y746140D02*
D03*
D42*
X845243Y574617D02*
D03*
X856557Y563303D02*
D03*
X1078807Y708083D02*
D03*
X1067493Y719397D02*
D03*
X1081463Y733367D02*
D03*
X1092777Y722053D02*
D03*
D43*
X828733Y558107D02*
D03*
X840047Y546793D02*
D03*
D50*
X1078046Y586445D02*
D03*
X1087224Y599552D02*
D03*
D72*
X939610Y717550D02*
D03*
X947610D02*
D03*
D73*
X964550Y713432D02*
D03*
X978550Y713432D02*
D03*
D74*
X797868Y738233D02*
D03*
X809181Y749547D02*
D03*
D163*
X775970Y735330D02*
D03*
X765890D02*
D03*
X775970Y720090D02*
D03*
X765890D02*
D03*
D164*
X656060Y723646D02*
D03*
X656060Y727456D02*
D03*
X656060Y731520D02*
D03*
X684276Y723646D02*
D03*
X684276Y727456D02*
D03*
X684276Y731520D02*
D03*
X656060Y735584D02*
D03*
X684276D02*
D03*
X656060Y739648D02*
D03*
X684276Y739648D02*
D03*
X684276Y759680D02*
D03*
X656060Y759680D02*
D03*
X684276Y755680D02*
D03*
X656060Y755680D02*
D03*
X684276Y751680D02*
D03*
X656060Y751680D02*
D03*
X684276Y747680D02*
D03*
X656060Y747680D02*
D03*
X684276Y743680D02*
D03*
X656060Y743680D02*
D03*
X684276Y779712D02*
D03*
X656060Y779712D02*
D03*
X684276Y775712D02*
D03*
X656060Y775712D02*
D03*
X684276Y771712D02*
D03*
X656060Y771712D02*
D03*
X684276Y767712D02*
D03*
X656060Y767712D02*
D03*
X684276Y763712D02*
D03*
X656060Y763712D02*
D03*
D165*
X715518Y709850D02*
D03*
Y719930D02*
D03*
D166*
X726680Y735090D02*
D03*
Y730090D02*
D03*
Y725090D02*
D03*
Y720090D02*
D03*
Y715090D02*
D03*
X754380Y735090D02*
D03*
Y730090D02*
D03*
Y725090D02*
D03*
Y720090D02*
D03*
Y715090D02*
D03*
D167*
X740530Y725090D02*
D03*
D168*
X929910Y684610D02*
D03*
Y689610D02*
D03*
Y694610D02*
D03*
X919210Y684610D02*
D03*
Y689610D02*
D03*
Y694610D02*
D03*
D169*
X965200Y654560D02*
D03*
Y686560D02*
D03*
D170*
X973200Y654560D02*
D03*
Y662560D02*
D03*
Y670560D02*
D03*
Y678560D02*
D03*
Y686560D02*
D03*
X957200D02*
D03*
Y678560D02*
D03*
Y670560D02*
D03*
Y662560D02*
D03*
Y654560D02*
D03*
D171*
X885351Y854212D02*
D03*
X882523Y857040D02*
D03*
X879694Y859869D02*
D03*
X876866Y862697D02*
D03*
X874037Y865526D02*
D03*
X871209Y868354D02*
D03*
X868380Y871182D02*
D03*
X865552Y874011D02*
D03*
X862723Y876839D02*
D03*
X859895Y879668D02*
D03*
X857067Y882496D02*
D03*
X854238Y885324D02*
D03*
X851410Y888153D02*
D03*
X888179Y857040D02*
D03*
X885351Y859869D02*
D03*
X882523Y862697D02*
D03*
X879694Y865526D02*
D03*
X876866Y868354D02*
D03*
X874037Y871182D02*
D03*
X871209Y874011D02*
D03*
X868380Y876839D02*
D03*
X865552Y879668D02*
D03*
X862723Y882496D02*
D03*
X859895Y885324D02*
D03*
X857067Y888153D02*
D03*
X854238Y890981D02*
D03*
X891008Y859869D02*
D03*
X888179Y862697D02*
D03*
X885351Y865526D02*
D03*
X882523Y868354D02*
D03*
X879694Y871182D02*
D03*
X876866Y874011D02*
D03*
X874037Y876839D02*
D03*
X871209Y879668D02*
D03*
X868380Y882496D02*
D03*
X865552Y885324D02*
D03*
X862723Y888153D02*
D03*
X859895Y890981D02*
D03*
X857067Y893810D02*
D03*
X893836Y862697D02*
D03*
X891008Y865526D02*
D03*
X888179Y868354D02*
D03*
X885351Y871182D02*
D03*
X882523Y874011D02*
D03*
X879694Y876839D02*
D03*
X876866Y879668D02*
D03*
X874037Y882496D02*
D03*
X871209Y885324D02*
D03*
X868380Y888153D02*
D03*
X865552Y890981D02*
D03*
X862723Y893810D02*
D03*
X859895Y896638D02*
D03*
X896665Y865526D02*
D03*
X893836Y868354D02*
D03*
X891008Y871182D02*
D03*
X888179Y874011D02*
D03*
X885351Y876839D02*
D03*
X882523Y879668D02*
D03*
X879694Y882496D02*
D03*
X876866Y885324D02*
D03*
X874037Y888153D02*
D03*
X871209Y890981D02*
D03*
X868380Y893810D02*
D03*
X865552Y896638D02*
D03*
X862723Y899467D02*
D03*
X899493Y868354D02*
D03*
X896665Y871182D02*
D03*
X893836Y874011D02*
D03*
X891008Y876839D02*
D03*
X888179Y879668D02*
D03*
X885351Y882496D02*
D03*
X882523Y885324D02*
D03*
X879694Y888153D02*
D03*
X876866Y890981D02*
D03*
X874037Y893810D02*
D03*
X871209Y896638D02*
D03*
X868380Y899467D02*
D03*
X865552Y902295D02*
D03*
X902321Y871182D02*
D03*
X899493Y874011D02*
D03*
X896665Y876839D02*
D03*
X893836Y879668D02*
D03*
X891008Y882496D02*
D03*
X888179Y885324D02*
D03*
X882523Y890981D02*
D03*
X879694Y893810D02*
D03*
X876866Y896638D02*
D03*
X874037Y899467D02*
D03*
X871209Y902295D02*
D03*
X868380Y905124D02*
D03*
X905150Y874011D02*
D03*
X902321Y876839D02*
D03*
X899493Y879668D02*
D03*
X896665Y882496D02*
D03*
X893836Y885324D02*
D03*
X891008Y888153D02*
D03*
X885351Y893810D02*
D03*
X882523Y896638D02*
D03*
X879694Y899467D02*
D03*
X876866Y902295D02*
D03*
X874037Y905124D02*
D03*
X871209Y907952D02*
D03*
X907978Y876839D02*
D03*
X905150Y879668D02*
D03*
X902321Y882496D02*
D03*
X899493Y885324D02*
D03*
X896665Y888153D02*
D03*
X893836Y890981D02*
D03*
X891008Y893810D02*
D03*
X888179Y896638D02*
D03*
X885351Y899467D02*
D03*
X882523Y902295D02*
D03*
X879694Y905124D02*
D03*
X876866Y907952D02*
D03*
X874037Y910780D02*
D03*
X910807Y879668D02*
D03*
X907978Y882496D02*
D03*
X905150Y885324D02*
D03*
X902321Y888153D02*
D03*
X899493Y890981D02*
D03*
X896665Y893810D02*
D03*
X893836Y896638D02*
D03*
X891008Y899467D02*
D03*
X888179Y902295D02*
D03*
X885351Y905124D02*
D03*
X882523Y907952D02*
D03*
X879694Y910780D02*
D03*
X876866Y913609D02*
D03*
X913635Y882496D02*
D03*
X910807Y885324D02*
D03*
X907978Y888153D02*
D03*
X905150Y890981D02*
D03*
X902321Y893810D02*
D03*
X899493Y896638D02*
D03*
X896665Y899467D02*
D03*
X893836Y902295D02*
D03*
X891008Y905124D02*
D03*
X888179Y907952D02*
D03*
X885351Y910780D02*
D03*
X882523Y913609D02*
D03*
X879694Y916437D02*
D03*
X916464Y885324D02*
D03*
X913635Y888153D02*
D03*
X910807Y890981D02*
D03*
X907978Y893810D02*
D03*
X905150Y896638D02*
D03*
X902321Y899467D02*
D03*
X899493Y902295D02*
D03*
X896665Y905124D02*
D03*
X893836Y907952D02*
D03*
X891008Y910780D02*
D03*
X888179Y913609D02*
D03*
X885351Y916437D02*
D03*
X882523Y919266D02*
D03*
X919292Y888153D02*
D03*
X916464Y890981D02*
D03*
X913635Y893810D02*
D03*
X910807Y896638D02*
D03*
X907978Y899467D02*
D03*
X905150Y902295D02*
D03*
X902321Y905124D02*
D03*
X899493Y907952D02*
D03*
X896665Y910780D02*
D03*
X893836Y913609D02*
D03*
X891008Y916437D02*
D03*
X888179Y919266D02*
D03*
X885351Y922094D02*
D03*
X922121Y890981D02*
D03*
X919292Y893810D02*
D03*
X916464Y896638D02*
D03*
X913635Y899467D02*
D03*
X910807Y902295D02*
D03*
X907978Y905124D02*
D03*
X905150Y907952D02*
D03*
X902321Y910780D02*
D03*
X899493Y913609D02*
D03*
X896665Y916437D02*
D03*
X893836Y919266D02*
D03*
X891008Y922094D02*
D03*
X888179Y924922D02*
D03*
D172*
X672510Y637540D02*
D03*
X757510Y637540D02*
D03*
D173*
X1079199Y906982D02*
D03*
X1145540Y868680D02*
D03*
D174*
X1111887Y924483D02*
D03*
X1122665Y918260D02*
D03*
X1133577Y911960D02*
D03*
X1144402Y905710D02*
D03*
D175*
X1165658Y849931D02*
D03*
X1203960Y783590D02*
D03*
D176*
X1202717Y848743D02*
D03*
X1208940Y837965D02*
D03*
X1215240Y827053D02*
D03*
X1221490Y816227D02*
D03*
D177*
X986017Y935648D02*
D03*
X1060011Y915822D02*
D03*
D178*
X1013062Y961013D02*
D03*
X1025083Y957792D02*
D03*
X1037254Y954530D02*
D03*
X1049328Y951295D02*
D03*
D179*
X764285Y771960D02*
D03*
X774184Y781860D02*
D03*
X784344Y771700D02*
D03*
X774445Y761800D02*
D03*
D180*
X925170Y817824D02*
D03*
X918042Y824952D02*
D03*
X917550Y810204D02*
D03*
X910422Y817332D02*
D03*
X912714Y913456D02*
D03*
X919841Y906329D02*
D03*
D181*
X991261Y866857D02*
D03*
X1001868Y877463D02*
D03*
X976021Y880827D02*
D03*
X986628Y891433D02*
D03*
D182*
X1020169Y446634D02*
D03*
X1030342Y400748D02*
D03*
D183*
X1028043Y412273D02*
D03*
X1022957Y435216D02*
D03*
D184*
X1186879Y592834D02*
D03*
X1231045Y576759D02*
D03*
D185*
X1220089Y581013D02*
D03*
X1198006Y589051D02*
D03*
D186*
X1186278Y729135D02*
D03*
D187*
X1173587Y706046D02*
D03*
X1170322Y718319D02*
D03*
X1167057Y730592D02*
D03*
X1163792Y742865D02*
D03*
X1217330Y757109D02*
D03*
X1220595Y744836D02*
D03*
X1223860Y732562D02*
D03*
X1227125Y720290D02*
D03*
D188*
X901896Y855617D02*
D03*
X908967Y862688D02*
D03*
X911442Y846071D02*
D03*
X918513Y853142D02*
D03*
D189*
X946310Y754410D02*
D03*
X966470Y726410D02*
D03*
X946310Y726410D02*
D03*
D190*
X950310Y754410D02*
D03*
X954310Y754410D02*
D03*
X958342D02*
D03*
X962406D02*
D03*
Y726410D02*
D03*
X958342Y726410D02*
D03*
X954310D02*
D03*
X950310Y726410D02*
D03*
D191*
X966470Y754410D02*
D03*
D192*
X970310Y750570D02*
D03*
X970310Y730410D02*
D03*
X942310D02*
D03*
Y750570D02*
D03*
D193*
X970310Y746506D02*
D03*
X970310Y742442D02*
D03*
Y738410D02*
D03*
X970310Y734410D02*
D03*
X942310Y734410D02*
D03*
X942310Y738410D02*
D03*
Y742442D02*
D03*
Y746506D02*
D03*
D194*
X850300Y787454D02*
D03*
D195*
X801686Y797177D02*
D03*
X805222Y800712D02*
D03*
X808757Y804248D02*
D03*
X812293Y807783D02*
D03*
X815828Y811319D02*
D03*
X819364Y814854D02*
D03*
X822899Y818390D02*
D03*
X826435Y821925D02*
D03*
X829970Y825461D02*
D03*
X833506Y828996D02*
D03*
X837041Y832532D02*
D03*
X840577Y836067D02*
D03*
X898913Y777731D02*
D03*
X895378Y774196D02*
D03*
X891842Y770660D02*
D03*
X888307Y767124D02*
D03*
X884771Y763589D02*
D03*
X881236Y760053D02*
D03*
X877700Y756518D02*
D03*
X874165Y752982D02*
D03*
X870629Y749447D02*
D03*
X867094Y745911D02*
D03*
X863558Y742376D02*
D03*
X860023Y738840D02*
D03*
D196*
Y836067D02*
D03*
X863558Y832532D02*
D03*
X867094Y828996D02*
D03*
X870629Y825461D02*
D03*
X874165Y821925D02*
D03*
X877700Y818390D02*
D03*
X881236Y814854D02*
D03*
X884771Y811319D02*
D03*
X888307Y807783D02*
D03*
X891842Y804248D02*
D03*
X895378Y800712D02*
D03*
X898913Y797177D02*
D03*
X840577Y738840D02*
D03*
X837042Y742376D02*
D03*
X833506Y745911D02*
D03*
X829970Y749447D02*
D03*
X826435Y752982D02*
D03*
X822899Y756518D02*
D03*
X819364Y760053D02*
D03*
X815828Y763589D02*
D03*
X812293Y767124D02*
D03*
X808757Y770660D02*
D03*
X805222Y774196D02*
D03*
X801686Y777731D02*
D03*
D197*
X974700Y906175D02*
D03*
X967572Y899048D02*
D03*
D198*
X1058488Y458716D02*
D03*
X1076475Y415294D02*
D03*
D199*
X1072209Y426245D02*
D03*
X1063216Y447956D02*
D03*
D200*
X1159352Y551218D02*
D03*
D201*
X1133766Y544930D02*
D03*
X1140590Y555642D02*
D03*
X1147414Y566353D02*
D03*
X1154238Y577064D02*
D03*
X1200961Y547297D02*
D03*
X1194137Y536586D02*
D03*
X1187314Y525875D02*
D03*
X1180490Y515164D02*
D03*
D202*
X973120Y951052D02*
D03*
D203*
X960120Y965200D02*
D03*
X952120Y965200D02*
D03*
X944120Y965200D02*
D03*
X936120D02*
D03*
X928120Y965200D02*
D03*
D204*
X920120D02*
D03*
D205*
X907120Y951052D02*
D03*
D206*
X764052Y827607D02*
D03*
X728697Y792252D02*
D03*
D207*
X941864Y872070D02*
D03*
X959683Y889889D02*
D03*
D208*
X788433Y831371D02*
D03*
X765276Y854529D02*
D03*
D209*
X710159Y778836D02*
D03*
X729250Y759744D02*
D03*
D210*
X960530Y448363D02*
D03*
D211*
X942292Y467376D02*
D03*
X954980Y466822D02*
D03*
X967668Y466269D02*
D03*
X980356Y465714D02*
D03*
X977940Y410367D02*
D03*
X965251Y410921D02*
D03*
X952563Y411475D02*
D03*
X939876Y412029D02*
D03*
D212*
X1106350Y494340D02*
D03*
D213*
X1080158Y497182D02*
D03*
X1090233Y504913D02*
D03*
X1100309Y512644D02*
D03*
X1110384Y520376D02*
D03*
X1144110Y476424D02*
D03*
X1134034Y468693D02*
D03*
X1123959Y460961D02*
D03*
X1113883Y453230D02*
D03*
D214*
X1192950Y652190D02*
D03*
D215*
X1173107Y634857D02*
D03*
X1174251Y647506D02*
D03*
X1175396Y660154D02*
D03*
X1176540Y672802D02*
D03*
X1231715Y667810D02*
D03*
X1230570Y655162D02*
D03*
X1229426Y642514D02*
D03*
X1228281Y629865D02*
D03*
D216*
X885113Y465021D02*
D03*
D217*
X874435Y489106D02*
D03*
X886177Y484267D02*
D03*
X897919Y479428D02*
D03*
X909661Y474589D02*
D03*
X888551Y423368D02*
D03*
X876809Y428207D02*
D03*
X865068Y433047D02*
D03*
X853326Y437886D02*
D03*
D218*
X969026Y519742D02*
D03*
Y819742D02*
D03*
X1119026Y669742D02*
D03*
X819026Y669742D02*
D03*
D219*
X1122680Y764540D02*
D03*
X866140Y527050D02*
D03*
D220*
X1097623Y554982D02*
D03*
D221*
X1069340Y834390D02*
D03*
X781050Y497840D02*
D03*
M02*
