G04 Layer_Color=2752767*
%FSLAX44Y44*%
%MOMM*%
G71*
G01*
G75*
%ADD285C,0.0677*%
D285*
X910082Y671830D02*
G03*
X910082Y671830I-2032J0D01*
G01*
X906272Y678180D02*
G03*
X906272Y678180I-2032J0D01*
G01*
X724662Y697230D02*
G03*
X724662Y697230I-2032J0D01*
G01*
X727202Y702310D02*
G03*
X727202Y702310I-2032J0D01*
G01*
X769112Y704850D02*
G03*
X769112Y704850I-2032J0D01*
G01*
X762762Y712470D02*
G03*
X762762Y712470I-2032J0D01*
G01*
X750062Y657860D02*
G03*
X750062Y657860I-2032J0D01*
G01*
X911815Y875035D02*
G03*
X911815Y875035I-2032J0D01*
G01*
X951357Y697865D02*
G03*
X951357Y697865I-2032J0D01*
G01*
X927862Y669290D02*
G03*
X927862Y669290I-2032J0D01*
G01*
X925322Y664210D02*
G03*
X925322Y664210I-2032J0D01*
G01*
X698497Y770126D02*
G03*
X698497Y770126I-2032J0D01*
G01*
X706167Y759460D02*
G03*
X706167Y759460I-2032J0D01*
G01*
X699262Y748030D02*
G03*
X699262Y748030I-2032J0D01*
G01*
X893572Y850900D02*
G03*
X893572Y850900I-2032J0D01*
G01*
X906272Y913130D02*
G03*
X906272Y913130I-2032J0D01*
G01*
X885952Y880110D02*
G03*
X885952Y880110I-2032J0D01*
G01*
X887222Y922020D02*
G03*
X887222Y922020I-2032J0D01*
G01*
X874522Y905510D02*
G03*
X874522Y905510I-2032J0D01*
G01*
X861822Y902400D02*
G03*
X861822Y902400I-2032J0D01*
G01*
X888492Y859790D02*
G03*
X888492Y859790I-2032J0D01*
G01*
X879602Y877570D02*
G03*
X879602Y877570I-2032J0D01*
G01*
X1200102Y670123D02*
G03*
X1200102Y670123I-2032J0D01*
G01*
X1169177Y556887D02*
G03*
X1169177Y556887I-2032J0D01*
G01*
X981473Y444754D02*
G03*
X981473Y444754I-2032J0D01*
G01*
X910082Y899160D02*
G03*
X910082Y899160I-2032J0D01*
G01*
X910011Y893810D02*
G03*
X910011Y893810I-2032J0D01*
G01*
X861927Y879668D02*
G03*
X861927Y879668I-2032J0D01*
G01*
X714502Y605790D02*
G03*
X714502Y605790I-2032J0D01*
G01*
X687992Y622140D02*
G03*
X687992Y622140I-2032J0D01*
G01*
X686562Y655320D02*
G03*
X686562Y655320I-2032J0D01*
G01*
X747282Y651270D02*
G03*
X747282Y651270I-2032J0D01*
G01*
X1188212Y749300D02*
G03*
X1188212Y749300I-2032J0D01*
G01*
X1125982Y502920D02*
G03*
X1125982Y502920I-2032J0D01*
G01*
X903732Y455930D02*
G03*
X903732Y455930I-2032J0D01*
G01*
M02*
