M48
;Layer_Color=9474304
;FILE_FORMAT=4:4
METRIC,LZ
;TYPE=PLATED
T2F00S00C0.2000
T3F00S00C0.4000
T4F00S00C4.3000
%
T02
X0105283Y0038989
X01194626Y00632179
X0120015Y0063119
Y0064516
X01195889Y00646092
X0119126Y0064516
X0119253Y0065786
X01196922Y00657475
X0120142Y0065786
X0119888Y0071374
X0119438Y00712378
X0119507Y0072644
X01191073Y0072464
X0119253Y0073787
X01187766Y00736901
X0118237Y0073533
X0118618Y007239
X0118999Y007112
Y0063246
X01163438Y00545499
X01159789Y00546534
X01155104Y00548305
X0114935Y0053975
X01152432Y00536182
X011557Y005334
X0114935Y0052451
X01145811Y00526865
X01141071Y00530233
X01094116Y00532357
X01098406Y00537039
X01093724Y00541329
X01098014Y0054601
X01102696Y0054172
X01106986Y00546402
X01102304Y00550692
X01106594Y00555374
X01110884Y00560056
X01106202Y00564346
X01101913Y00559664
X01097231Y00563954
X01092549Y00568244
X01088259Y00563562
X01092941Y00559272
X01088651Y0055459
X01084361Y00549909
X01080071Y00545227
X01084753Y00540937
X01089043Y00545619
X01093333Y005503
X01097623Y00554982
X01083969Y0055888
X01079679Y00554199
X01075389Y00549517
X01071099Y00544835
X01066809Y00540154
X01071491Y00535863
X01076173Y00531574
X01080854Y00527284
X01085144Y00531965
X01080463Y00536255
X01075781Y00540545
X01089434Y00536647
X01089826Y00527675
X01085536Y00522994
X0109093Y0048387
X01093131Y00480018
X0109601Y0047625
X0110617Y0048387
X0110326Y00487679
X0110109Y0049149
X0111633
X01113389Y0049534
X0111125Y0049911
X01111276Y00551084
X01115566Y00555765
X01119856Y00560447
X01115174Y00564737
X01110492Y00569027
X01114782Y00573709
X01110101Y00577999
X01114391Y00582681
X01119072Y00578391
X01123754Y00574101
X01128436Y00569811
X01124146Y00565129
X01119464Y00569419
X01105811Y00573317
X01101129Y00577607
X01096839Y00572925
X01101521Y00568635
X01105419Y00582289
X01109709Y00586971
X0110921Y00733109
X011137Y00737599
X0111819Y00742089
Y00751069
X0112268Y0074658
X0112717Y0075107
X0113166Y0075556
X0112717Y0076005
X0113166Y0076454
X0113166Y0077352
X0113615Y0076903
X0113615Y0077801
X0114064Y0077352
X01149621Y0077352
X01145131Y0077801
X01149621Y00782501
X01145131Y00786991
X01140641Y00782501
X01136151Y00786991
X0114064Y00791481
X0113166Y00791481
X0112717Y00786991
Y0077801
X0112268Y00782501
X0113166Y00782501
X0112717Y0076903
X0112268Y0077352
X0111819Y0076903
X011137Y0077352
X0111819Y0077801
X011137Y0076454
X0111819Y0076005
X0112268Y0075556
X0112268Y0076454
X011137Y0075556
X0110921Y0076005
X0110921Y0075107
X01104719Y0075556
X01104719Y0074658
X01095739Y0074658
X01100229Y00742089
X01104719Y00737599
X0110921Y00742089
X011137Y0074658
X01100229Y0075107
X01095739Y0075556
X01091249Y0075107
X01100229Y0076005
X01104719Y0076454
X0110921Y0076903
X01136151Y0076005
X0114064Y0076454
X01145131Y0076903
X01154111Y0077801
X0100711Y0072644
X0100457Y0069215
X009779Y006985
X0095123Y0068707
Y0065405
X0096647Y006477
X0098171Y0065659
X0091313Y0068961
X0089535Y0072009
X0093726Y0076327
X00893081Y0054501
X00897571Y0054052
X00893081Y0053603
X00888591Y0053154
X00884101Y0053603
X00879611Y0054052
X0087961Y0053154
X0087512Y0053603
X0087063Y0053154
X0086614Y0053603
X0086165Y0054052
X0085716Y0053603
X0086165Y0053154
X0085716Y0052705
X00848179
X00852669Y0053154
X0085267Y0052256
X0085267Y0051358
X0084818Y0050909
X00843689Y0051358
X00848179Y0051807
X00839199Y0051807
X00843689Y0052256
X00834709Y0051358
X00839199Y0050909
X00843689Y00504599
X0084818Y00500109
X0085716Y00500109
X0086165Y00504599
X0085716Y00509089
X0085267Y00504599
X0085267Y00495619
X0086165Y00513579
X0086614Y0050909
Y0051807
X0087063Y0051358
X0087512Y0051807
X0087063Y0052256
X0087512Y0052705
X008841
X00879611Y0052256
X0086165Y0052256
X0085716Y0051807
X0086614Y0052705
Y0054501
X0087063Y00540521
X0087512Y00545011
X0087961Y00549501
X0087512Y00553991
X0087063Y00549501
X008841Y00553991
X0088859Y00549501
X008841Y0054501
X00888591Y0054052
X0087961Y00558481
X00879082Y00470106
X00877812Y00465026
X00876542Y00459946
X00889545Y00460166
X00888275Y00455086
X00890815Y00465246
X00864809Y00464806
X00866079Y00469886
X00867349Y00474966
X00803501Y00475389
X00807991Y00479879
X00799011Y00479879
X0079901Y00470899
X0079452Y00475389
X0079452Y00466409
X0079452Y0048437
X00799011Y0048886
X00807991Y0048886
X00803501Y0048437
X00812481Y0048437
X00803501Y0049335
X0079901Y0049784
X0079452Y0050233
X0079452Y0049335
X00941289Y00451652
X00941377Y00446416
X00941465Y00441181
X00954153Y00440627
X00954065Y00445862
X00953977Y00451098
X00966665Y00450544
X00966753Y00445308
X00966841Y00440073
X0079003Y00470899
X0078554Y00475389
X0079003Y00479879
X0078105
X0078554Y0048437
X0079003Y0048886
X0078554Y0049335
X0079003Y0049784
X0078105Y0049784
X0078105Y0048886
X0077656Y0049335
X0077207Y0048886
X0077656Y0048437
X0076758Y0049335
X0076309Y0049784
X00758599Y0050233
X00763089Y0050682
X0076758Y0051131
X0076758Y0050233
X0077207Y0050682
X0077656Y0050233
X0077207Y0049784
X0077656Y0051131
X0077207Y00515801
X0078105
X0077656Y00520291
X0077207Y00524781
X0076758Y00529271
X0076758Y00520291
X0076309Y00524781
X00763089Y00515801
X00754109Y00515801
X00758599Y00520291
Y0051131
X00754109Y0050682
X00749619Y0051131
X0078105Y0050682
X0078554Y0050233
X0079003Y0050682
X0078554Y0051131
X0076581Y0063246
Y0063754
X0076073
Y0064262
Y006477
X0075565
X0075057Y006477
X0075057Y0064262
X0075565
Y0063754
Y0063246
X0076073
X0075057Y0063246
X0075057Y0063754
X0074549
X0074549Y0063246
X0074549Y0064262
X0076581
X0072064Y0063877
Y0062777
X0070964Y0062777
X0070964Y0063877
Y0064977
X0072064Y0064977
X0068453Y0066167
X0067691Y0071882
Y007239
Y0072898
Y0073406
X00669358Y00764608
Y0076962
Y007747
X006731Y0077851
X0073914Y0077724
X00741834Y00779934
X00742732Y00773648
X00745426Y00776342
X00749018Y0077275
X00746324Y00770056
X00760475Y00791465
X0074553Y0073009
X0073553
Y0072009
X0074553
X00749698Y00802242
X00746106Y00805834
X0075329
X00756883Y00802242
X0075329Y0079865
X00756883Y00795057
X00760475Y0079865
X00764067Y00795057
X00749698Y00809426
X0073533Y0081661
X00738922Y00820202
X0073084Y008211
X00734432Y00824692
X00729942Y00829182
X0072635Y0082559
X0072186Y0083008
X00725452Y00833672
X008763Y0083947
X0088773
X00894546Y00826612
X0093726Y0088011
X0093218Y0091694
X0092075Y0092837
X0092329Y0094361
X0091694Y0094488
X0093853Y0093472
X0094615Y0093091
X00995383Y00930364
X0101219Y0094361
X01025593Y0094988
X01036962Y00948148
X01055035Y00941991
X01041352Y00920676
X01014446Y00906114
X01003512Y00955797
X01101313Y00921916
X0110363Y0090678
X0112111Y00910486
X01131644Y00905871
X01147506Y00895246
X01128773Y00878199
X01099015Y00871096
X01086878Y00899454
X0108281Y0083888
X010873Y0083439
X0108281Y008299
X010873Y0082541
X01091791Y008299
Y0082092
X01096281Y0082541
X01096281Y0081643
X01100771Y0082092
X01082811Y0082092
X010873Y0081643
X01091791Y00811939
X0108281
X0108281Y00802959
X010873Y00807449
X0107832Y00807449
X0107832Y0081643
X0107383Y0082092
X0106934Y0081643
X0107383Y00811939
X0107832Y0082541
X0107832Y0083439
X0107383Y008299
X0106934Y0083439
X0106485Y008299
X0106934Y0082541
X0106485Y0082092
X0106036Y0082541
X0105587Y008299
X0105138Y0083439
X0106036Y0083439
X0106485Y0083888
X0107383Y0083888
X0106934Y0084337
X0107383Y0084786
X0107832Y0084337
X0106934Y0085235
X0106485Y0084786
X0106036Y0085235
X0106485Y00856841
X0106036Y00861331
X0105587Y00865821
X0105138Y00861331
X0105587Y00856841
X01046889
X01051379Y0085235
X0105587Y0084786
X01046889Y0084786
Y0083888
X01051379Y0084337
X0105587Y0083888
X0106036Y0084337
X01042399Y0084337
X01042399Y0085235
X01037909Y0084786
X01168544Y00839572
X0118999Y008382
X01164876Y00808945
X0113615Y00795971
X0085471Y0089916
X01192276Y00851807
X01203706Y0083201
X01210521Y00822746
X01218946Y00805614
X01194199Y00800217
T03
X00809621Y00369944
X00820181Y00364564
X00830922Y00359555
X00841831Y00354924
X00852896Y00350677
X00864102Y00346819
X00875435Y00343354
X00886883Y00340286
X00898431Y0033762
X00910065Y00335358
X00921771Y00333504
X00933534Y0033206
X00945341Y00331027
X00957176Y00330407
X00969026Y003302
X00980876Y00330407
X00992711Y00331027
X01004518Y0033206
X01016281Y00333504
X01027987Y00335358
X01039621Y0033762
X01051169Y00340286
X01062616Y00343353
X0107395Y00346818
X01085156Y00350677
X01096221Y00354924
X0110713Y00359555
X01117871Y00364564
X01128431Y00369944
X01138797Y0037569
X01148956Y00381794
X01158895Y00388249
X01168604Y00395047
X01196224Y00417413
X01204892Y00425496
X01213272Y00433876
X01221355Y00442544
X0122913Y00451488
X01236589Y00460699
X01243721Y00470164
X01250519Y00479872
X01256974Y00489812
X01263078Y00499971
X01268824Y00510336
X01274204Y00520896
X01279213Y00531638
X01283844Y00542547
X01288091Y00553611
X01291949Y00564818
X01295414Y00576151
X01298482Y00587599
X01301148Y00599147
X01303409Y00610781
X01305263Y00622487
X01306708Y0063425
X01307741Y00646057
X01308361Y00657892
X01308568Y00669742
X01308361Y00681592
X01307741Y00693427
X01306708Y00705234
X01305263Y00716997
X01303409Y00728702
X01301148Y00740336
X01298482Y00751884
X01295414Y00763332
X01291949Y00774666
X01288091Y00785872
X01187279Y00409638
X01178069Y00402179
X00669228Y00510337
X00663848Y00520896
X00658839Y00531638
X00654208Y00542547
X00649961Y00553612
X00646103Y00564818
X00642637Y00576151
X0063957Y00587599
X00636904Y00599147
X00634643Y00610781
X00632789Y00622487
X00631344Y0063425
X00630311Y00646057
X00629691Y00657892
X00629484Y00669742
X00629691Y00681592
X00630311Y00693427
X00631344Y00705234
X00632789Y00716997
X00634643Y00728703
X00636904Y00740337
X0063957Y00751885
X00642637Y00763332
X00646103Y00774666
X00649961Y00785872
X00654208Y00796936
X00658839Y00807846
X00663848Y00818587
X00669228Y00829147
X00674974Y00839513
X00681078Y00849672
X00687533Y00859611
X00694331Y0086932
X00701463Y00878785
X00708922Y00887995
X00716697Y0089694
X0072478Y00905607
X0073316Y00913988
X00741828Y0092207
X00750773Y00929846
X00759983Y00937304
X00769448Y00944437
X00779157Y00951235
X00789096Y0095769
X00799255Y00963794
X00809621Y00969539
X00820181Y0097492
X00830922Y00979929
X00841831Y00984559
X00852896Y00988807
X00864102Y00992665
X00875436Y0099613
X00886883Y00999198
X00898431Y01001864
X00910065Y01004125
X00921771Y01005979
X00933534Y01007423
X00945341Y01008456
X00957176Y01009077
X00969026Y01009284
X00980876Y01009077
X00992711Y01008456
X01004518Y01007423
X01016281Y01005979
X01027987Y01004125
X01039621Y01001864
X01051169Y00999198
X01062617Y0099613
X0107395Y00992665
X01085156Y00988807
X01096221Y00984559
X0110713Y00979929
X01117871Y0097492
X01128431Y00969539
X01138797Y00963794
X01148956Y0095769
X01158895Y00951235
X01168604Y00944437
X01178069Y00937304
X01187279Y00929846
X01196224Y0092207
X01204892Y00913988
X01213272Y00905607
X01221355Y0089694
X0122913Y00887995
X01236589Y00878785
X01243721Y00869319
X01250519Y00859611
X01256974Y00849671
X01263078Y00839513
X01268824Y00829147
X01274204Y00818587
X01279213Y00807846
X01283844Y00796936
T04
X00969026Y00519742
X01119026Y00669742
X00819026Y00669742
X00969026Y00819742
M30
