G04 Layer_Color=2752767*
%FSLAX44Y44*%
%MOMM*%
G71*
G01*
G75*
%ADD284C,0.0508*%
D284*
X759460Y765048D02*
X760476Y766064D01*
X761492D01*
X760476Y767080D01*
X761492Y768096D01*
X760476D01*
X759460Y769112D01*
X758444Y768096D01*
X757428D01*
X758444Y767080D01*
X757428Y766064D01*
X758444D01*
X759460Y765048D01*
X812800Y791718D02*
X813816Y792734D01*
X814832D01*
X813816Y793750D01*
X814832Y794766D01*
X813816D01*
X812800Y795782D01*
X811784Y794766D01*
X810768D01*
X811784Y793750D01*
X810768Y792734D01*
X811784D01*
X812800Y791718D01*
X857250Y831088D02*
X858266Y832104D01*
X859282D01*
X858266Y833120D01*
X859282Y834136D01*
X858266D01*
X857250Y835152D01*
X856234Y834136D01*
X855218D01*
X856234Y833120D01*
X855218Y832104D01*
X856234D01*
X857250Y831088D01*
X762355Y761593D02*
X763371Y762609D01*
X764387D01*
X763371Y763625D01*
X764387Y764641D01*
X763371D01*
X762355Y765657D01*
X761339Y764641D01*
X760323D01*
X761339Y763625D01*
X760323Y762609D01*
X761339D01*
X762355Y761593D01*
X808990Y790448D02*
X810006Y791464D01*
X811022D01*
X810006Y792480D01*
X811022Y793496D01*
X810006D01*
X808990Y794512D01*
X807974Y793496D01*
X806958D01*
X807974Y792480D01*
X806958Y791464D01*
X807974D01*
X808990Y790448D01*
X854710Y834898D02*
X855726Y835914D01*
X856742D01*
X855726Y836930D01*
X856742Y837946D01*
X855726D01*
X854710Y838962D01*
X853694Y837946D01*
X852678D01*
X853694Y836930D01*
X852678Y835914D01*
X853694D01*
X854710Y834898D01*
X888179Y860665D02*
X889195Y861681D01*
X890211D01*
X889195Y862697D01*
X890211Y863713D01*
X889195D01*
X888179Y864729D01*
X887163Y863713D01*
X886147D01*
X887163Y862697D01*
X886147Y861681D01*
X887163D01*
X888179Y860665D01*
X897890Y862268D02*
X898906Y863284D01*
X899922D01*
X898906Y864300D01*
X899922Y865316D01*
X898906D01*
X897890Y866332D01*
X896874Y865316D01*
X895858D01*
X896874Y864300D01*
X895858Y863284D01*
X896874D01*
X897890Y862268D01*
X909783Y873003D02*
X910799Y874019D01*
X911815D01*
X910799Y875035D01*
X911815Y876051D01*
X910799D01*
X909783Y877067D01*
X908767Y876051D01*
X907751D01*
X908767Y875035D01*
X907751Y874019D01*
X908767D01*
X909783Y873003D01*
X1050290Y715518D02*
X1051306Y716534D01*
X1052322D01*
X1051306Y717550D01*
X1052322Y718566D01*
X1051306D01*
X1050290Y719582D01*
X1049274Y718566D01*
X1048258D01*
X1049274Y717550D01*
X1048258Y716534D01*
X1049274D01*
X1050290Y715518D01*
X1046480D02*
X1047496Y716534D01*
X1048512D01*
X1047496Y717550D01*
X1048512Y718566D01*
X1047496D01*
X1046480Y719582D01*
X1045464Y718566D01*
X1044448D01*
X1045464Y717550D01*
X1044448Y716534D01*
X1045464D01*
X1046480Y715518D01*
X1050290Y679958D02*
X1051306Y680974D01*
X1052322D01*
X1051306Y681990D01*
X1052322Y683006D01*
X1051306D01*
X1050290Y684022D01*
X1049274Y683006D01*
X1048258D01*
X1049274Y681990D01*
X1048258Y680974D01*
X1049274D01*
X1050290Y679958D01*
X1046480Y678688D02*
X1047496Y679704D01*
X1048512D01*
X1047496Y680720D01*
X1048512Y681736D01*
X1047496D01*
X1046480Y682752D01*
X1045464Y681736D01*
X1044448D01*
X1045464Y680720D01*
X1044448Y679704D01*
X1045464D01*
X1046480Y678688D01*
X891540Y868933D02*
X892556Y869949D01*
X893572D01*
X892556Y870965D01*
X893572Y871981D01*
X892556D01*
X891540Y872997D01*
X890524Y871981D01*
X889508D01*
X890524Y870965D01*
X889508Y869949D01*
X890524D01*
X891540Y868933D01*
Y852678D02*
X892556Y853694D01*
X893572D01*
X892556Y854710D01*
X893572Y855726D01*
X892556D01*
X891540Y856742D01*
X890524Y855726D01*
X889508D01*
X890524Y854710D01*
X889508Y853694D01*
X890524D01*
X891540Y852678D01*
X664210Y749808D02*
X665226Y750824D01*
X666242D01*
X665226Y751840D01*
X666242Y752856D01*
X665226D01*
X664210Y753872D01*
X663194Y752856D01*
X662178D01*
X663194Y751840D01*
X662178Y750824D01*
X663194D01*
X664210Y749808D01*
X941070Y667258D02*
X942086Y668274D01*
X943102D01*
X942086Y669290D01*
X943102Y670306D01*
X942086D01*
X941070Y671322D01*
X940054Y670306D01*
X939038D01*
X940054Y669290D01*
X939038Y668274D01*
X940054D01*
X941070Y667258D01*
X942340Y662178D02*
X943356Y663194D01*
X944372D01*
X943356Y664210D01*
X944372Y665226D01*
X943356D01*
X942340Y666242D01*
X941324Y665226D01*
X940308D01*
X941324Y664210D01*
X940308Y663194D01*
X941324D01*
X942340Y662178D01*
X692150Y743458D02*
X693166Y744474D01*
X694182D01*
X693166Y745490D01*
X694182Y746506D01*
X693166D01*
X692150Y747522D01*
X691134Y746506D01*
X690118D01*
X691134Y745490D01*
X690118Y744474D01*
X691134D01*
X692150Y743458D01*
X712470Y726948D02*
X713486Y727964D01*
X714502D01*
X713486Y728980D01*
X714502Y729996D01*
X713486D01*
X712470Y731012D01*
X711454Y729996D01*
X710438D01*
X711454Y728980D01*
X710438Y727964D01*
X711454D01*
X712470Y726948D01*
X698500Y757428D02*
X699516Y758444D01*
X700532D01*
X699516Y759460D01*
X700532Y760476D01*
X699516D01*
X698500Y761492D01*
X697484Y760476D01*
X696468D01*
X697484Y759460D01*
X696468Y758444D01*
X697484D01*
X698500Y757428D01*
X682097Y753618D02*
X683113Y754634D01*
X684129D01*
X683113Y755650D01*
X684129Y756666D01*
X683113D01*
X682097Y757682D01*
X681081Y756666D01*
X680065D01*
X681081Y755650D01*
X680065Y754634D01*
X681081D01*
X682097Y753618D01*
X693420Y754888D02*
X694436Y755904D01*
X695452D01*
X694436Y756920D01*
X695452Y757936D01*
X694436D01*
X693420Y758952D01*
X692404Y757936D01*
X691388D01*
X692404Y756920D01*
X691388Y755904D01*
X692404D01*
X693420Y754888D01*
X914400Y857758D02*
X915416Y858774D01*
X916432D01*
X915416Y859790D01*
X916432Y860806D01*
X915416D01*
X914400Y861822D01*
X913384Y860806D01*
X912368D01*
X913384Y859790D01*
X912368Y858774D01*
X913384D01*
X914400Y857758D01*
X905510Y906018D02*
X906526Y907034D01*
X907542D01*
X906526Y908050D01*
X907542Y909066D01*
X906526D01*
X905510Y910082D01*
X904494Y909066D01*
X903478D01*
X904494Y908050D01*
X903478Y907034D01*
X904494D01*
X905510Y906018D01*
X902708Y903478D02*
X903724Y904494D01*
X904740D01*
X903724Y905510D01*
X904740Y906526D01*
X903724D01*
X902708Y907542D01*
X901692Y906526D01*
X900676D01*
X901692Y905510D01*
X900676Y904494D01*
X901692D01*
X902708Y903478D01*
X876564Y871728D02*
X877580Y872744D01*
X878596D01*
X877580Y873760D01*
X878596Y874776D01*
X877580D01*
X876564Y875792D01*
X875548Y874776D01*
X874532D01*
X875548Y873760D01*
X874532Y872744D01*
X875548D01*
X876564Y871728D01*
X885351Y874807D02*
X886367Y875823D01*
X887383D01*
X886367Y876839D01*
X887383Y877855D01*
X886367D01*
X885351Y878871D01*
X884335Y877855D01*
X883319D01*
X884335Y876839D01*
X883319Y875823D01*
X884335D01*
X885351Y874807D01*
X913635Y891778D02*
X914651Y892794D01*
X915667D01*
X914651Y893810D01*
X915667Y894826D01*
X914651D01*
X913635Y895842D01*
X912619Y894826D01*
X911603D01*
X912619Y893810D01*
X911603Y892794D01*
X912619D01*
X913635Y891778D01*
X876866Y905920D02*
X877882Y906936D01*
X878898D01*
X877882Y907952D01*
X878898Y908968D01*
X877882D01*
X876866Y909984D01*
X875850Y908968D01*
X874834D01*
X875850Y907952D01*
X874834Y906936D01*
X875850D01*
X876866Y905920D01*
X1198070Y668091D02*
X1199086Y669107D01*
X1200102D01*
X1199086Y670123D01*
X1200102Y671139D01*
X1199086D01*
X1198070Y672155D01*
X1197054Y671139D01*
X1196038D01*
X1197054Y670123D01*
X1196038Y669107D01*
X1197054D01*
X1198070Y668091D01*
X1167145Y554855D02*
X1168161Y555871D01*
X1169177D01*
X1168161Y556887D01*
X1169177Y557903D01*
X1168161D01*
X1167145Y558919D01*
X1166129Y557903D01*
X1165113D01*
X1166129Y556887D01*
X1165113Y555871D01*
X1166129D01*
X1167145Y554855D01*
X894080Y894588D02*
X895096Y895604D01*
X896112D01*
X895096Y896620D01*
X896112Y897636D01*
X895096D01*
X894080Y898652D01*
X893064Y897636D01*
X892048D01*
X893064Y896620D01*
X892048Y895604D01*
X893064D01*
X894080Y894588D01*
X888179Y917234D02*
X889195Y918250D01*
X890211D01*
X889195Y919266D01*
X890211Y920282D01*
X889195D01*
X888179Y921298D01*
X887163Y920282D01*
X886148D01*
X887163Y919266D01*
X886148Y918250D01*
X887163D01*
X888179Y917234D01*
X902322Y908748D02*
X903338Y909764D01*
X904354D01*
X903338Y910780D01*
X904354Y911796D01*
X903338D01*
X902322Y912812D01*
X901306Y911796D01*
X900290D01*
X901306Y910780D01*
X900290Y909764D01*
X901306D01*
X902322Y908748D01*
X905510Y894588D02*
X906526Y895604D01*
X907542D01*
X906526Y896620D01*
X907542Y897636D01*
X906526D01*
X905510Y898652D01*
X904494Y897636D01*
X903478D01*
X904494Y896620D01*
X903478Y895604D01*
X904494D01*
X905510Y894588D01*
X896620Y903478D02*
X897636Y904494D01*
X898652D01*
X897636Y905510D01*
X898652Y906526D01*
X897636D01*
X896620Y907542D01*
X895604Y906526D01*
X894588D01*
X895604Y905510D01*
X894588Y904494D01*
X895604D01*
X896620Y903478D01*
X879694Y914405D02*
X880710Y915421D01*
X881726D01*
X880710Y916437D01*
X881726Y917453D01*
X880710D01*
X879694Y918469D01*
X878678Y917453D01*
X877662D01*
X878678Y916437D01*
X877662Y915421D01*
X878678D01*
X879694Y914405D01*
X885351Y908748D02*
X886367Y909764D01*
X887383D01*
X886367Y910780D01*
X887383Y911796D01*
X886367D01*
X885351Y912812D01*
X884335Y911796D01*
X883319D01*
X884335Y910780D01*
X883319Y909764D01*
X884335D01*
X885351Y908748D01*
X862724Y897435D02*
X863740Y898451D01*
X864756D01*
X863740Y899467D01*
X864756Y900483D01*
X863740D01*
X862724Y901499D01*
X861708Y900483D01*
X860692D01*
X861708Y899467D01*
X860692Y898451D01*
X861708D01*
X862724Y897435D01*
X859895Y877636D02*
X860911Y878652D01*
X861927D01*
X860911Y879668D01*
X861927Y880684D01*
X860911D01*
X859895Y881700D01*
X858879Y880684D01*
X857863D01*
X858879Y879668D01*
X857863Y878652D01*
X858879D01*
X859895Y877636D01*
X893836Y917234D02*
X894852Y918250D01*
X895868D01*
X894852Y919266D01*
X895868Y920282D01*
X894852D01*
X893836Y921298D01*
X892820Y920282D01*
X891804D01*
X892820Y919266D01*
X891804Y918250D01*
X892820D01*
X893836Y917234D01*
X882523Y911577D02*
X883539Y912593D01*
X884555D01*
X883539Y913609D01*
X884555Y914625D01*
X883539D01*
X882523Y915641D01*
X881507Y914625D01*
X880490D01*
X881507Y913609D01*
X880490Y912593D01*
X881507D01*
X882523Y911577D01*
X786845Y867319D02*
X787861Y868335D01*
X788877D01*
X787861Y869352D01*
X788877Y870368D01*
X787861D01*
X786845Y871384D01*
X785829Y870368D01*
X784813D01*
X785829Y869352D01*
X784813Y868335D01*
X785829D01*
X786845Y867319D01*
X847090Y585978D02*
X848106Y586994D01*
X849122D01*
X848106Y588010D01*
X849122Y589026D01*
X848106D01*
X847090Y590042D01*
X846074Y589026D01*
X845058D01*
X846074Y588010D01*
X845058Y586994D01*
X846074D01*
X847090Y585978D01*
X1151890Y710438D02*
X1152906Y711454D01*
X1153922D01*
X1152906Y712470D01*
X1153922Y713486D01*
X1152906D01*
X1151890Y714502D01*
X1150874Y713486D01*
X1149858D01*
X1150874Y712470D01*
X1149858Y711454D01*
X1150874D01*
X1151890Y710438D01*
X1149350Y719328D02*
X1150366Y720344D01*
X1151382D01*
X1150366Y721360D01*
X1151382Y722376D01*
X1150366D01*
X1149350Y723392D01*
X1148334Y722376D01*
X1147318D01*
X1148334Y721360D01*
X1147318Y720344D01*
X1148334D01*
X1149350Y719328D01*
X1186180Y747268D02*
X1187196Y748284D01*
X1188212D01*
X1187196Y749300D01*
X1188212Y750316D01*
X1187196D01*
X1186180Y751332D01*
X1185164Y750316D01*
X1184148D01*
X1185164Y749300D01*
X1184148Y748284D01*
X1185164D01*
X1186180Y747268D01*
X1123950Y500888D02*
X1124966Y501904D01*
X1125982D01*
X1124966Y502920D01*
X1125982Y503936D01*
X1124966D01*
X1123950Y504952D01*
X1122934Y503936D01*
X1121918D01*
X1122934Y502920D01*
X1121918Y501904D01*
X1122934D01*
X1123950Y500888D01*
X901700Y453898D02*
X902716Y454914D01*
X903732D01*
X902716Y455930D01*
X903732Y456946D01*
X902716D01*
X901700Y457962D01*
X900684Y456946D01*
X899668D01*
X900684Y455930D01*
X899668Y454914D01*
X900684D01*
X901700Y453898D01*
X922020Y855218D02*
X923036Y856234D01*
X924052D01*
X923036Y857250D01*
X924052Y858266D01*
X923036D01*
X922020Y859282D01*
X921004Y858266D01*
X919988D01*
X921004Y857250D01*
X919988Y856234D01*
X921004D01*
X922020Y855218D01*
X924560Y832358D02*
X925576Y833374D01*
X926592D01*
X925576Y834390D01*
X926592Y835406D01*
X925576D01*
X924560Y836422D01*
X923544Y835406D01*
X922528D01*
X923544Y834390D01*
X922528Y833374D01*
X923544D01*
X924560Y832358D01*
X925830Y837438D02*
X926846Y838454D01*
X927862D01*
X926846Y839470D01*
X927862Y840486D01*
X926846D01*
X925830Y841502D01*
X924814Y840486D01*
X923798D01*
X924814Y839470D01*
X923798Y838454D01*
X924814D01*
X925830Y837438D01*
X910590Y827278D02*
X911606Y828294D01*
X912622D01*
X911606Y829310D01*
X912622Y830326D01*
X911606D01*
X910590Y831342D01*
X909574Y830326D01*
X908558D01*
X909574Y829310D01*
X908558Y828294D01*
X909574D01*
X910590Y827278D01*
X876866Y888949D02*
X877882Y889965D01*
X878898D01*
X877882Y890981D01*
X878898Y891997D01*
X877882D01*
X876866Y893013D01*
X875850Y891997D01*
X874834D01*
X875850Y890981D01*
X874834Y889965D01*
X875850D01*
X876866Y888949D01*
X892810Y787908D02*
X893826Y788924D01*
X894842D01*
X893826Y789940D01*
X894842Y790956D01*
X893826D01*
X892810Y791972D01*
X891794Y790956D01*
X890778D01*
X891794Y789940D01*
X890778Y788924D01*
X891794D01*
X892810Y787908D01*
X925830Y762508D02*
X926846Y763524D01*
X927862D01*
X926846Y764540D01*
X927862Y765556D01*
X926846D01*
X925830Y766572D01*
X924814Y765556D01*
X923798D01*
X924814Y764540D01*
X923798Y763524D01*
X924814D01*
X925830Y762508D01*
X920750Y766318D02*
X921766Y767334D01*
X922782D01*
X921766Y768350D01*
X922782Y769366D01*
X921766D01*
X920750Y770382D01*
X919734Y769366D01*
X918718D01*
X919734Y768350D01*
X918718Y767334D01*
X919734D01*
X920750Y766318D01*
X890270Y784098D02*
X891286Y785114D01*
X892302D01*
X891286Y786130D01*
X892302Y787146D01*
X891286D01*
X890270Y788162D01*
X889254Y787146D01*
X888238D01*
X889254Y786130D01*
X888238Y785114D01*
X889254D01*
X890270Y784098D01*
X882650Y902208D02*
X883666Y903224D01*
X884682D01*
X883666Y904240D01*
X884682Y905256D01*
X883666D01*
X882650Y906272D01*
X881634Y905256D01*
X880618D01*
X881634Y904240D01*
X880618Y903224D01*
X881634D01*
X882650Y902208D01*
M02*
