G04 Layer_Color=2752767*
%FSLAX44Y44*%
%MOMM*%
G71*
G01*
G75*
%ADD284C,0.0508*%
D284*
X824288Y865378D02*
X825304Y866394D01*
X826320D01*
X825304Y867410D01*
X826320Y868426D01*
X825304D01*
X824288Y869442D01*
X823272Y868426D01*
X822256D01*
X823272Y867410D01*
X822256Y866394D01*
X823272D01*
X824288Y865378D01*
X885351Y857837D02*
X886367Y858853D01*
X887383D01*
X886367Y859869D01*
X887383Y860885D01*
X886367D01*
X885351Y861901D01*
X884335Y860885D01*
X883319D01*
X884335Y859869D01*
X883319Y858853D01*
X884335D01*
X885351Y857837D01*
X794634Y788741D02*
X795650Y789757D01*
X796666D01*
X795650Y790773D01*
X796666Y791789D01*
X795650D01*
X794634Y792805D01*
X793618Y791789D01*
X792602D01*
X793618Y790773D01*
X792602Y789757D01*
X793618D01*
X794634Y788741D01*
X882523Y860665D02*
X883539Y861681D01*
X884555D01*
X883539Y862697D01*
X884555Y863713D01*
X883539D01*
X882523Y864729D01*
X881507Y863713D01*
X880490D01*
X881507Y862697D01*
X880490Y861681D01*
X881507D01*
X882523Y860665D01*
X950258Y724706D02*
X951274Y725722D01*
X952290D01*
X951274Y726738D01*
X952290Y727754D01*
X951274D01*
X950258Y728770D01*
X949242Y727754D01*
X948226D01*
X949242Y726738D01*
X948226Y725722D01*
X949242D01*
X950258Y724706D01*
X976630Y729465D02*
X977646Y730481D01*
X978662D01*
X977646Y731497D01*
X978662Y732513D01*
X977646D01*
X976630Y733529D01*
X975614Y732513D01*
X974598D01*
X975614Y731497D01*
X974598Y730481D01*
X975614D01*
X976630Y729465D01*
X888179Y871979D02*
X889195Y872995D01*
X890211D01*
X889195Y874011D01*
X890211Y875027D01*
X889195D01*
X888179Y876043D01*
X887163Y875027D01*
X886147D01*
X887163Y874011D01*
X886147Y872995D01*
X887163D01*
X888179Y871979D01*
Y860665D02*
X889195Y861681D01*
X890211D01*
X889195Y862697D01*
X890211Y863713D01*
X889195D01*
X888179Y864729D01*
X887163Y863713D01*
X886147D01*
X887163Y862697D01*
X886147Y861681D01*
X887163D01*
X888179Y860665D01*
X781050Y725678D02*
X782066Y726694D01*
X783082D01*
X782066Y727710D01*
X783082Y728726D01*
X782066D01*
X781050Y729742D01*
X780034Y728726D01*
X779018D01*
X780034Y727710D01*
X779018Y726694D01*
X780034D01*
X781050Y725678D01*
X943610Y667258D02*
X944626Y668274D01*
X945642D01*
X944626Y669290D01*
X945642Y670306D01*
X944626D01*
X943610Y671322D01*
X942594Y670306D01*
X941578D01*
X942594Y669290D01*
X941578Y668274D01*
X942594D01*
X943610Y667258D01*
X946150Y663448D02*
X947166Y664464D01*
X948182D01*
X947166Y665480D01*
X948182Y666496D01*
X947166D01*
X946150Y667512D01*
X945134Y666496D01*
X944118D01*
X945134Y665480D01*
X944118Y664464D01*
X945134D01*
X946150Y663448D01*
X965200Y668528D02*
X966216Y669544D01*
X967232D01*
X966216Y670560D01*
X967232Y671576D01*
X966216D01*
X965200Y672592D01*
X964184Y671576D01*
X963168D01*
X964184Y670560D01*
X963168Y669544D01*
X964184D01*
X965200Y668528D01*
X754380Y728058D02*
X755396Y729074D01*
X756412D01*
X755396Y730090D01*
X756412Y731106D01*
X755396D01*
X754380Y732122D01*
X753364Y731106D01*
X752348D01*
X753364Y730090D01*
X752348Y729074D01*
X753364D01*
X754380Y728058D01*
Y723138D02*
X755396Y724154D01*
X756412D01*
X755396Y725170D01*
X756412Y726186D01*
X755396D01*
X754380Y727202D01*
X753364Y726186D01*
X752348D01*
X753364Y725170D01*
X752348Y724154D01*
X753364D01*
X754380Y723138D01*
X712470Y724408D02*
X713486Y725424D01*
X714502D01*
X713486Y726440D01*
X714502Y727456D01*
X713486D01*
X712470Y728472D01*
X711454Y727456D01*
X710438D01*
X711454Y726440D01*
X710438Y725424D01*
X711454D01*
X712470Y724408D01*
X695800Y754728D02*
X696816Y755744D01*
X697832D01*
X696816Y756760D01*
X697832Y757776D01*
X696816D01*
X695800Y758792D01*
X694784Y757776D01*
X693768D01*
X694784Y756760D01*
X693768Y755744D01*
X694784D01*
X695800Y754728D01*
X666750Y742188D02*
X667766Y743204D01*
X668782D01*
X667766Y744220D01*
X668782Y745236D01*
X667766D01*
X666750Y746252D01*
X665734Y745236D01*
X664718D01*
X665734Y744220D01*
X664718Y743204D01*
X665734D01*
X666750Y742188D01*
X656060Y741448D02*
X657076Y742464D01*
X658092D01*
X657076Y743480D01*
X658092Y744496D01*
X657076D01*
X656060Y745512D01*
X655044Y744496D01*
X654028D01*
X655044Y743480D01*
X654028Y742464D01*
X655044D01*
X656060Y741448D01*
X664210Y745998D02*
X665226Y747014D01*
X666242D01*
X665226Y748030D01*
X666242Y749046D01*
X665226D01*
X664210Y750062D01*
X663194Y749046D01*
X662178D01*
X663194Y748030D01*
X662178Y747014D01*
X663194D01*
X664210Y745998D01*
X666970Y757648D02*
X667986Y758664D01*
X669002D01*
X667986Y759680D01*
X669002Y760696D01*
X667986D01*
X666970Y761712D01*
X665954Y760696D01*
X664938D01*
X665954Y759680D01*
X664938Y758664D01*
X665954D01*
X666970Y757648D01*
X664210Y753618D02*
X665226Y754634D01*
X666242D01*
X665226Y755650D01*
X666242Y756666D01*
X665226D01*
X664210Y757682D01*
X663194Y756666D01*
X662178D01*
X663194Y755650D01*
X662178Y754634D01*
X663194D01*
X664210Y753618D01*
X684246D02*
X685262Y754634D01*
X686278D01*
X685262Y755650D01*
X686278Y756666D01*
X685262D01*
X684246Y757682D01*
X683230Y756666D01*
X682214D01*
X683230Y755650D01*
X682214Y754634D01*
X683230D01*
X684246Y753618D01*
X656060Y745648D02*
X657076Y746664D01*
X658092D01*
X657076Y747680D01*
X658092Y748696D01*
X657076D01*
X656060Y749712D01*
X655044Y748696D01*
X654028D01*
X655044Y747680D01*
X654028Y746664D01*
X655044D01*
X656060Y745648D01*
X684276Y757682D02*
X685292Y758698D01*
X686308D01*
X685292Y759714D01*
X686308Y760730D01*
X685292D01*
X684276Y761746D01*
X683260Y760730D01*
X682244D01*
X683260Y759714D01*
X682244Y758698D01*
X683260D01*
X684276Y757682D01*
X888179Y866322D02*
X889195Y867338D01*
X890211D01*
X889195Y868354D01*
X890211Y869370D01*
X889195D01*
X888179Y870386D01*
X887163Y869370D01*
X886147D01*
X887163Y868354D01*
X886147Y867338D01*
X887163D01*
X888179Y866322D01*
X882493Y888949D02*
X883509Y889965D01*
X884525D01*
X883509Y890981D01*
X884525Y891997D01*
X883509D01*
X882493Y893013D01*
X881477Y891997D01*
X880461D01*
X881477Y890981D01*
X880461Y889965D01*
X881477D01*
X882493Y888949D01*
X885351Y874807D02*
X886367Y875823D01*
X887383D01*
X886367Y876839D01*
X887383Y877855D01*
X886367D01*
X885351Y878871D01*
X884335Y877855D01*
X883319D01*
X884335Y876839D01*
X883319Y875823D01*
X884335D01*
X885351Y874807D01*
X874037D02*
X875053Y875823D01*
X876069D01*
X875053Y876839D01*
X876069Y877855D01*
X875053D01*
X874037Y878871D01*
X873021Y877855D01*
X872005D01*
X873021Y876839D01*
X872005Y875823D01*
X873021D01*
X874037Y874807D01*
X871209Y877636D02*
X872225Y878652D01*
X873241D01*
X872225Y879668D01*
X873241Y880684D01*
X872225D01*
X871209Y881700D01*
X870193Y880684D01*
X869177D01*
X870193Y879668D01*
X869177Y878652D01*
X870193D01*
X871209Y877636D01*
X868755Y869150D02*
X869771Y870166D01*
X870787D01*
X869771Y871182D01*
X870787Y872198D01*
X869771D01*
X868755Y873214D01*
X867738Y872198D01*
X866722D01*
X867738Y871182D01*
X866722Y870166D01*
X867738D01*
X868755Y869150D01*
X871024Y871979D02*
X872040Y872995D01*
X873056D01*
X872040Y874011D01*
X873056Y875027D01*
X872040D01*
X871024Y876043D01*
X870008Y875027D01*
X868992D01*
X870008Y874011D01*
X868992Y872995D01*
X870008D01*
X871024Y871979D01*
X876564Y871728D02*
X877580Y872744D01*
X878596D01*
X877580Y873760D01*
X878596Y874776D01*
X877580D01*
X876564Y875792D01*
X875548Y874776D01*
X874532D01*
X875548Y873760D01*
X874532Y872744D01*
X875548D01*
X876564Y871728D01*
X888179Y883292D02*
X889195Y884308D01*
X890211D01*
X889195Y885324D01*
X890211Y886340D01*
X889195D01*
X888179Y887356D01*
X887163Y886340D01*
X886147D01*
X887163Y885324D01*
X886147Y884308D01*
X887163D01*
X888179Y883292D01*
X893836Y866322D02*
X894852Y867338D01*
X895868D01*
X894852Y868354D01*
X895868Y869370D01*
X894852D01*
X893836Y870386D01*
X892820Y869370D01*
X891804D01*
X892820Y868354D01*
X891804Y867338D01*
X892820D01*
X893836Y866322D01*
X896665Y869150D02*
X897681Y870166D01*
X898697D01*
X897681Y871182D01*
X898697Y872198D01*
X897681D01*
X896665Y873214D01*
X895649Y872198D01*
X894633D01*
X895649Y871182D01*
X894633Y870166D01*
X895649D01*
X896665Y869150D01*
X876866Y905920D02*
X877882Y906936D01*
X878898D01*
X877882Y907952D01*
X878898Y908968D01*
X877882D01*
X876866Y909984D01*
X875850Y908968D01*
X874834D01*
X875850Y907952D01*
X874834Y906936D01*
X875850D01*
X876866Y905920D01*
X976630Y903478D02*
X977646Y904494D01*
X978662D01*
X977646Y905510D01*
X978662Y906526D01*
X977646D01*
X976630Y907542D01*
X975614Y906526D01*
X974598D01*
X975614Y905510D01*
X974598Y904494D01*
X975614D01*
X976630Y903478D01*
X925170Y815792D02*
X926186Y816808D01*
X927202D01*
X926186Y817824D01*
X927202Y818840D01*
X926186D01*
X925170Y819856D01*
X924154Y818840D01*
X923138D01*
X924154Y817824D01*
X923138Y816808D01*
X924154D01*
X925170Y815792D01*
X917550Y808172D02*
X918566Y809188D01*
X919582D01*
X918566Y810204D01*
X919582Y811220D01*
X918566D01*
X917550Y812236D01*
X916534Y811220D01*
X915518D01*
X916534Y810204D01*
X915518Y809188D01*
X916534D01*
X917550Y808172D01*
X902970Y806958D02*
X903986Y807974D01*
X905002D01*
X903986Y808990D01*
X905002Y810006D01*
X903986D01*
X902970Y811022D01*
X901954Y810006D01*
X900938D01*
X901954Y808990D01*
X900938Y807974D01*
X901954D01*
X902970Y806958D01*
X930910Y922528D02*
X931926Y923544D01*
X932942D01*
X931926Y924560D01*
X932942Y925576D01*
X931926D01*
X930910Y926592D01*
X929894Y925576D01*
X928878D01*
X929894Y924560D01*
X928878Y923544D01*
X929894D01*
X930910Y922528D01*
X919480Y916178D02*
X920496Y917194D01*
X921512D01*
X920496Y918210D01*
X921512Y919226D01*
X920496D01*
X919480Y920242D01*
X918464Y919226D01*
X917448D01*
X918464Y918210D01*
X917448Y917194D01*
X918464D01*
X919480Y916178D01*
X920120Y963168D02*
X921136Y964184D01*
X922152D01*
X921136Y965200D01*
X922152Y966216D01*
X921136D01*
X920120Y967232D01*
X919104Y966216D01*
X918088D01*
X919104Y965200D01*
X918088Y964184D01*
X919104D01*
X920120Y963168D01*
X1200961Y545265D02*
X1201977Y546281D01*
X1202993D01*
X1201977Y547297D01*
X1202993Y548313D01*
X1201977D01*
X1200961Y549329D01*
X1199945Y548313D01*
X1198929D01*
X1199945Y547297D01*
X1198929Y546281D01*
X1199945D01*
X1200961Y545265D01*
X1231900Y664718D02*
X1232916Y665734D01*
X1233932D01*
X1232916Y666750D01*
X1233932Y667766D01*
X1232916D01*
X1231900Y668782D01*
X1230884Y667766D01*
X1229868D01*
X1230884Y666750D01*
X1229868Y665734D01*
X1230884D01*
X1231900Y664718D01*
X1140460Y499618D02*
X1141476Y500634D01*
X1142492D01*
X1141476Y501650D01*
X1142492Y502666D01*
X1141476D01*
X1140460Y503682D01*
X1139444Y502666D01*
X1138428D01*
X1139444Y501650D01*
X1138428Y500634D01*
X1139444D01*
X1140460Y499618D01*
X910590Y437388D02*
X911606Y438404D01*
X912622D01*
X911606Y439420D01*
X912622Y440436D01*
X911606D01*
X910590Y441452D01*
X909574Y440436D01*
X908558D01*
X909574Y439420D01*
X908558Y438404D01*
X909574D01*
X910590Y437388D01*
X1207770Y686308D02*
X1208786Y687324D01*
X1209802D01*
X1208786Y688340D01*
X1209802Y689356D01*
X1208786D01*
X1207770Y690372D01*
X1206754Y689356D01*
X1205738D01*
X1206754Y688340D01*
X1205738Y687324D01*
X1206754D01*
X1207770Y686308D01*
X896620Y903478D02*
X897636Y904494D01*
X898652D01*
X897636Y905510D01*
X898652Y906526D01*
X897636D01*
X896620Y907542D01*
X895604Y906526D01*
X894588D01*
X895604Y905510D01*
X894588Y904494D01*
X895604D01*
X896620Y903478D01*
X902322Y908748D02*
X903338Y909764D01*
X904354D01*
X903338Y910780D01*
X904354Y911796D01*
X903338D01*
X902322Y912812D01*
X901306Y911796D01*
X900290D01*
X901306Y910780D01*
X900290Y909764D01*
X901306D01*
X902322Y908748D01*
X902321Y897435D02*
X903337Y898451D01*
X904353D01*
X903337Y899467D01*
X904353Y900483D01*
X903337D01*
X902321Y901499D01*
X901305Y900483D01*
X900290D01*
X901305Y899467D01*
X900290Y898451D01*
X901305D01*
X902321Y897435D01*
X905510Y906018D02*
X906526Y907034D01*
X907542D01*
X906526Y908050D01*
X907542Y909066D01*
X906526D01*
X905510Y910082D01*
X904494Y909066D01*
X903478D01*
X904494Y908050D01*
X903478Y907034D01*
X904494D01*
X905510Y906018D01*
X902708Y903478D02*
X903724Y904494D01*
X904740D01*
X903724Y905510D01*
X904740Y906526D01*
X903724D01*
X902708Y907542D01*
X901692Y906526D01*
X900676D01*
X901692Y905510D01*
X900676Y904494D01*
X901692D01*
X902708Y903478D01*
X907978Y897435D02*
X908994Y898451D01*
X910010D01*
X908994Y899467D01*
X910010Y900483D01*
X908994D01*
X907978Y901499D01*
X906962Y900483D01*
X905946D01*
X906962Y899467D01*
X905946Y898451D01*
X906962D01*
X907978Y897435D01*
X885351Y908748D02*
X886367Y909764D01*
X887383D01*
X886367Y910780D01*
X887383Y911796D01*
X886367D01*
X885351Y912812D01*
X884335Y911796D01*
X883319D01*
X884335Y910780D01*
X883319Y909764D01*
X884335D01*
X885351Y908748D01*
X879694Y914405D02*
X880710Y915421D01*
X881726D01*
X880710Y916437D01*
X881726Y917453D01*
X880710D01*
X879694Y918469D01*
X878678Y917453D01*
X877662D01*
X878678Y916437D01*
X877662Y915421D01*
X878678D01*
X879694Y914405D01*
X888179Y917234D02*
X889195Y918250D01*
X890211D01*
X889195Y919266D01*
X890211Y920282D01*
X889195D01*
X888179Y921298D01*
X887163Y920282D01*
X886148D01*
X887163Y919266D01*
X886148Y918250D01*
X887163D01*
X888179Y917234D01*
X879694Y886121D02*
X880710Y887137D01*
X881726D01*
X880710Y888153D01*
X881726Y889169D01*
X880710D01*
X879694Y890185D01*
X878678Y889169D01*
X877662D01*
X878678Y888153D01*
X877662Y887137D01*
X878678D01*
X879694Y886121D01*
X859895Y877636D02*
X860911Y878652D01*
X861927D01*
X860911Y879668D01*
X861927Y880684D01*
X860911D01*
X859895Y881700D01*
X858879Y880684D01*
X857863D01*
X858879Y879668D01*
X857863Y878652D01*
X858879D01*
X859895Y877636D01*
X893836Y917234D02*
X894852Y918250D01*
X895868D01*
X894852Y919266D01*
X895868Y920282D01*
X894852D01*
X893836Y921298D01*
X892820Y920282D01*
X891804D01*
X892820Y919266D01*
X891804Y918250D01*
X892820D01*
X893836Y917234D01*
X882523Y866322D02*
X883539Y867338D01*
X884555D01*
X883539Y868354D01*
X884555Y869370D01*
X883539D01*
X882523Y870386D01*
X881507Y869370D01*
X880490D01*
X881507Y868354D01*
X880490Y867338D01*
X881507D01*
X882523Y866322D01*
X786845Y867319D02*
X787861Y868335D01*
X788877D01*
X787861Y869352D01*
X788877Y870368D01*
X787861D01*
X786845Y871384D01*
X785829Y870368D01*
X784813D01*
X785829Y869352D01*
X784813Y868335D01*
X785829D01*
X786845Y867319D01*
X853440Y618998D02*
X854456Y620014D01*
X855472D01*
X854456Y621030D01*
X855472Y622046D01*
X854456D01*
X853440Y623062D01*
X852424Y622046D01*
X851408D01*
X852424Y621030D01*
X851408Y620014D01*
X852424D01*
X853440Y618998D01*
X867410D02*
X868426Y620014D01*
X869442D01*
X868426Y621030D01*
X869442Y622046D01*
X868426D01*
X867410Y623062D01*
X866394Y622046D01*
X865378D01*
X866394Y621030D01*
X865378Y620014D01*
X866394D01*
X867410Y618998D01*
X1047750Y415798D02*
X1048766Y416814D01*
X1049782D01*
X1048766Y417830D01*
X1049782Y418846D01*
X1048766D01*
X1047750Y419862D01*
X1046734Y418846D01*
X1045718D01*
X1046734Y417830D01*
X1045718Y416814D01*
X1046734D01*
X1047750Y415798D01*
X908050Y763778D02*
X909066Y764794D01*
X910082D01*
X909066Y765810D01*
X910082Y766826D01*
X909066D01*
X908050Y767842D01*
X907034Y766826D01*
X906018D01*
X907034Y765810D01*
X906018Y764794D01*
X907034D01*
X908050Y763778D01*
X1198651Y587019D02*
X1199667Y588035D01*
X1200683D01*
X1199667Y589051D01*
X1200683Y590067D01*
X1199667D01*
X1198651Y591083D01*
X1197635Y590067D01*
X1196619D01*
X1197635Y589051D01*
X1196619Y588035D01*
X1197635D01*
X1198651Y587019D01*
X1215390Y577088D02*
X1216406Y578104D01*
X1217422D01*
X1216406Y579120D01*
X1217422Y580136D01*
X1216406D01*
X1215390Y581152D01*
X1214374Y580136D01*
X1213358D01*
X1214374Y579120D01*
X1213358Y578104D01*
X1214374D01*
X1215390Y577088D01*
X897441Y755958D02*
X898457Y756974D01*
X899473D01*
X898457Y757990D01*
X899473Y759006D01*
X898457D01*
X897441Y760022D01*
X896425Y759006D01*
X895409D01*
X896425Y757990D01*
X895409Y756974D01*
X896425D01*
X897441Y755958D01*
X1217930Y762508D02*
X1218946Y763524D01*
X1219962D01*
X1218946Y764540D01*
X1219962Y765556D01*
X1218946D01*
X1217930Y766572D01*
X1216914Y765556D01*
X1215898D01*
X1216914Y764540D01*
X1215898Y763524D01*
X1216914D01*
X1217930Y762508D01*
X884771Y760941D02*
X885787Y761957D01*
X886803D01*
X885787Y762973D01*
X886803Y763989D01*
X885787D01*
X884771Y765005D01*
X883755Y763989D01*
X882739D01*
X883755Y762973D01*
X882739Y761957D01*
X883755D01*
X884771Y760941D01*
X881236Y758021D02*
X882252Y759037D01*
X883268D01*
X882252Y760053D01*
X883268Y761069D01*
X882252D01*
X881236Y762085D01*
X880220Y761069D01*
X879204D01*
X880220Y760053D01*
X879204Y759037D01*
X880220D01*
X881236Y758021D01*
X877700Y754486D02*
X878716Y755502D01*
X879732D01*
X878716Y756518D01*
X879732Y757534D01*
X878716D01*
X877700Y758550D01*
X876684Y757534D01*
X875668D01*
X876684Y756518D01*
X875668Y755502D01*
X876684D01*
X877700Y754486D01*
X874165Y750950D02*
X875181Y751966D01*
X876197D01*
X875181Y752982D01*
X876197Y753998D01*
X875181D01*
X874165Y755014D01*
X873149Y753998D01*
X872133D01*
X873149Y752982D01*
X872133Y751966D01*
X873149D01*
X874165Y750950D01*
X870629Y747415D02*
X871645Y748431D01*
X872661D01*
X871645Y749447D01*
X872661Y750463D01*
X871645D01*
X870629Y751479D01*
X869613Y750463D01*
X868597D01*
X869613Y749447D01*
X868597Y748431D01*
X869613D01*
X870629Y747415D01*
X1145540Y474218D02*
X1146556Y475234D01*
X1147572D01*
X1146556Y476250D01*
X1147572Y477266D01*
X1146556D01*
X1145540Y478282D01*
X1144524Y477266D01*
X1143508D01*
X1144524Y476250D01*
X1143508Y475234D01*
X1144524D01*
X1145540Y474218D01*
X867410Y743563D02*
X868426Y744579D01*
X869442D01*
X868426Y745595D01*
X869442Y746611D01*
X868426D01*
X867410Y747627D01*
X866394Y746611D01*
X865378D01*
X866394Y745595D01*
X865378Y744579D01*
X866394D01*
X867410Y743563D01*
X1071880Y429768D02*
X1072896Y430784D01*
X1073912D01*
X1072896Y431800D01*
X1073912Y432816D01*
X1072896D01*
X1071880Y433832D01*
X1070864Y432816D01*
X1069848D01*
X1070864Y431800D01*
X1069848Y430784D01*
X1070864D01*
X1071880Y429768D01*
X870244Y732028D02*
X871260Y733044D01*
X872276D01*
X871260Y734060D01*
X872276Y735076D01*
X871260D01*
X870244Y736092D01*
X869228Y735076D01*
X868212D01*
X869228Y734060D01*
X868212Y733044D01*
X869228D01*
X870244Y732028D01*
X1066800Y442468D02*
X1067816Y443484D01*
X1068832D01*
X1067816Y444500D01*
X1068832Y445516D01*
X1067816D01*
X1066800Y446532D01*
X1065784Y445516D01*
X1064768D01*
X1065784Y444500D01*
X1064768Y443484D01*
X1065784D01*
X1066800Y442468D01*
X860023Y726948D02*
X861039Y727964D01*
X862055D01*
X861039Y728980D01*
X862055Y729996D01*
X861039D01*
X860023Y731012D01*
X859007Y729996D01*
X857990D01*
X859007Y728980D01*
X857990Y727964D01*
X859007D01*
X860023Y726948D01*
X829996Y733298D02*
X831012Y734314D01*
X832028D01*
X831012Y735330D01*
X832028Y736346D01*
X831012D01*
X829996Y737362D01*
X828980Y736346D01*
X827964D01*
X828980Y735330D01*
X827964Y734314D01*
X828980D01*
X829996Y733298D01*
X840740Y726948D02*
X841756Y727964D01*
X842772D01*
X841756Y728980D01*
X842772Y729996D01*
X841756D01*
X840740Y731012D01*
X839724Y729996D01*
X838708D01*
X839724Y728980D01*
X838708Y727964D01*
X839724D01*
X840740Y726948D01*
X1023620Y425958D02*
X1024636Y426974D01*
X1025652D01*
X1024636Y427990D01*
X1025652Y429006D01*
X1024636D01*
X1023620Y430022D01*
X1022604Y429006D01*
X1021588D01*
X1022604Y427990D01*
X1021588Y426974D01*
X1022604D01*
X1023620Y425958D01*
X1024890Y414528D02*
X1025906Y415544D01*
X1026922D01*
X1025906Y416560D01*
X1026922Y417576D01*
X1025906D01*
X1024890Y418592D01*
X1023874Y417576D01*
X1022858D01*
X1023874Y416560D01*
X1022858Y415544D01*
X1023874D01*
X1024890Y414528D01*
X889000Y422148D02*
X890016Y423164D01*
X891032D01*
X890016Y424180D01*
X891032Y425196D01*
X890016D01*
X889000Y426212D01*
X887984Y425196D01*
X886968D01*
X887984Y424180D01*
X886968Y423164D01*
X887984D01*
X889000Y422148D01*
X833486Y743879D02*
X834502Y744895D01*
X835518D01*
X834502Y745911D01*
X835518Y746927D01*
X834502D01*
X833486Y747943D01*
X832470Y746927D01*
X831454D01*
X832470Y745911D01*
X831454Y744895D01*
X832470D01*
X833486Y743879D01*
X829970Y747415D02*
X830986Y748431D01*
X832002D01*
X830986Y749447D01*
X832002Y750463D01*
X830986D01*
X829970Y751479D01*
X828954Y750463D01*
X827939D01*
X828954Y749447D01*
X827939Y748431D01*
X828954D01*
X829970Y747415D01*
X826435Y750798D02*
X827451Y751814D01*
X828467D01*
X827451Y752830D01*
X828467Y753846D01*
X827451D01*
X826435Y754862D01*
X825419Y753846D01*
X824403D01*
X825419Y752830D01*
X824403Y751814D01*
X825419D01*
X826435Y750798D01*
X822899Y754486D02*
X823915Y755502D01*
X824931D01*
X823915Y756518D01*
X824931Y757534D01*
X823915D01*
X822899Y758550D01*
X821883Y757534D01*
X820867D01*
X821883Y756518D01*
X820867Y755502D01*
X821883D01*
X822899Y754486D01*
X887847Y805631D02*
X888863Y806647D01*
X889879D01*
X888863Y807663D01*
X889879Y808679D01*
X888863D01*
X887847Y809695D01*
X886831Y808679D01*
X885815D01*
X886831Y807663D01*
X885815Y806647D01*
X886831D01*
X887847Y805631D01*
X822899Y816697D02*
X823915Y817713D01*
X824931D01*
X823915Y818729D01*
X824931Y819745D01*
X823915D01*
X822899Y820761D01*
X821883Y819745D01*
X820867D01*
X821883Y818729D01*
X820867Y817713D01*
X821883D01*
X822899Y816697D01*
X820495Y833470D02*
X821511Y834486D01*
X822527D01*
X821511Y835502D01*
X822527Y836518D01*
X821511D01*
X820495Y837534D01*
X819479Y836518D01*
X818463D01*
X819479Y835502D01*
X818463Y834486D01*
X819479D01*
X820495Y833470D01*
X862724Y874807D02*
X863740Y875823D01*
X864756D01*
X863740Y876839D01*
X864756Y877855D01*
X863740D01*
X862724Y878871D01*
X861708Y877855D01*
X860692D01*
X861708Y876839D01*
X860692Y875823D01*
X861708D01*
X862724Y874807D01*
X839736Y834933D02*
X840752Y835949D01*
X841768D01*
X840752Y836965D01*
X841768Y837981D01*
X840752D01*
X839736Y838997D01*
X838720Y837981D01*
X837704D01*
X838720Y836965D01*
X837704Y835949D01*
X838720D01*
X839736Y834933D01*
X876866Y883292D02*
X877882Y884308D01*
X878898D01*
X877882Y885324D01*
X878898Y886340D01*
X877882D01*
X876866Y887356D01*
X875850Y886340D01*
X874834D01*
X875850Y885324D01*
X874834Y884308D01*
X875850D01*
X876866Y883292D01*
X874037Y880464D02*
X875053Y881480D01*
X876069D01*
X875053Y882496D01*
X876069Y883512D01*
X875053D01*
X874037Y884528D01*
X873021Y883512D01*
X872005D01*
X873021Y882496D01*
X872005Y881480D01*
X873021D01*
X874037Y880464D01*
X824087Y822693D02*
X825103Y823709D01*
X826119D01*
X825103Y824725D01*
X826119Y825741D01*
X825103D01*
X824087Y826757D01*
X823071Y825741D01*
X822055D01*
X823071Y824725D01*
X822055Y823709D01*
X823071D01*
X824087Y822693D01*
X836660Y830882D02*
X837676Y831898D01*
X838692D01*
X837676Y832914D01*
X838692Y833930D01*
X837676D01*
X836660Y834946D01*
X835644Y833930D01*
X834628D01*
X835644Y832914D01*
X834628Y831898D01*
X835644D01*
X836660Y830882D01*
X868381Y874807D02*
X869397Y875823D01*
X870413D01*
X869397Y876839D01*
X870413Y877855D01*
X869397D01*
X868381Y878871D01*
X867365Y877855D01*
X866348D01*
X867365Y876839D01*
X866348Y875823D01*
X867365D01*
X868381Y874807D01*
X865552Y871979D02*
X866568Y872995D01*
X867584D01*
X866568Y874011D01*
X867584Y875027D01*
X866568D01*
X865552Y876043D01*
X864536Y875027D01*
X863520D01*
X864536Y874011D01*
X863520Y872995D01*
X864536D01*
X865552Y871979D01*
X905150Y877636D02*
X906166Y878652D01*
X907182D01*
X906166Y879668D01*
X907182Y880684D01*
X906166D01*
X905150Y881700D01*
X904134Y880684D01*
X903118D01*
X904134Y879668D01*
X903118Y878652D01*
X904134D01*
X905150Y877636D01*
X862724Y897435D02*
X863740Y898451D01*
X864756D01*
X863740Y899467D01*
X864756Y900483D01*
X863740D01*
X862724Y901499D01*
X861708Y900483D01*
X860692D01*
X861708Y899467D01*
X860692Y898451D01*
X861708D01*
X862724Y897435D01*
X913635Y891778D02*
X914651Y892794D01*
X915667D01*
X914651Y893810D01*
X915667Y894826D01*
X914651D01*
X913635Y895842D01*
X912619Y894826D01*
X911603D01*
X912619Y893810D01*
X911603Y892794D01*
X912619D01*
X913635Y891778D01*
X905150Y900263D02*
X906166Y901279D01*
X907182D01*
X906166Y902295D01*
X907182Y903311D01*
X906166D01*
X905150Y904327D01*
X904134Y903311D01*
X903118D01*
X904134Y902295D01*
X903118Y901279D01*
X904134D01*
X905150Y900263D01*
X826385Y834568D02*
X827401Y835584D01*
X828417D01*
X827401Y836600D01*
X828417Y837616D01*
X827401D01*
X826385Y838632D01*
X825368Y837616D01*
X824352D01*
X825368Y836600D01*
X824352Y835584D01*
X825368D01*
X826385Y834568D01*
X846704Y858698D02*
X847720Y859714D01*
X848736D01*
X847720Y860730D01*
X848736Y861746D01*
X847720D01*
X846704Y862762D01*
X845688Y861746D01*
X844672D01*
X845688Y860730D01*
X844672Y859714D01*
X845688D01*
X846704Y858698D01*
X851225Y855185D02*
X852241Y856201D01*
X853257D01*
X852241Y857217D01*
X853257Y858233D01*
X852241D01*
X851225Y859249D01*
X850209Y858233D01*
X849193D01*
X850209Y857217D01*
X849193Y856201D01*
X850209D01*
X851225Y855185D01*
X854324Y862508D02*
X855340Y863524D01*
X856357D01*
X855340Y864540D01*
X856357Y865556D01*
X855340D01*
X854324Y866572D01*
X853308Y865556D01*
X852292D01*
X853308Y864540D01*
X852292Y863524D01*
X853308D01*
X854324Y862508D01*
X941864Y870038D02*
X942880Y871054D01*
X943896D01*
X942880Y872070D01*
X943896Y873086D01*
X942880D01*
X941864Y874102D01*
X940848Y873086D01*
X939832D01*
X940848Y872070D01*
X939832Y871054D01*
X940848D01*
X941864Y870038D01*
X953849Y883292D02*
X954865Y884308D01*
X955881D01*
X954865Y885324D01*
X955881Y886340D01*
X954865D01*
X953849Y887356D01*
X952833Y886340D01*
X951817D01*
X952833Y885324D01*
X951817Y884308D01*
X952833D01*
X953849Y883292D01*
X817170Y755504D02*
X818186Y756520D01*
X819202D01*
X818186Y757536D01*
X819202Y758552D01*
X818186D01*
X817170Y759568D01*
X816154Y758552D01*
X815138D01*
X816154Y757536D01*
X815138Y756520D01*
X816154D01*
X817170Y755504D01*
X797175Y736778D02*
X798191Y737794D01*
X799206D01*
X798191Y738810D01*
X799206Y739826D01*
X798191D01*
X797175Y740842D01*
X796159Y739826D01*
X795143D01*
X796159Y738810D01*
X795143Y737794D01*
X796159D01*
X797175Y736778D01*
X819364Y758021D02*
X820380Y759037D01*
X821396D01*
X820380Y760053D01*
X821396Y761069D01*
X820380D01*
X819364Y762085D01*
X818348Y761069D01*
X817332D01*
X818348Y760053D01*
X817332Y759037D01*
X818348D01*
X819364Y758021D01*
X794346Y809456D02*
X795362Y810472D01*
X796378D01*
X795362Y811488D01*
X796378Y812504D01*
X795362D01*
X794346Y813520D01*
X793330Y812504D01*
X792314D01*
X793330Y811488D01*
X792314Y810472D01*
X793330D01*
X794346Y809456D01*
X817495Y814248D02*
X818511Y815264D01*
X819527D01*
X818511Y816280D01*
X819527Y817296D01*
X818511D01*
X817495Y818312D01*
X816479Y817296D01*
X815462D01*
X816479Y816280D01*
X815462Y815264D01*
X816479D01*
X817495Y814248D01*
X871209Y894606D02*
X872225Y895622D01*
X873241D01*
X872225Y896638D01*
X873241Y897654D01*
X872225D01*
X871209Y898670D01*
X870193Y897654D01*
X869177D01*
X870193Y896638D01*
X869177Y895622D01*
X870193D01*
X871209Y894606D01*
X894080Y894588D02*
X895096Y895604D01*
X896112D01*
X895096Y896620D01*
X896112Y897636D01*
X895096D01*
X894080Y898652D01*
X893064Y897636D01*
X892048D01*
X893064Y896620D01*
X892048Y895604D01*
X893064D01*
X894080Y894588D01*
X924560Y832358D02*
X925576Y833374D01*
X926592D01*
X925576Y834390D01*
X926592Y835406D01*
X925576D01*
X924560Y836422D01*
X923544Y835406D01*
X922528D01*
X923544Y834390D01*
X922528Y833374D01*
X923544D01*
X924560Y832358D01*
X925830Y837438D02*
X926846Y838454D01*
X927862D01*
X926846Y839470D01*
X927862Y840486D01*
X926846D01*
X925830Y841502D01*
X924814Y840486D01*
X923798D01*
X924814Y839470D01*
X923798Y838454D01*
X924814D01*
X925830Y837438D01*
X910590Y827278D02*
X911606Y828294D01*
X912622D01*
X911606Y829310D01*
X912622Y830326D01*
X911606D01*
X910590Y831342D01*
X909574Y830326D01*
X908558D01*
X909574Y829310D01*
X908558Y828294D01*
X909574D01*
X910590Y827278D01*
X896665Y891778D02*
X897681Y892794D01*
X898697D01*
X897681Y893810D01*
X898697Y894826D01*
X897681D01*
X896665Y895842D01*
X895649Y894826D01*
X894633D01*
X895649Y893810D01*
X894633Y892794D01*
X895649D01*
X896665Y891778D01*
X899493Y894606D02*
X900509Y895622D01*
X901525D01*
X900509Y896638D01*
X901525Y897654D01*
X900509D01*
X899493Y898670D01*
X898477Y897654D01*
X897461D01*
X898477Y896638D01*
X897461Y895622D01*
X898477D01*
X899493Y894606D01*
X876866Y888949D02*
X877882Y889965D01*
X878898D01*
X877882Y890981D01*
X878898Y891997D01*
X877882D01*
X876866Y893013D01*
X875850Y891997D01*
X874834D01*
X875850Y890981D01*
X874834Y889965D01*
X875850D01*
X876866Y888949D01*
X882523Y905920D02*
X883539Y906936D01*
X884555D01*
X883539Y907952D01*
X884555Y908968D01*
X883539D01*
X882523Y909984D01*
X881507Y908968D01*
X880490D01*
X881507Y907952D01*
X880490Y906936D01*
X881507D01*
X882523Y905920D01*
X890949Y914057D02*
X891965Y915073D01*
X892981D01*
X891965Y916089D01*
X892981Y917105D01*
X891965D01*
X890949Y918121D01*
X889933Y917105D01*
X888917D01*
X889933Y916089D01*
X888917Y915073D01*
X889933D01*
X890949Y914057D01*
X882523Y911577D02*
X883539Y912593D01*
X884555D01*
X883539Y913609D01*
X884555Y914625D01*
X883539D01*
X882523Y915641D01*
X881507Y914625D01*
X880490D01*
X881507Y913609D01*
X880490Y912593D01*
X881507D01*
X882523Y911577D01*
X1070666Y577032D02*
X1071682Y578048D01*
X1072698D01*
X1071682Y579064D01*
X1072698Y580080D01*
X1071682D01*
X1070666Y581096D01*
X1069650Y580080D01*
X1068634D01*
X1069650Y579064D01*
X1068634Y578048D01*
X1069650D01*
X1070666Y577032D01*
X1078230Y739648D02*
X1079246Y740664D01*
X1080262D01*
X1079246Y741680D01*
X1080262Y742696D01*
X1079246D01*
X1078230Y743712D01*
X1077214Y742696D01*
X1076198D01*
X1077214Y741680D01*
X1076198Y740664D01*
X1077214D01*
X1078230Y739648D01*
X828040Y566928D02*
X829056Y567944D01*
X830072D01*
X829056Y568960D01*
X830072Y569976D01*
X829056D01*
X828040Y570992D01*
X827024Y569976D01*
X826008D01*
X827024Y568960D01*
X826008Y567944D01*
X827024D01*
X828040Y566928D01*
X977900Y408178D02*
X978916Y409194D01*
X979932D01*
X978916Y410210D01*
X979932Y411226D01*
X978916D01*
X977900Y412242D01*
X976884Y411226D01*
X975868D01*
X976884Y410210D01*
X975868Y409194D01*
X976884D01*
X977900Y408178D01*
M02*
