G04*
G04 #@! TF.GenerationSoftware,Altium Limited,Altium Designer,18.0.8 (490)*
G04*
G04 Layer_Physical_Order=1*
G04 Layer_Color=255*
%FSLAX44Y44*%
%MOMM*%
G71*
G01*
G75*
G04:AMPARAMS|DCode=102|XSize=0.32mm|YSize=0.36mm|CornerRadius=0.08mm|HoleSize=0mm|Usage=FLASHONLY|Rotation=90.000|XOffset=0mm|YOffset=0mm|HoleType=Round|Shape=RoundedRectangle|*
%AMROUNDEDRECTD102*
21,1,0.3200,0.2000,0,0,90.0*
21,1,0.1600,0.3600,0,0,90.0*
1,1,0.1600,0.1000,0.0800*
1,1,0.1600,0.1000,-0.0800*
1,1,0.1600,-0.1000,-0.0800*
1,1,0.1600,-0.1000,0.0800*
%
%ADD102ROUNDEDRECTD102*%
G04:AMPARAMS|DCode=103|XSize=0.32mm|YSize=0.36mm|CornerRadius=0.08mm|HoleSize=0mm|Usage=FLASHONLY|Rotation=0.000|XOffset=0mm|YOffset=0mm|HoleType=Round|Shape=RoundedRectangle|*
%AMROUNDEDRECTD103*
21,1,0.3200,0.2000,0,0,0.0*
21,1,0.1600,0.3600,0,0,0.0*
1,1,0.1600,0.0800,-0.1000*
1,1,0.1600,-0.0800,-0.1000*
1,1,0.1600,-0.0800,0.1000*
1,1,0.1600,0.0800,0.1000*
%
%ADD103ROUNDEDRECTD103*%
G04:AMPARAMS|DCode=104|XSize=0.6096mm|YSize=0.9144mm|CornerRadius=0.1524mm|HoleSize=0mm|Usage=FLASHONLY|Rotation=270.000|XOffset=0mm|YOffset=0mm|HoleType=Round|Shape=RoundedRectangle|*
%AMROUNDEDRECTD104*
21,1,0.6096,0.6096,0,0,270.0*
21,1,0.3048,0.9144,0,0,270.0*
1,1,0.3048,-0.3048,-0.1524*
1,1,0.3048,-0.3048,0.1524*
1,1,0.3048,0.3048,0.1524*
1,1,0.3048,0.3048,-0.1524*
%
%ADD104ROUNDEDRECTD104*%
G04:AMPARAMS|DCode=105|XSize=0.508mm|YSize=0.6096mm|CornerRadius=0.127mm|HoleSize=0mm|Usage=FLASHONLY|Rotation=270.000|XOffset=0mm|YOffset=0mm|HoleType=Round|Shape=RoundedRectangle|*
%AMROUNDEDRECTD105*
21,1,0.5080,0.3556,0,0,270.0*
21,1,0.2540,0.6096,0,0,270.0*
1,1,0.2540,-0.1778,-0.1270*
1,1,0.2540,-0.1778,0.1270*
1,1,0.2540,0.1778,0.1270*
1,1,0.2540,0.1778,-0.1270*
%
%ADD105ROUNDEDRECTD105*%
%ADD108R,0.3000X0.8500*%
G04:AMPARAMS|DCode=109|XSize=2mm|YSize=1.1mm|CornerRadius=0.275mm|HoleSize=0mm|Usage=FLASHONLY|Rotation=0.000|XOffset=0mm|YOffset=0mm|HoleType=Round|Shape=RoundedRectangle|*
%AMROUNDEDRECTD109*
21,1,2.0000,0.5500,0,0,0.0*
21,1,1.4500,1.1000,0,0,0.0*
1,1,0.5500,0.7250,-0.2750*
1,1,0.5500,-0.7250,-0.2750*
1,1,0.5500,-0.7250,0.2750*
1,1,0.5500,0.7250,0.2750*
%
%ADD109ROUNDEDRECTD109*%
G04:AMPARAMS|DCode=110|XSize=0.6096mm|YSize=1.7018mm|CornerRadius=0.3048mm|HoleSize=0mm|Usage=FLASHONLY|Rotation=0.000|XOffset=0mm|YOffset=0mm|HoleType=Round|Shape=RoundedRectangle|*
%AMROUNDEDRECTD110*
21,1,0.6096,1.0922,0,0,0.0*
21,1,0.0000,1.7018,0,0,0.0*
1,1,0.6096,0.0000,-0.5461*
1,1,0.6096,0.0000,-0.5461*
1,1,0.6096,0.0000,0.5461*
1,1,0.6096,0.0000,0.5461*
%
%ADD110ROUNDEDRECTD110*%
G04:AMPARAMS|DCode=111|XSize=2.8194mm|YSize=1.016mm|CornerRadius=0.508mm|HoleSize=0mm|Usage=FLASHONLY|Rotation=90.000|XOffset=0mm|YOffset=0mm|HoleType=Round|Shape=RoundedRectangle|*
%AMROUNDEDRECTD111*
21,1,2.8194,0.0000,0,0,90.0*
21,1,1.8034,1.0160,0,0,90.0*
1,1,1.0160,0.0000,0.9017*
1,1,1.0160,0.0000,-0.9017*
1,1,1.0160,0.0000,-0.9017*
1,1,1.0160,0.0000,0.9017*
%
%ADD111ROUNDEDRECTD111*%
%ADD112R,0.5000X0.6000*%
%ADD113R,0.6000X0.5000*%
%ADD114R,0.7500X0.6000*%
%ADD115R,1.5000X1.0000*%
%ADD116R,1.0000X0.5000*%
G04:AMPARAMS|DCode=117|XSize=0.5mm|YSize=1mm|CornerRadius=0.25mm|HoleSize=0mm|Usage=FLASHONLY|Rotation=270.000|XOffset=0mm|YOffset=0mm|HoleType=Round|Shape=RoundedRectangle|*
%AMROUNDEDRECTD117*
21,1,0.5000,0.5000,0,0,270.0*
21,1,0.0000,1.0000,0,0,270.0*
1,1,0.5000,-0.2500,0.0000*
1,1,0.5000,-0.2500,0.0000*
1,1,0.5000,0.2500,0.0000*
1,1,0.5000,0.2500,0.0000*
%
%ADD117ROUNDEDRECTD117*%
%ADD118R,1.5000X1.2000*%
%ADD119R,0.5080X0.6096*%
%ADD120R,0.6096X0.5080*%
%ADD121R,1.4000X1.1000*%
%ADD122R,0.5080X0.5080*%
%ADD123R,0.2540X0.5588*%
%ADD124R,1.6002X0.9144*%
%ADD125R,3.4500X3.4500*%
%ADD126O,0.6000X0.3000*%
%ADD127O,0.3000X0.6000*%
G04:AMPARAMS|DCode=128|XSize=0.6096mm|YSize=1.7018mm|CornerRadius=0.3048mm|HoleSize=0mm|Usage=FLASHONLY|Rotation=270.000|XOffset=0mm|YOffset=0mm|HoleType=Round|Shape=RoundedRectangle|*
%AMROUNDEDRECTD128*
21,1,0.6096,1.0922,0,0,270.0*
21,1,0.0000,1.7018,0,0,270.0*
1,1,0.6096,-0.5461,0.0000*
1,1,0.6096,-0.5461,0.0000*
1,1,0.6096,0.5461,0.0000*
1,1,0.6096,0.5461,0.0000*
%
%ADD128ROUNDEDRECTD128*%
G04:AMPARAMS|DCode=129|XSize=2.8194mm|YSize=1.016mm|CornerRadius=0.508mm|HoleSize=0mm|Usage=FLASHONLY|Rotation=0.000|XOffset=0mm|YOffset=0mm|HoleType=Round|Shape=RoundedRectangle|*
%AMROUNDEDRECTD129*
21,1,2.8194,0.0000,0,0,0.0*
21,1,1.8034,1.0160,0,0,0.0*
1,1,1.0160,0.9017,0.0000*
1,1,1.0160,-0.9017,0.0000*
1,1,1.0160,-0.9017,0.0000*
1,1,1.0160,0.9017,0.0000*
%
%ADD129ROUNDEDRECTD129*%
%ADD130C,0.2540*%
%ADD131C,0.7600*%
%ADD132C,1.5240*%
%ADD133C,6.0000*%
%ADD134C,0.4000*%
G36*
X863000Y1681000D02*
X882500Y1661500D01*
X882500Y1646671D01*
X881815Y1645684D01*
X881815Y1645684D01*
Y1645684D01*
X881230Y1645627D01*
X881218Y1645688D01*
X881050Y1646533D01*
X880208Y1647793D01*
X878947Y1648635D01*
X877461Y1648931D01*
X866539D01*
X865052Y1648635D01*
X863792Y1647793D01*
X862950Y1646533D01*
X862654Y1645046D01*
X862950Y1643560D01*
X863792Y1642299D01*
X865052Y1641457D01*
X866539Y1641162D01*
X877461D01*
X878947Y1641457D01*
X880208Y1642299D01*
X881050Y1643560D01*
X881218Y1644404D01*
X881230Y1644466D01*
X881815Y1644408D01*
Y1644408D01*
X881815Y1644408D01*
X882500Y1643422D01*
Y1634250D01*
X1049250Y1634250D01*
X1049479Y1634479D01*
X1050216Y1634784D01*
X1050521Y1635521D01*
X1082500Y1667500D01*
X1114500D01*
Y1452000D01*
X1114293Y1451500D01*
X818250D01*
X817866Y1452611D01*
Y1681000D01*
X863000Y1681000D01*
D02*
G37*
%LPC*%
G36*
X1092750Y1645076D02*
X1087750D01*
X1086477Y1644823D01*
X1085398Y1644102D01*
X1085211Y1643822D01*
X1071580D01*
X1071580Y1643822D01*
X1070787Y1643664D01*
X1070115Y1643215D01*
X1070115Y1643215D01*
X1055972Y1629072D01*
X1010250D01*
X1009457Y1628914D01*
X1008785Y1628465D01*
X1008785Y1628465D01*
X999535Y1619215D01*
X999086Y1618543D01*
X998928Y1617750D01*
X998928Y1617750D01*
Y1610377D01*
X997658Y1609991D01*
X997491Y1610241D01*
X996578Y1610852D01*
X995500Y1611066D01*
X994422Y1610852D01*
X993629Y1610322D01*
X990500D01*
X989707Y1610164D01*
X989035Y1609715D01*
X989035Y1609715D01*
X983142Y1603822D01*
X969327D01*
X969030Y1604158D01*
X969603Y1605428D01*
X980000D01*
X980000Y1605428D01*
X980793Y1605586D01*
X981465Y1606035D01*
X982142Y1606712D01*
X983078Y1606898D01*
X983991Y1607509D01*
X984602Y1608422D01*
X984816Y1609500D01*
X984602Y1610578D01*
X983991Y1611491D01*
X983078Y1612102D01*
X982000Y1612316D01*
X980922Y1612102D01*
X980009Y1611491D01*
X979398Y1610578D01*
X979212Y1609642D01*
X979142Y1609572D01*
X880659D01*
X880208Y1610247D01*
X878947Y1611089D01*
X877461Y1611385D01*
X866539D01*
X865052Y1611089D01*
X863792Y1610247D01*
X862950Y1608987D01*
X862654Y1607500D01*
X862950Y1606013D01*
X863792Y1604753D01*
X865052Y1603911D01*
X866539Y1603615D01*
X877461D01*
X878947Y1603911D01*
X880208Y1604753D01*
X880659Y1605428D01*
X943319D01*
X943633Y1604158D01*
X943009Y1603741D01*
X942398Y1602828D01*
X942184Y1601750D01*
X942398Y1600672D01*
X943009Y1599759D01*
X943922Y1599148D01*
X944858Y1598962D01*
X946159Y1597661D01*
X945673Y1596488D01*
X932166D01*
X932166Y1596488D01*
X932030Y1596461D01*
X931500Y1596566D01*
X930422Y1596352D01*
X929509Y1595741D01*
X928898Y1594828D01*
X928684Y1593750D01*
X928898Y1592672D01*
X929509Y1591759D01*
X930422Y1591148D01*
X931015Y1591030D01*
X931934Y1590000D01*
X932148Y1588922D01*
X932759Y1588009D01*
X933672Y1587398D01*
X934185Y1587296D01*
X934856Y1586149D01*
X934875Y1585963D01*
X934684Y1585000D01*
X934335Y1584575D01*
X926000D01*
X925417Y1584333D01*
X906326Y1565243D01*
X906285Y1565215D01*
X906285Y1565215D01*
X904645Y1563575D01*
X861410D01*
X861405Y1563573D01*
X861399Y1563575D01*
X861114Y1563452D01*
X860827Y1563333D01*
X860825Y1563328D01*
X860819Y1563325D01*
X859934Y1562415D01*
X859931Y1562410D01*
X859926Y1562407D01*
X859815Y1562117D01*
X859700Y1561829D01*
X859702Y1561823D01*
X859700Y1561818D01*
X859719Y1561115D01*
X858481Y1559922D01*
X855802D01*
X855468Y1559922D01*
X854218Y1559922D01*
X850468D01*
Y1558438D01*
X845350D01*
Y1558520D01*
X845192Y1559312D01*
X844743Y1559985D01*
X844071Y1560434D01*
X843278Y1560591D01*
X839722D01*
X838929Y1560434D01*
X838257Y1559985D01*
X837808Y1559312D01*
X837650Y1558520D01*
Y1555980D01*
X837808Y1555187D01*
X838257Y1554515D01*
X838929Y1554066D01*
X839722Y1553908D01*
X843278D01*
X844071Y1554066D01*
X844413Y1554294D01*
X850468D01*
Y1552810D01*
X854198D01*
X854532Y1552810D01*
X855783Y1552810D01*
X859296Y1552810D01*
X859570Y1552806D01*
X860747Y1552677D01*
X860750Y1552675D01*
X865658D01*
X867917Y1550417D01*
X868500Y1550175D01*
X870238D01*
Y1549988D01*
X885762D01*
Y1550175D01*
X932158D01*
X932667Y1549667D01*
X933250Y1549425D01*
X933833Y1549667D01*
X938083Y1553917D01*
X938083Y1553917D01*
X938325Y1554500D01*
Y1563408D01*
X942759Y1567843D01*
X942793Y1567855D01*
X944145Y1567433D01*
X944224Y1567000D01*
X944086Y1566793D01*
X943928Y1566000D01*
X944086Y1565207D01*
X944535Y1564535D01*
X944738Y1564332D01*
Y1559988D01*
X949262D01*
Y1570012D01*
X949262D01*
X949602Y1570922D01*
X949627Y1571051D01*
X950688Y1571152D01*
X950788Y1571138D01*
X951238Y1570012D01*
X951238Y1570012D01*
X951238Y1570012D01*
Y1559988D01*
X955762D01*
Y1570012D01*
X955762Y1570012D01*
X955762D01*
X955762Y1570012D01*
X956102Y1571172D01*
X956104Y1571185D01*
X956301Y1572175D01*
X963130D01*
X963684Y1571500D01*
X963898Y1570422D01*
X964238Y1569914D01*
Y1559988D01*
X968762D01*
Y1569914D01*
X969102Y1570422D01*
X969316Y1571500D01*
X969870Y1572175D01*
X973175D01*
Y1557500D01*
X973417Y1556917D01*
X982417Y1547917D01*
X983000Y1547675D01*
X1001299D01*
X1001377Y1547708D01*
X1001460Y1547691D01*
X1001581Y1547715D01*
X1003000D01*
X1003055Y1547738D01*
X1004512D01*
Y1555262D01*
X1003825D01*
Y1557738D01*
X1003583Y1558321D01*
X1003000Y1558563D01*
X998813D01*
Y1565262D01*
X999485Y1565754D01*
X999900Y1565978D01*
X1009753D01*
X1009841Y1565919D01*
X1010724Y1565744D01*
X1013724D01*
X1014607Y1565919D01*
X1015355Y1566419D01*
X1015855Y1567168D01*
X1016030Y1568050D01*
X1015855Y1568933D01*
X1015355Y1569681D01*
X1015135Y1569828D01*
Y1571272D01*
X1015355Y1571419D01*
X1015855Y1572167D01*
X1016030Y1573050D01*
X1015855Y1573932D01*
X1015355Y1574681D01*
X1015134Y1574828D01*
Y1576272D01*
X1015355Y1576419D01*
X1015855Y1577168D01*
X1016030Y1578050D01*
X1015855Y1578933D01*
X1015355Y1579681D01*
X1015135Y1579828D01*
Y1581272D01*
X1015355Y1581419D01*
X1015855Y1582167D01*
X1016030Y1583050D01*
X1015855Y1583932D01*
X1015355Y1584681D01*
X1015134Y1584828D01*
Y1586272D01*
X1015355Y1586419D01*
X1015855Y1587168D01*
X1016030Y1588050D01*
X1015855Y1588933D01*
X1015355Y1589681D01*
X1015135Y1589828D01*
Y1591272D01*
X1015355Y1591419D01*
X1015855Y1592167D01*
X1016030Y1593050D01*
X1015855Y1593932D01*
X1015355Y1594681D01*
X1014607Y1595181D01*
X1013724Y1595356D01*
X1010724D01*
X1009841Y1595181D01*
X1009093Y1594681D01*
X1008593Y1593932D01*
X1008418Y1593050D01*
X1008593Y1592167D01*
X1009093Y1591419D01*
X1009134Y1591392D01*
X1008749Y1590122D01*
X993808D01*
X990237Y1593693D01*
X990625Y1595101D01*
X991116Y1595226D01*
X991196Y1595172D01*
X992274Y1594958D01*
X993352Y1595172D01*
X994265Y1595783D01*
X994876Y1596696D01*
X995090Y1597774D01*
X994876Y1598852D01*
X994265Y1599765D01*
X993352Y1600376D01*
X992274Y1600590D01*
X991196Y1600376D01*
X990320Y1599790D01*
X986766D01*
X986240Y1601060D01*
X991358Y1606178D01*
X993629D01*
X994422Y1605648D01*
X995500Y1605434D01*
X996578Y1605648D01*
X997491Y1606259D01*
X997658Y1606508D01*
X998928Y1606123D01*
Y1605000D01*
X998928Y1605000D01*
X999086Y1604207D01*
X999535Y1603535D01*
X1005485Y1597585D01*
X1006157Y1597136D01*
X1006950Y1596978D01*
X1006950Y1596978D01*
X1016031D01*
X1016093Y1596667D01*
X1016593Y1595919D01*
X1017341Y1595419D01*
X1018224Y1595244D01*
X1019107Y1595419D01*
X1019855Y1595919D01*
X1020002Y1596139D01*
X1021446D01*
X1021593Y1595919D01*
X1022341Y1595419D01*
X1023224Y1595244D01*
X1024106Y1595419D01*
X1024855Y1595919D01*
X1025002Y1596140D01*
X1026446D01*
X1026593Y1595919D01*
X1027341Y1595419D01*
X1028224Y1595244D01*
X1029107Y1595419D01*
X1029855Y1595919D01*
X1030002Y1596140D01*
X1031446D01*
X1031593Y1595919D01*
X1032342Y1595419D01*
X1033224Y1595244D01*
X1034107Y1595419D01*
X1034855Y1595919D01*
X1035002Y1596139D01*
X1036446D01*
X1036593Y1595919D01*
X1037341Y1595419D01*
X1038224Y1595244D01*
X1039107Y1595419D01*
X1039855Y1595919D01*
X1040002Y1596139D01*
X1041446D01*
X1041593Y1595919D01*
X1042341Y1595419D01*
X1043224Y1595244D01*
X1044106Y1595419D01*
X1044855Y1595919D01*
X1045002Y1596140D01*
X1046446D01*
X1046593Y1595919D01*
X1047341Y1595419D01*
X1048224Y1595244D01*
X1049107Y1595419D01*
X1049855Y1595919D01*
X1050002Y1596140D01*
X1051446D01*
X1051593Y1595919D01*
X1052342Y1595419D01*
X1053224Y1595244D01*
X1054107Y1595419D01*
X1054855Y1595919D01*
X1054865Y1595933D01*
X1056392Y1595933D01*
X1056509Y1595759D01*
X1057422Y1595148D01*
X1058500Y1594934D01*
X1059578Y1595148D01*
X1060491Y1595759D01*
X1061102Y1596672D01*
X1061291Y1597624D01*
X1061714Y1598257D01*
X1061872Y1599050D01*
X1061714Y1599843D01*
X1061265Y1600515D01*
X1060593Y1600964D01*
X1059800Y1601122D01*
X1055417D01*
X1055355Y1601432D01*
X1054855Y1602181D01*
X1054107Y1602681D01*
X1053224Y1602856D01*
X1052342Y1602681D01*
X1051593Y1602181D01*
X1051446Y1601960D01*
X1050002D01*
X1049855Y1602181D01*
X1049107Y1602681D01*
X1048224Y1602856D01*
X1047341Y1602681D01*
X1046593Y1602181D01*
X1046446Y1601960D01*
X1045002D01*
X1044855Y1602181D01*
X1044106Y1602681D01*
X1043224Y1602856D01*
X1042341Y1602681D01*
X1041593Y1602181D01*
X1041446Y1601961D01*
X1040002D01*
X1039855Y1602181D01*
X1039107Y1602681D01*
X1038224Y1602856D01*
X1037341Y1602681D01*
X1036593Y1602181D01*
X1036566Y1602140D01*
X1035296Y1602525D01*
Y1608776D01*
X1035138Y1609569D01*
X1034689Y1610241D01*
X1034689Y1610241D01*
X1027215Y1617715D01*
X1026543Y1618164D01*
X1025750Y1618322D01*
X1025750Y1618322D01*
X1018121D01*
X1017328Y1618852D01*
X1016250Y1619066D01*
X1015172Y1618852D01*
X1014259Y1618241D01*
X1013648Y1617328D01*
X1013434Y1616250D01*
X1013648Y1615172D01*
X1014259Y1614259D01*
X1015172Y1613648D01*
X1016250Y1613434D01*
X1017328Y1613648D01*
X1018121Y1614178D01*
X1024892D01*
X1031152Y1607918D01*
Y1602525D01*
X1029882Y1602139D01*
X1029855Y1602181D01*
X1029107Y1602681D01*
X1028828Y1602736D01*
Y1605935D01*
X1028670Y1606728D01*
X1028221Y1607400D01*
X1028221Y1607401D01*
X1024656Y1610965D01*
X1023984Y1611414D01*
X1023191Y1611572D01*
X1023191Y1611572D01*
X1019621D01*
X1018828Y1612102D01*
X1017750Y1612316D01*
X1016672Y1612102D01*
X1015759Y1611491D01*
X1015148Y1610578D01*
X1014934Y1609500D01*
X1015148Y1608422D01*
X1015759Y1607509D01*
X1015886Y1607424D01*
X1015501Y1606154D01*
X1008322D01*
Y1614142D01*
X1014608Y1620428D01*
X1057000D01*
X1057000Y1620428D01*
X1057793Y1620586D01*
X1058465Y1621035D01*
X1069108Y1631678D01*
X1085211D01*
X1085398Y1631398D01*
X1086477Y1630677D01*
X1087750Y1630424D01*
X1092750D01*
X1094023Y1630677D01*
X1095101Y1631398D01*
X1095823Y1632477D01*
X1096076Y1633750D01*
X1095823Y1635023D01*
X1095101Y1636102D01*
X1094023Y1636823D01*
X1092750Y1637076D01*
X1087750D01*
X1086477Y1636823D01*
X1085398Y1636102D01*
X1085211Y1635822D01*
X1070241D01*
X1069755Y1636995D01*
X1072438Y1639678D01*
X1085211D01*
X1085398Y1639398D01*
X1086477Y1638677D01*
X1087750Y1638424D01*
X1092750D01*
X1094023Y1638677D01*
X1095101Y1639398D01*
X1095823Y1640477D01*
X1096076Y1641750D01*
X1095823Y1643023D01*
X1095101Y1644102D01*
X1094023Y1644823D01*
X1092750Y1645076D01*
D02*
G37*
G36*
X877461Y1636484D02*
X866539D01*
X865053Y1636189D01*
X863792Y1635347D01*
X862950Y1634086D01*
X862655Y1632600D01*
X862950Y1631113D01*
X863792Y1629853D01*
X865053Y1629011D01*
X866539Y1628715D01*
X877461D01*
X878948Y1629011D01*
X880208Y1629853D01*
X881050Y1631113D01*
X881346Y1632600D01*
X881050Y1634086D01*
X880208Y1635347D01*
X878948Y1636189D01*
X877461Y1636484D01*
D02*
G37*
G36*
X1092750Y1629076D02*
X1087750D01*
X1086477Y1628823D01*
X1085398Y1628102D01*
X1085211Y1627822D01*
X1073371D01*
X1072578Y1628352D01*
X1071500Y1628566D01*
X1070422Y1628352D01*
X1069509Y1627741D01*
X1068898Y1626828D01*
X1068684Y1625750D01*
X1068898Y1624672D01*
X1069509Y1623759D01*
X1070422Y1623148D01*
X1071500Y1622934D01*
X1072578Y1623148D01*
X1073371Y1623678D01*
X1085211D01*
X1085398Y1623398D01*
X1086477Y1622677D01*
X1087750Y1622424D01*
X1092750D01*
X1094023Y1622677D01*
X1095101Y1623398D01*
X1095823Y1624477D01*
X1096076Y1625750D01*
X1095823Y1627023D01*
X1095101Y1628102D01*
X1094023Y1628823D01*
X1092750Y1629076D01*
D02*
G37*
G36*
X877461Y1623884D02*
X866539D01*
X865052Y1623589D01*
X863792Y1622747D01*
X862950Y1621486D01*
X862654Y1620000D01*
X862950Y1618513D01*
X863792Y1617253D01*
X865052Y1616411D01*
X866539Y1616115D01*
X872954D01*
X873035Y1616035D01*
X873707Y1615586D01*
X874500Y1615428D01*
X874500Y1615428D01*
X987879D01*
X988672Y1614898D01*
X989750Y1614684D01*
X990828Y1614898D01*
X991741Y1615509D01*
X992352Y1616422D01*
X992566Y1617500D01*
X992352Y1618578D01*
X991741Y1619491D01*
X990828Y1620102D01*
X989750Y1620316D01*
X988672Y1620102D01*
X987879Y1619572D01*
X881697D01*
X881345Y1620000D01*
X881050Y1621486D01*
X880208Y1622747D01*
X878947Y1623589D01*
X877461Y1623884D01*
D02*
G37*
G36*
X1072000Y1621316D02*
X1070922Y1621102D01*
X1070009Y1620491D01*
X1069398Y1619578D01*
X1069184Y1618500D01*
X1069398Y1617422D01*
X1070009Y1616509D01*
X1070922Y1615898D01*
X1072000Y1615684D01*
X1073078Y1615898D01*
X1073871Y1616428D01*
X1084710D01*
X1085398Y1615398D01*
X1086478Y1614677D01*
X1087750Y1614424D01*
X1092750D01*
X1094023Y1614677D01*
X1095102Y1615398D01*
X1095823Y1616477D01*
X1096076Y1617750D01*
X1095823Y1619023D01*
X1095102Y1620102D01*
X1094023Y1620823D01*
X1092750Y1621076D01*
X1087750D01*
X1086478Y1620823D01*
X1086102Y1620572D01*
X1073871D01*
X1073078Y1621102D01*
X1072000Y1621316D01*
D02*
G37*
G36*
X1084488Y1613012D02*
X1083250Y1612066D01*
X1082172Y1611852D01*
X1081259Y1611241D01*
X1080648Y1610328D01*
X1080434Y1609250D01*
X1080648Y1608172D01*
X1081259Y1607259D01*
X1082172Y1606648D01*
X1083250Y1606434D01*
X1084488Y1606488D01*
X1084488Y1606488D01*
X1084488Y1606488D01*
X1096012D01*
Y1613012D01*
X1084488D01*
Y1613012D01*
D02*
G37*
G36*
X877461Y1598885D02*
X866539D01*
X865052Y1598589D01*
X863792Y1597747D01*
X863508Y1597322D01*
X859121D01*
X858328Y1597852D01*
X857250Y1598066D01*
X856172Y1597852D01*
X855259Y1597241D01*
X854648Y1596328D01*
X854434Y1595250D01*
X854648Y1594172D01*
X855259Y1593259D01*
X856172Y1592648D01*
X857250Y1592434D01*
X858328Y1592648D01*
X859121Y1593178D01*
X863174D01*
X863792Y1592253D01*
X865052Y1591411D01*
X866539Y1591116D01*
X877461D01*
X878947Y1591411D01*
X880208Y1592253D01*
X881050Y1593513D01*
X881345Y1595000D01*
X881050Y1596487D01*
X880208Y1597747D01*
X878947Y1598589D01*
X877461Y1598885D01*
D02*
G37*
G36*
X1038224Y1555857D02*
X1037341Y1555681D01*
X1036593Y1555181D01*
X1036446Y1554961D01*
X1035002D01*
X1034855Y1555181D01*
X1034107Y1555681D01*
X1033224Y1555857D01*
X1032342Y1555681D01*
X1031593Y1555181D01*
X1031446Y1554960D01*
X1030002D01*
X1029855Y1555181D01*
X1029107Y1555681D01*
X1028224Y1555857D01*
X1027341Y1555681D01*
X1026593Y1555181D01*
X1026446Y1554961D01*
X1025002D01*
X1024855Y1555181D01*
X1024107Y1555681D01*
X1023224Y1555857D01*
X1022342Y1555681D01*
X1021593Y1555181D01*
X1021446Y1554960D01*
X1020002D01*
X1019855Y1555181D01*
X1019107Y1555681D01*
X1018224Y1555857D01*
X1017341Y1555681D01*
X1016593Y1555181D01*
X1016093Y1554433D01*
X1014802Y1554452D01*
X1014578Y1554602D01*
X1013500Y1554816D01*
X1012422Y1554602D01*
X1011509Y1553991D01*
X1010898Y1553078D01*
X1010684Y1552000D01*
X1010898Y1550922D01*
X1011332Y1550273D01*
X1011156Y1549249D01*
X1010968Y1548843D01*
X1010430Y1548483D01*
X1007753Y1545806D01*
X1007304Y1545134D01*
X1007146Y1544341D01*
X1007146Y1544341D01*
Y1534591D01*
X1006012Y1534262D01*
Y1534262D01*
X996988D01*
Y1526738D01*
X1003128D01*
Y1524908D01*
X1002929Y1524610D01*
X1002807Y1524000D01*
Y1522000D01*
X1002929Y1521391D01*
X1003274Y1520874D01*
X1003790Y1520529D01*
X1004400Y1520408D01*
X1006000D01*
X1006609Y1520529D01*
X1007126Y1520874D01*
X1007471Y1521391D01*
X1007592Y1522000D01*
Y1524000D01*
X1007471Y1524610D01*
X1007272Y1524908D01*
Y1525942D01*
X1010683Y1529353D01*
X1010683Y1529353D01*
X1011132Y1530025D01*
X1011290Y1530818D01*
X1011290Y1530818D01*
Y1536738D01*
X1019512D01*
Y1541644D01*
X1027218D01*
X1027391Y1541529D01*
X1028000Y1541408D01*
X1030000D01*
X1030610Y1541529D01*
X1031126Y1541874D01*
X1031472Y1542391D01*
X1031593Y1543000D01*
Y1544600D01*
X1031472Y1545210D01*
X1031126Y1545726D01*
X1030610Y1546072D01*
X1030296Y1546134D01*
Y1548575D01*
X1031566Y1548961D01*
X1031593Y1548919D01*
X1032342Y1548419D01*
X1033224Y1548244D01*
X1034107Y1548419D01*
X1034855Y1548919D01*
X1034882Y1548960D01*
X1036152Y1548575D01*
Y1544262D01*
X1032988D01*
Y1537738D01*
X1034678D01*
Y1534371D01*
X1034148Y1533578D01*
X1034035Y1533012D01*
X1028738D01*
Y1525488D01*
X1035262D01*
Y1528082D01*
X1036892Y1529712D01*
X1037827Y1529898D01*
X1038741Y1530509D01*
X1039352Y1531422D01*
X1039566Y1532500D01*
X1039352Y1533578D01*
X1038822Y1534371D01*
Y1537738D01*
X1040512D01*
Y1544262D01*
X1040296D01*
Y1549579D01*
X1040355Y1549668D01*
X1040530Y1550550D01*
Y1553550D01*
X1040355Y1554433D01*
X1039855Y1555181D01*
X1039107Y1555681D01*
X1038224Y1555857D01*
D02*
G37*
G36*
X1060724Y1590356D02*
X1057724D01*
X1056842Y1590181D01*
X1056093Y1589681D01*
X1055593Y1588933D01*
X1055418Y1588050D01*
X1055593Y1587168D01*
X1056093Y1586419D01*
X1056314Y1586272D01*
Y1584828D01*
X1056093Y1584681D01*
X1055593Y1583932D01*
X1055418Y1583050D01*
X1055593Y1582167D01*
X1056093Y1581419D01*
X1056313Y1581272D01*
X1056313Y1579828D01*
X1056093Y1579681D01*
X1055593Y1578933D01*
X1055417Y1578050D01*
X1055593Y1577168D01*
X1056093Y1576419D01*
X1056313Y1576272D01*
X1056314Y1574828D01*
X1056093Y1574681D01*
X1055593Y1573932D01*
X1055418Y1573050D01*
X1055593Y1572167D01*
X1056093Y1571419D01*
X1056314Y1571272D01*
Y1569828D01*
X1056093Y1569680D01*
X1055593Y1568932D01*
X1055418Y1568050D01*
X1055593Y1567167D01*
X1056093Y1566419D01*
X1056313Y1566272D01*
Y1564828D01*
X1056093Y1564681D01*
X1055593Y1563933D01*
X1055418Y1563050D01*
X1055593Y1562167D01*
X1056093Y1561419D01*
X1056314Y1561272D01*
Y1559828D01*
X1056093Y1559680D01*
X1055593Y1558932D01*
X1055418Y1558050D01*
X1055593Y1557167D01*
X1056093Y1556419D01*
X1056842Y1555919D01*
X1057724Y1555743D01*
X1060724D01*
X1061607Y1555919D01*
X1061695Y1555978D01*
X1062965D01*
X1063644Y1554708D01*
X1063253Y1554122D01*
X1055417D01*
X1055355Y1554433D01*
X1054855Y1555181D01*
X1054107Y1555681D01*
X1053224Y1555857D01*
X1052342Y1555681D01*
X1051593Y1555181D01*
X1051446Y1554960D01*
X1050002D01*
X1049855Y1555181D01*
X1049107Y1555681D01*
X1048224Y1555857D01*
X1047341Y1555681D01*
X1046593Y1555181D01*
X1046093Y1554433D01*
X1045918Y1553550D01*
Y1550550D01*
X1046093Y1549668D01*
X1046152Y1549579D01*
Y1548526D01*
X1046152Y1548526D01*
X1046310Y1547733D01*
X1046759Y1547061D01*
X1048267Y1545553D01*
X1048267Y1545553D01*
X1048939Y1545104D01*
X1049732Y1544946D01*
X1049732Y1544946D01*
X1054687D01*
X1054687Y1544946D01*
X1055480Y1545104D01*
X1056152Y1545553D01*
X1057275Y1546676D01*
X1066997D01*
X1067354Y1545850D01*
X1067452Y1545406D01*
X1066898Y1544578D01*
X1066684Y1543500D01*
X1066898Y1542422D01*
X1067509Y1541509D01*
X1068422Y1540898D01*
X1069500Y1540684D01*
X1070578Y1540898D01*
X1071371Y1541428D01*
X1080811D01*
X1081259Y1540759D01*
X1082172Y1540148D01*
X1083250Y1539934D01*
X1084328Y1540148D01*
X1085158Y1540703D01*
X1085595Y1540607D01*
X1086275Y1540315D01*
X1086396Y1539076D01*
X1080392Y1533072D01*
X1078000D01*
X1078000Y1533072D01*
X1077207Y1532914D01*
X1076535Y1532465D01*
X1053608Y1509538D01*
X1052672Y1509352D01*
X1051759Y1508741D01*
X1051148Y1507828D01*
X1050934Y1506750D01*
X1051148Y1505672D01*
X1051759Y1504759D01*
X1052672Y1504148D01*
X1053750Y1503934D01*
X1054828Y1504148D01*
X1055741Y1504759D01*
X1056352Y1505672D01*
X1056538Y1506608D01*
X1078858Y1528928D01*
X1081250D01*
X1081250Y1528928D01*
X1082043Y1529086D01*
X1082715Y1529535D01*
X1089965Y1536785D01*
X1089965Y1536785D01*
X1090414Y1537457D01*
X1090572Y1538250D01*
Y1580250D01*
X1090414Y1581043D01*
X1089965Y1581715D01*
X1089965Y1581715D01*
X1082165Y1589515D01*
X1081493Y1589964D01*
X1080700Y1590122D01*
X1080700Y1590122D01*
X1061695D01*
X1061607Y1590181D01*
X1060724Y1590356D01*
D02*
G37*
G36*
X864612Y1545256D02*
X860548D01*
Y1541900D01*
X860508Y1541700D01*
Y1540075D01*
X859696D01*
X859544Y1540012D01*
X859380Y1540012D01*
X859264Y1539964D01*
X859148Y1539848D01*
X859113Y1539833D01*
X859098Y1539798D01*
X858984Y1539684D01*
X858949Y1539669D01*
X858934Y1539634D01*
X858818Y1539518D01*
X858770Y1539402D01*
Y1539238D01*
X858707Y1539086D01*
Y1538969D01*
X856293D01*
Y1539086D01*
X856230Y1539238D01*
X856230Y1539402D01*
X856182Y1539518D01*
X856066Y1539634D01*
X856051Y1539669D01*
X856016Y1539684D01*
X855902Y1539798D01*
X855887Y1539833D01*
X855852Y1539848D01*
X855736Y1539964D01*
X855620Y1540012D01*
X855455D01*
X855304Y1540075D01*
X854572D01*
Y1541700D01*
X854532Y1541900D01*
Y1545256D01*
X850468D01*
Y1541900D01*
X850428Y1541700D01*
Y1540012D01*
X850348D01*
X850068Y1539896D01*
X849952Y1539780D01*
X849801Y1539717D01*
X846033Y1535949D01*
X845970Y1535798D01*
X845854Y1535682D01*
X845738Y1535402D01*
Y1535237D01*
X845675Y1535086D01*
Y1531825D01*
X823914D01*
X823763Y1531762D01*
X823598D01*
X823318Y1531646D01*
X823202Y1531530D01*
X823051Y1531467D01*
X822283Y1530699D01*
X822220Y1530548D01*
X822104Y1530432D01*
X821988Y1530152D01*
Y1529987D01*
X821925Y1529836D01*
Y1524545D01*
X821871Y1524274D01*
Y1521226D01*
X821925Y1520955D01*
Y1517664D01*
X821988Y1517512D01*
X821988Y1517348D01*
X822036Y1517232D01*
X822152Y1517116D01*
X822167Y1517081D01*
X822202Y1517066D01*
X822316Y1516952D01*
X822331Y1516917D01*
X822366Y1516902D01*
X822482Y1516786D01*
X822598Y1516738D01*
X822763D01*
X822914Y1516675D01*
X861158D01*
X868147Y1509686D01*
X868240Y1509648D01*
X868299Y1509566D01*
X869151Y1509044D01*
X872734Y1505984D01*
X875795Y1502401D01*
X876316Y1501549D01*
X876398Y1501490D01*
X876436Y1501397D01*
X887801Y1490033D01*
X887952Y1489970D01*
X888068Y1489854D01*
X888348Y1489738D01*
X888512D01*
X888664Y1489675D01*
X907425Y1489675D01*
X907586Y1489675D01*
X907586Y1489675D01*
X907738Y1489738D01*
X907902Y1489738D01*
X907902Y1489738D01*
X908018Y1489786D01*
X908131Y1489900D01*
X908265Y1489949D01*
X908337Y1490105D01*
X908464Y1490232D01*
X908464Y1490232D01*
X908464Y1490232D01*
X908464Y1490233D01*
X908466Y1490238D01*
X908466Y1490387D01*
X908529Y1490522D01*
X908574Y1491696D01*
X908568Y1491712D01*
X908575Y1491728D01*
X909293Y1492802D01*
X909589Y1494289D01*
Y1505211D01*
X909505Y1505634D01*
X910210Y1506690D01*
X910372Y1506722D01*
X911286Y1507332D01*
X911896Y1508246D01*
X912111Y1509324D01*
X911896Y1510401D01*
X911286Y1511315D01*
X910372Y1511925D01*
X909294Y1512140D01*
X908217Y1511925D01*
X907424Y1511396D01*
X903710D01*
X903710Y1511396D01*
X903710Y1511396D01*
X888271D01*
X866075Y1533592D01*
Y1539086D01*
X866023Y1539211D01*
X866032Y1539347D01*
X865942Y1539451D01*
X865907Y1539585D01*
X865856Y1539615D01*
X865833Y1539669D01*
X865708Y1539721D01*
X865619Y1539824D01*
X865619Y1539824D01*
X865481Y1539833D01*
X865361Y1539903D01*
X864652Y1540000D01*
Y1541700D01*
X864612Y1541900D01*
Y1545256D01*
D02*
G37*
G36*
X936750Y1545066D02*
X935672Y1544852D01*
X934759Y1544241D01*
X934148Y1543328D01*
X933934Y1542250D01*
X934148Y1541172D01*
X934759Y1540259D01*
X935672Y1539648D01*
X936608Y1539462D01*
X940935Y1535135D01*
X940935Y1535135D01*
X941607Y1534686D01*
X942400Y1534528D01*
X944738D01*
Y1531588D01*
X949262D01*
Y1541612D01*
X944738D01*
Y1538672D01*
X943258D01*
X939538Y1542392D01*
X939352Y1543328D01*
X938741Y1544241D01*
X937828Y1544852D01*
X936750Y1545066D01*
D02*
G37*
G36*
X962262Y1541612D02*
X957738D01*
Y1531588D01*
X959958D01*
X965011Y1526535D01*
X965683Y1526086D01*
X966476Y1525928D01*
X966476Y1525928D01*
X967972D01*
X969570Y1524330D01*
X969044Y1523060D01*
X964198D01*
Y1521322D01*
X960882D01*
Y1522810D01*
X955991D01*
X955329Y1524080D01*
X955414Y1524207D01*
X955572Y1525000D01*
X955572Y1525000D01*
Y1531588D01*
X955762D01*
Y1541612D01*
X951238D01*
Y1531588D01*
X951428D01*
Y1525858D01*
X948380Y1522810D01*
X944198D01*
Y1521072D01*
X942000D01*
X942000Y1521072D01*
X941207Y1520914D01*
X940535Y1520465D01*
X940535Y1520465D01*
X931035Y1510965D01*
X931035Y1510965D01*
X929285Y1509215D01*
X928836Y1508543D01*
X928829Y1508510D01*
X928003Y1507958D01*
X927161Y1506698D01*
X926865Y1505211D01*
Y1494289D01*
X926972Y1493754D01*
X925801Y1493129D01*
X922035Y1496895D01*
Y1505211D01*
X921739Y1506698D01*
X920897Y1507958D01*
X919637Y1508800D01*
X918150Y1509096D01*
X916664Y1508800D01*
X915403Y1507958D01*
X914561Y1506698D01*
X914265Y1505211D01*
Y1494289D01*
X914561Y1492802D01*
X915403Y1491542D01*
X916664Y1490700D01*
X918150Y1490405D01*
X919637Y1490700D01*
X920897Y1491542D01*
X921471Y1491599D01*
X928628Y1484442D01*
X929300Y1483993D01*
X930093Y1483835D01*
X930093Y1483835D01*
X946722D01*
X946722Y1483835D01*
X947515Y1483993D01*
X948187Y1484442D01*
X949354Y1485609D01*
X983850D01*
X985017Y1484442D01*
X985689Y1483993D01*
X986482Y1483835D01*
X986482Y1483835D01*
X994907D01*
X994907Y1483835D01*
X995700Y1483993D01*
X996372Y1484442D01*
X1002345Y1490415D01*
X1002400Y1490404D01*
X1003886Y1490700D01*
X1005147Y1491542D01*
X1005989Y1492802D01*
X1006285Y1494289D01*
Y1505211D01*
X1005989Y1506698D01*
X1005147Y1507958D01*
X1004222Y1508576D01*
Y1509302D01*
X1004222Y1509302D01*
X1004064Y1510095D01*
X1003615Y1510767D01*
X1003615Y1510767D01*
X1001377Y1513005D01*
X1001863Y1514178D01*
X1008581D01*
X1008706Y1512908D01*
X1008422Y1512852D01*
X1007509Y1512241D01*
X1006898Y1511328D01*
X1006684Y1510250D01*
X1006898Y1509172D01*
X1007509Y1508259D01*
X1008422Y1507648D01*
X1009358Y1507462D01*
X1011197Y1505623D01*
X1011115Y1505211D01*
Y1494289D01*
X1011411Y1492802D01*
X1012253Y1491542D01*
X1013513Y1490700D01*
X1015000Y1490404D01*
X1016486Y1490700D01*
X1017747Y1491542D01*
X1018589Y1492802D01*
X1018885Y1494289D01*
Y1505211D01*
X1018778Y1505746D01*
X1019949Y1506371D01*
X1023615Y1502704D01*
Y1494289D01*
X1023911Y1492802D01*
X1024753Y1491542D01*
X1026014Y1490700D01*
X1027500Y1490404D01*
X1028987Y1490700D01*
X1030247Y1491542D01*
X1031089Y1492802D01*
X1031385Y1494289D01*
Y1505211D01*
X1031089Y1506698D01*
X1030247Y1507958D01*
X1028987Y1508800D01*
X1027500Y1509096D01*
X1026014Y1508800D01*
X1024753Y1507958D01*
X1024270Y1507910D01*
X1014465Y1517715D01*
X1013793Y1518164D01*
X1013000Y1518322D01*
X1013000Y1518322D01*
X1000730D01*
X996898Y1522154D01*
X997066Y1523000D01*
X996852Y1524078D01*
X996241Y1524991D01*
X995328Y1525602D01*
X994250Y1525816D01*
X993172Y1525602D01*
X992966Y1525464D01*
X990810Y1527620D01*
Y1531802D01*
X983190D01*
Y1525198D01*
X987372D01*
X989053Y1523517D01*
X988527Y1522247D01*
X980882D01*
Y1523060D01*
X976700D01*
X970295Y1529465D01*
X969623Y1529914D01*
X968830Y1530072D01*
X968830Y1530072D01*
X967334D01*
X962262Y1535144D01*
Y1541612D01*
D02*
G37*
%LPD*%
G36*
X992371Y1573629D02*
X992259Y1572491D01*
X991648Y1571578D01*
X991434Y1570500D01*
X991648Y1569422D01*
X992259Y1568509D01*
X993172Y1567898D01*
X994108Y1567712D01*
X995235Y1566585D01*
X995235Y1566585D01*
X995907Y1566136D01*
X996700Y1565978D01*
X997015D01*
X997988Y1565262D01*
Y1557738D01*
X1003000D01*
Y1548540D01*
X1001500D01*
X1001299Y1548500D01*
X983000D01*
X974000Y1557500D01*
Y1573000D01*
X968820D01*
X968491Y1573491D01*
X967578Y1574102D01*
X966500Y1574316D01*
X965422Y1574102D01*
X964509Y1573491D01*
X964180Y1573000D01*
X956167D01*
X956102Y1573327D01*
X955491Y1574241D01*
X954577Y1574852D01*
X953500Y1575066D01*
X952422Y1574852D01*
X951508Y1574241D01*
X950898Y1573327D01*
X950833Y1573000D01*
X949617D01*
X949602Y1573078D01*
X948991Y1573991D01*
X948078Y1574602D01*
X947000Y1574816D01*
X945922Y1574602D01*
X945009Y1573991D01*
X944398Y1573078D01*
X944184Y1572000D01*
X944398Y1570922D01*
X944508Y1570758D01*
X937500Y1563750D01*
Y1554500D01*
X937500D01*
X933250Y1550250D01*
X932500Y1551000D01*
X868500D01*
X866000Y1553500D01*
X860750D01*
X860525Y1561840D01*
X861410Y1562750D01*
X905000D01*
X926000Y1583750D01*
X935013D01*
X935509Y1583009D01*
X936422Y1582398D01*
X937500Y1582184D01*
X938578Y1582398D01*
X939491Y1583009D01*
X939987Y1583750D01*
X982250D01*
X992371Y1573629D01*
D02*
G37*
G36*
X865250Y1539086D02*
X865250Y1539086D01*
Y1533250D01*
X888250Y1510250D01*
X907750D01*
Y1491728D01*
X907750D01*
X907704Y1490554D01*
X907702Y1490548D01*
X907586Y1490500D01*
X888664D01*
X888384Y1490616D01*
X877020Y1501980D01*
X876464Y1502887D01*
X873319Y1506569D01*
X869637Y1509714D01*
X868730Y1510269D01*
X861500Y1517500D01*
X822914D01*
X822798Y1517548D01*
X822750Y1517664D01*
Y1520955D01*
X822750Y1520955D01*
X822750Y1520955D01*
Y1529836D01*
X822866Y1530116D01*
X823634Y1530884D01*
X823914Y1531000D01*
X846500D01*
Y1535086D01*
X846616Y1535366D01*
X850384Y1539134D01*
X850664Y1539250D01*
X855304D01*
X855420Y1539202D01*
X855468Y1539086D01*
Y1538144D01*
X859532D01*
Y1539086D01*
X859580Y1539202D01*
X859696Y1539250D01*
X864048D01*
X865250Y1539086D01*
D02*
G37*
D102*
X1029000Y1543800D02*
D03*
X1029000Y1538200D02*
D03*
D103*
X1010800Y1523000D02*
D03*
X1005200Y1523000D02*
D03*
D104*
X899500Y1541500D02*
D03*
Y1555500D02*
D03*
X827250Y1536750D02*
D03*
Y1522750D02*
D03*
D105*
X841500Y1557250D02*
D03*
Y1549250D02*
D03*
D108*
X966500Y1565000D02*
D03*
X960000Y1565000D02*
D03*
X953500Y1565000D02*
D03*
X947000D02*
D03*
X966500Y1536600D02*
D03*
X960000D02*
D03*
X953500D02*
D03*
X947000D02*
D03*
D109*
X956750Y1550800D02*
D03*
D110*
X943250Y1499750D02*
D03*
X930750D02*
D03*
X918150D02*
D03*
X905704D02*
D03*
X1027500Y1499750D02*
D03*
X1015000D02*
D03*
X1002400D02*
D03*
X989954D02*
D03*
D111*
X962750Y1468250D02*
D03*
X886146D02*
D03*
X1047000Y1468250D02*
D03*
X970396D02*
D03*
D112*
X1032000Y1529250D02*
D03*
Y1519250D02*
D03*
X1001250Y1561500D02*
D03*
Y1551500D02*
D03*
X842500Y1535750D02*
D03*
Y1525750D02*
D03*
D113*
X1046750Y1541000D02*
D03*
X1036750D02*
D03*
D114*
X1015000Y1540500D02*
D03*
X1015000Y1530500D02*
D03*
X1001500Y1540500D02*
D03*
X1001500Y1530500D02*
D03*
D115*
X1104398Y1596750D02*
D03*
D116*
X1090250Y1609750D02*
D03*
D117*
X1090250Y1617750D02*
D03*
X1090250Y1625750D02*
D03*
Y1633750D02*
D03*
Y1641750D02*
D03*
Y1649750D02*
D03*
D118*
X1104398Y1662750D02*
D03*
D119*
X947500Y1519000D02*
D03*
X957580Y1519000D02*
D03*
X967500Y1519250D02*
D03*
X977580D02*
D03*
D120*
X987000Y1528500D02*
D03*
Y1538580D02*
D03*
D121*
X878000Y1541250D02*
D03*
X878000Y1556250D02*
D03*
D122*
X857500Y1549000D02*
D03*
D123*
X852500Y1556366D02*
D03*
X857500Y1556366D02*
D03*
X862580D02*
D03*
Y1541700D02*
D03*
X857500Y1541700D02*
D03*
X852500Y1541700D02*
D03*
D124*
X920500Y1534518D02*
D03*
Y1563750D02*
D03*
D125*
X1035724Y1575550D02*
D03*
D126*
X1012224Y1558050D02*
D03*
Y1563050D02*
D03*
Y1568050D02*
D03*
Y1573050D02*
D03*
Y1578050D02*
D03*
Y1583050D02*
D03*
Y1588050D02*
D03*
Y1593050D02*
D03*
X1059224D02*
D03*
Y1588050D02*
D03*
Y1583050D02*
D03*
X1059224Y1578050D02*
D03*
X1059224Y1573050D02*
D03*
Y1568050D02*
D03*
Y1563050D02*
D03*
Y1558050D02*
D03*
D127*
X1018224Y1599050D02*
D03*
X1023224D02*
D03*
X1028224D02*
D03*
X1033224D02*
D03*
X1038224D02*
D03*
X1043224D02*
D03*
X1048224D02*
D03*
X1053224D02*
D03*
Y1552050D02*
D03*
X1048224D02*
D03*
X1043224D02*
D03*
X1038224D02*
D03*
X1033224D02*
D03*
X1028224D02*
D03*
X1023224D02*
D03*
X1018224D02*
D03*
D128*
X872000Y1595000D02*
D03*
Y1607500D02*
D03*
Y1620000D02*
D03*
X872000Y1632600D02*
D03*
X872000Y1645046D02*
D03*
Y1657746D02*
D03*
D129*
X840500Y1575500D02*
D03*
X840500Y1677050D02*
D03*
D130*
X1010250Y1627000D02*
X1056830D01*
X1001000Y1617750D02*
X1010250Y1627000D01*
X1001000Y1605000D02*
Y1617750D01*
X931500Y1593750D02*
X932166Y1594416D01*
X986584D01*
X992950Y1588050D01*
X1078000Y1531000D02*
X1081250D01*
X1053750Y1506750D02*
X1078000Y1531000D01*
X1081250D02*
X1088500Y1538250D01*
Y1580250D01*
X1080700Y1588050D02*
X1088500Y1580250D01*
X1059224Y1588050D02*
X1080700D01*
X1053224Y1599050D02*
X1059800D01*
X1032000Y1527750D02*
X1036750Y1532500D01*
X878500Y1541250D02*
X899250D01*
X862623Y1667123D02*
X872000Y1657746D01*
X960000Y1554050D02*
X975469Y1538580D01*
X969896Y1468250D02*
X970146Y1468500D01*
X1046750D01*
X911202Y1484000D02*
X922872Y1472330D01*
X956170D02*
X961500Y1467000D01*
X887396D02*
X904396Y1484000D01*
X1056417Y1548748D02*
X1074950D01*
X1079282Y1553080D01*
Y1562670D01*
X1069875Y1572077D02*
X1079282Y1562670D01*
X1065052Y1572077D02*
X1069875D01*
X986750Y1515036D02*
X989704Y1512082D01*
X989075Y1520175D02*
X995218Y1514032D01*
X978505Y1520175D02*
X989075D01*
X977580Y1519250D02*
X978505Y1520175D01*
X986750Y1515036D02*
Y1516143D01*
X995218Y1514032D02*
X997420D01*
X989704Y1500000D02*
Y1512082D01*
X956000Y1509750D02*
X985500D01*
X903710Y1509324D02*
X905704D01*
X909294D01*
X878176D02*
X903710D01*
X901386Y1499750D02*
Y1507000D01*
X946000Y1499750D02*
X956000Y1509750D01*
X1014750Y1496500D02*
Y1505000D01*
X1009500Y1510250D02*
X1014750Y1505000D01*
X995750Y1492901D02*
Y1510000D01*
X997420Y1514032D02*
X1002150Y1509302D01*
Y1493150D02*
Y1509302D01*
X993997Y1522125D02*
X999872Y1516250D01*
X993375Y1522125D02*
X993997D01*
X999872Y1516250D02*
X1013000D01*
X992058Y1489209D02*
X995750Y1492901D01*
X987850Y1489209D02*
X992058D01*
X984548Y1492511D02*
X987850Y1489209D01*
X948656Y1492511D02*
X984548D01*
X994907Y1485907D02*
X1002150Y1493150D01*
X986482Y1485907D02*
X994907D01*
X984708Y1487681D02*
X986482Y1485907D01*
X948496Y1487681D02*
X984708D01*
X946722Y1485907D02*
X948496Y1487681D01*
X945354Y1489209D02*
X948656Y1492511D01*
X941146Y1489209D02*
X945354D01*
X930750Y1499605D02*
X941146Y1489209D01*
X930750Y1499605D02*
Y1499750D01*
X930093Y1485907D02*
X946722D01*
X918150Y1497850D02*
X930093Y1485907D01*
X922872Y1472330D02*
X956170D01*
X911202Y1484000D02*
X911250D01*
X904396D02*
X911202D01*
X901386Y1507000D02*
X903710Y1509324D01*
X901386Y1499750D02*
X905704D01*
X856250Y1531250D02*
X878176Y1509324D01*
X1073826Y1561000D02*
X1075250D01*
X1071776Y1563050D02*
X1073826Y1561000D01*
X1059224Y1563050D02*
X1071776D01*
X1070950Y1558050D02*
X1074750Y1554250D01*
X1059224Y1558050D02*
X1070950D01*
X1065527Y1552050D02*
X1066552Y1553076D01*
X1053224Y1552050D02*
X1065527D01*
X1069500Y1543500D02*
X1082500D01*
X1083250Y1542750D01*
X1054687Y1547018D02*
X1056417Y1548748D01*
X1013500Y1552000D02*
X1013550Y1552050D01*
X1018224D01*
X841500Y1557250D02*
X842384Y1556366D01*
X852500D01*
X1040000Y1475250D02*
X1046750Y1468500D01*
X1040000Y1475250D02*
Y1519250D01*
X937500Y1585000D02*
X938750Y1586250D01*
X983750D01*
X991950Y1578050D01*
X1012224D01*
X934750Y1590000D02*
X985000D01*
X991950Y1583050D01*
X1012224D01*
X992950Y1588050D02*
X1012224D01*
X992218Y1597718D02*
X992274Y1597774D01*
X949032Y1597718D02*
X992218D01*
X945000Y1601750D02*
X949032Y1597718D01*
X984000Y1601750D02*
X990500Y1608250D01*
X966750Y1601750D02*
X984000D01*
X983000Y1577250D02*
X990218Y1570032D01*
X940500Y1577250D02*
X983000D01*
X927000Y1563750D02*
X940500Y1577250D01*
X947000Y1567000D02*
Y1572000D01*
X946000Y1566000D02*
X947000Y1567000D01*
X953500Y1565000D02*
Y1572250D01*
X966500Y1565000D02*
Y1571500D01*
X946000Y1566000D02*
X947000Y1565000D01*
X1016250Y1616250D02*
X1025750D01*
X1033224Y1608776D01*
Y1599050D02*
Y1608776D01*
X1017750Y1609500D02*
X1023191D01*
X1026756Y1605935D01*
Y1600518D02*
Y1605935D01*
Y1600518D02*
X1028224Y1599050D01*
X1057000Y1622500D02*
X1068250Y1633750D01*
X1013750Y1622500D02*
X1057000D01*
X1006250Y1615000D02*
X1013750Y1622500D01*
X1056830Y1627000D02*
X1071580Y1641750D01*
X1007418Y1604082D02*
X1019687D01*
X1006250Y1605250D02*
X1007418Y1604082D01*
X1006250Y1605250D02*
Y1615000D01*
X1001000Y1605000D02*
X1006950Y1599050D01*
X1018224D01*
X990500Y1608250D02*
X995500D01*
X874500Y1617500D02*
X989750D01*
X980000Y1607500D02*
X982000Y1609500D01*
X872000Y1607500D02*
X980000D01*
X1019687Y1604082D02*
X1021756Y1602013D01*
Y1600518D02*
Y1602013D01*
Y1600518D02*
X1023224Y1599050D01*
X924250Y1563750D02*
X927000D01*
X920500D02*
X924250D01*
X992250Y1552250D02*
Y1566798D01*
X990218Y1568830D02*
X992250Y1566798D01*
X990218Y1568830D02*
Y1570032D01*
X942400Y1536600D02*
X947000D01*
X936750Y1542250D02*
X942400Y1536600D01*
X924250Y1563750D02*
X933750Y1554250D01*
X877885Y1556366D02*
X878000Y1556250D01*
X862580Y1556366D02*
X877885D01*
X898749Y1556250D02*
X899500Y1555500D01*
X878000Y1556250D02*
X898749D01*
X899500Y1555500D02*
X907750Y1563750D01*
X920500D01*
X852696Y1677050D02*
X861873Y1667873D01*
X861750Y1667750D02*
X862500Y1667000D01*
X1072000Y1618500D02*
X1089500D01*
X1071500Y1625750D02*
X1071500Y1625750D01*
X1090250D01*
X1049732Y1547018D02*
X1054687D01*
X1048224Y1548526D02*
X1049732Y1547018D01*
X1048224Y1548526D02*
Y1552050D01*
X1043224Y1544526D02*
Y1552050D01*
Y1544526D02*
X1046750Y1541000D01*
X992250Y1552250D02*
X993000Y1551500D01*
X1001250D01*
X1005782Y1551608D02*
X1012224Y1558050D01*
X1005782Y1547658D02*
Y1551608D01*
X1004592Y1546468D02*
X1005782Y1547658D01*
X1001500Y1546468D02*
X1004592D01*
X1001500Y1540500D02*
Y1546468D01*
X1005200Y1526800D02*
X1009218Y1530818D01*
Y1544341D01*
X1014262Y1530500D02*
X1015000D01*
X1009218Y1544341D02*
X1011895Y1547018D01*
X1019687D01*
X1019771Y1547102D01*
X1021756D01*
Y1550582D01*
X1023224Y1552050D01*
X1018216Y1543716D02*
X1028916D01*
X1029000Y1543800D01*
X1015000Y1540500D02*
X1018216Y1543716D01*
X1028224Y1544577D02*
X1029000Y1543800D01*
X1028224Y1544577D02*
Y1552050D01*
X1032000Y1519250D02*
X1040000D01*
X1046750Y1526000D02*
Y1541000D01*
X1040000Y1519250D02*
X1046750Y1526000D01*
X1015000Y1530500D02*
X1023250D01*
X1029000Y1536250D01*
Y1538200D01*
X1025000Y1519250D02*
X1032000D01*
X1021250Y1523000D02*
X1025000Y1519250D01*
X1010800Y1523000D02*
X1021250D01*
X1010800D02*
X1015000Y1527200D01*
Y1530500D01*
X1005200Y1523000D02*
Y1526800D01*
X962750Y1468250D02*
X969896D01*
X961500Y1467000D02*
X962750Y1468250D01*
X886146D02*
X887396Y1467000D01*
X1046750Y1541000D02*
X1048250Y1542500D01*
X1062050D01*
X1036750Y1532500D02*
Y1541000D01*
X1038224Y1542474D01*
Y1552050D01*
X987000Y1528500D02*
X992875Y1522625D01*
X993750Y1523500D02*
X994250Y1523000D01*
X943250Y1499750D02*
X946000D01*
X957580Y1519000D02*
X957830Y1519250D01*
X967500D01*
X968830Y1528000D02*
X977580Y1519250D01*
X966476Y1528000D02*
X968830D01*
X960000Y1534476D02*
X966476Y1528000D01*
X960000Y1534476D02*
Y1536600D01*
X947500Y1519000D02*
X953500Y1525000D01*
Y1536600D01*
X932500Y1509500D02*
X942000Y1519000D01*
X930750Y1507750D02*
X932500Y1509500D01*
X1013000Y1516250D02*
X1027250Y1502000D01*
Y1500000D02*
Y1502000D01*
X918150Y1497850D02*
Y1499750D01*
X942000Y1519000D02*
X947500D01*
X930750Y1499750D02*
Y1507750D01*
X1035724Y1575550D02*
X1053224Y1593050D01*
X1059224D01*
X1035724Y1575550D02*
X1043224Y1568050D01*
Y1552050D02*
Y1568050D01*
X1023224Y1563050D02*
X1035724Y1575550D01*
X1018224Y1558050D02*
X1023224Y1563050D01*
X1012224Y1558050D02*
X1018224D01*
X1012224Y1563050D02*
X1023224D01*
X1010674Y1561500D02*
X1012224Y1563050D01*
X1001250Y1561500D02*
X1010674D01*
X987000Y1538580D02*
X988920Y1540500D01*
X1001500D01*
X975469Y1538580D02*
X987000D01*
X956750Y1550800D02*
X966500Y1541050D01*
Y1536600D02*
Y1541050D01*
X956750Y1550800D02*
X960000Y1554050D01*
Y1565000D01*
X920500Y1534518D02*
X936782Y1550800D01*
X956750D01*
X913518Y1541500D02*
X920500Y1534518D01*
X899500Y1541500D02*
X913518D01*
X899250Y1541250D02*
X899500Y1541500D01*
X872750Y1541250D02*
X878000D01*
X865000Y1549000D02*
X872750Y1541250D01*
X857500Y1549000D02*
X865000D01*
X841500Y1549250D02*
X841750Y1549000D01*
X857500D01*
Y1541700D02*
Y1549000D01*
X841500Y1536750D02*
X842500Y1535750D01*
X841500Y1536750D02*
X841500Y1536750D01*
X841500Y1536750D02*
Y1549250D01*
X827250Y1536750D02*
X841500D01*
X856250Y1531250D02*
X862580Y1537580D01*
Y1541700D01*
X852500Y1535000D02*
X856250Y1531250D01*
X852500Y1535000D02*
Y1541700D01*
X839500Y1522750D02*
X842500Y1525750D01*
X827250Y1522750D02*
X839500D01*
X842500Y1525750D02*
X850750D01*
X856250Y1531250D01*
X857250Y1595250D02*
X871750D01*
X872000Y1595000D01*
X840500Y1677050D02*
X840500Y1677049D01*
Y1575500D02*
Y1677049D01*
X840500Y1677050D02*
X852696D01*
X872000Y1620000D02*
X874500Y1617500D01*
X1084750Y1593050D02*
X1100698D01*
X1059224D02*
X1084750D01*
X1100698D02*
X1104398Y1596750D01*
X1089500Y1618500D02*
X1090250Y1617750D01*
X999500Y1574000D02*
X1000450Y1573050D01*
X1012224D01*
X996700Y1568050D02*
X1012224D01*
X994250Y1570500D02*
X996700Y1568050D01*
X1104398Y1596750D02*
Y1662750D01*
X1091398Y1649750D02*
X1104398Y1662750D01*
X1090250Y1649750D02*
X1091398D01*
X1071580Y1641750D02*
X1090250D01*
X1068250Y1633750D02*
X1090250D01*
D131*
X1081750Y1737500D02*
D03*
X1065590Y1731013D02*
D03*
X1058750Y1715000D02*
D03*
X1065237Y1698840D02*
D03*
X1081250Y1692000D02*
D03*
X1097410Y1698486D02*
D03*
X1104250Y1714500D02*
D03*
X1097764Y1730660D02*
D03*
X851750Y1737500D02*
D03*
X835590Y1731013D02*
D03*
X828750Y1715000D02*
D03*
X835236Y1698840D02*
D03*
X851250Y1692000D02*
D03*
X867410Y1698486D02*
D03*
X874250Y1714500D02*
D03*
X867764Y1730660D02*
D03*
X851750Y1507500D02*
D03*
X835590Y1501013D02*
D03*
X828750Y1485000D02*
D03*
X835236Y1468840D02*
D03*
X851250Y1462000D02*
D03*
X867410Y1468486D02*
D03*
X874250Y1484500D02*
D03*
X867764Y1500660D02*
D03*
X1097764D02*
D03*
X1104250Y1484500D02*
D03*
X1097410Y1468486D02*
D03*
X1081250Y1462000D02*
D03*
X1065237Y1468840D02*
D03*
X1058750Y1485000D02*
D03*
X1065590Y1501013D02*
D03*
X1081750Y1507500D02*
D03*
D132*
X1106000Y1586250D02*
D03*
X1103500Y1673000D02*
D03*
X840250Y1571750D02*
D03*
X843500Y1677000D02*
D03*
X1046250Y1474250D02*
D03*
X966500Y1470500D02*
D03*
X885750Y1472250D02*
D03*
D133*
X851500Y1714750D02*
D03*
X1081500D02*
D03*
X851500Y1484750D02*
D03*
X1081500D02*
D03*
D134*
X931500Y1593750D02*
D03*
X1053750Y1506750D02*
D03*
X1083250Y1609250D02*
D03*
X1058500Y1597750D02*
D03*
X1065052Y1572077D02*
D03*
X986750Y1516143D02*
D03*
X985500Y1509750D02*
D03*
X1009500Y1510250D02*
D03*
X995750Y1510000D02*
D03*
X911250Y1484000D02*
D03*
X909294Y1509324D02*
D03*
X1075250Y1561000D02*
D03*
X1066552Y1553076D02*
D03*
X1074750Y1554250D02*
D03*
X1069500Y1543500D02*
D03*
X1013500Y1552000D02*
D03*
X1083250Y1542750D02*
D03*
X878500Y1541000D02*
D03*
X937500Y1585000D02*
D03*
X934750Y1590000D02*
D03*
X945000Y1601750D02*
D03*
X966750D02*
D03*
X947000Y1572000D02*
D03*
X953500Y1572250D02*
D03*
X966500Y1571500D02*
D03*
X992274Y1597774D02*
D03*
X1016250Y1616250D02*
D03*
X1017750Y1609500D02*
D03*
X995500Y1608250D02*
D03*
X989750Y1617500D02*
D03*
X982000Y1609500D02*
D03*
X936750Y1542250D02*
D03*
X933750Y1554250D02*
D03*
X862500Y1667000D02*
D03*
X1072000Y1618500D02*
D03*
X1071500Y1625750D02*
D03*
X992250Y1552250D02*
D03*
X1040000Y1519250D02*
D03*
X1062050Y1542500D02*
D03*
X1036750Y1532500D02*
D03*
X994250Y1523000D02*
D03*
X856250Y1531250D02*
D03*
X857250Y1595250D02*
D03*
X1084750Y1593050D02*
D03*
X999500Y1574000D02*
D03*
X994250Y1570500D02*
D03*
M02*
