G04*
G04 #@! TF.GenerationSoftware,Altium Limited,Altium Designer,18.0.8 (490)*
G04*
G04 Layer_Color=128*
%FSLAX44Y44*%
%MOMM*%
G71*
G01*
G75*
%ADD81R,0.6508X0.5508*%
G04:AMPARAMS|DCode=84|XSize=0.3708mm|YSize=0.4108mm|CornerRadius=0.1054mm|HoleSize=0mm|Usage=FLASHONLY|Rotation=0.000|XOffset=0mm|YOffset=0mm|HoleType=Round|Shape=RoundedRectangle|*
%AMROUNDEDRECTD84*
21,1,0.3708,0.2000,0,0,0.0*
21,1,0.1600,0.4108,0,0,0.0*
1,1,0.2108,0.0800,-0.1000*
1,1,0.2108,-0.0800,-0.1000*
1,1,0.2108,-0.0800,0.1000*
1,1,0.2108,0.0800,0.1000*
%
%ADD84ROUNDEDRECTD84*%
%ADD131R,1.5508X1.2508*%
G04:AMPARAMS|DCode=132|XSize=0.5508mm|YSize=1.0508mm|CornerRadius=0.2754mm|HoleSize=0mm|Usage=FLASHONLY|Rotation=270.000|XOffset=0mm|YOffset=0mm|HoleType=Round|Shape=RoundedRectangle|*
%AMROUNDEDRECTD132*
21,1,0.5508,0.5000,0,0,270.0*
21,1,0.0000,1.0508,0,0,270.0*
1,1,0.5508,-0.2500,0.0000*
1,1,0.5508,-0.2500,0.0000*
1,1,0.5508,0.2500,0.0000*
1,1,0.5508,0.2500,0.0000*
%
%ADD132ROUNDEDRECTD132*%
%ADD133R,1.0508X0.5508*%
%ADD134R,1.5508X1.0508*%
%ADD137R,1.0508X2.5008*%
%ADD138R,2.5008X1.0508*%
D81*
X1055136Y1558343D02*
D03*
X1065136D02*
D03*
X1056500Y1525250D02*
D03*
X1066500Y1525250D02*
D03*
D84*
X1062050Y1537500D02*
D03*
X1056450D02*
D03*
X1062050Y1548250D02*
D03*
X1056450D02*
D03*
D131*
X827602Y1581500D02*
D03*
D132*
X841750Y1568500D02*
D03*
Y1560500D02*
D03*
Y1552500D02*
D03*
Y1544500D02*
D03*
X841750Y1536500D02*
D03*
D133*
X841750Y1528500D02*
D03*
D134*
X827602Y1515500D02*
D03*
D137*
X948250Y1493000D02*
D03*
X934250D02*
D03*
X962250D02*
D03*
X976250D02*
D03*
X990250D02*
D03*
X1018250D02*
D03*
X1004250D02*
D03*
X920250D02*
D03*
D138*
X904250Y1546000D02*
D03*
Y1532000D02*
D03*
Y1560000D02*
D03*
Y1574000D02*
D03*
Y1588000D02*
D03*
Y1616000D02*
D03*
Y1602000D02*
D03*
Y1518000D02*
D03*
X1034250D02*
D03*
Y1602000D02*
D03*
Y1616000D02*
D03*
Y1588000D02*
D03*
Y1574000D02*
D03*
Y1560000D02*
D03*
Y1532000D02*
D03*
Y1546000D02*
D03*
M02*
