G04*
G04 #@! TF.GenerationSoftware,Altium Limited,Altium Designer,18.0.8 (490)*
G04*
G04 Layer_Physical_Order=1*
G04 Layer_Color=255*
%FSLAX44Y44*%
%MOMM*%
G71*
G01*
G75*
G04:AMPARAMS|DCode=97|XSize=0.32mm|YSize=0.36mm|CornerRadius=0.08mm|HoleSize=0mm|Usage=FLASHONLY|Rotation=90.000|XOffset=0mm|YOffset=0mm|HoleType=Round|Shape=RoundedRectangle|*
%AMROUNDEDRECTD97*
21,1,0.3200,0.2000,0,0,90.0*
21,1,0.1600,0.3600,0,0,90.0*
1,1,0.1600,0.1000,0.0800*
1,1,0.1600,0.1000,-0.0800*
1,1,0.1600,-0.1000,-0.0800*
1,1,0.1600,-0.1000,0.0800*
%
%ADD97ROUNDEDRECTD97*%
G04:AMPARAMS|DCode=98|XSize=0.32mm|YSize=0.36mm|CornerRadius=0.08mm|HoleSize=0mm|Usage=FLASHONLY|Rotation=0.000|XOffset=0mm|YOffset=0mm|HoleType=Round|Shape=RoundedRectangle|*
%AMROUNDEDRECTD98*
21,1,0.3200,0.2000,0,0,0.0*
21,1,0.1600,0.3600,0,0,0.0*
1,1,0.1600,0.0800,-0.1000*
1,1,0.1600,-0.0800,-0.1000*
1,1,0.1600,-0.0800,0.1000*
1,1,0.1600,0.0800,0.1000*
%
%ADD98ROUNDEDRECTD98*%
G04:AMPARAMS|DCode=99|XSize=0.6096mm|YSize=0.9144mm|CornerRadius=0.1524mm|HoleSize=0mm|Usage=FLASHONLY|Rotation=270.000|XOffset=0mm|YOffset=0mm|HoleType=Round|Shape=RoundedRectangle|*
%AMROUNDEDRECTD99*
21,1,0.6096,0.6096,0,0,270.0*
21,1,0.3048,0.9144,0,0,270.0*
1,1,0.3048,-0.3048,-0.1524*
1,1,0.3048,-0.3048,0.1524*
1,1,0.3048,0.3048,0.1524*
1,1,0.3048,0.3048,-0.1524*
%
%ADD99ROUNDEDRECTD99*%
G04:AMPARAMS|DCode=100|XSize=0.508mm|YSize=0.6096mm|CornerRadius=0.127mm|HoleSize=0mm|Usage=FLASHONLY|Rotation=270.000|XOffset=0mm|YOffset=0mm|HoleType=Round|Shape=RoundedRectangle|*
%AMROUNDEDRECTD100*
21,1,0.5080,0.3556,0,0,270.0*
21,1,0.2540,0.6096,0,0,270.0*
1,1,0.2540,-0.1778,-0.1270*
1,1,0.2540,-0.1778,0.1270*
1,1,0.2540,0.1778,0.1270*
1,1,0.2540,0.1778,-0.1270*
%
%ADD100ROUNDEDRECTD100*%
%ADD103R,1.1000X1.4000*%
%ADD104R,0.3000X0.8500*%
G04:AMPARAMS|DCode=105|XSize=2mm|YSize=1.1mm|CornerRadius=0.275mm|HoleSize=0mm|Usage=FLASHONLY|Rotation=0.000|XOffset=0mm|YOffset=0mm|HoleType=Round|Shape=RoundedRectangle|*
%AMROUNDEDRECTD105*
21,1,2.0000,0.5500,0,0,0.0*
21,1,1.4500,1.1000,0,0,0.0*
1,1,0.5500,0.7250,-0.2750*
1,1,0.5500,-0.7250,-0.2750*
1,1,0.5500,-0.7250,0.2750*
1,1,0.5500,0.7250,0.2750*
%
%ADD105ROUNDEDRECTD105*%
G04:AMPARAMS|DCode=106|XSize=0.6096mm|YSize=1.7018mm|CornerRadius=0.3048mm|HoleSize=0mm|Usage=FLASHONLY|Rotation=0.000|XOffset=0mm|YOffset=0mm|HoleType=Round|Shape=RoundedRectangle|*
%AMROUNDEDRECTD106*
21,1,0.6096,1.0922,0,0,0.0*
21,1,0.0000,1.7018,0,0,0.0*
1,1,0.6096,0.0000,-0.5461*
1,1,0.6096,0.0000,-0.5461*
1,1,0.6096,0.0000,0.5461*
1,1,0.6096,0.0000,0.5461*
%
%ADD106ROUNDEDRECTD106*%
G04:AMPARAMS|DCode=107|XSize=2.8194mm|YSize=1.016mm|CornerRadius=0.508mm|HoleSize=0mm|Usage=FLASHONLY|Rotation=90.000|XOffset=0mm|YOffset=0mm|HoleType=Round|Shape=RoundedRectangle|*
%AMROUNDEDRECTD107*
21,1,2.8194,0.0000,0,0,90.0*
21,1,1.8034,1.0160,0,0,90.0*
1,1,1.0160,0.0000,0.9017*
1,1,1.0160,0.0000,-0.9017*
1,1,1.0160,0.0000,-0.9017*
1,1,1.0160,0.0000,0.9017*
%
%ADD107ROUNDEDRECTD107*%
%ADD108R,0.5000X0.6000*%
%ADD109R,0.6000X0.5000*%
%ADD110R,0.7500X0.6000*%
%ADD111R,0.5080X0.6096*%
%ADD112R,0.6096X0.5080*%
%ADD113R,1.4000X1.1000*%
%ADD114R,0.5080X0.5080*%
%ADD115R,0.2540X0.5588*%
%ADD116R,1.6002X0.9144*%
%ADD117R,3.4500X3.4500*%
%ADD118O,0.6000X0.3000*%
%ADD119O,0.3000X0.6000*%
%ADD120C,0.2540*%
%ADD121C,0.7600*%
%ADD122C,1.5240*%
%ADD123C,6.0000*%
%ADD124C,0.4000*%
G36*
X1114500Y1452000D02*
X1114293Y1451500D01*
X818250D01*
X817866Y1452611D01*
Y1634250D01*
X1033661Y1634250D01*
X1033738Y1632980D01*
Y1617488D01*
X1036716D01*
X1037928Y1617406D01*
X1038086Y1616613D01*
X1038535Y1615941D01*
X1045173Y1609303D01*
Y1608033D01*
X1044285Y1607145D01*
X1043836Y1606473D01*
X1043678Y1605680D01*
X1043678Y1605680D01*
Y1602475D01*
X1042408Y1602089D01*
X1042381Y1602131D01*
X1041633Y1602631D01*
X1040750Y1602806D01*
X1039867Y1602631D01*
X1039119Y1602131D01*
X1038972Y1601910D01*
X1037528D01*
X1037381Y1602131D01*
X1036632Y1602631D01*
X1035750Y1602806D01*
X1034867Y1602631D01*
X1034119Y1602131D01*
X1033972Y1601911D01*
X1032528D01*
X1032381Y1602131D01*
X1031633Y1602631D01*
X1030750Y1602806D01*
X1029867Y1602631D01*
X1029119Y1602131D01*
X1029092Y1602090D01*
X1027822Y1602475D01*
Y1609126D01*
X1027664Y1609919D01*
X1027215Y1610591D01*
X1027215Y1610591D01*
X1020091Y1617715D01*
X1019419Y1618164D01*
X1018626Y1618322D01*
X1018626Y1618322D01*
X1018121D01*
X1017328Y1618852D01*
X1016250Y1619066D01*
X1015172Y1618852D01*
X1014259Y1618241D01*
X1013648Y1617328D01*
X1013434Y1616250D01*
X1013648Y1615172D01*
X1014259Y1614259D01*
X1015172Y1613648D01*
X1016250Y1613434D01*
X1017116Y1613606D01*
X1017230Y1613508D01*
X1016945Y1612299D01*
X1016798Y1612127D01*
X1016672Y1612102D01*
X1015759Y1611491D01*
X1015148Y1610578D01*
X1015107Y1610369D01*
X1013729Y1609951D01*
X999215Y1624465D01*
X998543Y1624914D01*
X997750Y1625072D01*
X997750Y1625072D01*
X918750D01*
X917957Y1624914D01*
X917285Y1624465D01*
X917285Y1624465D01*
X883935Y1591115D01*
X883793Y1591144D01*
X882716Y1590929D01*
X881802Y1590319D01*
X881191Y1589405D01*
X881115Y1589019D01*
X879844Y1588360D01*
X879774Y1588362D01*
X878750Y1588566D01*
X877672Y1588352D01*
X876759Y1587741D01*
X876148Y1586828D01*
X875934Y1585750D01*
X876148Y1584672D01*
X876759Y1583759D01*
X877672Y1583148D01*
X878608Y1582962D01*
X881035Y1580535D01*
X881035Y1580535D01*
X880698Y1579270D01*
X880558Y1579072D01*
X862330D01*
X862330Y1579072D01*
X861537Y1578914D01*
X860865Y1578465D01*
X860865Y1578465D01*
X856327Y1573927D01*
X855878Y1573254D01*
X855720Y1572462D01*
X855720Y1572461D01*
Y1566697D01*
X855190Y1565904D01*
X854976Y1564826D01*
X855190Y1563749D01*
X855801Y1562835D01*
X856714Y1562225D01*
X857792Y1562010D01*
X858033Y1562058D01*
X858630Y1562067D01*
X859291Y1560943D01*
X859135Y1560592D01*
X858632Y1559922D01*
X855802D01*
X855468Y1559922D01*
X854218Y1559922D01*
X850468D01*
Y1558438D01*
X845350D01*
Y1558520D01*
X845192Y1559312D01*
X844743Y1559985D01*
X844071Y1560434D01*
X843278Y1560591D01*
X839722D01*
X838929Y1560434D01*
X838257Y1559985D01*
X837808Y1559312D01*
X837650Y1558520D01*
Y1555980D01*
X837808Y1555187D01*
X838257Y1554515D01*
X838929Y1554066D01*
X839722Y1553908D01*
X843278D01*
X844071Y1554066D01*
X844413Y1554294D01*
X850468D01*
Y1552810D01*
X854198D01*
X854532Y1552810D01*
X855783Y1552810D01*
X859296Y1552810D01*
X859570Y1552806D01*
X860747Y1552677D01*
X860750Y1552675D01*
X864687D01*
X864934Y1552458D01*
X865564Y1551405D01*
X865434Y1550750D01*
X865648Y1549672D01*
X866259Y1548759D01*
X867172Y1548148D01*
X868250Y1547934D01*
X869328Y1548148D01*
X870241Y1548759D01*
X870852Y1549672D01*
X870915Y1549988D01*
X885762D01*
Y1550175D01*
X932158D01*
X932667Y1549667D01*
X933250Y1549425D01*
X933833Y1549667D01*
X938083Y1553917D01*
X938325Y1554500D01*
Y1563408D01*
X942759Y1567843D01*
X942793Y1567855D01*
X944145Y1567433D01*
X944224Y1567000D01*
X944086Y1566793D01*
X943928Y1566000D01*
X944086Y1565207D01*
X944535Y1564535D01*
X944738Y1564332D01*
Y1559988D01*
X949262D01*
Y1570012D01*
X949262D01*
X949602Y1570922D01*
X949627Y1571051D01*
X950688Y1571152D01*
X950788Y1571138D01*
X951238Y1570012D01*
X951238Y1570012D01*
X951238Y1570012D01*
Y1559988D01*
X955762D01*
Y1570012D01*
X955762Y1570012D01*
X955762D01*
X955762Y1570012D01*
X956102Y1571172D01*
X956104Y1571185D01*
X956301Y1572175D01*
X963130D01*
X963684Y1571500D01*
X963898Y1570422D01*
X964238Y1569914D01*
Y1559988D01*
X968762D01*
Y1569914D01*
X969102Y1570422D01*
X969316Y1571500D01*
X969870Y1572175D01*
X973175D01*
Y1557500D01*
X973417Y1556917D01*
X982167Y1548167D01*
X982750Y1547925D01*
X993738D01*
Y1547488D01*
X1000262D01*
Y1547925D01*
X1007400D01*
X1008336Y1546658D01*
X1008336Y1546658D01*
Y1546390D01*
X1006535Y1544589D01*
X1006086Y1543917D01*
X1005928Y1543124D01*
X1005928Y1543124D01*
Y1535358D01*
X1004832Y1534262D01*
X996988D01*
Y1526738D01*
X1003128D01*
Y1524908D01*
X1002929Y1524610D01*
X1002807Y1524000D01*
Y1522000D01*
X1002929Y1521391D01*
X1003274Y1520874D01*
X1003790Y1520529D01*
X1004400Y1520408D01*
X1006000D01*
X1006609Y1520529D01*
X1007126Y1520874D01*
X1007471Y1521391D01*
X1007592Y1522000D01*
Y1524000D01*
X1007471Y1524610D01*
X1007272Y1524908D01*
Y1530842D01*
X1009465Y1533035D01*
X1009465Y1533035D01*
X1009914Y1533707D01*
X1010072Y1534500D01*
Y1535640D01*
X1010488Y1536738D01*
X1019512D01*
Y1541339D01*
X1019681Y1541509D01*
X1019681Y1541509D01*
X1019772Y1541644D01*
X1021000D01*
X1021000Y1541644D01*
X1021000Y1541644D01*
X1027218D01*
X1027391Y1541529D01*
X1028000Y1541408D01*
X1030000D01*
X1030610Y1541529D01*
X1031126Y1541874D01*
X1031472Y1542391D01*
X1031593Y1543000D01*
Y1543042D01*
X1032709Y1543666D01*
X1032988Y1542762D01*
X1032988D01*
Y1536238D01*
X1034678D01*
Y1534371D01*
X1034148Y1533578D01*
X1034035Y1533012D01*
X1028738D01*
Y1525488D01*
X1035262D01*
Y1528082D01*
X1036892Y1529712D01*
X1037827Y1529898D01*
X1038741Y1530509D01*
X1039352Y1531422D01*
X1039566Y1532500D01*
X1039352Y1533578D01*
X1038822Y1534371D01*
Y1536238D01*
X1040512D01*
Y1542762D01*
X1037918D01*
X1037322Y1543358D01*
Y1545250D01*
X1037322Y1545250D01*
X1037164Y1546043D01*
X1036715Y1546715D01*
X1036715Y1546715D01*
X1033035Y1550395D01*
X1033056Y1550500D01*
Y1553500D01*
X1032881Y1554383D01*
X1032381Y1555131D01*
X1031633Y1555631D01*
X1030750Y1555807D01*
X1029867Y1555631D01*
X1029119Y1555131D01*
X1028972Y1554911D01*
X1027528D01*
X1027381Y1555131D01*
X1026633Y1555631D01*
X1025750Y1555807D01*
X1024868Y1555631D01*
X1024119Y1555131D01*
X1023972Y1554911D01*
X1022528D01*
X1022381Y1555131D01*
X1021633Y1555631D01*
X1020750Y1555807D01*
X1019867Y1555631D01*
X1019119Y1555131D01*
X1018972Y1554911D01*
X1017528D01*
X1017381Y1555131D01*
X1016633Y1555631D01*
X1015750Y1555807D01*
X1014868Y1555631D01*
X1014119Y1555131D01*
X1013972Y1554911D01*
X1012528D01*
X1012381Y1555131D01*
X1011633Y1555631D01*
X1011398Y1555678D01*
X1011333Y1555833D01*
X1010045Y1557121D01*
X1010002Y1557139D01*
X1009980Y1557180D01*
X1009716Y1557258D01*
X1009462Y1557363D01*
X1009419Y1557345D01*
X1009374Y1557358D01*
X1007793Y1557190D01*
X1007618Y1557094D01*
X1007423Y1557055D01*
X1006811Y1556647D01*
X1006169Y1556519D01*
X1003331D01*
X1002689Y1556647D01*
X1002214Y1556964D01*
X1001965Y1557336D01*
X1001813Y1557438D01*
X1001704Y1557585D01*
X1000686Y1558195D01*
X1000467Y1558228D01*
X1000262Y1558313D01*
X994563D01*
Y1562974D01*
X994715Y1564239D01*
X994846Y1564361D01*
X995011Y1564429D01*
X995036Y1564489D01*
X995131Y1564626D01*
X995177Y1564669D01*
X995208Y1564735D01*
X995385Y1564988D01*
X996221Y1565225D01*
X997299Y1565010D01*
X998376Y1565225D01*
X999169Y1565755D01*
X1002945D01*
X1003250Y1565694D01*
X1006250D01*
X1007133Y1565869D01*
X1007881Y1566369D01*
X1008381Y1567118D01*
X1008556Y1568000D01*
X1008381Y1568883D01*
X1007881Y1569631D01*
X1007661Y1569778D01*
Y1571222D01*
X1007881Y1571369D01*
X1008381Y1572117D01*
X1008556Y1573000D01*
X1008381Y1573883D01*
X1007881Y1574631D01*
X1007660Y1574778D01*
Y1576222D01*
X1007881Y1576369D01*
X1008381Y1577118D01*
X1008556Y1578000D01*
X1008381Y1578883D01*
X1007881Y1579631D01*
X1007661Y1579778D01*
Y1581222D01*
X1007881Y1581369D01*
X1008381Y1582117D01*
X1008556Y1583000D01*
X1008381Y1583883D01*
X1007881Y1584631D01*
X1007660Y1584778D01*
Y1586222D01*
X1007881Y1586369D01*
X1008381Y1587118D01*
X1008556Y1588000D01*
X1008381Y1588883D01*
X1007881Y1589631D01*
X1007661Y1589778D01*
Y1591222D01*
X1007881Y1591369D01*
X1008381Y1592117D01*
X1008556Y1593000D01*
X1008381Y1593883D01*
X1007881Y1594631D01*
X1007133Y1595131D01*
X1006250Y1595306D01*
X1003250D01*
X1002367Y1595131D01*
X1001619Y1594631D01*
X1001119Y1593883D01*
X1000944Y1593000D01*
X1001119Y1592117D01*
X1001619Y1591369D01*
X1001200Y1590122D01*
X993808D01*
X990237Y1593693D01*
X990625Y1595101D01*
X991116Y1595226D01*
X991196Y1595172D01*
X992274Y1594958D01*
X993352Y1595172D01*
X994265Y1595783D01*
X994876Y1596696D01*
X995090Y1597774D01*
X994876Y1598852D01*
X994265Y1599765D01*
X993352Y1600376D01*
X992274Y1600590D01*
X991196Y1600376D01*
X990320Y1599790D01*
X986766D01*
X986240Y1601060D01*
X991358Y1606178D01*
X993629D01*
X994422Y1605648D01*
X995500Y1605434D01*
X996578Y1605648D01*
X997491Y1606259D01*
X998102Y1607172D01*
X998316Y1608250D01*
X998102Y1609328D01*
X997491Y1610241D01*
X996578Y1610852D01*
X995500Y1611066D01*
X994422Y1610852D01*
X993629Y1610322D01*
X990500D01*
X989707Y1610164D01*
X989035Y1609715D01*
X989035Y1609715D01*
X983142Y1603822D01*
X968621D01*
X967828Y1604352D01*
X966750Y1604566D01*
X965672Y1604352D01*
X964759Y1603741D01*
X964148Y1602828D01*
X963934Y1601750D01*
X964071Y1601060D01*
X963327Y1599790D01*
X949890D01*
X947788Y1601892D01*
X947602Y1602828D01*
X946991Y1603741D01*
X946078Y1604352D01*
X945000Y1604566D01*
X943922Y1604352D01*
X943009Y1603741D01*
X942398Y1602828D01*
X942184Y1601750D01*
X942398Y1600672D01*
X943009Y1599759D01*
X943922Y1599148D01*
X944858Y1598962D01*
X946159Y1597661D01*
X945673Y1596488D01*
X932166D01*
X932166Y1596488D01*
X932030Y1596461D01*
X931500Y1596566D01*
X930422Y1596352D01*
X929509Y1595741D01*
X928898Y1594828D01*
X928684Y1593750D01*
X928898Y1592672D01*
X929509Y1591759D01*
X930422Y1591148D01*
X931015Y1591030D01*
X931934Y1590000D01*
X932148Y1588922D01*
X932759Y1588009D01*
X933672Y1587398D01*
X934185Y1587296D01*
X934856Y1586149D01*
X934875Y1585963D01*
X934684Y1585000D01*
X934335Y1584575D01*
X926000D01*
X925417Y1584333D01*
X906326Y1565243D01*
X906285Y1565215D01*
X906285Y1565215D01*
X904645Y1563575D01*
X865411D01*
X865371Y1563558D01*
X865330Y1563571D01*
X865199Y1563501D01*
X864678Y1563792D01*
X864181Y1564221D01*
X864114Y1564319D01*
Y1569928D01*
X886500D01*
X886500Y1569928D01*
X887293Y1570086D01*
X887965Y1570535D01*
X926358Y1608928D01*
X947379D01*
X948172Y1608398D01*
X949250Y1608184D01*
X950328Y1608398D01*
X951241Y1609009D01*
X951852Y1609922D01*
X951877Y1610047D01*
X952632Y1611082D01*
X953298Y1611178D01*
X953379D01*
X954172Y1610648D01*
X955250Y1610434D01*
X956328Y1610648D01*
X957241Y1611259D01*
X957852Y1612172D01*
X958066Y1613250D01*
X957852Y1614328D01*
X957408Y1614992D01*
X957702Y1615886D01*
X957970Y1616262D01*
X995058D01*
X1008678Y1602641D01*
Y1601471D01*
X1008619Y1601383D01*
X1008444Y1600500D01*
Y1597500D01*
X1008619Y1596617D01*
X1009119Y1595869D01*
X1009867Y1595369D01*
X1010750Y1595194D01*
X1011633Y1595369D01*
X1012381Y1595869D01*
X1012528Y1596089D01*
X1013972D01*
X1014119Y1595869D01*
X1014867Y1595369D01*
X1015750Y1595194D01*
X1016632Y1595369D01*
X1017381Y1595869D01*
X1017528Y1596090D01*
X1018972D01*
X1019119Y1595869D01*
X1019867Y1595369D01*
X1020750Y1595194D01*
X1021633Y1595369D01*
X1022381Y1595869D01*
X1022528Y1596090D01*
X1023972D01*
X1024119Y1595869D01*
X1024868Y1595369D01*
X1025750Y1595194D01*
X1026633Y1595369D01*
X1027381Y1595869D01*
X1027528Y1596089D01*
X1028972D01*
X1029119Y1595869D01*
X1029867Y1595369D01*
X1030750Y1595194D01*
X1031633Y1595369D01*
X1032381Y1595869D01*
X1032528Y1596089D01*
X1033972D01*
X1034119Y1595869D01*
X1034867Y1595369D01*
X1035750Y1595194D01*
X1036632Y1595369D01*
X1037381Y1595869D01*
X1037528Y1596090D01*
X1038972D01*
X1039119Y1595869D01*
X1039867Y1595369D01*
X1040750Y1595194D01*
X1041633Y1595369D01*
X1042381Y1595869D01*
X1042528Y1596090D01*
X1043972D01*
X1044119Y1595869D01*
X1044868Y1595369D01*
X1045750Y1595194D01*
X1046633Y1595369D01*
X1047381Y1595869D01*
X1047881Y1596617D01*
X1048056Y1597500D01*
Y1600500D01*
X1047881Y1601383D01*
X1047822Y1601471D01*
Y1604822D01*
X1048880Y1605880D01*
X1049816Y1606066D01*
X1050729Y1606676D01*
X1051340Y1607590D01*
X1051554Y1608668D01*
X1051340Y1609745D01*
X1050729Y1610659D01*
X1049816Y1611270D01*
X1048880Y1611456D01*
X1044021Y1616315D01*
X1044507Y1617488D01*
X1046262D01*
Y1632980D01*
X1046262Y1633012D01*
X1046340Y1634250D01*
X1114500D01*
Y1452000D01*
D02*
G37*
G36*
X995386Y1570614D02*
X995307Y1569818D01*
X994697Y1568904D01*
X994483Y1567827D01*
X994697Y1566749D01*
X995009Y1566282D01*
X994427Y1565012D01*
X993738D01*
Y1557488D01*
X1000262D01*
X1001280Y1556878D01*
X1001619Y1556369D01*
X1002367Y1555870D01*
X1003250Y1555694D01*
X1006250D01*
X1007133Y1555870D01*
X1007881Y1556369D01*
X1009462Y1556538D01*
X1010750Y1555250D01*
Y1549040D01*
X1010718D01*
X1009925Y1548882D01*
X1009727Y1548750D01*
X982750D01*
X974000Y1557500D01*
Y1573000D01*
X968820D01*
X968491Y1573491D01*
X967578Y1574102D01*
X966500Y1574316D01*
X965422Y1574102D01*
X964509Y1573491D01*
X964180Y1573000D01*
X956167D01*
X956102Y1573327D01*
X955491Y1574241D01*
X954577Y1574852D01*
X953500Y1575066D01*
X952422Y1574852D01*
X951508Y1574241D01*
X950898Y1573327D01*
X950833Y1573000D01*
X949617D01*
X949602Y1573078D01*
X948991Y1573991D01*
X948078Y1574602D01*
X947000Y1574816D01*
X945922Y1574602D01*
X945009Y1573991D01*
X944398Y1573078D01*
X944184Y1572000D01*
X944398Y1570922D01*
X944508Y1570758D01*
X937500Y1563750D01*
Y1554500D01*
X933250Y1550250D01*
X932500Y1551000D01*
X868500D01*
X866000Y1553500D01*
X860750D01*
X860620Y1558293D01*
X861864Y1559296D01*
X862042Y1559260D01*
X863120Y1559474D01*
X864033Y1560085D01*
X864644Y1560999D01*
X864858Y1562076D01*
X865411Y1562750D01*
X905000D01*
X926000Y1583750D01*
X935013D01*
X935509Y1583009D01*
X936422Y1582398D01*
X937500Y1582184D01*
X938578Y1582398D01*
X939491Y1583009D01*
X939987Y1583750D01*
X982250D01*
X995386Y1570614D01*
D02*
G37*
%LPC*%
G36*
X864612Y1545256D02*
X860548D01*
Y1541900D01*
X860508Y1541700D01*
Y1540075D01*
X859532D01*
X858949Y1539833D01*
X858707Y1539250D01*
Y1538969D01*
X856293D01*
Y1539250D01*
X856051Y1539833D01*
X855468Y1540075D01*
X854572D01*
Y1541700D01*
X854532Y1541900D01*
Y1545256D01*
X850468D01*
Y1541900D01*
X850428Y1541700D01*
Y1540045D01*
X849917Y1539833D01*
X845917Y1535833D01*
X845675Y1535250D01*
Y1531825D01*
X823750D01*
X823167Y1531583D01*
X822167Y1530583D01*
X821925Y1530000D01*
Y1524545D01*
X821871Y1524274D01*
Y1521226D01*
X821925Y1520955D01*
Y1517500D01*
X822167Y1516917D01*
X822750Y1516675D01*
X861158D01*
X868147Y1509686D01*
X868240Y1509648D01*
X868299Y1509566D01*
X869151Y1509044D01*
X872734Y1505984D01*
X875795Y1502401D01*
X876316Y1501549D01*
X876398Y1501490D01*
X876436Y1501397D01*
X887917Y1489917D01*
X888500Y1489675D01*
X897788D01*
X897974Y1489752D01*
X898173Y1489770D01*
X898236Y1489847D01*
X898258Y1489870D01*
X898372Y1489917D01*
X899078Y1490109D01*
X899762Y1490117D01*
X902135Y1487744D01*
X902135Y1487744D01*
X902807Y1487295D01*
X903600Y1487137D01*
X913683D01*
X919680Y1481140D01*
X919680Y1481140D01*
X920352Y1480691D01*
X921145Y1480533D01*
X921145Y1480533D01*
X948089D01*
X948089Y1480533D01*
X948882Y1480691D01*
X949554Y1481140D01*
X955843Y1487428D01*
X977361D01*
X983649Y1481140D01*
X983649Y1481140D01*
X984321Y1480691D01*
X985114Y1480533D01*
X1016159D01*
X1025012Y1471680D01*
X1025198Y1470744D01*
X1025809Y1469830D01*
X1026722Y1469220D01*
X1027800Y1469006D01*
X1028878Y1469220D01*
X1029791Y1469830D01*
X1030402Y1470744D01*
X1030616Y1471822D01*
X1030402Y1472899D01*
X1029791Y1473813D01*
X1028878Y1474424D01*
X1027942Y1474610D01*
X1018482Y1484070D01*
X1017810Y1484519D01*
X1017017Y1484677D01*
X1017017Y1484677D01*
X998266D01*
X997780Y1485850D01*
X1002345Y1490415D01*
X1002400Y1490404D01*
X1003886Y1490700D01*
X1005147Y1491542D01*
X1005989Y1492802D01*
X1006285Y1494289D01*
Y1505211D01*
X1005989Y1506698D01*
X1005147Y1507958D01*
X1004222Y1508576D01*
Y1509302D01*
X1004222Y1509302D01*
X1004064Y1510095D01*
X1003615Y1510767D01*
X1003615Y1510767D01*
X1001377Y1513005D01*
X1001863Y1514178D01*
X1008581D01*
X1008706Y1512908D01*
X1008422Y1512852D01*
X1007509Y1512241D01*
X1006898Y1511328D01*
X1006684Y1510250D01*
X1006898Y1509172D01*
X1007509Y1508259D01*
X1008422Y1507648D01*
X1009358Y1507462D01*
X1011197Y1505623D01*
X1011115Y1505211D01*
Y1494289D01*
X1011411Y1492802D01*
X1012253Y1491542D01*
X1013513Y1490700D01*
X1015000Y1490404D01*
X1016486Y1490700D01*
X1017747Y1491542D01*
X1018589Y1492802D01*
X1018885Y1494289D01*
Y1505211D01*
X1018778Y1505746D01*
X1019949Y1506371D01*
X1023615Y1502704D01*
Y1494289D01*
X1023911Y1492802D01*
X1024753Y1491542D01*
X1026014Y1490700D01*
X1027500Y1490404D01*
X1028987Y1490700D01*
X1030247Y1491542D01*
X1031089Y1492802D01*
X1031385Y1494289D01*
Y1505211D01*
X1031089Y1506698D01*
X1030247Y1507958D01*
X1028987Y1508800D01*
X1027500Y1509096D01*
X1026014Y1508800D01*
X1024753Y1507958D01*
X1024270Y1507910D01*
X1014465Y1517715D01*
X1013793Y1518164D01*
X1013000Y1518322D01*
X1013000Y1518322D01*
X1000730D01*
X996898Y1522154D01*
X997066Y1523000D01*
X996852Y1524078D01*
X996241Y1524991D01*
X995328Y1525602D01*
X994250Y1525816D01*
X993172Y1525602D01*
X992966Y1525464D01*
X990810Y1527620D01*
Y1531802D01*
X983190D01*
Y1525198D01*
X987372D01*
X989053Y1523517D01*
X988527Y1522247D01*
X980882D01*
Y1523060D01*
X976700D01*
X970295Y1529465D01*
X969623Y1529914D01*
X968830Y1530072D01*
X968830Y1530072D01*
X967334D01*
X962262Y1535144D01*
Y1541612D01*
X957738D01*
Y1531588D01*
X959958D01*
X965011Y1526535D01*
X965683Y1526086D01*
X966476Y1525928D01*
X966476Y1525928D01*
X967972D01*
X969570Y1524330D01*
X969044Y1523060D01*
X964198D01*
Y1521322D01*
X960882D01*
Y1522810D01*
X955991D01*
X955329Y1524080D01*
X955414Y1524207D01*
X955572Y1525000D01*
X955572Y1525000D01*
Y1531588D01*
X955762D01*
Y1541612D01*
X951238D01*
Y1531588D01*
X951428D01*
Y1525858D01*
X948380Y1522810D01*
X944198D01*
Y1521072D01*
X942000D01*
X942000Y1521072D01*
X941207Y1520914D01*
X940535Y1520465D01*
X940535Y1520465D01*
X929285Y1509215D01*
X928836Y1508543D01*
X928829Y1508510D01*
X928003Y1507958D01*
X927161Y1506698D01*
X926865Y1505211D01*
Y1494289D01*
X926972Y1493754D01*
X925801Y1493129D01*
X922035Y1496895D01*
Y1505211D01*
X921739Y1506698D01*
X920897Y1507958D01*
X919637Y1508800D01*
X918150Y1509096D01*
X916664Y1508800D01*
X915403Y1507958D01*
X914561Y1506698D01*
X914265Y1505211D01*
Y1494289D01*
X914561Y1492802D01*
X914751Y1492519D01*
X914715Y1492310D01*
X914050Y1491281D01*
X909804D01*
X909125Y1492551D01*
X909293Y1492802D01*
X909589Y1494289D01*
Y1505211D01*
X909505Y1505634D01*
X910210Y1506690D01*
X910372Y1506722D01*
X911286Y1507332D01*
X911896Y1508246D01*
X912111Y1509324D01*
X911896Y1510401D01*
X911286Y1511315D01*
X910372Y1511925D01*
X909294Y1512140D01*
X908217Y1511925D01*
X907303Y1511315D01*
X907143Y1511075D01*
X888592D01*
X866075Y1533592D01*
Y1539250D01*
X865833Y1539833D01*
X865250Y1540075D01*
X864652D01*
Y1541700D01*
X864612Y1541900D01*
Y1545256D01*
D02*
G37*
G36*
X1053250Y1590307D02*
X1050250D01*
X1049368Y1590131D01*
X1048619Y1589631D01*
X1048119Y1588883D01*
X1047944Y1588000D01*
X1048119Y1587118D01*
X1048619Y1586369D01*
X1048840Y1586222D01*
Y1584778D01*
X1048619Y1584631D01*
X1048119Y1583883D01*
X1047944Y1583000D01*
X1048119Y1582117D01*
X1048619Y1581369D01*
X1048839Y1581222D01*
X1048839Y1579778D01*
X1048619Y1579631D01*
X1048119Y1578883D01*
X1047943Y1578000D01*
X1048119Y1577118D01*
X1048619Y1576369D01*
X1048839Y1576222D01*
X1048840Y1574778D01*
X1048619Y1574631D01*
X1048119Y1573883D01*
X1047944Y1573000D01*
X1048119Y1572117D01*
X1048619Y1571369D01*
X1048840Y1571222D01*
Y1569778D01*
X1048619Y1569631D01*
X1048119Y1568882D01*
X1047944Y1568000D01*
X1048119Y1567117D01*
X1048619Y1566369D01*
X1048839Y1566222D01*
Y1564778D01*
X1048619Y1564631D01*
X1048119Y1563883D01*
X1047944Y1563000D01*
X1048119Y1562117D01*
X1048619Y1561369D01*
X1048840Y1561222D01*
Y1559778D01*
X1048619Y1559631D01*
X1048119Y1558882D01*
X1047944Y1558000D01*
X1048119Y1557117D01*
X1048619Y1556369D01*
X1049368Y1555869D01*
X1050250Y1555694D01*
X1053250D01*
X1054133Y1555869D01*
X1054296Y1555978D01*
X1062965D01*
X1063644Y1554708D01*
X1063253Y1554122D01*
X1050250D01*
X1050250Y1554122D01*
X1049999Y1554072D01*
X1047943D01*
X1047881Y1554383D01*
X1047381Y1555131D01*
X1046633Y1555631D01*
X1045750Y1555807D01*
X1044868Y1555631D01*
X1044119Y1555131D01*
X1043972Y1554911D01*
X1042528D01*
X1042381Y1555131D01*
X1041633Y1555631D01*
X1040750Y1555807D01*
X1039867Y1555631D01*
X1039119Y1555131D01*
X1038619Y1554383D01*
X1038444Y1553500D01*
Y1550500D01*
X1038619Y1549618D01*
X1038678Y1549530D01*
Y1548250D01*
X1038678Y1548250D01*
X1038836Y1547457D01*
X1039285Y1546785D01*
X1043009Y1543061D01*
X1043681Y1542612D01*
X1044474Y1542454D01*
X1044474Y1542454D01*
X1052195D01*
X1052195Y1542454D01*
X1052988Y1542612D01*
X1053660Y1543061D01*
X1057275Y1546676D01*
X1074950D01*
X1074950Y1546676D01*
X1075743Y1546834D01*
X1076415Y1547283D01*
X1080747Y1551615D01*
X1080747Y1551615D01*
X1081196Y1552287D01*
X1081354Y1553080D01*
Y1562670D01*
X1081196Y1563463D01*
X1080965Y1563809D01*
X1081951Y1564619D01*
X1086428Y1560142D01*
Y1539108D01*
X1080392Y1533072D01*
X1078000D01*
X1078000Y1533072D01*
X1077207Y1532914D01*
X1076535Y1532465D01*
X1053608Y1509538D01*
X1052672Y1509352D01*
X1051759Y1508741D01*
X1051148Y1507828D01*
X1050934Y1506750D01*
X1051148Y1505672D01*
X1051759Y1504759D01*
X1052672Y1504148D01*
X1053750Y1503934D01*
X1054828Y1504148D01*
X1055741Y1504759D01*
X1056352Y1505672D01*
X1056538Y1506608D01*
X1078858Y1528928D01*
X1081250D01*
X1081250Y1528928D01*
X1082043Y1529086D01*
X1082715Y1529535D01*
X1089965Y1536785D01*
X1089965Y1536785D01*
X1090414Y1537457D01*
X1090572Y1538250D01*
Y1561000D01*
X1090572Y1561000D01*
X1090414Y1561793D01*
X1089965Y1562465D01*
X1089965Y1562465D01*
X1070965Y1581465D01*
X1070293Y1581914D01*
X1069500Y1582072D01*
X1069500Y1582072D01*
X1062103D01*
X1055403Y1588772D01*
X1055381Y1588883D01*
X1054881Y1589631D01*
X1054133Y1590131D01*
X1053250Y1590307D01*
D02*
G37*
G36*
X936750Y1545066D02*
X935672Y1544852D01*
X934759Y1544241D01*
X934148Y1543328D01*
X933934Y1542250D01*
X934148Y1541172D01*
X934759Y1540259D01*
X935672Y1539648D01*
X936608Y1539462D01*
X940935Y1535135D01*
X940935Y1535135D01*
X941607Y1534686D01*
X942400Y1534528D01*
X944738D01*
Y1531588D01*
X949262D01*
Y1541612D01*
X944738D01*
Y1538672D01*
X943258D01*
X939538Y1542392D01*
X939352Y1543328D01*
X938741Y1544241D01*
X937828Y1544852D01*
X936750Y1545066D01*
D02*
G37*
G36*
X1067052Y1544391D02*
X1065974Y1544177D01*
X1065061Y1543566D01*
X1064450Y1542653D01*
X1064236Y1541575D01*
X1064379Y1540857D01*
X1042285Y1518763D01*
X1041836Y1518091D01*
X1041678Y1517298D01*
X1041678Y1517298D01*
Y1494621D01*
X1041148Y1493828D01*
X1040934Y1492750D01*
X1041148Y1491672D01*
X1041759Y1490759D01*
X1042672Y1490148D01*
X1043750Y1489934D01*
X1044828Y1490148D01*
X1045741Y1490759D01*
X1046352Y1491672D01*
X1046566Y1492750D01*
X1046352Y1493828D01*
X1045822Y1494621D01*
Y1516440D01*
X1068517Y1539135D01*
X1068517Y1539135D01*
X1068634Y1539311D01*
X1069043Y1539584D01*
X1069654Y1540498D01*
X1069868Y1541575D01*
X1069654Y1542653D01*
X1069043Y1543566D01*
X1068130Y1544177D01*
X1067052Y1544391D01*
D02*
G37*
%LPD*%
G36*
X865250Y1533250D02*
X888250Y1510250D01*
X907750D01*
Y1491281D01*
X904458D01*
X901866Y1493873D01*
Y1501203D01*
X902396Y1501996D01*
X902610Y1503073D01*
X902396Y1504151D01*
X901785Y1505065D01*
X900872Y1505675D01*
X899794Y1505889D01*
X898716Y1505675D01*
X897803Y1505065D01*
X897192Y1504151D01*
X896978Y1503073D01*
X897192Y1501996D01*
X897722Y1501203D01*
Y1493015D01*
X897722Y1493015D01*
X897880Y1492222D01*
X898182Y1491770D01*
X897788Y1490500D01*
X888500D01*
X877020Y1501980D01*
X876464Y1502887D01*
X873319Y1506569D01*
X869637Y1509714D01*
X868730Y1510269D01*
X861500Y1517500D01*
X822750D01*
Y1530000D01*
X823750Y1531000D01*
X846500D01*
Y1535250D01*
X850500Y1539250D01*
X855468D01*
Y1538144D01*
X859532D01*
Y1539250D01*
X865250D01*
Y1533250D01*
D02*
G37*
D97*
X1029000Y1543800D02*
D03*
X1029000Y1538200D02*
D03*
D98*
X1010800Y1523000D02*
D03*
X1005200Y1523000D02*
D03*
D99*
X899500Y1541500D02*
D03*
Y1555500D02*
D03*
X827250Y1536750D02*
D03*
Y1522750D02*
D03*
D100*
X841500Y1557250D02*
D03*
Y1549250D02*
D03*
D103*
X1040000Y1625250D02*
D03*
X1025000D02*
D03*
D104*
X966500Y1565000D02*
D03*
X960000Y1565000D02*
D03*
X953500Y1565000D02*
D03*
X947000D02*
D03*
X966500Y1536600D02*
D03*
X960000D02*
D03*
X953500D02*
D03*
X947000D02*
D03*
D105*
X956750Y1550800D02*
D03*
D106*
X943250Y1499750D02*
D03*
X930750D02*
D03*
X918150D02*
D03*
X905704D02*
D03*
X1027500Y1499750D02*
D03*
X1015000D02*
D03*
X1002400D02*
D03*
X989954D02*
D03*
D107*
X962750Y1468250D02*
D03*
X886146D02*
D03*
X1047000Y1468250D02*
D03*
X970396D02*
D03*
D108*
X1032000Y1529250D02*
D03*
Y1519250D02*
D03*
X997000Y1561250D02*
D03*
Y1551250D02*
D03*
X842500Y1535750D02*
D03*
Y1525750D02*
D03*
D109*
X1046750Y1539500D02*
D03*
X1036750D02*
D03*
D110*
X1015000Y1540500D02*
D03*
X1015000Y1530500D02*
D03*
X1001500Y1540500D02*
D03*
X1001500Y1530500D02*
D03*
D111*
X947500Y1519000D02*
D03*
X957580Y1519000D02*
D03*
X967500Y1519250D02*
D03*
X977580D02*
D03*
D112*
X987000Y1528500D02*
D03*
Y1538580D02*
D03*
D113*
X878000Y1541250D02*
D03*
X878000Y1556250D02*
D03*
D114*
X857500Y1549000D02*
D03*
D115*
X852500Y1556366D02*
D03*
X857500Y1556366D02*
D03*
X862580D02*
D03*
Y1541700D02*
D03*
X857500Y1541700D02*
D03*
X852500Y1541700D02*
D03*
D116*
X920500Y1534518D02*
D03*
Y1563750D02*
D03*
D117*
X1028250Y1575500D02*
D03*
D118*
X1004750Y1558000D02*
D03*
Y1563000D02*
D03*
Y1568000D02*
D03*
Y1573000D02*
D03*
Y1578000D02*
D03*
Y1583000D02*
D03*
Y1588000D02*
D03*
Y1593000D02*
D03*
X1051750D02*
D03*
Y1588000D02*
D03*
Y1583000D02*
D03*
X1051750Y1578000D02*
D03*
X1051750Y1573000D02*
D03*
Y1568000D02*
D03*
Y1563000D02*
D03*
Y1558000D02*
D03*
D119*
X1010750Y1599000D02*
D03*
X1015750D02*
D03*
X1020750D02*
D03*
X1025750D02*
D03*
X1030750D02*
D03*
X1035750D02*
D03*
X1040750D02*
D03*
X1045750D02*
D03*
Y1552000D02*
D03*
X1040750D02*
D03*
X1035750D02*
D03*
X1030750D02*
D03*
X1025750D02*
D03*
X1020750D02*
D03*
X1015750D02*
D03*
X1010750D02*
D03*
D120*
X1005200Y1523000D02*
Y1531700D01*
X1014282Y1550532D02*
X1015750Y1552000D01*
X1014282Y1549037D02*
Y1550532D01*
X1012213Y1546968D02*
X1014282Y1549037D01*
X1010718Y1546968D02*
X1012213D01*
X1010408Y1546658D02*
X1010718Y1546968D01*
X1010408Y1545532D02*
Y1546658D01*
X1008000Y1543124D02*
X1010408Y1545532D01*
X1008000Y1534500D02*
Y1543124D01*
X1005200Y1531700D02*
X1008000Y1534500D01*
X978219Y1489500D02*
X985114Y1482605D01*
X954984Y1489500D02*
X978219D01*
X948089Y1482605D02*
X954984Y1489500D01*
X1002150Y1493150D02*
Y1509302D01*
X978639Y1493750D02*
X986482Y1485907D01*
X954565Y1493750D02*
X978639D01*
X946722Y1485907D02*
X954565Y1493750D01*
X1014750Y1496500D02*
Y1505000D01*
X979059Y1498000D02*
X987850Y1489209D01*
X954145Y1498000D02*
X979059D01*
X945354Y1489209D02*
X954145Y1498000D01*
X868250Y1556366D02*
X877885D01*
X862580D02*
X868250D01*
Y1550750D02*
Y1556366D01*
X872048Y1541250D02*
X878000D01*
X864298Y1549000D02*
X872048Y1541250D01*
X857500Y1549000D02*
X864298D01*
X999500Y1572827D02*
X1001173D01*
X1001500Y1572500D02*
X1002000Y1573000D01*
X1001173Y1572827D02*
X1001500Y1572500D01*
X997299Y1567827D02*
X1004549D01*
X1004973Y1568250D01*
X992950Y1588050D02*
X1004750D01*
X991950Y1583050D02*
X1004750D01*
X991950Y1578050D02*
X1004750D01*
X1050200Y1552000D02*
X1050250Y1552050D01*
X1045750Y1552000D02*
X1050200D01*
X1044474Y1544526D02*
X1052195D01*
X1040750Y1548250D02*
X1044474Y1544526D01*
X1040750Y1548250D02*
Y1552000D01*
X1021000Y1543716D02*
X1028916D01*
X1018216D02*
X1021000D01*
X1020750Y1543966D02*
X1021000Y1543716D01*
X1020750Y1543966D02*
Y1552000D01*
X1023224Y1563050D02*
X1031962Y1571788D01*
X1039718Y1475532D02*
X1046750Y1468500D01*
X960000Y1554050D02*
X975469Y1538580D01*
X878500Y1541250D02*
X899250D01*
X969896Y1468250D02*
X970146Y1468500D01*
X962750Y1468250D02*
X969896D01*
X1036750Y1532500D02*
Y1541000D01*
X1032000Y1527750D02*
X1036750Y1532500D01*
X993000Y1551500D02*
X997000D01*
X990218Y1554282D02*
X992250Y1552250D01*
X1035250Y1542500D02*
Y1545250D01*
X1030750Y1549750D02*
X1035250Y1545250D01*
X1030750Y1549750D02*
Y1552000D01*
X1051750Y1558000D02*
X1051800Y1558050D01*
Y1563050D02*
X1071776D01*
X1051750Y1563000D02*
X1051800Y1563050D01*
X1069500Y1580000D02*
X1088500Y1561000D01*
X1061245Y1580000D02*
X1069500D01*
X1053245Y1588000D02*
X1061245Y1580000D01*
X1051750Y1588000D02*
X1053245D01*
X1045750Y1605680D02*
X1048738Y1608668D01*
X1045750Y1599000D02*
Y1605680D01*
X1025750Y1599000D02*
Y1609126D01*
X1018626Y1616250D02*
X1025750Y1609126D01*
X946000Y1566000D02*
X947000Y1567000D01*
X1020191Y1607059D02*
X1020750D01*
X1017750Y1609500D02*
X1020191Y1607059D01*
X1020750Y1599000D02*
Y1607059D01*
X883793Y1588043D02*
X918750Y1623000D01*
X1015750Y1599000D02*
Y1605000D01*
X997750Y1623000D02*
X1015750Y1605000D01*
X1010750Y1599000D02*
Y1603500D01*
X1050250Y1552050D02*
X1065527D01*
X899794Y1493015D02*
Y1503073D01*
Y1493015D02*
X903600Y1489209D01*
X914541D01*
X921145Y1482605D01*
X904656Y1501456D02*
Y1504796D01*
X903926Y1500726D02*
X904656Y1501456D01*
X903926Y1499750D02*
Y1500726D01*
Y1499750D02*
X905704D01*
X911202Y1484000D02*
X911250D01*
X921145Y1482605D02*
X948089D01*
X941146Y1489209D02*
X945354D01*
X930750Y1499605D02*
X941146Y1489209D01*
X918150Y1497850D02*
X930093Y1485907D01*
X946722D01*
X1013000Y1516250D02*
X1027250Y1502000D01*
X999872Y1516250D02*
X1013000D01*
X1009500Y1510250D02*
X1014750Y1505000D01*
X993997Y1522125D02*
X999872Y1516250D01*
X1027250Y1500000D02*
Y1502000D01*
X978505Y1520175D02*
X989075D01*
X995218Y1514032D01*
X997420D01*
X1002150Y1509302D01*
X986750Y1515036D02*
Y1516143D01*
X986482Y1485907D02*
X994907D01*
X987850Y1489209D02*
X992058D01*
X856250Y1531250D02*
X862580Y1537580D01*
X985114Y1482605D02*
X1017017D01*
X1027800Y1471822D01*
X992058Y1489209D02*
X995750Y1492901D01*
X989704Y1500000D02*
Y1512082D01*
X986750Y1515036D02*
X989704Y1512082D01*
X995750Y1492901D02*
Y1510000D01*
X994907Y1485907D02*
X1002150Y1493150D01*
X1043750Y1492750D02*
Y1517298D01*
X1039718Y1518968D02*
X1040000Y1519250D01*
X1043750Y1517298D02*
X1067052Y1540600D01*
Y1541575D01*
X952702Y1613250D02*
X955250D01*
X950920Y1615032D02*
X952702Y1613250D01*
X924862Y1615032D02*
X950920D01*
X886830Y1577000D02*
X924862Y1615032D01*
X995916Y1618334D02*
X1010750Y1603500D01*
X922334Y1618334D02*
X995916D01*
X886000Y1582000D02*
X922334Y1618334D01*
X862330Y1577000D02*
X886830D01*
X886500Y1572000D02*
X925500Y1611000D01*
X857792Y1572462D02*
X862330Y1577000D01*
X857792Y1564826D02*
Y1572462D01*
X841750Y1549000D02*
X857500D01*
X841500Y1549250D02*
X841750Y1549000D01*
X842384Y1556366D02*
X852500D01*
X862042Y1562076D02*
Y1571958D01*
X862000Y1572000D02*
X862042Y1571958D01*
X862000Y1572000D02*
X886500D01*
X925500Y1611000D02*
X949250D01*
X878750Y1585750D02*
X882500Y1582000D01*
X886000D01*
X883793Y1588043D02*
Y1588327D01*
X918750Y1623000D02*
X997750D01*
X1040000Y1617406D02*
Y1625250D01*
Y1617406D02*
X1048738Y1608668D01*
X1016250Y1616250D02*
X1018626D01*
X1088500Y1538250D02*
Y1561000D01*
X1051800Y1558050D02*
X1070950D01*
X1035250Y1542500D02*
X1036750Y1541000D01*
X1018216Y1542974D02*
Y1543716D01*
X1016282Y1541039D02*
X1018216Y1542974D01*
X1015539Y1541039D02*
X1016282D01*
X1015000Y1540500D02*
X1015539Y1541039D01*
X931500Y1593750D02*
X932166Y1594416D01*
X986584D01*
X992950Y1588050D01*
X1078000Y1531000D02*
X1081250D01*
X1053750Y1506750D02*
X1078000Y1531000D01*
X1081250D02*
X1088500Y1538250D01*
X1056417Y1548748D02*
X1074950D01*
X1079282Y1553080D01*
Y1562670D01*
X1069875Y1572077D02*
X1079282Y1562670D01*
X1065052Y1572077D02*
X1069875D01*
X977580Y1519250D02*
X978505Y1520175D01*
X956000Y1509750D02*
X985500D01*
X903006Y1507500D02*
X905000D01*
X909294Y1509324D01*
X878176D02*
X903006Y1507500D01*
X946000Y1499750D02*
X956000Y1509750D01*
X993375Y1522125D02*
X993997D01*
X930750Y1499605D02*
Y1499750D01*
X856250Y1531250D02*
X878176Y1509324D01*
X1073826Y1561000D02*
X1075250D01*
X1071776Y1563050D02*
X1073826Y1561000D01*
X1070950Y1558050D02*
X1074750Y1554250D01*
X1065527Y1552050D02*
X1066552Y1553076D01*
X1052195Y1544526D02*
X1056417Y1548748D01*
X841500Y1557250D02*
X842384Y1556366D01*
X937500Y1585000D02*
X938750Y1586250D01*
X983750D01*
X991950Y1578050D01*
X934750Y1590000D02*
X985000D01*
X991950Y1583050D01*
X992218Y1597718D02*
X992274Y1597774D01*
X949032Y1597718D02*
X992218D01*
X945000Y1601750D02*
X949032Y1597718D01*
X984000Y1601750D02*
X990500Y1608250D01*
X966750Y1601750D02*
X984000D01*
X983000Y1577250D02*
X990218Y1570032D01*
X940500Y1577250D02*
X983000D01*
X927000Y1563750D02*
X940500Y1577250D01*
X947000Y1567000D02*
Y1572000D01*
X953500Y1565000D02*
Y1572250D01*
X966500Y1565000D02*
Y1571500D01*
X946000Y1566000D02*
X947000Y1565000D01*
X990500Y1608250D02*
X995500D01*
X924250Y1563750D02*
X927000D01*
X920500D02*
X924250D01*
X990218Y1554282D02*
Y1570032D01*
X942400Y1536600D02*
X947000D01*
X936750Y1542250D02*
X942400Y1536600D01*
X924250Y1563750D02*
X933750Y1554250D01*
X877885Y1556366D02*
X878000Y1556250D01*
X898749D02*
X899500Y1555500D01*
X878000Y1556250D02*
X898749D01*
X899500Y1555500D02*
X907750Y1563750D01*
X920500D01*
X992250Y1552250D02*
X993000Y1551500D01*
X1014262Y1530500D02*
X1015000D01*
X1028916Y1543716D02*
X1029000Y1543800D01*
X961500Y1467000D02*
X962750Y1468250D01*
X886146D02*
X887396Y1467000D01*
X987000Y1528500D02*
X992875Y1522625D01*
X993750Y1523500D02*
X994250Y1523000D01*
X943250Y1499750D02*
X946000D01*
X957580Y1519000D02*
X957830Y1519250D01*
X967500D01*
X968830Y1528000D02*
X977580Y1519250D01*
X966476Y1528000D02*
X968830D01*
X960000Y1534476D02*
X966476Y1528000D01*
X960000Y1534476D02*
Y1536600D01*
X947500Y1519000D02*
X953500Y1525000D01*
Y1536600D01*
X930750Y1507750D02*
X942000Y1519000D01*
X918150Y1497850D02*
Y1499750D01*
X942000Y1519000D02*
X947500D01*
X930750Y1499750D02*
Y1507750D01*
X987000Y1538580D02*
X988920Y1540500D01*
X1001500D01*
X975469Y1538580D02*
X987000D01*
X956750Y1550800D02*
X966500Y1541050D01*
Y1536600D02*
Y1541050D01*
X956750Y1550800D02*
X960000Y1554050D01*
Y1565000D01*
X920500Y1534518D02*
X936782Y1550800D01*
X956750D01*
X913518Y1541500D02*
X920500Y1534518D01*
X899500Y1541500D02*
X913518D01*
X899250Y1541250D02*
X899500Y1541500D01*
X857500Y1541700D02*
Y1549000D01*
X841500Y1536750D02*
X842500Y1535750D01*
X841500Y1536750D02*
X841500Y1536750D01*
X841500Y1536750D02*
Y1549250D01*
X827250Y1536750D02*
X841500D01*
X862580Y1537580D02*
Y1541700D01*
X852500Y1535000D02*
X856250Y1531250D01*
X852500Y1535000D02*
Y1541700D01*
X839500Y1522750D02*
X842500Y1525750D01*
X827250Y1522750D02*
X839500D01*
X842500Y1525750D02*
X850750D01*
X856250Y1531250D01*
D121*
X1097764Y1630910D02*
D03*
X1104250Y1614750D02*
D03*
X1097410Y1598737D02*
D03*
X1081250Y1592250D02*
D03*
X1065237Y1599090D02*
D03*
X1058750Y1615250D02*
D03*
X1065590Y1631263D02*
D03*
X1081750Y1637750D02*
D03*
X867764Y1630910D02*
D03*
X874250Y1614750D02*
D03*
X867410Y1598737D02*
D03*
X851250Y1592250D02*
D03*
X835236Y1599090D02*
D03*
X828750Y1615250D02*
D03*
X835590Y1631263D02*
D03*
X851750Y1637750D02*
D03*
Y1507500D02*
D03*
X835590Y1501013D02*
D03*
X828750Y1485000D02*
D03*
X835236Y1468840D02*
D03*
X851250Y1462000D02*
D03*
X867410Y1468486D02*
D03*
X874250Y1484500D02*
D03*
X867764Y1500660D02*
D03*
X1097764D02*
D03*
X1104250Y1484500D02*
D03*
X1097410Y1468486D02*
D03*
X1081250Y1462000D02*
D03*
X1065237Y1468840D02*
D03*
X1058750Y1485000D02*
D03*
X1065590Y1501013D02*
D03*
X1081750Y1507500D02*
D03*
D122*
X1046250Y1474250D02*
D03*
X966500Y1470500D02*
D03*
X885750Y1472250D02*
D03*
D123*
X851500Y1615000D02*
D03*
X1081500D02*
D03*
X851500Y1484750D02*
D03*
X1081500D02*
D03*
D124*
X868250Y1550750D02*
D03*
X999500Y1572827D02*
D03*
X997299Y1567827D02*
D03*
X899794Y1503073D02*
D03*
X911250Y1484000D02*
D03*
X1009500Y1510250D02*
D03*
X986750Y1516143D02*
D03*
X1027800Y1471822D02*
D03*
X1043750Y1492750D02*
D03*
X1067052Y1541575D02*
D03*
X955250Y1613250D02*
D03*
X857792Y1564826D02*
D03*
X862042Y1562076D02*
D03*
X949250Y1611000D02*
D03*
X878750Y1585750D02*
D03*
X883793Y1588327D02*
D03*
X1048738Y1608668D02*
D03*
X931500Y1593750D02*
D03*
X1053750Y1506750D02*
D03*
X1065052Y1572077D02*
D03*
X985500Y1509750D02*
D03*
X995750Y1510000D02*
D03*
X909294Y1509324D02*
D03*
X1075250Y1561000D02*
D03*
X1066552Y1553076D02*
D03*
X1074750Y1554250D02*
D03*
X878500Y1541000D02*
D03*
X937500Y1585000D02*
D03*
X934750Y1590000D02*
D03*
X945000Y1601750D02*
D03*
X966750D02*
D03*
X947000Y1572000D02*
D03*
X953500Y1572250D02*
D03*
X966500Y1571500D02*
D03*
X992274Y1597774D02*
D03*
X1016250Y1616250D02*
D03*
X1017750Y1609500D02*
D03*
X995500Y1608250D02*
D03*
X936750Y1542250D02*
D03*
X933750Y1554250D02*
D03*
X992250Y1552250D02*
D03*
X1040000Y1519250D02*
D03*
X1062050Y1542500D02*
D03*
X1036750Y1532500D02*
D03*
X994250Y1523000D02*
D03*
M02*
