G04*
G04 #@! TF.GenerationSoftware,Altium Limited,Altium Designer,18.0.8 (490)*
G04*
G04 Layer_Color=128*
%FSLAX44Y44*%
%MOMM*%
G71*
G01*
G75*
%ADD80R,0.6508X0.5508*%
G04:AMPARAMS|DCode=83|XSize=0.3708mm|YSize=0.4108mm|CornerRadius=0.1054mm|HoleSize=0mm|Usage=FLASHONLY|Rotation=0.000|XOffset=0mm|YOffset=0mm|HoleType=Round|Shape=RoundedRectangle|*
%AMROUNDEDRECTD83*
21,1,0.3708,0.2000,0,0,0.0*
21,1,0.1600,0.4108,0,0,0.0*
1,1,0.2108,0.0800,-0.1000*
1,1,0.2108,-0.0800,-0.1000*
1,1,0.2108,-0.0800,0.1000*
1,1,0.2108,0.0800,0.1000*
%
%ADD83ROUNDEDRECTD83*%
%ADD91R,1.4508X1.1508*%
%ADD139R,1.0508X2.5008*%
%ADD140R,2.5008X1.0508*%
D80*
X1055136Y1558343D02*
D03*
X1065136D02*
D03*
X1056500Y1525250D02*
D03*
X1066500Y1525250D02*
D03*
D83*
X1062050Y1537500D02*
D03*
X1056450D02*
D03*
X1062050Y1548250D02*
D03*
X1056450D02*
D03*
D91*
X1072000Y1595500D02*
D03*
Y1580500D02*
D03*
D139*
X948250Y1493000D02*
D03*
X934250D02*
D03*
X962250D02*
D03*
X976250D02*
D03*
X990250D02*
D03*
X1018250D02*
D03*
X1004250D02*
D03*
X920250D02*
D03*
D140*
X904250Y1546000D02*
D03*
Y1532000D02*
D03*
Y1560000D02*
D03*
Y1574000D02*
D03*
Y1588000D02*
D03*
Y1616000D02*
D03*
Y1602000D02*
D03*
Y1518000D02*
D03*
X1034250D02*
D03*
Y1602000D02*
D03*
Y1616000D02*
D03*
Y1588000D02*
D03*
Y1574000D02*
D03*
Y1560000D02*
D03*
Y1532000D02*
D03*
Y1546000D02*
D03*
M02*
