M48
;Layer_Color=9474304
;FILE_FORMAT=4:4
METRIC,LZ
;TYPE=PLATED
T1F00S00C0.2000
T2F00S00C0.7620
T3F00S00C3.0000
%
T01
X0091125Y01484
X00909294Y01509324
X00899794Y01503073
X008785Y01541
X0086825Y0155075
X00862042Y01562076
X00857792Y01564826
X0087875Y0158575
X009375Y01585
X00947Y01572
X009535Y0157225
X009665Y015715
X009995Y01572827
X00997299Y01567827
X0099225Y0155225
X0099425Y01523
X0098675Y01516143
X009855Y0150975
X0099575Y0151
X010095Y0151025
X0104Y0151925
X0103675Y015325
X0106205Y015425
X01067052Y01541575
X01066552Y01553076
X0107475Y0155425
X0107525Y01561
X01065052Y01572077
X0105375Y0150675
X0104375Y0149275
X010278Y01471822
X0093675Y0154225
X0093375Y0155425
X0093475Y0159
X009315Y0159375
X00945Y0160175
X0094925Y01611
X0095525Y0161325
X0096675Y0160175
X00992274Y01597774
X009955Y0160825
X0101775Y016095
X0101625Y0161625
X01048738Y01608668
X00883793Y01588327
T02
X00835236Y0146884
X0082875Y01485
X0083559Y01501013
X0085175Y015075
X00867764Y0150066
X0087425Y014845
X0086741Y01468486
X0088575Y0147225
X0085125Y01462
X009665Y014705
X0104625Y0147425
X0105875Y01485
X01065237Y0146884
X0108125Y01462
X0109741Y01468486
X0110425Y014845
X01097764Y0150066
X0108175Y015075
X0106559Y01501013
X01065237Y0159909
X0105875Y0161525
X0106559Y01631263
X0108175Y0163775
X01097764Y0163091
X0110425Y0161475
X0109741Y01598737
X0108125Y0159225
X0086741Y01598737
X0085125Y0159225
X00835236Y0159909
X0082875Y0161525
X0083559Y01631263
X0085175Y0163775
X00867764Y0163091
X0087425Y0161475
T03
X008515Y0148475
X010815
Y01615
X008515
M30
