G04*
G04 #@! TF.GenerationSoftware,Altium Limited,Altium Designer,18.0.8 (490)*
G04*
G04 Layer_Physical_Order=2*
G04 Layer_Color=16711680*
%FSLAX44Y44*%
%MOMM*%
G71*
G01*
G75*
G04:AMPARAMS|DCode=98|XSize=0.32mm|YSize=0.36mm|CornerRadius=0.08mm|HoleSize=0mm|Usage=FLASHONLY|Rotation=0.000|XOffset=0mm|YOffset=0mm|HoleType=Round|Shape=RoundedRectangle|*
%AMROUNDEDRECTD98*
21,1,0.3200,0.2000,0,0,0.0*
21,1,0.1600,0.3600,0,0,0.0*
1,1,0.1600,0.0800,-0.1000*
1,1,0.1600,-0.0800,-0.1000*
1,1,0.1600,-0.0800,0.1000*
1,1,0.1600,0.0800,0.1000*
%
%ADD98ROUNDEDRECTD98*%
%ADD109R,0.6000X0.5000*%
%ADD120C,0.2540*%
%ADD121C,0.7600*%
%ADD122C,1.5240*%
%ADD123C,6.0000*%
%ADD124C,0.4000*%
%ADD125R,1.5000X1.2000*%
G04:AMPARAMS|DCode=126|XSize=0.5mm|YSize=1mm|CornerRadius=0.25mm|HoleSize=0mm|Usage=FLASHONLY|Rotation=270.000|XOffset=0mm|YOffset=0mm|HoleType=Round|Shape=RoundedRectangle|*
%AMROUNDEDRECTD126*
21,1,0.5000,0.5000,0,0,270.0*
21,1,0.0000,1.0000,0,0,270.0*
1,1,0.5000,-0.2500,0.0000*
1,1,0.5000,-0.2500,0.0000*
1,1,0.5000,0.2500,0.0000*
1,1,0.5000,0.2500,0.0000*
%
%ADD126ROUNDEDRECTD126*%
%ADD127R,1.0000X0.5000*%
%ADD128R,1.5000X1.0000*%
%ADD129R,1.0000X2.4500*%
%ADD130R,2.4500X1.0000*%
G36*
X1114500Y1452000D02*
X1114293Y1451500D01*
X818250D01*
X817866Y1452611D01*
Y1635750D01*
X887634D01*
X888034Y1634784D01*
X889000Y1634384D01*
X1049250D01*
X1050216Y1634784D01*
X1050616Y1635750D01*
X1114500D01*
Y1452000D01*
D02*
G37*
%LPC*%
G36*
X1047262Y1621762D02*
X1021238D01*
Y1611537D01*
X1019968Y1611152D01*
X1019741Y1611491D01*
X1018828Y1612102D01*
X1018072Y1612252D01*
X1017415Y1612888D01*
X1017185Y1613499D01*
X1017310Y1613645D01*
X1017328Y1613648D01*
X1018241Y1614259D01*
X1018852Y1615172D01*
X1019066Y1616250D01*
X1018852Y1617328D01*
X1018241Y1618241D01*
X1017328Y1618852D01*
X1016250Y1619066D01*
X1015172Y1618852D01*
X1014259Y1618241D01*
X1013648Y1617328D01*
X1013462Y1616392D01*
X1011424Y1614354D01*
X993830D01*
X993830Y1614354D01*
X993037Y1614196D01*
X992365Y1613747D01*
X990003Y1611385D01*
X989554Y1610713D01*
X989396Y1609920D01*
X989396Y1609920D01*
Y1606580D01*
X989396Y1606580D01*
X989554Y1605787D01*
X990003Y1605115D01*
X990202Y1604916D01*
Y1599645D01*
X989672Y1598852D01*
X989458Y1597774D01*
X989672Y1596696D01*
X990283Y1595783D01*
X991196Y1595172D01*
X992274Y1594958D01*
X993352Y1595172D01*
X994265Y1595783D01*
X994876Y1596696D01*
X995090Y1597774D01*
X994876Y1598852D01*
X994346Y1599645D01*
Y1604369D01*
X995500Y1605434D01*
X996578Y1605648D01*
X997371Y1606178D01*
X1016500D01*
X1016500Y1606178D01*
X1017293Y1606336D01*
X1017841Y1606702D01*
X1018828Y1606898D01*
X1019741Y1607509D01*
X1020352Y1608422D01*
X1020519Y1609265D01*
X1020807Y1609655D01*
X1021714Y1610238D01*
X1045054D01*
X1045982Y1608968D01*
X1045922Y1608668D01*
X1046136Y1607590D01*
X1046666Y1606797D01*
Y1598012D01*
X1046666Y1598012D01*
X1046824Y1597219D01*
X1047273Y1596547D01*
X1054175Y1589645D01*
Y1587414D01*
X1053002Y1586928D01*
X1050465Y1589465D01*
X1049793Y1589914D01*
X1049000Y1590072D01*
X1049000Y1590072D01*
X1047262D01*
Y1593762D01*
X1021238D01*
Y1582238D01*
X1047262D01*
Y1585012D01*
X1048532Y1585538D01*
X1054644Y1579426D01*
X1054593Y1578510D01*
X1054417Y1577994D01*
X1054354Y1577842D01*
X1054238Y1577726D01*
Y1577562D01*
X1054175Y1577411D01*
Y1569357D01*
X1047262D01*
Y1579762D01*
X1021238D01*
Y1569357D01*
X1006301D01*
X1005981Y1569734D01*
X1005499Y1570627D01*
X1005604Y1571157D01*
X1005604Y1571157D01*
Y1575340D01*
X1005604Y1575340D01*
X1005446Y1576133D01*
X1004997Y1576805D01*
X967087Y1614715D01*
X966415Y1615164D01*
X965622Y1615322D01*
X965622Y1615322D01*
X957121D01*
X956328Y1615852D01*
X955250Y1616066D01*
X954172Y1615852D01*
X953259Y1615241D01*
X952648Y1614328D01*
X952471Y1613437D01*
X951848Y1613143D01*
X951193Y1613024D01*
X950328Y1613602D01*
X949250Y1613816D01*
X948172Y1613602D01*
X947259Y1612991D01*
X946648Y1612078D01*
X946434Y1611000D01*
X946648Y1609922D01*
X947259Y1609009D01*
X948172Y1608398D01*
X949108Y1608212D01*
X949567Y1607753D01*
X950239Y1607304D01*
X951032Y1607146D01*
X951032Y1607146D01*
X964126D01*
X965715Y1605557D01*
X965344Y1604132D01*
X964759Y1603741D01*
X964148Y1602828D01*
X963934Y1601750D01*
X964148Y1600672D01*
X964428Y1600253D01*
Y1573371D01*
X963898Y1572578D01*
X963684Y1571500D01*
X963898Y1570422D01*
X964509Y1569509D01*
X965422Y1568898D01*
X966500Y1568684D01*
X967578Y1568898D01*
X968491Y1569509D01*
X969102Y1570422D01*
X969316Y1571500D01*
X969102Y1572578D01*
X968572Y1573371D01*
Y1599646D01*
X968741Y1599759D01*
X969132Y1600344D01*
X970557Y1600715D01*
X997086Y1574186D01*
X996898Y1573904D01*
X996684Y1572827D01*
X996898Y1571749D01*
X996250Y1570434D01*
X996221Y1570428D01*
X995307Y1569818D01*
X994486Y1569116D01*
X994230Y1569222D01*
X994230Y1569222D01*
X993984Y1569353D01*
X993943Y1569341D01*
X993903Y1569357D01*
X987596D01*
X987593Y1569356D01*
X987590Y1569357D01*
X987301Y1569235D01*
X987013Y1569115D01*
X987012Y1569113D01*
X987009Y1569111D01*
X986117Y1568207D01*
X986116Y1568204D01*
X986113Y1568203D01*
X985997Y1567913D01*
X985879Y1567623D01*
X985881Y1567620D01*
X985879Y1567617D01*
X986175Y1546021D01*
X986298Y1545735D01*
X986417Y1545449D01*
X1007166Y1524700D01*
X1007750Y1524458D01*
X1052738Y1524458D01*
Y1521988D01*
X1053636D01*
X1054162Y1520718D01*
X1038791Y1505348D01*
X1038552Y1505300D01*
X1037879Y1504851D01*
X1028100Y1495072D01*
X1024012D01*
Y1506012D01*
X1012488D01*
Y1480790D01*
X1010012D01*
Y1506012D01*
X998488D01*
Y1479988D01*
X1002178D01*
Y1478718D01*
X1002336Y1477925D01*
X1002785Y1477253D01*
X1003457Y1476804D01*
X1004250Y1476646D01*
X1022100D01*
X1022586Y1475473D01*
X1018185Y1471072D01*
X978650D01*
X978650Y1471072D01*
X977857Y1470914D01*
X977185Y1470465D01*
X977185Y1470465D01*
X969640Y1462920D01*
X963360D01*
X955815Y1470465D01*
X955143Y1470914D01*
X954350Y1471072D01*
X954350Y1471072D01*
X917858D01*
X906322Y1482608D01*
Y1503500D01*
X907592Y1504198D01*
X907648Y1504175D01*
X914488Y1504175D01*
X915071Y1504417D01*
X915313Y1505000D01*
Y1505187D01*
X917512D01*
X918095Y1505429D01*
X918342Y1505675D01*
X928488D01*
Y1479988D01*
X940012D01*
Y1505675D01*
X942488D01*
Y1479988D01*
X954012D01*
Y1505675D01*
X956488D01*
Y1479988D01*
X968012D01*
Y1505675D01*
X970488D01*
Y1479988D01*
X982012D01*
Y1506012D01*
X982012Y1506012D01*
X982012D01*
X982503Y1507087D01*
X983205Y1507789D01*
X983509Y1507759D01*
X984324Y1507214D01*
X984481Y1506060D01*
X984488Y1505939D01*
X984488Y1505840D01*
Y1479988D01*
X996012D01*
X996012Y1505941D01*
X996012Y1506012D01*
X996087Y1507251D01*
X996828Y1507398D01*
X997741Y1508009D01*
X997855Y1508178D01*
X1007629D01*
X1008422Y1507648D01*
X1009500Y1507434D01*
X1010578Y1507648D01*
X1011491Y1508259D01*
X1012102Y1509172D01*
X1012316Y1510250D01*
X1012102Y1511328D01*
X1011491Y1512241D01*
X1010578Y1512852D01*
X1009500Y1513066D01*
X1008422Y1512852D01*
X1007629Y1512322D01*
X997247D01*
X996828Y1512602D01*
X995750Y1512816D01*
X994672Y1512602D01*
X993759Y1511991D01*
X993148Y1511078D01*
X992934Y1510000D01*
X993148Y1508922D01*
X993759Y1508009D01*
X994672Y1507398D01*
X995258Y1507282D01*
X995135Y1506030D01*
X994771Y1506012D01*
X994742Y1506012D01*
X986989D01*
X986848Y1506402D01*
X986778Y1507282D01*
X987491Y1507759D01*
X987804Y1508227D01*
X987891Y1508285D01*
X995715Y1516109D01*
X995715Y1516109D01*
X996164Y1516781D01*
X996322Y1517574D01*
Y1521129D01*
X996852Y1521922D01*
X997066Y1523000D01*
X996852Y1524078D01*
X996241Y1524991D01*
X995328Y1525602D01*
X994250Y1525816D01*
X993172Y1525602D01*
X992259Y1524991D01*
X991648Y1524078D01*
X991510Y1523384D01*
X991092Y1522801D01*
X990273Y1522325D01*
X965842Y1522325D01*
X958325Y1529842D01*
Y1574336D01*
X958322Y1574343D01*
X958325Y1574350D01*
X958202Y1574633D01*
X958083Y1574919D01*
X958076Y1574922D01*
X958073Y1574929D01*
X957160Y1575812D01*
X957152Y1575815D01*
X957149Y1575822D01*
X956860Y1575930D01*
X956572Y1576043D01*
X956565Y1576040D01*
X956558Y1576043D01*
X950342Y1575828D01*
X949107Y1576863D01*
X949074Y1576953D01*
X949072Y1576964D01*
Y1580500D01*
X949072Y1580500D01*
X948914Y1581293D01*
X948465Y1581965D01*
X948465Y1581965D01*
X947072Y1583358D01*
Y1599879D01*
X947602Y1600672D01*
X947816Y1601750D01*
X947602Y1602828D01*
X946991Y1603741D01*
X946078Y1604352D01*
X945000Y1604566D01*
X943922Y1604352D01*
X943009Y1603741D01*
X942398Y1602828D01*
X942184Y1601750D01*
X942398Y1600672D01*
X942928Y1599879D01*
Y1582500D01*
X942928Y1582500D01*
X943086Y1581707D01*
X943535Y1581035D01*
X944928Y1579642D01*
Y1573871D01*
X944398Y1573078D01*
X944184Y1572000D01*
X944398Y1570922D01*
X945009Y1570009D01*
X945922Y1569398D01*
X947000Y1569184D01*
X947925Y1568425D01*
X947925Y1542592D01*
X919158Y1513825D01*
X917262D01*
Y1523762D01*
X891238D01*
Y1512238D01*
X902178D01*
Y1506329D01*
X900908Y1505650D01*
X900872Y1505675D01*
X899794Y1505889D01*
X898716Y1505675D01*
X898562Y1505572D01*
X890358D01*
X888072Y1507858D01*
Y1580392D01*
X890305Y1582625D01*
X891238Y1582238D01*
Y1582238D01*
X917262D01*
Y1593762D01*
X891238D01*
Y1589418D01*
X887799Y1585979D01*
X886395Y1586371D01*
X886237Y1587014D01*
X886395Y1587250D01*
X886609Y1588327D01*
X886395Y1589405D01*
X885784Y1590319D01*
X884871Y1590929D01*
X883793Y1591144D01*
X882716Y1590929D01*
X881802Y1590319D01*
X881191Y1589405D01*
X881115Y1589019D01*
X879840Y1588358D01*
X879787Y1588360D01*
X878750Y1588566D01*
X877672Y1588352D01*
X876759Y1587741D01*
X876148Y1586828D01*
X875962Y1585892D01*
X865311Y1575241D01*
X855329D01*
X855329Y1575241D01*
X854536Y1575084D01*
X853864Y1574635D01*
X853864Y1574635D01*
X845269Y1566040D01*
X842666D01*
X841873Y1565882D01*
X841201Y1565433D01*
X840752Y1564761D01*
X840594Y1563968D01*
Y1563826D01*
X839250D01*
X837977Y1563573D01*
X836898Y1562852D01*
X836178Y1561773D01*
X835924Y1560500D01*
X836178Y1559227D01*
X836898Y1558148D01*
X837977Y1557427D01*
X839250Y1557174D01*
X842345D01*
X843024Y1556270D01*
X842746Y1555826D01*
X839250D01*
X837977Y1555573D01*
X836898Y1554852D01*
X836178Y1553773D01*
X835924Y1552500D01*
X836178Y1551227D01*
X836898Y1550148D01*
X837977Y1549427D01*
X839250Y1549174D01*
X844250D01*
X845523Y1549427D01*
X846602Y1550148D01*
X846803Y1550449D01*
X847491Y1550586D01*
X848163Y1551035D01*
X848612Y1551707D01*
X848770Y1552500D01*
Y1555680D01*
X853549Y1560460D01*
X853998Y1561132D01*
X854132Y1561803D01*
X854491Y1562048D01*
X855426Y1562393D01*
X855720Y1562158D01*
Y1553150D01*
X849142Y1546572D01*
X846789D01*
X846602Y1546852D01*
X845523Y1547573D01*
X844250Y1547826D01*
X839250D01*
X837977Y1547573D01*
X836898Y1546852D01*
X836178Y1545773D01*
X835924Y1544500D01*
X836178Y1543227D01*
X836898Y1542148D01*
X837977Y1541427D01*
X839250Y1541174D01*
X844250D01*
X845523Y1541427D01*
X846602Y1542148D01*
X846789Y1542428D01*
X850000D01*
X850000Y1542428D01*
X850793Y1542586D01*
X851465Y1543035D01*
X858700Y1550270D01*
X859970Y1549744D01*
Y1548400D01*
X850142Y1538572D01*
X846788D01*
X846601Y1538852D01*
X845523Y1539573D01*
X844250Y1539826D01*
X839250D01*
X837977Y1539573D01*
X836898Y1538852D01*
X836177Y1537773D01*
X835924Y1536500D01*
X836177Y1535227D01*
X836898Y1534148D01*
X837977Y1533427D01*
X839250Y1533174D01*
X844250D01*
X845523Y1533427D01*
X846601Y1534148D01*
X846788Y1534428D01*
X851000D01*
X851000Y1534428D01*
X851793Y1534586D01*
X852465Y1535035D01*
X863507Y1546077D01*
X863956Y1546749D01*
X864114Y1547542D01*
X864114Y1547542D01*
Y1560205D01*
X864644Y1560999D01*
X864858Y1562076D01*
X864644Y1563154D01*
X864033Y1564068D01*
X863120Y1564678D01*
X862042Y1564892D01*
X861801Y1564844D01*
X861469Y1564839D01*
X861062Y1565580D01*
X861774Y1566787D01*
X867560D01*
X867561Y1566786D01*
X868353Y1566944D01*
X869025Y1567393D01*
X882658Y1581026D01*
X883928Y1580500D01*
Y1507000D01*
X883928Y1507000D01*
X884086Y1506207D01*
X884535Y1505535D01*
X888035Y1502035D01*
X888035Y1502035D01*
X888707Y1501586D01*
X889500Y1501428D01*
X889500Y1501428D01*
X897571D01*
X897803Y1501082D01*
X898716Y1500472D01*
X899794Y1500257D01*
X900872Y1500472D01*
X900908Y1500496D01*
X902178Y1499817D01*
Y1481750D01*
X902178Y1481750D01*
X902336Y1480957D01*
X902785Y1480285D01*
X915535Y1467535D01*
X915535Y1467535D01*
X916207Y1467086D01*
X917000Y1466928D01*
X953492D01*
X961037Y1459383D01*
X961037Y1459383D01*
X961709Y1458934D01*
X962502Y1458776D01*
X962502Y1458776D01*
X970498D01*
X970498Y1458776D01*
X971291Y1458934D01*
X971963Y1459383D01*
X979508Y1466928D01*
X1019043D01*
X1019044Y1466928D01*
X1019836Y1467086D01*
X1020509Y1467535D01*
X1023873Y1470899D01*
X1024428Y1470834D01*
X1025325Y1470555D01*
X1025809Y1469830D01*
X1026722Y1469220D01*
X1027800Y1469006D01*
X1028878Y1469220D01*
X1029791Y1469830D01*
X1030402Y1470744D01*
X1030616Y1471822D01*
X1030425Y1472782D01*
X1039267Y1481624D01*
X1039267Y1481624D01*
X1039716Y1482296D01*
X1039874Y1483089D01*
X1039874Y1483089D01*
Y1485944D01*
X1043892Y1489962D01*
X1044828Y1490148D01*
X1045741Y1490759D01*
X1046352Y1491672D01*
X1046566Y1492750D01*
X1046352Y1493828D01*
X1045741Y1494741D01*
X1045558Y1494864D01*
X1045343Y1496445D01*
X1052984Y1504086D01*
X1053750Y1503934D01*
X1054828Y1504148D01*
X1055741Y1504759D01*
X1056352Y1505672D01*
X1056566Y1506750D01*
X1056352Y1507828D01*
X1055741Y1508741D01*
X1055156Y1509132D01*
X1054784Y1510557D01*
X1058938Y1514710D01*
X1071076D01*
X1071076Y1514710D01*
X1071869Y1514868D01*
X1072541Y1515317D01*
X1078299Y1521075D01*
X1078299Y1521075D01*
X1078748Y1521747D01*
X1078906Y1522540D01*
Y1552166D01*
X1078906Y1552166D01*
X1078748Y1552959D01*
X1078299Y1553631D01*
X1077538Y1554392D01*
X1077352Y1555328D01*
X1076741Y1556241D01*
X1075828Y1556852D01*
X1075683Y1557304D01*
X1076328Y1558398D01*
X1076328Y1558398D01*
X1077241Y1559009D01*
X1077852Y1559922D01*
X1078066Y1561000D01*
X1077852Y1562078D01*
X1077241Y1562991D01*
X1076328Y1563602D01*
X1075250Y1563816D01*
X1074172Y1563602D01*
X1074095Y1563550D01*
X1072825Y1564229D01*
X1072825Y1585645D01*
X1072738Y1585853D01*
X1072727Y1585928D01*
Y1585969D01*
X1072719Y1585977D01*
X1072703Y1586075D01*
X1072622Y1586135D01*
X1072583Y1586228D01*
X1072386Y1586310D01*
X1072280Y1586415D01*
X1067867Y1588243D01*
X1063849Y1590705D01*
X1060266Y1593766D01*
X1057205Y1597349D01*
X1056926Y1597806D01*
X1056755Y1597929D01*
X1056625Y1598094D01*
X1056509Y1598108D01*
X1056415Y1598177D01*
X1056207Y1598144D01*
X1055998Y1598168D01*
X1054776Y1597824D01*
X1054611Y1597694D01*
X1054417Y1597613D01*
X1054372Y1597505D01*
X1054280Y1597433D01*
X1054256Y1597224D01*
X1054255Y1597222D01*
X1053002Y1596678D01*
X1050810Y1598870D01*
Y1606797D01*
X1051340Y1607590D01*
X1051554Y1608668D01*
X1051340Y1609745D01*
X1050729Y1610659D01*
X1049816Y1611270D01*
X1048738Y1611484D01*
X1048532Y1611443D01*
X1047262Y1612415D01*
Y1621762D01*
D02*
G37*
G36*
X931500Y1596566D02*
X930422Y1596352D01*
X929509Y1595741D01*
X928898Y1594828D01*
X928712Y1593892D01*
X923535Y1588715D01*
X923086Y1588043D01*
X922928Y1587250D01*
X922928Y1587250D01*
Y1569358D01*
X918436Y1564866D01*
X917262Y1565352D01*
Y1565762D01*
X891238D01*
Y1554238D01*
X914055D01*
X914541Y1553065D01*
X913238Y1551762D01*
X891238D01*
Y1540238D01*
X917262D01*
Y1549926D01*
X925255Y1557919D01*
X926428Y1557433D01*
Y1542608D01*
X918532Y1534712D01*
X917262Y1535238D01*
Y1537762D01*
X891238D01*
Y1526238D01*
X917262D01*
Y1529928D01*
X918750D01*
X918750Y1529928D01*
X919543Y1530086D01*
X920215Y1530535D01*
X929965Y1540285D01*
X929965Y1540285D01*
X930414Y1540957D01*
X930572Y1541750D01*
X930572Y1541750D01*
Y1544302D01*
X931836Y1544457D01*
X932285Y1543785D01*
X933962Y1542108D01*
X934148Y1541172D01*
X934759Y1540259D01*
X935672Y1539648D01*
X936750Y1539434D01*
X937828Y1539648D01*
X938741Y1540259D01*
X939352Y1541172D01*
X939566Y1542250D01*
X939352Y1543328D01*
X938741Y1544241D01*
X937828Y1544852D01*
X936892Y1545038D01*
X935822Y1546108D01*
Y1552379D01*
X936352Y1553172D01*
X936566Y1554250D01*
X936352Y1555328D01*
X935741Y1556241D01*
X934828Y1556852D01*
X933750Y1557066D01*
X932672Y1556852D01*
X931842Y1556297D01*
X931405Y1556393D01*
X930572Y1556751D01*
Y1558566D01*
X933267Y1561261D01*
X933267Y1561261D01*
X933716Y1561933D01*
X933874Y1562726D01*
X933874Y1562726D01*
Y1578444D01*
X937642Y1582212D01*
X938578Y1582398D01*
X939491Y1583009D01*
X940102Y1583922D01*
X940316Y1585000D01*
X940102Y1586078D01*
X939491Y1586991D01*
X938578Y1587602D01*
X938065Y1587704D01*
X937394Y1588851D01*
X937375Y1589037D01*
X937566Y1590000D01*
X937352Y1591078D01*
X936741Y1591991D01*
X935828Y1592602D01*
X935235Y1592720D01*
X934316Y1593750D01*
X934102Y1594828D01*
X933491Y1595741D01*
X932578Y1596352D01*
X931500Y1596566D01*
D02*
G37*
G36*
X868250Y1553566D02*
X867172Y1553352D01*
X866259Y1552741D01*
X865648Y1551828D01*
X865434Y1550750D01*
X865648Y1549672D01*
X866259Y1548759D01*
X867172Y1548148D01*
X868108Y1547962D01*
X869070Y1547000D01*
X852642Y1530572D01*
X847512D01*
Y1531762D01*
X835988D01*
Y1525238D01*
X847512D01*
Y1526428D01*
X853500D01*
X853500Y1526428D01*
X854293Y1526586D01*
X854965Y1527035D01*
X873465Y1545535D01*
X873465Y1545535D01*
X873914Y1546207D01*
X874072Y1547000D01*
X873914Y1547793D01*
X873465Y1548465D01*
X873465Y1548465D01*
X871038Y1550892D01*
X870852Y1551828D01*
X870241Y1552741D01*
X869328Y1553352D01*
X868250Y1553566D01*
D02*
G37*
%LPD*%
G36*
X1056536Y1596863D02*
X1059681Y1593181D01*
X1063363Y1590036D01*
X1067491Y1587506D01*
X1071965Y1585653D01*
X1072000Y1585645D01*
X1072000Y1560680D01*
X1070168Y1558848D01*
X1068898Y1559374D01*
Y1561605D01*
X1061374D01*
Y1556530D01*
X1060585Y1555741D01*
X1060136Y1555069D01*
X1059978Y1554276D01*
X1059978Y1554276D01*
Y1550158D01*
X1059779Y1549860D01*
X1059658Y1549250D01*
Y1547250D01*
X1059779Y1546641D01*
X1059978Y1546342D01*
Y1544371D01*
X1059448Y1543578D01*
X1059234Y1542500D01*
X1059448Y1541422D01*
X1059978Y1540629D01*
Y1539408D01*
X1059779Y1539110D01*
X1059658Y1538500D01*
Y1536500D01*
X1059779Y1535891D01*
X1060124Y1535374D01*
X1060641Y1535029D01*
X1061250Y1534908D01*
X1061713D01*
X1064428Y1532192D01*
Y1528512D01*
X1062738D01*
Y1525283D01*
X1007750Y1525283D01*
X987000Y1546032D01*
X986704Y1567628D01*
X987596Y1568532D01*
X993903D01*
X994483Y1567827D01*
X994697Y1566749D01*
X995307Y1565835D01*
X996221Y1565225D01*
X997299Y1565010D01*
X998376Y1565225D01*
X999169Y1565755D01*
X1000202D01*
X1000202Y1565755D01*
X1000995Y1565912D01*
X1001667Y1566362D01*
X1003838Y1568532D01*
X1021238D01*
Y1568238D01*
X1047262D01*
Y1568532D01*
X1055000D01*
Y1577411D01*
X1056173Y1577897D01*
X1062296Y1571774D01*
X1062450Y1570999D01*
X1063061Y1570085D01*
X1063974Y1569475D01*
X1065052Y1569261D01*
X1066130Y1569475D01*
X1067043Y1570085D01*
X1067654Y1570999D01*
X1067868Y1572077D01*
X1067654Y1573154D01*
X1067043Y1574068D01*
X1066130Y1574678D01*
X1065052Y1574893D01*
X1065040Y1574890D01*
X1055000Y1584930D01*
Y1597030D01*
X1056222Y1597375D01*
X1056536Y1596863D01*
D02*
G37*
G36*
X1068073Y1559374D02*
X1068136Y1559222D01*
Y1559058D01*
X1068252Y1558942D01*
X1068315Y1558791D01*
X1068335Y1558782D01*
X1068426Y1558698D01*
X1068614Y1558418D01*
X1068804Y1557261D01*
X1068646Y1556468D01*
X1068646Y1556468D01*
X1068404Y1556279D01*
X1067376Y1555728D01*
X1066552Y1555892D01*
X1065474Y1555677D01*
X1064561Y1555067D01*
X1063950Y1554153D01*
X1063736Y1553076D01*
X1063950Y1551998D01*
X1064561Y1551084D01*
X1064980Y1550804D01*
Y1543446D01*
X1064450Y1542653D01*
X1064236Y1541575D01*
X1064450Y1540498D01*
X1065061Y1539584D01*
X1065974Y1538974D01*
X1067052Y1538759D01*
X1068130Y1538974D01*
X1069043Y1539584D01*
X1069654Y1540498D01*
X1069868Y1541575D01*
X1069654Y1542653D01*
X1069124Y1543446D01*
Y1549448D01*
X1070394Y1549974D01*
X1071460Y1548908D01*
Y1524766D01*
X1068850Y1522156D01*
X1060262D01*
Y1524458D01*
X1062738D01*
X1063321Y1524700D01*
X1063563Y1525283D01*
Y1527687D01*
X1064428D01*
X1065012Y1527929D01*
X1065253Y1528512D01*
Y1532192D01*
X1065012Y1532775D01*
X1062296Y1535491D01*
X1061713Y1535732D01*
X1061331D01*
X1060963Y1535806D01*
X1060719Y1535969D01*
X1060556Y1536212D01*
X1060482Y1536581D01*
Y1538419D01*
X1060556Y1538788D01*
X1060664Y1538950D01*
X1060711Y1539186D01*
X1060803Y1539408D01*
Y1540629D01*
X1060711Y1540851D01*
X1060664Y1541087D01*
X1060225Y1541744D01*
X1060075Y1542500D01*
X1060225Y1543256D01*
X1060664Y1543913D01*
X1060711Y1544149D01*
X1060803Y1544371D01*
Y1546342D01*
X1060711Y1546564D01*
X1060664Y1546800D01*
X1060556Y1546962D01*
X1060482Y1547331D01*
Y1549169D01*
X1060556Y1549538D01*
X1060664Y1549700D01*
X1060711Y1549936D01*
X1060803Y1550158D01*
Y1554195D01*
X1060913Y1554747D01*
X1061226Y1555215D01*
X1061957Y1555947D01*
X1062199Y1556530D01*
Y1560780D01*
X1068073D01*
Y1559374D01*
D02*
G37*
G36*
X957500Y1574336D02*
Y1529500D01*
X965500Y1521500D01*
X990750Y1521500D01*
X990750Y1517004D01*
X986178Y1512431D01*
X985500Y1512566D01*
X984422Y1512352D01*
X983509Y1511741D01*
X982898Y1510828D01*
X982684Y1509750D01*
X982898Y1508672D01*
X982908Y1508658D01*
X980750Y1506500D01*
X918000D01*
X917512Y1506012D01*
X914488D01*
Y1505000D01*
X907648Y1505000D01*
X906750Y1505898D01*
X906750Y1512238D01*
X917262D01*
Y1513000D01*
X919500D01*
X948750Y1542250D01*
X948750Y1569848D01*
X948991Y1570009D01*
X949602Y1570922D01*
X949816Y1572000D01*
X949602Y1573078D01*
X949191Y1573693D01*
X949531Y1574975D01*
X956587Y1575219D01*
X957500Y1574336D01*
D02*
G37*
D98*
X1062050Y1537500D02*
D03*
X1056450D02*
D03*
X1062050Y1548250D02*
D03*
X1056450D02*
D03*
D109*
X1055136Y1558343D02*
D03*
X1065136D02*
D03*
X1056500Y1525250D02*
D03*
X1066500Y1525250D02*
D03*
D120*
X1027000Y1472287D02*
X1037802Y1483089D01*
X889500Y1503500D02*
X900221D01*
X868250Y1550750D02*
X872000Y1547000D01*
X862042Y1547542D02*
Y1562076D01*
X851000Y1536500D02*
X862042Y1547542D01*
X841750Y1536500D02*
X851000D01*
X853500Y1528500D02*
X872000Y1547000D01*
X841750Y1528500D02*
X853500D01*
X964984Y1609218D02*
X999500Y1574702D01*
Y1572827D02*
Y1574702D01*
X965622Y1613250D02*
X1003532Y1575340D01*
Y1571157D02*
Y1575340D01*
X1000202Y1567827D02*
X1003532Y1571157D01*
X997299Y1567827D02*
X1000202D01*
X955250Y1613250D02*
X965622D01*
X1064882Y1557108D02*
X1065136D01*
X862500Y1622750D02*
X883250Y1602000D01*
X862500Y1603500D02*
Y1622750D01*
X846698Y1552500D02*
Y1556538D01*
X904250Y1588000D02*
X914000D01*
X892750D02*
X904250D01*
X886000Y1581250D02*
X892750Y1588000D01*
X886000Y1507000D02*
Y1581250D01*
Y1507000D02*
X889500Y1503500D01*
X899794Y1503073D02*
X900221Y1503500D01*
X904250Y1481750D02*
Y1518000D01*
Y1481750D02*
X917000Y1469000D01*
X954350D01*
X911250Y1484000D02*
X920250Y1493000D01*
X920250D01*
X996000Y1510250D02*
X1009500D01*
X995750Y1510000D02*
X996000Y1510250D01*
X962746Y1516143D02*
X986750D01*
X1027465Y1471822D02*
X1027800D01*
X1027000Y1472287D02*
X1027465Y1471822D01*
X1024092Y1478718D02*
X1031111Y1485737D01*
X1004250Y1478718D02*
X1024092D01*
X1004250D02*
Y1493000D01*
X1031111Y1485737D02*
Y1490483D01*
X1019044Y1469000D02*
X1034500Y1484456D01*
X978650Y1469000D02*
X1019044D01*
X970498Y1460848D02*
X978650Y1469000D01*
X1037802Y1483089D02*
Y1486802D01*
X1043750Y1492750D01*
X1034500Y1489202D02*
X1042080Y1496782D01*
X1034500Y1484456D02*
Y1489202D01*
X1031111Y1490483D02*
X1040712Y1500084D01*
X1028958Y1493000D02*
X1039344Y1503386D01*
X1018250Y1493000D02*
X1028958D01*
X1041382Y1500084D02*
X1058080Y1516782D01*
X1039760Y1503386D02*
X1056458Y1520084D01*
X1039344Y1503386D02*
X1039760D01*
X1040712Y1500084D02*
X1041382D01*
X1042750Y1496782D02*
X1052718Y1506750D01*
X1042080Y1496782D02*
X1042750D01*
X1067052Y1541575D02*
Y1552576D01*
X1066552Y1553076D02*
X1067052Y1552576D01*
X951032Y1609218D02*
X964984D01*
X949250Y1611000D02*
X951032Y1609218D01*
X857792Y1552292D02*
Y1564826D01*
X850000Y1544500D02*
X857792Y1552292D01*
X846127Y1563968D02*
X855329Y1573170D01*
X866170D01*
X856122Y1568858D02*
X867561D01*
X883793Y1585091D01*
X852084Y1564821D02*
X856122Y1568858D01*
X852084Y1561925D02*
Y1564821D01*
X846698Y1556538D02*
X852084Y1561925D01*
X866170Y1573170D02*
X878750Y1585750D01*
X842666Y1563968D02*
X846127D01*
X842666Y1563212D02*
Y1563968D01*
Y1563212D02*
X843396Y1562482D01*
Y1561250D02*
Y1562482D01*
X842500Y1561250D02*
X843396D01*
X841750Y1552500D02*
X846698D01*
X841750Y1560500D02*
X842500Y1561250D01*
X841750Y1544500D02*
X850000D01*
X883793Y1585091D02*
Y1588327D01*
X883068Y1587602D02*
X883068D01*
X883793Y1588327D01*
X1048738Y1598012D02*
X1058500Y1588250D01*
X1048738Y1598012D02*
Y1608668D01*
X925000Y1587250D02*
X931500Y1593750D01*
X925000Y1568500D02*
Y1587250D01*
X1052718Y1506750D02*
X1053750D01*
X1058080Y1516782D02*
X1071076D01*
X1056458Y1520084D02*
X1069708D01*
X1073532Y1523908D01*
X1071076Y1516782D02*
X1076834Y1522540D01*
X954350Y1469000D02*
X962502Y1460848D01*
X970498D01*
X1062050Y1554276D02*
X1064882Y1557108D01*
X1062050Y1548250D02*
Y1554276D01*
X1065136Y1557108D02*
Y1558343D01*
X1049000Y1588000D02*
X1064923Y1572077D01*
X1065052D01*
X955853Y1509250D02*
X962746Y1516143D01*
X985500Y1509750D02*
X986426D01*
X994250Y1517574D02*
Y1523000D01*
X986426Y1509750D02*
X994250Y1517574D01*
X952000Y1509250D02*
X955853D01*
X909368D02*
X952000D01*
X909294Y1509324D02*
X909368Y1509250D01*
X1070718Y1556468D02*
X1075250Y1561000D01*
X1070718Y1552580D02*
Y1556468D01*
X1076834Y1522540D02*
Y1552166D01*
X1074750Y1554250D02*
X1076834Y1552166D01*
X1070718Y1552580D02*
X1073532Y1549766D01*
Y1523908D02*
Y1549766D01*
X1034250Y1588000D02*
X1049000D01*
X904250Y1532000D02*
X918750D01*
X928500Y1541750D01*
Y1559424D01*
X931802Y1562726D01*
Y1579302D01*
X937500Y1585000D01*
X904250Y1546000D02*
X910406D01*
X928500Y1564094D01*
Y1583750D01*
X934750Y1590000D01*
X904250Y1560000D02*
X916500D01*
X925000Y1568500D01*
X945000Y1582500D02*
Y1601750D01*
Y1582500D02*
X947000Y1580500D01*
Y1572000D02*
Y1580500D01*
X966500Y1571500D02*
Y1601500D01*
X966750Y1601750D01*
X952000Y1509250D02*
X953500Y1510750D01*
Y1572250D01*
X992274Y1597774D02*
Y1605774D01*
X991468Y1606580D02*
X992274Y1605774D01*
X991468Y1606580D02*
Y1609920D01*
X993830Y1612282D01*
X1012282D01*
X1016250Y1616250D01*
X1016500Y1608250D02*
X1017750Y1609500D01*
X995500Y1608250D02*
X1016500D01*
X933750Y1545250D02*
X936750Y1542250D01*
X933750Y1545250D02*
Y1554250D01*
X882500Y1616000D02*
X904250D01*
X883250Y1602000D02*
X904250D01*
X1062050Y1542500D02*
Y1548250D01*
Y1537500D02*
Y1542500D01*
Y1537500D02*
X1066500Y1533050D01*
Y1525250D02*
Y1533050D01*
X1034250Y1546000D02*
X1036500Y1548250D01*
D121*
X1097764Y1630910D02*
D03*
X1104250Y1614750D02*
D03*
X1097410Y1598737D02*
D03*
X1081250Y1592250D02*
D03*
X1065237Y1599090D02*
D03*
X1058750Y1615250D02*
D03*
X1065590Y1631263D02*
D03*
X1081750Y1637750D02*
D03*
X867764Y1630910D02*
D03*
X874250Y1614750D02*
D03*
X867410Y1598737D02*
D03*
X851250Y1592250D02*
D03*
X835236Y1599090D02*
D03*
X828750Y1615250D02*
D03*
X835590Y1631263D02*
D03*
X851750Y1637750D02*
D03*
Y1507500D02*
D03*
X835590Y1501013D02*
D03*
X828750Y1485000D02*
D03*
X835236Y1468840D02*
D03*
X851250Y1462000D02*
D03*
X867410Y1468486D02*
D03*
X874250Y1484500D02*
D03*
X867764Y1500660D02*
D03*
X1097764D02*
D03*
X1104250Y1484500D02*
D03*
X1097410Y1468486D02*
D03*
X1081250Y1462000D02*
D03*
X1065237Y1468840D02*
D03*
X1058750Y1485000D02*
D03*
X1065590Y1501013D02*
D03*
X1081750Y1507500D02*
D03*
D122*
X1046250Y1474250D02*
D03*
X966500Y1470500D02*
D03*
X885750Y1472250D02*
D03*
D123*
X851500Y1615000D02*
D03*
X1081500D02*
D03*
X851500Y1484750D02*
D03*
X1081500D02*
D03*
D124*
X868250Y1550750D02*
D03*
X999500Y1572827D02*
D03*
X997299Y1567827D02*
D03*
X899794Y1503073D02*
D03*
X911250Y1484000D02*
D03*
X1009500Y1510250D02*
D03*
X986750Y1516143D02*
D03*
X1027800Y1471822D02*
D03*
X1043750Y1492750D02*
D03*
X1067052Y1541575D02*
D03*
X955250Y1613250D02*
D03*
X857792Y1564826D02*
D03*
X862042Y1562076D02*
D03*
X949250Y1611000D02*
D03*
X878750Y1585750D02*
D03*
X883793Y1588327D02*
D03*
X1048738Y1608668D02*
D03*
X931500Y1593750D02*
D03*
X1053750Y1506750D02*
D03*
X1065052Y1572077D02*
D03*
X985500Y1509750D02*
D03*
X995750Y1510000D02*
D03*
X909294Y1509324D02*
D03*
X1075250Y1561000D02*
D03*
X1066552Y1553076D02*
D03*
X1074750Y1554250D02*
D03*
X878500Y1541000D02*
D03*
X937500Y1585000D02*
D03*
X934750Y1590000D02*
D03*
X945000Y1601750D02*
D03*
X966750D02*
D03*
X947000Y1572000D02*
D03*
X953500Y1572250D02*
D03*
X966500Y1571500D02*
D03*
X992274Y1597774D02*
D03*
X1016250Y1616250D02*
D03*
X1017750Y1609500D02*
D03*
X995500Y1608250D02*
D03*
X936750Y1542250D02*
D03*
X933750Y1554250D02*
D03*
X992250Y1552250D02*
D03*
X1040000Y1519250D02*
D03*
X1062050Y1542500D02*
D03*
X1036750Y1532500D02*
D03*
X994250Y1523000D02*
D03*
D125*
X827602Y1581500D02*
D03*
D126*
X841750Y1568500D02*
D03*
Y1560500D02*
D03*
Y1552500D02*
D03*
Y1544500D02*
D03*
X841750Y1536500D02*
D03*
D127*
X841750Y1528500D02*
D03*
D128*
X827602Y1515500D02*
D03*
D129*
X948250Y1493000D02*
D03*
X934250D02*
D03*
X962250D02*
D03*
X976250D02*
D03*
X990250D02*
D03*
X1018250D02*
D03*
X1004250D02*
D03*
X920250D02*
D03*
D130*
X904250Y1546000D02*
D03*
Y1532000D02*
D03*
Y1560000D02*
D03*
Y1574000D02*
D03*
Y1588000D02*
D03*
Y1616000D02*
D03*
Y1602000D02*
D03*
Y1518000D02*
D03*
X1034250D02*
D03*
Y1602000D02*
D03*
Y1616000D02*
D03*
Y1588000D02*
D03*
Y1574000D02*
D03*
Y1560000D02*
D03*
Y1532000D02*
D03*
Y1546000D02*
D03*
M02*
