M48
;Layer_Color=9474304
;FILE_FORMAT=2:5
INCH,LZ
;TYPE=PLATED
T1F00S00C0.00394
%
T01
X0318748Y0145647
X0322906Y0143529
X0327134Y0141557
X033143Y0139734
X0335786Y0138062
X0340197Y0136543
X0340188Y0134726
X0339222Y0134985
X0338963Y0134019
X0339929Y013376
X033967Y0132794
X0340636Y0132535
X0340895Y0133501
X0341154Y0134467
X034212Y0134208
X0343086Y013395
X0344052Y0133691
X0343793Y0132725
X0344759Y0132466
X0345725Y0132207
X0345984Y0133173
X0346949Y0132914
X0346691Y0131948
X0346432Y0130982
X0347398Y0130724
X0347656Y0131689
X0348623Y0131431
X0348881Y0132397
X0347915Y0132655
X0349847Y0132138
X0350813Y0131879
X0350554Y0130913
X0350296Y0129947
X0351261Y0129688
X035152Y0130654
X0351779Y013162
X0349588Y0131172
X034933Y0130206
X0348364Y0130465
X0348105Y0129499
X0347139Y0129758
X0346173Y0130016
X0345914Y012905
X034688Y0128792
X0347846Y0128533
X0348812Y0128274
X0349778Y0128015
X0350037Y0128981
X0349071Y012924
X0351003Y0128722
X0350744Y0127756
X0344948Y0129309
X0343982Y0129568
X0344241Y0130534
X0343275Y0130793
X0342309Y0131052
X0342568Y0132018
X0341602Y0132276
X0341861Y0133242
X0342827Y0132984
X0343534Y0131759
X03445Y01315
X0345466Y0131241
X0345207Y0130275
X0343016Y0129827
X034205Y0130086
X0341085Y0130345
X0341343Y013131
X0340377Y0131569
X0339411Y0131828
X0339153Y0130862
X0340119Y0130603
X0338187Y0131121
X0338446Y0132087
X0338704Y0133053
X0345018Y0133432
X034466Y0135179
X0349167Y0133971
X0353713Y0132921
X0358293Y0132031
X0362902Y0131301
X0367533Y0130732
X0372181Y0130326
X0376841Y0130081
X03765Y01285
X03775Y01285
X03775Y01275
X03785Y01275
X03795Y01275
X03795Y01265
X03795Y01255
X03805Y01255
X03805Y01265
X03815Y01265
X03815Y01255
X03815Y01245
X03805Y01245
X03795Y01245
X03785Y01245
X03785Y01255
X03785Y01265
X03775Y01265
X03775Y01255
X03775Y01245
X03765Y01245
X03755Y01245
X03755Y01255
Y01265
X03755Y01275
X03765Y01275
X03765Y01265
X03765Y01255
X03755Y01285
X03785
X03795Y01285
X03805Y01285
X03805Y01275
X03815Y01275
X03815Y01285
X03825Y01285
X03825Y01275
X03825Y01265
X03825Y01255
X03835Y01255
X03845Y01255
X03855Y01255
X03855Y01265
X03845
X03835Y01265
X03835Y01275
X03845Y01275
X03855Y01275
X03855Y01285
X03845Y01285
X03835Y01285
X03865Y01285
X03865Y01275
X03865Y01265
X03865Y01255
X03875Y01255
X03885Y01255
X03885Y01245
X03875Y01245
X03865Y01245
X03855Y01245
X03845Y01245
X03835Y01245
X03825Y01245
X0381506Y013
X0386172Y0130081
X03875Y01285
X03875Y01275
X03885Y01275
X03885Y01285
X03885Y01265
X03875Y01265
X0390831Y0130326
X0395479Y0130732
X0400111Y0131301
X0404719Y0132031
X04093Y0132921
X0411687Y0131879
X0411946Y0130913
X0412912Y0131172
X0412653Y0132138
X0413619Y0132397
X0414585Y0132655
X0415551Y0132914
X0416516Y0133173
X0416775Y0132207
X0417741Y0132466
X0418707Y0132725
X0418448Y0133691
X0417482Y0133432
X0419414Y0133949
X0419673Y0132984
X0420639Y0133242
X0420898Y0132276
X0421864Y0132535
X0421605Y0133501
X0422571Y013376
X042283Y0132794
X0423089Y0131828
X0423347Y0130862
X0424313Y0131121
X0424054Y0132087
X042502Y0132346
X0424761Y0133312
X0423796Y0133053
X0423537Y0134019
X0424503Y0134278
X0424244Y0135243
X0423278Y0134985
X0422312Y0134726
X0421346Y0134467
X042038Y0134208
X0419932Y0132018
X0418966Y0131759
X0418Y01315
X0418259Y0130534
X0419225Y0130793
X0419483Y0129827
X0418518Y0129568
X0417552Y0129309
X0417293Y0130275
X0416327Y0130016
X0416586Y0129051
X041562Y0128792
X0414654Y0128533
X0414395Y0129499
X0415361Y0129757
X0415102Y0130724
X0414844Y0131689
X0415809Y0131948
X0416068Y0130982
X0417034Y0131241
X0413877Y0131431
X0414136Y0130465
X041317Y0130206
X0412204Y0129947
X0412463Y0128981
X0413429Y012924
X0413688Y0128274
X0412722Y0128015
X0413846Y0133971
X0418353Y0135178
X0422815Y0136543
X0422122Y0131569
X0421157Y013131
X0421415Y0130345
X0422381Y0130603
X0420449Y0130086
X0420191Y0131052
X0425279Y013138
X0427227Y0138062
X0431583Y0139734
X0435878Y0141557
X0440107Y0143529
X0443938Y0143732
X0444438Y0142866
X0444938Y0142
X0445804Y01425
X0446304Y0141634
X0445438Y0141134
X0445938Y0140268
X0446804Y0140768
X044767Y0141268
X044717Y0142134
X0448036Y0142634
X0448536Y0141768
X0449402Y0142268
X0450268Y0142768
X0451134Y0143268
X0452Y0143768
X04515Y0144634
X0452366Y0145134
X0451866Y0146
X0451366Y0146866
X0452232Y0147366
X0451732Y0148232
X0452598Y0148732
X0453098Y0147866
X0453964Y0148366
X0454464Y01475
X045533Y0148
X0456196Y01485
X0455696Y0149366
X045483Y0148866
X045433Y0149732
X0455196Y0150232
X0453464Y0149232
X0452345Y0150313
X0450866Y0147732
X045Y0147232
X0449134Y0146732
X0449634Y0145866
X0448768Y0145366
X0448268Y0146232
X0447402Y0145732
X0446536Y0145232
X044567Y0144732
X044617Y0143866
X0447036Y0144366
X0447902Y0144866
X0448402Y0144
X0448902Y0143134
X0449768Y0143634
X0449268Y01445
X0450134Y0145
X0450634Y0144134
X0451Y01455
X04505Y0146366
X0452732Y01465
X0453232Y0145634
X0454098Y0146134
X0453598Y0147
X0454964Y0146634
X0455464Y0145768
X0454598Y0145268
X0453732Y0144768
X0452866Y0144268
X045633Y0146268
X045583Y0147134
X0456696Y0147634
X0457196Y0146768
X0456258Y0152854
X046008Y015553
X0448345Y0147909
X0447536Y01435
X044667Y0143
X0445304Y0143366
X0444804Y0144232
X0444264Y0145647
X0470954Y0164336
X0473343Y0164172
X047405Y0163464
X0474757Y0164172
X047405Y0164879
X0475464Y0164879
Y0166293
X0474757Y0165586
X0476172Y0165586
X0476879Y0164879
X0477586Y0165586
X0476879Y0166293
X0478293
X0479707Y0166293
X0479Y0167
X0478293Y0167707
X0477586Y0167
X0476879Y0167707
X0476172Y0167
X0474367Y0167518
X0477586Y0168414
X0478293Y0169121
X0479Y0169828
X0479Y0168414
X0480414Y0168414
X0479707Y0169121
X0481121Y0169121
X0480414Y0169828
X0481828Y0169828
X0481828Y0168414
X0482536Y0169121
X0482536Y0170536
X0481828Y0171243
X0481121Y017195
X0481828Y0172657
X0482536Y0173364
X0483243Y0172657
X0482536Y017195
X0483243Y0171243
X048395Y017195
X0484657Y0171243
X048395Y0170536
X0484657Y0169828
X0483243Y0169828
X048395Y0169121
X0483243Y0168414
X0482536Y0167707
X0481828Y0167
X0481121Y0167707
X0480414Y0167
X0479707Y0167707
X0481121Y0166293
X0480414Y0165586
X0479Y0165586
X0478293Y0164879
X0479707Y0164879
X0479Y0164172
X0478293Y0163464
X0477586Y0164172
X0476879Y0163464
X0476172Y0164172
X0475464Y0163464
Y016205
X0476172Y0162757
X0476172Y0161343
X0476879Y016205
X0477586Y0162757
X0474757Y0162757
X0477666Y0170817
X0479707Y0170536
X0480414Y0171243
X0481121Y0170536
X0480848Y017423
X048391Y0177751
X0486846Y0181377
X0489654Y0185104
X049233Y0188926
X0495768Y0190938
X0496634Y0190438
X04975Y0189938
X0498Y0190804
X0498866Y0190304
X0498366Y0189438
X0499232Y0188938
X0499732Y0189804
X0500232Y019067
X0499366Y019117
X04985Y019167
X0499Y0192536
X0498134Y0193036
X0498634Y0193902
X0499134Y0194768
X0498268Y0195268
X0497768Y0194402
X0497268Y0193536
X0496768Y019267
X0496268Y0191804
X0497134Y0191304
X0497634Y019217
X0499866Y0192036
X0500732Y0191536
X0501232Y0192402
X0501732Y0193268
X0500866Y0193768
X05Y0194268
X04995Y0193402
X0500366Y0192902
X05005Y0195134
X0499634Y0195634
X0498768Y0196134
X0499268Y0197
X0500134Y01965
X0500634Y0197366
X05015Y0196866
X0501Y0196
X0501866Y01955
X0502366Y0196366
X0503232Y0195866
X0503732Y0196732
X0504232Y0197598
X0504732Y0198464
X0505232Y019933
X0505732Y0200196
X0504866Y0200696
X0504366Y019983
X05035Y020033
X0504Y0201196
X0503134Y0201696
X0502634Y020083
X0501768Y020133
X0502268Y0202196
X0502134Y0199964
X0501634Y0199098
X0500768Y0199598
X0501268Y0200464
X0499537Y020092
X0500268Y0198732
X0499768Y0197866
X0501134Y0198232
X0502Y0197732
X0502866Y0197232
X0503366Y0198098
X05025Y0198598
X0503Y0199464
X0503866Y0198964
X0502732Y0195
X0502232Y0194134
X0501366Y0194634
X0497275Y0196839
X0494872Y0192839
X0501655Y0205077
X0503627Y0209306
X050545Y0213601
X0507122Y0217957
X0508641Y0222369
X0511015Y0224222
X0511274Y0225188
X051224Y0224929
X0513206Y022467
X0513465Y0225636
X0513724Y0226602
X0513982Y0227568
X0513016Y0227827
X0512758Y0226861
X0511792Y022712
X051205Y0228086
X0512309Y0229052
X0513275Y0228793
X0513534Y0229759
X0513793Y0230725
X0514052Y0231691
X0515018Y0231432
X0515276Y0232398
X0514311Y0232657
X0514569Y0233623
X0513603Y0233881
X0513345Y0232915
X0513086Y0231949
X0512827Y0230984
X0512568Y0230018
X05145Y02295
X0514241Y0228534
X0515207Y0228275
X0514948Y0227309
X0515914Y022705
X0515655Y0226085
X0514689Y0226343
X0514431Y0225377
X0515397Y0225119
X0515138Y0224153
X0514172Y0224412
X0513913Y0223446
X0514879Y0223187
X0512947Y0223704
X0511981Y0223963
X0512499Y0225895
X0511533Y0226154
X0510006Y0226831
X0511213Y0231338
X0514759Y0230466
X0515725Y0230207
X0516691Y0229948
X0516432Y0228982
X0516173Y0228016
X0515466Y0229241
X0515984Y0231173
X0516242Y0232139
X0516501Y0233105
X0515535Y0233364
X0515794Y023433
X0514828Y0234589
X0513862Y0234847
X0514121Y0235813
X0515087Y0235554
X0516053Y0235296
X0516312Y0236262
X0515346Y023652
X051438Y0236779
X0512263Y0235885
X0517278Y0236003
X0518244Y0235744
X0517985Y0234778
X0517726Y0233812
X051676Y0234071
X0517019Y0235037
X0517467Y0232846
X0517208Y023188
X051695Y0230914
X0513153Y0240465
X0513883Y0245074
X0514452Y0249705
X0514858Y0254353
X05165Y02575
X05175Y02575
X05185
X05195
X05205Y02575
X05205Y02585
X05195Y02585
X05185Y02585
X05185Y02595
X05195Y02595
X05195Y02605
X05205Y02605
X05205Y02615
Y02625
X05205Y02635
X05205Y02645
X05195Y02645
X05195Y02655
X05185Y02655
X05185Y02645
X05185Y02635
X05195Y02635
X05195Y02625
X05195Y02615
X05185Y02615
Y02605
X05175Y02605
X05175Y02595
X05165Y02595
X05165Y02585
X05175Y02585
X0515103Y0259013
X05165Y02605
X05165Y02615
X05165Y02625
X05175Y02625
X05175Y02615
X05185Y02625
X05175Y02635
X05165Y02635
X05165Y02645
X05175
Y02655
X05175Y02665
X05165Y02665
X05165Y02675
X05165Y02685
X05175Y02685
X05175Y02675
X05185Y02675
Y02665
X05195Y02665
Y02675
X05205Y02675
X05205Y02665
Y02655
X05205Y02685
X05195Y02685
X05195Y02695
X05205Y02695
X05205Y02705
X05195Y02705
X05185Y02705
X05175Y02705
X05175Y02695
X05165Y02695
X05165Y02705
X05185Y02695
X05185Y02685
X0515103Y0268343
X05165Y02655
X0515184Y0263678
X05205Y02595
X0514858Y0273003
X0514452Y0277651
X0513883Y0282282
X0513153Y0286891
X0512263Y0291471
X0513621Y0293687
X0513362Y0294653
X0514328Y0294912
X0514069Y0295878
X0515035Y0296136
X0516001Y0296395
X051626Y0295429
X0515294Y029517
X0515553Y0294204
X0514587Y0293946
X0516519Y0294463
X0517485Y0294722
X0517226Y0295688
X0516967Y0296654
X0516708Y029762
X0516449Y0298586
X0515484Y0298327
X0515225Y0299293
X0514259Y0299034
X0514Y03
X0513034Y0299741
X0512775Y0300707
X0512516Y0301673
X0511551Y0301414
X0511809Y0300448
X0512068Y0299482
X0512327Y0298516
X0512586Y0297551
X0512845Y0296585
X0513103Y0295619
X051381Y0296843
X0513552Y0297809
X0514518Y0298068
X0514777Y0297102
X0515742Y0297361
X0516191Y0299552
X0515932Y0300518
X0515673Y0301484
X0514707Y0301225
X0513741Y0300966
X0513482Y0301932
X0514448Y0302191
X0514189Y0303157
X0513224Y0302898
X0512258Y0302639
X0511999Y0303605
X0511033Y0303346
X0510774Y0304312
X0510515Y0305278
X0511481Y0305537
X0512447Y0305796
X0512188Y0306762
X0511222Y0306503
X0510256Y0306244
X0508641Y0304987
X051174Y0304571
X0512706Y030483
X0513672Y0305088
X0513931Y0304122
X0514897Y0304381
X0515155Y0303415
X0515414Y0302449
X0514966Y0300259
X0513293Y0298775
X0511213Y0296018
X0510006Y0300524
X0511292Y030238
X0512965Y0303864
X0513413Y0306054
X0514379Y0306313
X0514638Y0305347
X051412Y0307279
X0513154Y030702
X0507122Y0309398
X0485754Y0299845
X0473Y0305
X04845Y02775
X04795Y02465
X04745Y02445
X047Y02115
X0485364Y0170536
X0467433Y0161275
X0463807Y0158338
X0451Y01875
X0423313Y0180166
X0427Y0175
X0427642Y020681
X0428408Y0206168
X0429175Y0205525
X0429817Y0206291
X043046Y0207057
X0431103Y0207823
X0430337Y0208466
X043098Y0209232
X0431746Y0208589
X0432388Y0209355
X0431622Y0209998
X0432265Y0210764
X0433031Y0210121
X0433674Y0210887
X0434317Y0211653
X043496Y0212419
X0434194Y0213062
X0433551Y0212296
X0432785Y0212939
X0432142Y0212173
X0432908Y021153
X0431499Y0211407
X0430733Y0212049
X0429967Y0212692
X043061Y0213458
X0431376Y0212815
X0432019Y0213581
X0432661Y0214348
X0431895Y021499
X0432538Y0215756
X0431772Y0216399
X0432415Y0217165
X0433181Y0216522
X0433824Y0217288
X043459Y0216646
X0433947Y021588
X0434713Y0215237
X043407Y0214471
X0433304Y0215113
X0433427Y0213705
X0434836Y0213828
X0435479Y0214594
X0436122Y021536
X0436765Y0216126
X0435999Y0216769
X0436641Y0217535
X0437407Y0216892
X043805Y0217658
X0438816Y0217015
X0439459Y0217781
X0440102Y0218548
X0439336Y021919
X0439979Y0219956
X0440745Y0219314
X0441387Y022008
X044203Y0220846
X0442673Y0221612
X0441907Y0222254
X044255Y0223021
X0443316Y0222378
X0443959Y0223144
X0443192Y0223786
X0442426Y0224429
X044166Y0225072
X0441018Y0224306
X0441784Y0223663
X0441141Y0222897
X0440498Y0222131
X0439732Y0222774
X0440375Y022354
X0439609Y0224183
X0440252Y0224949
X0440894Y0225715
X0440128Y0226358
X0439486Y0225592
X0438843Y0224826
X04382Y022406
X0437434Y0224702
X0436791Y0223936
X0436148Y022317
X0435506Y0222404
X0436272Y0221761
X0436914Y0222528
X0437557Y0223293
X0438323Y0222651
X0439089Y0222008
X0439855Y0221365
X0440621Y0220722
X0441264Y0221488
X0439213Y0220599
X0438447Y0221242
X0437804Y0220476
X043857Y0219833
X0437927Y0219067
X0438693Y0218424
X0437284Y0218301
X0436518Y0218944
X0435752Y0219586
X0436395Y0220353
X0435629Y0220995
X0434863Y0221638
X0434097Y0222281
X0433454Y0221515
X0432811Y0220749
X0432168Y0219983
X0431526Y0219217
X0432292Y0218574
X0431649Y0217808
X0430883Y0218451
X043024Y0217685
X0431006Y0217042
X0430363Y0216276
X0429597Y0216919
X0428831Y0217561
X0429474Y0218327
X0430117Y0219093
X0429351Y0219736
X0429993Y0220502
X0429227Y0221145
X0428461Y0221788
X0427819Y0221022
X0427053Y0221665
X0427695Y0222431
X0426929Y0223074
X0427572Y022384
X0428338Y0223197
X0428981Y0223963
X0429747Y022332
X0429104Y0222554
X042987Y0221911
X0430636Y0221268
X0431279Y0222035
X0432045Y0221392
X0432688Y0222158
X0433331Y0222924
X0433974Y022369
X0433208Y0224333
X043385Y0225099
X0433084Y0225741
X0433727Y0226507
X0432961Y022715
X0432318Y0226384
X0431675Y0225618
X0431033Y0224852
X043039Y0224086
X0431156Y0223443
X0431922Y02228
X0432565Y0223567
X0431799Y0224209
X0432441Y0224975
X0434616Y0224456
X0435382Y0223813
X0436025Y0224579
X0435259Y0225222
X0434493Y0225865
X0435136Y0226631
X0435902Y0225988
X0436668Y0225345
X0437311Y0226111
X0436545Y0226754
X0435779Y0227397
X0435013Y022804
X0435655Y0228806
X0434889Y0229448
X0434123Y0230091
X0433357Y0230734
X0432714Y0229968
X0432072Y0229202
X0431429Y0228436
X0430786Y022767
X0431552Y0227027
X0430909Y0226261
X0430267Y0225495
X04295Y0226138
X0428858Y0225372
X0429624Y0224729
X0428215Y0224606
X0426287Y0222307
X0425644Y0221541
X0425001Y0220775
X0425767Y0220133
X0426533Y021949
X0427176Y0220256
X0427942Y0219613
X0427299Y0218847
X0428065Y0218204
X0428708Y021897
X0428585Y0220379
X042641Y0220899
X042589Y0218724
X0425124Y0219367
X0424481Y0218601
X0425247Y0217958
X0426014Y0217315
X0425371Y0216549
X0426137Y0215906
X042678Y0216672
X0427546Y0216029
X0426903Y0215263
X0427669Y021462
X0428312Y0215387
X0428954Y0216153
X0428188Y0216795
X0427422Y0217438
X0426656Y0218081
X0424605Y0217192
X0423839Y0217834
X0423073Y0218477
X0423715Y0219243
X0424358Y0220009
X0423962Y0216426
X0424728Y0215783
X0425494Y021514
X042626Y0214497
X0425617Y0213731
X0424851Y0214374
X0424085Y0215017
X0423319Y021566
X0422553Y0216302
X042191Y0215536
X0421144Y0216179
X0420502Y0215413
X0421268Y021477
X0420625Y0214004
X0421391Y0213362
X0422034Y0214127
X04228Y0213485
X0423442Y0214251
X0424208Y0213608
X0423566Y0212842
X0422923Y0212076
X0423689Y0211433
X0424332Y0212199
X0425098Y0211556
X0424455Y021079
X0425221Y0210148
X0425987Y0209505
X042663Y0210271
X0425864Y0210913
X0426507Y021168
X042574Y0212322
X0426383Y0213088
X0427026Y0213855
X0427792Y0213212
X0428435Y0213978
X0429078Y0214744
X0429844Y0214101
X0430486Y0214867
X0431253Y0214224
X0431129Y0215633
X042972Y021551
X0429201Y0213335
X0428558Y0212569
X0427915Y0211803
X0428681Y021116
X0428039Y0210394
X0428805Y0209751
X0428162Y0208985
X0428928Y0208342
X0429694Y02077
X0429051Y0206934
X0428285Y0207576
X0427519Y0208219
X0426876Y0207453
X042611Y0208096
X0426753Y0208862
X0427396Y0209628
X0427273Y0211037
X0427149Y0212446
X0429324Y0211926
X043009Y0211283
X0429448Y0210517
X0430213Y0209875
X0430856Y0210641
X0429571Y0209108
X0425344Y0208739
X0424578Y0209382
X0423812Y0210024
X0423046Y0210667
X042228Y021131
X0421514Y0211953
X0420748Y0212595
X0419982Y0213238
X0419216Y0213881
X0419859Y0214647
X0422676Y0214894
X0423196Y0217068
X042243Y0217711
X0421787Y0216945
X0422157Y0212719
X0424974Y0212965
X04155Y02125
X0435602Y0213185
X0436245Y0213951
X0436888Y0214717
X0437531Y0215483
X0438173Y0216249
X0435356Y0216003
X0435233Y0217412
X0435875Y0218178
X0435109Y0218821
X0434343Y0219463
X0433701Y0218697
X0432934Y021934
X0433577Y0220106
X043422Y0220872
X0434986Y0220229
X0434467Y0218055
X0433058Y0217931
X043076Y021986
X0431402Y0220626
X0430513Y0222677
X0434739Y0223047
X043768Y0221885
X0437038Y0221119
X0437161Y021971
X0438966Y0223417
X0438077Y0225468
X043872Y0226235
X0437954Y0226877
X0437187Y022752
X043783Y0228286
X0437064Y0228929
X0436421Y0228163
X0436298Y0229572
X0435532Y0230214
X0434766Y0230857
X0434246Y0228682
X0433604Y0227916
X0432838Y0228559
X0433481Y0229325
X0432195Y0227793
X043437Y0227274
X0430143Y0226904
X0438596Y0227643
X0439362Y0227
X0421522Y0227978
X0425773Y0288727
X0436479Y0290494
X0437186Y0289787
X0437893Y0290494
X0439308
X04386Y0289787
X0440015
X0441429
X0440722Y0290494
X0442136
X044355
X0442843Y0289787
X0444257
X0445672
X0444965Y0290494
X0446379
X0447086Y0291201
X0447793Y0291908
X0447086Y0292615
X04485
Y0294029
X0447793Y0294737
X0447086Y0294029
Y0295444
X0447793Y0296151
X0447086Y0296858
X0446379Y0296151
X0445672Y0296858
X0444965Y0296151
X0445672Y0295444
X0444965Y0294737
X0445672Y0294029
X0444965Y0293322
X0446379
X0447793
X0449207
X0449914Y0294029
X0449207Y0294737
X04485Y0295444
X0449914
Y0296858
X0449207Y0296151
X0450621
X0452036
X0451328Y0296858
X0452743
X045345Y0297565
X0452743Y0298272
X0454157
X045345Y0298979
X0454864
X0455571Y0299686
X0456278Y0300393
Y0301808
X0455571Y03011
X0456985
Y0302515
X0455571
Y0303929
X0456278Y0303222
X0454864
Y0304636
X045345
X0454157Y0305343
X045345Y030605
X0452743Y0305343
Y0306757
X0452036Y030605
X0451328Y0305343
X0450621Y030605
X0449207
X0449914Y0305343
X04485
X0447086
X0447793Y030605
X0446379
X0444965
X0445672Y0305343
X0444257
X0442843
X044355Y030605
Y0304636
X0442136
Y0303222
X0440722
X0441429Y0303929
Y0302515
X0440015
Y03011
X0440722Y0301808
X0441429Y03011
X0440722Y0300393
X0442136
Y0301808
X0442843Y03011
X044355Y0301808
Y0300393
X0442843Y0299686
X044355Y0298979
X0442843Y0298272
X0444257
X044355Y0297565
X0444965
X0446379
X0447793
Y0298979
X0447086Y0298272
X04485
X0449914
X0449207Y0298979
X0450621
X0452036
X0451328Y0298272
Y0299686
X0452743
X0454157
X045345Y0300393
X0454864
Y0301808
X0454157Y03011
X045345Y0301808
X0454157Y0302515
Y0303929
X045345Y0303222
X0452743Y0303929
Y0302515
Y03011
X0452036Y0301808
X0451328Y03011
Y0302515
X0452036Y0303222
X0451328Y0303929
X0450621Y0303222
X0449207
X0449914Y0303929
X04485
X0447086
X0447793Y0303222
X0446379
X0445672Y0302515
X0444965Y0303222
X0445672Y0303929
X0444257
X0442843
X044355Y0303222
X0442843Y0302515
X0444257
Y03011
X0444965Y0301808
X0445672Y03011
X0444965Y0300393
X0445672Y0299686
X0444257
X0444965Y0298979
X0445672Y0298272
X0446379Y0298979
Y0300393
Y0301808
X0447086Y03011
X0447793Y0301808
Y0300393
X0447086Y0299686
X04485
X0449914
X0449207Y0300393
X0450621
X0452036
X0450621Y0301808
X0449914Y03011
X0449207Y0301808
X04485Y03011
Y0302515
X0447086
X0447793Y0304636
X0446379
X0444965
X0445672Y0306757
X0444965Y0307465
X0445672Y0308172
X0446379Y0307465
Y0308879
X0447086Y0309586
X0447793Y0308879
Y0307465
X0447086Y0308172
Y0306757
X04485
Y0308172
X0449207Y0307465
X0449914Y0308172
Y0306757
X0450621Y0307465
X0452036
X0451328Y0308172
Y0306757
X0452036Y0304636
X0450621
X0449207
X0449914Y0302515
X0449207Y0297565
X0450621
X0452036
X0451328Y0295444
X0450621Y0294737
X0446379
Y0291908
X0445672Y0292615
X0444965Y0291908
X0445672Y0291201
X0444257
Y0292615
X044355Y0291908
X0442843Y0292615
X044355Y0293322
Y0294737
X0442843Y0294029
X0444257
Y0295444
Y0296858
X044355Y0296151
X0442843Y0296858
Y0295444
X0442136Y0296151
Y0297565
Y0298979
X0441429Y0298272
X0440722Y0298979
X0441429Y0299686
X0440015
Y0298272
X0439308Y0298979
X04386Y0299686
Y0298272
X0439308Y0297565
Y0296151
X0440722
X0440015Y0296858
X0441429
X0440722Y0297565
X0441429Y0295444
Y0294029
X0440722Y0294737
X0442136
Y0293322
Y0291908
X0441429Y0292615
X0440722Y0291908
X0441429Y0291201
X0440015
Y0292615
X0439308Y0291908
X04386Y0292615
X0439308Y0293322
Y0294737
X04386Y0294029
X0440015
Y0295444
X04386
Y0296858
X0437893Y0296151
Y0297565
Y0298979
X0437186Y0298272
Y0299686
X0437893Y0300393
X0439308
Y0301808
X04386Y03011
X0436479Y0298979
Y0297565
Y0296151
X0435772Y0296858
X0437186
Y0295444
Y0294029
X0437893Y0294737
Y0293322
Y0291908
X0437186Y0292615
Y0291201
X0435772
X0436479Y0291908
X0435772Y0292615
X0436479Y0293322
Y0294737
X0435772Y0294029
Y0295444
X0435065Y0296151
Y0297565
X0435772Y0298272
X0434358Y0296858
X0433651Y0296151
X0434358Y0295444
Y0294029
X0433651Y0294737
X0435065
Y0293322
Y0291908
X0434358Y0292615
X0433651Y0293322
X0432944Y0294029
Y0295444
X0432236Y0294737
X0440722Y0293322
X0442843Y0291201
X044355Y028908
Y0287666
X0442843Y0288373
X0444257
X0444965Y028908
X0442136
Y0287666
X0441429Y0288373
X0440722Y0287666
Y028908
X0440015Y0288373
X0439308Y0287666
X04386Y0288373
X0439308Y028908
X0437893
X04386Y0291201
X0440015Y0286958
X0440722Y0286251
X0441429Y0285544
X0442136Y0286251
X0442843Y0286958
X0441429
X0436306Y0284
X04485Y0296858
Y0309586
X0447793Y0310293
X0449207
Y0308879
X0450621
X0449914Y0309586
X04485Y0311
X0444257Y0306757
X0457692Y0301808
X0410749Y0294136
Y0292722
X0411456Y0293429
X0410042
Y0292015
X0408627
Y02906
X0409335Y0291308
X040792
Y0289893
X0406506
X0407213Y0289186
X0406506Y0288479
X0405799Y0287772
X0404385
X0405092Y0288479
Y0287065
X0404385Y0286358
X0403678Y0285651
X0402263
X0402971Y0286358
Y0284944
X0402263Y0284237
X0401556Y0284944
Y0286358
X0400849Y0285651
X0400142Y0286358
X0400849Y0287065
X0399435
Y0288479
X0400142Y0287772
X0400849Y0288479
X0401556Y0287772
X0402971
X0402263Y0288479
Y0287065
X0403678
Y0288479
X0404385Y0289186
X0405799
X0405092Y0289893
X0403678
X0402263
X0402971Y0289186
X0401556
X0400142
X0400849Y0289893
X0399435
X0398021
X0398728Y0289186
Y0287772
X0398021Y0288479
X0397314Y0289186
X0396607Y0289893
Y0291308
X0397314Y02906
X0398728
X0398021Y0291308
X0399435
X0400142Y02906
X0400849Y0291308
X0401556Y02906
X0402971
X0402263Y0291308
X0403678
X0404385Y02906
X0405092Y0291308
X0405799Y02906
X0407213
X0406506Y0291308
X0407213Y0292015
X0405799
X0404385
X0405092Y0292722
X0404385Y0293429
X0403678Y0292722
X0402263
X0402971Y0293429
Y0292015
X0401556
X0400142
X0400849Y0292722
X0400142Y0293429
X0401556
X0402263Y0294136
X0403678
X0405092
X0404385Y0294843
X0405092Y029555
X0405799Y0294843
X0407213
X0406506Y029555
Y0294136
Y0292722
X0407213Y0293429
X040792Y0292722
X0409335
X0408627Y0293429
X0409335Y0294136
X040792
Y029555
X0408627Y0294843
X0409335Y029555
X0410042Y0294843
X0408627Y0296257
X0407213
X0405799
X0404385
X0405092Y0296965
X0404385Y0297672
X0405799
X0406506Y0296965
X0407213Y0297672
X040792Y0296965
X0406506Y0298379
X0405092
X0403678
Y0296965
X0402263
X0402971Y0297672
Y0296257
Y0294843
X0402263Y029555
X0401556Y0294843
X0400142
X0400849Y029555
Y0294136
X0399435
Y0292722
X0398021
X0398728Y0293429
Y0292015
X0397314
Y0293429
X0396607Y0292722
Y0294136
Y029555
X0395192
X03959Y0294843
Y0296257
Y0297672
X0395192Y0296965
Y0298379
Y0299793
X03959Y0299086
Y03005
X0395192Y0301207
X03959Y0301914
X0394485
X0393071
X0393778Y0301207
Y0302621
X0393071Y0303328
X0393778Y0304035
X0392364
X039095
X0391657Y0303328
Y0304743
X0390243
Y0303328
X0388828
X0389535Y0304035
Y0302621
X0388121
Y0301207
X0386707
X0387414Y0301914
Y03005
X0386
X0386707Y0299793
X0387414Y0299086
X0388121Y0299793
X0389535
X0388828Y0299086
Y03005
Y0301914
X0389535Y0301207
X0390243Y0301914
X0391657
X039095Y0301207
Y0302621
X0392364
Y0301207
X0391657Y03005
X0390243
Y0299086
X039095Y0299793
X0391657Y0299086
X0392364Y0299793
X0393778
X0393071Y0299086
Y03005
X0394485
Y0299086
X0393778Y0298379
X0392364
X039095
X0391657Y0297672
X039095Y0296965
X0390243Y0297672
X0388828
X0389535Y0296965
Y0298379
X0388121
X0390243Y0296257
X0391657
X039095Y029555
X0391657Y0294843
X0392364Y029555
X0393778
X0393071Y0294843
Y0296257
Y0297672
X0393778Y0296965
X0392364
X0394485Y0297672
Y0296257
Y0294843
X0393778Y0294136
X0392364
X0393071Y0293429
X0393778Y0292722
X0394485Y0293429
X03959
X0395192Y0292722
Y0294136
X03959Y0292015
Y02906
X0395192Y0291308
X0394485Y0292015
X0398021Y0294136
X0398728Y0294843
X0398021Y029555
X0399435
X0400142Y0296257
X0401556
Y0297672
X0400849Y0296965
X0400142Y0297672
X0399435Y0296965
X0398728Y0297672
X0398021Y0296965
Y0298379
X0399435
Y0299793
X0400142Y0299086
X0400849Y0299793
X0400142Y03005
X0401556
Y0301914
X0402263Y0301207
X0402971Y0301914
X0402263Y0302621
X0400849
Y0301207
X0400142Y0301914
X0399435Y0301207
X0398021
X0398728Y0301914
Y03005
Y0299086
X0398021Y0299793
X0397314Y0299086
X0396607Y0299793
Y0298379
Y0296965
X0397314Y0297672
Y0296257
X0398728
X0397314Y0294843
Y03005
Y0301914
X0396607Y0301207
Y0302621
X0395192
X03959Y0303328
X0395192Y0304035
X0396607
X0397314Y0303328
X0398728
X0398021Y0304035
Y0302621
X0399435
Y0304035
X0400142Y0303328
X0400849Y0304035
X0401556Y0303328
X0400142Y0304743
X0398728
X0397314
Y0306157
X0398021Y030545
X0398728Y0306157
X0399435Y030545
X0398021Y0306864
X0396607
Y030545
X0395192
X03959Y0306157
Y0304743
X0394485
Y0303328
X0393071Y0304743
X0393778Y030545
X0393071Y0306157
X0394485
X0395192Y0306864
X03959Y0307571
X0395192Y0308278
X0396607
X0397314Y0307571
X0394485
Y0308985
X03959
X0395192Y0309692
X0393778Y0308278
X0393071Y0307571
X0393778Y0306864
X0392364
Y030545
X039095
X0391657Y0306157
X0403678Y0301207
Y0299793
X0404385Y0299086
X0405092Y0299793
X0405799Y0299086
X0404385Y03005
X0402971
Y0299086
X0402263Y0299793
Y0298379
X0401556Y0299086
X0400849Y0298379
X0403678Y029555
X0405799Y0293429
X03845Y0287991
X03755Y02855
X0374117Y0286117
X0373Y0284
X0372563Y0297012
X0374138
X0375713Y0297012
X0369Y03005
X03575Y03015
X0353323Y0298421
X0348335Y0300383
X0346943Y0299234
X0345551Y0297842
X0344159Y029645
X0342767Y0295058
X03415Y0293541
X0342616Y0289
X0338592Y0287
X0331
X032677Y02895
X0328144Y0293666
X032676Y0295058
X0325368Y029639
X0323976Y0297842
X0321721Y0298242
X0322584Y0299234
X0313848Y029087
X0312848Y0311328
X0352606Y0304896
X0354025Y0306193
X03575Y02785
X03595Y02715
X0362925Y02685
X03745Y02705
X03715Y02635
X03725Y0262
X03745Y02575
X03805Y0255
X03865Y02585
X038Y0264
X03935Y02655
X0385Y0275
X03905Y02815
X03435Y02445
X0339
X0343Y0224
X03445Y02205
Y0219086
X0345207Y0219793
X0345914Y0219086
X0345207Y0218379
X0346621
Y0216965
X0347328Y0217672
X0348036Y0216965
X0347328Y0216257
X0348743
Y0214843
X034945Y021555
X0350157Y0214843
X034945Y0214136
Y0212722
X0350157Y0213429
X0348743
X0347328
X0348036Y0212722
Y0214136
Y021555
X0347328Y0214843
X0346621Y021555
Y0214136
Y0212722
X0345914Y0213429
X0345207Y0212722
Y0214136
X0345914Y0214843
X0345207Y021555
X0345914Y0216257
Y0217672
X0345207Y0216965
X03445Y0217672
Y0216257
Y0214843
X0343793Y021555
X0343086Y0214843
Y0216257
X0343793Y0216965
X0343086Y0217672
X0343793Y0218379
Y0219793
X0343086Y0219086
X0342379Y0218379
Y0216965
X0341672Y0217672
X0340965Y0216965
X0341672Y0216257
Y0214843
X0340965Y021555
X0342379
Y0214136
X0343793
Y0212722
X0343086Y0213429
X03445
Y0212015
X0345914
X0345207Y0211308
X0345914Y02106
X03445
X0343793Y0211308
X0343086Y02106
Y0212015
X0342379Y0212722
X0341672Y0213429
X0340965Y0212722
Y0214136
X0340257Y0214843
Y0216257
X033955Y021555
X0338843Y0214843
X033955Y0214136
Y0212722
X0338843Y0213429
X0340257
Y0212015
X0341672
Y02106
X0340965Y0211308
X0342379
Y0209893
X0343793
X0343086Y0209186
Y0207772
X0343793Y0208479
X0342379
X0341672Y0207772
X0340965Y0208479
X0341672Y0209186
X0340965Y0209893
X0340257Y02106
X033955Y0211308
X0338843Y02106
Y0212015
X0338136Y0212722
Y0214136
X0337429Y0213429
X0336722Y0212722
X0337429Y0212015
Y02106
X0336722Y0211308
X0338136
Y0209893
X033955
X0338843Y0209186
X0340257
Y0207772
X0338843
X033955Y0208479
X0338136
X0336722
X0337429Y0207772
X0336015
X03346
X0335308Y0208479
X0333893
X0333186Y0207772
X0331772
X0332479Y0208479
Y0207065
X0331065
Y0205651
X0329651
X0330358Y0206358
Y0204944
X0328944
Y0203529
X0328237Y0204237
X0329651
X0330358Y0203529
X0329651Y0202822
X0330358Y0202115
X0331065Y0201408
Y0202822
Y0204237
X0331772Y0203529
X0332479Y0204237
Y0202822
X0331772Y0202115
X0332479Y0201408
X0331772Y0200701
X0332479Y0199994
X0333186Y0199287
Y0200701
Y0202115
X0333893Y0201408
Y0202822
Y0204237
X0333186Y0203529
Y0204944
X0331772
Y0206358
X0332479Y0205651
X0333186Y0206358
X0333893Y0205651
Y0207065
X0335308
X03346Y0206358
X0335308Y0205651
X03346Y0204944
Y0203529
X0335308Y0204237
Y0202822
X03346Y0202115
X0335308Y0201408
X03346Y0200701
Y0199287
X0335308Y0199994
X0333893
Y019858
X0335308
X03346Y0197873
X0335308Y0197166
X0336015Y0197873
Y0196458
X0337429
X0336722Y0195751
X0337429Y0195044
X0338136Y0195751
Y0197166
X0336722
X0337429Y0197873
X0336722Y019858
Y0199994
X0337429Y0199287
X0336015
Y0200701
Y0202115
X0336722Y0201408
X0337429Y0202115
X0336722Y0202822
Y0204237
X0337429Y0203529
X0336015
Y0204944
Y0206358
X0336722Y0205651
X0337429Y0206358
Y0204944
X0338136Y0204237
Y0202822
Y0201408
X0338843Y0202115
X033955Y0201408
X0338843Y0200701
Y0199287
X033955Y0199994
X0338136
Y019858
X033955
X0338843Y0197873
X033955Y0197166
X0338843Y0196458
X0340257Y0197873
Y0199287
Y0200701
Y0202115
X0340965Y0201408
X0341672Y0202115
Y0200701
X0340965Y0199994
X0341672Y0199287
X0340965Y019858
X0342379Y0199994
Y0201408
Y0202822
X0340965
Y0204237
X0341672Y0203529
X0340257
X0338843
X033955Y0204237
X0338843Y0204944
Y0206358
X033955Y0205651
X0338136
Y0207065
X0336722
X0337429Y0209186
X0336015
X03346
X0335308Y0209893
X0333893
X0333186Y0209186
X03346Y02106
X0335308Y0211308
X0336015Y02106
Y0212015
X0336722Y0209893
X033955Y0207065
X0340257Y0206358
Y0204944
X0341672
X0340965Y0205651
X0341672Y0206358
X0340965Y0207065
X0342379
X0343793
X0343086Y0206358
X0343793Y0205651
X03445Y0206358
Y0204944
X0345914
X0345207Y0204237
X0345914Y0203529
X0346621Y0204237
Y0205651
X0345207
X0345914Y0206358
X0345207Y0207065
Y0208479
X0345914Y0207772
X03445
Y0209186
X0345914
X0345207Y0209893
X0346621
Y0211308
X0347328Y02106
X0348036Y0211308
Y0209893
X0347328Y0209186
Y0207772
X0348036Y0208479
X0346621
Y0207065
X0348036
X0347328Y0206358
X0348036Y0205651
X0347328Y0204944
X0348743Y0206358
Y0207772
Y0209186
X0350157
X034945Y0208479
X0350157Y0207772
X034945Y0207065
X0350864Y0208479
Y0209893
X034945
Y0211308
X0350157Y02106
X0348743
Y0212015
X0347328
X0350157
X0350864Y0211308
X0351571Y02106
X0352278Y0211308
Y0209893
X0351571Y0209186
Y0212015
X0352985
Y02106
X0353692Y0211308
X0352278Y0212722
X0351571Y0213429
X0350864Y0212722
Y0214136
X0345207Y0202822
X0343793
X0343086Y0202115
X0343793Y0201408
X0343086Y0200701
X03445Y0202115
Y0203529
X0343086
X0343793Y0204237
X0342379
X0343086Y0204944
X0342379Y0205651
X033955Y0202822
X0337429Y0200701
X0334Y02185
X0312764Y0200121
Y0198707
X0313471Y0199414
X0314178Y0198707
Y0197293
Y0195879
Y0194465
X0315592
X0314885Y0195172
Y0193757
X0315592Y019305
X0314885Y0192343
X0314178Y019305
X0313471Y0192343
X0312764Y019305
Y0191636
X0314178
X0315592
X0314885Y0190929
X0315592Y0190222
X0316299Y0190929
X0317713
X0317006Y0190222
X031842
X0319127Y0190929
X0319834Y0190222
X0319127Y0189515
X0320542
Y0190929
X0321249Y0190222
X0321956Y0190929
X0321249Y0191636
X0319834
X031842
X0317006
Y019305
X0317713Y0192343
X0316299
Y0193757
X0317713
X0317006Y0194465
X0317713Y0195172
X031842Y0194465
Y019305
X0319127Y0192343
X0319834Y019305
X0320542Y0192343
X0319127Y0193757
X0316299Y0195172
X0317006Y0195879
X0315592
X0314885Y0196586
X0315592Y0197293
X0316299Y0196586
X0314885Y0198
X0313471
Y0196586
X0312764Y0197293
Y0195879
Y0194465
X0313471Y0195172
Y0193757
Y0190929
X0312764Y0190222
X0314178
X0314885Y0189515
X0316299
X0317713
Y0188101
X0317006Y0188808
X031842
X0319834
X0319127Y0188101
X031842Y0187393
X0317006
X0317713Y0186686
X0316299
X0314885
X0315592Y0187393
Y0188808
X0314885Y0188101
X0316299
X0314178Y0188808
X0313471Y0188101
X0312764Y0188808
X0313471Y0189515
X0312764Y0187393
X0314178
Y0185979
X0315592
X0314885Y0185272
X0316299
X0317006Y0185979
X0315592Y0184565
X0314178
X0312764
X0313471Y0183858
X0312764Y0183151
X0314178
X0314885Y0183858
X0313471Y0182444
X0312764Y0181737
X0313471Y0185272
X0312764Y0185979
X0313471Y0186686
X0351699Y0167494
X0374683Y0167976
X0389Y01705
X03955Y01695
X03925Y0166
X0312056Y0182444
Y0183858
X0311349Y0183151
X0310642Y0183858
X0311349Y0184565
Y0185979
X0310642Y0185272
Y0186686
X0311349Y0187393
Y0188808
X0310642Y0188101
Y0189515
X0311349Y0190222
X0310642Y0190929
X0312056
Y0189515
Y0188101
Y0186686
Y0185272
X0309935Y0185979
Y0184565
X0309228Y0185272
X0308521Y0185979
X0309228Y0186686
X0307814
X0308521Y0187393
X0309935
Y0188808
X0309228Y0188101
X0308521Y0188808
X0307814Y0188101
X0307107Y0188808
Y0187393
X0306399Y0188101
X0305692Y0188808
X0306399Y0189515
Y0190929
X0305692Y0190222
Y0191636
Y019305
X0306399Y0192343
Y0193757
Y0195172
X0305692Y0194465
Y0195879
X0307107
Y0197293
X0307814Y0196586
Y0198
X0309228
X0308521Y0198707
X0309228Y0199414
X0309935Y0198707
X0311349
X0310642Y0199414
Y0198
X0312056
Y0196586
X0311349Y0197293
X0310642Y0196586
X0311349Y0195879
X0310642Y0195172
X0311349Y0194465
X0312056Y0195172
Y0193757
X0310642
Y0192343
X0311349Y019305
X0309935
X0309228Y0192343
X0308521Y019305
X0309228Y0193757
Y0195172
X0308521Y0194465
X0309935
Y0195879
Y0197293
X0308521
X0309228Y0196586
X0308521Y0195879
X0307814Y0195172
Y0193757
Y0192343
X0307107Y019305
Y0191636
Y0190222
X0307814Y0190929
Y0189515
X0309228
X0308521Y0190222
X0309228Y0190929
X0308521Y0191636
X0309935
X0311349
X0312056Y0192343
X0309935Y0190222
X0304985Y0190929
X0303571
X0304278Y0190222
Y0191636
Y019305
X0303571Y0192343
X0304985
Y0193757
Y0195172
X0304278Y0194465
X0303571Y0195172
X0304278Y0195879
Y0197293
X0303571Y0196586
X0304985
X0305692Y0197293
X0306399Y0196586
Y0198
X0305692Y0198707
X0306399Y0199414
X0307107Y0198707
Y0200121
Y0201536
X0307814Y0200828
X0309228
X0308521Y0201536
X0309935
X0311349
X0310642Y0200828
Y0202243
X0309228
X0307814
Y0203657
X0307107Y020295
X0306399Y0203657
X0305692Y020295
X0304985Y0203657
X0304278Y020295
X0303571Y0203657
X0302864Y020295
X0302157Y0203657
X030145Y020295
X0302157Y0202243
X030145Y0201536
X0302157Y0200828
X030145Y0200121
X0302157Y0199414
X030145Y0198707
X0302864
X0304278
X0303571Y0199414
Y0198
X0304985
Y0199414
X0305692Y0200121
X0306399Y0200828
X0305692Y0201536
X0306399Y0202243
X0304985
Y0200828
X0304278Y0201536
X0303571Y0200828
Y0202243
X0302864Y0201536
Y0200121
X0304278
X0302864Y0197293
Y0195879
X030145
Y0197293
X0302157Y0196586
Y0198
X0300743
Y0199414
X0299328
X0300036Y0198707
Y0200121
Y0201536
X0299328Y0200828
X0300743
Y0202243
X0298621Y0200121
Y0198707
X0297914Y0199414
X0297207Y0198707
X0297914Y0198
X02965
X0297207Y0197293
X0297914Y0196586
X0298621Y0197293
X0300036
X0299328Y0196586
Y0198
X0300743Y0196586
X0300036Y0195879
X0298621
X0299328Y0195172
X0300036Y0194465
X0300743Y0195172
X0302157
X030145Y0194465
X0302864
X0303571Y0193757
X0302157
X0300743
X030145Y019305
X0302157Y0192343
X0302864Y019305
Y0191636
X0304985Y0189515
X0307107Y0194465
X0307814Y0199414
X0308521Y0200121
X0309935
X0311349
X0312056Y0200828
Y0199414
X0309935Y020295
X0309228Y0203657
X0308521Y020295
Y0204364
X0307814Y0205071
X0307107Y0205778
X0306399Y0205071
X0305692Y0205778
X0306399Y0206485
X0305692Y0207192
X0304985Y0206485
Y0205071
X0304278Y0205778
X0303571Y0205071
X0304278Y0204364
X0302864
X0305692
X0307107
X0304Y02465
X0304Y02475
X0303
X0303Y02465
X0302Y02465
X0302Y02475
X0301Y02475
X03Y02475
X03Y02485
X03Y02495
X0299Y02495
X0298Y02495
X0298Y02505
X0299
X03Y02505
X0301Y02505
X0301Y02495
Y02485
X0302Y02485
X0302Y02495
X0302Y02505
X0303Y02505
X0304Y02505
X0304Y02495
Y02485
X0303Y02485
X0303Y02495
X0299Y02485
X0298Y02485
X0297Y02485
X0297Y02495
X0296Y02495
X0295Y02495
X0294Y02495
X0294Y02485
X0295
X0296Y02485
X0296Y02475
X0295Y02475
X0294
X0294Y02465
X0295Y02465
X0296Y02465
X0297Y02465
X0298Y02465
X0298Y02475
X0297Y02475
X0299Y02475
X0299Y02465
X03Y02465
X0301Y02465
X0293Y02465
X0293Y02475
X0293Y02485
X0293Y02495
X0292Y02495
X0291
X0291Y02505
X0292Y02505
X0293Y02505
X0294Y02505
X0295Y02505
X0296Y02505
X0297Y02505
X0292Y02485
X0291Y02485
X0291Y02475
X0291Y02465
X0292Y02465
X0292Y02475
X0283717Y0247153
Y0251484
X0283717Y0255815
X0279386Y0255815
Y0251484
X0279386Y0247153
X02695Y02605
X027Y0277
X0269Y0277
X0268Y0277
X0267Y0277
Y0278
Y0279
X0268Y0279
X0268Y028
Y0281
X0268Y0282
X0268Y0283
X0267Y0283
X0267Y0282
X0267Y0281
X0267Y028
X0266Y028
X0266Y0279
X0266Y0278
X0266Y0277
X0268Y0278
X0269Y0278
X027Y0278
X027Y0279
X0269Y0279
X0269Y028
X027Y028
X027Y0281
X027Y0282
X0269Y0282
X0269Y0281
X0269Y0283
X0269Y0284
X027Y0284
X027Y0283
X027Y0285
X0269Y0285
X0268Y0285
X0268Y0286
X0267Y0286
X0267Y0285
X0267Y0284
X0266Y0284
X0266Y0285
X0266Y0286
X0266Y0287
X0267Y0287
X0268
Y0288
X0267Y0288
X0266Y0288
X0266Y0289
X0266Y029
X0267Y029
X0268
X0269Y029
X0269Y0289
X027Y0289
X027Y0288
X0269Y0288
X0269Y0287
X0269Y0286
X027
X027Y0287
X0268Y0289
X0267Y0289
X0268Y0284
X0266Y0283
X0266Y0282
X0266Y0281
X02625Y0293
X02615Y02945
Y02975
X0262587Y0299087
X0264Y03
X0265Y03
X0265Y0301
X0264Y0301
X0264Y0302
X0265Y0302
X0265Y0303
X0265Y0304
X0265Y0305
X0264Y0305
X0264Y0304
X0264Y0303
X0263Y0303
Y0304
X0263Y0305
X0263Y0306
X0262Y0306
X0262Y0305
X0262Y0304
X0262Y0303
X0261Y0303
X0261Y0302
X0261Y0301
X0262Y0301
Y0302
X0263Y0302
X0263Y0301
X0261Y0304
X0261Y0305
X0261Y0306
X0264Y0306
X0265Y0306
X02694Y02991
X0269388Y02975
X0273937Y0297937
X0270514Y0293
X0258291Y0292709
Y0294362
X0251799Y0296018
X025075Y0291471
X0249859Y0286891
X0249129Y0282282
X0248561Y0277651
X0248154Y0273003
X024791Y0268343
X0247828Y0263678
X024791Y0259013
X0248154Y0254353
X0248561Y0249705
X0249129Y0245074
X0249859Y0240465
X025075Y0235885
X0251799Y0231338
X0253007Y0226831
X0254371Y0222369
X025589Y0217957
X0257562Y0213601
X0259385Y0209306
X0261357Y0205077
X0263476Y020092
X02805Y0286
X0289579Y0287437
X0293516
X0297
Y02855
X03Y02835
X0293516
X0289579
X0299Y02895
X03075Y02865
X0291299Y03075
X025589Y0309398
X0254371Y0304987
X0253007Y0300524
X0257562Y0313755
X0259385Y031805
X0261357Y0322278
X0263476Y0326436
X0265738Y0330517
X0268141Y0334516
X0270682Y033843
X0273359Y0342252
X0276167Y0345978
X0279103Y0349604
X0282164Y0353126
X0285347Y0356538
X0288646Y0359838
X0292058Y036302
X029558Y0366081
X0299206Y0369018
X0302932Y0371826
X0306755Y0374502
X0310668Y0377043
X0298778Y0316464
X0298071Y0315757
X0299485Y0315757
X0298778Y031505
X0298071Y0314343
X0296657Y0314343
X0297364Y0313636
X0296657Y0312929
X029595Y0313636
X029595Y031505
X0296657Y0315757
X0297364Y031505
X0297364Y0316464
X0298071Y0317172
X0296657Y0317172
X0297364Y0317879
X0296657Y0318586
X029595Y0317879
X029595Y0316464
X0295243Y0317171
Y0315757
X0294536Y0316464
X0293829Y0317171
X0293829Y0315757
X0293121Y0316464
X0293121Y0317879
X0293828Y0318586
X0294536Y0317879
X0294536Y0319293
X0295243Y032
X0293829Y032
X0294536Y0320707
X0293829Y0321414
X0293122Y0322121
X0293122Y0320707
X0292414Y0321414
X0291707Y0322121
X0291707Y0320707
X0291Y032
X0290293Y0320707
X0291Y0321414
X0290293Y0322121
X0288879Y0322121
X0289586Y0321414
X0288879Y0320707
X0288172Y0321414
X0288172Y0322828
X0288879Y0323535
X0289586Y0322828
X0289586Y0324242
X0290293Y032495
X0289586Y0325657
X0288172Y0325657
X0288879Y0326364
X0288172Y0327071
X0287465Y0326364
X0286757Y0327071
X0287465Y0327778
X028605Y0326364
X0286757Y0325657
X028605Y032495
X0285343Y0325657
X0284636Y032495
X0285343Y0324242
X028605Y0323535
X0287464Y0323535
X0286757Y0322828
X0287465Y0322121
X0286757Y0324242
X0287465Y032495
X0288172Y0324242
X0288879Y032495
X0291Y0324242
X0290293Y0323535
X0291Y0322828
X0291707Y0323535
X0292414Y0322828
X0292414Y032
X0293121Y0319293
X0292414Y0318586
X0291707Y0319293
X0290293Y0319293
X0291Y0318585
X0291707Y0317879
X0292414Y0317171
X0294536Y031505
X0295243Y0314343
X0295243Y0318586
X029595Y0319293
X0289586Y032
X0235Y0323
X0312735Y0319484
X0321848Y032137
X0323976Y0322334
X0324444Y0324695
X0325348Y032937
X032303Y0328938
X0329394Y0327919
X0330605Y0329514
X0334348Y0337652
X0333348Y033887
X0336348Y034037
X0338541Y0346326
X0339655Y0345212
X0340769Y0344099
X0342923
X0342029Y0342985
X0341882Y0345212
X0344109
X0345104Y0344
X0347681Y0343997
X0349677Y0344099
X0348563Y0345212
X0350791
X0351796Y034399
X0351904Y0341872
X0350791Y0340758
X0349677Y0341872
Y0339645
X034878Y0338531
X03465Y03385
X034745Y0339645
X034745Y0341872
X03465Y0341
X0352853Y0339147
X0352Y03375
X0353018Y0342985
X0356358Y0346326
X0356358Y0348553
X0354449Y03485
X0355245Y0349667
X0353018Y0351894
X0352Y0353
X0354131Y0353007
X0355245Y0354121
X0357472
X0356358Y0355234
X0355397Y03565
X03565Y03575
X0355245Y0358575
X0353072Y0356293
X0350767Y0360665
X0349677Y0361916
X0351904Y0361916
X03555Y0365
X03585Y03615
X0362Y0364
X0364Y036
X03645Y0354
X0359699Y0351894
Y0349606
X0358585Y0348553
X0362825Y0346106
X0362981Y0344141
X03615Y0342
X0364Y03415
X0370813Y0343335
X0369Y03465
X0375531Y0348553
X0372Y03535
X03805Y0362
X03905Y036
X03975Y0357
X04005Y03575
X0401086Y0345586
X0405Y03325
X04145Y0328
X04185Y0331
X0419914
X0419207Y0331707
X0419914Y0332414
X0420621Y0331707
Y0333121
X0422036
X0421328Y0333828
X0422036Y0334536
X0422743Y0333828
Y0335243
X0424157
X042345Y033595
X0424157Y0336657
X0424864Y033595
X0426278
X0425571Y0336657
Y0335243
Y0333828
X0426278Y0334536
X0424864
X042345
X0424157Y0333828
X042345Y0333121
X0424864
X0426278
X0425571Y0332414
X0426278Y0331707
X0424864
X0424157Y0332414
X042345Y0331707
X0422743Y0332414
X0421328
X0422036Y0331707
X0421328Y0331
X0422743
X0424157
X042345Y0330293
X0424157Y0329586
X0422743
X0422036Y0330293
X0421328Y0329586
X0420621Y0330293
X0419207
X0419914Y0329586
X0420621Y0328879
X0422036
X0421328Y0328172
X0422036Y0327465
X0422743Y0328172
X0424157
X042345Y0327465
Y0328879
X0424864
Y0330293
X0426278
X0425571Y0329586
Y0331
X0426985
Y0332414
X0427692Y0331707
X04284Y0332414
Y0331
X0427692Y0330293
X04284Y0329586
X0426985
X0426278Y0328879
X0425571Y0328172
X0426278Y0327465
X0424864
X0424157Y0326757
X0422743
X042345Y032605
X0424157Y0325343
X0424864Y032605
X0426278
X0425571Y0325343
Y0326757
X0426985
Y0328172
X04284
X0427692Y0327465
Y0328879
X0429107
Y0330293
X0429814Y0329586
X0430521Y0330293
Y0328879
Y0327465
X0429814Y0328172
X0429107Y0327465
X04284Y0326757
X0427692Y032605
X04284Y0325343
X0426985
X0426278Y0324636
X0424864
X0425571Y0323929
X0426278Y0323222
X0426985Y0323929
X04284
X0427692Y0323222
Y0324636
X0429107
Y032605
X0429814Y0325343
Y0326757
X0430521Y032605
X0431228Y0325343
X0430521Y0324636
Y0323222
X0431228Y0323929
Y0322515
Y03211
X0430521Y0321808
Y0320393
X0431228Y0319686
Y0318272
X0430521Y0318979
X0431935
Y0317565
X0433349
Y0316151
X0432642Y0316858
X0434056
Y0315444
X0435471
X0434763Y0314737
Y0316151
X0435471Y0316858
X0436178Y0316151
X0436885Y0316858
X0437592Y0317565
X0436178
X0434763
X0435471Y0318272
X0434763Y0318979
X0436178
X0436885Y0318272
X0437592Y0318979
X0438299Y0318272
X0439006Y0318979
X0439713Y0319686
X0438299
X0436885
X0437592Y0320393
X0436178
X0434763
X0435471Y0319686
X0434056
Y0318272
X0432642
X0433349Y0318979
X0432642Y0319686
X0433349Y0320393
X0431935
Y0321808
X0432642Y03211
X0433349Y0321808
X0434056Y03211
X0435471
X0434763Y0321808
X0436178
X0436885Y03211
X0437592Y0321808
X0438299Y03211
X0439713
X0439006Y0321808
Y0320393
X044042
Y0321808
X0441127Y03211
X0441834Y0321808
X0441127Y0322515
X0442542
Y0323929
X0443249Y0323222
X0443956Y0323929
X0443249Y0324636
X0441834
Y0323222
X0441127Y0323929
X044042Y0323222
X0439006
X0439713Y0323929
Y0322515
X0438299
X0436885
X0437592Y0323222
X0436885Y0323929
X0436178Y0323222
X0434763
X0435471Y0323929
Y0322515
X0434056
X0432642
X0433349Y0323222
X0432642Y0323929
X0434056
X0434763Y0324636
X0436178
X0437592
X0436885Y0325343
X0437592Y032605
X0438299Y0325343
X0439713
X0439006Y032605
Y0324636
X044042
Y032605
X0441127Y0325343
X0441834Y032605
X0442542Y0325343
X0441127Y0326757
X0439713
X0438299
X0436885
X0437592Y0327465
X0436885Y0328172
X0438299
X0439006Y0327465
X0439713Y0328172
X044042Y0327465
X0439006Y0328879
X0437592
X0436178
Y0327465
X0434763
X0435471Y0328172
Y0326757
Y0325343
X0434763Y032605
X0434056Y0325343
X0432642
X0433349Y032605
Y0324636
X0431935
Y0323222
X0429814Y0323929
Y0322515
Y03211
X0429107Y0321808
Y0320393
X0429814Y0319686
X04284Y03211
X0427692Y0321808
X04284Y0322515
X0426985
X0429107Y0323222
X0431935Y032605
X0432642Y0326757
X0434056
Y0328172
X0433349Y0327465
X0432642Y0328172
X0433349Y0328879
X0432642Y0329586
X0433349Y0330293
X0432642Y0331
X0434056
Y0332414
X0434763Y0331707
X0435471Y0332414
X0434763Y0333121
X0433349
Y0331707
X0432642Y0332414
X0431935Y0331707
X0430521
X0429814Y0332414
Y0331
X0429107Y0331707
Y0333121
X0427692
X04284Y0333828
X0427692Y0334536
X0426985Y0333828
Y0335243
X04284Y0336657
X0429107Y033595
X0429814Y0336657
Y0335243
X0431228
Y0333828
X0430521Y0334536
X0431935
Y0333121
X0432642Y0333828
X0433349Y0334536
X0434056Y0333828
X0432642Y0335243
X0431935Y033595
X0430521
X0431228Y0336657
X0430521Y0337364
X0429107
X0427692
X04284Y0338071
X0427692Y0338778
X0429107
X0429814Y0338071
X0426985
Y0339485
X04284
X0427692Y0340192
X0426278Y0338778
X0424864Y0337364
X04365Y03365
X0436178Y0331707
Y0330293
X0436885Y0329586
X0437592Y0330293
X0438299Y0329586
X0436885Y0331
X0435471
Y0329586
X0434763Y0330293
Y0328879
X0434056Y0329586
X0436178Y032605
X0438299Y0323929
X04625Y03215
X0461904Y0355355
X0461197Y0356062
X0461904Y0356769
X0463318Y0356769
X0462611Y0356062
X0462611Y0357476
X0461904Y0358183
X0461197Y0357476
X046049Y0358184
X0461197Y0358891
X046049Y0356769
X0459075Y0356769
X0459782Y0356062
X0459075Y0355355
X0458368Y0356062
X0459782Y0357476
X0460489Y0355355
X0459783Y0354648
X0461197Y0354648
X046049Y0353941
X0456134Y0357536
X0456634Y0358402
X0455768Y0358902
X0455268Y0358036
X0454402Y0358536
X0454902Y0359402
X0454036Y0359902
X0454536Y0360768
X0455402Y0360268
X0456268Y0359768
X0456768Y0360634
X0457268Y03615
X0458134Y0361
X0457634Y0360134
X0457134Y0359268
X0455902Y0361134
X0455036Y0361634
X0455536Y03625
X0456402Y0362
X0453536Y0359036
X0459Y03715
X0457412Y0376432
X04475Y0384
X0438355Y0385445
X04385Y03765
X0432134Y0376
X0431268Y03765
X0430402Y0377
X0429536Y03775
X0429036Y0376634
X0429902Y0376134
X0429402Y0375268
X0430268Y0374768
X0430768Y0375634
X0431634Y0375134
X0431134Y0374268
X0430634Y0373402
X0430134Y0372536
X0429268Y0373036
X0429768Y0373902
X0428902Y0374402
X0428402Y0373536
X0427536Y0374036
X0428036Y0374902
X0428536Y0375768
X0425101Y0376072
X0424161Y0376414
X0424503Y0377354
X0423563Y0377695
X0423221Y0376756
X0422879Y0375816
X042194Y0376158
X0422282Y0377098
X0422624Y0378038
X0422966Y0378977
X0423308Y0379917
X0424247Y0379575
X0423906Y0378635
X0424845Y0378293
X0425187Y0379233
X0426127Y0378891
X0425785Y0377951
X0425443Y0377011
X0424759Y0375132
X0423819Y0375474
X0424438Y03852
X0411Y03885
X0407Y0397
X0397627Y0388391
X0397285Y0387451
X0396943Y0386511
X0396003Y0386854
X0395063Y0387195
X0394721Y0386256
X0395661Y0385914
X0396601Y0385572
X0396259Y0384632
X0395319Y0384974
X0394379Y0385316
X039344Y0385658
X0393782Y0386598
X0394124Y0387538
X0394466Y0388477
X0394808Y0389417
X0395747Y0389075
X0395406Y0388135
X0396345Y0387793
X0396687Y0388733
X0353713Y0394435
X0349167Y0393385
X034466Y0392177
X0340198Y0390813
X0335786Y0389294
X033143Y0387622
X0327135Y0385799
X0322906Y0383827
X0318748Y0381708
X0314667Y0379446
X03295Y0363
X0331954Y0365319
X0334Y03675
X03365Y037
X0338636Y0372
X0343Y03615
X0341Y03595
X0345223Y0357461
X034745Y0357461
X0348478Y0358575
X034745Y0359688
X0346336Y0360802
X0347438Y035078
X0346336Y0349667
X0345223Y0348553
X0344109Y0347439
X0342996Y0346326
X0345223Y035078
X0342996Y0353007
X0339655Y0354121
X03365Y0354
X0349619Y0350838
X0349677Y0348553
X03495Y03305
X0345
X0352183Y0325438
X03585Y03265
X0364Y03285
X03645Y03305
X036424Y0321978
X036124Y0318978
X03555Y03185
X0354142Y0314088
X0349546Y0317977
X035785Y0336302
X0324523Y03415
X0314Y03395
X0426Y03535
X0434Y0348
X04445Y03705
X0466735Y0367265
X0473172Y036
X0478721Y0356103
X04755Y0349
X0489Y0346353
X0483086Y0334914
X0482379Y0335621
X0481671Y0334914
X0480964Y0335621
X0481671Y0336328
X0480965Y0334207
X0481672Y03335
X0482379Y0334207
X0483793Y0334207
X0483086Y03335
X0482379Y0332793
X0480964Y0332793
X0480257Y0332086
X0481671Y0332086
X0480964Y0331379
X047955Y0332793
X0480257Y03335
X047955Y0334207
X0480257Y0334914
X0478843Y03335
X04705Y0316
M30
