M48
;Layer_Color=9474304
;FILE_FORMAT=2:5
INCH,LZ
;TYPE=PLATED
T1F00S00C0.00787
%
T01
X016Y053
X0165
X017
X0175
X018
X0185
X019
X0195177Y0529921
X0195276Y0527362
X0195177Y0532579
X019498Y0535925
X01875Y0535
X01825
X01775
X01725
X01675
X01625
X016Y054
X0165
X017
X0175
X018
X0185
X0182579Y054498
X0177657Y054498
X018Y055
X0175
X017
X0165
X016
X01575Y0545
Y0555
X01625
X01675
X01725
X0175Y058
X0174508Y0582087
X0177756Y0580413
X0175Y059
X0181004Y0589567
X0181496Y0598425
X0188386Y0595571
X0191535Y0598425
X019Y059
X01875Y0585
X0192815Y0583858
X0195374Y0585217
X0200886Y0582087
X020315Y0580315
X0203346Y0570866
X021Y057
X0213484Y057126
X02075Y0575
X0220079Y0574606
X02275Y0575
X023002Y0577461
X0235Y058
X02325Y0585
X02375
X0235Y059
X02375Y0595
X0236417Y0604823
X023Y06
X0220571Y0602461
X02225Y0605
X0221161Y0608366
X0225Y061
X02225Y0615
X02275
X0225Y062
X023
X02175Y0605
X0217421Y0600689
X0215256Y0597638
X0215354Y0595079
X0217618Y0581791
X0225Y058
X0226673Y0586713
X0235Y057
X02325Y0565
X02375
X0235Y056
X02375Y0555
X0235Y055
X02325Y0545
X02375
X0235Y054
X0235433Y053563
X0235236Y0532579
X0235236Y0530118
Y0527658
X023Y053
X0225
X022
X0215
X021
X0205512Y0528839
Y0531299
Y0534842
Y0536909
X02125Y0535
X02175
X02225
X02275
X0225Y054
X022
X0215
X0217874Y0544783
X0216142Y0557874
X02225Y0555
X0225098Y0555807
X023Y054
X02Y053
X0205Y056
X0204046Y0590354
X0203248Y0606496
X0199606Y06125
X0190847Y0618504
X0185Y062
X0181496Y062126
X018Y062
X0175
X01775Y0615
X0175Y061
X0175098Y0605807
X0171161Y0601575
X0171457Y0598524
X0155Y06
Y059
Y058
Y057
Y055
Y054
X0154737Y0535925
Y0533039
X0154724Y0530315
Y0527756
X0155Y061
Y062
Y063
Y064
Y065
Y066
Y067
Y068
X016
X0165
X0168209Y0677854
X01675Y0675
X016811Y0672638
X0163779Y0671457
X01625Y0675
X01575
X016Y067
X01575Y0685
X01625
X01675
X0167717Y0653248
X0169193Y0644882
X0175Y063
X01775Y0625
X01825
X0190462Y0629066
X0223327Y0628937
X0222047Y0635039
X0218504
X02275Y0635
X023Y064
X02275Y0625
X0229528Y0666929
X0230413Y0671555
X02325Y0675
X02375
X0235Y067
X02375Y0665
X0235Y068
X0229528Y067815
Y0683465
X02325Y0685
X02375
M30
