G04*
G04 #@! TF.GenerationSoftware,Altium Limited,Altium Designer,18.0.9 (584)*
G04*
G04 Layer_Color=8388736*
%FSLAX44Y44*%
%MOMM*%
G71*
G01*
G75*
G04:AMPARAMS|DCode=28|XSize=2.8702mm|YSize=1.0668mm|CornerRadius=0.5334mm|HoleSize=0mm|Usage=FLASHONLY|Rotation=270.000|XOffset=0mm|YOffset=0mm|HoleType=Round|Shape=RoundedRectangle|*
%AMROUNDEDRECTD28*
21,1,2.8702,0.0000,0,0,270.0*
21,1,1.8034,1.0668,0,0,270.0*
1,1,1.0668,0.0000,-0.9017*
1,1,1.0668,0.0000,0.9017*
1,1,1.0668,0.0000,0.9017*
1,1,1.0668,0.0000,-0.9017*
%
%ADD28ROUNDEDRECTD28*%
G04:AMPARAMS|DCode=29|XSize=0.6604mm|YSize=1.7526mm|CornerRadius=0.3302mm|HoleSize=0mm|Usage=FLASHONLY|Rotation=180.000|XOffset=0mm|YOffset=0mm|HoleType=Round|Shape=RoundedRectangle|*
%AMROUNDEDRECTD29*
21,1,0.6604,1.0922,0,0,180.0*
21,1,0.0000,1.7526,0,0,180.0*
1,1,0.6604,0.0000,0.5461*
1,1,0.6604,0.0000,0.5461*
1,1,0.6604,0.0000,-0.5461*
1,1,0.6604,0.0000,-0.5461*
%
%ADD29ROUNDEDRECTD29*%
%ADD30R,0.3508X0.9008*%
%ADD31R,0.6508X0.5508*%
%ADD34R,0.6604X0.5588*%
%ADD35R,0.5588X0.6604*%
%ADD37R,0.9652X1.6510*%
%ADD38C,0.2508*%
%ADD39R,0.8008X0.6508*%
%ADD40R,0.5080X0.3556*%
%ADD41R,0.3048X0.6096*%
%ADD42R,0.5588X0.5588*%
G04:AMPARAMS|DCode=44|XSize=2.0508mm|YSize=1.1508mm|CornerRadius=0.3004mm|HoleSize=0mm|Usage=FLASHONLY|Rotation=0.000|XOffset=0mm|YOffset=0mm|HoleType=Round|Shape=RoundedRectangle|*
%AMROUNDEDRECTD44*
21,1,2.0508,0.5500,0,0,0.0*
21,1,1.4500,1.1508,0,0,0.0*
1,1,0.6008,0.7250,-0.2750*
1,1,0.6008,-0.7250,-0.2750*
1,1,0.6008,-0.7250,0.2750*
1,1,0.6008,0.7250,0.2750*
%
%ADD44ROUNDEDRECTD44*%
G04:AMPARAMS|DCode=45|XSize=0.32mm|YSize=0.36mm|CornerRadius=0.08mm|HoleSize=0mm|Usage=FLASHONLY|Rotation=90.000|XOffset=0mm|YOffset=0mm|HoleType=Round|Shape=RoundedRectangle|*
%AMROUNDEDRECTD45*
21,1,0.3200,0.2000,0,0,90.0*
21,1,0.1600,0.3600,0,0,90.0*
1,1,0.1600,0.1000,0.0800*
1,1,0.1600,0.1000,-0.0800*
1,1,0.1600,-0.1000,-0.0800*
1,1,0.1600,-0.1000,0.0800*
%
%ADD45ROUNDEDRECTD45*%
G04:AMPARAMS|DCode=46|XSize=0.32mm|YSize=0.36mm|CornerRadius=0.08mm|HoleSize=0mm|Usage=FLASHONLY|Rotation=0.000|XOffset=0mm|YOffset=0mm|HoleType=Round|Shape=RoundedRectangle|*
%AMROUNDEDRECTD46*
21,1,0.3200,0.2000,0,0,0.0*
21,1,0.1600,0.3600,0,0,0.0*
1,1,0.1600,0.0800,-0.1000*
1,1,0.1600,-0.0800,-0.1000*
1,1,0.1600,-0.0800,0.1000*
1,1,0.1600,0.0800,0.1000*
%
%ADD46ROUNDEDRECTD46*%
G04:AMPARAMS|DCode=47|XSize=0.6096mm|YSize=0.9144mm|CornerRadius=0.1524mm|HoleSize=0mm|Usage=FLASHONLY|Rotation=0.000|XOffset=0mm|YOffset=0mm|HoleType=Round|Shape=RoundedRectangle|*
%AMROUNDEDRECTD47*
21,1,0.6096,0.6096,0,0,0.0*
21,1,0.3048,0.9144,0,0,0.0*
1,1,0.3048,0.1524,-0.3048*
1,1,0.3048,-0.1524,-0.3048*
1,1,0.3048,-0.1524,0.3048*
1,1,0.3048,0.1524,0.3048*
%
%ADD47ROUNDEDRECTD47*%
G04:AMPARAMS|DCode=48|XSize=0.508mm|YSize=0.6096mm|CornerRadius=0.127mm|HoleSize=0mm|Usage=FLASHONLY|Rotation=0.000|XOffset=0mm|YOffset=0mm|HoleType=Round|Shape=RoundedRectangle|*
%AMROUNDEDRECTD48*
21,1,0.5080,0.3556,0,0,0.0*
21,1,0.2540,0.6096,0,0,0.0*
1,1,0.2540,0.1270,-0.1778*
1,1,0.2540,-0.1270,-0.1778*
1,1,0.2540,-0.1270,0.1778*
1,1,0.2540,0.1270,0.1778*
%
%ADD48ROUNDEDRECTD48*%
G04:AMPARAMS|DCode=49|XSize=0.7508mm|YSize=0.7508mm|CornerRadius=0.3754mm|HoleSize=0mm|Usage=FLASHONLY|Rotation=90.000|XOffset=0mm|YOffset=0mm|HoleType=Round|Shape=RoundedRectangle|*
%AMROUNDEDRECTD49*
21,1,0.7508,0.0000,0,0,90.0*
21,1,0.0000,0.7508,0,0,90.0*
1,1,0.7508,0.0000,0.0000*
1,1,0.7508,0.0000,0.0000*
1,1,0.7508,0.0000,0.0000*
1,1,0.7508,0.0000,0.0000*
%
%ADD49ROUNDEDRECTD49*%
%ADD50C,0.4508*%
G04:AMPARAMS|DCode=51|XSize=3.0988mm|YSize=1.8288mm|CornerRadius=0.4699mm|HoleSize=0mm|Usage=FLASHONLY|Rotation=0.000|XOffset=0mm|YOffset=0mm|HoleType=Round|Shape=RoundedRectangle|*
%AMROUNDEDRECTD51*
21,1,3.0988,0.8890,0,0,0.0*
21,1,2.1590,1.8288,0,0,0.0*
1,1,0.9398,1.0795,-0.4445*
1,1,0.9398,-1.0795,-0.4445*
1,1,0.9398,-1.0795,0.4445*
1,1,0.9398,1.0795,0.4445*
%
%ADD51ROUNDEDRECTD51*%
%ADD52C,0.8108*%
%ADD53C,6.0508*%
D28*
X337250Y447750D02*
D03*
X260646D02*
D03*
X253500D02*
D03*
X176896D02*
D03*
X337000Y427000D02*
D03*
X260396D02*
D03*
X253046Y427000D02*
D03*
X176442D02*
D03*
D29*
X317692Y416250D02*
D03*
X305246D02*
D03*
X292646Y416250D02*
D03*
X280146Y416250D02*
D03*
X233942D02*
D03*
X221496D02*
D03*
X208896Y416250D02*
D03*
X196396Y416250D02*
D03*
X317500Y458500D02*
D03*
X305000Y458500D02*
D03*
X292400D02*
D03*
X279954D02*
D03*
X233546D02*
D03*
X221046D02*
D03*
X208446D02*
D03*
X196000D02*
D03*
D30*
X337500Y505050D02*
D03*
X344000D02*
D03*
X350500D02*
D03*
X357000D02*
D03*
X337500Y533450D02*
D03*
X344000D02*
D03*
X350500D02*
D03*
X357000D02*
D03*
X176250Y514550D02*
D03*
X182750D02*
D03*
X189250D02*
D03*
X195750D02*
D03*
X176250Y542950D02*
D03*
X182750D02*
D03*
X189250Y542950D02*
D03*
X195750Y542950D02*
D03*
D31*
X346000Y545000D02*
D03*
X336000D02*
D03*
X158000Y493750D02*
D03*
X148000D02*
D03*
D34*
X349250Y482000D02*
D03*
Y492080D02*
D03*
X340000Y492000D02*
D03*
Y481920D02*
D03*
D35*
X326080Y474500D02*
D03*
X316000D02*
D03*
X238330Y479000D02*
D03*
X228250D02*
D03*
X209080D02*
D03*
X199000D02*
D03*
D37*
X168750Y493750D02*
D03*
X197982D02*
D03*
D38*
X214750Y494250D02*
D03*
Y500750D02*
D03*
Y507250D02*
D03*
Y513750D02*
D03*
Y520250D02*
D03*
Y526750D02*
D03*
Y533250D02*
D03*
Y539750D02*
D03*
Y546250D02*
D03*
Y552750D02*
D03*
Y559250D02*
D03*
Y565750D02*
D03*
Y572250D02*
D03*
Y578750D02*
D03*
Y585250D02*
D03*
X221250Y494250D02*
D03*
Y500750D02*
D03*
Y507250D02*
D03*
Y513750D02*
D03*
Y520250D02*
D03*
Y526750D02*
D03*
Y533250D02*
D03*
Y539750D02*
D03*
Y546250D02*
D03*
Y552750D02*
D03*
Y559250D02*
D03*
Y565750D02*
D03*
Y572250D02*
D03*
Y578750D02*
D03*
Y585250D02*
D03*
X227750Y494250D02*
D03*
Y500750D02*
D03*
Y507250D02*
D03*
Y513750D02*
D03*
Y520250D02*
D03*
Y526750D02*
D03*
Y533250D02*
D03*
Y539750D02*
D03*
Y546250D02*
D03*
Y552750D02*
D03*
Y559250D02*
D03*
Y565750D02*
D03*
Y572250D02*
D03*
Y578750D02*
D03*
Y585250D02*
D03*
X234250Y494250D02*
D03*
Y500750D02*
D03*
Y507250D02*
D03*
Y513750D02*
D03*
Y520250D02*
D03*
Y526750D02*
D03*
Y533250D02*
D03*
Y539750D02*
D03*
Y546250D02*
D03*
Y552750D02*
D03*
Y559250D02*
D03*
Y565750D02*
D03*
Y572250D02*
D03*
Y578750D02*
D03*
Y585250D02*
D03*
X240750Y494250D02*
D03*
Y500750D02*
D03*
Y507250D02*
D03*
Y513750D02*
D03*
Y565750D02*
D03*
Y572250D02*
D03*
Y578750D02*
D03*
Y585250D02*
D03*
X247250Y494250D02*
D03*
Y500750D02*
D03*
Y507250D02*
D03*
Y513750D02*
D03*
Y526750D02*
D03*
Y533250D02*
D03*
Y539750D02*
D03*
Y546250D02*
D03*
Y552750D02*
D03*
Y565750D02*
D03*
Y572250D02*
D03*
Y578750D02*
D03*
Y585250D02*
D03*
X253750Y494250D02*
D03*
X253750Y500750D02*
D03*
X253750Y507250D02*
D03*
Y513750D02*
D03*
Y526750D02*
D03*
Y533250D02*
D03*
Y539750D02*
D03*
Y546250D02*
D03*
Y552750D02*
D03*
Y565750D02*
D03*
Y572250D02*
D03*
Y578750D02*
D03*
Y585250D02*
D03*
X260250Y494250D02*
D03*
Y500750D02*
D03*
Y507250D02*
D03*
Y513750D02*
D03*
Y526750D02*
D03*
Y533250D02*
D03*
Y539750D02*
D03*
Y546250D02*
D03*
Y552750D02*
D03*
Y565750D02*
D03*
Y572250D02*
D03*
Y578750D02*
D03*
Y585250D02*
D03*
X266750Y494250D02*
D03*
Y500750D02*
D03*
Y507250D02*
D03*
Y513750D02*
D03*
Y526750D02*
D03*
Y533250D02*
D03*
Y539750D02*
D03*
Y546250D02*
D03*
Y552750D02*
D03*
Y565750D02*
D03*
Y572250D02*
D03*
Y578750D02*
D03*
Y585250D02*
D03*
X273250Y494250D02*
D03*
Y500750D02*
D03*
Y507250D02*
D03*
Y513750D02*
D03*
Y526750D02*
D03*
Y533250D02*
D03*
Y539750D02*
D03*
Y546250D02*
D03*
Y552750D02*
D03*
Y565750D02*
D03*
Y572250D02*
D03*
Y578750D02*
D03*
Y585250D02*
D03*
X279750Y494250D02*
D03*
Y500750D02*
D03*
Y507250D02*
D03*
Y513750D02*
D03*
Y565750D02*
D03*
Y572250D02*
D03*
Y578750D02*
D03*
Y585250D02*
D03*
X286250Y494250D02*
D03*
Y500750D02*
D03*
Y507250D02*
D03*
Y513750D02*
D03*
Y520250D02*
D03*
Y526750D02*
D03*
Y533250D02*
D03*
Y539750D02*
D03*
Y546250D02*
D03*
Y552750D02*
D03*
Y559250D02*
D03*
Y565750D02*
D03*
Y572250D02*
D03*
Y578750D02*
D03*
Y585250D02*
D03*
X292750Y494250D02*
D03*
Y500750D02*
D03*
Y507250D02*
D03*
Y513750D02*
D03*
Y520250D02*
D03*
Y526750D02*
D03*
Y533250D02*
D03*
Y539750D02*
D03*
Y546250D02*
D03*
Y552750D02*
D03*
Y559250D02*
D03*
Y565750D02*
D03*
Y572250D02*
D03*
Y578750D02*
D03*
Y585250D02*
D03*
X299250Y494250D02*
D03*
Y500750D02*
D03*
Y507250D02*
D03*
Y513750D02*
D03*
Y520250D02*
D03*
Y526750D02*
D03*
Y533250D02*
D03*
Y539750D02*
D03*
Y546250D02*
D03*
Y552750D02*
D03*
Y559250D02*
D03*
Y565750D02*
D03*
Y572250D02*
D03*
Y578750D02*
D03*
Y585250D02*
D03*
X305750Y494250D02*
D03*
Y500750D02*
D03*
Y507250D02*
D03*
Y513750D02*
D03*
Y520250D02*
D03*
Y526750D02*
D03*
Y533250D02*
D03*
Y539750D02*
D03*
Y546250D02*
D03*
Y552750D02*
D03*
Y559250D02*
D03*
Y565750D02*
D03*
Y572250D02*
D03*
Y578750D02*
D03*
Y585250D02*
D03*
D39*
X264000Y480000D02*
D03*
Y470000D02*
D03*
X250500Y480000D02*
D03*
Y470000D02*
D03*
D40*
X330500Y566000D02*
D03*
X330500Y576080D02*
D03*
X330500Y571000D02*
D03*
X316892Y576080D02*
D03*
X316892Y571000D02*
D03*
Y566000D02*
D03*
D41*
X143500Y503200D02*
D03*
X148500Y503200D02*
D03*
X153580Y503200D02*
D03*
Y517866D02*
D03*
X148500D02*
D03*
X143500Y517866D02*
D03*
D42*
X148500Y510500D02*
D03*
D44*
X347250Y519250D02*
D03*
X186000Y528750D02*
D03*
D45*
X321250Y556300D02*
D03*
Y550700D02*
D03*
Y527800D02*
D03*
Y522200D02*
D03*
X205500Y526800D02*
D03*
Y521200D02*
D03*
X201000Y561050D02*
D03*
Y555450D02*
D03*
X323000Y507600D02*
D03*
Y502000D02*
D03*
X321500Y488550D02*
D03*
Y482950D02*
D03*
X242500Y472250D02*
D03*
Y466650D02*
D03*
X273000Y480550D02*
D03*
Y474950D02*
D03*
X320500Y590800D02*
D03*
Y585200D02*
D03*
D46*
X321800Y516250D02*
D03*
X316200D02*
D03*
X300800Y472250D02*
D03*
X295200D02*
D03*
X167800Y528750D02*
D03*
X162200D02*
D03*
X293450Y480500D02*
D03*
X299050D02*
D03*
D47*
X190000Y475000D02*
D03*
X176000D02*
D03*
X194750Y587000D02*
D03*
X180750D02*
D03*
X181250Y571500D02*
D03*
X195250D02*
D03*
X145500Y482250D02*
D03*
X159500D02*
D03*
D48*
X152500Y533000D02*
D03*
X144500D02*
D03*
D49*
X284500Y474250D02*
D03*
X218500Y474750D02*
D03*
D50*
X136400Y537250D02*
D03*
X130050D02*
D03*
X123700Y537250D02*
D03*
X117350D02*
D03*
X111000Y537250D02*
D03*
X111000Y524550D02*
D03*
X117350Y524550D02*
D03*
X123700Y524550D02*
D03*
X130050D02*
D03*
X136400Y524550D02*
D03*
X136400Y530900D02*
D03*
X130050Y530900D02*
D03*
X111000Y530900D02*
D03*
X117350Y530900D02*
D03*
X111250Y504550D02*
D03*
X117600D02*
D03*
X123950Y504550D02*
D03*
X130300D02*
D03*
X136650Y504550D02*
D03*
X136650Y517250D02*
D03*
X130300Y517250D02*
D03*
X123950Y517250D02*
D03*
X117600D02*
D03*
X111250Y517250D02*
D03*
X111250Y510900D02*
D03*
X117600Y510900D02*
D03*
X136650Y510900D02*
D03*
X130300D02*
D03*
X111250Y483050D02*
D03*
X117600D02*
D03*
X123950Y483050D02*
D03*
X130300D02*
D03*
X136650Y483050D02*
D03*
X136650Y495750D02*
D03*
X130300Y495750D02*
D03*
X123950Y495750D02*
D03*
X117600D02*
D03*
X111250Y495750D02*
D03*
X111250Y489400D02*
D03*
X117600Y489400D02*
D03*
X136650Y489400D02*
D03*
X130300D02*
D03*
X338767Y466273D02*
D03*
X344482Y505812D02*
D03*
X296238Y426690D02*
D03*
X311750Y426000D02*
D03*
X215750Y431500D02*
D03*
X215250Y425750D02*
D03*
D51*
X123700Y530900D02*
D03*
X123950Y510900D02*
D03*
Y489400D02*
D03*
D52*
X388264Y589660D02*
D03*
X394750Y573500D02*
D03*
X387910Y557486D02*
D03*
X371750Y551000D02*
D03*
X355736Y557840D02*
D03*
X349250Y574000D02*
D03*
X356090Y590014D02*
D03*
X372250Y596500D02*
D03*
X158264Y589660D02*
D03*
X164750Y573500D02*
D03*
X157910Y557486D02*
D03*
X141750Y551000D02*
D03*
X125736Y557840D02*
D03*
X119250Y574000D02*
D03*
X126090Y590014D02*
D03*
X142250Y596500D02*
D03*
Y466250D02*
D03*
X126090Y459763D02*
D03*
X119250Y443750D02*
D03*
X125736Y427590D02*
D03*
X141750Y420750D02*
D03*
X157910Y427236D02*
D03*
X164750Y443250D02*
D03*
X158264Y459410D02*
D03*
X388264D02*
D03*
X394750Y443250D02*
D03*
X387910Y427236D02*
D03*
X371750Y420750D02*
D03*
X355736Y427590D02*
D03*
X349250Y443750D02*
D03*
X356090Y459763D02*
D03*
X372250Y466250D02*
D03*
D53*
X142000Y573750D02*
D03*
X372000D02*
D03*
X142000Y443500D02*
D03*
X372000D02*
D03*
M02*
