G04*
G04 #@! TF.GenerationSoftware,Altium Limited,Altium Designer,18.0.9 (584)*
G04*
G04 Layer_Color=128*
%FSLAX44Y44*%
%MOMM*%
G71*
G01*
G75*
G04:AMPARAMS|DCode=33|XSize=0.3708mm|YSize=0.4108mm|CornerRadius=0.1054mm|HoleSize=0mm|Usage=FLASHONLY|Rotation=0.000|XOffset=0mm|YOffset=0mm|HoleType=Round|Shape=RoundedRectangle|*
%AMROUNDEDRECTD33*
21,1,0.3708,0.2000,0,0,0.0*
21,1,0.1600,0.4108,0,0,0.0*
1,1,0.2108,0.0800,-0.1000*
1,1,0.2108,-0.0800,-0.1000*
1,1,0.2108,-0.0800,0.1000*
1,1,0.2108,0.0800,0.1000*
%
%ADD33ROUNDEDRECTD33*%
%ADD34R,0.6604X0.5588*%
%ADD35R,0.5588X0.6604*%
%ADD86R,1.7526X0.5080*%
%ADD87R,2.1590X1.5494*%
%ADD88R,1.9558X2.4384*%
%ADD89R,1.9558X1.2446*%
%ADD92R,0.9652X0.6604*%
%ADD93R,1.4508X1.1508*%
%ADD94R,1.5508X1.0508*%
%ADD95R,1.0508X0.5508*%
G04:AMPARAMS|DCode=96|XSize=0.5508mm|YSize=1.0508mm|CornerRadius=0.2754mm|HoleSize=0mm|Usage=FLASHONLY|Rotation=270.000|XOffset=0mm|YOffset=0mm|HoleType=Round|Shape=RoundedRectangle|*
%AMROUNDEDRECTD96*
21,1,0.5508,0.5000,0,0,270.0*
21,1,0.0000,1.0508,0,0,270.0*
1,1,0.5508,-0.2500,0.0000*
1,1,0.5508,-0.2500,0.0000*
1,1,0.5508,0.2500,0.0000*
1,1,0.5508,0.2500,0.0000*
%
%ADD96ROUNDEDRECTD96*%
%ADD97R,1.5508X1.2508*%
%ADD98R,1.0508X2.5008*%
%ADD99R,2.5008X1.0508*%
D33*
X346050Y501250D02*
D03*
X340450D02*
D03*
X346050Y514500D02*
D03*
X340450D02*
D03*
D34*
X174000Y472830D02*
D03*
Y462750D02*
D03*
X191750Y419170D02*
D03*
X191750Y429250D02*
D03*
D35*
X286420Y432500D02*
D03*
X296500D02*
D03*
X304920Y432750D02*
D03*
X315000D02*
D03*
X285920Y417500D02*
D03*
X296000D02*
D03*
X304920Y418750D02*
D03*
X315000D02*
D03*
D86*
X363806Y508375D02*
D03*
Y514979D02*
D03*
Y501875D02*
D03*
Y495375D02*
D03*
Y521583D02*
D03*
D87*
X368886Y533521D02*
D03*
Y483375D02*
D03*
D88*
X392000Y538093D02*
D03*
Y478875D02*
D03*
D89*
Y500000D02*
D03*
Y516757D02*
D03*
D92*
X207000Y416250D02*
D03*
Y431370D02*
D03*
X224250Y415750D02*
D03*
Y430870D02*
D03*
X241250Y416000D02*
D03*
Y431120D02*
D03*
X271750Y417000D02*
D03*
Y432120D02*
D03*
D93*
X346250Y475250D02*
D03*
Y490250D02*
D03*
D94*
X147750Y475250D02*
D03*
D95*
X161898Y488250D02*
D03*
D96*
X161898Y496250D02*
D03*
X161898Y504250D02*
D03*
Y512250D02*
D03*
Y520250D02*
D03*
Y528250D02*
D03*
D97*
X147750Y541250D02*
D03*
D98*
X238750Y451750D02*
D03*
X224750D02*
D03*
X252750D02*
D03*
X266750D02*
D03*
X280750D02*
D03*
X308750D02*
D03*
X294750D02*
D03*
X210750D02*
D03*
D99*
X194750Y504750D02*
D03*
Y490750D02*
D03*
Y518750D02*
D03*
Y532750D02*
D03*
Y546750D02*
D03*
Y574750D02*
D03*
Y560750D02*
D03*
Y476750D02*
D03*
X324750D02*
D03*
Y560750D02*
D03*
Y574750D02*
D03*
Y546750D02*
D03*
Y532750D02*
D03*
Y518750D02*
D03*
Y490750D02*
D03*
Y504750D02*
D03*
M02*
