M48
;Layer_Color=9474304
;FILE_FORMAT=4:4
METRIC,LZ
;TYPE=PLATED
T1F00S00C0.2000
T2F00S00C0.5000
T3F00S00C0.7620
T4F00S00C3.0000
%
T01
X00398Y0047
Y0047625
Y004825
Y0048875
X003985Y00534
Y0054025
Y0054675
X0039225
Y005405
X00386
Y0053425
X0039225
X0037625Y0053225
X0037
X0036375
Y005385
X0037
X0037625
X00353017Y00541526
X00343017Y00551277
X00339762Y00554986
X0032125Y0055975
X0032Y0054575
X0030875Y005495
X0029625Y005495
X002955Y00541436
X0028325Y0054325
X002775Y005365
X0027675Y0052375
X002635Y0052175
X002505Y0052175
X0025025Y005105
Y0049725
X002375Y0049868
X0023425Y0048975
X002405Y0048675
X002455Y00476
X0023675Y004725
X0022125Y0048675
X0021451Y00485774
X0020625Y0049
X002105Y0049725
X0022425Y00504
X002245Y0051075
X0021775Y00517
X0023125Y005175
X00228702Y00525564
X00231Y0053
X00230261Y00535276
X00223511Y00543027
X00231Y0054925
X00236762Y00548777
X002505Y005495
X002635Y005495
X0027625Y0054975
X002635Y005365
X002505
X002375Y00524
X002185Y005305
X0021025Y00524
X0018925Y0053575
X0017025Y0054025
X00165474Y005355
X00179509Y00550027
X00179729Y00555807
X0018275Y005785
X002105Y005835
X0021125Y0058875
X00224537Y00582213
X0023075Y0058225
X0024375
X0025025Y00569
X0025725Y0056925
X0026375Y005695
X0022475Y00563
X002245Y00556
X0021825Y0055625
X0021125Y00556
X0020226Y00560777
X0017275Y0050575
X001785Y0049475
X0016825Y0048025
X0015702Y0047552
X0014925Y0048725
X00131684Y0048075
X00131816Y004955
X00131506Y00503525
X00131756Y00511025
X00128934Y005195
X0014075Y0052825
X00156258Y00507775
X00167868Y00463964
X0018375Y004665
X0020126Y00468773
X0019975Y0044625
X0019225Y00448
X001865Y0041875
X0020801Y00425521
X0021525Y0042575
X0021575Y004315
X00227511Y00421771
X0028642Y0042708
X00296238Y0042669
X0030225Y00427
X0031175Y00426
X0030875Y00444
X00296264Y00447772
X002795Y004355
X0027825Y0047
X0027025Y00472
X0028375Y0048525
X0029Y00483
X0028925Y0049125
X0029625Y0049725
X0030875Y004975
Y0048625
X00304015Y00481023
X003273Y0048275
X0033125Y00497
X00344482Y00505812
X00361268Y00508275
X00363806Y00514979
X00363889Y005215
X00367Y0048825
Y00482
X0036075
Y0048825
X0035475Y0048775
X0037325Y0048825
Y00482
X003855Y004825
Y0047625
X0039175
Y0047
Y004825
Y0048875
X003855
X00338767Y00466273
X00330516
X00323Y004615
X0030925Y0052325
X00309738Y00528012
X0030875Y005685
X00308265Y00575528
X00308428Y00582572
X00314Y0058775
X0032445Y005908
X0028275Y0051075
X0027Y005105
X00119Y004895
T02
X00112Y005515
X0017325Y0059925
X002185Y0047475
X002845Y0047425
X0034475Y006
T03
X00125736Y0042759
X0011925Y0044375
X0012609Y00459763
X0014225Y0046625
X00158264Y0045941
X0016475Y0044325
X0015791Y00427236
X0017625Y00431
X0014175Y0042075
X00257Y0042925
X0033675Y00433
X0034925Y0044375
X00355736Y0042759
X0037175Y0042075
X0038791Y00427236
X0039475Y0044325
X00388264Y0045941
X0037225Y0046625
X0035609Y00459763
X00355736Y0055784
X0034925Y00574
X0035609Y00590014
X0037225Y005965
X00388264Y0058966
X0039475Y005735
X0038791Y00557486
X0037175Y00551
X0015791Y00557486
X0014175Y00551
X00125736Y0055784
X0011925Y00574
X0012609Y00590014
X0014225Y005965
X00158264Y0058966
X0016475Y005735
T04
X00142Y004435
Y0057375
X00372
Y004435
M30
