G04*
G04 #@! TF.GenerationSoftware,Altium Limited,Altium Designer,18.0.9 (584)*
G04*
G04 Layer_Physical_Order=4*
G04 Layer_Color=16711680*
%FSLAX44Y44*%
%MOMM*%
G71*
G01*
G75*
%ADD15C,0.1500*%
G04:AMPARAMS|DCode=46|XSize=0.32mm|YSize=0.36mm|CornerRadius=0.08mm|HoleSize=0mm|Usage=FLASHONLY|Rotation=0.000|XOffset=0mm|YOffset=0mm|HoleType=Round|Shape=RoundedRectangle|*
%AMROUNDEDRECTD46*
21,1,0.3200,0.2000,0,0,0.0*
21,1,0.1600,0.3600,0,0,0.0*
1,1,0.1600,0.0800,-0.1000*
1,1,0.1600,-0.0800,-0.1000*
1,1,0.1600,-0.0800,0.1000*
1,1,0.1600,0.0800,0.1000*
%
%ADD46ROUNDEDRECTD46*%
%ADD57R,0.6096X0.5080*%
%ADD58R,0.5080X0.6096*%
%ADD67C,0.2540*%
G04:AMPARAMS|DCode=68|XSize=0.7mm|YSize=0.7mm|CornerRadius=0.35mm|HoleSize=0mm|Usage=FLASHONLY|Rotation=90.000|XOffset=0mm|YOffset=0mm|HoleType=Round|Shape=RoundedRectangle|*
%AMROUNDEDRECTD68*
21,1,0.7000,0.0000,0,0,90.0*
21,1,0.0000,0.7000,0,0,90.0*
1,1,0.7000,0.0000,0.0000*
1,1,0.7000,0.0000,0.0000*
1,1,0.7000,0.0000,0.0000*
1,1,0.7000,0.0000,0.0000*
%
%ADD68ROUNDEDRECTD68*%
%ADD69C,0.4000*%
G04:AMPARAMS|DCode=70|XSize=3.048mm|YSize=1.778mm|CornerRadius=0.4445mm|HoleSize=0mm|Usage=FLASHONLY|Rotation=0.000|XOffset=0mm|YOffset=0mm|HoleType=Round|Shape=RoundedRectangle|*
%AMROUNDEDRECTD70*
21,1,3.0480,0.8890,0,0,0.0*
21,1,2.1590,1.7780,0,0,0.0*
1,1,0.8890,1.0795,-0.4445*
1,1,0.8890,-1.0795,-0.4445*
1,1,0.8890,-1.0795,0.4445*
1,1,0.8890,1.0795,0.4445*
%
%ADD70ROUNDEDRECTD70*%
%ADD71C,0.7600*%
%ADD72C,1.5240*%
%ADD73C,6.0000*%
%ADD74R,1.7018X0.4572*%
%ADD75R,2.1082X1.4986*%
%ADD76R,1.9050X2.3876*%
%ADD77R,1.9050X1.1938*%
%ADD78R,1.0000X2.4500*%
%ADD79R,2.4500X1.0000*%
%ADD80R,0.9144X0.6096*%
%ADD81R,1.4000X1.1000*%
%ADD82R,1.5000X1.0000*%
%ADD83R,1.0000X0.5000*%
G04:AMPARAMS|DCode=84|XSize=0.5mm|YSize=1mm|CornerRadius=0.25mm|HoleSize=0mm|Usage=FLASHONLY|Rotation=270.000|XOffset=0mm|YOffset=0mm|HoleType=Round|Shape=RoundedRectangle|*
%AMROUNDEDRECTD84*
21,1,0.5000,0.5000,0,0,270.0*
21,1,0.0000,1.0000,0,0,270.0*
1,1,0.5000,-0.2500,0.0000*
1,1,0.5000,-0.2500,0.0000*
1,1,0.5000,0.2500,0.0000*
1,1,0.5000,0.2500,0.0000*
%
%ADD84ROUNDEDRECTD84*%
%ADD85R,1.5000X1.2000*%
G36*
X178134Y594500D02*
X178534Y593534D01*
X179500Y593134D01*
X339750D01*
X340716Y593534D01*
X341116Y594500D01*
Y603821D01*
X405634D01*
Y409866D01*
X108366D01*
Y480244D01*
X108444Y480315D01*
X109636Y480807D01*
X110172Y480448D01*
X110678Y480348D01*
X111123Y480050D01*
X113155Y479646D01*
X134745D01*
X136777Y480050D01*
X137222Y480348D01*
X137728Y480448D01*
X138641Y481059D01*
X139252Y481972D01*
X139352Y482478D01*
X139650Y482923D01*
X140054Y484955D01*
Y493845D01*
X139650Y495877D01*
X139352Y496322D01*
X139252Y496828D01*
X138641Y497741D01*
X137728Y498352D01*
X137222Y498452D01*
X136777Y498750D01*
X134745Y499154D01*
X113155D01*
X111123Y498750D01*
X110678Y498452D01*
X110172Y498352D01*
X109636Y497993D01*
X108444Y498485D01*
X108366Y498556D01*
Y501744D01*
X108444Y501815D01*
X109636Y502307D01*
X110172Y501948D01*
X110678Y501848D01*
X111123Y501550D01*
X113155Y501146D01*
X134745D01*
X136777Y501550D01*
X137222Y501848D01*
X137728Y501948D01*
X138641Y502559D01*
X139252Y503472D01*
X139352Y503978D01*
X139650Y504423D01*
X140054Y506455D01*
Y515345D01*
X139785Y516696D01*
X140745Y517816D01*
X157169D01*
X158125Y517177D01*
X159398Y516924D01*
X164398D01*
X165671Y517177D01*
X165673Y517178D01*
X170750D01*
X170750Y517178D01*
X171543Y517336D01*
X172215Y517785D01*
X172392Y517962D01*
X173328Y518148D01*
X174241Y518759D01*
X174852Y519672D01*
X175066Y520750D01*
X174852Y521828D01*
X174241Y522741D01*
X173328Y523352D01*
X172250Y523566D01*
X171172Y523352D01*
X170259Y522741D01*
X169648Y521828D01*
X169548Y521322D01*
X167511D01*
X167471Y521522D01*
X166750Y522601D01*
X165671Y523322D01*
X164398Y523576D01*
X159398D01*
X158125Y523322D01*
X157326Y522788D01*
X156914Y522847D01*
X155896Y523920D01*
X155682Y524998D01*
X155071Y525911D01*
X154158Y526522D01*
X153080Y526736D01*
X152002Y526522D01*
X151089Y525911D01*
X150478Y524998D01*
X150264Y523920D01*
X150401Y523230D01*
X149657Y521960D01*
X139519D01*
X139061Y522505D01*
X138790Y523156D01*
X139002Y523472D01*
X139102Y523978D01*
X139400Y524423D01*
X139804Y526455D01*
Y535345D01*
X139400Y537377D01*
X139102Y537822D01*
X139002Y538328D01*
X138391Y539241D01*
X137478Y539852D01*
X136972Y539953D01*
X136527Y540250D01*
X134495Y540654D01*
X112905D01*
X110873Y540250D01*
X110428Y539952D01*
X109922Y539852D01*
X109636Y539660D01*
X108366Y540339D01*
Y604446D01*
X178134D01*
Y594500D01*
D02*
G37*
%LPC*%
G36*
X314000Y590566D02*
X312922Y590352D01*
X312009Y589741D01*
X311398Y588828D01*
X311184Y587750D01*
X311398Y586672D01*
X312009Y585759D01*
X312922Y585148D01*
X314000Y584934D01*
X315078Y585148D01*
X315991Y585759D01*
X316602Y586672D01*
X316816Y587750D01*
X316602Y588828D01*
X315991Y589741D01*
X315078Y590352D01*
X314000Y590566D01*
D02*
G37*
G36*
X230750Y585066D02*
X229672Y584852D01*
X228759Y584241D01*
X228337Y583610D01*
X228039Y583531D01*
X227317Y583520D01*
X226926Y583610D01*
X226528Y584205D01*
X225614Y584815D01*
X224537Y585029D01*
X223459Y584815D01*
X222545Y584205D01*
X221935Y583291D01*
X221721Y582213D01*
X221935Y581136D01*
X222545Y580222D01*
X223459Y579612D01*
X224537Y579397D01*
X225614Y579612D01*
X226528Y580222D01*
X226950Y580854D01*
X227248Y580933D01*
X227970Y580944D01*
X228361Y580854D01*
X228759Y580259D01*
X229672Y579648D01*
X230750Y579434D01*
X231828Y579648D01*
X232741Y580259D01*
X233352Y581172D01*
X233566Y582250D01*
X233352Y583328D01*
X232741Y584241D01*
X231828Y584852D01*
X230750Y585066D01*
D02*
G37*
G36*
X211250Y591566D02*
X210172Y591352D01*
X209259Y590741D01*
X208648Y589828D01*
X208434Y588750D01*
X208648Y587672D01*
X208961Y587205D01*
X209198Y586637D01*
X208689Y585612D01*
X208509Y585491D01*
X207898Y584578D01*
X207684Y583500D01*
X207898Y582422D01*
X208509Y581509D01*
X209422Y580898D01*
X210500Y580684D01*
X211578Y580898D01*
X212491Y581509D01*
X213102Y582422D01*
X213316Y583500D01*
X213102Y584578D01*
X212789Y585046D01*
X212552Y585613D01*
X213061Y586638D01*
X213241Y586759D01*
X213852Y587672D01*
X214066Y588750D01*
X213852Y589828D01*
X213241Y590741D01*
X212328Y591352D01*
X211250Y591566D01*
D02*
G37*
G36*
X243750Y585066D02*
X242672Y584852D01*
X241759Y584241D01*
X241148Y583328D01*
X240934Y582250D01*
X241148Y581172D01*
X241759Y580259D01*
X242672Y579648D01*
X243750Y579434D01*
X244828Y579648D01*
X245741Y580259D01*
X246352Y581172D01*
X246566Y582250D01*
X246352Y583328D01*
X245741Y584241D01*
X244828Y584852D01*
X243750Y585066D01*
D02*
G37*
G36*
X308428Y585388D02*
X307350Y585174D01*
X306437Y584563D01*
X305826Y583650D01*
X305612Y582572D01*
X305826Y581494D01*
X306437Y580581D01*
X307350Y579970D01*
X308428Y579756D01*
X309506Y579970D01*
X310239Y580460D01*
X310419Y580581D01*
X310621Y580637D01*
X311738Y579874D01*
X311738Y579310D01*
Y577588D01*
X310468Y577203D01*
X310256Y577519D01*
X309343Y578130D01*
X308265Y578344D01*
X307187Y578130D01*
X306274Y577519D01*
X305663Y576606D01*
X305449Y575528D01*
X305663Y574450D01*
X306274Y573537D01*
X307187Y572926D01*
X308265Y572712D01*
X309343Y572926D01*
X310256Y573537D01*
X310468Y573853D01*
X311738Y573468D01*
Y571236D01*
X311428Y571005D01*
X310468Y570674D01*
X309828Y571102D01*
X308750Y571316D01*
X307672Y571102D01*
X306759Y570491D01*
X306148Y569578D01*
X305934Y568500D01*
X306148Y567422D01*
X306759Y566509D01*
X307672Y565898D01*
X308750Y565684D01*
X309828Y565898D01*
X310741Y566509D01*
X311352Y567422D01*
X311436Y567843D01*
X311614Y568520D01*
X312764Y568988D01*
X337762D01*
Y580512D01*
X312946D01*
X312075Y580512D01*
X311867Y580550D01*
X311041Y581468D01*
X311040Y581471D01*
X311107Y581881D01*
X311030Y581494D01*
X311040Y581471D01*
X311030Y581494D01*
X311132Y582008D01*
X311244Y582572D01*
X311030Y583650D01*
X310419Y584563D01*
X309506Y585174D01*
X308428Y585388D01*
D02*
G37*
G36*
X263750Y572316D02*
X262672Y572102D01*
X261759Y571491D01*
X261148Y570578D01*
X261123Y570449D01*
X260060Y570348D01*
X259815Y570383D01*
X259241Y571241D01*
X258328Y571852D01*
X257250Y572066D01*
X256172Y571852D01*
X255259Y571241D01*
X254648Y570328D01*
X254434Y569250D01*
X254648Y568172D01*
X255259Y567259D01*
X256172Y566648D01*
X257250Y566434D01*
X258328Y566648D01*
X259241Y567259D01*
X259852Y568172D01*
X259877Y568301D01*
X260940Y568402D01*
X261185Y568367D01*
X261759Y567509D01*
X262672Y566898D01*
X263750Y566684D01*
X264828Y566898D01*
X265741Y567509D01*
X266352Y568422D01*
X266566Y569500D01*
X266352Y570578D01*
X265741Y571491D01*
X264828Y572102D01*
X263750Y572316D01*
D02*
G37*
G36*
X224750Y565816D02*
X223672Y565602D01*
X222759Y564991D01*
X222148Y564078D01*
X221934Y563000D01*
X222148Y561922D01*
X222759Y561009D01*
X223672Y560398D01*
X224750Y560184D01*
X225828Y560398D01*
X226741Y561009D01*
X227352Y561922D01*
X227566Y563000D01*
X227352Y564078D01*
X226741Y564991D01*
X225828Y565602D01*
X224750Y565816D01*
D02*
G37*
G36*
X218250Y559066D02*
X217172Y558852D01*
X216259Y558241D01*
X215648Y557328D01*
X215434Y556250D01*
X215648Y555172D01*
X216259Y554259D01*
X217172Y553648D01*
X218250Y553434D01*
X219328Y553648D01*
X220241Y554259D01*
X220622Y554828D01*
X221300Y554878D01*
X221872Y554818D01*
X221997Y554774D01*
X222509Y554009D01*
X223422Y553398D01*
X224500Y553184D01*
X225578Y553398D01*
X226491Y554009D01*
X227102Y554922D01*
X227316Y556000D01*
X227102Y557078D01*
X226491Y557991D01*
X225578Y558602D01*
X224500Y558816D01*
X223422Y558602D01*
X222509Y557991D01*
X222128Y557421D01*
X221450Y557372D01*
X220878Y557432D01*
X220753Y557476D01*
X220241Y558241D01*
X219328Y558852D01*
X218250Y559066D01*
D02*
G37*
G36*
X211250Y558816D02*
X210172Y558602D01*
X209259Y557991D01*
X208648Y557078D01*
X208434Y556000D01*
X208648Y554922D01*
X209259Y554009D01*
X210172Y553398D01*
X211250Y553184D01*
X212328Y553398D01*
X213241Y554009D01*
X213852Y554922D01*
X214066Y556000D01*
X213852Y557078D01*
X213241Y557991D01*
X212328Y558602D01*
X211250Y558816D01*
D02*
G37*
G36*
X339762Y557802D02*
X338684Y557588D01*
X337771Y556977D01*
X337160Y556064D01*
X336946Y554986D01*
X337160Y553908D01*
X337245Y553782D01*
X336566Y552512D01*
X311738D01*
Y552237D01*
X311428Y552005D01*
X310468Y551674D01*
X309828Y552102D01*
X308750Y552316D01*
X307672Y552102D01*
X306759Y551491D01*
X306148Y550578D01*
X305934Y549500D01*
X306148Y548422D01*
X306759Y547509D01*
X307672Y546898D01*
X308750Y546684D01*
X309828Y546898D01*
X310468Y547326D01*
X311428Y546995D01*
X311738Y546763D01*
Y540988D01*
X337762D01*
Y551473D01*
X338041Y551749D01*
X339032Y552315D01*
X339109Y552300D01*
X340201Y551277D01*
X340415Y550199D01*
X341026Y549286D01*
X341939Y548675D01*
X343017Y548461D01*
X344094Y548675D01*
X345008Y549286D01*
X345619Y550199D01*
X345833Y551277D01*
X345619Y552355D01*
X345008Y553268D01*
X344094Y553879D01*
X343017Y554093D01*
X342503Y554607D01*
X342578Y554986D01*
X342364Y556064D01*
X341753Y556977D01*
X340840Y557588D01*
X339762Y557802D01*
D02*
G37*
G36*
X296250Y552316D02*
X295172Y552102D01*
X294259Y551491D01*
X293648Y550578D01*
X293434Y549500D01*
X293648Y548422D01*
X294259Y547509D01*
X295172Y546898D01*
X296250Y546684D01*
X297328Y546898D01*
X298241Y547509D01*
X298852Y548422D01*
X299066Y549500D01*
X298852Y550578D01*
X298241Y551491D01*
X297328Y552102D01*
X296250Y552316D01*
D02*
G37*
G36*
X231000Y552066D02*
X229922Y551852D01*
X229009Y551241D01*
X228398Y550328D01*
X228184Y549250D01*
X228398Y548172D01*
X229009Y547259D01*
X229922Y546648D01*
X231000Y546434D01*
X232078Y546648D01*
X232991Y547259D01*
X233602Y548172D01*
X233816Y549250D01*
X233602Y550328D01*
X232991Y551241D01*
X232078Y551852D01*
X231000Y552066D01*
D02*
G37*
G36*
X179729Y558623D02*
X178651Y558409D01*
X177738Y557798D01*
X177127Y556885D01*
X176913Y555807D01*
X177127Y554729D01*
X177652Y553945D01*
X177732Y553776D01*
X177533Y552425D01*
X177259Y552241D01*
X176648Y551328D01*
X176434Y550250D01*
X176648Y549172D01*
X177259Y548259D01*
X178172Y547648D01*
X179250Y547434D01*
X180328Y547648D01*
X180468Y547742D01*
X181738Y547063D01*
Y540988D01*
X207762D01*
Y542649D01*
X208935Y543135D01*
X210508Y541562D01*
X210508Y541562D01*
X211181Y541112D01*
X211973Y540955D01*
X211974Y540955D01*
X221640D01*
X222433Y540425D01*
X223511Y540210D01*
X224589Y540425D01*
X225502Y541035D01*
X226113Y541949D01*
X226327Y543027D01*
X226113Y544104D01*
X225502Y545018D01*
X224589Y545628D01*
X223511Y545843D01*
X222433Y545628D01*
X221640Y545098D01*
X212832D01*
X209715Y548215D01*
X209043Y548664D01*
X208250Y548822D01*
X207762Y549907D01*
Y552512D01*
X182055D01*
X181558Y553707D01*
X181720Y553816D01*
X182331Y554729D01*
X182545Y555807D01*
X182331Y556885D01*
X181720Y557798D01*
X180807Y558409D01*
X179729Y558623D01*
D02*
G37*
G36*
X353017Y544342D02*
X351940Y544128D01*
X351026Y543518D01*
X350415Y542604D01*
X350201Y541526D01*
X350415Y540449D01*
X351026Y539535D01*
X351940Y538925D01*
X353017Y538710D01*
X354095Y538925D01*
X355009Y539535D01*
X355619Y540449D01*
X355833Y541526D01*
X355619Y542604D01*
X355009Y543518D01*
X354095Y544128D01*
X353017Y544342D01*
D02*
G37*
G36*
X295500Y544252D02*
X294422Y544038D01*
X293509Y543427D01*
X292898Y542514D01*
X292684Y541436D01*
X292898Y540358D01*
X293509Y539445D01*
X294422Y538834D01*
X295500Y538620D01*
X296578Y538834D01*
X297491Y539445D01*
X298102Y540358D01*
X298316Y541436D01*
X298102Y542514D01*
X297491Y543427D01*
X296578Y544038D01*
X295500Y544252D01*
D02*
G37*
G36*
X230261Y538092D02*
X229184Y537878D01*
X228270Y537267D01*
X227659Y536354D01*
X227445Y535276D01*
X227659Y534198D01*
X228270Y533285D01*
X229184Y532674D01*
X230261Y532460D01*
X231339Y532674D01*
X232253Y533285D01*
X232863Y534198D01*
X233077Y535276D01*
X232863Y536354D01*
X232253Y537267D01*
X231339Y537878D01*
X230261Y538092D01*
D02*
G37*
G36*
X218500Y533316D02*
X217422Y533102D01*
X216509Y532491D01*
X215898Y531578D01*
X215684Y530500D01*
X215898Y529422D01*
X216509Y528509D01*
X217422Y527898D01*
X218500Y527684D01*
X219578Y527898D01*
X220491Y528509D01*
X221102Y529422D01*
X221316Y530500D01*
X221102Y531578D01*
X220491Y532491D01*
X219578Y533102D01*
X218500Y533316D01*
D02*
G37*
G36*
X337762Y538512D02*
X311738D01*
Y526988D01*
X337762D01*
Y538512D01*
D02*
G37*
G36*
X228702Y528380D02*
X227624Y528166D01*
X226710Y527555D01*
X226100Y526642D01*
X225886Y525564D01*
X226100Y524486D01*
X226710Y523573D01*
X227624Y522962D01*
X228702Y522748D01*
X229779Y522962D01*
X230693Y523573D01*
X231303Y524486D01*
X231518Y525564D01*
X231303Y526642D01*
X230693Y527555D01*
X229779Y528166D01*
X228702Y528380D01*
D02*
G37*
G36*
X237500Y526816D02*
X236422Y526602D01*
X235509Y525991D01*
X234898Y525078D01*
X234684Y524000D01*
X234898Y522922D01*
X235509Y522009D01*
X236422Y521398D01*
X237500Y521184D01*
X238578Y521398D01*
X239491Y522009D01*
X240102Y522922D01*
X240316Y524000D01*
X240102Y525078D01*
X239491Y525991D01*
X238578Y526602D01*
X237500Y526816D01*
D02*
G37*
G36*
X210250D02*
X209172Y526602D01*
X208259Y525991D01*
X207648Y525078D01*
X207536Y524512D01*
X181738D01*
Y512988D01*
X207762D01*
Y514928D01*
X215879D01*
X216672Y514398D01*
X217750Y514184D01*
X218828Y514398D01*
X219741Y515009D01*
X220352Y515922D01*
X220566Y517000D01*
X220352Y518078D01*
X219741Y518991D01*
X218828Y519602D01*
X217750Y519816D01*
X216672Y519602D01*
X215879Y519072D01*
X207762D01*
Y520813D01*
X209032Y521492D01*
X209172Y521398D01*
X210250Y521184D01*
X211328Y521398D01*
X212241Y522009D01*
X212852Y522922D01*
X213066Y524000D01*
X212852Y525078D01*
X212241Y525991D01*
X211328Y526602D01*
X210250Y526816D01*
D02*
G37*
G36*
X402287Y523488D02*
X381713D01*
Y510026D01*
X402287D01*
Y523488D01*
D02*
G37*
G36*
X270000Y513316D02*
X268922Y513102D01*
X268009Y512491D01*
X267398Y511578D01*
X267184Y510500D01*
X267398Y509422D01*
X268009Y508509D01*
X268922Y507898D01*
X270000Y507684D01*
X271078Y507898D01*
X271991Y508509D01*
X272602Y509422D01*
X272816Y510500D01*
X272602Y511578D01*
X271991Y512491D01*
X271078Y513102D01*
X270000Y513316D01*
D02*
G37*
G36*
X250250Y513316D02*
X249172Y513102D01*
X248259Y512491D01*
X247648Y511578D01*
X247434Y510500D01*
X247648Y509422D01*
X248259Y508509D01*
X249172Y507898D01*
X250250Y507684D01*
X251328Y507898D01*
X252241Y508509D01*
X252852Y509422D01*
X253066Y510500D01*
X252852Y511578D01*
X252241Y512491D01*
X251328Y513102D01*
X250250Y513316D01*
D02*
G37*
G36*
X164398Y515576D02*
X159398D01*
X158125Y515322D01*
X157046Y514601D01*
X156326Y513522D01*
X156072Y512250D01*
X156326Y510977D01*
X157046Y509898D01*
X158125Y509177D01*
X159398Y508924D01*
X160403D01*
X161082Y507654D01*
X161030Y507576D01*
X159398D01*
X158125Y507322D01*
X157046Y506601D01*
X156326Y505522D01*
X156072Y504250D01*
X156326Y502977D01*
X157046Y501898D01*
X158125Y501177D01*
X159398Y500924D01*
X160540D01*
X161219Y499654D01*
X161166Y499576D01*
X159398D01*
X158125Y499322D01*
X157540Y498931D01*
X156372Y499203D01*
X156192Y499298D01*
X156095Y499377D01*
X155571Y500162D01*
X154658Y500772D01*
X153580Y500986D01*
X152502Y500772D01*
X151589Y500162D01*
X150978Y499248D01*
X150764Y498170D01*
X150978Y497093D01*
X151589Y496179D01*
X152502Y495569D01*
X153580Y495354D01*
X154658Y495569D01*
X154883Y495719D01*
X156292Y495145D01*
X156325Y494977D01*
X157046Y493898D01*
X158125Y493177D01*
X159398Y492924D01*
X164398D01*
X165671Y493177D01*
X166750Y493898D01*
X167470Y494977D01*
X167724Y496250D01*
X167685Y496446D01*
X168490Y497428D01*
X175440D01*
X176119Y496158D01*
X175898Y495828D01*
X175684Y494750D01*
X175898Y493672D01*
X176509Y492759D01*
X177422Y492148D01*
X178500Y491934D01*
X179578Y492148D01*
X180491Y492759D01*
X181738Y492339D01*
Y484988D01*
X207762D01*
Y487688D01*
X208241Y488009D01*
X208852Y488922D01*
X209066Y490000D01*
X208852Y491078D01*
X208241Y491991D01*
X207762Y492312D01*
Y496512D01*
X182162D01*
X181738Y496512D01*
X180536Y496675D01*
X180491Y496741D01*
X180093Y497007D01*
X180033Y497093D01*
X179845Y498406D01*
X179880Y498546D01*
X180816Y498732D01*
X181738Y498988D01*
X181738Y498988D01*
Y498988D01*
X181738Y498988D01*
X207762D01*
Y502678D01*
X221811D01*
X222259Y502009D01*
X223172Y501398D01*
X224250Y501184D01*
X225328Y501398D01*
X226241Y502009D01*
X226852Y502922D01*
X227066Y504000D01*
X226852Y505078D01*
X226241Y505991D01*
X225328Y506602D01*
X224820Y506703D01*
Y507998D01*
X225578Y508148D01*
X226491Y508759D01*
X227102Y509672D01*
X227316Y510750D01*
X227102Y511828D01*
X226491Y512741D01*
X225578Y513352D01*
X224500Y513566D01*
X223422Y513352D01*
X222509Y512741D01*
X221898Y511828D01*
X221684Y510750D01*
X221898Y509672D01*
X222509Y508759D01*
X222765Y508587D01*
X222926Y507051D01*
X222660Y506822D01*
X207762D01*
Y510512D01*
X181738D01*
Y504847D01*
X181459Y504571D01*
X180468Y504005D01*
X179738Y504150D01*
X178661Y503936D01*
X177747Y503325D01*
X177136Y502412D01*
X176969Y501572D01*
X168060D01*
X167381Y502842D01*
X167471Y502977D01*
X167724Y504250D01*
X168836Y504673D01*
X168851Y504683D01*
X170148Y504672D01*
X170759Y503759D01*
X171672Y503148D01*
X172750Y502934D01*
X173828Y503148D01*
X174741Y503759D01*
X175352Y504672D01*
X175566Y505750D01*
X175352Y506828D01*
X174741Y507741D01*
X173828Y508352D01*
X172750Y508566D01*
X171672Y508352D01*
X171657Y508341D01*
X170360Y508353D01*
X169825Y509153D01*
X169750Y509266D01*
X169741Y510509D01*
X169822Y510629D01*
X170352Y511422D01*
X170566Y512500D01*
X170352Y513578D01*
X169741Y514491D01*
X168828Y515102D01*
X167750Y515316D01*
X166672Y515102D01*
X166337Y514878D01*
X165671Y515322D01*
X164398Y515576D01*
D02*
G37*
G36*
X373077Y524631D02*
X354535D01*
Y519297D01*
X354535Y518535D01*
X354535Y517265D01*
Y512693D01*
X354535Y511931D01*
X354535Y510661D01*
Y506193D01*
X354535Y505327D01*
X354535Y504057D01*
Y498827D01*
X373077D01*
Y504057D01*
X373077Y504923D01*
X373077Y506193D01*
Y510661D01*
X373077Y511423D01*
X373077Y512693D01*
Y517265D01*
X373077Y518027D01*
X373077Y519297D01*
Y524631D01*
D02*
G37*
G36*
X237500Y501496D02*
X236422Y501282D01*
X235509Y500671D01*
X234898Y499757D01*
X234684Y498680D01*
X234898Y497602D01*
X235509Y496688D01*
X236422Y496078D01*
X237500Y495864D01*
X238578Y496078D01*
X239491Y496688D01*
X240102Y497602D01*
X240316Y498680D01*
X240102Y499757D01*
X239491Y500671D01*
X238578Y501282D01*
X237500Y501496D01*
D02*
G37*
G36*
X296250Y500066D02*
X295172Y499852D01*
X294259Y499241D01*
X293648Y498328D01*
X293434Y497250D01*
X293648Y496172D01*
X294259Y495259D01*
X295172Y494648D01*
X296250Y494434D01*
X297328Y494648D01*
X298241Y495259D01*
X298852Y496172D01*
X299066Y497250D01*
X298852Y498328D01*
X298241Y499241D01*
X297328Y499852D01*
X296250Y500066D01*
D02*
G37*
G36*
X402287Y506731D02*
X381713D01*
Y493269D01*
X402287D01*
Y506731D01*
D02*
G37*
G36*
X234250Y492566D02*
X233172Y492352D01*
X232259Y491741D01*
X231648Y490828D01*
X231434Y489750D01*
X231648Y488672D01*
X232259Y487759D01*
X233172Y487148D01*
X234250Y486934D01*
X235328Y487148D01*
X236241Y487759D01*
X236852Y488672D01*
X237066Y489750D01*
X236852Y490828D01*
X236241Y491741D01*
X235328Y492352D01*
X234250Y492566D01*
D02*
G37*
G36*
X309250Y526066D02*
X308172Y525852D01*
X307259Y525241D01*
X306648Y524328D01*
X306434Y523250D01*
X306648Y522172D01*
X307259Y521259D01*
X308172Y520648D01*
X309108Y520462D01*
X311738Y517832D01*
Y512988D01*
X337762D01*
X338378Y511973D01*
Y511527D01*
X337762Y510512D01*
X311738D01*
Y503418D01*
X308608Y500288D01*
X307672Y500102D01*
X306759Y499491D01*
X306148Y498578D01*
X305934Y497500D01*
X306148Y496422D01*
X306759Y495509D01*
X307672Y494898D01*
X308750Y494684D01*
X309828Y494898D01*
X310468Y495326D01*
X311428Y494995D01*
X311738Y494763D01*
Y492168D01*
X308608Y489038D01*
X307672Y488852D01*
X306759Y488241D01*
X306148Y487328D01*
X305934Y486250D01*
X306148Y485172D01*
X306759Y484259D01*
X307672Y483648D01*
X308750Y483434D01*
X309828Y483648D01*
X310741Y484259D01*
X310759Y484285D01*
X311738Y484988D01*
X337762D01*
X338488Y484019D01*
Y483988D01*
X354012D01*
Y484328D01*
X354750Y484934D01*
X355828Y485148D01*
X356741Y485759D01*
X357352Y486672D01*
X357566Y487750D01*
X357352Y488828D01*
X356741Y489741D01*
X355828Y490352D01*
X354750Y490566D01*
X354012Y491172D01*
Y496512D01*
X342918D01*
X342522Y496909D01*
Y499342D01*
X342721Y499641D01*
X342842Y500250D01*
Y502250D01*
X342721Y502860D01*
X342522Y503158D01*
Y504550D01*
X342522Y504550D01*
X342364Y505343D01*
X342322Y505406D01*
Y506694D01*
X342364Y506757D01*
X342522Y507550D01*
X342522Y507550D01*
Y512592D01*
X342721Y512891D01*
X342842Y513500D01*
Y515500D01*
X342721Y516110D01*
X342376Y516626D01*
X341859Y516972D01*
X341250Y517093D01*
X340787D01*
X337762Y520118D01*
Y524512D01*
X311738D01*
X311738Y524512D01*
Y524512D01*
X311429Y524966D01*
X311241Y525241D01*
X310935Y525446D01*
X310328Y525852D01*
X309250Y526066D01*
D02*
G37*
G36*
X221250Y489566D02*
X220172Y489352D01*
X219259Y488741D01*
X218648Y487828D01*
X218434Y486750D01*
X218648Y485672D01*
X219259Y484759D01*
X220172Y484148D01*
X221250Y483934D01*
X222328Y484148D01*
X223241Y484759D01*
X223852Y485672D01*
X224066Y486750D01*
X223852Y487828D01*
X223241Y488741D01*
X222328Y489352D01*
X221250Y489566D01*
D02*
G37*
G36*
X283750Y488066D02*
X282672Y487852D01*
X281759Y487241D01*
X281148Y486328D01*
X280934Y485250D01*
X281148Y484172D01*
X281759Y483259D01*
X282672Y482648D01*
X283750Y482434D01*
X284828Y482648D01*
X285741Y483259D01*
X286352Y484172D01*
X286566Y485250D01*
X286352Y486328D01*
X285741Y487241D01*
X284828Y487852D01*
X283750Y488066D01*
D02*
G37*
G36*
X240500Y489566D02*
X239422Y489352D01*
X238509Y488741D01*
X237898Y487828D01*
X237712Y486892D01*
X233174Y482354D01*
X216650D01*
X216265Y483624D01*
X216502Y483782D01*
X217112Y484696D01*
X217327Y485774D01*
X217112Y486851D01*
X216502Y487765D01*
X215588Y488376D01*
X214510Y488590D01*
X213433Y488376D01*
X212519Y487765D01*
X211909Y486851D01*
X211694Y485774D01*
X211909Y484696D01*
X212519Y483782D01*
X213433Y483172D01*
X214324Y482995D01*
X214627Y482354D01*
X214711Y481914D01*
X214716Y481720D01*
X211818Y478822D01*
X207762D01*
Y482512D01*
X181738D01*
Y473101D01*
X180565Y472615D01*
X178885Y474295D01*
X178213Y474744D01*
X177810Y474824D01*
Y476132D01*
X170190D01*
Y469528D01*
X177792D01*
X180962Y466358D01*
X181148Y465422D01*
X181759Y464509D01*
X182672Y463898D01*
X183750Y463684D01*
X184828Y463898D01*
X185741Y464509D01*
X186352Y465422D01*
X186566Y466500D01*
X186352Y467578D01*
X185741Y468491D01*
X184828Y469102D01*
X184397Y469187D01*
X184065Y469718D01*
X184769Y470988D01*
X207762D01*
Y474678D01*
X212676D01*
X212676Y474678D01*
X212955Y474734D01*
X214163Y474064D01*
X214327Y473882D01*
X214485Y473087D01*
X215427Y471678D01*
X216837Y470736D01*
X218500Y470405D01*
X220163Y470736D01*
X221573Y471678D01*
X222515Y473087D01*
X222845Y474750D01*
X222515Y476413D01*
X222162Y476940D01*
X222841Y478210D01*
X234032D01*
X234032Y478210D01*
X234825Y478368D01*
X235497Y478817D01*
X240642Y483962D01*
X241578Y484148D01*
X242491Y484759D01*
X243102Y485672D01*
X243316Y486750D01*
X243102Y487828D01*
X242491Y488741D01*
X241578Y489352D01*
X240500Y489566D01*
D02*
G37*
G36*
X304015Y483840D02*
X302937Y483625D01*
X302024Y483015D01*
X301413Y482101D01*
X301199Y481023D01*
X301413Y479946D01*
X302024Y479032D01*
X302937Y478422D01*
X304015Y478207D01*
X305093Y478422D01*
X306006Y479032D01*
X306617Y479946D01*
X306831Y481023D01*
X306617Y482101D01*
X306006Y483015D01*
X305093Y483625D01*
X304015Y483840D01*
D02*
G37*
G36*
X167660Y491512D02*
X156136D01*
Y484988D01*
X159832D01*
X165649Y479171D01*
X166259Y478259D01*
X167172Y477648D01*
X168250Y477434D01*
X169328Y477648D01*
X170241Y478259D01*
X170852Y479172D01*
X171066Y480250D01*
X170852Y481328D01*
X170241Y482241D01*
X169328Y482852D01*
X168250Y483066D01*
X167719Y482961D01*
X166866Y483814D01*
X167352Y484988D01*
X167660D01*
Y491512D01*
D02*
G37*
G36*
X284500Y478596D02*
X282837Y478265D01*
X281427Y477323D01*
X280485Y475913D01*
X280154Y474250D01*
X280309Y473474D01*
X279760Y472986D01*
X279182Y472631D01*
X278250Y472816D01*
X277172Y472602D01*
X276259Y471991D01*
X275648Y471078D01*
X275434Y470000D01*
X275648Y468922D01*
X276259Y468009D01*
X277172Y467398D01*
X278250Y467184D01*
X279328Y467398D01*
X280241Y468009D01*
X280852Y468922D01*
X281066Y470000D01*
X282234Y470638D01*
X282837Y470235D01*
X284500Y469905D01*
X286163Y470235D01*
X287573Y471177D01*
X288515Y472587D01*
X288845Y474250D01*
X288515Y475913D01*
X287573Y477323D01*
X286163Y478265D01*
X284500Y478596D01*
D02*
G37*
G36*
X236750Y475316D02*
X235672Y475102D01*
X234759Y474491D01*
X234148Y473578D01*
X233934Y472500D01*
X234148Y471422D01*
X234759Y470509D01*
X235672Y469898D01*
X236750Y469684D01*
X237828Y469898D01*
X238741Y470509D01*
X239352Y471422D01*
X239566Y472500D01*
X239352Y473578D01*
X238741Y474491D01*
X237828Y475102D01*
X236750Y475316D01*
D02*
G37*
G36*
X331250Y469816D02*
X330172Y469602D01*
X329259Y468991D01*
X328648Y468078D01*
X328434Y467000D01*
X328648Y465922D01*
X329259Y465009D01*
X330172Y464398D01*
X331250Y464184D01*
X332328Y464398D01*
X333241Y465009D01*
X333852Y465922D01*
X334066Y467000D01*
X333852Y468078D01*
X333241Y468991D01*
X332328Y469602D01*
X331250Y469816D01*
D02*
G37*
G36*
X199500Y461316D02*
X198422Y461102D01*
X197509Y460491D01*
X196898Y459578D01*
X196684Y458500D01*
X196898Y457422D01*
X197509Y456509D01*
X198422Y455898D01*
X199500Y455684D01*
X200578Y455898D01*
X201491Y456509D01*
X202102Y457422D01*
X202316Y458500D01*
X202102Y459578D01*
X201491Y460491D01*
X200578Y461102D01*
X199500Y461316D01*
D02*
G37*
G36*
X177810Y466052D02*
X170190D01*
Y459448D01*
X171939D01*
X172086Y458707D01*
X172535Y458035D01*
X178712Y451858D01*
X178898Y450922D01*
X179509Y450009D01*
X180422Y449398D01*
X181500Y449184D01*
X182578Y449398D01*
X183491Y450009D01*
X184102Y450922D01*
X184672Y451898D01*
X185750Y451684D01*
X186828Y451898D01*
X187741Y452509D01*
X188352Y453422D01*
X188566Y454500D01*
X188352Y455578D01*
X187741Y456491D01*
X186828Y457102D01*
X185750Y457316D01*
X184672Y457102D01*
X183759Y456491D01*
X183148Y455578D01*
X182819Y455014D01*
X181446Y454984D01*
X178163Y458267D01*
X177810Y459448D01*
X177810D01*
X177810Y459448D01*
Y466052D01*
D02*
G37*
G36*
X258512Y464762D02*
X246988D01*
Y441038D01*
X245782Y439832D01*
X244512Y440358D01*
Y464762D01*
X232988D01*
Y440788D01*
X231782Y439582D01*
X230512Y440108D01*
Y464762D01*
X218988D01*
Y440288D01*
X217272Y438572D01*
X213250D01*
X212457Y438414D01*
X211785Y437965D01*
X211785Y437965D01*
X209000Y435180D01*
X201666D01*
Y427560D01*
X212334D01*
Y432654D01*
X214108Y434428D01*
X217898D01*
X218130Y434428D01*
X218130Y434428D01*
X218916Y433783D01*
Y427060D01*
X229584D01*
Y431524D01*
X236798Y438738D01*
X242892D01*
X243418Y437468D01*
X240880Y434930D01*
X235916D01*
Y427310D01*
X246584D01*
Y434774D01*
X250548Y438738D01*
X258512D01*
Y464762D01*
D02*
G37*
G36*
X314512D02*
X302988D01*
Y438738D01*
X314512D01*
Y464762D01*
D02*
G37*
G36*
X300512D02*
X288988D01*
Y438738D01*
X300512D01*
Y464762D01*
D02*
G37*
G36*
X286512D02*
X274988D01*
Y438738D01*
X286512D01*
Y464762D01*
D02*
G37*
G36*
X272512D02*
X260988D01*
Y438738D01*
X264754D01*
X264836Y438327D01*
X265285Y437655D01*
X265925Y437015D01*
X266416Y435930D01*
X266416D01*
X266416Y435930D01*
Y428310D01*
X277084D01*
Y435930D01*
X272870D01*
X271235Y437565D01*
X271721Y438738D01*
X272512D01*
Y464762D01*
D02*
G37*
G36*
X192500Y440316D02*
X191422Y440102D01*
X190509Y439491D01*
X189898Y438578D01*
X189684Y437500D01*
X189898Y436422D01*
X190428Y435629D01*
Y432552D01*
X187940D01*
Y425948D01*
X195560D01*
Y432552D01*
X194572D01*
Y435629D01*
X195102Y436422D01*
X195316Y437500D01*
X195102Y438578D01*
X194491Y439491D01*
X193578Y440102D01*
X192500Y440316D01*
D02*
G37*
G36*
X308222Y436560D02*
X301618D01*
Y429690D01*
X301172Y429602D01*
X300259Y428991D01*
X299648Y428078D01*
X299434Y427000D01*
X299571Y426310D01*
X298827Y425040D01*
X289906D01*
X289611Y425361D01*
X289083Y426310D01*
X289236Y427080D01*
X289168Y427420D01*
X289722Y428690D01*
X289722D01*
Y436310D01*
X283118D01*
Y428690D01*
X283118D01*
X283671Y427420D01*
X283604Y427080D01*
X283757Y426310D01*
X283229Y425361D01*
X282934Y425040D01*
X267224D01*
X266432Y424882D01*
X265759Y424433D01*
X265759Y424433D01*
X260978Y419652D01*
X246584D01*
Y419810D01*
X235916D01*
Y412190D01*
X246584D01*
Y415508D01*
X261836D01*
X261836Y415508D01*
X262629Y415666D01*
X263301Y416115D01*
X265243Y418056D01*
X266416Y417570D01*
Y413190D01*
X277084D01*
Y414928D01*
X281865D01*
X282377Y414586D01*
X282618Y414538D01*
Y413690D01*
X289222D01*
Y420896D01*
X301618D01*
Y414940D01*
X304471D01*
X304627Y414836D01*
X305420Y414678D01*
X306213Y414836D01*
X306369Y414940D01*
X308222D01*
Y422560D01*
X307492D01*
Y423068D01*
X307334Y423861D01*
X306885Y424533D01*
X306213Y424982D01*
X305805Y425063D01*
X305269Y425546D01*
X304949Y426410D01*
X305038Y426858D01*
X306385Y428205D01*
X306385Y428205D01*
X306834Y428877D01*
X306847Y428940D01*
X308222D01*
Y436560D01*
D02*
G37*
G36*
X187940Y422472D02*
X186670Y421532D01*
X186500Y421566D01*
X185422Y421352D01*
X184509Y420741D01*
X183898Y419828D01*
X183684Y418750D01*
X183898Y417672D01*
X184509Y416759D01*
X185422Y416148D01*
X186500Y415934D01*
X186670Y415968D01*
X187940Y415868D01*
X187940Y415868D01*
X187940Y415868D01*
X195375D01*
X195768Y415279D01*
X196682Y414669D01*
X197760Y414454D01*
X198837Y414669D01*
X199630Y415199D01*
X201666D01*
Y412440D01*
X212334D01*
Y420060D01*
X201666D01*
Y419342D01*
X199630D01*
X198837Y419872D01*
X197760Y420087D01*
X196830Y419902D01*
X196516Y419987D01*
X195560Y420650D01*
Y422472D01*
X187940D01*
Y422472D01*
D02*
G37*
G36*
X220060Y422506D02*
X218982Y422292D01*
X218069Y421681D01*
X217458Y420768D01*
X217244Y419690D01*
X217458Y418612D01*
X217988Y417819D01*
Y415810D01*
X218146Y415017D01*
X218595Y414345D01*
X218916Y414131D01*
Y411940D01*
X229584D01*
Y419560D01*
X222983D01*
X222876Y419690D01*
X222662Y420768D01*
X222051Y421681D01*
X221138Y422292D01*
X220060Y422506D01*
D02*
G37*
%LPD*%
D15*
X363706Y508275D02*
X363806Y508375D01*
X361268Y508275D02*
X363706D01*
D46*
X346050Y501250D02*
D03*
X340450D02*
D03*
X346050Y514500D02*
D03*
X340450D02*
D03*
D57*
X174000Y472830D02*
D03*
Y462750D02*
D03*
X191750Y419170D02*
D03*
X191750Y429250D02*
D03*
D58*
X286420Y432500D02*
D03*
X296500D02*
D03*
X304920Y432750D02*
D03*
X315000D02*
D03*
X285920Y417500D02*
D03*
X296000D02*
D03*
X304920Y418750D02*
D03*
X315000D02*
D03*
D67*
X213250Y436500D02*
X218130D01*
X208750Y432000D02*
X213250Y436500D01*
X222000Y430500D02*
X225630D01*
X238750Y443620D01*
X220060Y415810D02*
Y419690D01*
X218130Y436500D02*
X224750Y443120D01*
X197760Y417270D02*
X206750D01*
X304020Y423068D02*
X305420D01*
Y416750D02*
Y423068D01*
X267224Y422968D02*
X303920D01*
X261836Y417580D02*
X267224Y422968D01*
X303920D02*
X304020Y423068D01*
X302250Y427000D02*
X304920Y429670D01*
X331750Y497750D02*
X335250Y501250D01*
X324750Y490750D02*
X331125Y497125D01*
X160500Y487250D02*
X167500Y480250D01*
X363806Y521583D02*
X363889Y521500D01*
X323000Y461500D02*
X324750Y463250D01*
Y476750D01*
X174000Y459500D02*
X181500Y452000D01*
X174000Y459500D02*
Y462750D01*
X346250Y490250D02*
X351000D01*
X353500Y487750D01*
X354750D01*
X340450Y496050D02*
X346250Y490250D01*
X340450Y496050D02*
Y501250D01*
X335250D02*
X340450D01*
X324750Y504750D02*
X340250D01*
X336200Y518750D02*
X340450Y514500D01*
X324750Y518750D02*
X336200D01*
X340250Y504750D02*
X340450Y504550D01*
Y501250D02*
Y504550D01*
X340250Y504750D02*
Y507350D01*
X340450Y507550D01*
Y514500D01*
X286420Y427080D02*
Y432750D01*
X241580Y417580D02*
X261836D01*
X304920Y429670D02*
Y432750D01*
X241000Y417000D02*
X241580Y417580D01*
X282670Y417000D02*
X283170Y416500D01*
X271750Y417000D02*
X282670D01*
X161898Y496250D02*
X165148Y499500D01*
X177904D01*
X179738Y501334D01*
X161898Y504250D02*
X164923Y507275D01*
X167758D01*
X211973Y543027D02*
X223511D01*
X208250Y546750D02*
X211973Y543027D01*
X266750Y439120D02*
X271750Y434120D01*
X266750Y439120D02*
Y451750D01*
X241000Y432120D02*
X252750Y443870D01*
Y451750D01*
X238750Y443620D02*
Y451750D01*
X224750Y443120D02*
Y451750D01*
X192500Y430000D02*
Y437500D01*
X191750Y429250D02*
X192500Y430000D01*
X186920Y419170D02*
X191750D01*
X186500Y418750D02*
X186920Y419170D01*
X174000Y472830D02*
X177420D01*
X183750Y466500D01*
X313250Y490750D02*
X324750D01*
X321250Y559750D02*
X321750Y560250D01*
X194750Y490750D02*
X206250D01*
X194750Y546750D02*
X208250D01*
X194750Y476750D02*
X212676D01*
X216208Y480282D01*
X234032D01*
X240500Y486750D01*
X294750Y449286D02*
Y451750D01*
Y449286D02*
X296264Y447772D01*
X223500Y504750D02*
X224250Y504000D01*
X194750Y504750D02*
X223500D01*
X194750Y518750D02*
X196500Y517000D01*
X217750D01*
X160500Y519250D02*
X170750D01*
X136650Y517250D02*
X139288Y519888D01*
X161537D01*
X161898Y520250D01*
X160500Y511250D02*
X161750Y512500D01*
X167750D01*
X167500Y480250D02*
X168250D01*
X170750Y519250D02*
X172250Y520750D01*
X308750Y486250D02*
X313250Y490750D01*
X308750Y497500D02*
X316000Y504750D01*
X324750D01*
X309250Y523250D02*
X313750Y518750D01*
X324750D01*
D68*
X284500Y474250D02*
D03*
X218500Y474750D02*
D03*
D69*
X136400Y537250D02*
D03*
X130050D02*
D03*
X123700Y537250D02*
D03*
X117350D02*
D03*
X111000Y537250D02*
D03*
X111000Y524550D02*
D03*
X117350Y524550D02*
D03*
X123700Y524550D02*
D03*
X130050D02*
D03*
X136400Y524550D02*
D03*
X136400Y530900D02*
D03*
X130050Y530900D02*
D03*
X111000Y530900D02*
D03*
X117350Y530900D02*
D03*
X111250Y504550D02*
D03*
X117600D02*
D03*
X123950Y504550D02*
D03*
X130300D02*
D03*
X136650Y504550D02*
D03*
X136650Y517250D02*
D03*
X130300Y517250D02*
D03*
X123950Y517250D02*
D03*
X117600D02*
D03*
X111250Y517250D02*
D03*
X111250Y510900D02*
D03*
X117600Y510900D02*
D03*
X136650Y510900D02*
D03*
X130300D02*
D03*
X111250Y483050D02*
D03*
X117600D02*
D03*
X123950Y483050D02*
D03*
X130300D02*
D03*
X136650Y483050D02*
D03*
X136650Y495750D02*
D03*
X130300Y495750D02*
D03*
X123950Y495750D02*
D03*
X117600D02*
D03*
X111250Y495750D02*
D03*
X111250Y489400D02*
D03*
X117600Y489400D02*
D03*
X136650Y489400D02*
D03*
X130300D02*
D03*
X363750Y532250D02*
D03*
Y538500D02*
D03*
X370000Y532250D02*
D03*
Y538500D02*
D03*
X376250Y532250D02*
D03*
Y538500D02*
D03*
X373250Y488250D02*
D03*
Y482000D02*
D03*
X367000D02*
D03*
Y488250D02*
D03*
X360750Y482000D02*
D03*
Y488250D02*
D03*
X385500Y476250D02*
D03*
Y482500D02*
D03*
Y488750D02*
D03*
X398000D02*
D03*
X391750D02*
D03*
X398000Y482500D02*
D03*
X391750D02*
D03*
Y476250D02*
D03*
X398000D02*
D03*
X391750Y470000D02*
D03*
X398000D02*
D03*
X386000Y540500D02*
D03*
Y534250D02*
D03*
X392250D02*
D03*
X398500Y534000D02*
D03*
X392250Y540500D02*
D03*
X398500Y540250D02*
D03*
X392250Y546750D02*
D03*
X398500D02*
D03*
X220060Y419690D02*
D03*
X197760Y417270D02*
D03*
X302250Y427000D02*
D03*
X182750Y578500D02*
D03*
X339762Y554986D02*
D03*
X343017Y551277D02*
D03*
X363806Y514979D02*
D03*
X361268Y508275D02*
D03*
X353017Y541526D02*
D03*
X363889Y521500D02*
D03*
X308428Y582572D02*
D03*
X308265Y575528D02*
D03*
X308750Y568500D02*
D03*
X323000Y461500D02*
D03*
X199500Y458500D02*
D03*
X181500Y452000D02*
D03*
X278250Y470000D02*
D03*
X283750Y485250D02*
D03*
X218500Y530500D02*
D03*
X224500Y556000D02*
D03*
X224750Y563000D02*
D03*
X218250Y556250D02*
D03*
X308750Y549500D02*
D03*
X296250Y549500D02*
D03*
X295500Y541436D02*
D03*
X283250Y543250D02*
D03*
X277500Y536500D02*
D03*
X331250Y497000D02*
D03*
X354750Y487750D02*
D03*
X309738Y528012D02*
D03*
X210250Y524000D02*
D03*
X286420Y427080D02*
D03*
X179738Y501334D02*
D03*
X167758Y507275D02*
D03*
X223511Y543027D02*
D03*
X185750Y454500D02*
D03*
X178500Y494750D02*
D03*
X192500Y437500D02*
D03*
X186500Y418750D02*
D03*
X183750Y466500D02*
D03*
X304015Y481023D02*
D03*
X327300Y482750D02*
D03*
X324450Y590800D02*
D03*
X321250Y559750D02*
D03*
X320000Y545750D02*
D03*
X234250Y489750D02*
D03*
X237500Y498680D02*
D03*
X206250Y490000D02*
D03*
X214510Y485774D02*
D03*
X236762Y548777D02*
D03*
X230261Y535276D02*
D03*
X228702Y525564D02*
D03*
X231250Y517500D02*
D03*
X231000Y530000D02*
D03*
X245500Y476000D02*
D03*
X237500Y524000D02*
D03*
X240500Y486750D02*
D03*
X296264Y447772D02*
D03*
X221250Y486750D02*
D03*
X308750Y444000D02*
D03*
X201260Y468773D02*
D03*
X224500Y510750D02*
D03*
X224250Y504000D02*
D03*
X217750Y517000D02*
D03*
X179250Y550250D02*
D03*
X153580Y498170D02*
D03*
X150000Y486750D02*
D03*
X168250Y480250D02*
D03*
X153250Y510500D02*
D03*
X158000Y538000D02*
D03*
X210500Y497250D02*
D03*
X189250Y535750D02*
D03*
X202260Y560777D02*
D03*
X250250Y497250D02*
D03*
X270250Y472000D02*
D03*
X290000Y483000D02*
D03*
X289250Y491250D02*
D03*
X282750Y510750D02*
D03*
X276750Y523750D02*
D03*
X276250Y549750D02*
D03*
X263500Y521750D02*
D03*
Y536500D02*
D03*
Y549500D02*
D03*
X250500Y549500D02*
D03*
Y536500D02*
D03*
X250500Y521750D02*
D03*
X250250Y569000D02*
D03*
X172250Y520750D02*
D03*
X179729Y555807D02*
D03*
X210500Y583500D02*
D03*
X167750Y512500D02*
D03*
X211250Y588750D02*
D03*
X153080Y523920D02*
D03*
X172750Y505750D02*
D03*
X314000Y587750D02*
D03*
X331250Y467000D02*
D03*
X308750Y486250D02*
D03*
X296250Y497250D02*
D03*
X308750Y497500D02*
D03*
X309250Y523250D02*
D03*
X263750Y569500D02*
D03*
X257250Y569250D02*
D03*
X211250Y556000D02*
D03*
X231000Y549250D02*
D03*
X236750Y472500D02*
D03*
X250250Y510500D02*
D03*
X270000Y510500D02*
D03*
X224537Y582213D02*
D03*
X230750Y582250D02*
D03*
X243750D02*
D03*
D70*
X123700Y530900D02*
D03*
X123950Y510900D02*
D03*
Y489400D02*
D03*
D71*
X388264Y589660D02*
D03*
X394750Y573500D02*
D03*
X387910Y557486D02*
D03*
X371750Y551000D02*
D03*
X355736Y557840D02*
D03*
X349250Y574000D02*
D03*
X356090Y590014D02*
D03*
X372250Y596500D02*
D03*
X158264Y589660D02*
D03*
X164750Y573500D02*
D03*
X157910Y557486D02*
D03*
X141750Y551000D02*
D03*
X125736Y557840D02*
D03*
X119250Y574000D02*
D03*
X126090Y590014D02*
D03*
X142250Y596500D02*
D03*
Y466250D02*
D03*
X126090Y459763D02*
D03*
X119250Y443750D02*
D03*
X125736Y427590D02*
D03*
X141750Y420750D02*
D03*
X157910Y427236D02*
D03*
X164750Y443250D02*
D03*
X158264Y459410D02*
D03*
X388264D02*
D03*
X394750Y443250D02*
D03*
X387910Y427236D02*
D03*
X371750Y420750D02*
D03*
X355736Y427590D02*
D03*
X349250Y443750D02*
D03*
X356090Y459763D02*
D03*
X372250Y466250D02*
D03*
D72*
X336750Y433000D02*
D03*
X257000Y429250D02*
D03*
X176250Y431000D02*
D03*
D73*
X142000Y573750D02*
D03*
X372000D02*
D03*
X142000Y443500D02*
D03*
X372000D02*
D03*
D74*
X363806Y508375D02*
D03*
Y514979D02*
D03*
Y501875D02*
D03*
Y495375D02*
D03*
Y521583D02*
D03*
D75*
X368886Y533521D02*
D03*
Y483375D02*
D03*
D76*
X392000Y538093D02*
D03*
Y478875D02*
D03*
D77*
Y500000D02*
D03*
Y516757D02*
D03*
D78*
X238750Y451750D02*
D03*
X224750D02*
D03*
X252750D02*
D03*
X266750D02*
D03*
X280750D02*
D03*
X308750D02*
D03*
X294750D02*
D03*
X210750D02*
D03*
D79*
X194750Y504750D02*
D03*
Y490750D02*
D03*
Y518750D02*
D03*
Y532750D02*
D03*
Y546750D02*
D03*
Y574750D02*
D03*
Y560750D02*
D03*
Y476750D02*
D03*
X324750D02*
D03*
Y560750D02*
D03*
Y574750D02*
D03*
Y546750D02*
D03*
Y532750D02*
D03*
Y518750D02*
D03*
Y490750D02*
D03*
Y504750D02*
D03*
D80*
X207000Y416250D02*
D03*
Y431370D02*
D03*
X224250Y415750D02*
D03*
Y430870D02*
D03*
X241250Y416000D02*
D03*
Y431120D02*
D03*
X271750Y417000D02*
D03*
Y432120D02*
D03*
D81*
X346250Y475250D02*
D03*
Y490250D02*
D03*
D82*
X147750Y475250D02*
D03*
D83*
X161898Y488250D02*
D03*
D84*
X161898Y496250D02*
D03*
X161898Y504250D02*
D03*
Y512250D02*
D03*
Y520250D02*
D03*
Y528250D02*
D03*
D85*
X147750Y541250D02*
D03*
M02*
