G04*
G04 #@! TF.GenerationSoftware,Altium Limited,Altium Designer,18.0.9 (584)*
G04*
G04 Layer_Physical_Order=1*
G04 Layer_Color=255*
%FSLAX44Y44*%
%MOMM*%
G71*
G01*
G75*
%ADD16C,0.1500*%
G04:AMPARAMS|DCode=47|XSize=0.32mm|YSize=0.36mm|CornerRadius=0.08mm|HoleSize=0mm|Usage=FLASHONLY|Rotation=90.000|XOffset=0mm|YOffset=0mm|HoleType=Round|Shape=RoundedRectangle|*
%AMROUNDEDRECTD47*
21,1,0.3200,0.2000,0,0,90.0*
21,1,0.1600,0.3600,0,0,90.0*
1,1,0.1600,0.1000,0.0800*
1,1,0.1600,0.1000,-0.0800*
1,1,0.1600,-0.1000,-0.0800*
1,1,0.1600,-0.1000,0.0800*
%
%ADD47ROUNDEDRECTD47*%
G04:AMPARAMS|DCode=48|XSize=0.32mm|YSize=0.36mm|CornerRadius=0.08mm|HoleSize=0mm|Usage=FLASHONLY|Rotation=0.000|XOffset=0mm|YOffset=0mm|HoleType=Round|Shape=RoundedRectangle|*
%AMROUNDEDRECTD48*
21,1,0.3200,0.2000,0,0,0.0*
21,1,0.1600,0.3600,0,0,0.0*
1,1,0.1600,0.0800,-0.1000*
1,1,0.1600,-0.0800,-0.1000*
1,1,0.1600,-0.0800,0.1000*
1,1,0.1600,0.0800,0.1000*
%
%ADD48ROUNDEDRECTD48*%
G04:AMPARAMS|DCode=49|XSize=0.6096mm|YSize=0.9144mm|CornerRadius=0.1524mm|HoleSize=0mm|Usage=FLASHONLY|Rotation=0.000|XOffset=0mm|YOffset=0mm|HoleType=Round|Shape=RoundedRectangle|*
%AMROUNDEDRECTD49*
21,1,0.6096,0.6096,0,0,0.0*
21,1,0.3048,0.9144,0,0,0.0*
1,1,0.3048,0.1524,-0.3048*
1,1,0.3048,-0.1524,-0.3048*
1,1,0.3048,-0.1524,0.3048*
1,1,0.3048,0.1524,0.3048*
%
%ADD49ROUNDEDRECTD49*%
%ADD53R,0.8128X0.9144*%
%ADD54R,1.8034X1.0160*%
G04:AMPARAMS|DCode=55|XSize=2.8194mm|YSize=1.016mm|CornerRadius=0.508mm|HoleSize=0mm|Usage=FLASHONLY|Rotation=270.000|XOffset=0mm|YOffset=0mm|HoleType=Round|Shape=RoundedRectangle|*
%AMROUNDEDRECTD55*
21,1,2.8194,0.0000,0,0,270.0*
21,1,1.8034,1.0160,0,0,270.0*
1,1,1.0160,0.0000,-0.9017*
1,1,1.0160,0.0000,0.9017*
1,1,1.0160,0.0000,0.9017*
1,1,1.0160,0.0000,-0.9017*
%
%ADD55ROUNDEDRECTD55*%
G04:AMPARAMS|DCode=56|XSize=0.6096mm|YSize=1.7018mm|CornerRadius=0.3048mm|HoleSize=0mm|Usage=FLASHONLY|Rotation=180.000|XOffset=0mm|YOffset=0mm|HoleType=Round|Shape=RoundedRectangle|*
%AMROUNDEDRECTD56*
21,1,0.6096,1.0922,0,0,180.0*
21,1,0.0000,1.7018,0,0,180.0*
1,1,0.6096,0.0000,0.5461*
1,1,0.6096,0.0000,0.5461*
1,1,0.6096,0.0000,-0.5461*
1,1,0.6096,0.0000,-0.5461*
%
%ADD56ROUNDEDRECTD56*%
G04:AMPARAMS|DCode=57|XSize=2mm|YSize=1.1mm|CornerRadius=0.275mm|HoleSize=0mm|Usage=FLASHONLY|Rotation=0.000|XOffset=0mm|YOffset=0mm|HoleType=Round|Shape=RoundedRectangle|*
%AMROUNDEDRECTD57*
21,1,2.0000,0.5500,0,0,0.0*
21,1,1.4500,1.1000,0,0,0.0*
1,1,0.5500,0.7250,-0.2750*
1,1,0.5500,-0.7250,-0.2750*
1,1,0.5500,-0.7250,0.2750*
1,1,0.5500,0.7250,0.2750*
%
%ADD57ROUNDEDRECTD57*%
%ADD58R,0.3000X0.8500*%
%ADD59R,0.6000X0.5000*%
%ADD60R,0.6096X0.5080*%
%ADD61R,0.5080X0.6096*%
%ADD62R,0.9144X1.6002*%
%ADD63C,0.2000*%
%ADD64R,0.7500X0.6000*%
%ADD65R,0.4572X0.3048*%
%ADD66R,0.5588X0.2540*%
%ADD67R,0.5080X0.5080*%
%ADD68C,0.2540*%
%ADD69C,0.5000*%
G04:AMPARAMS|DCode=70|XSize=0.7mm|YSize=0.7mm|CornerRadius=0.35mm|HoleSize=0mm|Usage=FLASHONLY|Rotation=90.000|XOffset=0mm|YOffset=0mm|HoleType=Round|Shape=RoundedRectangle|*
%AMROUNDEDRECTD70*
21,1,0.7000,0.0000,0,0,90.0*
21,1,0.0000,0.7000,0,0,90.0*
1,1,0.7000,0.0000,0.0000*
1,1,0.7000,0.0000,0.0000*
1,1,0.7000,0.0000,0.0000*
1,1,0.7000,0.0000,0.0000*
%
%ADD70ROUNDEDRECTD70*%
%ADD71C,0.7600*%
%ADD72C,1.5240*%
%ADD73C,6.0000*%
%ADD74C,0.4000*%
G36*
X170730Y604220D02*
X170444Y602501D01*
X170177Y602323D01*
X169235Y600913D01*
X168904Y599250D01*
X169235Y597587D01*
X170177Y596177D01*
X171587Y595235D01*
X173250Y594905D01*
X174913Y595235D01*
X176323Y596177D01*
X176864Y596988D01*
X178134Y596603D01*
Y594500D01*
X178534Y593534D01*
X179500Y593134D01*
X339750D01*
X340716Y593534D01*
X341116Y594500D01*
Y595775D01*
X342386Y596454D01*
X343087Y595985D01*
X344750Y595654D01*
X346413Y595985D01*
X347823Y596927D01*
X348765Y598337D01*
X349095Y600000D01*
X348765Y601663D01*
X348171Y602551D01*
X348814Y603821D01*
X405634D01*
Y408500D01*
X309710D01*
X308928Y409770D01*
X309131Y410789D01*
Y421711D01*
X309076Y421988D01*
X310118Y423258D01*
X311080D01*
X311080Y423258D01*
X311229Y423288D01*
X311750Y423184D01*
X312828Y423398D01*
X313741Y424009D01*
X314352Y424922D01*
X314566Y426000D01*
X314352Y427078D01*
X313741Y427991D01*
X312828Y428602D01*
X311750Y428816D01*
X310672Y428602D01*
X309759Y427991D01*
X309624Y427789D01*
X308354Y428175D01*
Y428670D01*
X308196Y429463D01*
X307747Y430135D01*
X307747Y430135D01*
X306790Y431092D01*
Y440577D01*
X308060Y441321D01*
X308750Y441184D01*
X309828Y441398D01*
X310741Y442009D01*
X311352Y442922D01*
X311566Y444000D01*
X311352Y445078D01*
X310741Y445991D01*
X309828Y446602D01*
X308750Y446816D01*
X308060Y446679D01*
X306790Y447423D01*
Y449653D01*
X307747Y450292D01*
X308589Y451552D01*
X308885Y453039D01*
Y463961D01*
X308589Y465448D01*
X307747Y466708D01*
X306487Y467550D01*
X305000Y467846D01*
X303513Y467550D01*
X302253Y466708D01*
X301411Y465448D01*
X301115Y463961D01*
Y453039D01*
X301411Y451552D01*
X302253Y450292D01*
X302646Y450029D01*
Y431032D01*
X302337Y430084D01*
X301465Y429660D01*
X301172Y429602D01*
X300259Y428991D01*
X298814Y429009D01*
X298310Y429439D01*
Y433244D01*
X298310Y433245D01*
X298152Y434037D01*
X297703Y434710D01*
X297703Y434710D01*
X294304Y438108D01*
Y444349D01*
X295574Y445093D01*
X296264Y444956D01*
X297342Y445170D01*
X298256Y445781D01*
X298866Y446694D01*
X299081Y447772D01*
X298866Y448849D01*
X298256Y449763D01*
X297342Y450374D01*
X296801Y450481D01*
X296476Y450910D01*
X296077Y451643D01*
X296044Y451828D01*
X296285Y453039D01*
Y463961D01*
X295989Y465448D01*
X295147Y466708D01*
X293887Y467550D01*
X292400Y467846D01*
X290913Y467550D01*
X289653Y466708D01*
X288811Y465448D01*
X288515Y463961D01*
Y453039D01*
X288811Y451552D01*
X289653Y450292D01*
X290161Y449953D01*
Y437250D01*
X290161Y437250D01*
X290161Y437250D01*
Y428565D01*
X289744Y428416D01*
X288891Y428354D01*
X288411Y429071D01*
X287498Y429682D01*
X286420Y429896D01*
X285342Y429682D01*
X284429Y429071D01*
X283818Y428158D01*
X283604Y427080D01*
X283818Y426002D01*
X284429Y425089D01*
X285342Y424478D01*
X286420Y424264D01*
X287498Y424478D01*
X288411Y425089D01*
X288524Y425257D01*
X289841Y424942D01*
X289890Y424531D01*
X289864Y424406D01*
X289057Y423198D01*
X288761Y421711D01*
Y410789D01*
X288964Y409770D01*
X288182Y408500D01*
X284610D01*
X283828Y409770D01*
X284031Y410789D01*
Y421711D01*
X283735Y423198D01*
X282893Y424458D01*
X282026Y425037D01*
Y434309D01*
X282102Y434422D01*
X282316Y435500D01*
X282102Y436578D01*
X282026Y436691D01*
Y449841D01*
X282701Y450292D01*
X283543Y451552D01*
X283839Y453039D01*
Y463961D01*
X283543Y465448D01*
X282701Y466708D01*
X281455Y467540D01*
X281440Y467551D01*
X280852Y468922D01*
X281066Y470000D01*
X282234Y470638D01*
X282837Y470235D01*
X284500Y469905D01*
X286163Y470235D01*
X286174Y470243D01*
X286500Y470178D01*
X293237D01*
X293274Y470124D01*
X293790Y469779D01*
X294400Y469657D01*
X296000D01*
X296609Y469779D01*
X297126Y470124D01*
X297471Y470640D01*
X297593Y471250D01*
Y471918D01*
X299685Y474010D01*
X302880D01*
X302880Y474010D01*
X303673Y474168D01*
X304345Y474617D01*
X304438Y474710D01*
X306062D01*
X307737Y473035D01*
X307737Y473035D01*
X308409Y472586D01*
X309202Y472428D01*
X312698D01*
Y470690D01*
X319302D01*
Y478310D01*
X312698D01*
Y476572D01*
X310060D01*
X308385Y478247D01*
X307713Y478696D01*
X307356Y478767D01*
X306726Y479771D01*
X306652Y480124D01*
X306831Y481023D01*
X306617Y482101D01*
X306006Y483015D01*
X305093Y483625D01*
X304015Y483840D01*
X302937Y483625D01*
X302144Y483095D01*
X299574D01*
X299573Y483095D01*
X299560Y483093D01*
X298250D01*
X297641Y482971D01*
X297124Y482626D01*
X296779Y482109D01*
X296657Y481500D01*
Y479500D01*
X296779Y478890D01*
X296874Y478748D01*
X297091Y478214D01*
X296847Y477032D01*
X294658Y474843D01*
X294400D01*
X293790Y474721D01*
X293274Y474376D01*
X293237Y474322D01*
X288831D01*
X288515Y475913D01*
X287573Y477323D01*
X286163Y478265D01*
X285541Y478388D01*
X282553Y481377D01*
X283179Y482548D01*
X283750Y482434D01*
X284828Y482648D01*
X285741Y483259D01*
X286352Y484172D01*
X286354Y484182D01*
X287580Y485146D01*
X304016D01*
X304016Y485146D01*
X304809Y485304D01*
X304825Y485315D01*
X306037Y485184D01*
X306364Y484849D01*
X306759Y484259D01*
X307672Y483648D01*
X308750Y483434D01*
X309828Y483648D01*
X310621Y484178D01*
X317137D01*
X318907Y482408D01*
Y482150D01*
X319029Y481540D01*
X319374Y481024D01*
X319890Y480679D01*
X320500Y480557D01*
X322500D01*
X323110Y480679D01*
X323626Y481024D01*
X323971Y481540D01*
X324093Y482150D01*
Y483750D01*
X323971Y484360D01*
X323626Y484876D01*
X323110Y485221D01*
X322500Y485343D01*
X321832D01*
X319460Y487715D01*
X318788Y488164D01*
X318456Y488230D01*
X318010Y489326D01*
X318014Y489584D01*
X320858Y492428D01*
X321305D01*
X321305Y492428D01*
X322098Y492586D01*
X322770Y493035D01*
X327239Y497504D01*
X328126Y497130D01*
X328450Y496919D01*
X328648Y495922D01*
X329259Y495009D01*
X330172Y494398D01*
X331250Y494184D01*
X332328Y494398D01*
X333241Y495009D01*
X333852Y495922D01*
X334038Y496858D01*
X337218Y500038D01*
X339762D01*
Y510062D01*
X335238D01*
Y503933D01*
X334487Y503284D01*
X333736Y503717D01*
X333438Y504022D01*
X333572Y504695D01*
X333572Y504695D01*
Y519405D01*
X338877Y524710D01*
X339456D01*
X339456Y524710D01*
X340248Y524868D01*
X340921Y525317D01*
X344042Y528438D01*
X346262D01*
Y538462D01*
X345801D01*
X345465Y538965D01*
X345465Y538965D01*
X339762Y544668D01*
Y548262D01*
X332238D01*
Y541738D01*
X336832D01*
X338838Y539732D01*
X338312Y538462D01*
X335279D01*
X335025Y538632D01*
X334232Y538790D01*
X334232Y538790D01*
X308639D01*
X307547Y539750D01*
X307410Y540438D01*
X307020Y541020D01*
X306437Y541410D01*
X305750Y541547D01*
X304790Y542639D01*
Y543361D01*
X305750Y544454D01*
X306437Y544590D01*
X307020Y544980D01*
X307410Y545563D01*
X307547Y546250D01*
X308750Y546684D01*
X308755Y546685D01*
X309828Y546898D01*
X310741Y547509D01*
X311352Y548422D01*
X311393Y548628D01*
X317190D01*
X317252Y548561D01*
X317753Y547358D01*
X317398Y546828D01*
X317184Y545750D01*
X317398Y544672D01*
X318009Y543759D01*
X318922Y543148D01*
X320000Y542934D01*
X321078Y543148D01*
X321991Y543759D01*
X322602Y544672D01*
X322816Y545750D01*
X322602Y546828D01*
X322437Y547074D01*
X322857Y548420D01*
X322917Y548467D01*
X323376Y548774D01*
X323721Y549291D01*
X323843Y549900D01*
Y551500D01*
X323721Y552109D01*
X323376Y552626D01*
X322859Y552971D01*
X322250Y553093D01*
X320250D01*
X319641Y552971D01*
X319342Y552772D01*
X309950D01*
X309950Y552772D01*
X309157Y552614D01*
X308762Y552350D01*
X308179Y552505D01*
X307547Y552750D01*
X307410Y553438D01*
X307020Y554020D01*
X306437Y554410D01*
X305750Y554547D01*
X304790Y555639D01*
Y556361D01*
X305750Y557453D01*
X306437Y557590D01*
X307020Y557980D01*
X307410Y558563D01*
X307547Y559250D01*
X307410Y559938D01*
X307020Y560520D01*
X306437Y560910D01*
X305750Y561046D01*
X304790Y562139D01*
Y562282D01*
X304790Y562282D01*
X304657Y562950D01*
X305019Y563465D01*
X305545Y563994D01*
X305750Y563954D01*
X306437Y564090D01*
X307020Y564480D01*
X307410Y565062D01*
X307624Y565746D01*
X308730Y565688D01*
X308750Y565684D01*
X309168Y565767D01*
X310093Y564843D01*
X311250Y564363D01*
X313844D01*
Y563714D01*
X319940D01*
X319940Y567869D01*
X319983Y568378D01*
X320438Y569350D01*
X320715Y569535D01*
X322675Y571495D01*
X322675Y571495D01*
X323124Y572167D01*
X323282Y572960D01*
Y578446D01*
X323124Y579239D01*
X322675Y579911D01*
X322675Y579911D01*
X321485Y581101D01*
X320813Y581550D01*
X321002Y582807D01*
X321500D01*
X322109Y582929D01*
X322626Y583274D01*
X322971Y583791D01*
X323093Y584400D01*
Y586000D01*
X322971Y586609D01*
X322626Y587126D01*
X322109Y587471D01*
X321500Y587593D01*
X319500D01*
X318890Y587471D01*
X318592Y587272D01*
X317408D01*
X316788Y587892D01*
X316602Y588828D01*
X315991Y589741D01*
X315078Y590352D01*
X314000Y590566D01*
X312922Y590352D01*
X312009Y589741D01*
X311398Y588828D01*
X311184Y587750D01*
X311398Y586672D01*
X312009Y585759D01*
X312922Y585148D01*
X313858Y584962D01*
X315085Y583735D01*
X315757Y583286D01*
X316550Y583128D01*
X316550Y583128D01*
X317672D01*
X317789Y582978D01*
X317170Y581708D01*
X312222D01*
X311216Y582714D01*
X311030Y583650D01*
X310419Y584563D01*
X309506Y585174D01*
X308727Y585329D01*
X308428Y585388D01*
X307410Y585938D01*
X307020Y586520D01*
X306437Y586910D01*
X305750Y587047D01*
X305063Y586910D01*
X304480Y586520D01*
X304090Y585938D01*
X303953Y585250D01*
X304090Y584562D01*
X304480Y583980D01*
X305063Y583590D01*
X305612Y582572D01*
X305776Y581748D01*
X305769Y581413D01*
X305066Y580415D01*
X305035Y580392D01*
X304480Y580020D01*
X304090Y579437D01*
X303953Y578750D01*
X304090Y578063D01*
X304480Y577480D01*
X304646Y577369D01*
X305663Y576606D01*
X305449Y575528D01*
X305663Y574450D01*
X304672Y573649D01*
X304480Y573520D01*
X304090Y572938D01*
X303953Y572250D01*
X304090Y571562D01*
X304480Y570980D01*
X305063Y570590D01*
X305270Y570549D01*
X305915Y569836D01*
X306078Y569224D01*
X305934Y568500D01*
X305935Y568497D01*
X305750Y567547D01*
X305063Y567410D01*
X304480Y567020D01*
X304090Y566437D01*
X303953Y565750D01*
X302777Y565153D01*
X300715Y567215D01*
X300043Y567664D01*
X299250Y567822D01*
X298457Y567664D01*
X297785Y567215D01*
X297336Y566543D01*
X297178Y565750D01*
X297336Y564957D01*
X297785Y564285D01*
X299848Y562223D01*
X299250Y561046D01*
X298563Y560910D01*
X297980Y560520D01*
X297590Y559938D01*
X297453Y559250D01*
X297590Y558563D01*
X297980Y557980D01*
X298563Y557590D01*
X299250Y557453D01*
X299376Y557479D01*
X300507Y556743D01*
X300646Y556536D01*
Y555464D01*
X300507Y555257D01*
X299376Y554521D01*
X299250Y554547D01*
X298563Y554410D01*
X297980Y554020D01*
X297590Y553438D01*
X297453Y552750D01*
X296250Y552316D01*
X296245Y552315D01*
X296136Y552294D01*
X294215Y554215D01*
X293543Y554664D01*
X292750Y554822D01*
X291957Y554664D01*
X291285Y554215D01*
X290836Y553543D01*
X290678Y552750D01*
X290836Y551957D01*
X291285Y551285D01*
X292435Y550135D01*
Y548865D01*
X291285Y547715D01*
X291285Y547715D01*
X290836Y547043D01*
X290678Y546250D01*
X290836Y545457D01*
X291285Y544785D01*
X291957Y544336D01*
X292573Y544213D01*
X292674Y544064D01*
X292971Y542901D01*
X291285Y541215D01*
X290836Y540543D01*
X290678Y539750D01*
X290836Y538957D01*
X291285Y538285D01*
X291957Y537836D01*
X292750Y537678D01*
X293543Y537836D01*
X294215Y538285D01*
X294708Y538778D01*
X295500Y538620D01*
X296578Y538834D01*
X297980Y538480D01*
X298563Y538090D01*
X299250Y537953D01*
X299937Y538090D01*
X301062Y537314D01*
X301253Y537029D01*
X303029Y535253D01*
X303029Y535253D01*
X303314Y535062D01*
X303754Y534560D01*
X303993Y533451D01*
X303953Y533250D01*
X304090Y532562D01*
X304480Y531980D01*
X305063Y531590D01*
X305750Y531454D01*
X306437Y531590D01*
X307020Y531980D01*
X307410Y532562D01*
X307547Y533250D01*
X307521Y533376D01*
X308257Y534507D01*
X308464Y534646D01*
X333374D01*
X335238Y532782D01*
Y528438D01*
X335238Y528438D01*
X335238D01*
X335475Y527168D01*
X330035Y521728D01*
X329586Y521056D01*
X329428Y520263D01*
X329428Y520263D01*
Y505553D01*
X326817Y502942D01*
X325474Y503395D01*
X325471Y503410D01*
X325126Y503926D01*
X324609Y504271D01*
X324000Y504393D01*
X322000D01*
X321390Y504271D01*
X321092Y504072D01*
X313250D01*
X313250Y504072D01*
X312457Y503914D01*
X311785Y503465D01*
X311785Y503465D01*
X308785Y500465D01*
X307709Y500713D01*
X307541Y500778D01*
X307410Y501438D01*
X307020Y502020D01*
X306437Y502410D01*
X305750Y502547D01*
X305063Y502410D01*
X304480Y502020D01*
X304090Y501438D01*
X303953Y500750D01*
X304090Y500063D01*
X304480Y499480D01*
X305063Y499090D01*
X305787Y498748D01*
X305976Y497712D01*
X305934Y497500D01*
X305956Y497387D01*
X304285Y495715D01*
X303836Y495043D01*
X303678Y494250D01*
X303836Y493457D01*
X304285Y492785D01*
X304628Y492556D01*
X304928Y491404D01*
X304917Y491049D01*
X303158Y489290D01*
X288401D01*
X287841Y489664D01*
X287048Y489822D01*
X287048Y489822D01*
X286250D01*
X286250Y489822D01*
X285457Y489664D01*
X284785Y489215D01*
X283608Y488038D01*
X282672Y487852D01*
X281759Y487241D01*
X281148Y486328D01*
X280934Y485250D01*
X281048Y484678D01*
X279877Y484053D01*
X272652Y491278D01*
X273250Y492453D01*
X273937Y492590D01*
X274520Y492980D01*
X274910Y493563D01*
X275047Y494250D01*
X274910Y494938D01*
X274520Y495520D01*
X273937Y495910D01*
X273250Y496046D01*
X272563Y495910D01*
X271980Y495520D01*
X271590Y494938D01*
X271453Y494250D01*
X270277Y493653D01*
X268215Y495715D01*
X267543Y496164D01*
X266750Y496322D01*
X265957Y496164D01*
X265285Y495715D01*
X264836Y495043D01*
X264678Y494250D01*
X264836Y493457D01*
X265285Y492785D01*
X273857Y484213D01*
X273331Y482943D01*
X272000D01*
X271390Y482821D01*
X271092Y482622D01*
X268512D01*
Y483762D01*
X263168D01*
X262322Y484608D01*
Y494250D01*
X262164Y495043D01*
X261715Y495715D01*
X261043Y496164D01*
X260250Y496322D01*
X259457Y496164D01*
X258785Y495715D01*
X258336Y495043D01*
X258228Y494498D01*
X257057Y493873D01*
X255215Y495715D01*
X254543Y496164D01*
X253750Y496322D01*
X252957Y496164D01*
X252285Y495715D01*
X251836Y495043D01*
X251678Y494250D01*
X251836Y493457D01*
X252285Y492785D01*
X254678Y490392D01*
Y477108D01*
X251332Y473762D01*
X245988D01*
Y470418D01*
X244392Y468822D01*
X244258D01*
X244109Y468921D01*
X243500Y469043D01*
X241500D01*
X240891Y468921D01*
X240374Y468576D01*
X240029Y468059D01*
X239907Y467450D01*
Y465850D01*
X240029Y465241D01*
X240374Y464724D01*
X240891Y464379D01*
X241500Y464257D01*
X243500D01*
X244109Y464379D01*
X244558Y464678D01*
X245250D01*
X245250Y464678D01*
X246043Y464836D01*
X246715Y465285D01*
X247668Y466238D01*
X255012D01*
Y471582D01*
X258215Y474785D01*
X258215Y474785D01*
X258588Y475344D01*
X259488Y476238D01*
X268512D01*
Y478478D01*
X271092D01*
X271390Y478279D01*
X272000Y478157D01*
X274000D01*
X274610Y478279D01*
X275126Y478624D01*
X275471Y479141D01*
X275593Y479750D01*
Y480681D01*
X276863Y481207D01*
X281155Y476915D01*
X280485Y475913D01*
X280154Y474250D01*
X280309Y473474D01*
X279760Y472986D01*
X279182Y472631D01*
X278250Y472816D01*
X277172Y472602D01*
X276259Y471991D01*
X275648Y471078D01*
X275434Y470000D01*
X275648Y468922D01*
X276178Y468129D01*
Y464508D01*
X276069Y463961D01*
Y453039D01*
X276365Y451552D01*
X277207Y450292D01*
X277882Y449841D01*
Y437741D01*
X277509Y437491D01*
X276898Y436578D01*
X276684Y435500D01*
X276898Y434422D01*
X277509Y433509D01*
X277882Y433259D01*
Y424781D01*
X277399Y424458D01*
X276557Y423198D01*
X276261Y421711D01*
Y410789D01*
X276464Y409770D01*
X275682Y408500D01*
X225960D01*
X225178Y409770D01*
X225381Y410789D01*
Y418345D01*
X225829Y418696D01*
X226651Y419126D01*
X227511Y418955D01*
X228589Y419169D01*
X229502Y419779D01*
X230113Y420693D01*
X230327Y421771D01*
X230113Y422848D01*
X229502Y423762D01*
X228589Y424372D01*
X227511Y424587D01*
X226433Y424372D01*
X226014Y424092D01*
X224565Y424199D01*
X224350Y424297D01*
X224243Y424458D01*
X223118Y425210D01*
Y433250D01*
Y449841D01*
X223793Y450292D01*
X224635Y451552D01*
X224931Y453039D01*
Y463961D01*
X224635Y465448D01*
X223793Y466708D01*
X222533Y467550D01*
X221046Y467846D01*
X219559Y467550D01*
X218299Y466708D01*
X217457Y465448D01*
X217161Y463961D01*
Y453039D01*
X217457Y451552D01*
X218299Y450292D01*
X218974Y449841D01*
Y435322D01*
X217500D01*
X216707Y435164D01*
X216035Y434715D01*
X216035Y434715D01*
X215608Y434288D01*
X214672Y434102D01*
X213759Y433491D01*
X213148Y432578D01*
X212934Y431500D01*
X213148Y430422D01*
X213759Y429509D01*
X213775Y429498D01*
X213803Y429417D01*
X213688Y428028D01*
X213259Y427741D01*
X212648Y426828D01*
X212512Y426140D01*
X212122Y425758D01*
X211783Y425591D01*
X211199Y425448D01*
X210777Y425766D01*
X210612Y426598D01*
X210518Y426739D01*
Y449841D01*
X211193Y450292D01*
X212035Y451552D01*
X212331Y453039D01*
Y463961D01*
X212035Y465448D01*
X211193Y466708D01*
X209933Y467550D01*
X208446Y467846D01*
X206959Y467550D01*
X205699Y466708D01*
X204857Y465448D01*
X204561Y463961D01*
Y453039D01*
X204857Y451552D01*
X205699Y450292D01*
X206374Y449841D01*
Y427749D01*
X206019Y427512D01*
X205408Y426598D01*
X205194Y425521D01*
X205408Y424443D01*
X205774Y423896D01*
X205307Y423198D01*
X205011Y421711D01*
Y410789D01*
X205214Y409770D01*
X204432Y408500D01*
X200860D01*
X200078Y409770D01*
X200281Y410789D01*
Y415638D01*
X200585Y416093D01*
X200838Y417366D01*
Y443655D01*
X201741Y444259D01*
X202352Y445172D01*
X202566Y446250D01*
X202352Y447328D01*
X201741Y448241D01*
X200838Y448845D01*
Y456988D01*
X200585Y458261D01*
X199885Y459309D01*
Y463961D01*
X199589Y465448D01*
X198747Y466708D01*
X197487Y467550D01*
X196000Y467846D01*
X194513Y467550D01*
X193253Y466708D01*
X192411Y465448D01*
X192115Y463961D01*
Y453039D01*
X192317Y452026D01*
X192315Y451984D01*
X191675Y450851D01*
X191478Y450663D01*
X191172Y450602D01*
X190259Y449991D01*
X189648Y449078D01*
X189434Y448000D01*
X189648Y446922D01*
X190259Y446009D01*
X191172Y445398D01*
X192250Y445184D01*
X192916Y445316D01*
X194186Y444561D01*
Y424817D01*
X193649Y424458D01*
X192807Y423198D01*
X192511Y421711D01*
Y410789D01*
X192714Y409770D01*
X191932Y408500D01*
X108366D01*
Y547275D01*
X109636Y547954D01*
X110337Y547486D01*
X112000Y547155D01*
X113663Y547486D01*
X115073Y548428D01*
X116015Y549837D01*
X116345Y551500D01*
X116015Y553163D01*
X115073Y554573D01*
X113663Y555515D01*
X112000Y555846D01*
X110337Y555515D01*
X109636Y555046D01*
X108366Y555725D01*
Y604446D01*
X170556D01*
X170730Y604220D01*
D02*
G37*
%LPC*%
G36*
X299250Y587047D02*
X298563Y586910D01*
X297980Y586520D01*
X297590Y585938D01*
X297453Y585250D01*
X297590Y584562D01*
X297980Y583980D01*
X298563Y583590D01*
X299250Y583453D01*
X299937Y583590D01*
X300520Y583980D01*
X300910Y584562D01*
X301047Y585250D01*
X300910Y585938D01*
X300520Y586520D01*
X299937Y586910D01*
X299250Y587047D01*
D02*
G37*
G36*
X292750D02*
X292062Y586910D01*
X291480Y586520D01*
X291090Y585938D01*
X290954Y585250D01*
X291090Y584562D01*
X291480Y583980D01*
X292062Y583590D01*
X292750Y583453D01*
X293438Y583590D01*
X294020Y583980D01*
X294410Y584562D01*
X294547Y585250D01*
X294410Y585938D01*
X294020Y586520D01*
X293438Y586910D01*
X292750Y587047D01*
D02*
G37*
G36*
X286250D02*
X285562Y586910D01*
X284980Y586520D01*
X284590Y585938D01*
X284454Y585250D01*
X284590Y584562D01*
X284980Y583980D01*
X285562Y583590D01*
X286250Y583453D01*
X286938Y583590D01*
X287520Y583980D01*
X287910Y584562D01*
X288046Y585250D01*
X287910Y585938D01*
X287520Y586520D01*
X286938Y586910D01*
X286250Y587047D01*
D02*
G37*
G36*
X279750D02*
X279062Y586910D01*
X278480Y586520D01*
X278090Y585938D01*
X277953Y585250D01*
X278090Y584562D01*
X278480Y583980D01*
X279062Y583590D01*
X279750Y583453D01*
X280438Y583590D01*
X281020Y583980D01*
X281410Y584562D01*
X281546Y585250D01*
X281410Y585938D01*
X281020Y586520D01*
X280438Y586910D01*
X279750Y587047D01*
D02*
G37*
G36*
X273250D02*
X272563Y586910D01*
X271980Y586520D01*
X271590Y585938D01*
X271453Y585250D01*
X271590Y584562D01*
X271980Y583980D01*
X272563Y583590D01*
X273250Y583453D01*
X273937Y583590D01*
X274520Y583980D01*
X274910Y584562D01*
X275047Y585250D01*
X274910Y585938D01*
X274520Y586520D01*
X273937Y586910D01*
X273250Y587047D01*
D02*
G37*
G36*
X266750D02*
X266063Y586910D01*
X265480Y586520D01*
X265090Y585938D01*
X264953Y585250D01*
X265090Y584562D01*
X265480Y583980D01*
X266063Y583590D01*
X266750Y583453D01*
X267437Y583590D01*
X268020Y583980D01*
X268410Y584562D01*
X268547Y585250D01*
X268410Y585938D01*
X268020Y586520D01*
X267437Y586910D01*
X266750Y587047D01*
D02*
G37*
G36*
X260250D02*
X259562Y586910D01*
X258980Y586520D01*
X258590Y585938D01*
X258454Y585250D01*
X258590Y584562D01*
X258980Y583980D01*
X259562Y583590D01*
X260250Y583453D01*
X260938Y583590D01*
X261520Y583980D01*
X261910Y584562D01*
X262047Y585250D01*
X261910Y585938D01*
X261520Y586520D01*
X260938Y586910D01*
X260250Y587047D01*
D02*
G37*
G36*
X253750D02*
X253062Y586910D01*
X252480Y586520D01*
X252090Y585938D01*
X251954Y585250D01*
X252090Y584562D01*
X252480Y583980D01*
X253062Y583590D01*
X253750Y583453D01*
X254438Y583590D01*
X255020Y583980D01*
X255410Y584562D01*
X255546Y585250D01*
X255410Y585938D01*
X255020Y586520D01*
X254438Y586910D01*
X253750Y587047D01*
D02*
G37*
G36*
X211250Y591566D02*
X210172Y591352D01*
X209259Y590741D01*
X208648Y589828D01*
X208434Y588750D01*
X208648Y587672D01*
X208961Y587205D01*
X209198Y586637D01*
X208689Y585612D01*
X208509Y585491D01*
X207898Y584578D01*
X207684Y583500D01*
X207898Y582422D01*
X208509Y581509D01*
X209422Y580898D01*
X209734Y580836D01*
X211627Y578943D01*
X211138Y577636D01*
X210383Y577546D01*
X199965Y587965D01*
X199293Y588414D01*
X198506Y588571D01*
X198422Y588696D01*
X197666Y589201D01*
X196774Y589379D01*
X193726D01*
X192834Y589201D01*
X192078Y588696D01*
X191573Y587940D01*
X191395Y587048D01*
Y580952D01*
X191573Y580060D01*
X192078Y579304D01*
X192834Y578798D01*
X193726Y578621D01*
X196774D01*
X197666Y578798D01*
X198422Y579304D01*
X198927Y580060D01*
X199105Y580952D01*
Y581306D01*
X200278Y581792D01*
X207228Y574842D01*
X206702Y573572D01*
X199105D01*
Y574548D01*
X198927Y575440D01*
X198422Y576196D01*
X197666Y576702D01*
X196774Y576879D01*
X193726D01*
X192834Y576702D01*
X192078Y576196D01*
X191573Y575440D01*
X191395Y574548D01*
Y568452D01*
X191573Y567560D01*
X192078Y566804D01*
X192834Y566299D01*
X193726Y566121D01*
X195540D01*
X196066Y564851D01*
X195703Y564488D01*
X195254Y563816D01*
X195096Y563023D01*
X195096Y563023D01*
Y561072D01*
X183096D01*
X182864Y561304D01*
X182192Y561753D01*
X181399Y561911D01*
X181399Y561911D01*
X178059D01*
X178059Y561911D01*
X177266Y561753D01*
X176594Y561304D01*
X176594Y561304D01*
X173753Y558463D01*
X173304Y557791D01*
X173146Y556998D01*
X173146Y556998D01*
Y543982D01*
X173146Y543982D01*
X173304Y543189D01*
X173491Y542910D01*
X173501Y542780D01*
X173470Y542689D01*
X172998Y542517D01*
X172022Y542388D01*
X171328Y542852D01*
X170250Y543066D01*
X169172Y542852D01*
X169010Y542743D01*
X167740Y543422D01*
Y544282D01*
X167740Y544282D01*
X167582Y545075D01*
X167133Y545747D01*
X166093Y546787D01*
Y547250D01*
X165971Y547859D01*
X165626Y548376D01*
X165109Y548721D01*
X164500Y548843D01*
X162900D01*
X162290Y548721D01*
X161774Y548376D01*
X161429Y547859D01*
X161307Y547250D01*
Y545250D01*
X161429Y544641D01*
X161774Y544124D01*
X162290Y543779D01*
X162900Y543657D01*
X163363D01*
X163596Y543424D01*
Y540250D01*
X163754Y539457D01*
X163927Y539199D01*
X164152Y538673D01*
X163668Y537615D01*
X163598Y537568D01*
X163415Y537532D01*
X160060D01*
Y533802D01*
X160060Y533468D01*
X160060Y532217D01*
Y528468D01*
X160060Y528468D01*
X160060Y527452D01*
X160060D01*
X160060Y527198D01*
Y523388D01*
X161051D01*
X161264Y523068D01*
X169424Y514908D01*
Y505750D01*
X169677Y504477D01*
X170141Y503783D01*
X169638Y502577D01*
X169579Y502513D01*
X163416D01*
Y484987D01*
X174084D01*
Y496154D01*
X174215Y496285D01*
X174215Y496285D01*
X174664Y496957D01*
X174822Y497750D01*
Y503211D01*
X175102Y503398D01*
X175823Y504477D01*
X176076Y505750D01*
Y506146D01*
X177715Y507785D01*
X177715Y507785D01*
X178164Y508457D01*
X178322Y509250D01*
Y509538D01*
X178512D01*
Y519562D01*
X174178D01*
X167445Y526295D01*
X167172Y527452D01*
X167172Y528468D01*
X167172Y528468D01*
X167172Y532370D01*
X167336Y533008D01*
X167555Y533643D01*
X168076Y534422D01*
X168290Y535500D01*
X168076Y536577D01*
X168958Y537542D01*
X169172Y537648D01*
X170250Y537434D01*
X171328Y537648D01*
X172241Y538259D01*
X172718Y538972D01*
X173600Y538902D01*
X173988Y538761D01*
Y537938D01*
X178512D01*
Y542418D01*
X179653Y542910D01*
X180488Y542228D01*
Y537938D01*
X185012D01*
Y547962D01*
X182978D01*
X182670Y548313D01*
X182167Y549232D01*
X182325Y550027D01*
X182111Y551105D01*
X181908Y551408D01*
X182586Y552678D01*
X190392D01*
X193678Y549392D01*
Y547962D01*
X193488D01*
Y537938D01*
X198012D01*
Y547962D01*
X197822D01*
Y550250D01*
X197822Y550250D01*
X197664Y551043D01*
X197215Y551715D01*
X197215Y551715D01*
X193272Y555658D01*
X193798Y556928D01*
X196250D01*
X196250Y556928D01*
X197043Y557086D01*
X197429Y557344D01*
X197520Y557303D01*
X198467Y556548D01*
X198407Y556250D01*
Y554650D01*
X198529Y554040D01*
X198874Y553524D01*
X199391Y553179D01*
X200000Y553057D01*
X202000D01*
X202610Y553179D01*
X202908Y553378D01*
X210273D01*
X211250Y553184D01*
X211765Y553286D01*
X212679Y552874D01*
X213034Y552343D01*
X213090Y552062D01*
X213480Y551480D01*
X214062Y551090D01*
X214750Y550953D01*
X215438Y551090D01*
X216020Y551480D01*
X216410Y552062D01*
X216513Y552583D01*
X216670Y552837D01*
X217683Y553547D01*
X218250Y553434D01*
X218297Y553443D01*
X219454Y552750D01*
X219590Y552062D01*
X219980Y551480D01*
X220562Y551090D01*
X221250Y550953D01*
X221938Y551090D01*
X222520Y551480D01*
X222910Y552062D01*
X222956Y552295D01*
X223169Y552800D01*
X224245Y553235D01*
X224500Y553184D01*
X224755Y553235D01*
X225831Y552800D01*
X226044Y552295D01*
X226090Y552062D01*
X226480Y551480D01*
X227062Y551090D01*
X227343Y551035D01*
X227754Y550759D01*
X228022Y549453D01*
X226285Y547715D01*
X225836Y547043D01*
X225709Y546407D01*
X224771Y545733D01*
X224589Y545628D01*
X224232Y545699D01*
X223046Y546250D01*
X222910Y546937D01*
X222520Y547520D01*
X221938Y547910D01*
X221250Y548046D01*
X220562Y547910D01*
X219980Y547520D01*
X219590Y546937D01*
X219454Y546250D01*
X219590Y545563D01*
X219980Y544980D01*
X220909Y544104D01*
X220695Y543027D01*
X220909Y541949D01*
X219995Y541031D01*
X219980Y541020D01*
X219590Y540438D01*
X219454Y539750D01*
X219590Y539062D01*
X219980Y538480D01*
X220562Y538090D01*
X221250Y537953D01*
X221938Y538090D01*
X222520Y538480D01*
X222910Y539062D01*
X223046Y539750D01*
X224222Y540352D01*
X224589Y540425D01*
X224941Y540206D01*
X225700Y539640D01*
X225836Y538957D01*
X226285Y538285D01*
X227369Y537201D01*
X227250Y535680D01*
X226285Y534715D01*
X226285Y534715D01*
X225836Y534043D01*
X225678Y533250D01*
X225836Y532457D01*
X226285Y531785D01*
X226957Y531336D01*
X227750Y531178D01*
X228543Y531336D01*
X229215Y531785D01*
X229952Y532522D01*
X230261Y532460D01*
X231339Y532674D01*
X232253Y533285D01*
X232863Y534198D01*
X233077Y535276D01*
X232863Y536354D01*
X232688Y536616D01*
Y536884D01*
X232688Y536884D01*
X232530Y537677D01*
X232081Y538349D01*
X232081Y538349D01*
X229215Y541215D01*
X228543Y541664D01*
X227750Y541822D01*
X227591Y541790D01*
X226556Y542615D01*
X226554Y543391D01*
X227580Y544212D01*
X227750Y544178D01*
X228543Y544336D01*
X229215Y544785D01*
X230886Y546456D01*
X231000Y546434D01*
X232078Y546648D01*
X232991Y547259D01*
X233602Y548172D01*
X233816Y549250D01*
X233714Y549765D01*
X234126Y550679D01*
X234657Y551035D01*
X234937Y551090D01*
X235520Y551480D01*
X235910Y552062D01*
X236047Y552750D01*
X235910Y553438D01*
X235520Y554020D01*
X234937Y554410D01*
X234250Y554547D01*
X233563Y554410D01*
X232980Y554020D01*
X232590Y553438D01*
X232499Y552981D01*
X232400Y552715D01*
X231307Y552005D01*
X231000Y552066D01*
X230693Y552005D01*
X229600Y552715D01*
X229501Y552981D01*
X229410Y553438D01*
X229020Y554020D01*
X228438Y554410D01*
X228205Y554456D01*
X227700Y554669D01*
X227265Y555745D01*
X227288Y555858D01*
X229215Y557785D01*
X229664Y558457D01*
X229822Y559250D01*
X229664Y560043D01*
X229215Y560715D01*
X228543Y561164D01*
X228393Y561194D01*
X227978Y561484D01*
X227804Y562874D01*
X229215Y564285D01*
X229664Y564957D01*
X229822Y565750D01*
X229797Y565876D01*
X230555Y566977D01*
X231818Y566892D01*
X232479Y565876D01*
X232453Y565750D01*
X232590Y565062D01*
X232980Y564480D01*
X233563Y564090D01*
X234250Y563954D01*
X234937Y564090D01*
X236062Y563314D01*
X236253Y563029D01*
X241497Y557785D01*
X241497Y557785D01*
X242169Y557336D01*
X242962Y557178D01*
X278892D01*
X284785Y551285D01*
X285457Y550836D01*
X286250Y550678D01*
X287043Y550836D01*
X287715Y551285D01*
X288164Y551957D01*
X288322Y552750D01*
X288164Y553543D01*
X287715Y554215D01*
X285653Y556277D01*
X286250Y557453D01*
X286938Y557590D01*
X287520Y557980D01*
X287910Y558563D01*
X288046Y559250D01*
X287910Y559938D01*
X287520Y560520D01*
X286938Y560910D01*
X286250Y561046D01*
X285562Y560910D01*
X284980Y560520D01*
X284590Y559938D01*
X284454Y559250D01*
X283277Y558653D01*
X281215Y560715D01*
X280543Y561164D01*
X279750Y561322D01*
X279750Y561322D01*
X243820D01*
X242114Y563028D01*
X242020Y564480D01*
X242410Y565062D01*
X242547Y565750D01*
X242410Y566437D01*
X242020Y567020D01*
X241437Y567410D01*
X240750Y567547D01*
X240063Y567410D01*
X239251Y568395D01*
X239183Y568497D01*
X239183Y568497D01*
X236997Y570683D01*
X236895Y570751D01*
X236424Y571139D01*
X236467Y572619D01*
X237139Y573210D01*
X237861D01*
X238953Y572250D01*
X239090Y571562D01*
X239480Y570980D01*
X240063Y570590D01*
X240750Y570453D01*
X241437Y570590D01*
X242443Y570762D01*
X243158Y570396D01*
X243247Y570336D01*
X244040Y570178D01*
X247250D01*
X248043Y570336D01*
X248715Y570785D01*
X249164Y571457D01*
X249322Y572250D01*
X249164Y573043D01*
X248715Y573715D01*
X248043Y574164D01*
X247250Y574322D01*
X245681D01*
X245247Y574971D01*
X245247Y574971D01*
X243471Y576747D01*
X243186Y576938D01*
X242735Y577592D01*
X243045Y579049D01*
X243703Y579443D01*
X243750Y579434D01*
X244317Y579547D01*
X245330Y578837D01*
X245487Y578583D01*
X245590Y578063D01*
X245980Y577480D01*
X246562Y577090D01*
X247250Y576954D01*
X247938Y577090D01*
X248520Y577480D01*
X248910Y578063D01*
X249046Y578750D01*
X248910Y579437D01*
X248520Y580020D01*
X247938Y580410D01*
X247417Y580513D01*
X247163Y580670D01*
X246453Y581683D01*
X246566Y582250D01*
X246557Y582296D01*
X247250Y583453D01*
X247938Y583590D01*
X248520Y583980D01*
X248910Y584562D01*
X249046Y585250D01*
X248910Y585938D01*
X248520Y586520D01*
X247938Y586910D01*
X247250Y587047D01*
X246562Y586910D01*
X245980Y586520D01*
X245590Y585938D01*
X245578Y585878D01*
X245091Y585211D01*
X243831Y585099D01*
X242215Y586715D01*
X241543Y587164D01*
X240750Y587322D01*
X239957Y587164D01*
X239285Y586715D01*
X238836Y586043D01*
X238678Y585250D01*
X238836Y584457D01*
X239285Y583785D01*
X240901Y582169D01*
X240789Y580910D01*
X240122Y580422D01*
X240063Y580410D01*
X239480Y580020D01*
X239090Y579437D01*
X238953Y578750D01*
X238979Y578624D01*
X238243Y577493D01*
X238036Y577354D01*
X236964D01*
X236757Y577493D01*
X236021Y578624D01*
X236047Y578750D01*
X235910Y579437D01*
X235520Y580020D01*
X234937Y580410D01*
X234417Y580513D01*
X234163Y580670D01*
X233453Y581683D01*
X233566Y582250D01*
X233557Y582296D01*
X234250Y583453D01*
X234937Y583590D01*
X235520Y583980D01*
X235910Y584562D01*
X236047Y585250D01*
X235910Y585938D01*
X235520Y586520D01*
X234937Y586910D01*
X234250Y587047D01*
X233563Y586910D01*
X232980Y586520D01*
X232590Y585938D01*
X232578Y585878D01*
X232054Y585161D01*
X231213Y584974D01*
X230750Y585066D01*
X230332Y584983D01*
X229418Y585896D01*
X229410Y585938D01*
X229020Y586520D01*
X228438Y586910D01*
X227750Y587047D01*
X227062Y586910D01*
X226480Y586520D01*
X226090Y585938D01*
X226086Y585918D01*
X225786Y585216D01*
X224709Y584995D01*
X224537Y585029D01*
X224118Y584946D01*
X222657Y586407D01*
X222572Y586442D01*
X222520Y586520D01*
X221938Y586910D01*
X221250Y587047D01*
X220562Y586910D01*
X219980Y586520D01*
X219590Y585938D01*
X219454Y585250D01*
X219590Y584562D01*
X219980Y583980D01*
X220562Y583590D01*
X220916Y583520D01*
X221804Y582632D01*
X221721Y582213D01*
X221817Y581729D01*
X221360Y580777D01*
X220871Y580471D01*
X220562Y580410D01*
X219980Y580020D01*
X219590Y579437D01*
X219454Y578750D01*
X219479Y578624D01*
X218818Y577608D01*
X217555Y577523D01*
X216797Y578624D01*
X216822Y578750D01*
X216664Y579543D01*
X216215Y580215D01*
X214496Y581934D01*
X214613Y582505D01*
X214998Y583228D01*
X215543Y583336D01*
X216215Y583785D01*
X216664Y584457D01*
X216822Y585250D01*
X216664Y586043D01*
X216215Y586715D01*
X214038Y588892D01*
X213852Y589828D01*
X213241Y590741D01*
X212328Y591352D01*
X211250Y591566D01*
D02*
G37*
G36*
X299250Y580546D02*
X298563Y580410D01*
X297980Y580020D01*
X297590Y579437D01*
X297453Y578750D01*
X297590Y578063D01*
X297980Y577480D01*
X298563Y577090D01*
X299250Y576954D01*
X299937Y577090D01*
X300520Y577480D01*
X300910Y578063D01*
X301047Y578750D01*
X300910Y579437D01*
X300520Y580020D01*
X299937Y580410D01*
X299250Y580546D01*
D02*
G37*
G36*
X292750D02*
X292062Y580410D01*
X291480Y580020D01*
X291090Y579437D01*
X290954Y578750D01*
X291090Y578063D01*
X291480Y577480D01*
X292062Y577090D01*
X292750Y576954D01*
X293438Y577090D01*
X294020Y577480D01*
X294410Y578063D01*
X294547Y578750D01*
X294410Y579437D01*
X294020Y580020D01*
X293438Y580410D01*
X292750Y580546D01*
D02*
G37*
G36*
X286250D02*
X285562Y580410D01*
X284980Y580020D01*
X284590Y579437D01*
X284454Y578750D01*
X284590Y578063D01*
X284980Y577480D01*
X285562Y577090D01*
X286250Y576954D01*
X286938Y577090D01*
X287520Y577480D01*
X287910Y578063D01*
X288046Y578750D01*
X287910Y579437D01*
X287520Y580020D01*
X286938Y580410D01*
X286250Y580546D01*
D02*
G37*
G36*
X279750D02*
X279062Y580410D01*
X278480Y580020D01*
X278090Y579437D01*
X277953Y578750D01*
X278090Y578063D01*
X278480Y577480D01*
X279062Y577090D01*
X279750Y576954D01*
X280438Y577090D01*
X281020Y577480D01*
X281410Y578063D01*
X281546Y578750D01*
X281410Y579437D01*
X281020Y580020D01*
X280438Y580410D01*
X279750Y580546D01*
D02*
G37*
G36*
X273250D02*
X272563Y580410D01*
X271980Y580020D01*
X271590Y579437D01*
X271453Y578750D01*
X271590Y578063D01*
X271980Y577480D01*
X272563Y577090D01*
X273250Y576954D01*
X273937Y577090D01*
X274520Y577480D01*
X274910Y578063D01*
X275047Y578750D01*
X274910Y579437D01*
X274520Y580020D01*
X273937Y580410D01*
X273250Y580546D01*
D02*
G37*
G36*
X266750D02*
X266063Y580410D01*
X265480Y580020D01*
X265090Y579437D01*
X264953Y578750D01*
X265090Y578063D01*
X265480Y577480D01*
X266063Y577090D01*
X266750Y576954D01*
X267437Y577090D01*
X268020Y577480D01*
X268410Y578063D01*
X268547Y578750D01*
X268410Y579437D01*
X268020Y580020D01*
X267437Y580410D01*
X266750Y580546D01*
D02*
G37*
G36*
X260250D02*
X259562Y580410D01*
X258980Y580020D01*
X258590Y579437D01*
X258454Y578750D01*
X258590Y578063D01*
X258980Y577480D01*
X259562Y577090D01*
X260250Y576954D01*
X260938Y577090D01*
X261520Y577480D01*
X261910Y578063D01*
X262047Y578750D01*
X261910Y579437D01*
X261520Y580020D01*
X260938Y580410D01*
X260250Y580546D01*
D02*
G37*
G36*
X253750D02*
X253062Y580410D01*
X252480Y580020D01*
X252090Y579437D01*
X251954Y578750D01*
X252090Y578063D01*
X252480Y577480D01*
X253062Y577090D01*
X253750Y576954D01*
X254438Y577090D01*
X255020Y577480D01*
X255410Y578063D01*
X255546Y578750D01*
X255410Y579437D01*
X255020Y580020D01*
X254438Y580410D01*
X253750Y580546D01*
D02*
G37*
G36*
X266500Y574322D02*
X265707Y574164D01*
X265035Y573715D01*
X263751Y572431D01*
X262439Y572533D01*
X262164Y573043D01*
X261715Y573715D01*
X261043Y574164D01*
X260250Y574322D01*
X259457Y574164D01*
X258785Y573715D01*
X257250Y572180D01*
X255715Y573715D01*
X255043Y574164D01*
X254250Y574322D01*
X254250Y574322D01*
X253750D01*
X252957Y574164D01*
X252285Y573715D01*
X251836Y573043D01*
X251678Y572250D01*
X251836Y571457D01*
X252285Y570785D01*
X252957Y570336D01*
X253303Y570267D01*
X254462Y569108D01*
X254648Y568172D01*
X255259Y567259D01*
X256172Y566648D01*
X257250Y566434D01*
X258328Y566648D01*
X259241Y567259D01*
X259852Y568172D01*
X259877Y568301D01*
X260940Y568402D01*
X261185Y568367D01*
X261759Y567509D01*
X262672Y566898D01*
X263608Y566712D01*
X264705Y565615D01*
X264836Y564957D01*
X265285Y564285D01*
X265957Y563836D01*
X266750Y563678D01*
X267543Y563836D01*
X268215Y564285D01*
X268664Y564957D01*
X268822Y565750D01*
Y566500D01*
X268822Y566500D01*
X268664Y567293D01*
X268215Y567965D01*
X268215Y567965D01*
X266932Y569248D01*
X267543Y570336D01*
X268215Y570785D01*
X268664Y571457D01*
X268822Y572250D01*
X268664Y573043D01*
X268215Y573715D01*
X267543Y574164D01*
X266750Y574322D01*
X266500D01*
X266500Y574322D01*
D02*
G37*
G36*
X299250Y574047D02*
X298563Y573910D01*
X297980Y573520D01*
X297590Y572938D01*
X297453Y572250D01*
X297590Y571562D01*
X297980Y570980D01*
X298563Y570590D01*
X299250Y570453D01*
X299937Y570590D01*
X300520Y570980D01*
X300910Y571562D01*
X301047Y572250D01*
X300910Y572938D01*
X300520Y573520D01*
X299937Y573910D01*
X299250Y574047D01*
D02*
G37*
G36*
X292750D02*
X292062Y573910D01*
X291480Y573520D01*
X291090Y572938D01*
X290954Y572250D01*
X291090Y571562D01*
X291480Y570980D01*
X292062Y570590D01*
X292750Y570453D01*
X293438Y570590D01*
X294020Y570980D01*
X294410Y571562D01*
X294547Y572250D01*
X294410Y572938D01*
X294020Y573520D01*
X293438Y573910D01*
X292750Y574047D01*
D02*
G37*
G36*
X286250D02*
X285562Y573910D01*
X284980Y573520D01*
X284590Y572938D01*
X284454Y572250D01*
X284590Y571562D01*
X284980Y570980D01*
X285562Y570590D01*
X286250Y570453D01*
X286938Y570590D01*
X287520Y570980D01*
X287910Y571562D01*
X288046Y572250D01*
X287910Y572938D01*
X287520Y573520D01*
X286938Y573910D01*
X286250Y574047D01*
D02*
G37*
G36*
X279750D02*
X279062Y573910D01*
X278480Y573520D01*
X278090Y572938D01*
X277953Y572250D01*
X278090Y571562D01*
X278480Y570980D01*
X279062Y570590D01*
X279750Y570453D01*
X280438Y570590D01*
X281020Y570980D01*
X281410Y571562D01*
X281546Y572250D01*
X281410Y572938D01*
X281020Y573520D01*
X280438Y573910D01*
X279750Y574047D01*
D02*
G37*
G36*
X273250D02*
X272563Y573910D01*
X271980Y573520D01*
X271590Y572938D01*
X271453Y572250D01*
X271590Y571562D01*
X271980Y570980D01*
X272563Y570590D01*
X273250Y570453D01*
X273937Y570590D01*
X274520Y570980D01*
X274910Y571562D01*
X275047Y572250D01*
X274910Y572938D01*
X274520Y573520D01*
X273937Y573910D01*
X273250Y574047D01*
D02*
G37*
G36*
X292750Y567547D02*
X292062Y567410D01*
X291480Y567020D01*
X291090Y566437D01*
X290954Y565750D01*
X291090Y565062D01*
X291480Y564480D01*
X292062Y564090D01*
X292750Y563954D01*
X293438Y564090D01*
X294020Y564480D01*
X294410Y565062D01*
X294547Y565750D01*
X294410Y566437D01*
X294020Y567020D01*
X293438Y567410D01*
X292750Y567547D01*
D02*
G37*
G36*
X286250D02*
X285562Y567410D01*
X284980Y567020D01*
X284590Y566437D01*
X284454Y565750D01*
X284590Y565062D01*
X284980Y564480D01*
X285562Y564090D01*
X286250Y563954D01*
X286938Y564090D01*
X287520Y564480D01*
X287910Y565062D01*
X288046Y565750D01*
X287910Y566437D01*
X287520Y567020D01*
X286938Y567410D01*
X286250Y567547D01*
D02*
G37*
G36*
X279750D02*
X279062Y567410D01*
X278480Y567020D01*
X278090Y566437D01*
X277953Y565750D01*
X278090Y565062D01*
X278480Y564480D01*
X279062Y564090D01*
X279750Y563954D01*
X280438Y564090D01*
X281020Y564480D01*
X281410Y565062D01*
X281546Y565750D01*
X281410Y566437D01*
X281020Y567020D01*
X280438Y567410D01*
X279750Y567547D01*
D02*
G37*
G36*
X273250D02*
X272563Y567410D01*
X271980Y567020D01*
X271590Y566437D01*
X271453Y565750D01*
X271590Y565062D01*
X271980Y564480D01*
X272563Y564090D01*
X273250Y563954D01*
X273937Y564090D01*
X274520Y564480D01*
X274910Y565062D01*
X275047Y565750D01*
X274910Y566437D01*
X274520Y567020D01*
X273937Y567410D01*
X273250Y567547D01*
D02*
G37*
G36*
X292750Y561046D02*
X292062Y560910D01*
X291480Y560520D01*
X291090Y559938D01*
X290954Y559250D01*
X291090Y558563D01*
X291480Y557980D01*
X292062Y557590D01*
X292750Y557453D01*
X293438Y557590D01*
X294020Y557980D01*
X294410Y558563D01*
X294547Y559250D01*
X294410Y559938D01*
X294020Y560520D01*
X293438Y560910D01*
X292750Y561046D01*
D02*
G37*
G36*
X234250D02*
X233563Y560910D01*
X232980Y560520D01*
X232590Y559938D01*
X232453Y559250D01*
X232590Y558563D01*
X232980Y557980D01*
X233563Y557590D01*
X234250Y557453D01*
X234937Y557590D01*
X235520Y557980D01*
X235910Y558563D01*
X236047Y559250D01*
X235910Y559938D01*
X235520Y560520D01*
X234937Y560910D01*
X234250Y561046D01*
D02*
G37*
G36*
X333548Y578366D02*
X327452D01*
Y573794D01*
X333548D01*
X334613Y573300D01*
Y568780D01*
X333548Y568286D01*
X327452D01*
Y563714D01*
X328863D01*
Y560000D01*
X329343Y558843D01*
X334357Y553829D01*
X335514Y553349D01*
X337534D01*
X337771Y552995D01*
X338684Y552384D01*
X339762Y552170D01*
X340276Y551656D01*
X340201Y551277D01*
X340415Y550199D01*
X341026Y549286D01*
X341939Y548675D01*
X343017Y548461D01*
X344094Y548675D01*
X345008Y549286D01*
X345619Y550199D01*
X345833Y551277D01*
X345619Y552355D01*
X345438Y552624D01*
Y556659D01*
X344959Y557817D01*
X342593Y560183D01*
X341435Y560662D01*
X339365D01*
X337887Y562141D01*
Y576080D01*
X337407Y577237D01*
X336250Y577717D01*
X333548D01*
Y578366D01*
D02*
G37*
G36*
X214750Y548046D02*
X214062Y547910D01*
X213480Y547520D01*
X213090Y546937D01*
X212953Y546250D01*
X213090Y545563D01*
X213480Y544980D01*
X214062Y544590D01*
X214750Y544454D01*
X215438Y544590D01*
X216020Y544980D01*
X216410Y545563D01*
X216546Y546250D01*
X216410Y546937D01*
X216020Y547520D01*
X215438Y547910D01*
X214750Y548046D01*
D02*
G37*
G36*
Y541547D02*
X214062Y541410D01*
X213480Y541020D01*
X213090Y540438D01*
X212953Y539750D01*
X213090Y539062D01*
X213480Y538480D01*
X214062Y538090D01*
X214750Y537953D01*
X215438Y538090D01*
X216020Y538480D01*
X216410Y539062D01*
X216546Y539750D01*
X216410Y540438D01*
X216020Y541020D01*
X215438Y541410D01*
X214750Y541547D01*
D02*
G37*
G36*
X221250Y535047D02*
X220562Y534910D01*
X219980Y534520D01*
X219590Y533937D01*
X219454Y533250D01*
X218780Y533260D01*
X218500Y533316D01*
X217759Y533169D01*
X217304Y533199D01*
X216411Y533937D01*
X216403Y533948D01*
X216020Y534520D01*
X215438Y534910D01*
X214750Y535047D01*
X214062Y534910D01*
X213480Y534520D01*
X213090Y533937D01*
X212953Y533250D01*
X213090Y532562D01*
X213480Y531980D01*
X214062Y531590D01*
X214585Y531486D01*
X214750Y531454D01*
X215588Y530597D01*
X215711Y530362D01*
X215877Y529527D01*
X215548Y529067D01*
X214988Y528499D01*
X214750Y528546D01*
X214062Y528410D01*
X213480Y528020D01*
X213090Y527438D01*
X212997Y526971D01*
X212268Y526509D01*
X211743Y526324D01*
X211328Y526602D01*
X210250Y526816D01*
X209172Y526602D01*
X208259Y525991D01*
X207648Y525078D01*
X207529Y524478D01*
X206500Y523593D01*
X204500D01*
X203890Y523471D01*
X203374Y523126D01*
X203029Y522609D01*
X202907Y522000D01*
Y520400D01*
X203029Y519790D01*
X203374Y519274D01*
X203890Y518929D01*
X204500Y518807D01*
X206500D01*
X207110Y518929D01*
X207408Y519128D01*
X207450D01*
X207450Y519128D01*
X208243Y519286D01*
X208915Y519735D01*
X210392Y521212D01*
X211328Y521398D01*
X212241Y522009D01*
X212852Y522922D01*
X213066Y524000D01*
X213014Y524264D01*
X214062Y525090D01*
X214750Y524953D01*
X215438Y525090D01*
X216020Y525480D01*
X216410Y526063D01*
X216546Y526750D01*
X216499Y526988D01*
X217067Y527548D01*
X217527Y527878D01*
X218358Y527712D01*
X219178Y526892D01*
Y526750D01*
X219336Y525957D01*
X219785Y525285D01*
X220457Y524836D01*
X221250Y524678D01*
X222043Y524836D01*
X222715Y525285D01*
X223164Y525957D01*
X223322Y526750D01*
Y527750D01*
X223322Y527750D01*
X223164Y528543D01*
X222715Y529215D01*
X221685Y530245D01*
X221923Y531512D01*
X221986Y531623D01*
X222520Y531980D01*
X222910Y532562D01*
X223046Y533250D01*
X222910Y533937D01*
X222520Y534520D01*
X221938Y534910D01*
X221250Y535047D01*
D02*
G37*
G36*
X133576Y543760D02*
X123924D01*
Y533092D01*
X133576D01*
Y535100D01*
X137196D01*
X137424Y534872D01*
Y528250D01*
X137677Y526977D01*
X138398Y525898D01*
X140539Y523757D01*
X140053Y522584D01*
X133576D01*
Y514542D01*
X132306Y513732D01*
X131756Y513841D01*
X130679Y513627D01*
X130549Y513540D01*
X129279Y514219D01*
Y514566D01*
X124076D01*
Y522584D01*
X114424D01*
Y514566D01*
X109721D01*
Y502882D01*
X128818D01*
X128905Y502447D01*
X129515Y501533D01*
X130429Y500923D01*
X131506Y500709D01*
X132584Y500923D01*
X133498Y501533D01*
X134108Y502447D01*
X134120Y502507D01*
X134441Y503535D01*
X135540Y503632D01*
X154029D01*
Y504415D01*
X155094Y505116D01*
X155299Y505149D01*
X156258Y504959D01*
X157335Y505173D01*
X158249Y505784D01*
X158859Y506697D01*
X159074Y507775D01*
X158859Y508852D01*
X158249Y509766D01*
X157335Y510377D01*
X156258Y510591D01*
X155299Y510400D01*
X155094Y510433D01*
X154029Y511135D01*
Y515316D01*
X145040D01*
X143228Y517127D01*
Y519666D01*
X144498Y520332D01*
X145552Y520122D01*
X146977D01*
X148250Y520375D01*
X149329Y521096D01*
X151301Y523068D01*
X151515Y523388D01*
X152506D01*
Y527452D01*
X151515D01*
X151301Y527772D01*
X150222Y528493D01*
X148949Y528746D01*
X147677Y528493D01*
X146598Y527772D01*
X146278Y527452D01*
X146251D01*
X144076Y529628D01*
Y532570D01*
X145346Y533484D01*
X145393Y533468D01*
D01*
X146551Y533195D01*
X146598Y533148D01*
X147677Y532427D01*
X148949Y532174D01*
X150222Y532427D01*
X151301Y533148D01*
X151515Y533468D01*
X152506D01*
Y537532D01*
X151515D01*
X151301Y537851D01*
X148375Y540778D01*
X147296Y541499D01*
X146023Y541752D01*
X133576D01*
Y543760D01*
D02*
G37*
G36*
X299250Y535047D02*
X298563Y534910D01*
X297980Y534520D01*
X297590Y533937D01*
X297453Y533250D01*
X297590Y532562D01*
X297980Y531980D01*
X298563Y531590D01*
X299250Y531454D01*
X299937Y531590D01*
X300520Y531980D01*
X300910Y532562D01*
X301047Y533250D01*
X300910Y533937D01*
X300520Y534520D01*
X299937Y534910D01*
X299250Y535047D01*
D02*
G37*
G36*
X292750D02*
X292062Y534910D01*
X291480Y534520D01*
X291090Y533937D01*
X290954Y533250D01*
X291090Y532562D01*
X291480Y531980D01*
X292062Y531590D01*
X292750Y531454D01*
X293438Y531590D01*
X294020Y531980D01*
X294410Y532562D01*
X294547Y533250D01*
X294410Y533937D01*
X294020Y534520D01*
X293438Y534910D01*
X292750Y535047D01*
D02*
G37*
G36*
X286250D02*
X285562Y534910D01*
X284980Y534520D01*
X284590Y533937D01*
X284454Y533250D01*
X284590Y532562D01*
X284980Y531980D01*
X285562Y531590D01*
X286250Y531454D01*
X286938Y531590D01*
X287520Y531980D01*
X287910Y532562D01*
X288046Y533250D01*
X287910Y533937D01*
X287520Y534520D01*
X286938Y534910D01*
X286250Y535047D01*
D02*
G37*
G36*
X353017Y544342D02*
X351940Y544128D01*
X351026Y543518D01*
X350415Y542604D01*
X350201Y541526D01*
X350415Y540449D01*
X351026Y539535D01*
X351940Y538925D01*
X353017Y538710D01*
X353621Y538830D01*
X354638Y538023D01*
X354738Y537856D01*
Y528438D01*
X359262D01*
Y538462D01*
X359072D01*
Y540996D01*
X359072Y540996D01*
X358914Y541789D01*
X358465Y542461D01*
X357935Y542991D01*
X357262Y543441D01*
X356470Y543598D01*
X356469Y543598D01*
X354888D01*
X354095Y544128D01*
X353017Y544342D01*
D02*
G37*
G36*
X234750Y528822D02*
X234750Y528822D01*
X234250D01*
X233457Y528664D01*
X232785Y528215D01*
X232336Y527543D01*
X232311Y527419D01*
X230963Y527151D01*
X230693Y527555D01*
X229779Y528166D01*
X229081Y528305D01*
X228543Y528664D01*
X227750Y528822D01*
X226957Y528664D01*
X226285Y528215D01*
X225836Y527543D01*
X225678Y526750D01*
Y526250D01*
X225678Y526250D01*
X225836Y525457D01*
X225937Y525306D01*
X226100Y524486D01*
X226710Y523573D01*
X226737Y523555D01*
X226861Y522291D01*
X226285Y521715D01*
X225836Y521043D01*
X225678Y520250D01*
X225836Y519457D01*
X226285Y518785D01*
X226957Y518336D01*
X227750Y518178D01*
X228543Y518336D01*
X229215Y518785D01*
X232215Y521785D01*
X232215Y521785D01*
X232664Y522457D01*
X232822Y523250D01*
X233869Y524186D01*
X234304Y524266D01*
X234712Y523858D01*
X234898Y522922D01*
X235509Y522009D01*
X236422Y521398D01*
X237500Y521184D01*
X238578Y521398D01*
X239491Y522009D01*
X240102Y522922D01*
X240316Y524000D01*
X240102Y525078D01*
X239491Y525991D01*
X238578Y526602D01*
X237642Y526788D01*
X236215Y528215D01*
X235543Y528664D01*
X234750Y528822D01*
D02*
G37*
G36*
X299250Y528546D02*
X298563Y528410D01*
X297980Y528020D01*
X297590Y527438D01*
X297453Y526750D01*
X297590Y526063D01*
X297980Y525480D01*
X298563Y525090D01*
X299250Y524953D01*
X299937Y525090D01*
X300520Y525480D01*
X300910Y526063D01*
X301047Y526750D01*
X300910Y527438D01*
X300520Y528020D01*
X299937Y528410D01*
X299250Y528546D01*
D02*
G37*
G36*
X286250Y528822D02*
X285457Y528664D01*
X284785Y528215D01*
X284336Y527543D01*
X284178Y526750D01*
X284336Y525957D01*
X284785Y525285D01*
X286847Y523223D01*
X286250Y522047D01*
X285562Y521910D01*
X284980Y521520D01*
X284590Y520938D01*
X284454Y520250D01*
X284590Y519562D01*
X284980Y518980D01*
X285562Y518590D01*
X286250Y518453D01*
X286938Y518590D01*
X288062Y517814D01*
X288253Y517529D01*
X290029Y515753D01*
X290029Y515753D01*
X290314Y515562D01*
X290754Y515061D01*
X290993Y513951D01*
X290954Y513750D01*
X291090Y513063D01*
X291480Y512480D01*
X292062Y512090D01*
X292750Y511954D01*
X293438Y512090D01*
X294020Y512480D01*
X294410Y513063D01*
X294547Y513750D01*
X294521Y513876D01*
X295257Y515007D01*
X295464Y515146D01*
X296536D01*
X296743Y515007D01*
X297479Y513876D01*
X297453Y513750D01*
X297590Y513063D01*
X297980Y512480D01*
X298563Y512090D01*
X299250Y511954D01*
X299937Y512090D01*
X300520Y512480D01*
X300910Y513063D01*
X301047Y513750D01*
X301021Y513876D01*
X301757Y515007D01*
X301964Y515146D01*
X303036D01*
X303243Y515007D01*
X303979Y513876D01*
X303953Y513750D01*
X304090Y513063D01*
X304480Y512480D01*
X305063Y512090D01*
X305750Y511954D01*
X306437Y512090D01*
X307020Y512480D01*
X307410Y513063D01*
X307547Y513750D01*
X307521Y513876D01*
X308257Y515007D01*
X308464Y515146D01*
X313828D01*
X313929Y514641D01*
X314274Y514124D01*
X314790Y513779D01*
X315400Y513657D01*
X317000D01*
X317610Y513779D01*
X318126Y514124D01*
X318471Y514641D01*
X318593Y515250D01*
Y517250D01*
X318471Y517859D01*
X318126Y518376D01*
X317610Y518721D01*
X317732Y519943D01*
X317788Y520128D01*
X319342D01*
X319641Y519929D01*
X320250Y519807D01*
X322250D01*
X322859Y519929D01*
X323376Y520274D01*
X323721Y520790D01*
X323843Y521400D01*
Y523000D01*
X323721Y523609D01*
X323376Y524126D01*
X322859Y524471D01*
X322250Y524593D01*
X320250D01*
X319641Y524471D01*
X319342Y524272D01*
X311863D01*
X311852Y524328D01*
X311241Y525241D01*
X310328Y525852D01*
X309250Y526066D01*
X308683Y525953D01*
X307670Y526663D01*
X307513Y526917D01*
X307410Y527438D01*
X307020Y528020D01*
X306437Y528410D01*
X305750Y528546D01*
X305063Y528410D01*
X304480Y528020D01*
X304090Y527438D01*
X303953Y526750D01*
X304090Y526063D01*
X304480Y525480D01*
X305063Y525090D01*
X305583Y524987D01*
X305837Y524830D01*
X306547Y523817D01*
X306434Y523250D01*
X306443Y523204D01*
X305750Y522047D01*
X305063Y521910D01*
X304480Y521520D01*
X304090Y520938D01*
X303953Y520250D01*
X302861Y519290D01*
X302139D01*
X301047Y520250D01*
X300910Y520938D01*
X300520Y521520D01*
X299937Y521910D01*
X299250Y522047D01*
X298563Y521910D01*
X297980Y521520D01*
X297590Y520938D01*
X297453Y520250D01*
X296361Y519290D01*
X295639D01*
X294547Y520250D01*
X294410Y520938D01*
X294020Y521520D01*
X293438Y521910D01*
X292750Y522047D01*
X291790Y523139D01*
Y523282D01*
X291790Y523282D01*
X291657Y523950D01*
X292020Y524465D01*
X292545Y524994D01*
X292750Y524953D01*
X293438Y525090D01*
X294020Y525480D01*
X294410Y526063D01*
X294547Y526750D01*
X294410Y527438D01*
X294020Y528020D01*
X293438Y528410D01*
X292750Y528546D01*
X292062Y528410D01*
X291480Y528020D01*
X291090Y527438D01*
X290954Y526750D01*
X289777Y526153D01*
X287715Y528215D01*
X287043Y528664D01*
X286250Y528822D01*
D02*
G37*
G36*
X221250Y522047D02*
X220562Y521910D01*
X219980Y521520D01*
X219590Y520938D01*
X219534Y520657D01*
X219179Y520126D01*
X218265Y519714D01*
X217755Y519815D01*
X217750Y519816D01*
X216546Y520250D01*
X216410Y520938D01*
X216020Y521520D01*
X215438Y521910D01*
X214750Y522047D01*
X214062Y521910D01*
X213480Y521520D01*
X213090Y520938D01*
X212953Y520250D01*
X213090Y519562D01*
X213480Y518980D01*
X214062Y518590D01*
X214787Y518248D01*
X214976Y517212D01*
X214934Y517000D01*
X214976Y516788D01*
X214787Y515752D01*
X214062Y515410D01*
X213480Y515020D01*
X213090Y514437D01*
X212953Y513750D01*
X213090Y513063D01*
X213480Y512480D01*
X214062Y512090D01*
X214750Y511954D01*
X215710Y510861D01*
Y510139D01*
X214750Y509047D01*
X214062Y508910D01*
X213480Y508520D01*
X213090Y507938D01*
X212953Y507250D01*
X213090Y506562D01*
X213443Y505876D01*
X213285Y505425D01*
X212836Y504753D01*
X212678Y503960D01*
X212678Y503960D01*
Y500750D01*
X212836Y499957D01*
X213285Y499285D01*
X213957Y498836D01*
X214750Y498678D01*
X215543Y498836D01*
X216215Y499285D01*
X216664Y499957D01*
X216822Y500750D01*
Y502319D01*
X217471Y502753D01*
X219247Y504529D01*
X219247Y504529D01*
X219696Y505201D01*
X220958Y505228D01*
X221252Y505164D01*
X221434Y504000D01*
X221457Y503886D01*
X219785Y502215D01*
X219336Y501543D01*
X219178Y500750D01*
X219336Y499957D01*
X219785Y499285D01*
X220457Y498836D01*
X221250Y498678D01*
X222043Y498836D01*
X222715Y499285D01*
X224452Y501022D01*
X225759Y500754D01*
X226034Y500343D01*
X226090Y500063D01*
X226480Y499480D01*
X227062Y499090D01*
X227750Y498954D01*
X228438Y499090D01*
X229020Y499480D01*
X229410Y500063D01*
X229547Y500750D01*
X229410Y501438D01*
X229020Y502020D01*
X228438Y502410D01*
X227981Y502501D01*
X227715Y502600D01*
X227005Y503693D01*
X227066Y504000D01*
X227005Y504307D01*
X227715Y505400D01*
X227981Y505499D01*
X228438Y505590D01*
X229020Y505980D01*
X229410Y506562D01*
X229547Y507250D01*
X229410Y507938D01*
X229020Y508520D01*
X228438Y508910D01*
X228157Y508966D01*
X227626Y509321D01*
X227214Y510235D01*
X227315Y510745D01*
X227316Y510750D01*
X227750Y511954D01*
X228438Y512090D01*
X229020Y512480D01*
X229410Y513063D01*
X229547Y513750D01*
X229410Y514437D01*
X229020Y515020D01*
X228438Y515410D01*
X227750Y515546D01*
X227062Y515410D01*
X226480Y515020D01*
X226090Y514437D01*
X225748Y513713D01*
X224712Y513524D01*
X224500Y513566D01*
X224288Y513524D01*
X223252Y513713D01*
X222910Y514438D01*
X222520Y515020D01*
X221938Y515410D01*
X221465Y515504D01*
X221217Y515597D01*
X220505Y516693D01*
X220566Y517000D01*
X220505Y517307D01*
X221215Y518400D01*
X221481Y518499D01*
X221938Y518590D01*
X222520Y518980D01*
X222910Y519562D01*
X223046Y520250D01*
X222910Y520938D01*
X222520Y521520D01*
X221938Y521910D01*
X221250Y522047D01*
D02*
G37*
G36*
X128934Y522316D02*
X127856Y522102D01*
X126943Y521491D01*
X126332Y520578D01*
X126118Y519500D01*
X126332Y518422D01*
X126943Y517509D01*
X127856Y516898D01*
X128934Y516684D01*
X130012Y516898D01*
X130925Y517509D01*
X131536Y518422D01*
X131750Y519500D01*
X131536Y520578D01*
X130925Y521491D01*
X130012Y522102D01*
X128934Y522316D01*
D02*
G37*
G36*
X191512Y519562D02*
X186988D01*
Y514277D01*
X185718Y514152D01*
X185684Y514322D01*
X185235Y514995D01*
X185012Y515218D01*
Y519562D01*
X180488D01*
Y509538D01*
X181698D01*
Y500522D01*
X178702Y497526D01*
X178500Y497566D01*
X177422Y497352D01*
X176509Y496741D01*
X175898Y495828D01*
X175684Y494750D01*
X175898Y493672D01*
X176509Y492759D01*
X177422Y492148D01*
X178500Y491934D01*
X179578Y492148D01*
X180491Y492759D01*
X181102Y493672D01*
X181199Y494163D01*
X185235Y498199D01*
X185235Y498199D01*
X185684Y498871D01*
X185842Y499664D01*
Y507703D01*
X187112Y508326D01*
X187178Y508275D01*
Y485358D01*
X182285Y480465D01*
X181836Y479793D01*
X181678Y479000D01*
X181678Y479000D01*
Y468371D01*
X181148Y467578D01*
X180934Y466500D01*
X181148Y465422D01*
X181759Y464509D01*
X182672Y463898D01*
X183750Y463684D01*
X184828Y463898D01*
X185741Y464509D01*
X186352Y465422D01*
X186566Y466500D01*
X186352Y467578D01*
X185822Y468371D01*
Y478142D01*
X190715Y483035D01*
X190715Y483035D01*
X191164Y483707D01*
X191322Y484500D01*
Y509538D01*
X191512D01*
Y519562D01*
D02*
G37*
G36*
X273250Y515822D02*
X272457Y515664D01*
X271785Y515215D01*
X269858Y513288D01*
X269745Y513265D01*
X268669Y513700D01*
X268456Y514205D01*
X268410Y514437D01*
X268020Y515020D01*
X267437Y515410D01*
X266750Y515546D01*
X266063Y515410D01*
X265480Y515020D01*
X265090Y514437D01*
X264953Y513750D01*
X265090Y513063D01*
X265480Y512480D01*
X266063Y512090D01*
X266295Y512044D01*
X266800Y511831D01*
X267235Y510755D01*
X267184Y510500D01*
X267235Y510245D01*
X266800Y509169D01*
X266295Y508956D01*
X266063Y508910D01*
X265480Y508520D01*
X265090Y507938D01*
X264953Y507250D01*
X265090Y506562D01*
X265480Y505980D01*
X266063Y505590D01*
X266750Y505453D01*
X267437Y505590D01*
X268020Y505980D01*
X268410Y506562D01*
X268456Y506795D01*
X268669Y507300D01*
X269745Y507735D01*
X270000Y507684D01*
X270255Y507735D01*
X271331Y507300D01*
X271544Y506795D01*
X271590Y506562D01*
X271980Y505980D01*
X272563Y505590D01*
X273250Y505453D01*
X273937Y505590D01*
X274520Y505980D01*
X274910Y506562D01*
X275047Y507250D01*
X274910Y507938D01*
X274520Y508520D01*
X273937Y508910D01*
X273705Y508956D01*
X273200Y509169D01*
X272765Y510245D01*
X272788Y510358D01*
X274715Y512285D01*
X275164Y512957D01*
X275322Y513750D01*
X275164Y514543D01*
X274715Y515215D01*
X274043Y515664D01*
X273250Y515822D01*
D02*
G37*
G36*
X253750Y515546D02*
X253062Y515410D01*
X252480Y515020D01*
X252090Y514437D01*
X252034Y514157D01*
X251679Y513626D01*
X250765Y513214D01*
X250255Y513315D01*
X250250Y513316D01*
X249046Y513750D01*
X248910Y514437D01*
X248520Y515020D01*
X247938Y515410D01*
X247250Y515546D01*
X246562Y515410D01*
X245980Y515020D01*
X245590Y514437D01*
X245453Y513750D01*
X245590Y513063D01*
X245980Y512480D01*
X246562Y512090D01*
X247287Y511748D01*
X247476Y510712D01*
X247434Y510500D01*
X247456Y510387D01*
X245785Y508715D01*
X245336Y508043D01*
X245178Y507250D01*
X245336Y506457D01*
X245785Y505785D01*
X246457Y505336D01*
X247250Y505178D01*
X248043Y505336D01*
X248715Y505785D01*
X250500Y507570D01*
X252285Y505785D01*
X252957Y505336D01*
X253750Y505178D01*
X254543Y505336D01*
X255215Y505785D01*
X255664Y506457D01*
X255822Y507250D01*
X255664Y508043D01*
X255215Y508715D01*
X253153Y510778D01*
X253350Y511437D01*
X253706Y511897D01*
X253981Y512000D01*
X254438Y512090D01*
X255020Y512480D01*
X255410Y513063D01*
X255546Y513750D01*
X255410Y514437D01*
X255020Y515020D01*
X254438Y515410D01*
X253750Y515546D01*
D02*
G37*
G36*
X363889Y524316D02*
X362811Y524102D01*
X361898Y523491D01*
X361287Y522578D01*
X361073Y521500D01*
X361287Y520422D01*
X361898Y519509D01*
X362811Y518898D01*
X362827Y518895D01*
Y517600D01*
X362728Y517581D01*
X361815Y516970D01*
X361204Y516057D01*
X360990Y514979D01*
X361204Y513901D01*
X361815Y512988D01*
X362728Y512377D01*
X363806Y512163D01*
X364884Y512377D01*
X365797Y512988D01*
X366408Y513901D01*
X366622Y514979D01*
X366408Y516057D01*
X365797Y516970D01*
X364884Y517581D01*
X364868Y517584D01*
Y518879D01*
X364967Y518898D01*
X365880Y519509D01*
X366491Y520422D01*
X366705Y521500D01*
X366491Y522578D01*
X365880Y523491D01*
X364967Y524102D01*
X363889Y524316D01*
D02*
G37*
G36*
X286250Y515546D02*
X285562Y515410D01*
X284980Y515020D01*
X284590Y514437D01*
X284454Y513750D01*
X284590Y513063D01*
X284980Y512480D01*
X285562Y512090D01*
X286250Y511954D01*
X286938Y512090D01*
X287520Y512480D01*
X287910Y513063D01*
X288046Y513750D01*
X287910Y514437D01*
X287520Y515020D01*
X286938Y515410D01*
X286250Y515546D01*
D02*
G37*
G36*
X260250D02*
X259562Y515410D01*
X258980Y515020D01*
X258590Y514437D01*
X258454Y513750D01*
X258590Y513063D01*
X258980Y512480D01*
X259562Y512090D01*
X260250Y511954D01*
X260938Y512090D01*
X261520Y512480D01*
X261910Y513063D01*
X262047Y513750D01*
X261910Y514437D01*
X261520Y515020D01*
X260938Y515410D01*
X260250Y515546D01*
D02*
G37*
G36*
X240750D02*
X240063Y515410D01*
X239480Y515020D01*
X239090Y514437D01*
X238953Y513750D01*
X239090Y513063D01*
X239480Y512480D01*
X240063Y512090D01*
X240750Y511954D01*
X241437Y512090D01*
X242020Y512480D01*
X242410Y513063D01*
X242547Y513750D01*
X242410Y514437D01*
X242020Y515020D01*
X241437Y515410D01*
X240750Y515546D01*
D02*
G37*
G36*
X234250D02*
X233563Y515410D01*
X232980Y515020D01*
X232590Y514437D01*
X232453Y513750D01*
X232590Y513063D01*
X232980Y512480D01*
X233563Y512090D01*
X234250Y511954D01*
X234937Y512090D01*
X235520Y512480D01*
X235910Y513063D01*
X236047Y513750D01*
X235910Y514437D01*
X235520Y515020D01*
X234937Y515410D01*
X234250Y515546D01*
D02*
G37*
G36*
X361268Y511091D02*
X360190Y510877D01*
X359276Y510266D01*
X358666Y509352D01*
X358451Y508275D01*
X358666Y507197D01*
X359276Y506283D01*
X360190Y505673D01*
X361268Y505459D01*
X362345Y505673D01*
X363259Y506283D01*
X363869Y507197D01*
X364084Y508275D01*
X363869Y509352D01*
X363259Y510266D01*
X362345Y510877D01*
X361268Y511091D01*
D02*
G37*
G36*
X305750Y509047D02*
X305063Y508910D01*
X304480Y508520D01*
X304090Y507938D01*
X303953Y507250D01*
X304090Y506562D01*
X304480Y505980D01*
X305063Y505590D01*
X305750Y505453D01*
X306437Y505590D01*
X307020Y505980D01*
X307410Y506562D01*
X307547Y507250D01*
X307410Y507938D01*
X307020Y508520D01*
X306437Y508910D01*
X305750Y509047D01*
D02*
G37*
G36*
X299250D02*
X298563Y508910D01*
X297980Y508520D01*
X297590Y507938D01*
X297453Y507250D01*
X297590Y506562D01*
X297980Y505980D01*
X298563Y505590D01*
X299250Y505453D01*
X299937Y505590D01*
X300520Y505980D01*
X300910Y506562D01*
X301047Y507250D01*
X300910Y507938D01*
X300520Y508520D01*
X299937Y508910D01*
X299250Y509047D01*
D02*
G37*
G36*
X292750D02*
X292062Y508910D01*
X291480Y508520D01*
X291090Y507938D01*
X290954Y507250D01*
X291090Y506562D01*
X291480Y505980D01*
X292062Y505590D01*
X292750Y505453D01*
X293438Y505590D01*
X294020Y505980D01*
X294410Y506562D01*
X294547Y507250D01*
X294410Y507938D01*
X294020Y508520D01*
X293438Y508910D01*
X292750Y509047D01*
D02*
G37*
G36*
X286250D02*
X285562Y508910D01*
X284980Y508520D01*
X284590Y507938D01*
X284454Y507250D01*
X284590Y506562D01*
X284980Y505980D01*
X285562Y505590D01*
X286250Y505453D01*
X286938Y505590D01*
X287520Y505980D01*
X287910Y506562D01*
X288046Y507250D01*
X287910Y507938D01*
X287520Y508520D01*
X286938Y508910D01*
X286250Y509047D01*
D02*
G37*
G36*
X279750D02*
X279062Y508910D01*
X278480Y508520D01*
X278090Y507938D01*
X277953Y507250D01*
X278090Y506562D01*
X278480Y505980D01*
X279062Y505590D01*
X279750Y505453D01*
X280438Y505590D01*
X281020Y505980D01*
X281410Y506562D01*
X281546Y507250D01*
X281410Y507938D01*
X281020Y508520D01*
X280438Y508910D01*
X279750Y509047D01*
D02*
G37*
G36*
X260250D02*
X259562Y508910D01*
X258980Y508520D01*
X258590Y507938D01*
X258454Y507250D01*
X258590Y506562D01*
X258980Y505980D01*
X259562Y505590D01*
X260250Y505453D01*
X260938Y505590D01*
X261520Y505980D01*
X261910Y506562D01*
X262047Y507250D01*
X261910Y507938D01*
X261520Y508520D01*
X260938Y508910D01*
X260250Y509047D01*
D02*
G37*
G36*
X240750D02*
X240063Y508910D01*
X239480Y508520D01*
X239090Y507938D01*
X238953Y507250D01*
X239090Y506562D01*
X239480Y505980D01*
X240063Y505590D01*
X240750Y505453D01*
X241437Y505590D01*
X242020Y505980D01*
X242410Y506562D01*
X242547Y507250D01*
X242410Y507938D01*
X242020Y508520D01*
X241437Y508910D01*
X240750Y509047D01*
D02*
G37*
G36*
X234250D02*
X233563Y508910D01*
X232980Y508520D01*
X232590Y507938D01*
X232453Y507250D01*
X232590Y506562D01*
X232980Y505980D01*
X233563Y505590D01*
X234250Y505453D01*
X234937Y505590D01*
X235520Y505980D01*
X235910Y506562D01*
X236047Y507250D01*
X235910Y507938D01*
X235520Y508520D01*
X234937Y508910D01*
X234250Y509047D01*
D02*
G37*
G36*
X240750Y502547D02*
X240063Y502410D01*
X239480Y502020D01*
X238578Y501282D01*
X237500Y501496D01*
X236422Y501282D01*
X235520Y502020D01*
X234937Y502410D01*
X234250Y502547D01*
X233563Y502410D01*
X232980Y502020D01*
X232590Y501438D01*
X232453Y500750D01*
X232590Y500063D01*
X232980Y499480D01*
X233563Y499090D01*
X234250Y498954D01*
X234863Y497780D01*
X234898Y497602D01*
X234986Y497470D01*
X234250Y496322D01*
X233457Y496164D01*
X232785Y495715D01*
X232336Y495043D01*
X232178Y494250D01*
Y491621D01*
X231648Y490828D01*
X231434Y489750D01*
X231648Y488672D01*
X232259Y487759D01*
X233172Y487148D01*
X234250Y486934D01*
X235328Y487148D01*
X236241Y487759D01*
X236852Y488672D01*
X237066Y489750D01*
X236852Y490828D01*
X236322Y491621D01*
Y494250D01*
X236207Y494826D01*
X236489Y495259D01*
X237536Y495554D01*
X238656Y494791D01*
X238678Y494250D01*
Y488854D01*
X238509Y488741D01*
X237898Y487828D01*
X237684Y486750D01*
X237898Y485672D01*
X238509Y484759D01*
X239422Y484148D01*
X239765Y484080D01*
X239640Y482810D01*
X235028D01*
Y478500D01*
X234836Y478213D01*
X234678Y477420D01*
X234678Y477420D01*
Y474371D01*
X234148Y473578D01*
X233934Y472500D01*
X234148Y471422D01*
X234759Y470509D01*
X235672Y469898D01*
X236750Y469684D01*
X237828Y469898D01*
X238741Y470509D01*
X239352Y471422D01*
X239566Y472500D01*
X239352Y473578D01*
X239123Y473920D01*
X239708Y475190D01*
X241632D01*
Y482810D01*
X241360D01*
X241234Y484080D01*
X241578Y484148D01*
X242491Y484759D01*
X243102Y485672D01*
X243316Y486750D01*
X243102Y487828D01*
X242822Y488247D01*
Y492585D01*
X244052Y493546D01*
X244052Y493546D01*
X245318D01*
X245336Y493457D01*
X245785Y492785D01*
X246457Y492336D01*
X247250Y492178D01*
X248043Y492336D01*
X248715Y492785D01*
X249164Y493457D01*
X249322Y494250D01*
Y494548D01*
X249164Y495341D01*
X248715Y496013D01*
X248715Y496013D01*
X247759Y496969D01*
X247683Y497083D01*
X247011Y497532D01*
X246218Y497690D01*
X244910D01*
X243583Y499017D01*
X243345Y499176D01*
X242410Y500063D01*
X242547Y500750D01*
X242410Y501438D01*
X242020Y502020D01*
X241437Y502410D01*
X240750Y502547D01*
D02*
G37*
G36*
X299250D02*
X298563Y502410D01*
X297980Y502020D01*
X297590Y501438D01*
X297453Y500750D01*
X296297Y500057D01*
X296250Y500066D01*
X295683Y499953D01*
X294670Y500663D01*
X294513Y500917D01*
X294410Y501438D01*
X294020Y502020D01*
X293438Y502410D01*
X292750Y502547D01*
X292062Y502410D01*
X291480Y502020D01*
X291090Y501438D01*
X290954Y500750D01*
X291090Y500063D01*
X291480Y499480D01*
X292062Y499090D01*
X292583Y498987D01*
X292837Y498830D01*
X293547Y497817D01*
X293434Y497250D01*
X293648Y496172D01*
X294259Y495259D01*
X295172Y494648D01*
X296108Y494462D01*
X297785Y492785D01*
X298457Y492336D01*
X299250Y492178D01*
X300043Y492336D01*
X300715Y492785D01*
X301164Y493457D01*
X301322Y494250D01*
X301164Y495043D01*
X300715Y495715D01*
X299099Y497331D01*
X299211Y498591D01*
X299878Y499078D01*
X299937Y499090D01*
X300520Y499480D01*
X300910Y500063D01*
X301047Y500750D01*
X300910Y501438D01*
X300520Y502020D01*
X299937Y502410D01*
X299250Y502547D01*
D02*
G37*
G36*
X286250D02*
X285562Y502410D01*
X284980Y502020D01*
X284590Y501438D01*
X284454Y500750D01*
X284590Y500063D01*
X284980Y499480D01*
X285562Y499090D01*
X286250Y498954D01*
X286938Y499090D01*
X287520Y499480D01*
X287910Y500063D01*
X288046Y500750D01*
X287910Y501438D01*
X287520Y502020D01*
X286938Y502410D01*
X286250Y502547D01*
D02*
G37*
G36*
X279750D02*
X279062Y502410D01*
X278480Y502020D01*
X278090Y501438D01*
X277953Y500750D01*
X278090Y500063D01*
X278480Y499480D01*
X279062Y499090D01*
X279750Y498954D01*
X280438Y499090D01*
X281020Y499480D01*
X281410Y500063D01*
X281546Y500750D01*
X281410Y501438D01*
X281020Y502020D01*
X280438Y502410D01*
X279750Y502547D01*
D02*
G37*
G36*
X273250D02*
X272563Y502410D01*
X271980Y502020D01*
X271590Y501438D01*
X271453Y500750D01*
X271590Y500063D01*
X271980Y499480D01*
X272563Y499090D01*
X273250Y498954D01*
X273937Y499090D01*
X274520Y499480D01*
X274910Y500063D01*
X275047Y500750D01*
X274910Y501438D01*
X274520Y502020D01*
X273937Y502410D01*
X273250Y502547D01*
D02*
G37*
G36*
X260250D02*
X259562Y502410D01*
X258980Y502020D01*
X258590Y501438D01*
X258454Y500750D01*
X258590Y500063D01*
X258980Y499480D01*
X259562Y499090D01*
X260250Y498954D01*
X260938Y499090D01*
X261520Y499480D01*
X261910Y500063D01*
X262047Y500750D01*
X261910Y501438D01*
X261520Y502020D01*
X260938Y502410D01*
X260250Y502547D01*
D02*
G37*
G36*
X266750Y502547D02*
X266063Y502410D01*
X265480Y502020D01*
X265090Y501437D01*
X264953Y500750D01*
X265090Y500062D01*
X265480Y499480D01*
X266063Y499090D01*
X266750Y498954D01*
X267437Y499090D01*
X268020Y499480D01*
X268410Y500062D01*
X268547Y500750D01*
X268410Y501437D01*
X268020Y502020D01*
X267437Y502410D01*
X266750Y502547D01*
D02*
G37*
G36*
X131816Y498316D02*
X130738Y498102D01*
X129825Y497491D01*
X129214Y496577D01*
X129000Y495500D01*
X129214Y494422D01*
X129825Y493509D01*
X130738Y492898D01*
X131816Y492684D01*
X132894Y492898D01*
X133807Y493509D01*
X134418Y494422D01*
X134632Y495500D01*
X134418Y496577D01*
X133807Y497491D01*
X132894Y498102D01*
X131816Y498316D01*
D02*
G37*
G36*
X279750Y496046D02*
X279062Y495910D01*
X278480Y495520D01*
X278090Y494938D01*
X277953Y494250D01*
X278090Y493563D01*
X278480Y492980D01*
X279062Y492590D01*
X279750Y492453D01*
X280438Y492590D01*
X281020Y492980D01*
X281410Y493563D01*
X281546Y494250D01*
X281410Y494938D01*
X281020Y495520D01*
X280438Y495910D01*
X279750Y496046D01*
D02*
G37*
G36*
X206250Y492816D02*
X205172Y492602D01*
X204259Y491991D01*
X203648Y491078D01*
X203434Y490000D01*
X203648Y488922D01*
X204259Y488009D01*
X205172Y487398D01*
X206250Y487184D01*
X207328Y487398D01*
X208241Y488009D01*
X208852Y488922D01*
X209066Y490000D01*
X208852Y491078D01*
X208241Y491991D01*
X207328Y492602D01*
X206250Y492816D01*
D02*
G37*
G36*
X344250Y510072D02*
X344201Y510062D01*
X341738D01*
Y506175D01*
X341666Y505812D01*
X341738Y505449D01*
Y500038D01*
X341928D01*
Y496858D01*
X340372Y495302D01*
X336190D01*
Y488698D01*
X335317Y488406D01*
X334645Y487957D01*
X334645Y487957D01*
X333455Y486767D01*
X333006Y486095D01*
X332848Y485302D01*
X332848Y485302D01*
Y473702D01*
X332848Y473702D01*
X333006Y472909D01*
X333455Y472237D01*
X336512Y469180D01*
Y467870D01*
X336165Y467350D01*
X335950Y466273D01*
X336165Y465195D01*
X336775Y464282D01*
X337689Y463671D01*
X338767Y463457D01*
X339844Y463671D01*
X340758Y464282D01*
X341368Y465195D01*
X341583Y466273D01*
X341368Y467350D01*
X340758Y468264D01*
X340656Y468332D01*
Y470038D01*
X340656Y470038D01*
X340498Y470831D01*
X340049Y471503D01*
X340049Y471503D01*
X336992Y474560D01*
Y478618D01*
X343810D01*
Y478636D01*
X344170Y478853D01*
X345440Y478698D01*
Y478698D01*
X353060D01*
Y484074D01*
X353128Y484193D01*
X354330Y485017D01*
X354750Y484934D01*
X355828Y485148D01*
X356741Y485759D01*
X357352Y486672D01*
X357566Y487750D01*
X357352Y488828D01*
X356741Y489741D01*
X355828Y490352D01*
X354750Y490566D01*
X354330Y490483D01*
X353060Y491354D01*
Y495382D01*
X352572D01*
Y500038D01*
X352762D01*
Y510062D01*
X348238D01*
Y507745D01*
X346968Y507351D01*
X346322Y508000D01*
X346262Y508301D01*
Y510062D01*
X344299D01*
X344250Y510072D01*
D02*
G37*
G36*
X221250Y496322D02*
X220457Y496164D01*
X219785Y495715D01*
X219336Y495043D01*
X219178Y494250D01*
Y488621D01*
X218648Y487828D01*
X218434Y486750D01*
X218648Y485672D01*
X219259Y484759D01*
X220172Y484148D01*
X221250Y483934D01*
X222328Y484148D01*
X223241Y484759D01*
X223852Y485672D01*
X224066Y486750D01*
X223852Y487828D01*
X223322Y488621D01*
Y494250D01*
X223164Y495043D01*
X222715Y495715D01*
X222043Y496164D01*
X221250Y496322D01*
D02*
G37*
G36*
X214750Y496322D02*
X213957Y496164D01*
X213285Y495715D01*
X213046Y495476D01*
X212596Y494803D01*
X212439Y494011D01*
X212439Y494010D01*
Y487645D01*
X211909Y486851D01*
X211694Y485774D01*
X211909Y484696D01*
X212320Y484080D01*
X211952Y483058D01*
X211758Y482810D01*
X211304Y482810D01*
X205778D01*
Y475190D01*
X212382D01*
Y476065D01*
X213592Y476445D01*
X214348Y475722D01*
X214154Y474750D01*
X214485Y473087D01*
X215427Y471678D01*
X216837Y470736D01*
X218500Y470405D01*
X220163Y470736D01*
X221573Y471678D01*
X222515Y473087D01*
X222845Y474750D01*
X222515Y476413D01*
X221573Y477823D01*
X220163Y478765D01*
X218500Y479096D01*
X217319Y478861D01*
X215715Y480465D01*
X215043Y480914D01*
X214250Y481072D01*
X214250Y481072D01*
X213280D01*
X212382Y481970D01*
X212382Y482347D01*
X213069Y482886D01*
X213508Y483157D01*
X214510Y482958D01*
X215588Y483172D01*
X216502Y483782D01*
X217112Y484696D01*
X217327Y485774D01*
X217112Y486851D01*
X216582Y487645D01*
Y493335D01*
X216664Y493457D01*
X216822Y494250D01*
X216664Y495043D01*
X216215Y495715D01*
X215543Y496164D01*
X214750Y496322D01*
D02*
G37*
G36*
X227750Y496322D02*
X226957Y496164D01*
X226285Y495715D01*
X225836Y495043D01*
X225678Y494250D01*
Y482810D01*
X224948D01*
Y475190D01*
X231552D01*
Y482810D01*
X229822D01*
Y494250D01*
X229664Y495043D01*
X229215Y495715D01*
X228543Y496164D01*
X227750Y496322D01*
D02*
G37*
G36*
X119000Y492826D02*
X117727Y492573D01*
X116648Y491852D01*
X115927Y490773D01*
X115674Y489500D01*
X115927Y488227D01*
X116174Y487858D01*
Y486342D01*
X109721D01*
Y474658D01*
X129279D01*
Y477508D01*
X130549Y478186D01*
X130606Y478148D01*
X131684Y477934D01*
X132762Y478148D01*
X133201Y478442D01*
X134471Y477838D01*
Y475408D01*
X152985D01*
X153652Y475408D01*
X154418Y474442D01*
X154493Y474330D01*
X155028Y473528D01*
X155942Y472918D01*
X157020Y472704D01*
X158097Y472918D01*
X159011Y473528D01*
X159621Y474442D01*
X159836Y475520D01*
X159621Y476597D01*
X159011Y477511D01*
X158097Y478121D01*
X157020Y478336D01*
X155942Y478121D01*
X155299Y477692D01*
X154346Y478018D01*
X154029Y478254D01*
Y487092D01*
X152706D01*
X152576Y487250D01*
X152323Y488523D01*
X151602Y489602D01*
X150523Y490323D01*
X149250Y490576D01*
X147977Y490323D01*
X146898Y489602D01*
X144389Y487092D01*
X134471D01*
Y483662D01*
X133201Y483058D01*
X132762Y483352D01*
X131684Y483566D01*
X130606Y483352D01*
X130549Y483313D01*
X129279Y483992D01*
Y486342D01*
X122826D01*
Y489000D01*
X122573Y490273D01*
X121852Y491352D01*
X121352Y491852D01*
X120273Y492573D01*
X119000Y492826D01*
D02*
G37*
G36*
X168250Y483066D02*
X167172Y482852D01*
X166259Y482241D01*
X165648Y481328D01*
X165434Y480250D01*
X165648Y479172D01*
X166259Y478259D01*
X167172Y477648D01*
X168250Y477434D01*
X169328Y477648D01*
X169983Y478086D01*
X172145Y475925D01*
Y471952D01*
X172323Y471060D01*
X172828Y470304D01*
X173584Y469799D01*
X174476Y469621D01*
X177524D01*
X178416Y469799D01*
X179172Y470304D01*
X179677Y471060D01*
X179855Y471952D01*
Y478048D01*
X179677Y478940D01*
X179172Y479696D01*
X178416Y480201D01*
X177524Y480379D01*
X174476D01*
X173705Y480225D01*
X172215Y481715D01*
X171543Y482164D01*
X170750Y482322D01*
X170750Y482322D01*
X170121D01*
X169328Y482852D01*
X168250Y483066D01*
D02*
G37*
G36*
X329382Y478310D02*
X322778D01*
Y470690D01*
X324630D01*
X327937Y467383D01*
X327914Y467350D01*
X327700Y466273D01*
X327914Y465195D01*
X328525Y464282D01*
X329439Y463671D01*
X330516Y463457D01*
X331594Y463671D01*
X332507Y464282D01*
X333118Y465195D01*
X333332Y466273D01*
X333118Y467350D01*
X332507Y468264D01*
X332479Y468283D01*
X332430Y468527D01*
X331981Y469199D01*
X331981Y469199D01*
X329382Y471798D01*
Y478310D01*
D02*
G37*
G36*
X167868Y466780D02*
X166791Y466566D01*
X165877Y465955D01*
X165266Y465042D01*
X165052Y463964D01*
X165266Y462886D01*
X165877Y461973D01*
X166791Y461362D01*
X167868Y461148D01*
X168946Y461362D01*
X169860Y461973D01*
X170470Y462886D01*
X170684Y463964D01*
X170470Y465042D01*
X169860Y465955D01*
X168946Y466566D01*
X167868Y466780D01*
D02*
G37*
G36*
X186500Y421566D02*
X185422Y421352D01*
X184509Y420741D01*
X183898Y419828D01*
X183684Y418750D01*
X183898Y417672D01*
X184509Y416759D01*
X185422Y416148D01*
X186500Y415934D01*
X187578Y416148D01*
X188491Y416759D01*
X189102Y417672D01*
X189316Y418750D01*
X189102Y419828D01*
X188491Y420741D01*
X187578Y421352D01*
X186500Y421566D01*
D02*
G37*
%LPD*%
D16*
X335514Y554986D02*
X339762D01*
X330500Y560000D02*
X335514Y554986D01*
X330500Y560000D02*
Y566000D01*
X336250Y561463D02*
Y576080D01*
X330500D02*
X336250D01*
X338688Y559026D02*
X341435D01*
X336250Y561463D02*
X338688Y559026D01*
X343802Y552062D02*
Y556659D01*
X341435Y559026D02*
X343802Y556659D01*
X343017Y551277D02*
X343802Y552062D01*
X316062Y575250D02*
X316892Y576080D01*
X308543Y575250D02*
X316062D01*
X308265Y575528D02*
X308543Y575250D01*
X311250Y566000D02*
X316892D01*
X308750Y568500D02*
X311250Y566000D01*
X221250Y585250D02*
X221500D01*
X224537Y582213D01*
X227750Y585250D02*
X230750Y582250D01*
D47*
X321250Y556300D02*
D03*
Y550700D02*
D03*
Y527800D02*
D03*
Y522200D02*
D03*
X205500Y526800D02*
D03*
Y521200D02*
D03*
X201000Y561050D02*
D03*
Y555450D02*
D03*
X323000Y507600D02*
D03*
Y502000D02*
D03*
X321500Y488550D02*
D03*
Y482950D02*
D03*
X242500Y472250D02*
D03*
Y466650D02*
D03*
X273000Y480550D02*
D03*
Y474950D02*
D03*
X320500Y590800D02*
D03*
Y585200D02*
D03*
D48*
X321800Y516250D02*
D03*
X316200D02*
D03*
X300800Y472250D02*
D03*
X295200D02*
D03*
X169300Y546250D02*
D03*
X163700D02*
D03*
X293450Y480500D02*
D03*
X299050D02*
D03*
D49*
X190000Y475000D02*
D03*
X176000D02*
D03*
X195250Y584000D02*
D03*
X181250D02*
D03*
X181250Y571500D02*
D03*
X195250D02*
D03*
D53*
X128750Y538426D02*
D03*
X138402Y517250D02*
D03*
X119250Y517250D02*
D03*
D54*
X119500Y508724D02*
D03*
X119500Y480500D02*
D03*
X144250Y509474D02*
D03*
X144250Y481250D02*
D03*
D55*
X337250Y447750D02*
D03*
X260646D02*
D03*
X253500D02*
D03*
X176896D02*
D03*
X337000Y427000D02*
D03*
X260396D02*
D03*
X253046Y427000D02*
D03*
X176442D02*
D03*
D56*
X317692Y416250D02*
D03*
X305246D02*
D03*
X292646Y416250D02*
D03*
X280146Y416250D02*
D03*
X233942D02*
D03*
X221496D02*
D03*
X208896Y416250D02*
D03*
X196396Y416250D02*
D03*
X317500Y458500D02*
D03*
X305000Y458500D02*
D03*
X292400D02*
D03*
X279954D02*
D03*
X233546D02*
D03*
X221046D02*
D03*
X208446D02*
D03*
X196000D02*
D03*
D57*
X347250Y519250D02*
D03*
X186000Y528750D02*
D03*
D58*
X337500Y505050D02*
D03*
X344000D02*
D03*
X350500D02*
D03*
X357000D02*
D03*
X337500Y533450D02*
D03*
X344000D02*
D03*
X350500D02*
D03*
X357000D02*
D03*
X176250Y514550D02*
D03*
X182750D02*
D03*
X189250D02*
D03*
X195750D02*
D03*
X176250Y542950D02*
D03*
X182750D02*
D03*
X189250Y542950D02*
D03*
X195750Y542950D02*
D03*
D59*
X346000Y545000D02*
D03*
X336000D02*
D03*
D60*
X349250Y482000D02*
D03*
Y492080D02*
D03*
X340000Y492000D02*
D03*
Y481920D02*
D03*
D61*
X326080Y474500D02*
D03*
X316000D02*
D03*
X238330Y479000D02*
D03*
X228250D02*
D03*
X209080D02*
D03*
X199000D02*
D03*
D62*
X168750Y493750D02*
D03*
X197982D02*
D03*
D63*
X214750Y494250D02*
D03*
Y500750D02*
D03*
Y507250D02*
D03*
Y513750D02*
D03*
Y520250D02*
D03*
Y526750D02*
D03*
Y533250D02*
D03*
Y539750D02*
D03*
Y546250D02*
D03*
Y552750D02*
D03*
Y559250D02*
D03*
Y565750D02*
D03*
Y572250D02*
D03*
Y578750D02*
D03*
Y585250D02*
D03*
X221250Y494250D02*
D03*
Y500750D02*
D03*
Y507250D02*
D03*
Y513750D02*
D03*
Y520250D02*
D03*
Y526750D02*
D03*
Y533250D02*
D03*
Y539750D02*
D03*
Y546250D02*
D03*
Y552750D02*
D03*
Y559250D02*
D03*
Y565750D02*
D03*
Y572250D02*
D03*
Y578750D02*
D03*
Y585250D02*
D03*
X227750Y494250D02*
D03*
Y500750D02*
D03*
Y507250D02*
D03*
Y513750D02*
D03*
Y520250D02*
D03*
Y526750D02*
D03*
Y533250D02*
D03*
Y539750D02*
D03*
Y546250D02*
D03*
Y552750D02*
D03*
Y559250D02*
D03*
Y565750D02*
D03*
Y572250D02*
D03*
Y578750D02*
D03*
Y585250D02*
D03*
X234250Y494250D02*
D03*
Y500750D02*
D03*
Y507250D02*
D03*
Y513750D02*
D03*
Y520250D02*
D03*
Y526750D02*
D03*
Y533250D02*
D03*
Y539750D02*
D03*
Y546250D02*
D03*
Y552750D02*
D03*
Y559250D02*
D03*
Y565750D02*
D03*
Y572250D02*
D03*
Y578750D02*
D03*
Y585250D02*
D03*
X240750Y494250D02*
D03*
Y500750D02*
D03*
Y507250D02*
D03*
Y513750D02*
D03*
Y565750D02*
D03*
Y572250D02*
D03*
Y578750D02*
D03*
Y585250D02*
D03*
X247250Y494250D02*
D03*
Y500750D02*
D03*
Y507250D02*
D03*
Y513750D02*
D03*
Y526750D02*
D03*
Y533250D02*
D03*
Y539750D02*
D03*
Y546250D02*
D03*
Y552750D02*
D03*
Y565750D02*
D03*
Y572250D02*
D03*
Y578750D02*
D03*
Y585250D02*
D03*
X253750Y494250D02*
D03*
X253750Y500750D02*
D03*
X253750Y507250D02*
D03*
Y513750D02*
D03*
Y526750D02*
D03*
Y533250D02*
D03*
Y539750D02*
D03*
Y546250D02*
D03*
Y552750D02*
D03*
Y565750D02*
D03*
Y572250D02*
D03*
Y578750D02*
D03*
Y585250D02*
D03*
X260250Y494250D02*
D03*
Y500750D02*
D03*
Y507250D02*
D03*
Y513750D02*
D03*
Y526750D02*
D03*
Y533250D02*
D03*
Y539750D02*
D03*
Y546250D02*
D03*
Y552750D02*
D03*
Y565750D02*
D03*
Y572250D02*
D03*
Y578750D02*
D03*
Y585250D02*
D03*
X266750Y494250D02*
D03*
Y500750D02*
D03*
Y507250D02*
D03*
Y513750D02*
D03*
Y526750D02*
D03*
Y533250D02*
D03*
Y539750D02*
D03*
Y546250D02*
D03*
Y552750D02*
D03*
Y565750D02*
D03*
Y572250D02*
D03*
Y578750D02*
D03*
Y585250D02*
D03*
X273250Y494250D02*
D03*
Y500750D02*
D03*
Y507250D02*
D03*
Y513750D02*
D03*
Y526750D02*
D03*
Y533250D02*
D03*
Y539750D02*
D03*
Y546250D02*
D03*
Y552750D02*
D03*
Y565750D02*
D03*
Y572250D02*
D03*
Y578750D02*
D03*
Y585250D02*
D03*
X279750Y494250D02*
D03*
Y500750D02*
D03*
Y507250D02*
D03*
Y513750D02*
D03*
Y565750D02*
D03*
Y572250D02*
D03*
Y578750D02*
D03*
Y585250D02*
D03*
X286250Y494250D02*
D03*
Y500750D02*
D03*
Y507250D02*
D03*
Y513750D02*
D03*
Y520250D02*
D03*
Y526750D02*
D03*
Y533250D02*
D03*
Y539750D02*
D03*
Y546250D02*
D03*
Y552750D02*
D03*
Y559250D02*
D03*
Y565750D02*
D03*
Y572250D02*
D03*
Y578750D02*
D03*
Y585250D02*
D03*
X292750Y494250D02*
D03*
Y500750D02*
D03*
Y507250D02*
D03*
Y513750D02*
D03*
Y520250D02*
D03*
Y526750D02*
D03*
Y533250D02*
D03*
Y539750D02*
D03*
Y546250D02*
D03*
Y552750D02*
D03*
Y559250D02*
D03*
Y565750D02*
D03*
Y572250D02*
D03*
Y578750D02*
D03*
Y585250D02*
D03*
X299250Y494250D02*
D03*
Y500750D02*
D03*
Y507250D02*
D03*
Y513750D02*
D03*
Y520250D02*
D03*
Y526750D02*
D03*
Y533250D02*
D03*
Y539750D02*
D03*
Y546250D02*
D03*
Y552750D02*
D03*
Y559250D02*
D03*
Y565750D02*
D03*
Y572250D02*
D03*
Y578750D02*
D03*
Y585250D02*
D03*
X305750Y494250D02*
D03*
Y500750D02*
D03*
Y507250D02*
D03*
Y513750D02*
D03*
Y520250D02*
D03*
Y526750D02*
D03*
Y533250D02*
D03*
Y539750D02*
D03*
Y546250D02*
D03*
Y552750D02*
D03*
Y559250D02*
D03*
Y565750D02*
D03*
Y572250D02*
D03*
Y578750D02*
D03*
Y585250D02*
D03*
D64*
X264000Y480000D02*
D03*
Y470000D02*
D03*
X250500Y480000D02*
D03*
Y470000D02*
D03*
D65*
X330500Y566000D02*
D03*
X330500Y576080D02*
D03*
X330500Y571000D02*
D03*
X316892Y576080D02*
D03*
X316892Y571000D02*
D03*
Y566000D02*
D03*
D66*
X148949Y535500D02*
D03*
X148950Y530500D02*
D03*
X148949Y525420D02*
D03*
X163616D02*
D03*
X163616Y530500D02*
D03*
X163615Y535500D02*
D03*
D67*
X156250Y530500D02*
D03*
D68*
X179509Y550027D02*
X179782Y549754D01*
Y545918D02*
Y549754D01*
Y545918D02*
X182750Y542950D01*
X163615Y535500D02*
X165474D01*
X170250Y540250D02*
Y540250D01*
X165668Y540250D02*
X170250D01*
X165668D02*
Y544282D01*
X163700Y546250D02*
X165668Y544282D01*
X279954Y416442D02*
Y458500D01*
X320000Y458500D02*
X323000Y461500D01*
X346500Y546000D02*
X349144Y543356D01*
X346500Y544750D02*
Y546000D01*
X321243Y528012D02*
X321455Y527800D01*
X273250Y526750D02*
X276500Y523500D01*
X268050Y470000D02*
X270250Y472200D01*
X182750Y577000D02*
X185568Y574182D01*
Y571500D02*
Y574182D01*
X231000Y529750D02*
X234250Y533000D01*
X250500Y480250D02*
X250750Y480250D01*
X250250Y480250D02*
X250500Y480250D01*
X245500Y475000D02*
X250500Y480000D01*
X172750Y497750D02*
Y505750D01*
X176250Y509250D01*
X178856Y494750D02*
X183770Y499664D01*
X331500Y504695D02*
Y520263D01*
X321305Y494500D02*
X331500Y504695D01*
X320000Y494500D02*
X321305D01*
X315782Y490282D02*
X320000Y494500D01*
X331500Y520263D02*
X338019Y526782D01*
X227750Y526250D02*
X230750Y523250D01*
X250250Y510250D02*
X250750D01*
X337500Y503250D02*
Y505050D01*
X331250Y497000D02*
X337500Y503250D01*
X292232Y437250D02*
Y458332D01*
Y416664D02*
Y437250D01*
X334920Y473702D02*
X338584Y470038D01*
Y466455D02*
Y470038D01*
Y466455D02*
X338767Y466273D01*
X330516D02*
Y467734D01*
X326080Y472170D02*
X330516Y467734D01*
X344000Y496000D02*
Y505050D01*
X344250Y506044D02*
X344482Y505812D01*
X296238Y426690D02*
Y433245D01*
X292232Y437250D02*
X296238Y433245D01*
X304718Y430234D02*
Y458218D01*
X308552Y471198D02*
X317500Y462250D01*
X307834Y471198D02*
X308552D01*
X306782Y472250D02*
X307834Y471198D01*
X300800Y472250D02*
X306782D01*
X350500Y492080D02*
Y505050D01*
X344250Y506044D02*
Y508000D01*
X311080Y425330D02*
X311750Y426000D01*
X306282Y425330D02*
X311080D01*
X221046Y433250D02*
Y458500D01*
Y416700D02*
Y433250D01*
X217500D02*
X221046D01*
X215750Y431500D02*
X217500Y433250D01*
X208650Y455150D02*
Y458500D01*
X208446Y416700D02*
Y458500D01*
X317500Y416442D02*
X317692Y416250D01*
X317500Y416442D02*
Y458500D01*
X306282Y425330D02*
Y428670D01*
X304718Y430234D02*
X306282Y428670D01*
X304718Y458218D02*
X305000Y458500D01*
X292232Y416664D02*
X292646Y416250D01*
X292232Y458332D02*
X292400Y458500D01*
X279954Y416442D02*
X280146Y416250D01*
X208446Y416700D02*
X208896Y416250D01*
X221046Y416700D02*
X221496Y416250D01*
X233546Y446500D02*
X253046Y427000D01*
X233546Y446500D02*
Y458500D01*
Y463546D01*
X242250Y472250D01*
X242500D01*
X184500Y586500D02*
X185068Y585932D01*
Y580818D02*
Y585932D01*
X182750Y578500D02*
X185068Y580818D01*
X184750Y571500D02*
X185568D01*
X182750Y577000D02*
Y578500D01*
X175218Y556998D02*
X178059Y559839D01*
X181399D01*
X182238Y559000D01*
X196250D01*
X198827Y564682D02*
X200462D01*
X200590Y564809D01*
X211403D01*
X196250Y559000D02*
X197168Y559918D01*
Y563023D01*
X198827Y564682D01*
X347452Y519250D02*
X357000Y509702D01*
Y505050D02*
Y509702D01*
X347250Y519250D02*
X347452D01*
X336500Y545000D02*
X344000Y537500D01*
X346500Y548604D02*
X355736Y557840D01*
X346500Y546000D02*
Y548604D01*
X357000Y533450D02*
Y540996D01*
X356470Y541526D02*
X357000Y540996D01*
X353017Y541526D02*
X356470D01*
X348985Y534965D02*
Y543196D01*
Y534965D02*
X350500Y533450D01*
X348985Y543196D02*
X349144Y543356D01*
X349144D02*
X349144D01*
X321250Y559750D02*
Y565250D01*
X327000Y571000D01*
X330500D01*
X316892D02*
X319250D01*
X321210Y572960D01*
Y578446D01*
X320020Y579636D02*
X321210Y578446D01*
X311364Y579636D02*
X320020D01*
X308428Y582572D02*
X311364Y579636D01*
X317500Y458500D02*
X320000D01*
X278250Y460204D02*
X279954Y458500D01*
X278250Y460204D02*
Y470000D01*
X283750Y485250D02*
X286250Y487750D01*
X287048D01*
X287580Y487218D01*
X304016D01*
X266750Y494250D02*
X284500Y476500D01*
X304016Y487218D02*
X307080Y490282D01*
X315782D01*
X338019Y526782D02*
X339456D01*
X344000Y531326D01*
Y533450D01*
X317500Y458500D02*
Y462250D01*
X334920Y473702D02*
Y485302D01*
X305000Y456000D02*
Y458500D01*
X334920Y485302D02*
X336110Y486492D01*
X343662D01*
X349250Y492080D01*
X299250Y565750D02*
X302718Y562282D01*
Y538494D02*
Y562282D01*
Y538494D02*
X304494Y536718D01*
X334232D01*
X337500Y533450D01*
X221250Y526750D02*
Y527750D01*
X218500Y530500D02*
X221250Y527750D01*
X224500Y556000D02*
X227750Y559250D01*
X224750Y563000D02*
X225000D01*
X218250Y556250D02*
X221250Y559250D01*
X308750Y549500D02*
X309950Y550700D01*
X321250D01*
X294436Y541436D02*
X295500D01*
X283250Y543250D02*
X286250Y546250D01*
X283250Y542750D02*
Y543250D01*
X273250Y536500D02*
X277500D01*
X283250Y542750D02*
X286250Y539750D01*
X336000Y545000D02*
X336500D01*
X346250Y546250D02*
X346500Y546000D01*
X236762Y542262D02*
Y548762D01*
X344000Y533450D02*
Y537500D01*
X347250Y519250D02*
X350500Y522500D01*
Y533450D01*
X344080Y482000D02*
X349250D01*
X344000Y481920D02*
X344080Y482000D01*
X340000Y492000D02*
X344000Y496000D01*
X325250Y516500D02*
Y524005D01*
Y509850D02*
Y516500D01*
X325000Y516250D02*
X325250Y516500D01*
X321800Y516250D02*
X325000D01*
X323000Y507600D02*
X325250Y509850D01*
X321455Y527800D02*
X325250Y524005D01*
X321250Y527800D02*
X321455D01*
X291494Y517218D02*
X316200D01*
X309738Y528012D02*
X321243D01*
X174750Y528750D02*
X186000D01*
X207450Y521200D02*
X210250Y524000D01*
X205500Y521200D02*
X207450D01*
X187950Y526800D02*
X195750Y519000D01*
X186000Y528750D02*
X187950Y526800D01*
X205500D01*
X284500Y474250D02*
X286500Y472250D01*
X183770Y499664D02*
Y513530D01*
X182750Y514550D02*
X183770Y513530D01*
X178500Y494750D02*
X178856D01*
X221250Y559250D02*
Y559250D01*
X183750Y466500D02*
Y479000D01*
X189250Y484500D01*
Y514550D01*
X295200Y472250D02*
Y472455D01*
X298827Y476082D01*
X302880D01*
X303580Y476782D01*
X306920D01*
X309202Y474500D01*
X316000D01*
X299573Y481023D02*
X304015D01*
X299050Y480500D02*
X299573Y481023D01*
X327300Y482750D02*
Y482955D01*
X321705Y488550D02*
X327300Y482955D01*
X321500Y488550D02*
X321705D01*
X317995Y486250D02*
X321295Y482950D01*
X308750Y486250D02*
X317995D01*
X320500Y590800D02*
X324450D01*
X321250Y556300D02*
Y559750D01*
X198750Y571500D02*
X211212D01*
X213494Y569218D01*
X235532D01*
X237718Y567032D01*
Y564494D02*
Y567032D01*
Y564494D02*
X242962Y559250D01*
X279750D01*
X286250Y552750D01*
X292750Y539750D02*
X294436Y541436D01*
X234250Y489750D02*
Y494250D01*
X247250D02*
Y494548D01*
X246218Y495580D02*
X247250Y494548D01*
X246218Y495580D02*
Y495618D01*
X244052D02*
X246218D01*
X238628Y497552D02*
X242118D01*
X237500Y498680D02*
X238628Y497552D01*
X242118D02*
X244052Y495618D01*
X198264Y494032D02*
X207282D01*
X197982Y493750D02*
X198264Y494032D01*
X207282D02*
X210500Y497250D01*
X214510Y485774D02*
Y494011D01*
X214750Y494250D01*
X227750Y539750D02*
X230616Y536884D01*
Y536116D02*
Y536884D01*
X227750Y533250D02*
X229776Y535276D01*
X236762Y548762D02*
Y548777D01*
X234250Y546250D02*
X236762Y548762D01*
X234250Y539750D02*
X236762Y542262D01*
X230261Y535276D02*
Y535761D01*
X230616Y536116D01*
X229776Y535276D02*
X230261D01*
X231250Y517500D02*
X231500D01*
X234250Y520250D01*
X231000Y529750D02*
Y530000D01*
X250500Y480000D02*
X250750Y480250D01*
X242875Y472375D02*
X245500Y475000D01*
Y476000D01*
X234250Y526750D02*
X234750D01*
X237500Y524000D01*
X214250Y479000D02*
X218500Y474750D01*
X209080Y479000D02*
X214250D01*
X240500Y486750D02*
X240750Y487000D01*
Y494250D01*
X227750Y479500D02*
X228250Y479000D01*
X227750Y479500D02*
Y494250D01*
X221250Y486750D02*
Y494250D01*
X201260Y468773D02*
Y469240D01*
X247950Y469450D02*
X249950D01*
X245250Y466750D02*
X247950Y469450D01*
X221250Y507500D02*
X224500Y510750D01*
X221250Y507250D02*
Y507500D01*
X217782Y505994D02*
Y516019D01*
X216006Y504218D02*
X217782Y505994D01*
X215008Y504218D02*
X216006D01*
X214750Y503960D02*
X215008Y504218D01*
X214750Y500750D02*
Y503960D01*
X224250Y503750D02*
Y504000D01*
X221250Y500750D02*
X224250Y503750D01*
X217750Y516051D02*
Y517000D01*
Y516051D02*
X217782Y516019D01*
X175218Y543982D02*
Y556998D01*
Y543982D02*
X176250Y542950D01*
X168250Y480250D02*
X170750D01*
X176000Y475000D01*
X195500D02*
X199000Y478500D01*
Y479000D01*
X195500Y475000D02*
X201260Y469240D01*
X190000Y475000D02*
X195500D01*
X197982Y493750D02*
X199000Y492732D01*
Y479000D02*
Y492732D01*
X186000Y528750D02*
X189250Y532000D01*
Y535750D01*
X195750Y514550D02*
Y519000D01*
X189250Y535750D02*
X189250Y535750D01*
X189250Y535750D02*
Y542950D01*
X201273Y560777D02*
X202260D01*
X201000Y561050D02*
X201273Y560777D01*
X211403Y564809D02*
X213494Y562718D01*
X250250Y497250D02*
Y497750D01*
X247250Y500750D02*
X250250Y497750D01*
X270250Y472000D02*
Y472200D01*
X284500Y474250D02*
Y476500D01*
X286500Y472250D02*
X295200D01*
X290000Y483000D02*
X292500Y480500D01*
X293450D01*
X289250Y491250D02*
X292250Y494250D01*
X292750D01*
X286250D02*
X289250Y491250D01*
X279750Y513750D02*
X282750Y510750D01*
X276500Y523500D02*
X276750Y523750D01*
X273250Y536500D02*
Y539750D01*
Y533250D02*
Y536500D01*
X263500Y526750D02*
X266750D01*
X260250D02*
X263500D01*
Y521750D02*
Y526750D01*
Y536500D02*
X266750Y539750D01*
X260250Y533250D02*
X263500Y536500D01*
Y549500D02*
X266750Y552750D01*
X260250Y546250D02*
X263500Y549500D01*
X250500Y549500D02*
X253750Y552750D01*
X247250Y546250D02*
X250500Y549500D01*
Y536500D02*
X253750Y539750D01*
X247250Y533250D02*
X250500Y536500D01*
X250500Y526750D02*
X253750D01*
X247250D02*
X250500D01*
Y521750D02*
Y526750D01*
X234250Y533000D02*
Y533250D01*
X234250Y539750D02*
X234250D01*
X253750Y526750D02*
X253750Y526750D01*
X247250Y526750D02*
Y526750D01*
X250500Y536500D02*
X253750Y533250D01*
X247250Y539750D02*
X250500Y536500D01*
X247250Y539750D02*
Y539750D01*
X253750Y539750D02*
Y539750D01*
X263500Y536500D02*
X266750Y533250D01*
X260250Y539750D02*
X263500Y536500D01*
X260250Y539750D02*
Y539750D01*
X266750Y539750D02*
Y539750D01*
X273250Y546250D02*
Y546750D01*
X276250Y549750D01*
X273250Y552750D02*
X276250Y549750D01*
X263500Y549500D02*
X266750Y546250D01*
X260250Y552750D02*
X263500Y549500D01*
X266750Y552750D02*
Y552750D01*
X260250Y552750D02*
Y552750D01*
X250500Y549500D02*
X253750Y546250D01*
X247250Y552750D02*
X250500Y549500D01*
X247250Y546250D02*
Y546250D01*
X253750Y546250D02*
Y546250D01*
X250250Y568750D02*
Y569000D01*
X247250Y565750D02*
X250250Y568750D01*
Y569000D02*
X253500Y565750D01*
X253750D01*
X254282Y565218D01*
X259718D01*
X260250Y565750D01*
X198500Y586500D02*
X209718Y575282D01*
X242006D01*
X243782Y573506D01*
Y572508D02*
Y573506D01*
Y572508D02*
X244040Y572250D01*
X247250D01*
X180786Y554750D02*
X191250D01*
X179729Y555807D02*
X180786Y554750D01*
X210500Y583000D02*
Y583500D01*
Y583000D02*
X214750Y578750D01*
X211250Y588750D02*
X214750Y585250D01*
X195750Y542950D02*
Y550250D01*
X191250Y554750D02*
X195750Y550250D01*
X225000Y563000D02*
X227750Y565750D01*
X213494Y562718D02*
X216006D01*
X217782Y564494D01*
Y565492D01*
X218040Y565750D01*
X221250D01*
X289718Y518994D02*
X291494Y517218D01*
X289718Y518994D02*
Y523282D01*
X286250Y526750D02*
X289718Y523282D01*
X176250Y509250D02*
Y514550D01*
X168750Y493750D02*
X172750Y497750D01*
X314000Y587750D02*
X316550Y585200D01*
X320500D01*
X326080Y472170D02*
Y474500D01*
X321295Y482950D02*
X321500D01*
X296250Y497250D02*
X299250Y494250D01*
X308750Y497250D02*
Y497500D01*
X305750Y494250D02*
X308750Y497250D01*
Y497500D02*
X313250Y502000D01*
X323000D01*
X309250Y523250D02*
X310300Y522200D01*
X321250D01*
X292750Y546250D02*
X296000Y549500D01*
X292750Y546250D02*
X292750D01*
X292750Y552750D02*
X296000Y549500D01*
X263750Y569500D02*
X266750Y566500D01*
Y565750D02*
Y566500D01*
X263750Y569500D02*
X266500Y572250D01*
X266750D01*
X254250D02*
X257250Y569250D01*
X253750Y572250D02*
X254250D01*
X257250Y569250D02*
X260250Y572250D01*
X210700Y555450D02*
X211250Y556000D01*
X201000Y555450D02*
X210700D01*
X230750Y549250D02*
X231000D01*
X227750Y546250D02*
X230750Y549250D01*
X227750Y533250D02*
X227750D01*
X227750Y526250D02*
Y526750D01*
Y520250D02*
X230750Y523250D01*
X236750Y472500D02*
Y477420D01*
X238330Y479000D01*
X250750Y510250D02*
X253750Y507250D01*
X247250D02*
X250250Y510250D01*
X270000Y510500D02*
X273250Y513750D01*
X270000Y510500D02*
X270000Y510500D01*
X242500Y466750D02*
X245250D01*
X371750Y551000D02*
X376000Y546750D01*
X376318D01*
X240750Y585250D02*
X243750Y582250D01*
X249950Y469450D02*
X250500Y470000D01*
X264000Y480000D02*
X264550Y480550D01*
X273000D01*
X264000Y470000D02*
X268050D01*
X250250Y480250D02*
X250282D01*
X250250Y497250D02*
X253750Y500750D01*
X260250Y483750D02*
X264000Y480000D01*
X260250Y483750D02*
Y494250D01*
X250500Y470000D02*
X256750Y476250D01*
Y491250D01*
X253750Y494250D02*
X256750Y491250D01*
D69*
X172750Y505750D02*
Y516286D01*
X163616Y525420D02*
X172750Y516286D01*
X119250Y517250D02*
X119500Y517000D01*
Y508724D02*
Y517000D01*
X138402Y517250D02*
X144250Y511402D01*
Y509474D02*
Y511402D01*
X140750Y528250D02*
X145552Y523448D01*
X146977D01*
X148949Y525420D01*
X146023Y538426D02*
X148949Y535500D01*
X138574Y538426D02*
X146023D01*
X128750D02*
X138574D01*
X140750Y536250D01*
Y528250D02*
Y536250D01*
X144250Y482250D02*
X149250Y487250D01*
X144250Y481250D02*
Y482250D01*
X197512Y417366D02*
Y456988D01*
X196000Y458500D02*
X197512Y456988D01*
X196396Y416250D02*
X197512Y417366D01*
X119000Y489500D02*
X119500Y489000D01*
Y480500D02*
Y489000D01*
D70*
X344750Y600000D02*
D03*
X173250Y599250D02*
D03*
X112000Y551500D02*
D03*
X284500Y474250D02*
D03*
X218500Y474750D02*
D03*
D71*
X388264Y589660D02*
D03*
X394750Y573500D02*
D03*
X387910Y557486D02*
D03*
X371750Y551000D02*
D03*
X355736Y557840D02*
D03*
X349250Y574000D02*
D03*
X356090Y590014D02*
D03*
X372250Y596500D02*
D03*
X158264Y589660D02*
D03*
X164750Y573500D02*
D03*
X157910Y557486D02*
D03*
X141750Y551000D02*
D03*
X125736Y557840D02*
D03*
X119250Y574000D02*
D03*
X126090Y590014D02*
D03*
X142250Y596500D02*
D03*
Y466250D02*
D03*
X126090Y459763D02*
D03*
X119250Y443750D02*
D03*
X125736Y427590D02*
D03*
X141750Y420750D02*
D03*
X157910Y427236D02*
D03*
X164750Y443250D02*
D03*
X158264Y459410D02*
D03*
X388264D02*
D03*
X394750Y443250D02*
D03*
X387910Y427236D02*
D03*
X371750Y420750D02*
D03*
X355736Y427590D02*
D03*
X349250Y443750D02*
D03*
X356090Y459763D02*
D03*
X372250Y466250D02*
D03*
D72*
X336750Y433000D02*
D03*
X257000Y429250D02*
D03*
X176250Y431000D02*
D03*
D73*
X142000Y573750D02*
D03*
X372000D02*
D03*
X142000Y443500D02*
D03*
X372000D02*
D03*
D74*
X156258Y507775D02*
D03*
X179509Y550027D02*
D03*
X165474Y535500D02*
D03*
X170250Y540250D02*
D03*
X140750Y528250D02*
D03*
X157020Y475520D02*
D03*
X279500Y435500D02*
D03*
X323000Y461500D02*
D03*
X398000Y470000D02*
D03*
X391750D02*
D03*
X360750Y482000D02*
D03*
X367000D02*
D03*
X373250D02*
D03*
X391750Y476250D02*
D03*
X385500D02*
D03*
X167868Y463964D02*
D03*
X149250Y487250D02*
D03*
X199750Y446250D02*
D03*
X119000Y489500D02*
D03*
X131684Y480750D02*
D03*
X131506Y503525D02*
D03*
X131756Y511025D02*
D03*
X128934Y519500D02*
D03*
X131816Y495500D02*
D03*
X172750Y505750D02*
D03*
X330516Y466273D02*
D03*
X338767D02*
D03*
X354750Y487750D02*
D03*
X360750Y488250D02*
D03*
X344482Y505812D02*
D03*
X296238Y426690D02*
D03*
X311750Y426000D02*
D03*
X215750Y431500D02*
D03*
X208010Y425521D02*
D03*
X192250Y448000D02*
D03*
X215250Y425750D02*
D03*
X227511Y421771D02*
D03*
X363750Y532250D02*
D03*
Y538500D02*
D03*
X370000Y532250D02*
D03*
Y538500D02*
D03*
X376250Y532250D02*
D03*
Y538500D02*
D03*
X373250Y488250D02*
D03*
X367000D02*
D03*
X385500Y482500D02*
D03*
Y488750D02*
D03*
X398000D02*
D03*
X391750D02*
D03*
X398000Y482500D02*
D03*
X391750D02*
D03*
X398000Y476250D02*
D03*
X386000Y540500D02*
D03*
Y534250D02*
D03*
X392250D02*
D03*
X398500Y534000D02*
D03*
X392250Y540500D02*
D03*
X398500Y540250D02*
D03*
X392250Y546750D02*
D03*
X398500D02*
D03*
X302250Y427000D02*
D03*
X182750Y578500D02*
D03*
X339762Y554986D02*
D03*
X343017Y551277D02*
D03*
X363806Y514979D02*
D03*
X361268Y508275D02*
D03*
X353017Y541526D02*
D03*
X363889Y521500D02*
D03*
X308428Y582572D02*
D03*
X308265Y575528D02*
D03*
X308750Y568500D02*
D03*
X278250Y470000D02*
D03*
X283750Y485250D02*
D03*
X218500Y530500D02*
D03*
X224500Y556000D02*
D03*
X224750Y563000D02*
D03*
X218250Y556250D02*
D03*
X308750Y549500D02*
D03*
X296250Y549500D02*
D03*
X295500Y541436D02*
D03*
X283250Y543250D02*
D03*
X277500Y536500D02*
D03*
X331250Y497000D02*
D03*
X309738Y528012D02*
D03*
X210250Y524000D02*
D03*
X286420Y427080D02*
D03*
X223511Y543027D02*
D03*
X178500Y494750D02*
D03*
X186500Y418750D02*
D03*
X183750Y466500D02*
D03*
X304015Y481023D02*
D03*
X327300Y482750D02*
D03*
X324450Y590800D02*
D03*
X321250Y559750D02*
D03*
X320000Y545750D02*
D03*
X234250Y489750D02*
D03*
X237500Y498680D02*
D03*
X206250Y490000D02*
D03*
X214510Y485774D02*
D03*
X236762Y548777D02*
D03*
X230261Y535276D02*
D03*
X228702Y525564D02*
D03*
X231250Y517500D02*
D03*
X231000Y530000D02*
D03*
X245500Y476000D02*
D03*
X237500Y524000D02*
D03*
X240500Y486750D02*
D03*
X296264Y447772D02*
D03*
X221250Y486750D02*
D03*
X308750Y444000D02*
D03*
X201260Y468773D02*
D03*
X224500Y510750D02*
D03*
X224250Y504000D02*
D03*
X217750Y517000D02*
D03*
X168250Y480250D02*
D03*
X210500Y497250D02*
D03*
X189250Y535750D02*
D03*
X202260Y560777D02*
D03*
X250250Y497250D02*
D03*
X270250Y472000D02*
D03*
X290000Y483000D02*
D03*
X289250Y491250D02*
D03*
X282750Y510750D02*
D03*
X276750Y523750D02*
D03*
X276250Y549750D02*
D03*
X263500Y521750D02*
D03*
Y536500D02*
D03*
Y549500D02*
D03*
X250500Y549500D02*
D03*
Y536500D02*
D03*
X250500Y521750D02*
D03*
X250250Y569000D02*
D03*
X179729Y555807D02*
D03*
X210500Y583500D02*
D03*
X211250Y588750D02*
D03*
X314000Y587750D02*
D03*
X308750Y486250D02*
D03*
X296250Y497250D02*
D03*
X308750Y497500D02*
D03*
X309250Y523250D02*
D03*
X263750Y569500D02*
D03*
X257250Y569250D02*
D03*
X211250Y556000D02*
D03*
X231000Y549250D02*
D03*
X236750Y472500D02*
D03*
X250250Y510500D02*
D03*
X270000Y510500D02*
D03*
X224537Y582213D02*
D03*
X230750Y582250D02*
D03*
X243750D02*
D03*
M02*
