G04*
G04 #@! TF.GenerationSoftware,Altium Limited,Altium Designer,18.0.9 (584)*
G04*
G04 Layer_Color=8421504*
%FSLAX44Y44*%
%MOMM*%
G71*
G01*
G75*
%ADD22R,0.4500X0.4500*%
%ADD23R,0.4500X0.4500*%
%ADD24R,0.4500X0.4500*%
%ADD25R,0.4500X0.4500*%
%ADD26R,0.4500X0.4500*%
%ADD27R,0.4500X0.4500*%
G04:AMPARAMS|DCode=28|XSize=2.8702mm|YSize=1.0668mm|CornerRadius=0.5334mm|HoleSize=0mm|Usage=FLASHONLY|Rotation=270.000|XOffset=0mm|YOffset=0mm|HoleType=Round|Shape=RoundedRectangle|*
%AMROUNDEDRECTD28*
21,1,2.8702,0.0000,0,0,270.0*
21,1,1.8034,1.0668,0,0,270.0*
1,1,1.0668,0.0000,-0.9017*
1,1,1.0668,0.0000,0.9017*
1,1,1.0668,0.0000,0.9017*
1,1,1.0668,0.0000,-0.9017*
%
%ADD28ROUNDEDRECTD28*%
G04:AMPARAMS|DCode=29|XSize=0.6604mm|YSize=1.7526mm|CornerRadius=0.3302mm|HoleSize=0mm|Usage=FLASHONLY|Rotation=180.000|XOffset=0mm|YOffset=0mm|HoleType=Round|Shape=RoundedRectangle|*
%AMROUNDEDRECTD29*
21,1,0.6604,1.0922,0,0,180.0*
21,1,0.0000,1.7526,0,0,180.0*
1,1,0.6604,0.0000,0.5461*
1,1,0.6604,0.0000,0.5461*
1,1,0.6604,0.0000,-0.5461*
1,1,0.6604,0.0000,-0.5461*
%
%ADD29ROUNDEDRECTD29*%
%ADD30R,0.3508X0.9008*%
%ADD31R,0.6508X0.5508*%
G04:AMPARAMS|DCode=32|XSize=0.3708mm|YSize=0.4108mm|CornerRadius=0.1054mm|HoleSize=0mm|Usage=FLASHONLY|Rotation=90.000|XOffset=0mm|YOffset=0mm|HoleType=Round|Shape=RoundedRectangle|*
%AMROUNDEDRECTD32*
21,1,0.3708,0.2000,0,0,90.0*
21,1,0.1600,0.4108,0,0,90.0*
1,1,0.2108,0.1000,0.0800*
1,1,0.2108,0.1000,-0.0800*
1,1,0.2108,-0.1000,-0.0800*
1,1,0.2108,-0.1000,0.0800*
%
%ADD32ROUNDEDRECTD32*%
G04:AMPARAMS|DCode=33|XSize=0.3708mm|YSize=0.4108mm|CornerRadius=0.1054mm|HoleSize=0mm|Usage=FLASHONLY|Rotation=0.000|XOffset=0mm|YOffset=0mm|HoleType=Round|Shape=RoundedRectangle|*
%AMROUNDEDRECTD33*
21,1,0.3708,0.2000,0,0,0.0*
21,1,0.1600,0.4108,0,0,0.0*
1,1,0.2108,0.0800,-0.1000*
1,1,0.2108,-0.0800,-0.1000*
1,1,0.2108,-0.0800,0.1000*
1,1,0.2108,0.0800,0.1000*
%
%ADD33ROUNDEDRECTD33*%
%ADD34R,0.6604X0.5588*%
%ADD35R,0.5588X0.6604*%
G04:AMPARAMS|DCode=36|XSize=0.6604mm|YSize=0.9652mm|CornerRadius=0.1778mm|HoleSize=0mm|Usage=FLASHONLY|Rotation=0.000|XOffset=0mm|YOffset=0mm|HoleType=Round|Shape=RoundedRectangle|*
%AMROUNDEDRECTD36*
21,1,0.6604,0.6096,0,0,0.0*
21,1,0.3048,0.9652,0,0,0.0*
1,1,0.3556,0.1524,-0.3048*
1,1,0.3556,-0.1524,-0.3048*
1,1,0.3556,-0.1524,0.3048*
1,1,0.3556,0.1524,0.3048*
%
%ADD36ROUNDEDRECTD36*%
%ADD37R,0.9652X1.6510*%
%ADD38C,0.2508*%
%ADD39R,0.8008X0.6508*%
%ADD40R,0.5080X0.3556*%
%ADD41R,0.3048X0.6096*%
%ADD42R,0.5588X0.5588*%
G04:AMPARAMS|DCode=43|XSize=0.5588mm|YSize=0.6604mm|CornerRadius=0.1524mm|HoleSize=0mm|Usage=FLASHONLY|Rotation=0.000|XOffset=0mm|YOffset=0mm|HoleType=Round|Shape=RoundedRectangle|*
%AMROUNDEDRECTD43*
21,1,0.5588,0.3556,0,0,0.0*
21,1,0.2540,0.6604,0,0,0.0*
1,1,0.3048,0.1270,-0.1778*
1,1,0.3048,-0.1270,-0.1778*
1,1,0.3048,-0.1270,0.1778*
1,1,0.3048,0.1270,0.1778*
%
%ADD43ROUNDEDRECTD43*%
D22*
X337500Y516000D02*
D03*
X343999Y516000D02*
D03*
X350500Y516000D02*
D03*
X357000Y516000D02*
D03*
X344000Y522500D02*
D03*
X357000Y522500D02*
D03*
D23*
X337500Y522500D02*
D03*
D24*
X350500D02*
D03*
D25*
X176250Y525499D02*
D03*
X189249Y525500D02*
D03*
X195750Y525500D02*
D03*
X182750Y532000D02*
D03*
D26*
X182749Y525501D02*
D03*
X195750Y532000D02*
D03*
D27*
X176250Y532000D02*
D03*
X189250Y532000D02*
D03*
D28*
X337250Y447750D02*
D03*
X260646D02*
D03*
X253500D02*
D03*
X176896D02*
D03*
X337000Y427000D02*
D03*
X260396D02*
D03*
X253046Y427000D02*
D03*
X176442D02*
D03*
D29*
X317692Y416250D02*
D03*
X305246D02*
D03*
X292646Y416250D02*
D03*
X280146Y416250D02*
D03*
X233942D02*
D03*
X221496D02*
D03*
X208896Y416250D02*
D03*
X196396Y416250D02*
D03*
X317500Y458500D02*
D03*
X305000Y458500D02*
D03*
X292400D02*
D03*
X279954D02*
D03*
X233546D02*
D03*
X221046D02*
D03*
X208446D02*
D03*
X196000D02*
D03*
D30*
X337500Y505050D02*
D03*
X344000D02*
D03*
X350500D02*
D03*
X357000D02*
D03*
X337500Y533450D02*
D03*
X344000D02*
D03*
X350500D02*
D03*
X357000D02*
D03*
X176250Y514550D02*
D03*
X182750D02*
D03*
X189250D02*
D03*
X195750D02*
D03*
X176250Y542950D02*
D03*
X182750D02*
D03*
X189250Y542950D02*
D03*
X195750Y542950D02*
D03*
D31*
X346000Y545000D02*
D03*
X336000D02*
D03*
X158000Y493750D02*
D03*
X148000D02*
D03*
D32*
X321250Y556300D02*
D03*
Y550700D02*
D03*
Y527800D02*
D03*
Y522200D02*
D03*
X205500Y526800D02*
D03*
Y521200D02*
D03*
X201000Y561050D02*
D03*
Y555450D02*
D03*
X323000Y507600D02*
D03*
Y502000D02*
D03*
X321500Y488550D02*
D03*
Y482950D02*
D03*
X242500Y472250D02*
D03*
Y466650D02*
D03*
X273000Y480550D02*
D03*
Y474950D02*
D03*
X320500Y590800D02*
D03*
Y585200D02*
D03*
D33*
X321800Y516250D02*
D03*
X316200D02*
D03*
X300800Y472250D02*
D03*
X295200D02*
D03*
X167800Y528750D02*
D03*
X162200D02*
D03*
X293450Y480500D02*
D03*
X299050D02*
D03*
D34*
X349250Y482000D02*
D03*
Y492080D02*
D03*
X340000Y492000D02*
D03*
Y481920D02*
D03*
D35*
X326080Y474500D02*
D03*
X316000D02*
D03*
X238330Y479000D02*
D03*
X228250D02*
D03*
X209080D02*
D03*
X199000D02*
D03*
D36*
X190000Y475000D02*
D03*
X176000D02*
D03*
X194750Y587000D02*
D03*
X180750D02*
D03*
X181250Y571500D02*
D03*
X195250D02*
D03*
X145500Y482250D02*
D03*
X159500D02*
D03*
D37*
X168750Y493750D02*
D03*
X197982D02*
D03*
D38*
X214750Y494250D02*
D03*
Y500750D02*
D03*
Y507250D02*
D03*
Y513750D02*
D03*
Y520250D02*
D03*
Y526750D02*
D03*
Y533250D02*
D03*
Y539750D02*
D03*
Y546250D02*
D03*
Y552750D02*
D03*
Y559250D02*
D03*
Y565750D02*
D03*
Y572250D02*
D03*
Y578750D02*
D03*
Y585250D02*
D03*
X221250Y494250D02*
D03*
Y500750D02*
D03*
Y507250D02*
D03*
Y513750D02*
D03*
Y520250D02*
D03*
Y526750D02*
D03*
Y533250D02*
D03*
Y539750D02*
D03*
Y546250D02*
D03*
Y552750D02*
D03*
Y559250D02*
D03*
Y565750D02*
D03*
Y572250D02*
D03*
Y578750D02*
D03*
Y585250D02*
D03*
X227750Y494250D02*
D03*
Y500750D02*
D03*
Y507250D02*
D03*
Y513750D02*
D03*
Y520250D02*
D03*
Y526750D02*
D03*
Y533250D02*
D03*
Y539750D02*
D03*
Y546250D02*
D03*
Y552750D02*
D03*
Y559250D02*
D03*
Y565750D02*
D03*
Y572250D02*
D03*
Y578750D02*
D03*
Y585250D02*
D03*
X234250Y494250D02*
D03*
Y500750D02*
D03*
Y507250D02*
D03*
Y513750D02*
D03*
Y520250D02*
D03*
Y526750D02*
D03*
Y533250D02*
D03*
Y539750D02*
D03*
Y546250D02*
D03*
Y552750D02*
D03*
Y559250D02*
D03*
Y565750D02*
D03*
Y572250D02*
D03*
Y578750D02*
D03*
Y585250D02*
D03*
X240750Y494250D02*
D03*
Y500750D02*
D03*
Y507250D02*
D03*
Y513750D02*
D03*
Y565750D02*
D03*
Y572250D02*
D03*
Y578750D02*
D03*
Y585250D02*
D03*
X247250Y494250D02*
D03*
Y500750D02*
D03*
Y507250D02*
D03*
Y513750D02*
D03*
Y526750D02*
D03*
Y533250D02*
D03*
Y539750D02*
D03*
Y546250D02*
D03*
Y552750D02*
D03*
Y565750D02*
D03*
Y572250D02*
D03*
Y578750D02*
D03*
Y585250D02*
D03*
X253750Y494250D02*
D03*
X253750Y500750D02*
D03*
X253750Y507250D02*
D03*
Y513750D02*
D03*
Y526750D02*
D03*
Y533250D02*
D03*
Y539750D02*
D03*
Y546250D02*
D03*
Y552750D02*
D03*
Y565750D02*
D03*
Y572250D02*
D03*
Y578750D02*
D03*
Y585250D02*
D03*
X260250Y494250D02*
D03*
Y500750D02*
D03*
Y507250D02*
D03*
Y513750D02*
D03*
Y526750D02*
D03*
Y533250D02*
D03*
Y539750D02*
D03*
Y546250D02*
D03*
Y552750D02*
D03*
Y565750D02*
D03*
Y572250D02*
D03*
Y578750D02*
D03*
Y585250D02*
D03*
X266750Y494250D02*
D03*
Y500750D02*
D03*
Y507250D02*
D03*
Y513750D02*
D03*
Y526750D02*
D03*
Y533250D02*
D03*
Y539750D02*
D03*
Y546250D02*
D03*
Y552750D02*
D03*
Y565750D02*
D03*
Y572250D02*
D03*
Y578750D02*
D03*
Y585250D02*
D03*
X273250Y494250D02*
D03*
Y500750D02*
D03*
Y507250D02*
D03*
Y513750D02*
D03*
Y526750D02*
D03*
Y533250D02*
D03*
Y539750D02*
D03*
Y546250D02*
D03*
Y552750D02*
D03*
Y565750D02*
D03*
Y572250D02*
D03*
Y578750D02*
D03*
Y585250D02*
D03*
X279750Y494250D02*
D03*
Y500750D02*
D03*
Y507250D02*
D03*
Y513750D02*
D03*
Y565750D02*
D03*
Y572250D02*
D03*
Y578750D02*
D03*
Y585250D02*
D03*
X286250Y494250D02*
D03*
Y500750D02*
D03*
Y507250D02*
D03*
Y513750D02*
D03*
Y520250D02*
D03*
Y526750D02*
D03*
Y533250D02*
D03*
Y539750D02*
D03*
Y546250D02*
D03*
Y552750D02*
D03*
Y559250D02*
D03*
Y565750D02*
D03*
Y572250D02*
D03*
Y578750D02*
D03*
Y585250D02*
D03*
X292750Y494250D02*
D03*
Y500750D02*
D03*
Y507250D02*
D03*
Y513750D02*
D03*
Y520250D02*
D03*
Y526750D02*
D03*
Y533250D02*
D03*
Y539750D02*
D03*
Y546250D02*
D03*
Y552750D02*
D03*
Y559250D02*
D03*
Y565750D02*
D03*
Y572250D02*
D03*
Y578750D02*
D03*
Y585250D02*
D03*
X299250Y494250D02*
D03*
Y500750D02*
D03*
Y507250D02*
D03*
Y513750D02*
D03*
Y520250D02*
D03*
Y526750D02*
D03*
Y533250D02*
D03*
Y539750D02*
D03*
Y546250D02*
D03*
Y552750D02*
D03*
Y559250D02*
D03*
Y565750D02*
D03*
Y572250D02*
D03*
Y578750D02*
D03*
Y585250D02*
D03*
X305750Y494250D02*
D03*
Y500750D02*
D03*
Y507250D02*
D03*
Y513750D02*
D03*
Y520250D02*
D03*
Y526750D02*
D03*
Y533250D02*
D03*
Y539750D02*
D03*
Y546250D02*
D03*
Y552750D02*
D03*
Y559250D02*
D03*
Y565750D02*
D03*
Y572250D02*
D03*
Y578750D02*
D03*
Y585250D02*
D03*
D39*
X264000Y480000D02*
D03*
Y470000D02*
D03*
X250500Y480000D02*
D03*
Y470000D02*
D03*
D40*
X330500Y566000D02*
D03*
X330500Y576080D02*
D03*
X330500Y571000D02*
D03*
X316892Y576080D02*
D03*
X316892Y571000D02*
D03*
Y566000D02*
D03*
D41*
X143500Y503200D02*
D03*
X148500Y503200D02*
D03*
X153580Y503200D02*
D03*
Y517866D02*
D03*
X148500D02*
D03*
X143500Y517866D02*
D03*
D42*
X148500Y510500D02*
D03*
D43*
X152500Y533000D02*
D03*
X144500D02*
D03*
M02*
