G04*
G04 #@! TF.GenerationSoftware,Altium Limited,Altium Designer,18.0.9 (584)*
G04*
G04 Layer_Color=128*
%FSLAX44Y44*%
%MOMM*%
G71*
G01*
G75*
%ADD153C,0.0508*%
D153*
X282000Y474250D02*
X287000D01*
X284500Y471750D02*
Y476750D01*
X216000Y474750D02*
X221000D01*
X218500Y472250D02*
Y477250D01*
X135400Y537250D02*
X137400D01*
X136400Y536250D02*
Y538250D01*
X129050Y537250D02*
X131050D01*
X130050Y536250D02*
Y538250D01*
X122700Y537250D02*
X124700D01*
X123700Y536250D02*
Y538250D01*
X116350Y537250D02*
X118350D01*
X117350Y536250D02*
Y538250D01*
X110000Y537250D02*
X112000D01*
X111000Y536250D02*
Y538250D01*
X110000Y524550D02*
X112000D01*
X111000Y523550D02*
Y525550D01*
X116350Y524550D02*
X118350D01*
X117350Y523550D02*
Y525550D01*
X122700Y524550D02*
X124700D01*
X123700Y523550D02*
Y525550D01*
X129050Y524550D02*
X131050D01*
X130050Y523550D02*
Y525550D01*
X135400Y524550D02*
X137400D01*
X136400Y523550D02*
Y525550D01*
X135400Y530900D02*
X137400D01*
X136400Y529900D02*
Y531900D01*
X129050Y530900D02*
X131050D01*
X130050Y529900D02*
Y531900D01*
X110000Y530900D02*
X112000D01*
X111000Y529900D02*
Y531900D01*
X116350Y530900D02*
X118350D01*
X117350Y529900D02*
Y531900D01*
X122700Y530900D02*
X124700D01*
X123700Y529900D02*
Y531900D01*
X110250Y504550D02*
X112250D01*
X111250Y503550D02*
Y505550D01*
X116600Y504550D02*
X118600D01*
X117600Y503550D02*
Y505550D01*
X122950Y504550D02*
X124950D01*
X123950Y503550D02*
Y505550D01*
X129300Y504550D02*
X131300D01*
X130300Y503550D02*
Y505550D01*
X135650Y504550D02*
X137650D01*
X136650Y503550D02*
Y505550D01*
X135650Y517250D02*
X137650D01*
X136650Y516250D02*
Y518250D01*
X129300Y517250D02*
X131300D01*
X130300Y516250D02*
Y518250D01*
X122950Y517250D02*
X124950D01*
X123950Y516250D02*
Y518250D01*
X116600Y517250D02*
X118600D01*
X117600Y516250D02*
Y518250D01*
X110250Y517250D02*
X112250D01*
X111250Y516250D02*
Y518250D01*
X110250Y510900D02*
X112250D01*
X111250Y509900D02*
Y511900D01*
X116600Y510900D02*
X118600D01*
X117600Y509900D02*
Y511900D01*
X135650Y510900D02*
X137650D01*
X136650Y509900D02*
Y511900D01*
X129300Y510900D02*
X131300D01*
X130300Y509900D02*
Y511900D01*
X122950Y510900D02*
X124950D01*
X123950Y509900D02*
Y511900D01*
X110250Y483050D02*
X112250D01*
X111250Y482050D02*
Y484050D01*
X116600Y483050D02*
X118600D01*
X117600Y482050D02*
Y484050D01*
X122950Y483050D02*
X124950D01*
X123950Y482050D02*
Y484050D01*
X129300Y483050D02*
X131300D01*
X130300Y482050D02*
Y484050D01*
X135650Y483050D02*
X137650D01*
X136650Y482050D02*
Y484050D01*
X135650Y495750D02*
X137650D01*
X136650Y494750D02*
Y496750D01*
X129300Y495750D02*
X131300D01*
X130300Y494750D02*
Y496750D01*
X122950Y495750D02*
X124950D01*
X123950Y494750D02*
Y496750D01*
X116600Y495750D02*
X118600D01*
X117600Y494750D02*
Y496750D01*
X110250Y495750D02*
X112250D01*
X111250Y494750D02*
Y496750D01*
X110250Y489400D02*
X112250D01*
X111250Y488400D02*
Y490400D01*
X116600Y489400D02*
X118600D01*
X117600Y488400D02*
Y490400D01*
X135650Y489400D02*
X137650D01*
X136650Y488400D02*
Y490400D01*
X129300Y489400D02*
X131300D01*
X130300Y488400D02*
Y490400D01*
X122950Y489400D02*
X124950D01*
X123950Y488400D02*
Y490400D01*
X384454Y589660D02*
X392074D01*
X388264Y585850D02*
Y593470D01*
X390940Y573500D02*
X398560D01*
X394750Y569690D02*
Y577310D01*
X384100Y557486D02*
X391720D01*
X387910Y553676D02*
Y561297D01*
X367940Y551000D02*
X375560D01*
X371750Y547190D02*
Y554810D01*
X351926Y557840D02*
X359546D01*
X355736Y554030D02*
Y561650D01*
X345440Y574000D02*
X353060D01*
X349250Y570190D02*
Y577810D01*
X352280Y590014D02*
X359900D01*
X356090Y586204D02*
Y593824D01*
X368440Y596500D02*
X376060D01*
X372250Y592690D02*
Y600310D01*
X154453Y589660D02*
X162073D01*
X158264Y585850D02*
Y593470D01*
X160940Y573500D02*
X168560D01*
X164750Y569690D02*
Y577310D01*
X154100Y557486D02*
X161720D01*
X157910Y553676D02*
Y561297D01*
X137940Y551000D02*
X145560D01*
X141750Y547190D02*
Y554810D01*
X121926Y557840D02*
X129546D01*
X125736Y554030D02*
Y561650D01*
X115440Y574000D02*
X123060D01*
X119250Y570190D02*
Y577810D01*
X122280Y590014D02*
X129900D01*
X126090Y586204D02*
Y593824D01*
X138440Y596500D02*
X146060D01*
X142250Y592690D02*
Y600310D01*
X138440Y466250D02*
X146060D01*
X142250Y462440D02*
Y470060D01*
X122280Y459763D02*
X129900D01*
X126090Y455953D02*
Y463573D01*
X115440Y443750D02*
X123060D01*
X119250Y439940D02*
Y447560D01*
X121926Y427590D02*
X129546D01*
X125736Y423780D02*
Y431400D01*
X137940Y420750D02*
X145560D01*
X141750Y416940D02*
Y424560D01*
X154100Y427236D02*
X161720D01*
X157910Y423426D02*
Y431046D01*
X160940Y443250D02*
X168560D01*
X164750Y439440D02*
Y447060D01*
X154453Y459410D02*
X162073D01*
X158264Y455600D02*
Y463220D01*
X384454Y459410D02*
X392074D01*
X388264Y455600D02*
Y463220D01*
X390940Y443250D02*
X398560D01*
X394750Y439440D02*
Y447060D01*
X384100Y427236D02*
X391720D01*
X387910Y423426D02*
Y431046D01*
X367940Y420750D02*
X375560D01*
X371750Y416940D02*
Y424560D01*
X351926Y427590D02*
X359546D01*
X355736Y423780D02*
Y431400D01*
X345440Y443750D02*
X353060D01*
X349250Y439940D02*
Y447560D01*
X352280Y459763D02*
X359900D01*
X356090Y455953D02*
Y463573D01*
X368440Y466250D02*
X376060D01*
X372250Y462440D02*
Y470060D01*
X332940Y433000D02*
X340560D01*
X336750Y429190D02*
Y436810D01*
X253190Y429250D02*
X260810D01*
X257000Y425440D02*
Y433060D01*
X172440Y431000D02*
X180060D01*
X176250Y427190D02*
Y434810D01*
X127000Y573750D02*
X157000D01*
X142000Y558750D02*
Y588750D01*
X357000Y573750D02*
X387000D01*
X372000Y558750D02*
Y588750D01*
X127000Y443500D02*
X157000D01*
X142000Y428500D02*
Y458500D01*
X357000Y443500D02*
X387000D01*
X372000Y428500D02*
Y458500D01*
X362750Y532250D02*
X364750D01*
X363750Y531250D02*
Y533250D01*
X362750Y538500D02*
X364750D01*
X363750Y537500D02*
Y539500D01*
X369000Y532250D02*
X371000D01*
X370000Y531250D02*
Y533250D01*
X369000Y538500D02*
X371000D01*
X370000Y537500D02*
Y539500D01*
X375250Y532250D02*
X377250D01*
X376250Y531250D02*
Y533250D01*
X375250Y538500D02*
X377250D01*
X376250Y537500D02*
Y539500D01*
X372250Y488250D02*
X374250D01*
X373250Y487250D02*
Y489250D01*
X372250Y482000D02*
X374250D01*
X373250Y481000D02*
Y483000D01*
X366000Y482000D02*
X368000D01*
X367000Y481000D02*
Y483000D01*
X366000Y488250D02*
X368000D01*
X367000Y487250D02*
Y489250D01*
X359750Y482000D02*
X361750D01*
X360750Y481000D02*
Y483000D01*
X359750Y488250D02*
X361750D01*
X360750Y487250D02*
Y489250D01*
X384500Y476250D02*
X386500D01*
X385500Y475250D02*
Y477250D01*
X384500Y482500D02*
X386500D01*
X385500Y481500D02*
Y483500D01*
X384500Y488750D02*
X386500D01*
X385500Y487750D02*
Y489750D01*
X397000Y488750D02*
X399000D01*
X398000Y487750D02*
Y489750D01*
X390750Y488750D02*
X392750D01*
X391750Y487750D02*
Y489750D01*
X397000Y482500D02*
X399000D01*
X398000Y481500D02*
Y483500D01*
X390750Y482500D02*
X392750D01*
X391750Y481500D02*
Y483500D01*
X390750Y476250D02*
X392750D01*
X391750Y475250D02*
Y477250D01*
X397000Y476250D02*
X399000D01*
X398000Y475250D02*
Y477250D01*
X390750Y470000D02*
X392750D01*
X391750Y469000D02*
Y471000D01*
X397000Y470000D02*
X399000D01*
X398000Y469000D02*
Y471000D01*
X385000Y540500D02*
X387000D01*
X386000Y539500D02*
Y541500D01*
X385000Y534250D02*
X387000D01*
X386000Y533250D02*
Y535250D01*
X391250Y534250D02*
X393250D01*
X392250Y533250D02*
Y535250D01*
X397500Y534000D02*
X399500D01*
X398500Y533000D02*
Y535000D01*
X391250Y540500D02*
X393250D01*
X392250Y539500D02*
Y541500D01*
X397500Y540250D02*
X399500D01*
X398500Y539250D02*
Y541250D01*
X391250Y546750D02*
X393250D01*
X392250Y545750D02*
Y547750D01*
X397500Y546750D02*
X399500D01*
X398500Y545750D02*
Y547750D01*
X219060Y419690D02*
X221060D01*
X220060Y418690D02*
Y420690D01*
X196760Y417270D02*
X198760D01*
X197760Y416270D02*
Y418270D01*
X301250Y427000D02*
X303250D01*
X302250Y426000D02*
Y428000D01*
X181750Y578500D02*
X183750D01*
X182750Y577500D02*
Y579500D01*
X338762Y554986D02*
X340762D01*
X339762Y553986D02*
Y555986D01*
X342017Y551277D02*
X344017D01*
X343017Y550277D02*
Y552277D01*
X362806Y514979D02*
X364806D01*
X363806Y513979D02*
Y515979D01*
X360268Y508275D02*
X362268D01*
X361268Y507275D02*
Y509275D01*
X352017Y541526D02*
X354017D01*
X353017Y540526D02*
Y542526D01*
X362889Y521500D02*
X364889D01*
X363889Y520500D02*
Y522500D01*
X307428Y582572D02*
X309428D01*
X308428Y581572D02*
Y583572D01*
X307265Y575528D02*
X309265D01*
X308265Y574528D02*
Y576528D01*
X307750Y568500D02*
X309750D01*
X308750Y567500D02*
Y569500D01*
X322000Y461500D02*
X324000D01*
X323000Y460500D02*
Y462500D01*
X198500Y458500D02*
X200500D01*
X199500Y457500D02*
Y459500D01*
X180500Y452000D02*
X182500D01*
X181500Y451000D02*
Y453000D01*
X277250Y470000D02*
X279250D01*
X278250Y469000D02*
Y471000D01*
X282750Y485250D02*
X284750D01*
X283750Y484250D02*
Y486250D01*
X217500Y530500D02*
X219500D01*
X218500Y529500D02*
Y531500D01*
X223500Y556000D02*
X225500D01*
X224500Y555000D02*
Y557000D01*
X223750Y563000D02*
X225750D01*
X224750Y562000D02*
Y564000D01*
X217250Y556250D02*
X219250D01*
X218250Y555250D02*
Y557250D01*
X307750Y549500D02*
X309750D01*
X308750Y548500D02*
Y550500D01*
X295250Y549500D02*
X297250D01*
X296250Y548500D02*
Y550500D01*
X294500Y541436D02*
X296500D01*
X295500Y540436D02*
Y542436D01*
X282250Y543250D02*
X284250D01*
X283250Y542250D02*
Y544250D01*
X276500Y536500D02*
X278500D01*
X277500Y535500D02*
Y537500D01*
X330250Y497000D02*
X332250D01*
X331250Y496000D02*
Y498000D01*
X353750Y487750D02*
X355750D01*
X354750Y486750D02*
Y488750D01*
X308738Y528012D02*
X310738D01*
X309738Y527012D02*
Y529012D01*
X209250Y524000D02*
X211250D01*
X210250Y523000D02*
Y525000D01*
X285420Y427080D02*
X287420D01*
X286420Y426080D02*
Y428080D01*
X178738Y501334D02*
X180738D01*
X179738Y500334D02*
Y502334D01*
X166758Y507275D02*
X168758D01*
X167758Y506275D02*
Y508275D01*
X222511Y543027D02*
X224511D01*
X223511Y542026D02*
Y544026D01*
X184750Y454500D02*
X186750D01*
X185750Y453500D02*
Y455500D01*
X177500Y494750D02*
X179500D01*
X178500Y493750D02*
Y495750D01*
X191500Y437500D02*
X193500D01*
X192500Y436500D02*
Y438500D01*
X185500Y418750D02*
X187500D01*
X186500Y417750D02*
Y419750D01*
X182750Y466500D02*
X184750D01*
X183750Y465500D02*
Y467500D01*
X303015Y481023D02*
X305015D01*
X304015Y480023D02*
Y482024D01*
X326300Y482750D02*
X328300D01*
X327300Y481750D02*
Y483750D01*
X323450Y590800D02*
X325450D01*
X324450Y589800D02*
Y591800D01*
X320250Y559750D02*
X322250D01*
X321250Y558750D02*
Y560750D01*
X319000Y545750D02*
X321000D01*
X320000Y544750D02*
Y546750D01*
X233250Y489750D02*
X235250D01*
X234250Y488750D02*
Y490750D01*
X236500Y498680D02*
X238500D01*
X237500Y497680D02*
Y499680D01*
X205250Y490000D02*
X207250D01*
X206250Y489000D02*
Y491000D01*
X213510Y485774D02*
X215511D01*
X214510Y484774D02*
Y486774D01*
X235762Y548777D02*
X237762D01*
X236762Y547777D02*
Y549777D01*
X229261Y535276D02*
X231261D01*
X230261Y534276D02*
Y536276D01*
X227702Y525564D02*
X229702D01*
X228702Y524564D02*
Y526564D01*
X230250Y517500D02*
X232250D01*
X231250Y516500D02*
Y518500D01*
X230000Y530000D02*
X232000D01*
X231000Y529000D02*
Y531000D01*
X244500Y476000D02*
X246500D01*
X245500Y475000D02*
Y477000D01*
X236500Y524000D02*
X238500D01*
X237500Y523000D02*
Y525000D01*
X239500Y486750D02*
X241500D01*
X240500Y485750D02*
Y487750D01*
X295264Y447772D02*
X297264D01*
X296264Y446772D02*
Y448772D01*
X220250Y486750D02*
X222250D01*
X221250Y485750D02*
Y487750D01*
X307750Y444000D02*
X309750D01*
X308750Y443000D02*
Y445000D01*
X200260Y468773D02*
X202260D01*
X201260Y467773D02*
Y469773D01*
X223500Y510750D02*
X225500D01*
X224500Y509750D02*
Y511750D01*
X223250Y504000D02*
X225250D01*
X224250Y503000D02*
Y505000D01*
X216750Y517000D02*
X218750D01*
X217750Y516000D02*
Y518000D01*
X178250Y550250D02*
X180250D01*
X179250Y549250D02*
Y551250D01*
X152580Y498170D02*
X154580D01*
X153580Y497170D02*
Y499170D01*
X149000Y486750D02*
X151000D01*
X150000Y485750D02*
Y487750D01*
X167250Y480250D02*
X169250D01*
X168250Y479250D02*
Y481250D01*
X152250Y510500D02*
X154250D01*
X153250Y509500D02*
Y511500D01*
X157000Y538000D02*
X159000D01*
X158000Y537000D02*
Y539000D01*
X209500Y497250D02*
X211500D01*
X210500Y496250D02*
Y498250D01*
X188250Y535750D02*
X190250D01*
X189250Y534750D02*
Y536750D01*
X201260Y560777D02*
X203260D01*
X202260Y559777D02*
Y561777D01*
X249250Y497250D02*
X251250D01*
X250250Y496250D02*
Y498250D01*
X269250Y472000D02*
X271250D01*
X270250Y471000D02*
Y473000D01*
X289000Y483000D02*
X291000D01*
X290000Y482000D02*
Y484000D01*
X288250Y491250D02*
X290250D01*
X289250Y490250D02*
Y492250D01*
X281750Y510750D02*
X283750D01*
X282750Y509750D02*
Y511750D01*
X275750Y523750D02*
X277750D01*
X276750Y522750D02*
Y524750D01*
X275250Y549750D02*
X277250D01*
X276250Y548750D02*
Y550750D01*
X262500Y521750D02*
X264500D01*
X263500Y520750D02*
Y522750D01*
X262500Y536500D02*
X264500D01*
X263500Y535500D02*
Y537500D01*
X262500Y549500D02*
X264500D01*
X263500Y548500D02*
Y550500D01*
X249500Y549500D02*
X251500D01*
X250500Y548500D02*
Y550500D01*
X249500Y536500D02*
X251500D01*
X250500Y535500D02*
Y537500D01*
X249500Y521750D02*
X251500D01*
X250500Y520750D02*
Y522750D01*
X249250Y569000D02*
X251250D01*
X250250Y568000D02*
Y570000D01*
X171250Y520750D02*
X173250D01*
X172250Y519750D02*
Y521750D01*
X178729Y555807D02*
X180729D01*
X179729Y554807D02*
Y556807D01*
X209500Y583500D02*
X211500D01*
X210500Y582500D02*
Y584500D01*
X166750Y512500D02*
X168750D01*
X167750Y511500D02*
Y513500D01*
X210250Y588750D02*
X212250D01*
X211250Y587750D02*
Y589750D01*
X152080Y523920D02*
X154080D01*
X153080Y522920D02*
Y524920D01*
X171750Y505750D02*
X173750D01*
X172750Y504750D02*
Y506750D01*
X313000Y587750D02*
X315000D01*
X314000Y586750D02*
Y588750D01*
X330250Y467000D02*
X332250D01*
X331250Y466000D02*
Y468000D01*
X307750Y486250D02*
X309750D01*
X308750Y485250D02*
Y487250D01*
X295250Y497250D02*
X297250D01*
X296250Y496250D02*
Y498250D01*
X307750Y497500D02*
X309750D01*
X308750Y496500D02*
Y498500D01*
X308250Y523250D02*
X310250D01*
X309250Y522250D02*
Y524250D01*
X262750Y569500D02*
X264750D01*
X263750Y568500D02*
Y570500D01*
X256250Y569250D02*
X258250D01*
X257250Y568250D02*
Y570250D01*
X210250Y556000D02*
X212250D01*
X211250Y555000D02*
Y557000D01*
X230000Y549250D02*
X232000D01*
X231000Y548250D02*
Y550250D01*
X235750Y472500D02*
X237750D01*
X236750Y471500D02*
Y473500D01*
X249250Y510500D02*
X251250D01*
X250250Y509500D02*
Y511500D01*
X269000Y510500D02*
X271000D01*
X270000Y509500D02*
Y511500D01*
X223537Y582213D02*
X225537D01*
X224537Y581213D02*
Y583213D01*
X229750Y582250D02*
X231750D01*
X230750Y581250D02*
Y583250D01*
X242750Y582250D02*
X244750D01*
X243750Y581250D02*
Y583250D01*
M02*
