G04*
G04 #@! TF.GenerationSoftware,Altium Limited,Altium Designer,18.0.9 (584)*
G04*
G04 Layer_Physical_Order=3*
G04 Layer_Color=12632256*
%FSLAX44Y44*%
%MOMM*%
G71*
G01*
G75*
%ADD68C,0.2540*%
G04:AMPARAMS|DCode=70|XSize=0.7mm|YSize=0.7mm|CornerRadius=0.35mm|HoleSize=0mm|Usage=FLASHONLY|Rotation=90.000|XOffset=0mm|YOffset=0mm|HoleType=Round|Shape=RoundedRectangle|*
%AMROUNDEDRECTD70*
21,1,0.7000,0.0000,0,0,90.0*
21,1,0.0000,0.7000,0,0,90.0*
1,1,0.7000,0.0000,0.0000*
1,1,0.7000,0.0000,0.0000*
1,1,0.7000,0.0000,0.0000*
1,1,0.7000,0.0000,0.0000*
%
%ADD70ROUNDEDRECTD70*%
%ADD71C,0.7600*%
%ADD72C,1.5240*%
%ADD73C,6.0000*%
%ADD74C,0.4000*%
G36*
X208564Y556653D02*
X208434Y556000D01*
X208648Y554922D01*
X209259Y554009D01*
X210051Y553479D01*
X210205Y553222D01*
X210422Y552054D01*
X163964Y505596D01*
X159651D01*
X159042Y506443D01*
X158893Y506866D01*
X159074Y507775D01*
X158971Y508291D01*
X180974Y530294D01*
X180974Y530294D01*
X181423Y530966D01*
X181581Y531759D01*
X181581Y531759D01*
Y548156D01*
X182111Y548949D01*
X182325Y550027D01*
X182111Y551105D01*
X181500Y552018D01*
X181352Y552117D01*
X181408Y553607D01*
X181600Y553735D01*
X202992D01*
X202992Y553735D01*
X203785Y553893D01*
X204457Y554342D01*
X207393Y557279D01*
X208564Y556653D01*
D02*
G37*
G36*
X293559Y550709D02*
X293621Y550440D01*
X293434Y549500D01*
X293571Y548810D01*
X292882Y547633D01*
X292766Y547540D01*
X291973Y547382D01*
X291301Y546933D01*
X291301Y546933D01*
X266067Y521699D01*
X265757Y521234D01*
X254197Y509675D01*
X253026Y510300D01*
X253066Y510500D01*
X252852Y511578D01*
X252241Y512491D01*
X251328Y513102D01*
X250250Y513316D01*
X249172Y513102D01*
X248259Y512491D01*
X247648Y511578D01*
X247434Y510500D01*
X247648Y509422D01*
X248259Y508509D01*
X248286Y508490D01*
X248447Y506855D01*
X244874Y503282D01*
X243604Y503808D01*
Y529707D01*
X243446Y530500D01*
X242997Y531172D01*
X242997Y531172D01*
X230704Y543465D01*
X230032Y543914D01*
X229239Y544072D01*
X229239Y544072D01*
X226119D01*
X226113Y544104D01*
X225502Y545018D01*
X224898Y545422D01*
X224519Y546838D01*
X226978Y549298D01*
X227069Y549294D01*
X228274Y548798D01*
X228398Y548172D01*
X229009Y547259D01*
X229922Y546648D01*
X231000Y546434D01*
X232078Y546648D01*
X232991Y547259D01*
X233602Y548172D01*
X233816Y549250D01*
X233679Y549940D01*
X234423Y551210D01*
X235565D01*
X235565Y551210D01*
X236357Y551368D01*
X236870Y551710D01*
X292878D01*
X293559Y550709D01*
D02*
G37*
G36*
X170730Y604220D02*
X170444Y602501D01*
X170177Y602323D01*
X169235Y600913D01*
X168904Y599250D01*
X169235Y597587D01*
X170177Y596177D01*
X171178Y595509D01*
Y594500D01*
X171178Y594500D01*
X171336Y593707D01*
X171785Y593035D01*
X177884Y586936D01*
X172567Y581619D01*
X172118Y580947D01*
X171960Y580154D01*
X171960Y580154D01*
Y561340D01*
X166285Y555665D01*
X165836Y554993D01*
X165678Y554200D01*
X165678Y554200D01*
Y550608D01*
X152392Y537322D01*
X129500D01*
X129500Y537322D01*
X128707Y537164D01*
X128035Y536715D01*
X128035Y536715D01*
X123437Y532117D01*
X122988Y531445D01*
X122830Y530652D01*
X122830Y530652D01*
Y517830D01*
X122830Y517830D01*
X122988Y517037D01*
X123437Y516365D01*
X125740Y514062D01*
X125804Y513739D01*
X126253Y513067D01*
X128079Y511241D01*
X128086Y511207D01*
X128535Y510535D01*
X129115Y510148D01*
X129155Y509947D01*
X129765Y509034D01*
X130679Y508423D01*
X131756Y508209D01*
X132834Y508423D01*
X133748Y509034D01*
X134358Y509947D01*
X134572Y511025D01*
X134358Y512103D01*
X133748Y513016D01*
X132834Y513627D01*
X131756Y513841D01*
X131408Y513772D01*
X129697Y515483D01*
X129686Y515538D01*
X130012Y516898D01*
X130221Y517038D01*
X130805Y517428D01*
X146270D01*
X148577Y515121D01*
X148577Y515121D01*
X149249Y514672D01*
X150042Y514514D01*
X150042Y514514D01*
X156118D01*
X156118Y514514D01*
X156911Y514672D01*
X157583Y515121D01*
X175402Y532940D01*
X176774Y532516D01*
X176863Y532043D01*
X155201Y510381D01*
X155180Y510377D01*
X154266Y509766D01*
X153656Y508852D01*
X153441Y507775D01*
X153622Y506866D01*
X153473Y506443D01*
X152864Y505596D01*
X133377D01*
X132584Y506126D01*
X131506Y506341D01*
X130429Y506126D01*
X129515Y505516D01*
X128905Y504602D01*
X128690Y503525D01*
X128905Y502447D01*
X129515Y501533D01*
X130429Y500923D01*
X131506Y500709D01*
X132584Y500923D01*
X133377Y501453D01*
X164674D01*
X164798Y501428D01*
X165591Y501586D01*
X166263Y502035D01*
X168943Y504715D01*
X170368Y504344D01*
X170759Y503759D01*
X171344Y503368D01*
X171716Y501943D01*
X167344Y497572D01*
X133687D01*
X132894Y498102D01*
X131816Y498316D01*
X130738Y498102D01*
X129825Y497491D01*
X129214Y496577D01*
X129000Y495500D01*
X129214Y494422D01*
X129825Y493509D01*
X130738Y492898D01*
X131816Y492684D01*
X132894Y492898D01*
X133687Y493428D01*
X168202D01*
X168202Y493428D01*
X168995Y493586D01*
X169667Y494035D01*
X178247Y502615D01*
X178247Y502615D01*
X178696Y503287D01*
X178854Y504080D01*
X178854Y504080D01*
Y507424D01*
X215158Y543728D01*
X216428Y543202D01*
Y532371D01*
X215898Y531578D01*
X215684Y530500D01*
X215898Y529422D01*
X216509Y528509D01*
X217422Y527898D01*
X218500Y527684D01*
X219578Y527898D01*
X220491Y528509D01*
X221102Y529422D01*
X221316Y530500D01*
X221102Y531578D01*
X220572Y532371D01*
Y540257D01*
X220762Y540413D01*
X221842Y540820D01*
X222433Y540425D01*
X223511Y540210D01*
X223547Y540218D01*
X223745Y540086D01*
X224537Y539928D01*
X224538Y539928D01*
X228381D01*
X229227Y539083D01*
X228855Y537658D01*
X228270Y537267D01*
X227659Y536354D01*
X227445Y535276D01*
X227659Y534198D01*
X228270Y533285D01*
X229184Y532674D01*
X230261Y532460D01*
X231339Y532674D01*
X232253Y533285D01*
X232644Y533870D01*
X234068Y534242D01*
X239460Y528849D01*
Y527423D01*
X238190Y526679D01*
X237500Y526816D01*
X236422Y526602D01*
X235509Y525991D01*
X234898Y525078D01*
X234684Y524000D01*
X234898Y522922D01*
X235428Y522129D01*
Y514736D01*
X227334Y506642D01*
X226575Y506190D01*
X225962Y506354D01*
X225390Y507422D01*
X225425Y507877D01*
X225578Y508148D01*
X226491Y508759D01*
X227102Y509672D01*
X227316Y510750D01*
X227102Y511828D01*
X226491Y512741D01*
X225578Y513352D01*
X224500Y513566D01*
X223422Y513352D01*
X222509Y512741D01*
X221898Y511828D01*
X221712Y510892D01*
X213067Y502247D01*
X212618Y501575D01*
X212460Y500782D01*
X212460Y500782D01*
Y496438D01*
X211303Y495281D01*
X210553Y495132D01*
X209881Y494683D01*
X207611Y492413D01*
X207328Y492602D01*
X206250Y492816D01*
X205172Y492602D01*
X204259Y491991D01*
X203648Y491078D01*
X203434Y490000D01*
X203648Y488922D01*
X204259Y488009D01*
X205172Y487398D01*
X206250Y487184D01*
X207137Y487360D01*
X207714Y487109D01*
X208407Y486592D01*
Y484104D01*
X208407Y484104D01*
X208564Y483311D01*
X209014Y482639D01*
X211375Y480277D01*
X212048Y479828D01*
X212840Y479670D01*
X212840Y479670D01*
X213804D01*
X215447Y478027D01*
X215427Y477823D01*
X214485Y476413D01*
X214154Y474750D01*
X214485Y473087D01*
X215427Y471678D01*
X216837Y470736D01*
X218500Y470405D01*
X220163Y470736D01*
X221573Y471678D01*
X222515Y473087D01*
X222638Y473709D01*
X224016Y474127D01*
X227344Y470799D01*
Y469462D01*
X227344Y469462D01*
X227502Y468669D01*
X227951Y467997D01*
X253673Y442275D01*
X254345Y441826D01*
X255138Y441668D01*
X255138Y441668D01*
X307269D01*
X307672Y441398D01*
X308750Y441184D01*
X309828Y441398D01*
X310741Y442009D01*
X311352Y442922D01*
X311566Y444000D01*
X311352Y445078D01*
X310741Y445991D01*
X309828Y446602D01*
X308750Y446816D01*
X307672Y446602D01*
X306759Y445991D01*
X306639Y445812D01*
X299688D01*
X298943Y447082D01*
X299081Y447772D01*
X298866Y448849D01*
X298256Y449763D01*
X297342Y450374D01*
X296264Y450588D01*
X296210Y450577D01*
X296079Y450664D01*
X295286Y450822D01*
X295286Y450822D01*
X255656D01*
X237785Y468693D01*
X238156Y470118D01*
X238741Y470509D01*
X239352Y471422D01*
X239566Y472500D01*
X239352Y473578D01*
X238741Y474491D01*
X237828Y475102D01*
X236750Y475316D01*
X236060Y475179D01*
X235529Y475222D01*
X234657Y475951D01*
X234632Y476075D01*
X234183Y476747D01*
X234183Y476747D01*
X224038Y486892D01*
X223852Y487828D01*
X223241Y488741D01*
X222328Y489352D01*
X221250Y489566D01*
X220172Y489352D01*
X219259Y488741D01*
X218648Y487828D01*
X218536Y487263D01*
X217234Y486770D01*
X217032Y486972D01*
X216502Y487765D01*
X216269Y487921D01*
X216035Y489483D01*
X224448Y497896D01*
X225920D01*
X225920Y497896D01*
X226713Y498054D01*
X227385Y498503D01*
X229747Y500865D01*
X230196Y501537D01*
X230354Y502330D01*
X230354Y502330D01*
Y503802D01*
X238190Y511638D01*
X239460Y511112D01*
Y503570D01*
X237358Y501468D01*
X236422Y501282D01*
X235509Y500671D01*
X234898Y499757D01*
X234684Y498680D01*
X234898Y497602D01*
X235509Y496688D01*
X236094Y496298D01*
X236465Y494873D01*
X234136Y492543D01*
X233172Y492352D01*
X232259Y491741D01*
X231648Y490828D01*
X231434Y489750D01*
X231648Y488672D01*
X232259Y487759D01*
X233172Y487148D01*
X234250Y486934D01*
X235328Y487148D01*
X236241Y487759D01*
X236852Y488672D01*
X237032Y489580D01*
X251848Y504396D01*
X253920D01*
X253920Y504396D01*
X254713Y504554D01*
X255385Y505003D01*
X268997Y518615D01*
X268997Y518615D01*
X269307Y519079D01*
X291444Y541216D01*
X292813Y540789D01*
X292898Y540358D01*
X293509Y539445D01*
X294422Y538834D01*
X295500Y538620D01*
X296578Y538834D01*
X297491Y539445D01*
X298102Y540358D01*
X298316Y541436D01*
X298179Y542126D01*
X298923Y543396D01*
X310420D01*
X310420Y543396D01*
X311213Y543554D01*
X311399Y543678D01*
X318129D01*
X318922Y543148D01*
X320000Y542934D01*
X321078Y543148D01*
X321991Y543759D01*
X322382Y544344D01*
X323807Y544715D01*
X328461Y540061D01*
X328461Y540061D01*
X329133Y539612D01*
X329926Y539455D01*
X329926Y539455D01*
X351146D01*
X351940Y538925D01*
X353017Y538710D01*
X354095Y538925D01*
X355009Y539535D01*
X355619Y540449D01*
X355833Y541526D01*
X355619Y542604D01*
X355009Y543518D01*
X354095Y544128D01*
X353017Y544342D01*
X351940Y544128D01*
X351146Y543598D01*
X330784D01*
X323135Y551247D01*
X322463Y551696D01*
X321670Y551854D01*
X321670Y551854D01*
X315028D01*
X311635Y555247D01*
X310963Y555696D01*
X310170Y555854D01*
X310170Y555854D01*
X236065D01*
X235272Y555696D01*
X234760Y555354D01*
X228482D01*
X227735Y555768D01*
X227219Y556487D01*
X227102Y557078D01*
X226491Y557991D01*
X225578Y558602D01*
X225562Y559900D01*
X225828Y560398D01*
X226741Y561009D01*
X227352Y561922D01*
X227566Y563000D01*
X227352Y564078D01*
X226741Y564991D01*
X225828Y565602D01*
X224750Y565816D01*
X223672Y565602D01*
X222759Y564991D01*
X222148Y564078D01*
X221962Y563142D01*
X221174Y562354D01*
X207467D01*
X206674Y562196D01*
X206002Y561747D01*
X206001Y561747D01*
X202134Y557879D01*
X181600D01*
X180807Y558409D01*
X180570Y558456D01*
X179634Y558985D01*
X179406Y559854D01*
Y577928D01*
X182906Y581428D01*
X208629D01*
X209422Y580898D01*
X210500Y580684D01*
X211578Y580898D01*
X212371Y581428D01*
X214500D01*
X214500Y581428D01*
X215293Y581586D01*
X215965Y582035D01*
X223640Y589710D01*
X310577D01*
X311321Y588440D01*
X311184Y587750D01*
X311398Y586672D01*
X312009Y585759D01*
X312922Y585148D01*
X314000Y584934D01*
X315078Y585148D01*
X315991Y585759D01*
X316602Y586672D01*
X316816Y587750D01*
X316753Y588069D01*
X317923Y588695D01*
X321315Y585303D01*
X321315Y585303D01*
X321987Y584854D01*
X322780Y584696D01*
X335599D01*
X335599Y584696D01*
X336392Y584854D01*
X337064Y585303D01*
X343747Y591986D01*
X343747Y591986D01*
X344196Y592658D01*
X344354Y593451D01*
Y595329D01*
X344750Y595654D01*
X346413Y595985D01*
X347823Y596927D01*
X348765Y598337D01*
X349095Y600000D01*
X348765Y601663D01*
X348171Y602551D01*
X348814Y603821D01*
X405634D01*
Y408500D01*
X108366D01*
Y547275D01*
X109636Y547954D01*
X110337Y547486D01*
X112000Y547155D01*
X113663Y547486D01*
X115073Y548428D01*
X116015Y549837D01*
X116345Y551500D01*
X116015Y553163D01*
X115073Y554573D01*
X113663Y555515D01*
X112000Y555846D01*
X110337Y555515D01*
X109636Y555046D01*
X108366Y555725D01*
Y604446D01*
X170556D01*
X170730Y604220D01*
D02*
G37*
%LPC*%
G36*
X230750Y585066D02*
X229672Y584852D01*
X228759Y584241D01*
X228337Y583610D01*
X228039Y583531D01*
X227317Y583520D01*
X226926Y583610D01*
X226528Y584205D01*
X225614Y584815D01*
X224537Y585029D01*
X223459Y584815D01*
X222545Y584205D01*
X221935Y583291D01*
X221721Y582213D01*
X221935Y581136D01*
X222545Y580222D01*
X223459Y579612D01*
X224537Y579397D01*
X225614Y579612D01*
X226528Y580222D01*
X226950Y580854D01*
X227248Y580933D01*
X227970Y580944D01*
X228361Y580854D01*
X228759Y580259D01*
X229672Y579648D01*
X230750Y579434D01*
X231828Y579648D01*
X232741Y580259D01*
X233352Y581172D01*
X233566Y582250D01*
X233352Y583328D01*
X232741Y584241D01*
X231828Y584852D01*
X230750Y585066D01*
D02*
G37*
G36*
X308428Y585388D02*
X307350Y585174D01*
X306437Y584563D01*
X305826Y583650D01*
X305612Y582572D01*
X305826Y581494D01*
X306437Y580581D01*
X307350Y579970D01*
X308428Y579756D01*
X309506Y579970D01*
X310419Y580581D01*
X311030Y581494D01*
X311244Y582572D01*
X311030Y583650D01*
X310419Y584563D01*
X309506Y585174D01*
X308428Y585388D01*
D02*
G37*
G36*
X243750Y585066D02*
X242672Y584852D01*
X241759Y584241D01*
X241148Y583328D01*
X240934Y582250D01*
X241148Y581172D01*
X241759Y580259D01*
X242672Y579648D01*
X243750Y579434D01*
X244828Y579648D01*
X245741Y580259D01*
X246352Y581172D01*
X246566Y582250D01*
X246352Y583328D01*
X245741Y584241D01*
X244828Y584852D01*
X243750Y585066D01*
D02*
G37*
G36*
X308265Y578344D02*
X307187Y578130D01*
X306274Y577519D01*
X305663Y576606D01*
X305449Y575528D01*
X305663Y574450D01*
X306274Y573537D01*
X307187Y572926D01*
X308265Y572712D01*
X309343Y572926D01*
X310256Y573537D01*
X310867Y574450D01*
X311081Y575528D01*
X310867Y576606D01*
X310256Y577519D01*
X309343Y578130D01*
X308265Y578344D01*
D02*
G37*
G36*
X263750Y572316D02*
X262672Y572102D01*
X261759Y571491D01*
X261148Y570578D01*
X261123Y570449D01*
X260060Y570348D01*
X259815Y570383D01*
X259241Y571241D01*
X258328Y571852D01*
X257250Y572066D01*
X256172Y571852D01*
X255259Y571241D01*
X254648Y570328D01*
X254434Y569250D01*
X254648Y568172D01*
X255259Y567259D01*
X256172Y566648D01*
X257250Y566434D01*
X258328Y566648D01*
X259241Y567259D01*
X259852Y568172D01*
X259877Y568301D01*
X260940Y568402D01*
X261185Y568367D01*
X261759Y567509D01*
X262672Y566898D01*
X263750Y566684D01*
X264828Y566898D01*
X265741Y567509D01*
X266352Y568422D01*
X266566Y569500D01*
X266352Y570578D01*
X265741Y571491D01*
X264828Y572102D01*
X263750Y572316D01*
D02*
G37*
G36*
X308750Y571316D02*
X307672Y571102D01*
X306759Y570491D01*
X306148Y569578D01*
X305934Y568500D01*
X306148Y567422D01*
X306759Y566509D01*
X307672Y565898D01*
X308750Y565684D01*
X309828Y565898D01*
X310741Y566509D01*
X311352Y567422D01*
X311566Y568500D01*
X311352Y569578D01*
X310741Y570491D01*
X309828Y571102D01*
X308750Y571316D01*
D02*
G37*
G36*
X339762Y557802D02*
X338684Y557588D01*
X337771Y556977D01*
X337160Y556064D01*
X336946Y554986D01*
X337160Y553908D01*
X337771Y552995D01*
X338684Y552384D01*
X339762Y552170D01*
X340276Y551656D01*
X340201Y551277D01*
X340415Y550199D01*
X341026Y549286D01*
X341939Y548675D01*
X343017Y548461D01*
X344094Y548675D01*
X345008Y549286D01*
X345619Y550199D01*
X345833Y551277D01*
X345619Y552355D01*
X345008Y553268D01*
X344094Y553879D01*
X343017Y554093D01*
X342503Y554607D01*
X342578Y554986D01*
X342364Y556064D01*
X341753Y556977D01*
X340840Y557588D01*
X339762Y557802D01*
D02*
G37*
G36*
X228702Y528380D02*
X227624Y528166D01*
X226710Y527555D01*
X226100Y526642D01*
X225886Y525564D01*
X226100Y524486D01*
X226710Y523573D01*
X227624Y522962D01*
X228702Y522748D01*
X229779Y522962D01*
X230693Y523573D01*
X231303Y524486D01*
X231518Y525564D01*
X231303Y526642D01*
X230693Y527555D01*
X229779Y528166D01*
X228702Y528380D01*
D02*
G37*
G36*
X210250Y526816D02*
X209172Y526602D01*
X208259Y525991D01*
X207648Y525078D01*
X207434Y524000D01*
X207648Y522922D01*
X208259Y522009D01*
X209172Y521398D01*
X210250Y521184D01*
X211328Y521398D01*
X212241Y522009D01*
X212852Y522922D01*
X213066Y524000D01*
X212852Y525078D01*
X212241Y525991D01*
X211328Y526602D01*
X210250Y526816D01*
D02*
G37*
G36*
X309250Y526066D02*
X308172Y525852D01*
X307259Y525241D01*
X306648Y524328D01*
X306434Y523250D01*
X306648Y522172D01*
X307259Y521259D01*
X308172Y520648D01*
X309250Y520434D01*
X310328Y520648D01*
X311241Y521259D01*
X311852Y522172D01*
X312066Y523250D01*
X311852Y524328D01*
X311241Y525241D01*
X310328Y525852D01*
X309250Y526066D01*
D02*
G37*
G36*
X217750Y519816D02*
X216672Y519602D01*
X215759Y518991D01*
X215148Y518078D01*
X214934Y517000D01*
X215148Y515922D01*
X215759Y515009D01*
X216672Y514398D01*
X217750Y514184D01*
X218828Y514398D01*
X219741Y515009D01*
X220352Y515922D01*
X220566Y517000D01*
X220352Y518078D01*
X219741Y518991D01*
X218828Y519602D01*
X217750Y519816D01*
D02*
G37*
G36*
X363889Y524316D02*
X362811Y524102D01*
X361898Y523491D01*
X361287Y522578D01*
X361073Y521500D01*
X361287Y520422D01*
X361898Y519509D01*
X362811Y518898D01*
X362827Y518895D01*
Y517600D01*
X362728Y517581D01*
X361815Y516970D01*
X361204Y516057D01*
X360990Y514979D01*
X361204Y513901D01*
X361815Y512988D01*
X362728Y512377D01*
X363806Y512163D01*
X364884Y512377D01*
X365797Y512988D01*
X366408Y513901D01*
X366622Y514979D01*
X366408Y516057D01*
X365797Y516970D01*
X364884Y517581D01*
X364868Y517584D01*
Y518879D01*
X364967Y518898D01*
X365880Y519509D01*
X366491Y520422D01*
X366705Y521500D01*
X366491Y522578D01*
X365880Y523491D01*
X364967Y524102D01*
X363889Y524316D01*
D02*
G37*
G36*
X270000Y513316D02*
X268922Y513102D01*
X268009Y512491D01*
X267398Y511578D01*
X267184Y510500D01*
X267398Y509422D01*
X268009Y508509D01*
X268922Y507898D01*
X270000Y507684D01*
X271078Y507898D01*
X271991Y508509D01*
X272602Y509422D01*
X272816Y510500D01*
X272602Y511578D01*
X271991Y512491D01*
X271078Y513102D01*
X270000Y513316D01*
D02*
G37*
G36*
X361268Y511091D02*
X360190Y510877D01*
X359276Y510266D01*
X358666Y509352D01*
X358451Y508275D01*
X358666Y507197D01*
X359276Y506283D01*
X360190Y505673D01*
X361268Y505459D01*
X362345Y505673D01*
X363259Y506283D01*
X363869Y507197D01*
X364084Y508275D01*
X363869Y509352D01*
X363259Y510266D01*
X362345Y510877D01*
X361268Y511091D01*
D02*
G37*
G36*
X308750Y500316D02*
X307672Y500102D01*
X306759Y499491D01*
X306148Y498578D01*
X305934Y497500D01*
X306148Y496422D01*
X306759Y495509D01*
X307672Y494898D01*
X308750Y494684D01*
X309828Y494898D01*
X310741Y495509D01*
X311352Y496422D01*
X311566Y497500D01*
X311352Y498578D01*
X310741Y499491D01*
X309828Y500102D01*
X308750Y500316D01*
D02*
G37*
G36*
X296250Y500066D02*
X295172Y499852D01*
X294259Y499241D01*
X293648Y498328D01*
X293434Y497250D01*
X293648Y496172D01*
X294259Y495259D01*
X295172Y494648D01*
X296250Y494434D01*
X297328Y494648D01*
X298241Y495259D01*
X298852Y496172D01*
X299066Y497250D01*
X298852Y498328D01*
X298241Y499241D01*
X297328Y499852D01*
X296250Y500066D01*
D02*
G37*
G36*
X331250Y499816D02*
X330172Y499602D01*
X329259Y498991D01*
X328648Y498078D01*
X328434Y497000D01*
X328648Y495922D01*
X329259Y495009D01*
X330172Y494398D01*
X331250Y494184D01*
X332328Y494398D01*
X333241Y495009D01*
X333852Y495922D01*
X334066Y497000D01*
X333852Y498078D01*
X333241Y498991D01*
X332328Y499602D01*
X331250Y499816D01*
D02*
G37*
G36*
X119000Y492316D02*
X117922Y492102D01*
X117009Y491491D01*
X116398Y490578D01*
X116184Y489500D01*
X116398Y488422D01*
X117009Y487509D01*
X117922Y486898D01*
X119000Y486684D01*
X120078Y486898D01*
X120991Y487509D01*
X121602Y488422D01*
X121816Y489500D01*
X121602Y490578D01*
X120991Y491491D01*
X120078Y492102D01*
X119000Y492316D01*
D02*
G37*
G36*
X354750Y490566D02*
X353672Y490352D01*
X352759Y489741D01*
X352148Y488828D01*
X351934Y487750D01*
X352148Y486672D01*
X352759Y485759D01*
X353672Y485148D01*
X354750Y484934D01*
X355828Y485148D01*
X356741Y485759D01*
X357352Y486672D01*
X357566Y487750D01*
X357352Y488828D01*
X356741Y489741D01*
X355828Y490352D01*
X354750Y490566D01*
D02*
G37*
G36*
X149250Y490066D02*
X148172Y489852D01*
X147259Y489241D01*
X146648Y488328D01*
X146434Y487250D01*
X146648Y486172D01*
X147259Y485259D01*
X148172Y484648D01*
X149250Y484434D01*
X150328Y484648D01*
X151241Y485259D01*
X151852Y486172D01*
X152066Y487250D01*
X151852Y488328D01*
X151241Y489241D01*
X150328Y489852D01*
X149250Y490066D01*
D02*
G37*
G36*
X240500Y489566D02*
X239422Y489352D01*
X238509Y488741D01*
X237898Y487828D01*
X237684Y486750D01*
X237898Y485672D01*
X238509Y484759D01*
X239422Y484148D01*
X240500Y483934D01*
X241578Y484148D01*
X242491Y484759D01*
X243102Y485672D01*
X243316Y486750D01*
X243102Y487828D01*
X242491Y488741D01*
X241578Y489352D01*
X240500Y489566D01*
D02*
G37*
G36*
X308750Y489066D02*
X307672Y488852D01*
X306759Y488241D01*
X306148Y487328D01*
X305934Y486250D01*
X306148Y485172D01*
X306759Y484259D01*
X307672Y483648D01*
X308750Y483434D01*
X309828Y483648D01*
X310741Y484259D01*
X311352Y485172D01*
X311566Y486250D01*
X311352Y487328D01*
X310741Y488241D01*
X309828Y488852D01*
X308750Y489066D01*
D02*
G37*
G36*
X283750Y488066D02*
X282672Y487852D01*
X281759Y487241D01*
X281148Y486328D01*
X280934Y485250D01*
X281148Y484172D01*
X281759Y483259D01*
X282672Y482648D01*
X283750Y482434D01*
X284828Y482648D01*
X285741Y483259D01*
X286352Y484172D01*
X286566Y485250D01*
X286352Y486328D01*
X285741Y487241D01*
X284828Y487852D01*
X283750Y488066D01*
D02*
G37*
G36*
X304015Y483840D02*
X302937Y483625D01*
X302024Y483015D01*
X301413Y482101D01*
X301199Y481023D01*
X301413Y479946D01*
X302024Y479032D01*
X302937Y478422D01*
X304015Y478207D01*
X305093Y478422D01*
X306006Y479032D01*
X306617Y479946D01*
X306831Y481023D01*
X306617Y482101D01*
X306006Y483015D01*
X305093Y483625D01*
X304015Y483840D01*
D02*
G37*
G36*
X131684Y483566D02*
X130606Y483352D01*
X129693Y482741D01*
X129082Y481828D01*
X128868Y480750D01*
X129082Y479672D01*
X129693Y478759D01*
X130606Y478148D01*
X131684Y477934D01*
X132762Y478148D01*
X133675Y478759D01*
X134286Y479672D01*
X134500Y480750D01*
X134286Y481828D01*
X133675Y482741D01*
X132762Y483352D01*
X131684Y483566D01*
D02*
G37*
G36*
X168250Y483066D02*
X167172Y482852D01*
X166259Y482241D01*
X165648Y481328D01*
X165434Y480250D01*
X165648Y479172D01*
X166259Y478259D01*
X167172Y477648D01*
X168250Y477434D01*
X169328Y477648D01*
X170241Y478259D01*
X170852Y479172D01*
X171066Y480250D01*
X170852Y481328D01*
X170241Y482241D01*
X169328Y482852D01*
X168250Y483066D01*
D02*
G37*
G36*
X157020Y478336D02*
X155942Y478121D01*
X155028Y477511D01*
X154418Y476597D01*
X154204Y475520D01*
X154418Y474442D01*
X155028Y473528D01*
X155942Y472918D01*
X157020Y472704D01*
X158097Y472918D01*
X159011Y473528D01*
X159621Y474442D01*
X159836Y475520D01*
X159621Y476597D01*
X159011Y477511D01*
X158097Y478121D01*
X157020Y478336D01*
D02*
G37*
G36*
X284500Y478596D02*
X282837Y478265D01*
X281427Y477323D01*
X280485Y475913D01*
X280154Y474250D01*
X280309Y473474D01*
X279760Y472986D01*
X279182Y472631D01*
X278250Y472816D01*
X277172Y472602D01*
X276259Y471991D01*
X275648Y471078D01*
X275434Y470000D01*
X275648Y468922D01*
X276259Y468009D01*
X277172Y467398D01*
X278250Y467184D01*
X279328Y467398D01*
X280241Y468009D01*
X280852Y468922D01*
X281066Y470000D01*
X282234Y470638D01*
X282837Y470235D01*
X284500Y469905D01*
X286163Y470235D01*
X287573Y471177D01*
X288515Y472587D01*
X288845Y474250D01*
X288515Y475913D01*
X287573Y477323D01*
X286163Y478265D01*
X284500Y478596D01*
D02*
G37*
G36*
X344482Y508628D02*
X343404Y508414D01*
X342491Y507803D01*
X341880Y506890D01*
X341666Y505812D01*
X341880Y504734D01*
X342410Y503941D01*
Y470863D01*
X341299Y470152D01*
X341140Y470136D01*
X340450Y470274D01*
X339657Y470116D01*
X338985Y469667D01*
X338318Y469000D01*
X337689Y468875D01*
X336775Y468264D01*
X336165Y467350D01*
X336040Y466721D01*
X335201Y465883D01*
X334752Y465211D01*
X334594Y464418D01*
X334594Y464418D01*
Y461274D01*
X313142Y439822D01*
X301000D01*
X300207Y439664D01*
X299535Y439215D01*
X299535Y439215D01*
X294773Y434453D01*
X294324Y433781D01*
X294166Y432988D01*
X294166Y432988D01*
Y428561D01*
X293636Y427768D01*
X293422Y426690D01*
X293636Y425612D01*
X294247Y424699D01*
X294832Y424308D01*
X295203Y422883D01*
X290050Y417730D01*
X279295D01*
X278880Y419000D01*
X286152Y424317D01*
X286420Y424264D01*
X287498Y424478D01*
X288411Y425089D01*
X289022Y426002D01*
X289236Y427080D01*
X289022Y428158D01*
X288411Y429071D01*
X287498Y429682D01*
X286420Y429896D01*
X285342Y429682D01*
X284429Y429071D01*
X283818Y428158D01*
X283722Y427674D01*
X275511Y421670D01*
X230542D01*
X230299Y421913D01*
X230113Y422848D01*
X229502Y423762D01*
X228589Y424372D01*
X227511Y424587D01*
X226433Y424372D01*
X225520Y423762D01*
X224909Y422848D01*
X224695Y421771D01*
X223629Y420620D01*
X223349Y420582D01*
X218038Y425892D01*
X217852Y426828D01*
X217241Y427741D01*
X217225Y427752D01*
X217197Y427833D01*
X217312Y429222D01*
X217741Y429509D01*
X218352Y430422D01*
X218566Y431500D01*
X218352Y432578D01*
X217741Y433491D01*
X216828Y434102D01*
X215750Y434316D01*
X214672Y434102D01*
X213879Y433572D01*
X209608D01*
X200827Y442353D01*
X200827Y442740D01*
X201127Y443849D01*
X201741Y444259D01*
X202352Y445172D01*
X202566Y446250D01*
X202352Y447328D01*
X201741Y448241D01*
X200828Y448852D01*
X199750Y449066D01*
X198672Y448852D01*
X197759Y448241D01*
X197349Y447627D01*
X196240Y447327D01*
X195853Y447327D01*
X195038Y448142D01*
X194852Y449078D01*
X194322Y449871D01*
Y468000D01*
X194322Y468000D01*
X194164Y468793D01*
X193715Y469465D01*
X180572Y482608D01*
Y492879D01*
X181102Y493672D01*
X181316Y494750D01*
X181102Y495828D01*
X180491Y496741D01*
X179578Y497352D01*
X178500Y497566D01*
X177422Y497352D01*
X176509Y496741D01*
X175898Y495828D01*
X175684Y494750D01*
X175898Y493672D01*
X176428Y492879D01*
Y481750D01*
X176428Y481750D01*
X176586Y480957D01*
X177035Y480285D01*
X190178Y467142D01*
Y449871D01*
X189648Y449078D01*
X189434Y448000D01*
X189648Y446922D01*
X190259Y446009D01*
X191172Y445398D01*
X192108Y445212D01*
X207285Y430035D01*
X207285Y430035D01*
X207832Y429669D01*
X207957Y429586D01*
X208039Y429528D01*
X207914Y428318D01*
X207682Y428271D01*
X206933Y428122D01*
X206139Y427593D01*
X201087D01*
X185822Y442858D01*
Y464629D01*
X186352Y465422D01*
X186566Y466500D01*
X186352Y467578D01*
X185741Y468491D01*
X184828Y469102D01*
X183750Y469316D01*
X182672Y469102D01*
X181759Y468491D01*
X181148Y467578D01*
X180934Y466500D01*
X181148Y465422D01*
X181678Y464629D01*
Y444526D01*
X180408Y443898D01*
X179822Y444345D01*
Y454082D01*
X179822Y454082D01*
X179664Y454875D01*
X179215Y455547D01*
X179215Y455547D01*
X170656Y464106D01*
X170470Y465042D01*
X169860Y465955D01*
X168946Y466566D01*
X167868Y466780D01*
X166791Y466566D01*
X165877Y465955D01*
X165266Y465042D01*
X165052Y463964D01*
X165266Y462886D01*
X165877Y461973D01*
X166791Y461362D01*
X167726Y461176D01*
X175678Y453224D01*
Y443000D01*
X175678Y443000D01*
X175836Y442207D01*
X176285Y441535D01*
X178633Y439187D01*
X178633Y439187D01*
X179085Y438885D01*
X184135Y433835D01*
X184428Y433396D01*
Y420621D01*
X183898Y419828D01*
X183684Y418750D01*
X183898Y417672D01*
X184509Y416759D01*
X185422Y416148D01*
X186500Y415934D01*
X187578Y416148D01*
X188491Y416759D01*
X189102Y417672D01*
X189316Y418750D01*
X189102Y419828D01*
X188572Y420621D01*
Y432589D01*
X189745Y433075D01*
X198764Y424056D01*
X198764Y424056D01*
X199436Y423607D01*
X200229Y423449D01*
X206139D01*
X206933Y422919D01*
X208010Y422705D01*
X209088Y422919D01*
X210001Y423530D01*
X210612Y424443D01*
X210826Y425521D01*
X210612Y426598D01*
X210001Y427512D01*
X209187Y428056D01*
X209088Y428123D01*
X208917Y428242D01*
X209034Y429428D01*
X209355Y429428D01*
X212877D01*
X213099Y429108D01*
X213259Y427741D01*
X212648Y426828D01*
X212434Y425750D01*
X212648Y424672D01*
X213259Y423759D01*
X214172Y423148D01*
X215108Y422962D01*
X223877Y414193D01*
X223877Y414193D01*
X224549Y413744D01*
X225342Y413586D01*
X225342Y413586D01*
X290908D01*
X290908Y413586D01*
X291701Y413744D01*
X292373Y414193D01*
X302392Y424212D01*
X303328Y424398D01*
X304241Y425009D01*
X304852Y425922D01*
X305066Y427000D01*
X304852Y428078D01*
X304241Y428991D01*
X303328Y429602D01*
X302250Y429816D01*
X301172Y429602D01*
X300259Y428991D01*
X298814Y429009D01*
X298310Y429439D01*
Y432130D01*
X301858Y435678D01*
X314000D01*
X314000Y435678D01*
X314793Y435836D01*
X315465Y436285D01*
X336723Y457543D01*
X337896Y457057D01*
Y455076D01*
X311608Y428788D01*
X310672Y428602D01*
X309759Y427991D01*
X309148Y427078D01*
X308934Y426000D01*
X309148Y424922D01*
X309759Y424009D01*
X310672Y423398D01*
X311750Y423184D01*
X312828Y423398D01*
X313741Y424009D01*
X314352Y424922D01*
X314538Y425858D01*
X341433Y452753D01*
X341882Y453425D01*
X342040Y454218D01*
X342040Y454218D01*
Y460914D01*
X345947Y464821D01*
X345947Y464821D01*
X346396Y465493D01*
X346554Y466286D01*
X346554Y466286D01*
Y503941D01*
X347084Y504734D01*
X347298Y505812D01*
X347084Y506890D01*
X346473Y507803D01*
X345560Y508414D01*
X344482Y508628D01*
D02*
G37*
G36*
X330516Y469089D02*
X329439Y468875D01*
X328525Y468264D01*
X327914Y467350D01*
X327700Y466273D01*
X327914Y465195D01*
X328525Y464282D01*
X329439Y463671D01*
X330516Y463457D01*
X331594Y463671D01*
X332507Y464282D01*
X333118Y465195D01*
X333332Y466273D01*
X333118Y467350D01*
X332507Y468264D01*
X331594Y468875D01*
X330516Y469089D01*
D02*
G37*
G36*
X279500Y438316D02*
X278422Y438102D01*
X277509Y437491D01*
X276898Y436578D01*
X276684Y435500D01*
X276898Y434422D01*
X277509Y433509D01*
X278422Y432898D01*
X279500Y432684D01*
X280578Y432898D01*
X281491Y433509D01*
X282102Y434422D01*
X282316Y435500D01*
X282102Y436578D01*
X281491Y437491D01*
X280578Y438102D01*
X279500Y438316D01*
D02*
G37*
%LPD*%
D68*
X342282Y593451D02*
Y600000D01*
X344750D01*
X335599Y586768D02*
X342282Y593451D01*
X322780Y586768D02*
X335599D01*
X317766Y591782D02*
X322780Y586768D01*
X222782Y591782D02*
X317766D01*
X214500Y583500D02*
X222782Y591782D01*
X210500Y583500D02*
X214500D01*
X180814Y586936D02*
X182628Y588750D01*
X174032Y580154D02*
X180814Y586936D01*
X173250Y594500D02*
Y599250D01*
Y594500D02*
X180814Y586936D01*
X156258Y507775D02*
Y508508D01*
X179509Y531759D01*
Y550027D01*
X167868Y463964D02*
X177750Y454082D01*
Y443000D02*
Y454082D01*
X129500Y535250D02*
X153250D01*
X124902Y530652D02*
X129500Y535250D01*
X124902Y517830D02*
Y530652D01*
X153250Y535250D02*
X167750Y549750D01*
Y554200D01*
X131506Y503525D02*
X164773D01*
X164798Y503500D01*
X217548Y556250D01*
X130000Y512250D02*
X131225Y511025D01*
X131756D01*
X124902Y517830D02*
X127718Y515014D01*
Y514532D02*
Y515014D01*
X128934Y519500D02*
X147128D01*
X127718Y514532D02*
X130000Y512250D01*
X147128Y519500D02*
X150042Y516586D01*
X131816Y495500D02*
X168202D01*
X176782Y504080D01*
Y508282D01*
X217548Y556250D02*
X218250D01*
X156118Y516586D02*
X175218Y535686D01*
X150042Y516586D02*
X156118D01*
X175218Y535686D02*
Y556998D01*
X130000Y512000D02*
Y512250D01*
X167750Y554200D02*
X174032Y560482D01*
X336666Y464418D02*
X338767Y466518D01*
Y466273D02*
Y466518D01*
X340450Y468202D01*
X339968Y461772D02*
X344482Y466286D01*
Y505812D01*
X339968Y454218D02*
Y461772D01*
X336666Y460416D02*
Y464418D01*
X314000Y437750D02*
X336666Y460416D01*
X301000Y437750D02*
X314000D01*
X296238Y432988D02*
X301000Y437750D01*
X296238Y426690D02*
Y432988D01*
X290908Y415658D02*
X302250Y427000D01*
X225342Y415658D02*
X290908D01*
X254798Y448750D02*
X295286D01*
X311750Y426000D02*
X339968Y454218D01*
X208750Y431500D02*
X215750D01*
X192250Y448000D02*
X208750Y431500D01*
X200229Y425521D02*
X208010D01*
X183750Y442000D02*
X200229Y425521D01*
X183750Y442000D02*
Y466500D01*
X186500Y418750D02*
Y434250D01*
X185902Y434848D02*
X186500Y434250D01*
X185902Y434848D02*
Y434998D01*
X180248Y440652D02*
X185902Y434998D01*
X192250Y448000D02*
Y468000D01*
X178500Y481750D02*
X192250Y468000D01*
X180098Y440652D02*
X180248D01*
X177750Y443000D02*
X180098Y440652D01*
X178500Y481750D02*
Y494750D01*
X215250Y425750D02*
X225342Y415658D01*
X229684Y419598D02*
X276188D01*
X227511Y421771D02*
X229684Y419598D01*
X276188D02*
X286420Y427080D01*
X177334Y578786D02*
X182048Y583500D01*
X177334Y559114D02*
Y578786D01*
X182048Y583500D02*
X210500D01*
X174032Y560482D02*
Y580154D01*
X182628Y588750D02*
X211250D01*
X329926Y541526D02*
X353017D01*
X321670Y549782D02*
X329926Y541526D01*
X218500Y530500D02*
Y543750D01*
X228032Y553282D01*
X235565D01*
X236065Y553782D01*
X310170D01*
X314170Y549782D01*
X176782Y508282D02*
X224500Y556000D01*
X222032Y560282D02*
X224750Y563000D01*
X207467Y560282D02*
X222032D01*
X314170Y549782D02*
X321670D01*
X310702Y545750D02*
X320000D01*
X310420Y545468D02*
X310702Y545750D01*
X294580Y545468D02*
X310420D01*
X267532Y520234D02*
X292766Y545468D01*
X294580D01*
X294580Y545468D01*
X202992Y555807D02*
X207467Y560282D01*
X224537Y542000D02*
X229239D01*
X223511Y543027D02*
X224537Y542000D01*
X267532Y520080D02*
Y520234D01*
X253920Y506468D02*
X267532Y520080D01*
X250990Y506468D02*
X253920D01*
X234272Y489750D02*
X250990Y506468D01*
X234250Y489750D02*
X234272D01*
X241532Y502712D02*
Y529707D01*
X229239Y542000D02*
X241532Y529707D01*
X237500Y498680D02*
X241532Y502712D01*
X228282Y504660D02*
X237500Y513878D01*
X228282Y502330D02*
Y504660D01*
X225920Y499968D02*
X228282Y502330D01*
X223590Y499968D02*
X225920D01*
X213538Y489916D02*
X223590Y499968D01*
X237500Y513878D02*
Y524000D01*
X206250Y490000D02*
X208128D01*
X211346Y493218D01*
X212951Y489916D02*
X213538D01*
X211346Y493218D02*
X212170D01*
X214532Y495580D01*
Y500782D01*
X224500Y510750D01*
X214510Y485774D02*
X215300D01*
X229416Y471657D01*
X210478Y484104D02*
Y487444D01*
X212951Y489916D01*
X210478Y484104D02*
X212840Y481742D01*
X214662D01*
X218500Y477904D01*
Y474750D02*
Y477904D01*
X295286Y448750D02*
X296264Y447772D01*
X255138Y443740D02*
X308490D01*
X229416Y469462D02*
X255138Y443740D01*
X308490D02*
X308750Y444000D01*
X232718Y470830D02*
X254798Y448750D01*
X232718Y470830D02*
Y475282D01*
X221250Y486750D02*
X232718Y475282D01*
X229416Y469462D02*
Y471657D01*
X175218Y556998D02*
X177334Y559114D01*
X179729Y555807D02*
X202992D01*
D70*
X344750Y600000D02*
D03*
X173250Y599250D02*
D03*
X218500Y474750D02*
D03*
D71*
X388264Y589660D02*
D03*
X394750Y573500D02*
D03*
X387910Y557486D02*
D03*
X371750Y551000D02*
D03*
X355736Y557840D02*
D03*
X349250Y574000D02*
D03*
X356090Y590014D02*
D03*
X372250Y596500D02*
D03*
X158264Y589660D02*
D03*
X164750Y573500D02*
D03*
X157910Y557486D02*
D03*
X141750Y551000D02*
D03*
X125736Y557840D02*
D03*
X119250Y574000D02*
D03*
X126090Y590014D02*
D03*
X142250Y596500D02*
D03*
Y466250D02*
D03*
X126090Y459763D02*
D03*
X119250Y443750D02*
D03*
X125736Y427590D02*
D03*
X141750Y420750D02*
D03*
X157910Y427236D02*
D03*
X164750Y443250D02*
D03*
X158264Y459410D02*
D03*
X388264D02*
D03*
X394750Y443250D02*
D03*
X387910Y427236D02*
D03*
X371750Y420750D02*
D03*
X355736Y427590D02*
D03*
X349250Y443750D02*
D03*
X356090Y459763D02*
D03*
X372250Y466250D02*
D03*
D72*
X336750Y433000D02*
D03*
X257000Y429250D02*
D03*
X176250Y431000D02*
D03*
D73*
X142000Y573750D02*
D03*
X372000D02*
D03*
X142000Y443500D02*
D03*
X372000D02*
D03*
D74*
X156258Y507775D02*
D03*
X179509Y550027D02*
D03*
X323000Y461500D02*
D03*
X398000Y470000D02*
D03*
X391750D02*
D03*
X360750Y482000D02*
D03*
X367000D02*
D03*
X373250D02*
D03*
X391750Y476250D02*
D03*
X385500D02*
D03*
X167868Y463964D02*
D03*
X131506Y503525D02*
D03*
X131756Y511025D02*
D03*
X128934Y519500D02*
D03*
X131816Y495500D02*
D03*
X338767Y466273D02*
D03*
X360750Y488250D02*
D03*
X344482Y505812D02*
D03*
X296238Y426690D02*
D03*
X311750Y426000D02*
D03*
X215750Y431500D02*
D03*
X208010Y425521D02*
D03*
X192250Y448000D02*
D03*
X215250Y425750D02*
D03*
X227511Y421771D02*
D03*
X363750Y532250D02*
D03*
Y538500D02*
D03*
X370000Y532250D02*
D03*
Y538500D02*
D03*
X376250Y532250D02*
D03*
Y538500D02*
D03*
X373250Y488250D02*
D03*
X367000D02*
D03*
X385500Y482500D02*
D03*
Y488750D02*
D03*
X398000D02*
D03*
X391750D02*
D03*
X398000Y482500D02*
D03*
X391750D02*
D03*
X398000Y476250D02*
D03*
X386000Y540500D02*
D03*
Y534250D02*
D03*
X392250D02*
D03*
X398500Y534000D02*
D03*
X392250Y540500D02*
D03*
X398500Y540250D02*
D03*
X392250Y546750D02*
D03*
X398500D02*
D03*
X302250Y427000D02*
D03*
X182750Y578500D02*
D03*
X353017Y541526D02*
D03*
X218500Y530500D02*
D03*
X224500Y556000D02*
D03*
X224750Y563000D02*
D03*
X218250Y556250D02*
D03*
X283250Y543250D02*
D03*
X277500Y536500D02*
D03*
X309738Y528012D02*
D03*
X286420Y427080D02*
D03*
X223511Y543027D02*
D03*
X178500Y494750D02*
D03*
X186500Y418750D02*
D03*
X183750Y466500D02*
D03*
X327300Y482750D02*
D03*
X321250Y559750D02*
D03*
X320000Y545750D02*
D03*
X234250Y489750D02*
D03*
X237500Y498680D02*
D03*
X206250Y490000D02*
D03*
X214510Y485774D02*
D03*
X236762Y548777D02*
D03*
X231250Y517500D02*
D03*
X231000Y530000D02*
D03*
X245500Y476000D02*
D03*
X237500Y524000D02*
D03*
X296264Y447772D02*
D03*
X221250Y486750D02*
D03*
X308750Y444000D02*
D03*
X201260Y468773D02*
D03*
X224500Y510750D02*
D03*
X210500Y497250D02*
D03*
X189250Y535750D02*
D03*
X202260Y560777D02*
D03*
X250250Y497250D02*
D03*
X270250Y472000D02*
D03*
X290000Y483000D02*
D03*
X289250Y491250D02*
D03*
X282750Y510750D02*
D03*
X276750Y523750D02*
D03*
X276250Y549750D02*
D03*
X263500Y521750D02*
D03*
Y536500D02*
D03*
Y549500D02*
D03*
X250500Y549500D02*
D03*
Y536500D02*
D03*
X250500Y521750D02*
D03*
X250250Y569000D02*
D03*
X179729Y555807D02*
D03*
X210500Y583500D02*
D03*
X211250Y588750D02*
D03*
M02*
