G04*
G04 #@! TF.GenerationSoftware,Altium Limited,Altium Designer,18.0.9 (584)*
G04*
G04 Layer_Physical_Order=3*
G04 Layer_Color=12632256*
%FSLAX44Y44*%
%MOMM*%
G71*
G01*
G75*
%ADD67C,0.2540*%
G04:AMPARAMS|DCode=68|XSize=0.7mm|YSize=0.7mm|CornerRadius=0.35mm|HoleSize=0mm|Usage=FLASHONLY|Rotation=90.000|XOffset=0mm|YOffset=0mm|HoleType=Round|Shape=RoundedRectangle|*
%AMROUNDEDRECTD68*
21,1,0.7000,0.0000,0,0,90.0*
21,1,0.0000,0.7000,0,0,90.0*
1,1,0.7000,0.0000,0.0000*
1,1,0.7000,0.0000,0.0000*
1,1,0.7000,0.0000,0.0000*
1,1,0.7000,0.0000,0.0000*
%
%ADD68ROUNDEDRECTD68*%
%ADD69C,0.4000*%
G04:AMPARAMS|DCode=70|XSize=3.048mm|YSize=1.778mm|CornerRadius=0.4445mm|HoleSize=0mm|Usage=FLASHONLY|Rotation=0.000|XOffset=0mm|YOffset=0mm|HoleType=Round|Shape=RoundedRectangle|*
%AMROUNDEDRECTD70*
21,1,3.0480,0.8890,0,0,0.0*
21,1,2.1590,1.7780,0,0,0.0*
1,1,0.8890,1.0795,-0.4445*
1,1,0.8890,-1.0795,-0.4445*
1,1,0.8890,-1.0795,0.4445*
1,1,0.8890,1.0795,0.4445*
%
%ADD70ROUNDEDRECTD70*%
%ADD71C,0.7600*%
%ADD72C,1.5240*%
%ADD73C,6.0000*%
G36*
X178134Y594500D02*
X178534Y593534D01*
X179500Y593134D01*
X339750D01*
X340716Y593534D01*
X341116Y594500D01*
Y603821D01*
X405634D01*
Y409866D01*
X108366D01*
Y480244D01*
X108444Y480315D01*
X109636Y480807D01*
X110172Y480448D01*
X110678Y480348D01*
X111123Y480050D01*
X113155Y479646D01*
X134745D01*
X136777Y480050D01*
X137222Y480348D01*
X137728Y480448D01*
X138641Y481059D01*
X139252Y481972D01*
X139352Y482478D01*
X139650Y482923D01*
X140054Y484955D01*
Y493678D01*
X145457D01*
X145458Y493678D01*
X146250Y493836D01*
X146923Y494285D01*
X149773Y497136D01*
X151198Y496764D01*
X151589Y496179D01*
X152502Y495569D01*
X153580Y495354D01*
X154658Y495569D01*
X155571Y496179D01*
X156182Y497093D01*
X156396Y498170D01*
X156182Y499248D01*
X155571Y500162D01*
X154986Y500552D01*
X154614Y501977D01*
X161873Y509235D01*
X164335D01*
X165079Y507965D01*
X164942Y507275D01*
X165156Y506197D01*
X165767Y505284D01*
X166681Y504673D01*
X167758Y504459D01*
X168836Y504673D01*
X168851Y504683D01*
X170148Y504672D01*
X170759Y503759D01*
X171672Y503148D01*
X172750Y502934D01*
X173828Y503148D01*
X174658Y503703D01*
X175095Y503607D01*
X175928Y503249D01*
Y503072D01*
X175928Y503072D01*
X176086Y502279D01*
X176535Y501607D01*
X176950Y501192D01*
X177136Y500256D01*
X177747Y499343D01*
X178548Y498807D01*
X178661Y498732D01*
X178500Y497566D01*
X178320Y497530D01*
X177422Y497352D01*
X176509Y496741D01*
X175898Y495828D01*
X175684Y494750D01*
X175898Y493672D01*
X176428Y492879D01*
Y481750D01*
X176428Y481750D01*
X176586Y480957D01*
X177035Y480285D01*
X190428Y466892D01*
Y439371D01*
X189898Y438578D01*
X189842Y438294D01*
X188572Y438419D01*
Y447000D01*
X188414Y447793D01*
X187965Y448465D01*
X187965Y448465D01*
X185990Y450440D01*
X186411Y451815D01*
X186828Y451898D01*
X187741Y452509D01*
X188352Y453422D01*
X188566Y454500D01*
X188352Y455578D01*
X187741Y456491D01*
X186828Y457102D01*
X185892Y457288D01*
X185822Y457358D01*
Y464629D01*
X186352Y465422D01*
X186566Y466500D01*
X186352Y467578D01*
X185741Y468491D01*
X184828Y469102D01*
X183750Y469316D01*
X182672Y469102D01*
X181759Y468491D01*
X181148Y467578D01*
X180934Y466500D01*
X181148Y465422D01*
X181678Y464629D01*
Y456500D01*
X181678Y456500D01*
X181766Y456058D01*
X181719Y455840D01*
X181249Y455029D01*
X180974Y454711D01*
X180422Y454602D01*
X179509Y453991D01*
X178898Y453078D01*
X178684Y452000D01*
X178898Y450922D01*
X179509Y450009D01*
X180422Y449398D01*
X181358Y449212D01*
X184428Y446142D01*
Y420621D01*
X183898Y419828D01*
X183684Y418750D01*
X183898Y417672D01*
X184509Y416759D01*
X185422Y416148D01*
X186500Y415934D01*
X187578Y416148D01*
X188491Y416759D01*
X189102Y417672D01*
X189316Y418750D01*
X189102Y419828D01*
X188572Y420621D01*
Y436581D01*
X189842Y436706D01*
X189898Y436422D01*
X190509Y435509D01*
X191422Y434898D01*
X192500Y434684D01*
X193578Y434898D01*
X194491Y435509D01*
X195102Y436422D01*
X195316Y437500D01*
X195102Y438578D01*
X194572Y439371D01*
Y467750D01*
X194572Y467750D01*
X194414Y468543D01*
X193965Y469215D01*
X193965Y469215D01*
X180572Y482608D01*
Y492879D01*
X181102Y493672D01*
X181316Y494750D01*
X181102Y495828D01*
X180491Y496741D01*
X179690Y497277D01*
X179578Y497352D01*
X179738Y498518D01*
X179918Y498554D01*
X180816Y498732D01*
X181730Y499343D01*
X182340Y500256D01*
X182554Y501334D01*
X182340Y502412D01*
X181730Y503325D01*
X180816Y503936D01*
X180072Y504084D01*
Y508642D01*
X215158Y543728D01*
X216428Y543202D01*
Y532371D01*
X215898Y531578D01*
X215684Y530500D01*
X215898Y529422D01*
X216509Y528509D01*
X217422Y527898D01*
X218500Y527684D01*
X219578Y527898D01*
X220491Y528509D01*
X221102Y529422D01*
X221316Y530500D01*
X221102Y531578D01*
X220572Y532371D01*
Y540257D01*
X220762Y540413D01*
X221842Y540820D01*
X222433Y540425D01*
X223511Y540210D01*
X223547Y540218D01*
X223745Y540086D01*
X224537Y539928D01*
X224538Y539928D01*
X228381D01*
X229227Y539083D01*
X228855Y537658D01*
X228270Y537267D01*
X227659Y536354D01*
X227445Y535276D01*
X227659Y534198D01*
X228270Y533285D01*
X229184Y532674D01*
X230261Y532460D01*
X231339Y532674D01*
X232253Y533285D01*
X232644Y533870D01*
X234068Y534242D01*
X239460Y528849D01*
Y527423D01*
X238190Y526679D01*
X237500Y526816D01*
X236422Y526602D01*
X235509Y525991D01*
X234898Y525078D01*
X234684Y524000D01*
X234898Y522922D01*
X235428Y522129D01*
Y514736D01*
X227334Y506642D01*
X226575Y506190D01*
X225962Y506354D01*
X225390Y507422D01*
X225425Y507877D01*
X225578Y508148D01*
X226491Y508759D01*
X227102Y509672D01*
X227316Y510750D01*
X227102Y511828D01*
X226491Y512741D01*
X225578Y513352D01*
X224500Y513566D01*
X223422Y513352D01*
X222509Y512741D01*
X221898Y511828D01*
X221712Y510892D01*
X213067Y502247D01*
X212618Y501575D01*
X212460Y500782D01*
X212460Y500782D01*
Y496438D01*
X211303Y495281D01*
X210553Y495132D01*
X209881Y494683D01*
X207611Y492413D01*
X207328Y492602D01*
X206250Y492816D01*
X205172Y492602D01*
X204259Y491991D01*
X203648Y491078D01*
X203434Y490000D01*
X203648Y488922D01*
X204259Y488009D01*
X205172Y487398D01*
X206250Y487184D01*
X207137Y487360D01*
X207714Y487109D01*
X208407Y486592D01*
Y484104D01*
X208407Y484104D01*
X208564Y483311D01*
X209014Y482639D01*
X211375Y480277D01*
X212048Y479828D01*
X212840Y479670D01*
X212840Y479670D01*
X213804D01*
X215447Y478027D01*
X215427Y477823D01*
X214485Y476413D01*
X214154Y474750D01*
X214485Y473087D01*
X215427Y471678D01*
X216837Y470736D01*
X218500Y470405D01*
X220163Y470736D01*
X221573Y471678D01*
X222515Y473087D01*
X222638Y473709D01*
X224016Y474127D01*
X227344Y470799D01*
Y469462D01*
X227344Y469462D01*
X227502Y468669D01*
X227951Y467997D01*
X253673Y442275D01*
X254345Y441826D01*
X255138Y441668D01*
X255138Y441668D01*
X307269D01*
X307672Y441398D01*
X308750Y441184D01*
X309828Y441398D01*
X310741Y442009D01*
X311352Y442922D01*
X311566Y444000D01*
X311352Y445078D01*
X310741Y445991D01*
X309828Y446602D01*
X308750Y446816D01*
X307672Y446602D01*
X306759Y445991D01*
X306639Y445812D01*
X299688D01*
X298943Y447082D01*
X299081Y447772D01*
X298866Y448849D01*
X298256Y449763D01*
X297342Y450374D01*
X296264Y450588D01*
X296210Y450577D01*
X296079Y450664D01*
X295286Y450822D01*
X295286Y450822D01*
X255656D01*
X237785Y468693D01*
X238156Y470118D01*
X238741Y470509D01*
X239352Y471422D01*
X239566Y472500D01*
X239352Y473578D01*
X238741Y474491D01*
X237828Y475102D01*
X236750Y475316D01*
X236060Y475179D01*
X235529Y475222D01*
X234657Y475951D01*
X234632Y476075D01*
X234183Y476747D01*
X234183Y476747D01*
X224038Y486892D01*
X223852Y487828D01*
X223241Y488741D01*
X222328Y489352D01*
X221250Y489566D01*
X220172Y489352D01*
X219259Y488741D01*
X218648Y487828D01*
X218536Y487263D01*
X217234Y486770D01*
X217032Y486972D01*
X216502Y487765D01*
X216269Y487921D01*
X216035Y489483D01*
X224448Y497896D01*
X225920D01*
X225920Y497896D01*
X226713Y498054D01*
X227385Y498503D01*
X229747Y500865D01*
X230196Y501537D01*
X230354Y502330D01*
X230354Y502330D01*
Y503802D01*
X238190Y511638D01*
X239460Y511112D01*
Y503570D01*
X237358Y501468D01*
X236422Y501282D01*
X235509Y500671D01*
X234898Y499757D01*
X234684Y498680D01*
X234898Y497602D01*
X235509Y496688D01*
X236094Y496298D01*
X236465Y494873D01*
X234136Y492543D01*
X233172Y492352D01*
X232259Y491741D01*
X231648Y490828D01*
X231434Y489750D01*
X231648Y488672D01*
X232259Y487759D01*
X233172Y487148D01*
X234250Y486934D01*
X235328Y487148D01*
X236241Y487759D01*
X236852Y488672D01*
X237032Y489580D01*
X251848Y504396D01*
X253920D01*
X253920Y504396D01*
X254713Y504554D01*
X255385Y505003D01*
X268997Y518615D01*
X268997Y518615D01*
X269307Y519079D01*
X291444Y541216D01*
X292813Y540789D01*
X292898Y540358D01*
X293509Y539445D01*
X294422Y538834D01*
X295500Y538620D01*
X296578Y538834D01*
X297491Y539445D01*
X298102Y540358D01*
X298316Y541436D01*
X298179Y542126D01*
X298923Y543396D01*
X310420D01*
X310420Y543396D01*
X311213Y543554D01*
X311399Y543678D01*
X318129D01*
X318922Y543148D01*
X320000Y542934D01*
X321078Y543148D01*
X321991Y543759D01*
X322382Y544344D01*
X323807Y544715D01*
X328461Y540061D01*
X328461Y540061D01*
X329133Y539612D01*
X329926Y539455D01*
X329926Y539455D01*
X351146D01*
X351940Y538925D01*
X353017Y538710D01*
X354095Y538925D01*
X355009Y539535D01*
X355619Y540449D01*
X355833Y541526D01*
X355619Y542604D01*
X355009Y543518D01*
X354095Y544128D01*
X353017Y544342D01*
X351940Y544128D01*
X351146Y543598D01*
X330784D01*
X323135Y551247D01*
X322463Y551696D01*
X321670Y551854D01*
X321670Y551854D01*
X315028D01*
X311635Y555247D01*
X310963Y555696D01*
X310170Y555854D01*
X310170Y555854D01*
X236065D01*
X235272Y555696D01*
X234760Y555354D01*
X228482D01*
X227735Y555768D01*
X227219Y556487D01*
X227102Y557078D01*
X226491Y557991D01*
X225578Y558602D01*
X225562Y559900D01*
X225828Y560398D01*
X226741Y561009D01*
X227352Y561922D01*
X227566Y563000D01*
X227352Y564078D01*
X226741Y564991D01*
X225828Y565602D01*
X224750Y565816D01*
X223672Y565602D01*
X222759Y564991D01*
X222148Y564078D01*
X221962Y563142D01*
X221174Y562354D01*
X207467D01*
X206674Y562196D01*
X206002Y561747D01*
X206001Y561747D01*
X202134Y557879D01*
X181600D01*
X180807Y558409D01*
X180570Y558456D01*
X179634Y558985D01*
X179406Y559854D01*
Y577928D01*
X182906Y581428D01*
X208629D01*
X209422Y580898D01*
X210500Y580684D01*
X211578Y580898D01*
X212491Y581509D01*
X213102Y582422D01*
X213316Y583500D01*
X213102Y584578D01*
X212789Y585046D01*
X212552Y585613D01*
X213061Y586638D01*
X213241Y586759D01*
X213852Y587672D01*
X214066Y588750D01*
X213852Y589828D01*
X213241Y590741D01*
X212328Y591352D01*
X211250Y591566D01*
X210172Y591352D01*
X209379Y590822D01*
X182628D01*
X182628Y590822D01*
X181835Y590664D01*
X181163Y590215D01*
X181163Y590215D01*
X172567Y581619D01*
X172118Y580947D01*
X171960Y580154D01*
X171960Y580154D01*
Y561340D01*
X166285Y555665D01*
X165836Y554993D01*
X165678Y554200D01*
X165678Y554200D01*
Y514371D01*
X165148Y513578D01*
X165109Y513379D01*
X161014D01*
X160222Y513221D01*
X159549Y512772D01*
X159549Y512772D01*
X144599Y497822D01*
X138521D01*
X137728Y498352D01*
X137222Y498452D01*
X136777Y498750D01*
X134745Y499154D01*
X113155D01*
X111123Y498750D01*
X110678Y498452D01*
X110172Y498352D01*
X109636Y497993D01*
X108444Y498485D01*
X108366Y498556D01*
Y501744D01*
X108444Y501815D01*
X109636Y502307D01*
X110172Y501948D01*
X110678Y501848D01*
X111123Y501550D01*
X113155Y501146D01*
X134745D01*
X136777Y501550D01*
X137222Y501848D01*
X137728Y501948D01*
X138641Y502559D01*
X139252Y503472D01*
X139352Y503978D01*
X139650Y504423D01*
X140054Y506455D01*
Y515345D01*
X139650Y517377D01*
X139352Y517822D01*
X139252Y518328D01*
X138641Y519241D01*
X137728Y519852D01*
X137222Y519952D01*
X136777Y520250D01*
X136638Y520277D01*
X136544Y521356D01*
X136578Y521584D01*
X136972Y521848D01*
X137478Y521948D01*
X138391Y522559D01*
X139002Y523472D01*
X139102Y523978D01*
X139400Y524423D01*
X139804Y526455D01*
Y535345D01*
X139400Y537377D01*
X139102Y537822D01*
X139002Y538328D01*
X138391Y539241D01*
X137478Y539852D01*
X136972Y539953D01*
X136527Y540250D01*
X134495Y540654D01*
X112905D01*
X110873Y540250D01*
X110428Y539952D01*
X109922Y539852D01*
X109636Y539660D01*
X108366Y540339D01*
Y604446D01*
X178134D01*
Y594500D01*
D02*
G37*
G36*
X208564Y556653D02*
X208434Y556000D01*
X208648Y554922D01*
X209259Y554009D01*
X210051Y553479D01*
X210205Y553222D01*
X210422Y552054D01*
X171696Y513328D01*
X170529Y513545D01*
X170271Y513699D01*
X169822Y514371D01*
Y517523D01*
X171092Y518202D01*
X171172Y518148D01*
X172250Y517934D01*
X173328Y518148D01*
X174241Y518759D01*
X174852Y519672D01*
X175038Y520608D01*
X176683Y522253D01*
X176683Y522253D01*
X177132Y522925D01*
X177290Y523718D01*
Y546827D01*
X178560Y547571D01*
X179250Y547434D01*
X180328Y547648D01*
X181241Y548259D01*
X181852Y549172D01*
X182066Y550250D01*
X181852Y551328D01*
X181314Y552133D01*
X181246Y552275D01*
X181446Y553632D01*
X181600Y553735D01*
X202992D01*
X202992Y553735D01*
X203785Y553893D01*
X204457Y554342D01*
X207393Y557279D01*
X208564Y556653D01*
D02*
G37*
G36*
X293559Y550709D02*
X293621Y550440D01*
X293434Y549500D01*
X293571Y548810D01*
X292882Y547633D01*
X292766Y547540D01*
X291973Y547382D01*
X291301Y546933D01*
X291301Y546933D01*
X266067Y521699D01*
X265757Y521234D01*
X254197Y509675D01*
X253026Y510300D01*
X253066Y510500D01*
X252852Y511578D01*
X252241Y512491D01*
X251328Y513102D01*
X250250Y513316D01*
X249172Y513102D01*
X248259Y512491D01*
X247648Y511578D01*
X247434Y510500D01*
X247648Y509422D01*
X248259Y508509D01*
X248286Y508490D01*
X248447Y506855D01*
X244874Y503282D01*
X243604Y503808D01*
Y529707D01*
X243446Y530500D01*
X242997Y531172D01*
X242997Y531172D01*
X230704Y543465D01*
X230032Y543914D01*
X229239Y544072D01*
X229239Y544072D01*
X226119D01*
X226113Y544104D01*
X225502Y545018D01*
X224898Y545422D01*
X224519Y546838D01*
X226978Y549298D01*
X227069Y549294D01*
X228274Y548798D01*
X228398Y548172D01*
X229009Y547259D01*
X229922Y546648D01*
X231000Y546434D01*
X232078Y546648D01*
X232991Y547259D01*
X233602Y548172D01*
X233816Y549250D01*
X233679Y549940D01*
X234423Y551210D01*
X235565D01*
X235565Y551210D01*
X236357Y551368D01*
X236870Y551710D01*
X292878D01*
X293559Y550709D01*
D02*
G37*
%LPC*%
G36*
X314000Y590566D02*
X312922Y590352D01*
X312009Y589741D01*
X311398Y588828D01*
X311184Y587750D01*
X311398Y586672D01*
X312009Y585759D01*
X312922Y585148D01*
X314000Y584934D01*
X315078Y585148D01*
X315991Y585759D01*
X316602Y586672D01*
X316816Y587750D01*
X316602Y588828D01*
X315991Y589741D01*
X315078Y590352D01*
X314000Y590566D01*
D02*
G37*
G36*
X230750Y585066D02*
X229672Y584852D01*
X228759Y584241D01*
X228337Y583610D01*
X228039Y583531D01*
X227317Y583520D01*
X226926Y583610D01*
X226528Y584205D01*
X225614Y584815D01*
X224537Y585029D01*
X223459Y584815D01*
X222545Y584205D01*
X221935Y583291D01*
X221721Y582213D01*
X221935Y581136D01*
X222545Y580222D01*
X223459Y579612D01*
X224537Y579397D01*
X225614Y579612D01*
X226528Y580222D01*
X226950Y580854D01*
X227248Y580933D01*
X227970Y580944D01*
X228361Y580854D01*
X228759Y580259D01*
X229672Y579648D01*
X230750Y579434D01*
X231828Y579648D01*
X232741Y580259D01*
X233352Y581172D01*
X233566Y582250D01*
X233352Y583328D01*
X232741Y584241D01*
X231828Y584852D01*
X230750Y585066D01*
D02*
G37*
G36*
X308428Y585388D02*
X307350Y585174D01*
X306437Y584563D01*
X305826Y583650D01*
X305612Y582572D01*
X305826Y581494D01*
X306437Y580581D01*
X307350Y579970D01*
X308428Y579756D01*
X309506Y579970D01*
X310419Y580581D01*
X311030Y581494D01*
X311244Y582572D01*
X311030Y583650D01*
X310419Y584563D01*
X309506Y585174D01*
X308428Y585388D01*
D02*
G37*
G36*
X243750Y585066D02*
X242672Y584852D01*
X241759Y584241D01*
X241148Y583328D01*
X240934Y582250D01*
X241148Y581172D01*
X241759Y580259D01*
X242672Y579648D01*
X243750Y579434D01*
X244828Y579648D01*
X245741Y580259D01*
X246352Y581172D01*
X246566Y582250D01*
X246352Y583328D01*
X245741Y584241D01*
X244828Y584852D01*
X243750Y585066D01*
D02*
G37*
G36*
X308265Y578344D02*
X307187Y578130D01*
X306274Y577519D01*
X305663Y576606D01*
X305449Y575528D01*
X305663Y574450D01*
X306274Y573537D01*
X307187Y572926D01*
X308265Y572712D01*
X309343Y572926D01*
X310256Y573537D01*
X310867Y574450D01*
X311081Y575528D01*
X310867Y576606D01*
X310256Y577519D01*
X309343Y578130D01*
X308265Y578344D01*
D02*
G37*
G36*
X263750Y572316D02*
X262672Y572102D01*
X261759Y571491D01*
X261148Y570578D01*
X261123Y570449D01*
X260060Y570348D01*
X259815Y570383D01*
X259241Y571241D01*
X258328Y571852D01*
X257250Y572066D01*
X256172Y571852D01*
X255259Y571241D01*
X254648Y570328D01*
X254434Y569250D01*
X254648Y568172D01*
X255259Y567259D01*
X256172Y566648D01*
X257250Y566434D01*
X258328Y566648D01*
X259241Y567259D01*
X259852Y568172D01*
X259877Y568301D01*
X260940Y568402D01*
X261185Y568367D01*
X261759Y567509D01*
X262672Y566898D01*
X263750Y566684D01*
X264828Y566898D01*
X265741Y567509D01*
X266352Y568422D01*
X266566Y569500D01*
X266352Y570578D01*
X265741Y571491D01*
X264828Y572102D01*
X263750Y572316D01*
D02*
G37*
G36*
X308750Y571316D02*
X307672Y571102D01*
X306759Y570491D01*
X306148Y569578D01*
X305934Y568500D01*
X306148Y567422D01*
X306759Y566509D01*
X307672Y565898D01*
X308750Y565684D01*
X309828Y565898D01*
X310741Y566509D01*
X311352Y567422D01*
X311566Y568500D01*
X311352Y569578D01*
X310741Y570491D01*
X309828Y571102D01*
X308750Y571316D01*
D02*
G37*
G36*
X339762Y557802D02*
X338684Y557588D01*
X337771Y556977D01*
X337160Y556064D01*
X336946Y554986D01*
X337160Y553908D01*
X337771Y552995D01*
X338684Y552384D01*
X339762Y552170D01*
X340276Y551656D01*
X340201Y551277D01*
X340415Y550199D01*
X341026Y549286D01*
X341939Y548675D01*
X343017Y548461D01*
X344094Y548675D01*
X345008Y549286D01*
X345619Y550199D01*
X345833Y551277D01*
X345619Y552355D01*
X345008Y553268D01*
X344094Y553879D01*
X343017Y554093D01*
X342503Y554607D01*
X342578Y554986D01*
X342364Y556064D01*
X341753Y556977D01*
X340840Y557588D01*
X339762Y557802D01*
D02*
G37*
G36*
X228702Y528380D02*
X227624Y528166D01*
X226710Y527555D01*
X226100Y526642D01*
X225886Y525564D01*
X226100Y524486D01*
X226710Y523573D01*
X227624Y522962D01*
X228702Y522748D01*
X229779Y522962D01*
X230693Y523573D01*
X231303Y524486D01*
X231518Y525564D01*
X231303Y526642D01*
X230693Y527555D01*
X229779Y528166D01*
X228702Y528380D01*
D02*
G37*
G36*
X210250Y526816D02*
X209172Y526602D01*
X208259Y525991D01*
X207648Y525078D01*
X207434Y524000D01*
X207648Y522922D01*
X208259Y522009D01*
X209172Y521398D01*
X210250Y521184D01*
X211328Y521398D01*
X212241Y522009D01*
X212852Y522922D01*
X213066Y524000D01*
X212852Y525078D01*
X212241Y525991D01*
X211328Y526602D01*
X210250Y526816D01*
D02*
G37*
G36*
X153080Y526736D02*
X152002Y526522D01*
X151089Y525911D01*
X150478Y524998D01*
X150264Y523920D01*
X150478Y522842D01*
X151089Y521929D01*
X152002Y521318D01*
X153080Y521104D01*
X154158Y521318D01*
X155071Y521929D01*
X155682Y522842D01*
X155896Y523920D01*
X155682Y524998D01*
X155071Y525911D01*
X154158Y526522D01*
X153080Y526736D01*
D02*
G37*
G36*
X309250Y526066D02*
X308172Y525852D01*
X307259Y525241D01*
X306648Y524328D01*
X306434Y523250D01*
X306648Y522172D01*
X307259Y521259D01*
X308172Y520648D01*
X309250Y520434D01*
X310328Y520648D01*
X311241Y521259D01*
X311852Y522172D01*
X312066Y523250D01*
X311852Y524328D01*
X311241Y525241D01*
X310328Y525852D01*
X309250Y526066D01*
D02*
G37*
G36*
X217750Y519816D02*
X216672Y519602D01*
X215759Y518991D01*
X215148Y518078D01*
X214934Y517000D01*
X215148Y515922D01*
X215759Y515009D01*
X216672Y514398D01*
X217750Y514184D01*
X218828Y514398D01*
X219741Y515009D01*
X220352Y515922D01*
X220566Y517000D01*
X220352Y518078D01*
X219741Y518991D01*
X218828Y519602D01*
X217750Y519816D01*
D02*
G37*
G36*
X363889Y524316D02*
X362811Y524102D01*
X361898Y523491D01*
X361287Y522578D01*
X361073Y521500D01*
X361287Y520422D01*
X361898Y519509D01*
X362811Y518898D01*
X362827Y518895D01*
Y517600D01*
X362728Y517581D01*
X361815Y516970D01*
X361204Y516057D01*
X360990Y514979D01*
X361204Y513901D01*
X361815Y512988D01*
X362728Y512377D01*
X363806Y512163D01*
X364884Y512377D01*
X365797Y512988D01*
X366408Y513901D01*
X366622Y514979D01*
X366408Y516057D01*
X365797Y516970D01*
X364884Y517581D01*
X364868Y517584D01*
Y518879D01*
X364967Y518898D01*
X365880Y519509D01*
X366491Y520422D01*
X366705Y521500D01*
X366491Y522578D01*
X365880Y523491D01*
X364967Y524102D01*
X363889Y524316D01*
D02*
G37*
G36*
X270000Y513316D02*
X268922Y513102D01*
X268009Y512491D01*
X267398Y511578D01*
X267184Y510500D01*
X267398Y509422D01*
X268009Y508509D01*
X268922Y507898D01*
X270000Y507684D01*
X271078Y507898D01*
X271991Y508509D01*
X272602Y509422D01*
X272816Y510500D01*
X272602Y511578D01*
X271991Y512491D01*
X271078Y513102D01*
X270000Y513316D01*
D02*
G37*
G36*
X361268Y511091D02*
X360190Y510877D01*
X359276Y510266D01*
X358666Y509352D01*
X358451Y508275D01*
X358666Y507197D01*
X359276Y506283D01*
X360190Y505673D01*
X361268Y505459D01*
X362345Y505673D01*
X363259Y506283D01*
X363869Y507197D01*
X364084Y508275D01*
X363869Y509352D01*
X363259Y510266D01*
X362345Y510877D01*
X361268Y511091D01*
D02*
G37*
G36*
X308750Y500316D02*
X307672Y500102D01*
X306759Y499491D01*
X306148Y498578D01*
X305934Y497500D01*
X306148Y496422D01*
X306759Y495509D01*
X307672Y494898D01*
X308750Y494684D01*
X309828Y494898D01*
X310741Y495509D01*
X311352Y496422D01*
X311566Y497500D01*
X311352Y498578D01*
X310741Y499491D01*
X309828Y500102D01*
X308750Y500316D01*
D02*
G37*
G36*
X296250Y500066D02*
X295172Y499852D01*
X294259Y499241D01*
X293648Y498328D01*
X293434Y497250D01*
X293648Y496172D01*
X294259Y495259D01*
X295172Y494648D01*
X296250Y494434D01*
X297328Y494648D01*
X298241Y495259D01*
X298852Y496172D01*
X299066Y497250D01*
X298852Y498328D01*
X298241Y499241D01*
X297328Y499852D01*
X296250Y500066D01*
D02*
G37*
G36*
X331250Y499816D02*
X330172Y499602D01*
X329259Y498991D01*
X328648Y498078D01*
X328434Y497000D01*
X328648Y495922D01*
X329259Y495009D01*
X330172Y494398D01*
X331250Y494184D01*
X332328Y494398D01*
X333241Y495009D01*
X333852Y495922D01*
X334066Y497000D01*
X333852Y498078D01*
X333241Y498991D01*
X332328Y499602D01*
X331250Y499816D01*
D02*
G37*
G36*
X354750Y490566D02*
X353672Y490352D01*
X352759Y489741D01*
X352148Y488828D01*
X351934Y487750D01*
X352148Y486672D01*
X352759Y485759D01*
X353672Y485148D01*
X354750Y484934D01*
X355828Y485148D01*
X356741Y485759D01*
X357352Y486672D01*
X357566Y487750D01*
X357352Y488828D01*
X356741Y489741D01*
X355828Y490352D01*
X354750Y490566D01*
D02*
G37*
G36*
X240500Y489566D02*
X239422Y489352D01*
X238509Y488741D01*
X237898Y487828D01*
X237684Y486750D01*
X237898Y485672D01*
X238509Y484759D01*
X239422Y484148D01*
X240500Y483934D01*
X241578Y484148D01*
X242491Y484759D01*
X243102Y485672D01*
X243316Y486750D01*
X243102Y487828D01*
X242491Y488741D01*
X241578Y489352D01*
X240500Y489566D01*
D02*
G37*
G36*
X308750Y489066D02*
X307672Y488852D01*
X306759Y488241D01*
X306148Y487328D01*
X305934Y486250D01*
X306148Y485172D01*
X306759Y484259D01*
X307672Y483648D01*
X308750Y483434D01*
X309828Y483648D01*
X310741Y484259D01*
X311352Y485172D01*
X311566Y486250D01*
X311352Y487328D01*
X310741Y488241D01*
X309828Y488852D01*
X308750Y489066D01*
D02*
G37*
G36*
X283750Y488066D02*
X282672Y487852D01*
X281759Y487241D01*
X281148Y486328D01*
X280934Y485250D01*
X281148Y484172D01*
X281759Y483259D01*
X282672Y482648D01*
X283750Y482434D01*
X284828Y482648D01*
X285741Y483259D01*
X286352Y484172D01*
X286566Y485250D01*
X286352Y486328D01*
X285741Y487241D01*
X284828Y487852D01*
X283750Y488066D01*
D02*
G37*
G36*
X304015Y483840D02*
X302937Y483625D01*
X302024Y483015D01*
X301413Y482101D01*
X301199Y481023D01*
X301413Y479946D01*
X302024Y479032D01*
X302937Y478422D01*
X304015Y478207D01*
X305093Y478422D01*
X306006Y479032D01*
X306617Y479946D01*
X306831Y481023D01*
X306617Y482101D01*
X306006Y483015D01*
X305093Y483625D01*
X304015Y483840D01*
D02*
G37*
G36*
X168250Y483066D02*
X167172Y482852D01*
X166259Y482241D01*
X165648Y481328D01*
X165434Y480250D01*
X165648Y479172D01*
X166259Y478259D01*
X167172Y477648D01*
X168250Y477434D01*
X169328Y477648D01*
X170241Y478259D01*
X170852Y479172D01*
X171066Y480250D01*
X170852Y481328D01*
X170241Y482241D01*
X169328Y482852D01*
X168250Y483066D01*
D02*
G37*
G36*
X284500Y478596D02*
X282837Y478265D01*
X281427Y477323D01*
X280485Y475913D01*
X280154Y474250D01*
X280309Y473474D01*
X279760Y472986D01*
X279182Y472631D01*
X278250Y472816D01*
X277172Y472602D01*
X276259Y471991D01*
X275648Y471078D01*
X275434Y470000D01*
X275648Y468922D01*
X276259Y468009D01*
X277172Y467398D01*
X278250Y467184D01*
X279328Y467398D01*
X280241Y468009D01*
X280852Y468922D01*
X281066Y470000D01*
X282234Y470638D01*
X282837Y470235D01*
X284500Y469905D01*
X286163Y470235D01*
X287573Y471177D01*
X288515Y472587D01*
X288845Y474250D01*
X288515Y475913D01*
X287573Y477323D01*
X286163Y478265D01*
X284500Y478596D01*
D02*
G37*
G36*
X331250Y469816D02*
X330172Y469602D01*
X329259Y468991D01*
X328648Y468078D01*
X328434Y467000D01*
X328648Y465922D01*
X329259Y465009D01*
X330172Y464398D01*
X331250Y464184D01*
X332328Y464398D01*
X333241Y465009D01*
X333852Y465922D01*
X334066Y467000D01*
X333852Y468078D01*
X333241Y468991D01*
X332328Y469602D01*
X331250Y469816D01*
D02*
G37*
G36*
X199500Y461316D02*
X198422Y461102D01*
X197509Y460491D01*
X196898Y459578D01*
X196684Y458500D01*
X196898Y457422D01*
X197509Y456509D01*
X198422Y455898D01*
X199500Y455684D01*
X200578Y455898D01*
X201491Y456509D01*
X202102Y457422D01*
X202316Y458500D01*
X202102Y459578D01*
X201491Y460491D01*
X200578Y461102D01*
X199500Y461316D01*
D02*
G37*
G36*
X286420Y429896D02*
X285342Y429682D01*
X284429Y429071D01*
X283818Y428158D01*
X283722Y427674D01*
X275511Y421670D01*
X222059D01*
X222051Y421681D01*
X221138Y422292D01*
X220060Y422506D01*
X218982Y422292D01*
X218069Y421681D01*
X217458Y420768D01*
X217244Y419690D01*
X217381Y419000D01*
X216637Y417730D01*
X200484D01*
X200361Y418348D01*
X199751Y419262D01*
X198837Y419872D01*
X197760Y420087D01*
X196682Y419872D01*
X195768Y419262D01*
X195158Y418348D01*
X194944Y417270D01*
X195158Y416193D01*
X195768Y415279D01*
X196682Y414669D01*
X197617Y414482D01*
X197907Y414193D01*
X197907Y414193D01*
X198579Y413744D01*
X199372Y413586D01*
X199372Y413586D01*
X290908D01*
X290908Y413586D01*
X291701Y413744D01*
X292373Y414193D01*
X302392Y424212D01*
X303328Y424398D01*
X304241Y425009D01*
X304852Y425922D01*
X305066Y427000D01*
X304852Y428078D01*
X304241Y428991D01*
X303328Y429602D01*
X302250Y429816D01*
X301172Y429602D01*
X300259Y428991D01*
X299648Y428078D01*
X299462Y427142D01*
X290050Y417730D01*
X279295D01*
X278880Y419000D01*
X286152Y424317D01*
X286420Y424264D01*
X287498Y424478D01*
X288411Y425089D01*
X289022Y426002D01*
X289236Y427080D01*
X289022Y428158D01*
X288411Y429071D01*
X287498Y429682D01*
X286420Y429896D01*
D02*
G37*
%LPD*%
D67*
X220060Y419690D02*
X220152Y419598D01*
X276188D01*
X286420Y427080D01*
X290908Y415658D02*
X302250Y427000D01*
X199372Y415658D02*
X290908D01*
X197760Y417270D02*
X199372Y415658D01*
X177334Y578786D02*
X182048Y583500D01*
X177334Y559114D02*
Y578786D01*
X182048Y583500D02*
X210500D01*
X174032Y580154D02*
X182628Y588750D01*
X174032Y560482D02*
Y580154D01*
X182628Y588750D02*
X211250D01*
X329926Y541526D02*
X353017D01*
X321670Y549782D02*
X329926Y541526D01*
X192500Y437500D02*
Y467750D01*
X178500Y481750D02*
X192500Y467750D01*
X181500Y452000D02*
X186500Y447000D01*
Y418750D02*
Y447000D01*
X218500Y530500D02*
Y543750D01*
X228032Y553282D01*
X235565D01*
X236065Y553782D01*
X310170D01*
X314170Y549782D01*
X178000Y509500D02*
X224500Y556000D01*
X222032Y560282D02*
X224750Y563000D01*
X217548Y556250D02*
X218250D01*
X207467Y560282D02*
X222032D01*
X178000Y503072D02*
Y509500D01*
Y503072D02*
X179738Y501334D01*
X314170Y549782D02*
X321670D01*
X310702Y545750D02*
X320000D01*
X310420Y545468D02*
X310702Y545750D01*
X294580Y545468D02*
X310420D01*
X267532Y520234D02*
X292766Y545468D01*
X294580D01*
X294580Y545468D01*
X167758Y507275D02*
X168523D01*
X168548Y507250D01*
X161014Y511307D02*
X166557D01*
X145458Y495750D02*
X161014Y511307D01*
X166557D02*
X167750Y512500D01*
X168548Y507250D02*
X217548Y556250D01*
X202992Y555807D02*
X207467Y560282D01*
X224537Y542000D02*
X229239D01*
X223511Y543027D02*
X224537Y542000D01*
X183750Y456500D02*
Y466500D01*
Y456500D02*
X185750Y454500D01*
X178500Y481750D02*
Y494750D01*
X267532Y520080D02*
Y520234D01*
X253920Y506468D02*
X267532Y520080D01*
X250990Y506468D02*
X253920D01*
X234272Y489750D02*
X250990Y506468D01*
X234250Y489750D02*
X234272D01*
X241532Y502712D02*
Y529707D01*
X229239Y542000D02*
X241532Y529707D01*
X237500Y498680D02*
X241532Y502712D01*
X228282Y504660D02*
X237500Y513878D01*
X228282Y502330D02*
Y504660D01*
X225920Y499968D02*
X228282Y502330D01*
X223590Y499968D02*
X225920D01*
X213538Y489916D02*
X223590Y499968D01*
X237500Y513878D02*
Y524000D01*
X206250Y490000D02*
X208128D01*
X211346Y493218D01*
X212951Y489916D02*
X213538D01*
X211346Y493218D02*
X212170D01*
X214532Y495580D01*
Y500782D01*
X224500Y510750D01*
X214510Y485774D02*
X215300D01*
X229416Y471657D01*
X210478Y484104D02*
Y487444D01*
X212951Y489916D01*
X210478Y484104D02*
X212840Y481742D01*
X214662D01*
X218500Y477904D01*
Y474750D02*
Y477904D01*
X295286Y448750D02*
X296264Y447772D01*
X255138Y443740D02*
X308490D01*
X229416Y469462D02*
X255138Y443740D01*
X308490D02*
X308750Y444000D01*
X254798Y448750D02*
X295286D01*
X232718Y470830D02*
X254798Y448750D01*
X232718Y470830D02*
Y475282D01*
X221250Y486750D02*
X232718Y475282D01*
X229416Y469462D02*
Y471657D01*
X175218Y556998D02*
X177334Y559114D01*
X175218Y523718D02*
Y556998D01*
X172250Y520750D02*
X175218Y523718D01*
X136650Y495750D02*
X145458D01*
X179729Y555807D02*
X202992D01*
X167750Y554200D02*
X174032Y560482D01*
X167750Y512500D02*
Y554200D01*
D68*
X218500Y474750D02*
D03*
D69*
X136400Y537250D02*
D03*
X130050D02*
D03*
X123700Y537250D02*
D03*
X117350D02*
D03*
X111000Y537250D02*
D03*
X111000Y524550D02*
D03*
X117350Y524550D02*
D03*
X123700Y524550D02*
D03*
X130050D02*
D03*
X136400Y524550D02*
D03*
X136400Y530900D02*
D03*
X130050Y530900D02*
D03*
X111000Y530900D02*
D03*
X117350Y530900D02*
D03*
X111250Y504550D02*
D03*
X117600D02*
D03*
X123950Y504550D02*
D03*
X130300D02*
D03*
X136650Y504550D02*
D03*
X136650Y517250D02*
D03*
X130300Y517250D02*
D03*
X123950Y517250D02*
D03*
X117600D02*
D03*
X111250Y517250D02*
D03*
X111250Y510900D02*
D03*
X117600Y510900D02*
D03*
X136650Y510900D02*
D03*
X130300D02*
D03*
X111250Y483050D02*
D03*
X117600D02*
D03*
X123950Y483050D02*
D03*
X130300D02*
D03*
X136650Y483050D02*
D03*
X136650Y495750D02*
D03*
X130300Y495750D02*
D03*
X123950Y495750D02*
D03*
X117600D02*
D03*
X111250Y495750D02*
D03*
X111250Y489400D02*
D03*
X117600Y489400D02*
D03*
X136650Y489400D02*
D03*
X130300D02*
D03*
X363750Y532250D02*
D03*
Y538500D02*
D03*
X370000Y532250D02*
D03*
Y538500D02*
D03*
X376250Y532250D02*
D03*
Y538500D02*
D03*
X373250Y488250D02*
D03*
Y482000D02*
D03*
X367000D02*
D03*
Y488250D02*
D03*
X360750Y482000D02*
D03*
Y488250D02*
D03*
X385500Y476250D02*
D03*
Y482500D02*
D03*
Y488750D02*
D03*
X398000D02*
D03*
X391750D02*
D03*
X398000Y482500D02*
D03*
X391750D02*
D03*
Y476250D02*
D03*
X398000D02*
D03*
X391750Y470000D02*
D03*
X398000D02*
D03*
X386000Y540500D02*
D03*
Y534250D02*
D03*
X392250D02*
D03*
X398500Y534000D02*
D03*
X392250Y540500D02*
D03*
X398500Y540250D02*
D03*
X392250Y546750D02*
D03*
X398500D02*
D03*
X220060Y419690D02*
D03*
X197760Y417270D02*
D03*
X302250Y427000D02*
D03*
X182750Y578500D02*
D03*
X353017Y541526D02*
D03*
X323000Y461500D02*
D03*
X181500Y452000D02*
D03*
X218500Y530500D02*
D03*
X224500Y556000D02*
D03*
X224750Y563000D02*
D03*
X218250Y556250D02*
D03*
X283250Y543250D02*
D03*
X277500Y536500D02*
D03*
X309738Y528012D02*
D03*
X286420Y427080D02*
D03*
X179738Y501334D02*
D03*
X167758Y507275D02*
D03*
X223511Y543027D02*
D03*
X185750Y454500D02*
D03*
X178500Y494750D02*
D03*
X192500Y437500D02*
D03*
X186500Y418750D02*
D03*
X183750Y466500D02*
D03*
X327300Y482750D02*
D03*
X324450Y590800D02*
D03*
X321250Y559750D02*
D03*
X320000Y545750D02*
D03*
X234250Y489750D02*
D03*
X237500Y498680D02*
D03*
X206250Y490000D02*
D03*
X214510Y485774D02*
D03*
X236762Y548777D02*
D03*
X231250Y517500D02*
D03*
X231000Y530000D02*
D03*
X245500Y476000D02*
D03*
X237500Y524000D02*
D03*
X296264Y447772D02*
D03*
X221250Y486750D02*
D03*
X308750Y444000D02*
D03*
X201260Y468773D02*
D03*
X224500Y510750D02*
D03*
X150000Y486750D02*
D03*
X153250Y510500D02*
D03*
X158000Y538000D02*
D03*
X210500Y497250D02*
D03*
X189250Y535750D02*
D03*
X202260Y560777D02*
D03*
X250250Y497250D02*
D03*
X270250Y472000D02*
D03*
X290000Y483000D02*
D03*
X289250Y491250D02*
D03*
X282750Y510750D02*
D03*
X276750Y523750D02*
D03*
X276250Y549750D02*
D03*
X263500Y521750D02*
D03*
Y536500D02*
D03*
Y549500D02*
D03*
X250500Y549500D02*
D03*
Y536500D02*
D03*
X250500Y521750D02*
D03*
X250250Y569000D02*
D03*
X172250Y520750D02*
D03*
X179729Y555807D02*
D03*
X210500Y583500D02*
D03*
X167750Y512500D02*
D03*
X211250Y588750D02*
D03*
D70*
X123700Y530900D02*
D03*
X123950Y510900D02*
D03*
Y489400D02*
D03*
D71*
X388264Y589660D02*
D03*
X394750Y573500D02*
D03*
X387910Y557486D02*
D03*
X371750Y551000D02*
D03*
X355736Y557840D02*
D03*
X349250Y574000D02*
D03*
X356090Y590014D02*
D03*
X372250Y596500D02*
D03*
X158264Y589660D02*
D03*
X164750Y573500D02*
D03*
X157910Y557486D02*
D03*
X141750Y551000D02*
D03*
X125736Y557840D02*
D03*
X119250Y574000D02*
D03*
X126090Y590014D02*
D03*
X142250Y596500D02*
D03*
Y466250D02*
D03*
X126090Y459763D02*
D03*
X119250Y443750D02*
D03*
X125736Y427590D02*
D03*
X141750Y420750D02*
D03*
X157910Y427236D02*
D03*
X164750Y443250D02*
D03*
X158264Y459410D02*
D03*
X388264D02*
D03*
X394750Y443250D02*
D03*
X387910Y427236D02*
D03*
X371750Y420750D02*
D03*
X355736Y427590D02*
D03*
X349250Y443750D02*
D03*
X356090Y459763D02*
D03*
X372250Y466250D02*
D03*
D72*
X336750Y433000D02*
D03*
X257000Y429250D02*
D03*
X176250Y431000D02*
D03*
D73*
X142000Y573750D02*
D03*
X372000D02*
D03*
X142000Y443500D02*
D03*
X372000D02*
D03*
M02*
