G04*
G04 #@! TF.GenerationSoftware,Altium Limited,Altium Designer,18.0.9 (584)*
G04*
G04 Layer_Physical_Order=2*
G04 Layer_Color=36540*
%FSLAX44Y44*%
%MOMM*%
G71*
G01*
G75*
%ADD15C,0.1500*%
%ADD67C,0.2540*%
%ADD69C,0.4000*%
G04:AMPARAMS|DCode=70|XSize=3.048mm|YSize=1.778mm|CornerRadius=0.4445mm|HoleSize=0mm|Usage=FLASHONLY|Rotation=0.000|XOffset=0mm|YOffset=0mm|HoleType=Round|Shape=RoundedRectangle|*
%AMROUNDEDRECTD70*
21,1,3.0480,0.8890,0,0,0.0*
21,1,2.1590,1.7780,0,0,0.0*
1,1,0.8890,1.0795,-0.4445*
1,1,0.8890,-1.0795,-0.4445*
1,1,0.8890,-1.0795,0.4445*
1,1,0.8890,1.0795,0.4445*
%
%ADD70ROUNDEDRECTD70*%
%ADD71C,0.7600*%
%ADD72C,1.5240*%
%ADD73C,6.0000*%
G36*
X178134Y594500D02*
X178534Y593534D01*
X179500Y593134D01*
X321160D01*
X321848Y591878D01*
X321634Y590800D01*
X321848Y589722D01*
X322459Y588809D01*
X323372Y588198D01*
X324450Y587984D01*
X325528Y588198D01*
X326441Y588809D01*
X327052Y589722D01*
X327266Y590800D01*
X327052Y591878D01*
X327740Y593134D01*
X339750D01*
X340716Y593534D01*
X341116Y594500D01*
Y603821D01*
X360895D01*
X361148Y602551D01*
X357991Y601244D01*
X353863Y598714D01*
X350181Y595569D01*
X347036Y591887D01*
X344506Y587759D01*
X342653Y583285D01*
X341842Y579906D01*
X340572Y580056D01*
Y580500D01*
X340414Y581293D01*
X339965Y581965D01*
X339965Y581965D01*
X337893Y584037D01*
X337221Y584486D01*
X336428Y584644D01*
X336428Y584644D01*
X310299D01*
X309506Y585174D01*
X308428Y585388D01*
X307350Y585174D01*
X306557Y584644D01*
X245139D01*
X244828Y584852D01*
X243750Y585066D01*
X242672Y584852D01*
X241759Y584241D01*
X241148Y583328D01*
X240934Y582250D01*
X241023Y581801D01*
X239853Y581175D01*
X233581Y587447D01*
X232423Y587927D01*
X229077D01*
X227919Y587447D01*
X225341Y584869D01*
X224537Y585029D01*
X223459Y584815D01*
X222545Y584205D01*
X221935Y583291D01*
X221721Y582213D01*
X221935Y581136D01*
X222545Y580222D01*
X223459Y579612D01*
X224537Y579397D01*
X225614Y579612D01*
X226528Y580222D01*
X226950Y580854D01*
X227248Y580933D01*
X227970Y580944D01*
X228361Y580854D01*
X228759Y580259D01*
X229672Y579648D01*
X230750Y579434D01*
X231168Y579517D01*
X237145Y573541D01*
X238302Y573061D01*
X250001D01*
X250126Y571791D01*
X249172Y571602D01*
X248259Y570991D01*
X247648Y570078D01*
X247434Y569000D01*
X247648Y567922D01*
X248259Y567009D01*
X249172Y566398D01*
X250250Y566184D01*
X251328Y566398D01*
X252241Y567009D01*
X252852Y567922D01*
X253066Y569000D01*
X252852Y570078D01*
X252241Y570991D01*
X251328Y571602D01*
X250374Y571791D01*
X250499Y573061D01*
X301874D01*
X306017Y568918D01*
X305934Y568500D01*
X306148Y567422D01*
X306759Y566509D01*
X307672Y565898D01*
X308750Y565684D01*
X309828Y565898D01*
X310741Y566509D01*
X311352Y567422D01*
X311566Y568500D01*
X311352Y569578D01*
X310741Y570491D01*
X309828Y571102D01*
X309189Y571229D01*
X308982Y571560D01*
X309343Y572926D01*
X310256Y573537D01*
X310867Y574450D01*
X311081Y575528D01*
X310867Y576606D01*
X310256Y577519D01*
X309343Y578130D01*
X308265Y578344D01*
X307727Y578237D01*
X307338Y578678D01*
X308006Y579840D01*
X308428Y579756D01*
X309506Y579970D01*
X310299Y580500D01*
X335570D01*
X336428Y579642D01*
Y563688D01*
X336428Y563688D01*
X336586Y562895D01*
X337035Y562223D01*
X337896Y561362D01*
Y560482D01*
X337896Y560482D01*
X338054Y559689D01*
X338503Y559017D01*
X338727Y558793D01*
X338356Y557368D01*
X337771Y556977D01*
X337160Y556064D01*
X336946Y554986D01*
X337160Y553908D01*
X337603Y553245D01*
X337573Y553173D01*
Y533617D01*
X338053Y532460D01*
X338125Y532387D01*
Y521238D01*
X338605Y520081D01*
X351568Y507118D01*
X352725Y506638D01*
X359039D01*
X359276Y506283D01*
X360190Y505673D01*
X361268Y505459D01*
X362345Y505673D01*
X363259Y506283D01*
X363869Y507197D01*
X364084Y508275D01*
X363869Y509352D01*
X363259Y510266D01*
X362345Y510877D01*
X361268Y511091D01*
X360190Y510877D01*
X359276Y510266D01*
X359039Y509911D01*
X353403D01*
X341399Y521916D01*
Y533031D01*
X341496Y533124D01*
X342499Y533727D01*
X361033Y515193D01*
X360990Y514979D01*
X361204Y513901D01*
X361815Y512988D01*
X362728Y512377D01*
X363806Y512163D01*
X364884Y512377D01*
X365797Y512988D01*
X366408Y513901D01*
X366622Y514979D01*
X366408Y516057D01*
X365797Y516970D01*
X364884Y517581D01*
X364868Y517584D01*
Y518879D01*
X364967Y518898D01*
X365880Y519509D01*
X366491Y520422D01*
X366705Y521500D01*
X366491Y522578D01*
X365880Y523491D01*
X364967Y524102D01*
X364031Y524288D01*
X350403Y537916D01*
X350492Y538364D01*
X351903Y538949D01*
X351940Y538925D01*
X353017Y538710D01*
X354095Y538925D01*
X355009Y539535D01*
X355619Y540449D01*
X355833Y541526D01*
X355619Y542604D01*
X355009Y543518D01*
X354095Y544128D01*
X353017Y544342D01*
X351940Y544128D01*
X351092Y543562D01*
X350726Y543638D01*
X349822Y544002D01*
Y550567D01*
X351092Y551153D01*
X353863Y548786D01*
X357991Y546256D01*
X362465Y544403D01*
X367173Y543273D01*
X372000Y542893D01*
X376827Y543273D01*
X381535Y544403D01*
X386009Y546256D01*
X388323Y547674D01*
X389460Y546881D01*
X389434Y546750D01*
X389648Y545672D01*
X390259Y544759D01*
X390899Y544331D01*
X390999Y543880D01*
Y543370D01*
X390899Y542919D01*
X390259Y542491D01*
X389831Y541851D01*
X389380Y541750D01*
X388870D01*
X388419Y541851D01*
X387991Y542491D01*
X387078Y543102D01*
X386000Y543316D01*
X384922Y543102D01*
X384009Y542491D01*
X383398Y541578D01*
X383184Y540500D01*
X383398Y539422D01*
X384009Y538509D01*
X384649Y538081D01*
X384749Y537630D01*
Y537120D01*
X384649Y536669D01*
X384009Y536241D01*
X383398Y535328D01*
X383184Y534250D01*
X383398Y533172D01*
X384009Y532259D01*
X384922Y531648D01*
X386000Y531434D01*
X387078Y531648D01*
X387991Y532259D01*
X388419Y532900D01*
X388870Y533000D01*
X389380D01*
X389831Y532900D01*
X390259Y532259D01*
X391172Y531648D01*
X392250Y531434D01*
X393328Y531648D01*
X394241Y532259D01*
X394622Y532828D01*
X395300Y532878D01*
X395872Y532818D01*
X395997Y532775D01*
X396509Y532009D01*
X397422Y531398D01*
X398500Y531184D01*
X399578Y531398D01*
X400491Y532009D01*
X401102Y532922D01*
X401316Y534000D01*
X401102Y535078D01*
X400491Y535991D01*
X399851Y536419D01*
X399750Y536870D01*
Y537380D01*
X399851Y537831D01*
X400491Y538259D01*
X401102Y539172D01*
X401316Y540250D01*
X401102Y541328D01*
X400491Y542241D01*
X399578Y542852D01*
X399574Y542853D01*
Y544147D01*
X399578Y544148D01*
X400491Y544759D01*
X401102Y545672D01*
X401316Y546750D01*
X401102Y547828D01*
X400491Y548741D01*
X399578Y549352D01*
X398500Y549566D01*
X397422Y549352D01*
X396509Y548741D01*
X396081Y548101D01*
X395630Y548000D01*
X395120D01*
X394669Y548101D01*
X394241Y548741D01*
X393328Y549352D01*
X392863Y549444D01*
X392507Y550810D01*
X393819Y551931D01*
X396964Y555613D01*
X399494Y559741D01*
X401347Y564215D01*
X402477Y568923D01*
X402857Y573750D01*
X402477Y578577D01*
X401347Y583285D01*
X399494Y587759D01*
X396964Y591887D01*
X393819Y595569D01*
X390137Y598714D01*
X386009Y601244D01*
X382852Y602551D01*
X383105Y603821D01*
X405634D01*
Y409866D01*
X108366D01*
Y480244D01*
X108444Y480315D01*
X109636Y480807D01*
X110172Y480448D01*
X110678Y480348D01*
X111123Y480050D01*
X113155Y479646D01*
X134745D01*
X136777Y480050D01*
X137222Y480348D01*
X137728Y480448D01*
X138641Y481059D01*
X139252Y481972D01*
X139352Y482478D01*
X139650Y482923D01*
X140054Y484955D01*
Y493845D01*
X139650Y495877D01*
X139352Y496322D01*
X139252Y496828D01*
X138641Y497741D01*
X137728Y498352D01*
X137222Y498452D01*
X136777Y498750D01*
X134745Y499154D01*
X113155D01*
X111123Y498750D01*
X110678Y498452D01*
X110172Y498352D01*
X109636Y497993D01*
X108444Y498485D01*
X108366Y498556D01*
Y501744D01*
X108444Y501815D01*
X109636Y502307D01*
X110172Y501948D01*
X110678Y501848D01*
X111123Y501550D01*
X113155Y501146D01*
X134745D01*
X136777Y501550D01*
X137222Y501848D01*
X137728Y501948D01*
X138641Y502559D01*
X139252Y503472D01*
X139352Y503978D01*
X139650Y504423D01*
X140054Y506455D01*
Y515345D01*
X139650Y517377D01*
X139352Y517822D01*
X139252Y518328D01*
X138641Y519241D01*
X137728Y519852D01*
X137222Y519952D01*
X136777Y520250D01*
X134745Y520654D01*
X113155D01*
X111123Y520250D01*
X110678Y519952D01*
X110172Y519852D01*
X109636Y519493D01*
X108444Y519985D01*
X108366Y520056D01*
Y604446D01*
X132646D01*
X132796Y603176D01*
X132465Y603097D01*
X127991Y601244D01*
X123863Y598714D01*
X120181Y595569D01*
X117036Y591887D01*
X114506Y587759D01*
X112653Y583285D01*
X111523Y578577D01*
X111143Y573750D01*
X111523Y568923D01*
X112653Y564215D01*
X114506Y559741D01*
X117036Y555613D01*
X120181Y551931D01*
X123863Y548786D01*
X127991Y546256D01*
X132465Y544403D01*
X137173Y543273D01*
X142000Y542893D01*
X146827Y543273D01*
X151535Y544403D01*
X156009Y546256D01*
X160137Y548786D01*
X163819Y551931D01*
X166964Y555613D01*
X169494Y559741D01*
X171347Y564215D01*
X172477Y568923D01*
X172857Y573750D01*
X172477Y578577D01*
X171347Y583285D01*
X169494Y587759D01*
X166964Y591887D01*
X163819Y595569D01*
X160137Y598714D01*
X156009Y601244D01*
X151535Y603097D01*
X151203Y603176D01*
X151354Y604446D01*
X178134D01*
Y594500D01*
D02*
G37*
%LPC*%
G36*
X211250Y591566D02*
X210172Y591352D01*
X209259Y590741D01*
X208648Y589828D01*
X208434Y588750D01*
X208648Y587672D01*
X208961Y587205D01*
X209198Y586637D01*
X208689Y585612D01*
X208509Y585491D01*
X207898Y584578D01*
X207684Y583500D01*
X207898Y582422D01*
X208509Y581509D01*
X209422Y580898D01*
X210500Y580684D01*
X211578Y580898D01*
X212491Y581509D01*
X213102Y582422D01*
X213316Y583500D01*
X213102Y584578D01*
X212789Y585046D01*
X212552Y585613D01*
X213061Y586638D01*
X213241Y586759D01*
X213852Y587672D01*
X214066Y588750D01*
X213852Y589828D01*
X213241Y590741D01*
X212328Y591352D01*
X211250Y591566D01*
D02*
G37*
G36*
X182750Y581316D02*
X181672Y581102D01*
X180759Y580491D01*
X180148Y579578D01*
X179934Y578500D01*
X180148Y577422D01*
X180759Y576509D01*
X181672Y575898D01*
X182750Y575684D01*
X183828Y575898D01*
X184741Y576509D01*
X185352Y577422D01*
X185566Y578500D01*
X185352Y579578D01*
X184741Y580491D01*
X183828Y581102D01*
X182750Y581316D01*
D02*
G37*
G36*
X224750Y565816D02*
X223672Y565602D01*
X222759Y564991D01*
X222148Y564078D01*
X221934Y563000D01*
X222148Y561922D01*
X222759Y561009D01*
X223672Y560398D01*
X224750Y560184D01*
X225828Y560398D01*
X226741Y561009D01*
X227352Y561922D01*
X227566Y563000D01*
X227352Y564078D01*
X226741Y564991D01*
X225828Y565602D01*
X224750Y565816D01*
D02*
G37*
G36*
X202260Y563593D02*
X201182Y563379D01*
X200269Y562769D01*
X199658Y561855D01*
X199444Y560777D01*
X199658Y559700D01*
X200269Y558786D01*
X201182Y558176D01*
X202260Y557961D01*
X203337Y558176D01*
X204251Y558786D01*
X204862Y559700D01*
X205076Y560777D01*
X204862Y561855D01*
X204251Y562769D01*
X203337Y563379D01*
X202260Y563593D01*
D02*
G37*
G36*
X321250Y562566D02*
X320172Y562352D01*
X319259Y561741D01*
X318648Y560828D01*
X318434Y559750D01*
X318648Y558672D01*
X319259Y557759D01*
X320172Y557148D01*
X321250Y556934D01*
X322328Y557148D01*
X323241Y557759D01*
X323852Y558672D01*
X324066Y559750D01*
X323852Y560828D01*
X323241Y561741D01*
X322328Y562352D01*
X321250Y562566D01*
D02*
G37*
G36*
X218250Y559066D02*
X217172Y558852D01*
X216259Y558241D01*
X215648Y557328D01*
X215434Y556250D01*
X215648Y555172D01*
X216259Y554259D01*
X217172Y553648D01*
X218250Y553434D01*
X219328Y553648D01*
X220241Y554259D01*
X220622Y554828D01*
X221300Y554878D01*
X221872Y554818D01*
X221997Y554774D01*
X222509Y554009D01*
X223422Y553398D01*
X224500Y553184D01*
X225578Y553398D01*
X226491Y554009D01*
X227102Y554922D01*
X227316Y556000D01*
X227102Y557078D01*
X226491Y557991D01*
X225578Y558602D01*
X224500Y558816D01*
X223422Y558602D01*
X222509Y557991D01*
X222128Y557421D01*
X221450Y557372D01*
X220878Y557432D01*
X220753Y557476D01*
X220241Y558241D01*
X219328Y558852D01*
X218250Y559066D01*
D02*
G37*
G36*
X276250Y552566D02*
X275172Y552352D01*
X274259Y551741D01*
X273648Y550828D01*
X273434Y549750D01*
X273648Y548672D01*
X274259Y547759D01*
X275172Y547148D01*
X276250Y546934D01*
X277328Y547148D01*
X278241Y547759D01*
X278852Y548672D01*
X279066Y549750D01*
X278852Y550828D01*
X278241Y551741D01*
X277328Y552352D01*
X276250Y552566D01*
D02*
G37*
G36*
X250500Y552316D02*
X249422Y552102D01*
X248509Y551491D01*
X247898Y550578D01*
X247684Y549500D01*
X247898Y548422D01*
X248509Y547509D01*
X249422Y546898D01*
X250500Y546684D01*
X251578Y546898D01*
X252491Y547509D01*
X253102Y548422D01*
X253316Y549500D01*
X253102Y550578D01*
X252491Y551491D01*
X251578Y552102D01*
X250500Y552316D01*
D02*
G37*
G36*
X263500Y552316D02*
X262422Y552102D01*
X261509Y551491D01*
X260898Y550578D01*
X260684Y549500D01*
X260898Y548422D01*
X261509Y547509D01*
X262422Y546898D01*
X263500Y546684D01*
X264578Y546898D01*
X265491Y547509D01*
X266102Y548422D01*
X266316Y549500D01*
X266102Y550578D01*
X265491Y551491D01*
X264578Y552102D01*
X263500Y552316D01*
D02*
G37*
G36*
X236762Y551593D02*
X235684Y551379D01*
X234770Y550768D01*
X234160Y549855D01*
X233946Y548777D01*
X234160Y547699D01*
X234770Y546786D01*
X235684Y546175D01*
X236762Y545961D01*
X237839Y546175D01*
X238753Y546786D01*
X239363Y547699D01*
X239578Y548777D01*
X239363Y549855D01*
X238753Y550768D01*
X237839Y551379D01*
X236762Y551593D01*
D02*
G37*
G36*
X320000Y548566D02*
X318922Y548352D01*
X318009Y547741D01*
X317398Y546828D01*
X317184Y545750D01*
X317398Y544672D01*
X318009Y543759D01*
X318922Y543148D01*
X320000Y542934D01*
X321078Y543148D01*
X321991Y543759D01*
X322602Y544672D01*
X322816Y545750D01*
X322602Y546828D01*
X321991Y547741D01*
X321078Y548352D01*
X320000Y548566D01*
D02*
G37*
G36*
X283250Y546066D02*
X282172Y545852D01*
X281259Y545241D01*
X280648Y544328D01*
X280434Y543250D01*
X280648Y542172D01*
X281259Y541259D01*
X282172Y540648D01*
X283250Y540434D01*
X284328Y540648D01*
X285241Y541259D01*
X285852Y542172D01*
X286066Y543250D01*
X285852Y544328D01*
X285241Y545241D01*
X284328Y545852D01*
X283250Y546066D01*
D02*
G37*
G36*
X223511Y545843D02*
X222433Y545628D01*
X221520Y545018D01*
X220909Y544104D01*
X220695Y543027D01*
X220909Y541949D01*
X221520Y541035D01*
X222433Y540425D01*
X223511Y540210D01*
X224589Y540425D01*
X225502Y541035D01*
X226113Y541949D01*
X226327Y543027D01*
X226113Y544104D01*
X225502Y545018D01*
X224589Y545628D01*
X223511Y545843D01*
D02*
G37*
G36*
X376250Y541316D02*
X375172Y541102D01*
X374259Y540491D01*
X373831Y539851D01*
X373380Y539750D01*
X372870D01*
X372419Y539851D01*
X371991Y540491D01*
X371078Y541102D01*
X370000Y541316D01*
X368922Y541102D01*
X368009Y540491D01*
X367581Y539851D01*
X367130Y539750D01*
X366620D01*
X366169Y539851D01*
X365741Y540491D01*
X364828Y541102D01*
X363750Y541316D01*
X362672Y541102D01*
X361759Y540491D01*
X361148Y539578D01*
X360934Y538500D01*
X361148Y537422D01*
X361759Y536509D01*
X362399Y536081D01*
X362500Y535630D01*
Y535120D01*
X362399Y534669D01*
X361759Y534241D01*
X361148Y533328D01*
X360934Y532250D01*
X361148Y531172D01*
X361759Y530259D01*
X362672Y529648D01*
X363750Y529434D01*
X364828Y529648D01*
X365741Y530259D01*
X366169Y530899D01*
X366620Y530999D01*
X367130D01*
X367581Y530899D01*
X368009Y530259D01*
X368922Y529648D01*
X370000Y529434D01*
X371078Y529648D01*
X371991Y530259D01*
X372419Y530899D01*
X372870Y530999D01*
X373380D01*
X373831Y530899D01*
X374259Y530259D01*
X375172Y529648D01*
X376250Y529434D01*
X377328Y529648D01*
X378241Y530259D01*
X378852Y531172D01*
X379066Y532250D01*
X378852Y533328D01*
X378241Y534241D01*
X377601Y534669D01*
X377500Y535120D01*
Y535630D01*
X377601Y536081D01*
X378241Y536509D01*
X378852Y537422D01*
X379066Y538500D01*
X378852Y539578D01*
X378241Y540491D01*
X377328Y541102D01*
X376250Y541316D01*
D02*
G37*
G36*
X158000Y540816D02*
X156922Y540602D01*
X156009Y539991D01*
X155398Y539078D01*
X155184Y538000D01*
X155398Y536922D01*
X156009Y536009D01*
X156922Y535398D01*
X158000Y535184D01*
X159078Y535398D01*
X159991Y536009D01*
X160602Y536922D01*
X160816Y538000D01*
X160602Y539078D01*
X159991Y539991D01*
X159078Y540602D01*
X158000Y540816D01*
D02*
G37*
G36*
X263500Y539316D02*
X262422Y539102D01*
X261509Y538491D01*
X260898Y537578D01*
X260684Y536500D01*
X260898Y535422D01*
X261509Y534509D01*
X262422Y533898D01*
X263500Y533684D01*
X264578Y533898D01*
X265491Y534509D01*
X266102Y535422D01*
X266316Y536500D01*
X266102Y537578D01*
X265491Y538491D01*
X264578Y539102D01*
X263500Y539316D01*
D02*
G37*
G36*
X250500D02*
X249422Y539102D01*
X248509Y538491D01*
X247898Y537578D01*
X247684Y536500D01*
X247898Y535422D01*
X248509Y534509D01*
X249422Y533898D01*
X250500Y533684D01*
X251578Y533898D01*
X252491Y534509D01*
X253102Y535422D01*
X253316Y536500D01*
X253102Y537578D01*
X252491Y538491D01*
X251578Y539102D01*
X250500Y539316D01*
D02*
G37*
G36*
X277500Y539316D02*
X276422Y539102D01*
X275509Y538491D01*
X274898Y537578D01*
X274684Y536500D01*
X274898Y535422D01*
X275509Y534509D01*
X276422Y533898D01*
X277500Y533684D01*
X278578Y533898D01*
X279491Y534509D01*
X280102Y535422D01*
X280316Y536500D01*
X280102Y537578D01*
X279491Y538491D01*
X278578Y539102D01*
X277500Y539316D01*
D02*
G37*
G36*
X189250Y538566D02*
X188172Y538352D01*
X187259Y537741D01*
X186648Y536828D01*
X186434Y535750D01*
X186648Y534672D01*
X187259Y533759D01*
X188172Y533148D01*
X189250Y532934D01*
X190328Y533148D01*
X191241Y533759D01*
X191852Y534672D01*
X192066Y535750D01*
X191852Y536828D01*
X191241Y537741D01*
X190328Y538352D01*
X189250Y538566D01*
D02*
G37*
G36*
X218500Y533316D02*
X217422Y533102D01*
X216509Y532491D01*
X215898Y531578D01*
X215684Y530500D01*
X215898Y529422D01*
X216509Y528509D01*
X217422Y527898D01*
X218500Y527684D01*
X219578Y527898D01*
X220491Y528509D01*
X221102Y529422D01*
X221316Y530500D01*
X221102Y531578D01*
X220491Y532491D01*
X219578Y533102D01*
X218500Y533316D01*
D02*
G37*
G36*
X231000Y532816D02*
X229922Y532602D01*
X229009Y531991D01*
X228398Y531078D01*
X228184Y530000D01*
X228398Y528922D01*
X229009Y528009D01*
X229922Y527398D01*
X231000Y527184D01*
X232078Y527398D01*
X232991Y528009D01*
X233602Y528922D01*
X233816Y530000D01*
X233602Y531078D01*
X232991Y531991D01*
X232078Y532602D01*
X231000Y532816D01*
D02*
G37*
G36*
X309738Y530828D02*
X308660Y530614D01*
X307747Y530003D01*
X307136Y529090D01*
X306922Y528012D01*
X307136Y526934D01*
X307747Y526021D01*
X308660Y525410D01*
X309738Y525196D01*
X310816Y525410D01*
X311729Y526021D01*
X312340Y526934D01*
X312554Y528012D01*
X312340Y529090D01*
X311729Y530003D01*
X310816Y530614D01*
X309738Y530828D01*
D02*
G37*
G36*
X237500Y526816D02*
X236422Y526602D01*
X235509Y525991D01*
X234898Y525078D01*
X234684Y524000D01*
X234898Y522922D01*
X235509Y522009D01*
X236422Y521398D01*
X237500Y521184D01*
X238578Y521398D01*
X239491Y522009D01*
X240102Y522922D01*
X240316Y524000D01*
X240102Y525078D01*
X239491Y525991D01*
X238578Y526602D01*
X237500Y526816D01*
D02*
G37*
G36*
X276750Y526566D02*
X275672Y526352D01*
X274759Y525741D01*
X274148Y524828D01*
X273934Y523750D01*
X274148Y522672D01*
X274759Y521759D01*
X275672Y521148D01*
X276750Y520934D01*
X277828Y521148D01*
X278741Y521759D01*
X279352Y522672D01*
X279566Y523750D01*
X279352Y524828D01*
X278741Y525741D01*
X277828Y526352D01*
X276750Y526566D01*
D02*
G37*
G36*
X250500Y524566D02*
X249422Y524352D01*
X248509Y523741D01*
X247898Y522828D01*
X247684Y521750D01*
X247898Y520672D01*
X248509Y519759D01*
X249422Y519148D01*
X250500Y518934D01*
X251578Y519148D01*
X252491Y519759D01*
X253102Y520672D01*
X253316Y521750D01*
X253102Y522828D01*
X252491Y523741D01*
X251578Y524352D01*
X250500Y524566D01*
D02*
G37*
G36*
X263500Y524566D02*
X262422Y524352D01*
X261509Y523741D01*
X260898Y522828D01*
X260684Y521750D01*
X260898Y520672D01*
X261509Y519759D01*
X262422Y519148D01*
X263500Y518934D01*
X264578Y519148D01*
X265491Y519759D01*
X266102Y520672D01*
X266316Y521750D01*
X266102Y522828D01*
X265491Y523741D01*
X264578Y524352D01*
X263500Y524566D01*
D02*
G37*
G36*
X172250Y523566D02*
X171172Y523352D01*
X170259Y522741D01*
X169648Y521828D01*
X169434Y520750D01*
X169648Y519672D01*
X170259Y518759D01*
X171172Y518148D01*
X172250Y517934D01*
X173328Y518148D01*
X174241Y518759D01*
X174852Y519672D01*
X175066Y520750D01*
X174852Y521828D01*
X174241Y522741D01*
X173328Y523352D01*
X172250Y523566D01*
D02*
G37*
G36*
X231250Y520316D02*
X230172Y520102D01*
X229259Y519491D01*
X228648Y518578D01*
X228434Y517500D01*
X228648Y516422D01*
X229259Y515509D01*
X230172Y514898D01*
X231250Y514684D01*
X232328Y514898D01*
X233241Y515509D01*
X233852Y516422D01*
X234066Y517500D01*
X233852Y518578D01*
X233241Y519491D01*
X232328Y520102D01*
X231250Y520316D01*
D02*
G37*
G36*
X217750Y519816D02*
X216672Y519602D01*
X215759Y518991D01*
X215148Y518078D01*
X214934Y517000D01*
X215148Y515922D01*
X215759Y515009D01*
X216672Y514398D01*
X217750Y514184D01*
X218828Y514398D01*
X219741Y515009D01*
X220352Y515922D01*
X220566Y517000D01*
X220352Y518078D01*
X219741Y518991D01*
X218828Y519602D01*
X217750Y519816D01*
D02*
G37*
G36*
X282750Y513566D02*
X281672Y513352D01*
X280759Y512741D01*
X280148Y511828D01*
X279934Y510750D01*
X280148Y509672D01*
X280759Y508759D01*
X281672Y508148D01*
X282750Y507934D01*
X283828Y508148D01*
X284741Y508759D01*
X285352Y509672D01*
X285566Y510750D01*
X285352Y511828D01*
X284741Y512741D01*
X283828Y513352D01*
X282750Y513566D01*
D02*
G37*
G36*
X153250Y513316D02*
X152172Y513102D01*
X151258Y512491D01*
X150648Y511578D01*
X150434Y510500D01*
X150648Y509422D01*
X151258Y508509D01*
X152172Y507898D01*
X153250Y507684D01*
X154327Y507898D01*
X155241Y508509D01*
X155852Y509422D01*
X156066Y510500D01*
X155852Y511578D01*
X155241Y512491D01*
X154327Y513102D01*
X153250Y513316D01*
D02*
G37*
G36*
X167750Y515316D02*
X166672Y515102D01*
X165759Y514491D01*
X165148Y513578D01*
X164934Y512500D01*
X165148Y511422D01*
X165683Y510621D01*
X165759Y510509D01*
X165767Y509266D01*
X165686Y509146D01*
X165156Y508352D01*
X164942Y507275D01*
X165156Y506197D01*
X165767Y505284D01*
X166681Y504673D01*
X167758Y504459D01*
X168836Y504673D01*
X169750Y505284D01*
X170360Y506197D01*
X170574Y507275D01*
X170360Y508352D01*
X169825Y509153D01*
X169750Y509266D01*
X169741Y510509D01*
X169822Y510629D01*
X170352Y511422D01*
X170566Y512500D01*
X170352Y513578D01*
X169741Y514491D01*
X168828Y515102D01*
X167750Y515316D01*
D02*
G37*
G36*
X344482Y508628D02*
X343404Y508414D01*
X342491Y507803D01*
X341880Y506890D01*
X341666Y505812D01*
X341880Y504734D01*
X342491Y503821D01*
X343404Y503210D01*
X344482Y502996D01*
X345560Y503210D01*
X346473Y503821D01*
X347084Y504734D01*
X347298Y505812D01*
X347084Y506890D01*
X346473Y507803D01*
X345560Y508414D01*
X344482Y508628D01*
D02*
G37*
G36*
X224500Y513566D02*
X223422Y513352D01*
X222509Y512741D01*
X221898Y511828D01*
X221684Y510750D01*
X221898Y509672D01*
X222509Y508759D01*
X223422Y508148D01*
X223930Y508047D01*
Y506753D01*
X223172Y506602D01*
X222259Y505991D01*
X221648Y505078D01*
X221434Y504000D01*
X221648Y502922D01*
X222259Y502009D01*
X223172Y501398D01*
X224250Y501184D01*
X225328Y501398D01*
X226241Y502009D01*
X226852Y502922D01*
X227066Y504000D01*
X226852Y505078D01*
X226241Y505991D01*
X225328Y506602D01*
X224820Y506703D01*
Y507998D01*
X225578Y508148D01*
X226491Y508759D01*
X227102Y509672D01*
X227316Y510750D01*
X227102Y511828D01*
X226491Y512741D01*
X225578Y513352D01*
X224500Y513566D01*
D02*
G37*
G36*
X179729Y558623D02*
X178651Y558409D01*
X177738Y557798D01*
X177127Y556885D01*
X176913Y555807D01*
X177127Y554729D01*
X177652Y553945D01*
X177732Y553776D01*
X177533Y552425D01*
X177259Y552241D01*
X176648Y551328D01*
X176434Y550250D01*
X176648Y549172D01*
X177178Y548379D01*
Y510358D01*
X175317Y508497D01*
X174868Y507825D01*
X174710Y507032D01*
X174710Y507032D01*
Y504938D01*
X170014Y500242D01*
X155451D01*
X154658Y500772D01*
X153580Y500986D01*
X152502Y500772D01*
X151589Y500162D01*
X150978Y499248D01*
X150764Y498170D01*
X150978Y497093D01*
X151589Y496179D01*
X152502Y495569D01*
X153580Y495354D01*
X154658Y495569D01*
X155451Y496098D01*
X170872D01*
X170872Y496098D01*
X171665Y496256D01*
X172337Y496705D01*
X175931Y500299D01*
X177356Y499928D01*
X177747Y499343D01*
X178548Y498807D01*
X178661Y498732D01*
X178500Y497566D01*
X178320Y497530D01*
X177422Y497352D01*
X176509Y496741D01*
X175898Y495828D01*
X175684Y494750D01*
X175898Y493672D01*
X176509Y492759D01*
X177422Y492148D01*
X178500Y491934D01*
X179578Y492148D01*
X180491Y492759D01*
X181102Y493672D01*
X181316Y494750D01*
X181102Y495828D01*
X180491Y496741D01*
X179690Y497277D01*
X179578Y497352D01*
X179738Y498518D01*
X179918Y498554D01*
X180816Y498732D01*
X181730Y499343D01*
X182340Y500256D01*
X182554Y501334D01*
X182340Y502412D01*
X181730Y503325D01*
X180816Y503936D01*
X179738Y504150D01*
X178854Y505269D01*
Y506174D01*
X180715Y508035D01*
X180715Y508035D01*
X181164Y508707D01*
X181322Y509500D01*
Y548379D01*
X181852Y549172D01*
X182066Y550250D01*
X181852Y551328D01*
X181327Y552113D01*
X181247Y552281D01*
X181446Y553632D01*
X181720Y553816D01*
X182331Y554729D01*
X182545Y555807D01*
X182331Y556885D01*
X181720Y557798D01*
X180807Y558409D01*
X179729Y558623D01*
D02*
G37*
G36*
X237500Y501496D02*
X236422Y501282D01*
X235509Y500671D01*
X234898Y499757D01*
X234684Y498680D01*
X234898Y497602D01*
X235509Y496688D01*
X236422Y496078D01*
X237500Y495864D01*
X238578Y496078D01*
X239491Y496688D01*
X240102Y497602D01*
X240316Y498680D01*
X240102Y499757D01*
X239491Y500671D01*
X238578Y501282D01*
X237500Y501496D01*
D02*
G37*
G36*
X250250Y500066D02*
X249172Y499852D01*
X248259Y499241D01*
X247648Y498328D01*
X247434Y497250D01*
X247648Y496172D01*
X248259Y495259D01*
X249172Y494648D01*
X250250Y494434D01*
X251328Y494648D01*
X252241Y495259D01*
X252852Y496172D01*
X253066Y497250D01*
X252852Y498328D01*
X252241Y499241D01*
X251328Y499852D01*
X250250Y500066D01*
D02*
G37*
G36*
X210500D02*
X209422Y499852D01*
X208509Y499241D01*
X207898Y498328D01*
X207684Y497250D01*
X207898Y496172D01*
X208509Y495259D01*
X209422Y494648D01*
X210500Y494434D01*
X211578Y494648D01*
X212491Y495259D01*
X213102Y496172D01*
X213316Y497250D01*
X213102Y498328D01*
X212491Y499241D01*
X211578Y499852D01*
X210500Y500066D01*
D02*
G37*
G36*
X398000Y491566D02*
X396922Y491352D01*
X396009Y490741D01*
X395581Y490101D01*
X395130Y490000D01*
X394620D01*
X394169Y490101D01*
X393741Y490741D01*
X392828Y491352D01*
X391750Y491566D01*
X390672Y491352D01*
X389759Y490741D01*
X389331Y490101D01*
X388880Y490000D01*
X388370D01*
X387919Y490101D01*
X387491Y490741D01*
X386578Y491352D01*
X385500Y491566D01*
X384422Y491352D01*
X383509Y490741D01*
X382898Y489828D01*
X382684Y488750D01*
X382898Y487672D01*
X383509Y486759D01*
X384149Y486331D01*
X384249Y485880D01*
Y485370D01*
X384149Y484919D01*
X383509Y484491D01*
X382898Y483578D01*
X382684Y482500D01*
X382898Y481422D01*
X383509Y480509D01*
X384149Y480081D01*
X384249Y479630D01*
Y479120D01*
X384149Y478669D01*
X383509Y478241D01*
X382898Y477328D01*
X382684Y476250D01*
X382898Y475172D01*
X383509Y474259D01*
X384422Y473648D01*
X385500Y473434D01*
X386578Y473648D01*
X387491Y474259D01*
X387919Y474899D01*
X388370Y475000D01*
X388880D01*
X389331Y474899D01*
X389759Y474259D01*
X390399Y473831D01*
X390499Y473380D01*
Y472870D01*
X390399Y472419D01*
X389759Y471991D01*
X389148Y471078D01*
X389056Y470616D01*
X387752Y469925D01*
X386009Y470994D01*
X381535Y472847D01*
X376827Y473977D01*
X372000Y474357D01*
X367173Y473977D01*
X362465Y472847D01*
X357991Y470994D01*
X353863Y468464D01*
X350181Y465319D01*
X347036Y461637D01*
X344506Y457509D01*
X342653Y453035D01*
X341523Y448327D01*
X341143Y443500D01*
X341295Y441565D01*
X340090Y440689D01*
X338938Y441166D01*
X336750Y441454D01*
X334562Y441166D01*
X332523Y440322D01*
X330772Y438978D01*
X329428Y437227D01*
X328584Y435188D01*
X328296Y433000D01*
X328584Y430812D01*
X329428Y428773D01*
X330772Y427022D01*
X332523Y425678D01*
X334562Y424834D01*
X336750Y424546D01*
X338938Y424834D01*
X340977Y425678D01*
X342728Y427022D01*
X343730Y428327D01*
X345019Y428380D01*
X345244Y428286D01*
X347036Y425363D01*
X350181Y421681D01*
X353863Y418536D01*
X357991Y416006D01*
X362465Y414153D01*
X367173Y413023D01*
X372000Y412643D01*
X376827Y413023D01*
X381535Y414153D01*
X386009Y416006D01*
X390137Y418536D01*
X393819Y421681D01*
X396964Y425363D01*
X399494Y429491D01*
X401347Y433965D01*
X402477Y438673D01*
X402857Y443500D01*
X402477Y448327D01*
X401347Y453035D01*
X399494Y457509D01*
X396964Y461637D01*
X393819Y465319D01*
X392887Y466115D01*
X392868Y466520D01*
X393115Y467590D01*
X393741Y468009D01*
X394169Y468649D01*
X394620Y468750D01*
X395130D01*
X395581Y468649D01*
X396009Y468009D01*
X396922Y467398D01*
X398000Y467184D01*
X399078Y467398D01*
X399991Y468009D01*
X400602Y468922D01*
X400816Y470000D01*
X400602Y471078D01*
X399991Y471991D01*
X399351Y472419D01*
X399250Y472870D01*
Y473380D01*
X399351Y473831D01*
X399991Y474259D01*
X400602Y475172D01*
X400816Y476250D01*
X400602Y477328D01*
X399991Y478241D01*
X399351Y478669D01*
X399250Y479120D01*
Y479630D01*
X399351Y480081D01*
X399991Y480509D01*
X400602Y481422D01*
X400816Y482500D01*
X400602Y483578D01*
X399991Y484491D01*
X399351Y484919D01*
X399250Y485370D01*
Y485880D01*
X399351Y486331D01*
X399991Y486759D01*
X400602Y487672D01*
X400816Y488750D01*
X400602Y489828D01*
X399991Y490741D01*
X399078Y491352D01*
X398000Y491566D01*
D02*
G37*
G36*
X373250Y491066D02*
X372172Y490852D01*
X371259Y490241D01*
X370831Y489600D01*
X370380Y489500D01*
X369870D01*
X369419Y489600D01*
X368991Y490241D01*
X368078Y490852D01*
X367000Y491066D01*
X365922Y490852D01*
X365009Y490241D01*
X364581Y489600D01*
X364130Y489500D01*
X363620D01*
X363169Y489600D01*
X362741Y490241D01*
X361828Y490852D01*
X360750Y491066D01*
X359672Y490852D01*
X358759Y490241D01*
X358148Y489328D01*
X357934Y488250D01*
X358148Y487172D01*
X358759Y486259D01*
X359399Y485831D01*
X359500Y485380D01*
Y484870D01*
X359399Y484419D01*
X358759Y483991D01*
X358148Y483078D01*
X357934Y482000D01*
X358148Y480922D01*
X358759Y480009D01*
X359672Y479398D01*
X360750Y479184D01*
X361828Y479398D01*
X362741Y480009D01*
X363169Y480649D01*
X363620Y480750D01*
X364130D01*
X364581Y480649D01*
X365009Y480009D01*
X365922Y479398D01*
X367000Y479184D01*
X368078Y479398D01*
X368991Y480009D01*
X369419Y480649D01*
X369870Y480750D01*
X370380D01*
X370831Y480649D01*
X371259Y480009D01*
X372172Y479398D01*
X373250Y479184D01*
X374328Y479398D01*
X375241Y480009D01*
X375852Y480922D01*
X376066Y482000D01*
X375852Y483078D01*
X375241Y483991D01*
X374600Y484419D01*
X374500Y484870D01*
Y485380D01*
X374600Y485831D01*
X375241Y486259D01*
X375852Y487172D01*
X376066Y488250D01*
X375852Y489328D01*
X375241Y490241D01*
X374328Y490852D01*
X373250Y491066D01*
D02*
G37*
G36*
X289250Y494066D02*
X288172Y493852D01*
X287259Y493241D01*
X286648Y492328D01*
X286434Y491250D01*
X286648Y490172D01*
X287259Y489259D01*
X288172Y488648D01*
X289250Y488434D01*
X290328Y488648D01*
X291241Y489259D01*
X291852Y490172D01*
X292066Y491250D01*
X291852Y492328D01*
X291241Y493241D01*
X290328Y493852D01*
X289250Y494066D01*
D02*
G37*
G36*
X206250Y492816D02*
X205172Y492602D01*
X204259Y491991D01*
X203648Y491078D01*
X203434Y490000D01*
X203648Y488922D01*
X204259Y488009D01*
X205172Y487398D01*
X206250Y487184D01*
X207328Y487398D01*
X208241Y488009D01*
X208852Y488922D01*
X209066Y490000D01*
X208852Y491078D01*
X208241Y491991D01*
X207328Y492602D01*
X206250Y492816D01*
D02*
G37*
G36*
X234250Y492566D02*
X233172Y492352D01*
X232259Y491741D01*
X231648Y490828D01*
X231434Y489750D01*
X231648Y488672D01*
X232259Y487759D01*
X233172Y487148D01*
X234250Y486934D01*
X235328Y487148D01*
X236241Y487759D01*
X236852Y488672D01*
X237066Y489750D01*
X236852Y490828D01*
X236241Y491741D01*
X235328Y492352D01*
X234250Y492566D01*
D02*
G37*
G36*
X240500Y489566D02*
X239422Y489352D01*
X238509Y488741D01*
X237898Y487828D01*
X237684Y486750D01*
X237898Y485672D01*
X238509Y484759D01*
X239422Y484148D01*
X240500Y483934D01*
X241578Y484148D01*
X242491Y484759D01*
X243102Y485672D01*
X243316Y486750D01*
X243102Y487828D01*
X242491Y488741D01*
X241578Y489352D01*
X240500Y489566D01*
D02*
G37*
G36*
X221250D02*
X220172Y489352D01*
X219259Y488741D01*
X218648Y487828D01*
X218434Y486750D01*
X218648Y485672D01*
X219259Y484759D01*
X220172Y484148D01*
X221250Y483934D01*
X222328Y484148D01*
X223241Y484759D01*
X223852Y485672D01*
X224066Y486750D01*
X223852Y487828D01*
X223241Y488741D01*
X222328Y489352D01*
X221250Y489566D01*
D02*
G37*
G36*
X150000D02*
X148922Y489352D01*
X148009Y488741D01*
X147398Y487828D01*
X147184Y486750D01*
X147398Y485672D01*
X148009Y484759D01*
X148922Y484148D01*
X150000Y483934D01*
X151078Y484148D01*
X151991Y484759D01*
X152602Y485672D01*
X152816Y486750D01*
X152602Y487828D01*
X151991Y488741D01*
X151078Y489352D01*
X150000Y489566D01*
D02*
G37*
G36*
X214510Y488590D02*
X213433Y488376D01*
X212519Y487765D01*
X211909Y486851D01*
X211694Y485774D01*
X211909Y484696D01*
X212519Y483782D01*
X213433Y483172D01*
X214510Y482958D01*
X215588Y483172D01*
X216502Y483782D01*
X217112Y484696D01*
X217327Y485774D01*
X217112Y486851D01*
X216502Y487765D01*
X215588Y488376D01*
X214510Y488590D01*
D02*
G37*
G36*
X283750Y488066D02*
X282672Y487852D01*
X281759Y487241D01*
X281148Y486328D01*
X280962Y485392D01*
X276785Y481215D01*
X276336Y480543D01*
X276178Y479750D01*
X276178Y479750D01*
Y471871D01*
X275648Y471078D01*
X275462Y470142D01*
X270142Y464822D01*
X203750D01*
X202957Y464664D01*
X202285Y464215D01*
X202285Y464215D01*
X199358Y461288D01*
X198422Y461102D01*
X197509Y460491D01*
X196898Y459578D01*
X196684Y458500D01*
X196898Y457422D01*
X197509Y456509D01*
X198422Y455898D01*
X199500Y455684D01*
X200578Y455898D01*
X201491Y456509D01*
X202102Y457422D01*
X202288Y458358D01*
X204608Y460678D01*
X271000D01*
X271000Y460678D01*
X271793Y460836D01*
X272465Y461285D01*
X278392Y467212D01*
X279328Y467398D01*
X280241Y468009D01*
X280852Y468922D01*
X281066Y470000D01*
X282234Y470638D01*
X282837Y470235D01*
X284500Y469905D01*
X286163Y470235D01*
X287573Y471177D01*
X288515Y472587D01*
X288845Y474250D01*
X288515Y475913D01*
X287573Y477323D01*
X286163Y478265D01*
X284500Y478596D01*
X282837Y478265D01*
X281838Y477597D01*
X280629Y478104D01*
X280540Y479110D01*
X283892Y482462D01*
X284828Y482648D01*
X285741Y483259D01*
X286025Y483683D01*
X287221Y483188D01*
X287184Y483000D01*
X287398Y481922D01*
X288009Y481009D01*
X288922Y480398D01*
X290000Y480184D01*
X291078Y480398D01*
X291991Y481009D01*
X292602Y481922D01*
X292816Y483000D01*
X292602Y484078D01*
X291991Y484991D01*
X291078Y485602D01*
X290000Y485816D01*
X288922Y485602D01*
X288009Y484991D01*
X287725Y484567D01*
X286529Y485062D01*
X286566Y485250D01*
X286352Y486328D01*
X285741Y487241D01*
X284828Y487852D01*
X283750Y488066D01*
D02*
G37*
G36*
X327300Y485566D02*
X326222Y485352D01*
X325309Y484741D01*
X324698Y483828D01*
X324484Y482750D01*
X324698Y481672D01*
X325309Y480759D01*
X326222Y480148D01*
X327300Y479934D01*
X328378Y480148D01*
X329291Y480759D01*
X329902Y481672D01*
X330116Y482750D01*
X329902Y483828D01*
X329291Y484741D01*
X328378Y485352D01*
X327300Y485566D01*
D02*
G37*
G36*
X245500Y478816D02*
X244422Y478602D01*
X243509Y477991D01*
X242898Y477078D01*
X242684Y476000D01*
X242898Y474922D01*
X243509Y474009D01*
X244422Y473398D01*
X245500Y473184D01*
X246578Y473398D01*
X247491Y474009D01*
X248102Y474922D01*
X248316Y476000D01*
X248102Y477078D01*
X247491Y477991D01*
X246578Y478602D01*
X245500Y478816D01*
D02*
G37*
G36*
X218500Y479096D02*
X216837Y478765D01*
X215427Y477823D01*
X214485Y476413D01*
X214154Y474750D01*
X214485Y473087D01*
X215427Y471678D01*
X216837Y470736D01*
X218500Y470405D01*
X220163Y470736D01*
X221573Y471678D01*
X222515Y473087D01*
X222845Y474750D01*
X222515Y476413D01*
X221573Y477823D01*
X220163Y478765D01*
X218500Y479096D01*
D02*
G37*
G36*
X270250Y474816D02*
X269172Y474602D01*
X268259Y473991D01*
X267648Y473078D01*
X267434Y472000D01*
X267648Y470922D01*
X268259Y470009D01*
X269172Y469398D01*
X270250Y469184D01*
X271328Y469398D01*
X272241Y470009D01*
X272852Y470922D01*
X273066Y472000D01*
X272852Y473078D01*
X272241Y473991D01*
X271328Y474602D01*
X270250Y474816D01*
D02*
G37*
G36*
X166758Y472089D02*
X165681Y471875D01*
X164767Y471264D01*
X164156Y470351D01*
X163942Y469273D01*
X164156Y468195D01*
X164767Y467282D01*
X165681Y466671D01*
X166758Y466457D01*
X167836Y466671D01*
X168749Y467282D01*
X169360Y468195D01*
X169574Y469273D01*
X169360Y470351D01*
X168749Y471264D01*
X167836Y471875D01*
X166758Y472089D01*
D02*
G37*
G36*
X201260Y471589D02*
X200182Y471375D01*
X199268Y470764D01*
X198658Y469851D01*
X198444Y468773D01*
X198658Y467695D01*
X199268Y466782D01*
X200182Y466171D01*
X201260Y465957D01*
X202337Y466171D01*
X203251Y466782D01*
X203862Y467695D01*
X204076Y468773D01*
X203862Y469851D01*
X203251Y470764D01*
X202337Y471375D01*
X201260Y471589D01*
D02*
G37*
G36*
X183750Y469316D02*
X182672Y469102D01*
X181759Y468491D01*
X181148Y467578D01*
X180934Y466500D01*
X181148Y465422D01*
X181759Y464509D01*
X182672Y463898D01*
X183750Y463684D01*
X184828Y463898D01*
X185741Y464509D01*
X186352Y465422D01*
X186566Y466500D01*
X186352Y467578D01*
X185741Y468491D01*
X184828Y469102D01*
X183750Y469316D01*
D02*
G37*
G36*
X338767Y469089D02*
X337689Y468875D01*
X336775Y468264D01*
X336165Y467350D01*
X335950Y466273D01*
X336165Y465195D01*
X336775Y464282D01*
X337689Y463671D01*
X338767Y463457D01*
X339844Y463671D01*
X340758Y464282D01*
X341368Y465195D01*
X341583Y466273D01*
X341368Y467350D01*
X340758Y468264D01*
X339844Y468875D01*
X338767Y469089D01*
D02*
G37*
G36*
X323000Y464316D02*
X321922Y464102D01*
X321009Y463491D01*
X320398Y462578D01*
X320184Y461500D01*
X320398Y460422D01*
X321009Y459509D01*
X321922Y458898D01*
X323000Y458684D01*
X324078Y458898D01*
X324991Y459509D01*
X325602Y460422D01*
X325816Y461500D01*
X325602Y462578D01*
X324991Y463491D01*
X324078Y464102D01*
X323000Y464316D01*
D02*
G37*
G36*
X192250Y450816D02*
X191172Y450602D01*
X190259Y449991D01*
X189648Y449078D01*
X189434Y448000D01*
X189648Y446922D01*
X190259Y446009D01*
X191172Y445398D01*
X192250Y445184D01*
X193328Y445398D01*
X194241Y446009D01*
X194852Y446922D01*
X195066Y448000D01*
X194852Y449078D01*
X194241Y449991D01*
X193328Y450602D01*
X192250Y450816D01*
D02*
G37*
G36*
X296264Y450588D02*
X295187Y450374D01*
X294273Y449763D01*
X293663Y448849D01*
X293448Y447772D01*
X293663Y446694D01*
X294273Y445781D01*
X295187Y445170D01*
X296264Y444956D01*
X297342Y445170D01*
X298256Y445781D01*
X298866Y446694D01*
X299081Y447772D01*
X298866Y448849D01*
X298256Y449763D01*
X297342Y450374D01*
X296264Y450588D01*
D02*
G37*
G36*
X308750Y446816D02*
X307672Y446602D01*
X306759Y445991D01*
X306148Y445078D01*
X305934Y444000D01*
X306148Y442922D01*
X306759Y442009D01*
X307672Y441398D01*
X308750Y441184D01*
X309828Y441398D01*
X310741Y442009D01*
X311352Y442922D01*
X311566Y444000D01*
X311352Y445078D01*
X310741Y445991D01*
X309828Y446602D01*
X308750Y446816D01*
D02*
G37*
G36*
X302250Y429816D02*
X301172Y429602D01*
X300259Y428991D01*
X299900Y428454D01*
X298695Y428310D01*
X298435Y428374D01*
X298229Y428681D01*
X297316Y429292D01*
X296238Y429506D01*
X295160Y429292D01*
X294247Y428681D01*
X293636Y427768D01*
X293422Y426690D01*
X293636Y425612D01*
X294247Y424699D01*
X295160Y424088D01*
X296238Y423874D01*
X297316Y424088D01*
X298229Y424699D01*
X298588Y425236D01*
X299793Y425380D01*
X300053Y425316D01*
X300259Y425009D01*
X301172Y424398D01*
X302250Y424184D01*
X303328Y424398D01*
X304241Y425009D01*
X304852Y425922D01*
X305066Y427000D01*
X304852Y428078D01*
X304241Y428991D01*
X303328Y429602D01*
X302250Y429816D01*
D02*
G37*
G36*
X286420Y429896D02*
X285342Y429682D01*
X284429Y429071D01*
X283818Y428158D01*
X283604Y427080D01*
X283818Y426002D01*
X284429Y425089D01*
X285342Y424478D01*
X286420Y424264D01*
X287498Y424478D01*
X288411Y425089D01*
X289022Y426002D01*
X289236Y427080D01*
X289022Y428158D01*
X288411Y429071D01*
X287498Y429682D01*
X286420Y429896D01*
D02*
G37*
G36*
X311750Y428816D02*
X310672Y428602D01*
X309759Y427991D01*
X309148Y427078D01*
X308934Y426000D01*
X309148Y424922D01*
X309759Y424009D01*
X310672Y423398D01*
X311750Y423184D01*
X312828Y423398D01*
X313741Y424009D01*
X314352Y424922D01*
X314566Y426000D01*
X314352Y427078D01*
X313741Y427991D01*
X312828Y428602D01*
X311750Y428816D01*
D02*
G37*
G36*
X215750Y434316D02*
X214672Y434102D01*
X213759Y433491D01*
X213148Y432578D01*
X212934Y431500D01*
X213148Y430422D01*
X213759Y429509D01*
X213775Y429498D01*
X213803Y429417D01*
X213688Y428028D01*
X213259Y427741D01*
X212648Y426828D01*
X212434Y425750D01*
X212648Y424672D01*
X213259Y423759D01*
X214172Y423148D01*
X215250Y422934D01*
X216328Y423148D01*
X217241Y423759D01*
X217852Y424672D01*
X218066Y425750D01*
X217852Y426828D01*
X217241Y427741D01*
X217225Y427752D01*
X217197Y427833D01*
X217312Y429222D01*
X217741Y429509D01*
X218352Y430422D01*
X218566Y431500D01*
X218352Y432578D01*
X217741Y433491D01*
X216828Y434102D01*
X215750Y434316D01*
D02*
G37*
G36*
X208010Y428337D02*
X206933Y428122D01*
X206019Y427512D01*
X205408Y426598D01*
X205194Y425521D01*
X205408Y424443D01*
X206019Y423530D01*
X206933Y422919D01*
X208010Y422705D01*
X209088Y422919D01*
X210001Y423530D01*
X210612Y424443D01*
X210826Y425521D01*
X210612Y426598D01*
X210001Y427512D01*
X209088Y428122D01*
X208010Y428337D01*
D02*
G37*
G36*
X142000Y474357D02*
X137173Y473977D01*
X132465Y472847D01*
X127991Y470994D01*
X123863Y468464D01*
X120181Y465319D01*
X117036Y461637D01*
X114506Y457509D01*
X112653Y453035D01*
X111523Y448327D01*
X111143Y443500D01*
X111523Y438673D01*
X112653Y433965D01*
X114506Y429491D01*
X117036Y425363D01*
X120181Y421681D01*
X123863Y418536D01*
X127991Y416006D01*
X132465Y414153D01*
X137173Y413023D01*
X142000Y412643D01*
X146827Y413023D01*
X151535Y414153D01*
X156009Y416006D01*
X160137Y418536D01*
X163819Y421681D01*
X166964Y425363D01*
X167748Y426643D01*
X169145Y426491D01*
X170272Y425022D01*
X172023Y423678D01*
X174062Y422834D01*
X176250Y422546D01*
X178438Y422834D01*
X180477Y423678D01*
X182228Y425022D01*
X183572Y426773D01*
X184416Y428812D01*
X184704Y431000D01*
X184416Y433188D01*
X183572Y435227D01*
X182228Y436978D01*
X180477Y438322D01*
X178438Y439166D01*
X176250Y439454D01*
X174062Y439166D01*
X173781Y439050D01*
X172576Y439925D01*
X172857Y443500D01*
X172477Y448327D01*
X171347Y453035D01*
X169494Y457509D01*
X166964Y461637D01*
X163819Y465319D01*
X160137Y468464D01*
X156009Y470994D01*
X151535Y472847D01*
X146827Y473977D01*
X142000Y474357D01*
D02*
G37*
G36*
X257000Y437704D02*
X254812Y437416D01*
X252773Y436572D01*
X251022Y435228D01*
X249678Y433477D01*
X248834Y431438D01*
X248546Y429250D01*
X248834Y427062D01*
X249678Y425023D01*
X251022Y423272D01*
X252773Y421928D01*
X254812Y421084D01*
X257000Y420796D01*
X259188Y421084D01*
X261227Y421928D01*
X262978Y423272D01*
X264322Y425023D01*
X265166Y427062D01*
X265454Y429250D01*
X265166Y431438D01*
X264322Y433477D01*
X262978Y435228D01*
X261227Y436572D01*
X259188Y437416D01*
X257000Y437704D01*
D02*
G37*
G36*
X227511Y424587D02*
X226433Y424372D01*
X225520Y423762D01*
X224909Y422848D01*
X224695Y421771D01*
X224909Y420693D01*
X225520Y419779D01*
X226433Y419169D01*
X227511Y418955D01*
X228589Y419169D01*
X229502Y419779D01*
X230113Y420693D01*
X230327Y421771D01*
X230113Y422848D01*
X229502Y423762D01*
X228589Y424372D01*
X227511Y424587D01*
D02*
G37*
G36*
X186500Y421566D02*
X185422Y421352D01*
X184509Y420741D01*
X183898Y419828D01*
X183684Y418750D01*
X183898Y417672D01*
X184509Y416759D01*
X185422Y416148D01*
X186500Y415934D01*
X187578Y416148D01*
X188491Y416759D01*
X189102Y417672D01*
X189316Y418750D01*
X189102Y419828D01*
X188491Y420741D01*
X187578Y421352D01*
X186500Y421566D01*
D02*
G37*
%LPD*%
D15*
X339762Y521238D02*
X352725Y508275D01*
X343017Y535524D02*
X363684Y514857D01*
X339762Y553725D02*
Y554986D01*
X343017Y535524D02*
Y551277D01*
X339762Y521238D02*
Y533065D01*
X339210Y533617D02*
X339762Y533065D01*
X339210Y533617D02*
Y553173D01*
X339762Y553725D01*
X363684Y514857D02*
X363806Y514979D01*
X352725Y508275D02*
X361268D01*
X307722Y575528D02*
X308265D01*
X304512Y578738D02*
X307722Y575528D01*
X239975Y578738D02*
X304512D01*
X302552Y574698D02*
X308750Y568500D01*
X238302Y574698D02*
X302552D01*
X224537Y581750D02*
X229077Y586290D01*
X232423D02*
X239975Y578738D01*
X230750Y582250D02*
X238302Y574698D01*
X224537Y581750D02*
Y582213D01*
X229077Y586290D02*
X232423D01*
D67*
X339968Y560482D02*
X347750Y552700D01*
Y537639D02*
Y552700D01*
Y537639D02*
X363889Y521500D01*
X339968Y560482D02*
Y562220D01*
X338500Y563688D02*
X339968Y562220D01*
X338500Y563688D02*
Y580500D01*
X336428Y582572D02*
X338500Y580500D01*
X308428Y582572D02*
X336428D01*
X244072D02*
X308428D01*
X243750Y582250D02*
X244072Y582572D01*
X271000Y462750D02*
X278250Y470000D01*
X203750Y462750D02*
X271000D01*
X199500Y458500D02*
X203750Y462750D01*
X278250Y470000D02*
Y479750D01*
X283750Y485250D01*
X176782Y507032D02*
X179250Y509500D01*
X176782Y504080D02*
Y507032D01*
X170872Y498170D02*
X176782Y504080D01*
X153580Y498170D02*
X170872D01*
X179250Y509500D02*
Y550250D01*
X201260Y468760D02*
Y468773D01*
D69*
X136400Y537250D02*
D03*
X130050D02*
D03*
X123700Y537250D02*
D03*
X117350D02*
D03*
X111000Y537250D02*
D03*
X111000Y524550D02*
D03*
X117350Y524550D02*
D03*
X123700Y524550D02*
D03*
X130050D02*
D03*
X136400Y524550D02*
D03*
X136400Y530900D02*
D03*
X130050Y530900D02*
D03*
X111000Y530900D02*
D03*
X117350Y530900D02*
D03*
X111250Y504550D02*
D03*
X117600D02*
D03*
X123950Y504550D02*
D03*
X130300D02*
D03*
X136650Y504550D02*
D03*
X136650Y517250D02*
D03*
X130300Y517250D02*
D03*
X123950Y517250D02*
D03*
X117600D02*
D03*
X111250Y517250D02*
D03*
X111250Y510900D02*
D03*
X117600Y510900D02*
D03*
X136650Y510900D02*
D03*
X130300D02*
D03*
X111250Y483050D02*
D03*
X117600D02*
D03*
X123950Y483050D02*
D03*
X130300D02*
D03*
X136650Y483050D02*
D03*
X136650Y495750D02*
D03*
X130300Y495750D02*
D03*
X123950Y495750D02*
D03*
X117600D02*
D03*
X111250Y495750D02*
D03*
X111250Y489400D02*
D03*
X117600Y489400D02*
D03*
X136650Y489400D02*
D03*
X130300D02*
D03*
X330516Y466273D02*
D03*
X354750Y487750D02*
D03*
X339762Y554986D02*
D03*
X343017Y551277D02*
D03*
X363806Y514979D02*
D03*
X361268Y508275D02*
D03*
X363889Y521500D02*
D03*
X308428Y582572D02*
D03*
X308265Y575528D02*
D03*
X308750Y568500D02*
D03*
X199500Y458500D02*
D03*
X278250Y470000D02*
D03*
X283750Y485250D02*
D03*
X308750Y549500D02*
D03*
X296250Y549500D02*
D03*
X295500Y541436D02*
D03*
X331250Y497000D02*
D03*
X210250Y524000D02*
D03*
X304015Y481023D02*
D03*
X230261Y535276D02*
D03*
X228702Y525564D02*
D03*
X201260Y468773D02*
D03*
X179250Y550250D02*
D03*
X153580Y498170D02*
D03*
X168250Y480250D02*
D03*
X153080Y523920D02*
D03*
X172750Y505750D02*
D03*
X314000Y587750D02*
D03*
X308750Y486250D02*
D03*
X296250Y497250D02*
D03*
X308750Y497500D02*
D03*
X309250Y523250D02*
D03*
X263750Y569500D02*
D03*
X257250Y569250D02*
D03*
X211250Y556000D02*
D03*
X231000Y549250D02*
D03*
X236750Y472500D02*
D03*
X250250Y510500D02*
D03*
X270000Y510500D02*
D03*
X224537Y582213D02*
D03*
X230750Y582250D02*
D03*
X243750D02*
D03*
D70*
X123700Y530900D02*
D03*
X123950Y510900D02*
D03*
Y489400D02*
D03*
D71*
X388264Y589660D02*
D03*
X394750Y573500D02*
D03*
X387910Y557486D02*
D03*
X371750Y551000D02*
D03*
X355736Y557840D02*
D03*
X349250Y574000D02*
D03*
X356090Y590014D02*
D03*
X372250Y596500D02*
D03*
X158264Y589660D02*
D03*
X164750Y573500D02*
D03*
X157910Y557486D02*
D03*
X141750Y551000D02*
D03*
X125736Y557840D02*
D03*
X119250Y574000D02*
D03*
X126090Y590014D02*
D03*
X142250Y596500D02*
D03*
Y466250D02*
D03*
X126090Y459763D02*
D03*
X119250Y443750D02*
D03*
X125736Y427590D02*
D03*
X141750Y420750D02*
D03*
X157910Y427236D02*
D03*
X164750Y443250D02*
D03*
X158264Y459410D02*
D03*
X388264D02*
D03*
X394750Y443250D02*
D03*
X387910Y427236D02*
D03*
X371750Y420750D02*
D03*
X355736Y427590D02*
D03*
X349250Y443750D02*
D03*
X356090Y459763D02*
D03*
X372250Y466250D02*
D03*
D72*
X336750Y433000D02*
D03*
X176250Y431000D02*
D03*
D73*
X142000Y573750D02*
D03*
X372000D02*
D03*
X142000Y443500D02*
D03*
X372000D02*
D03*
M02*
