G04 Layer_Color=128*
%FSLAX44Y44*%
%MOMM*%
G71*
G01*
G75*
%ADD91C,0.0508*%
D91*
X566250Y1597500D02*
X568250D01*
X567250Y1596500D02*
Y1598500D01*
X482774Y1597828D02*
X484774D01*
X483774Y1596828D02*
Y1598828D01*
X563000Y1613000D02*
X565000D01*
X564000Y1612000D02*
Y1614000D01*
X483750Y1571000D02*
X485750D01*
X484750Y1570000D02*
Y1572000D01*
X460000Y1578000D02*
X462000D01*
X461000Y1577000D02*
Y1579000D01*
X442250Y1478500D02*
X444250D01*
X443250Y1477500D02*
Y1479500D01*
X509250Y1478500D02*
X511250D01*
X510250Y1477500D02*
Y1479500D01*
X515000Y1474000D02*
X517000D01*
X516000Y1473000D02*
Y1475000D01*
X450500Y1474250D02*
X452500D01*
X451500Y1473250D02*
Y1475250D01*
X433750Y1528000D02*
X435750D01*
X434750Y1527000D02*
Y1529000D01*
X443750Y1538750D02*
X445750D01*
X444750Y1537750D02*
Y1539750D01*
X506000Y1555750D02*
X508000D01*
X507000Y1554750D02*
Y1556750D01*
X460000Y1520000D02*
X462000D01*
X461000Y1519000D02*
Y1521000D01*
X458750Y1497500D02*
X460750D01*
X459750Y1496500D02*
Y1498500D01*
X434500Y1520250D02*
X436500D01*
X435500Y1519250D02*
Y1521250D01*
X485500Y1520000D02*
X487500D01*
X486500Y1519000D02*
Y1521000D01*
X477500Y1512750D02*
X479500D01*
X478500Y1511750D02*
Y1513750D01*
X426000Y1708500D02*
X428000D01*
X427000Y1707500D02*
Y1709500D01*
X426250Y1721750D02*
X428250D01*
X427250Y1720750D02*
Y1722750D01*
X584250Y1705750D02*
X586250D01*
X585250Y1704750D02*
Y1706750D01*
X548000Y1417000D02*
X550000D01*
X549000Y1416000D02*
Y1418000D01*
X583250Y1466750D02*
X585250D01*
X584250Y1465750D02*
Y1467750D01*
X574750Y1490250D02*
X576750D01*
X575750Y1489250D02*
Y1491250D01*
X599500Y1536250D02*
X601500D01*
X600500Y1535250D02*
Y1537250D01*
X541250Y1451000D02*
X543250D01*
X542250Y1450000D02*
Y1452000D01*
X558000Y1459500D02*
X560000D01*
X559000Y1458500D02*
Y1460500D01*
X552400Y1383750D02*
X554400D01*
X553400Y1382750D02*
Y1384750D01*
X570750Y1411750D02*
X572750D01*
X571750Y1410750D02*
Y1412750D01*
X450250Y1384250D02*
X452250D01*
X451250Y1383250D02*
Y1385250D01*
X462750Y1384250D02*
X464750D01*
X463750Y1383250D02*
Y1385250D01*
X551750Y1477750D02*
X553750D01*
X552750Y1476750D02*
Y1478750D01*
X515500Y1450000D02*
X517500D01*
X516500Y1449000D02*
Y1451000D01*
X551250Y1525750D02*
X553250D01*
X552250Y1524750D02*
Y1526750D01*
X546000Y1511500D02*
X548000D01*
X547000Y1510500D02*
Y1512500D01*
X545750Y1518000D02*
X547750D01*
X546750Y1517000D02*
Y1519000D01*
X559250Y1530250D02*
X561250D01*
X560250Y1529250D02*
Y1531250D01*
X515250Y1540500D02*
X517250D01*
X516250Y1539500D02*
Y1541500D01*
X560750Y1545250D02*
X562750D01*
X561750Y1544250D02*
Y1546250D01*
X554000Y1613000D02*
X556000D01*
X555000Y1612000D02*
Y1614000D01*
X415000Y1705500D02*
X417000D01*
X416000Y1704500D02*
Y1706500D01*
X428750Y1638000D02*
X430750D01*
X429750Y1637000D02*
Y1639000D01*
X582000Y1722500D02*
X584000D01*
X583000Y1721500D02*
Y1723500D01*
X582000Y1736000D02*
X584000D01*
X583000Y1735000D02*
Y1737000D01*
X582000Y1694000D02*
X584000D01*
X583000Y1693000D02*
Y1695000D01*
X425000Y1659250D02*
X427000D01*
X426000Y1658250D02*
Y1660250D01*
X488750Y1483000D02*
X490750D01*
X489750Y1482000D02*
Y1484000D01*
X517276Y1499500D02*
X519276D01*
X518276Y1498500D02*
Y1500500D01*
X495250Y1486450D02*
X497250D01*
X496250Y1485450D02*
Y1487450D01*
X392031Y1361250D02*
X394031D01*
X393031Y1360250D02*
Y1362250D01*
X392031Y1353919D02*
X394031D01*
X393031Y1352919D02*
Y1354919D01*
X392000Y1347000D02*
X394000D01*
X393000Y1346000D02*
Y1348000D01*
X392000Y1340500D02*
X394000D01*
X393000Y1339500D02*
Y1341500D01*
X494250Y1361250D02*
X496250D01*
X495250Y1360250D02*
Y1362250D01*
X494750Y1352750D02*
X496750D01*
X495750Y1351750D02*
Y1353750D01*
X494750Y1346000D02*
X496750D01*
X495750Y1345000D02*
Y1347000D01*
X495000Y1339500D02*
X497000D01*
X496000Y1338500D02*
Y1340500D01*
X521000Y1363750D02*
X523000D01*
X522000Y1362750D02*
Y1364750D01*
X521000Y1358500D02*
X523000D01*
X522000Y1357500D02*
Y1359500D01*
X521000Y1349500D02*
X523000D01*
X522000Y1348500D02*
Y1350500D01*
X521000Y1343250D02*
X523000D01*
X522000Y1342250D02*
Y1344250D01*
X597000Y1360500D02*
X599000D01*
X598000Y1359500D02*
Y1361500D01*
X596500Y1352750D02*
X598500D01*
X597500Y1351750D02*
Y1353750D01*
X596500Y1346500D02*
X598500D01*
X597500Y1345500D02*
Y1347500D01*
X596500Y1340250D02*
X598500D01*
X597500Y1339250D02*
Y1341250D01*
X392700Y1371600D02*
X394700D01*
X393700Y1370600D02*
Y1372600D01*
X399050Y1384300D02*
X401050D01*
X400050Y1383300D02*
Y1385300D01*
X392700Y1397000D02*
X394700D01*
X393700Y1396000D02*
Y1398000D01*
X399050Y1409700D02*
X401050D01*
X400050Y1408700D02*
Y1410700D01*
X392700Y1447800D02*
X394700D01*
X393700Y1446800D02*
Y1448800D01*
X392700Y1473200D02*
X394700D01*
X393700Y1472200D02*
Y1474200D01*
X392700Y1498600D02*
X394700D01*
X393700Y1497600D02*
Y1499600D01*
X392700Y1524000D02*
X394700D01*
X393700Y1523000D02*
Y1525000D01*
X392700Y1549400D02*
X394700D01*
X393700Y1548400D02*
Y1550400D01*
X392700Y1574800D02*
X394700D01*
X393700Y1573800D02*
Y1575800D01*
X392700Y1600200D02*
X394700D01*
X393700Y1599200D02*
Y1601200D01*
X392700Y1625600D02*
X394700D01*
X393700Y1624600D02*
Y1626600D01*
X392700Y1651000D02*
X394700D01*
X393700Y1650000D02*
Y1652000D01*
X392700Y1676400D02*
X394700D01*
X393700Y1675400D02*
Y1677400D01*
X392700Y1701800D02*
X394700D01*
X393700Y1700800D02*
Y1702800D01*
X399050Y1714500D02*
X401050D01*
X400050Y1713500D02*
Y1715500D01*
X392700Y1727200D02*
X394700D01*
X393700Y1726200D02*
Y1728200D01*
X399050Y1739900D02*
X401050D01*
X400050Y1738900D02*
Y1740900D01*
X405400Y1346200D02*
X407400D01*
X406400Y1345200D02*
Y1347200D01*
X411750Y1358900D02*
X413750D01*
X412750Y1357900D02*
Y1359900D01*
X405400Y1371600D02*
X407400D01*
X406400Y1370600D02*
Y1372600D01*
X405400Y1397000D02*
X407400D01*
X406400Y1396000D02*
Y1398000D01*
X411750Y1409700D02*
X413750D01*
X412750Y1408700D02*
Y1410700D01*
X405400Y1701800D02*
X407400D01*
X406400Y1700800D02*
Y1702800D01*
X411750Y1714500D02*
X413750D01*
X412750Y1713500D02*
Y1715500D01*
X405400Y1727200D02*
X407400D01*
X406400Y1726200D02*
Y1728200D01*
X411750Y1739900D02*
X413750D01*
X412750Y1738900D02*
Y1740900D01*
X418100Y1346200D02*
X420100D01*
X419100Y1345200D02*
Y1347200D01*
X424450Y1358900D02*
X426450D01*
X425450Y1357900D02*
Y1359900D01*
X418100Y1371600D02*
X420100D01*
X419100Y1370600D02*
Y1372600D01*
X418100Y1397000D02*
X420100D01*
X419100Y1396000D02*
Y1398000D01*
X424450Y1409700D02*
X426450D01*
X425450Y1408700D02*
Y1410700D01*
X424450Y1714500D02*
X426450D01*
X425450Y1713500D02*
Y1715500D01*
X418100Y1727200D02*
X420100D01*
X419100Y1726200D02*
Y1728200D01*
X424450Y1739900D02*
X426450D01*
X425450Y1738900D02*
Y1740900D01*
X430800Y1346200D02*
X432800D01*
X431800Y1345200D02*
Y1347200D01*
X437150Y1358900D02*
X439150D01*
X438150Y1357900D02*
Y1359900D01*
X430800Y1371600D02*
X432800D01*
X431800Y1370600D02*
Y1372600D01*
X430800Y1397000D02*
X432800D01*
X431800Y1396000D02*
Y1398000D01*
X437150Y1409700D02*
X439150D01*
X438150Y1408700D02*
Y1410700D01*
X443500Y1346200D02*
X445500D01*
X444500Y1345200D02*
Y1347200D01*
X449850Y1358900D02*
X451850D01*
X450850Y1357900D02*
Y1359900D01*
X443500Y1371600D02*
X445500D01*
X444500Y1370600D02*
Y1372600D01*
X443500Y1397000D02*
X445500D01*
X444500Y1396000D02*
Y1398000D01*
X443500Y1473200D02*
X445500D01*
X444500Y1472200D02*
Y1474200D01*
X443500Y1498600D02*
X445500D01*
X444500Y1497600D02*
Y1499600D01*
X443500Y1549400D02*
X445500D01*
X444500Y1548400D02*
Y1550400D01*
X449850Y1562100D02*
X451850D01*
X450850Y1561100D02*
Y1563100D01*
X443500Y1574800D02*
X445500D01*
X444500Y1573800D02*
Y1575800D01*
X449850Y1587500D02*
X451850D01*
X450850Y1586500D02*
Y1588500D01*
X443500Y1600200D02*
X445500D01*
X444500Y1599200D02*
Y1601200D01*
X456200Y1346200D02*
X458200D01*
X457200Y1345200D02*
Y1347200D01*
X462550Y1358900D02*
X464550D01*
X463550Y1357900D02*
Y1359900D01*
X456200Y1371600D02*
X458200D01*
X457200Y1370600D02*
Y1372600D01*
X456200Y1397000D02*
X458200D01*
X457200Y1396000D02*
Y1398000D01*
X456200Y1574800D02*
X458200D01*
X457200Y1573800D02*
Y1575800D01*
X462550Y1587500D02*
X464550D01*
X463550Y1586500D02*
Y1588500D01*
X468900Y1346200D02*
X470900D01*
X469900Y1345200D02*
Y1347200D01*
X475250Y1358900D02*
X477250D01*
X476250Y1357900D02*
Y1359900D01*
X468900Y1371600D02*
X470900D01*
X469900Y1370600D02*
Y1372600D01*
X475250Y1485900D02*
X477250D01*
X476250Y1484900D02*
Y1486900D01*
X468900Y1574800D02*
X470900D01*
X469900Y1573800D02*
Y1575800D01*
X481600Y1346200D02*
X483600D01*
X482600Y1345200D02*
Y1347200D01*
X481600Y1498600D02*
X483600D01*
X482600Y1497600D02*
Y1499600D01*
X507000Y1346200D02*
X509000D01*
X508000Y1345200D02*
Y1347200D01*
X519700Y1422400D02*
X521700D01*
X520700Y1421400D02*
Y1423400D01*
X526050Y1460500D02*
X528050D01*
X527050Y1459500D02*
Y1461500D01*
X532400Y1346200D02*
X534400D01*
X533400Y1345200D02*
Y1347200D01*
X538750Y1358900D02*
X540750D01*
X539750Y1357900D02*
Y1359900D01*
X532400Y1447800D02*
X534400D01*
X533400Y1446800D02*
Y1448800D01*
X545100Y1346200D02*
X547100D01*
X546100Y1345200D02*
Y1347200D01*
X551450Y1358900D02*
X553450D01*
X552450Y1357900D02*
Y1359900D01*
X545100Y1371600D02*
X547100D01*
X546100Y1370600D02*
Y1372600D01*
X551450Y1536700D02*
X553450D01*
X552450Y1535700D02*
Y1537700D01*
X557800Y1346200D02*
X559800D01*
X558800Y1345200D02*
Y1347200D01*
X564150Y1358900D02*
X566150D01*
X565150Y1357900D02*
Y1359900D01*
X557800Y1371600D02*
X559800D01*
X558800Y1370600D02*
Y1372600D01*
X564150Y1409700D02*
X566150D01*
X565150Y1408700D02*
Y1410700D01*
X564150Y1536700D02*
X566150D01*
X565150Y1535700D02*
Y1537700D01*
X564150Y1562100D02*
X566150D01*
X565150Y1561100D02*
Y1563100D01*
X570500Y1346200D02*
X572500D01*
X571500Y1345200D02*
Y1347200D01*
X576850Y1358900D02*
X578850D01*
X577850Y1357900D02*
Y1359900D01*
X570500Y1371600D02*
X572500D01*
X571500Y1370600D02*
Y1372600D01*
X576850Y1460500D02*
X578850D01*
X577850Y1459500D02*
Y1461500D01*
X570500Y1473200D02*
X572500D01*
X571500Y1472200D02*
Y1474200D01*
X570500Y1549400D02*
X572500D01*
X571500Y1548400D02*
Y1550400D01*
X576850Y1562100D02*
X578850D01*
X577850Y1561100D02*
Y1563100D01*
X570500Y1574800D02*
X572500D01*
X571500Y1573800D02*
Y1575800D01*
X576850Y1587500D02*
X578850D01*
X577850Y1586500D02*
Y1588500D01*
X576850Y1612900D02*
X578850D01*
X577850Y1611900D02*
Y1613900D01*
X583200Y1346200D02*
X585200D01*
X584200Y1345200D02*
Y1347200D01*
X583200Y1371600D02*
X585200D01*
X584200Y1370600D02*
Y1372600D01*
X589550Y1384300D02*
X591550D01*
X590550Y1383300D02*
Y1385300D01*
X589550Y1435100D02*
X591550D01*
X590550Y1434100D02*
Y1436100D01*
X589550Y1485900D02*
X591550D01*
X590550Y1484900D02*
Y1486900D01*
X583200Y1524000D02*
X585200D01*
X584200Y1523000D02*
Y1525000D01*
X583200Y1574800D02*
X585200D01*
X584200Y1573800D02*
Y1575800D01*
X583200Y1625600D02*
X585200D01*
X584200Y1624600D02*
Y1626600D01*
X589550Y1714500D02*
X591550D01*
X590550Y1713500D02*
Y1715500D01*
X589550Y1739900D02*
X591550D01*
X590550Y1738900D02*
Y1740900D01*
X595900Y1371600D02*
X597900D01*
X596900Y1370600D02*
Y1372600D01*
X602250Y1384300D02*
X604250D01*
X603250Y1383300D02*
Y1385300D01*
X595900Y1397000D02*
X597900D01*
X596900Y1396000D02*
Y1398000D01*
X602250Y1409700D02*
X604250D01*
X603250Y1408700D02*
Y1410700D01*
X595900Y1422400D02*
X597900D01*
X596900Y1421400D02*
Y1423400D01*
X602250Y1435100D02*
X604250D01*
X603250Y1434100D02*
Y1436100D01*
X595900Y1447800D02*
X597900D01*
X596900Y1446800D02*
Y1448800D01*
X595900Y1473200D02*
X597900D01*
X596900Y1472200D02*
Y1474200D01*
X602250Y1485900D02*
X604250D01*
X603250Y1484900D02*
Y1486900D01*
X595900Y1498600D02*
X597900D01*
X596900Y1497600D02*
Y1499600D01*
X602250Y1511300D02*
X604250D01*
X603250Y1510300D02*
Y1512300D01*
X602250Y1689100D02*
X604250D01*
X603250Y1688100D02*
Y1690100D01*
X595900Y1701800D02*
X597900D01*
X596900Y1700800D02*
Y1702800D01*
X602250Y1714500D02*
X604250D01*
X603250Y1713500D02*
Y1715500D01*
X595900Y1727200D02*
X597900D01*
X596900Y1726200D02*
Y1728200D01*
X602250Y1739900D02*
X604250D01*
X603250Y1738900D02*
Y1740900D01*
M02*
