G04 Layer_Color=8421504*
%FSLAX44Y44*%
%MOMM*%
G71*
G01*
G75*
%ADD55R,0.4500X0.4500*%
%ADD56R,0.4500X0.4500*%
%ADD57R,2.5008X1.0508*%
%ADD58R,1.0508X2.5008*%
%ADD59R,0.6508X0.5508*%
G04:AMPARAMS|DCode=60|XSize=0.3708mm|YSize=0.4108mm|CornerRadius=0.1054mm|HoleSize=0mm|Usage=FLASHONLY|Rotation=270.000|XOffset=0mm|YOffset=0mm|HoleType=Round|Shape=RoundedRectangle|*
%AMROUNDEDRECTD60*
21,1,0.3708,0.2000,0,0,270.0*
21,1,0.1600,0.4108,0,0,270.0*
1,1,0.2108,-0.1000,-0.0800*
1,1,0.2108,-0.1000,0.0800*
1,1,0.2108,0.1000,0.0800*
1,1,0.2108,0.1000,-0.0800*
%
%ADD60ROUNDEDRECTD60*%
G04:AMPARAMS|DCode=61|XSize=0.3708mm|YSize=0.4108mm|CornerRadius=0.1054mm|HoleSize=0mm|Usage=FLASHONLY|Rotation=0.000|XOffset=0mm|YOffset=0mm|HoleType=Round|Shape=RoundedRectangle|*
%AMROUNDEDRECTD61*
21,1,0.3708,0.2000,0,0,0.0*
21,1,0.1600,0.4108,0,0,0.0*
1,1,0.2108,0.0800,-0.1000*
1,1,0.2108,-0.0800,-0.1000*
1,1,0.2108,-0.0800,0.1000*
1,1,0.2108,0.0800,0.1000*
%
%ADD61ROUNDEDRECTD61*%
%ADD62R,0.7808X0.4008*%
%ADD63R,0.5508X0.5508*%
%ADD64R,0.5508X0.5508*%
%ADD65R,0.9652X0.6604*%
%ADD66R,0.6604X0.5588*%
%ADD67R,0.8008X0.6508*%
G04:AMPARAMS|DCode=68|XSize=0.5508mm|YSize=0.6508mm|CornerRadius=0mm|HoleSize=0mm|Usage=FLASHONLY|Rotation=135.000|XOffset=0mm|YOffset=0mm|HoleType=Round|Shape=Rectangle|*
%AMROTATEDRECTD68*
4,1,4,0.4248,0.0353,-0.0353,-0.4248,-0.4248,-0.0353,0.0353,0.4248,0.4248,0.0353,0.0*
%
%ADD68ROTATEDRECTD68*%

%ADD69R,1.5508X1.0508*%
%ADD70R,1.0508X0.5508*%
G04:AMPARAMS|DCode=71|XSize=0.5508mm|YSize=1.0508mm|CornerRadius=0.2754mm|HoleSize=0mm|Usage=FLASHONLY|Rotation=270.000|XOffset=0mm|YOffset=0mm|HoleType=Round|Shape=RoundedRectangle|*
%AMROUNDEDRECTD71*
21,1,0.5508,0.5000,0,0,270.0*
21,1,0.0000,1.0508,0,0,270.0*
1,1,0.5508,-0.2500,0.0000*
1,1,0.5508,-0.2500,0.0000*
1,1,0.5508,0.2500,0.0000*
1,1,0.5508,0.2500,0.0000*
%
%ADD71ROUNDEDRECTD71*%
%ADD72R,1.5508X1.2508*%
%ADD73R,0.5588X0.6604*%
G04:AMPARAMS|DCode=74|XSize=0.6604mm|YSize=0.9652mm|CornerRadius=0.1778mm|HoleSize=0mm|Usage=FLASHONLY|Rotation=270.000|XOffset=0mm|YOffset=0mm|HoleType=Round|Shape=RoundedRectangle|*
%AMROUNDEDRECTD74*
21,1,0.6604,0.6096,0,0,270.0*
21,1,0.3048,0.9652,0,0,270.0*
1,1,0.3556,-0.3048,-0.1524*
1,1,0.3556,-0.3048,0.1524*
1,1,0.3556,0.3048,0.1524*
1,1,0.3556,0.3048,-0.1524*
%
%ADD74ROUNDEDRECTD74*%
%ADD75R,1.4508X1.1508*%
G04:AMPARAMS|DCode=76|XSize=0.5588mm|YSize=0.6604mm|CornerRadius=0.1524mm|HoleSize=0mm|Usage=FLASHONLY|Rotation=270.000|XOffset=0mm|YOffset=0mm|HoleType=Round|Shape=RoundedRectangle|*
%AMROUNDEDRECTD76*
21,1,0.5588,0.3556,0,0,270.0*
21,1,0.2540,0.6604,0,0,270.0*
1,1,0.3048,-0.1778,-0.1270*
1,1,0.3048,-0.1778,0.1270*
1,1,0.3048,0.1778,0.1270*
1,1,0.3048,0.1778,-0.1270*
%
%ADD76ROUNDEDRECTD76*%
%ADD77R,0.5588X0.5588*%
%ADD78R,0.3048X0.6096*%
%ADD79R,0.5508X0.6508*%
G04:AMPARAMS|DCode=80|XSize=0.6604mm|YSize=1.7526mm|CornerRadius=0.3302mm|HoleSize=0mm|Usage=FLASHONLY|Rotation=0.000|XOffset=0mm|YOffset=0mm|HoleType=Round|Shape=RoundedRectangle|*
%AMROUNDEDRECTD80*
21,1,0.6604,1.0922,0,0,0.0*
21,1,0.0000,1.7526,0,0,0.0*
1,1,0.6604,0.0000,-0.5461*
1,1,0.6604,0.0000,-0.5461*
1,1,0.6604,0.0000,0.5461*
1,1,0.6604,0.0000,0.5461*
%
%ADD80ROUNDEDRECTD80*%
G04:AMPARAMS|DCode=81|XSize=2.8702mm|YSize=1.0668mm|CornerRadius=0.5334mm|HoleSize=0mm|Usage=FLASHONLY|Rotation=90.000|XOffset=0mm|YOffset=0mm|HoleType=Round|Shape=RoundedRectangle|*
%AMROUNDEDRECTD81*
21,1,2.8702,0.0000,0,0,90.0*
21,1,1.8034,1.0668,0,0,90.0*
1,1,1.0668,0.0000,0.9017*
1,1,1.0668,0.0000,-0.9017*
1,1,1.0668,0.0000,-0.9017*
1,1,1.0668,0.0000,0.9017*
%
%ADD81ROUNDEDRECTD81*%
%ADD82R,0.3508X0.9008*%
%ADD83R,1.6510X0.9652*%
%ADD84R,3.5008X3.5008*%
%ADD85O,0.6508X0.3508*%
%ADD86O,0.3508X0.6508*%
D55*
X552750Y1434550D02*
D03*
X565750Y1434550D02*
D03*
X552750Y1441050D02*
D03*
X565750Y1441050D02*
D03*
D56*
X559249Y1434550D02*
D03*
X572251Y1434550D02*
D03*
X559250Y1441050D02*
D03*
X572250Y1441050D02*
D03*
D57*
X441000Y1666000D02*
D03*
Y1652000D02*
D03*
Y1680000D02*
D03*
Y1694000D02*
D03*
Y1708000D02*
D03*
Y1736000D02*
D03*
Y1722000D02*
D03*
Y1638000D02*
D03*
X571000D02*
D03*
Y1722000D02*
D03*
Y1736000D02*
D03*
Y1708000D02*
D03*
Y1694000D02*
D03*
Y1680000D02*
D03*
Y1652000D02*
D03*
Y1666000D02*
D03*
D58*
X555000Y1613000D02*
D03*
X471000D02*
D03*
X457000D02*
D03*
X485000D02*
D03*
X499000D02*
D03*
X513000D02*
D03*
X541000D02*
D03*
X527000D02*
D03*
D59*
X424000Y1637000D02*
D03*
X414000Y1637000D02*
D03*
X420000Y1659750D02*
D03*
X410000Y1659750D02*
D03*
X500250Y1477000D02*
D03*
X490250D02*
D03*
X507250Y1546000D02*
D03*
X517250Y1546000D02*
D03*
D60*
X475000Y1504300D02*
D03*
X475000Y1498700D02*
D03*
X525000Y1543200D02*
D03*
X525000Y1548800D02*
D03*
X418000Y1650550D02*
D03*
X418000Y1644950D02*
D03*
X424000Y1650550D02*
D03*
X424000Y1644950D02*
D03*
D61*
X470450Y1517500D02*
D03*
X476050D02*
D03*
X459050Y1546250D02*
D03*
X453450Y1546250D02*
D03*
X459050Y1540000D02*
D03*
X453450Y1540000D02*
D03*
X543200Y1564000D02*
D03*
X548800Y1564000D02*
D03*
D62*
X455350Y1523000D02*
D03*
Y1528000D02*
D03*
Y1533000D02*
D03*
X444650Y1523000D02*
D03*
Y1528000D02*
D03*
Y1533000D02*
D03*
D63*
X467250Y1489750D02*
D03*
X459250Y1489750D02*
D03*
X451250D02*
D03*
X443250Y1489750D02*
D03*
X435250Y1489750D02*
D03*
X435250Y1505750D02*
D03*
X443250D02*
D03*
X451250Y1505750D02*
D03*
X459250Y1505750D02*
D03*
X467250Y1505750D02*
D03*
D64*
X435250Y1497750D02*
D03*
X467250Y1497750D02*
D03*
D65*
X495750Y1575250D02*
D03*
Y1590370D02*
D03*
X511750Y1575250D02*
D03*
Y1590370D02*
D03*
X527250Y1575250D02*
D03*
Y1590370D02*
D03*
X542500Y1575250D02*
D03*
Y1590370D02*
D03*
D66*
X556750Y1577170D02*
D03*
X556750Y1587250D02*
D03*
X527750Y1565580D02*
D03*
Y1555500D02*
D03*
X513750Y1565830D02*
D03*
Y1555750D02*
D03*
X499500Y1565580D02*
D03*
Y1555500D02*
D03*
X586250Y1410750D02*
D03*
X586250Y1420830D02*
D03*
D67*
X539000Y1546500D02*
D03*
Y1556500D02*
D03*
X552500Y1546500D02*
D03*
X552500Y1556500D02*
D03*
D68*
X553464Y1514714D02*
D03*
X560536Y1521786D02*
D03*
D69*
X598648Y1461000D02*
D03*
D70*
X584500Y1474000D02*
D03*
D71*
X584500Y1482000D02*
D03*
X584500Y1490000D02*
D03*
X584500Y1498000D02*
D03*
Y1506000D02*
D03*
X584500Y1514000D02*
D03*
D72*
X598648Y1527000D02*
D03*
D73*
X546750Y1401250D02*
D03*
X556830Y1401250D02*
D03*
X566750Y1401500D02*
D03*
X576830Y1401500D02*
D03*
D74*
X482750Y1426000D02*
D03*
X482750Y1440000D02*
D03*
X399000Y1435500D02*
D03*
X399000Y1421500D02*
D03*
D75*
X461250Y1425750D02*
D03*
X461250Y1440750D02*
D03*
X417250Y1680250D02*
D03*
X417250Y1695250D02*
D03*
D76*
X424750Y1441750D02*
D03*
X424750Y1433750D02*
D03*
D77*
X440750Y1433500D02*
D03*
D78*
X435750Y1440866D02*
D03*
X440750Y1440866D02*
D03*
X445830Y1440866D02*
D03*
X445830Y1426200D02*
D03*
X440750Y1426200D02*
D03*
X435750Y1426200D02*
D03*
D79*
X412250Y1434000D02*
D03*
X412250Y1424000D02*
D03*
D80*
X578500Y1383750D02*
D03*
X566000D02*
D03*
X553400Y1383750D02*
D03*
X540954Y1383750D02*
D03*
X476250Y1384250D02*
D03*
X463750D02*
D03*
X451250Y1384250D02*
D03*
X438650Y1384250D02*
D03*
X426204Y1384250D02*
D03*
X413504Y1384250D02*
D03*
D81*
X598000Y1352250D02*
D03*
X521396Y1352250D02*
D03*
X495750Y1352750D02*
D03*
X394200Y1352750D02*
D03*
D82*
X552750Y1423600D02*
D03*
X559250Y1423600D02*
D03*
X565750D02*
D03*
X572250Y1423600D02*
D03*
X552750Y1452000D02*
D03*
X559250Y1452000D02*
D03*
X565750Y1452000D02*
D03*
X572250Y1452000D02*
D03*
D83*
X503750Y1419018D02*
D03*
X503750Y1448250D02*
D03*
D84*
X518276Y1511450D02*
D03*
D85*
X541776Y1528950D02*
D03*
Y1523950D02*
D03*
Y1518950D02*
D03*
Y1513950D02*
D03*
X541776Y1508950D02*
D03*
X541776Y1503950D02*
D03*
X541776Y1498950D02*
D03*
X541776Y1493950D02*
D03*
X494776D02*
D03*
X494776Y1498950D02*
D03*
X494776Y1503950D02*
D03*
X494776Y1508950D02*
D03*
X494776Y1513950D02*
D03*
X494776Y1518950D02*
D03*
X494776Y1523950D02*
D03*
X494776Y1528950D02*
D03*
D86*
X535776Y1487950D02*
D03*
X530776Y1487950D02*
D03*
X525776Y1487950D02*
D03*
X520776Y1487950D02*
D03*
X515776D02*
D03*
X510776Y1487950D02*
D03*
X505776Y1487950D02*
D03*
X500776Y1487950D02*
D03*
X500776Y1534950D02*
D03*
X505776D02*
D03*
X510776Y1534950D02*
D03*
X515776Y1534950D02*
D03*
X520776Y1534950D02*
D03*
X525776Y1534950D02*
D03*
X530776Y1534950D02*
D03*
X535776D02*
D03*
M02*
