M48
;Layer_Color=9474304
;FILE_FORMAT=4:4
METRIC,LZ
;TYPE=PLATED
T1F00S00C0.2000
%
T01
X004064Y013462
X004191
X004318
X004445
X004572
X004699
X004826
X0049575Y01346
X00496Y013395
X0049575Y0135275
X0049525Y0136125
X0047625Y013589
X0046355
X0045085
X0043815
X0042545
X0041275
X004064Y013716
X004191
X004318
X004445
X004572
X004699
X0046375Y0138425
X0045125Y0138425
X004572Y01397
X004445
X004318
X004191
X004064
X0040005Y013843
Y014097
X0041275
X0042545
X0043815
X004445Y014732
X0044325Y014785
X004515Y0147425
X004445Y014986
X0045975Y014975
X00461Y0152
X004785Y0151275
X004865Y0152
X004826Y014986
X0047625Y014859
X0048975Y01483
X0049625Y0148645
X0051025Y014785
X00516Y01474
X005165Y0145
X005334Y014478
X0054225Y01451
X0052705Y014605
X00559Y014595
X0057785Y014605
X0058425Y0146675
X005969Y014732
X0059055Y014859
X0060325
X005969Y014986
X0060325Y015113
X006005Y0153625
X005842Y01524
X0056025Y0153025
X0056515Y015367
X0056175Y0154525
X005715Y015494
X0056515Y015621
X0057785
X005715Y015748
X005842
X0055245Y015367
X0055225Y0152575
X0054675Y01518
X00547Y015115
X0055275Y0147775
X005715Y014732
X0057575Y0149025
X005969Y014478
X0059055Y014351
X0060325
X005969Y014224
X0060325Y014097
X005969Y01397
X0059055Y013843
X0060325
X005969Y013716
X00598Y013605
X005975Y0135275
X005975Y013465
Y0134025
X005842Y013462
X005715
X005588
X005461
X005334
X00522Y0134325
Y013495
Y013585
Y0136375
X0053975Y013589
X0055245
X0056515
X0057785
X005715Y013716
X005588
X005461
X005534Y0138375
X00549Y01417
X0056515Y014097
X0057175Y0141175
X005842Y013716
X00508Y013462
X005207Y014224
X00518276Y014995
X0051625Y015405
X00507Y0155575
X0048475Y01571
X004699Y015748
X00461Y01578
X004572Y015748
X004445
X0045085Y015621
X004445Y015494
X0044475Y0153875
X0043475Y01528
X004355Y0152025
X003937Y01524
Y014986
Y014732
Y014478
Y01397
Y013716
X00393031Y0136125
Y01353919
X00393Y01347
Y013405
X003937Y015494
Y015748
Y016002
Y016256
Y01651
Y016764
Y017018
Y017272
X004064
X004191
X0042725Y0172175
X0042545Y017145
X00427Y017085
X00416Y017055
X0041275Y017145
X0040005
X004064Y017018
X0040005Y017399
X0041275
X0042545
X00426Y0165925
X0042975Y01638
X004445Y016002
X0045085Y015875
X0046355
X00483774Y01597828
X0056725Y015975
X00564Y01613
X00555
X0057785Y016129
X005842Y016256
X0057785Y015875
X00583Y01694
X0058525Y0170575
X0059055Y017145
X0060325
X005969Y017018
X0060325Y016891
X005969Y017272
X00583Y017225
Y01736
X0059055Y017399
X0060325
M30
